<?xml version="1.0" encoding="UTF-8" standalone="no"?>
<?xml-stylesheet href="static/css/cargoflow_styles.css" type="text/css"?>
<!DOCTYPE svg PUBLIC "-//W3C//DTD SVG 1.1//EN"
 "http://www.w3.org/Graphics/SVG/1.1/DTD/svg11.dtd">
<!-- Generated by graphviz version 10.0.1 (20240210.2158)
 -->
<!-- Title: arctic_basic Pages: 1 -->
<svg width="3084pt" height="1695pt"
 viewBox="0.00 0.00 3084.25 1695.25" xmlns="http://www.w3.org/2000/svg" xmlns:xlink="http://www.w3.org/1999/xlink">
<g id="graph0" class="graph" transform="scale(1 1) rotate(0) translate(4 1691.25)">
<title>arctic_basic</title>
<g id="a_graph0"><a xlink:title="Arctic Basic">
<polygon fill="white" stroke="none" points="-4,4 -4,-1691.25 3080.25,-1691.25 3080.25,4 -4,4"/>
</a>
</g>
<!-- C_ammonia -->
<g id="ammonia" class="node">
<title>C_ammonia</title>
<g id="a_ammonia"><a xlink:href="cargos.html#ammonia" xlink:title="&lt;TABLE&gt;" target="_top">
<polygon fill="#5582a8" stroke="#5582a8" points="1213.25,-271.75 1049.5,-271.75 1049.5,-219.5 1213.25,-219.5 1213.25,-271.75"/>
<polygon fill="none" stroke="#5582a8" points="1060.5,-226.5 1060.5,-264.75 1202.25,-264.75 1202.25,-226.5 1060.5,-226.5"/>
<text text-anchor="start" x="1063.5" y="-231.35" font-family="sans-serif" font-size="32.00" fill="white">Ammonia</text>
<polygon fill="none" stroke="#5582a8" points="1057.5,-223.5 1057.5,-267.75 1205.25,-267.75 1205.25,-223.5 1057.5,-223.5"/>
</a>
</g>
</g>
<!-- I_chemical_plant -->
<g id="chemical_plant" class="node">
<title>I_chemical_plant</title>
<g id="a_chemical_plant"><a xlink:href="industries.html#chemical_plant" xlink:title="Chemical Plant" target="_top">
<polygon fill="white" stroke="none" points="1337.5,-466 1337.5,-677.25 1639.5,-677.25 1639.5,-466 1337.5,-466"/>
<polygon fill="none" stroke="#c1cdcd" points="1337.5,-510.25 1337.5,-677.25 1639.5,-677.25 1639.5,-510.25 1337.5,-510.25"/>
<image xlink:href="static/img/industries/chemical_plant.png" width="300px" height="165px" preserveAspectRatio="xMinYMin meet" x="1338.5" y="-676.25"/>
<polygon fill="none" stroke="#c1cdcd" points="1337.5,-466 1337.5,-510.25 1639.5,-510.25 1639.5,-466 1337.5,-466"/>
<polygon fill="ghostwhite" stroke="none" points="1338.5,-467 1338.5,-509.25 1638.5,-509.25 1638.5,-467 1338.5,-467"/>
<text text-anchor="start" x="1380.88" y="-473.85" font-family="sans-serif" font-size="32.00">Chemical Plant</text>
</a>
</g>
</g>
<!-- C_ammonia&#45;&gt;I_chemical_plant -->
<g id="edge1" class="edge">
<title>C_ammonia&#45;&gt;I_chemical_plant</title>
<g id="a_edge1"><a xlink:title="Ammonia &#45;&gt; Chemical Plant">
<path fill="none" stroke="#5582a8" stroke-width="5" d="M1203.54,-272.14C1224.89,-281.87 1247.64,-294.12 1266.5,-308.62 1314.99,-345.91 1360.09,-395.53 1396.75,-441.62"/>
<polygon fill="#5582a8" stroke="#5582a8" stroke-width="5" points="1389.7,-446.81 1408.88,-457.22 1403.51,-436.06 1389.7,-446.81"/>
</a>
</g>
</g>
<!-- C_explosives -->
<g id="explosives" class="node">
<title>C_explosives</title>
<g id="a_explosives"><a xlink:href="cargos.html#explosives" xlink:title="&lt;TABLE&gt;" target="_top">
<polygon fill="#a8a8a8" stroke="#a8a8a8" points="1890,-758.75 1710.5,-758.75 1710.5,-706.5 1890,-706.5 1890,-758.75"/>
<polygon fill="none" stroke="#a8a8a8" points="1721.5,-713.5 1721.5,-751.75 1879,-751.75 1879,-713.5 1721.5,-713.5"/>
<text text-anchor="start" x="1724.5" y="-718.35" font-family="sans-serif" font-size="32.00" fill="white">Explosives</text>
<polygon fill="none" stroke="#a8a8a8" points="1718.5,-710.5 1718.5,-754.75 1882,-754.75 1882,-710.5 1718.5,-710.5"/>
</a>
</g>
</g>
<!-- I_chemical_plant&#45;&gt;C_explosives -->
<g id="edge18" class="edge">
<title>I_chemical_plant&#45;&gt;C_explosives</title>
<g id="a_edge18"><a xlink:title="Chemical Plant &#45;&gt; Explosives">
<path fill="none" stroke="#a8a8a8" stroke-width="5" d="M1647.1,-653.54C1683.71,-672.57 1720.13,-691.5 1748.15,-706.06"/>
</a>
</g>
</g>
<!-- C_fertiliser -->
<g id="fertiliser" class="node">
<title>C_fertiliser</title>
<g id="a_fertiliser"><a xlink:href="cargos.html#fertiliser" xlink:title="&lt;TABLE&gt;" target="_top">
<polygon fill="#a86052" stroke="#a86052" points="1875,-513.75 1725.5,-513.75 1725.5,-461.5 1875,-461.5 1875,-513.75"/>
<polygon fill="none" stroke="#a86052" points="1736.5,-468.5 1736.5,-506.75 1864,-506.75 1864,-468.5 1736.5,-468.5"/>
<text text-anchor="start" x="1739.5" y="-473.35" font-family="sans-serif" font-size="32.00" fill="white">Fertiliser</text>
<polygon fill="none" stroke="#a86052" points="1733.5,-465.5 1733.5,-509.75 1867,-509.75 1867,-465.5 1733.5,-465.5"/>
</a>
</g>
</g>
<!-- I_chemical_plant&#45;&gt;C_fertiliser -->
<g id="edge19" class="edge">
<title>I_chemical_plant&#45;&gt;C_fertiliser</title>
<g id="a_edge19"><a xlink:title="Chemical Plant &#45;&gt; Fertiliser">
<path fill="none" stroke="#a86052" stroke-width="5" d="M1647.1,-528.89C1674.3,-521.51 1701.39,-514.16 1725,-507.76"/>
</a>
</g>
</g>
<!-- C_kaolin -->
<g id="kaolin" class="node">
<title>C_kaolin</title>
<g id="a_kaolin"><a xlink:href="cargos.html#kaolin" xlink:title="&lt;TABLE&gt;" target="_top">
<polygon fill="#a89a28" stroke="#a89a28" points="2518.75,-271.75 2334,-271.75 2334,-219.5 2518.75,-219.5 2518.75,-271.75"/>
<polygon fill="none" stroke="#a89a28" points="2345,-226.5 2345,-264.75 2507.75,-264.75 2507.75,-226.5 2345,-226.5"/>
<text text-anchor="start" x="2348" y="-231.35" font-family="sans-serif" font-size="32.00" fill="white">China Clay</text>
<polygon fill="none" stroke="#a89a28" points="2342,-223.5 2342,-267.75 2510.75,-267.75 2510.75,-223.5 2342,-223.5"/>
</a>
</g>
</g>
<!-- I_paper_mill -->
<g id="paper_mill" class="node">
<title>I_paper_mill</title>
<g id="a_paper_mill"><a xlink:href="industries.html#paper_mill" xlink:title="Paper Mill" target="_top">
<polygon fill="white" stroke="none" points="2589.75,-242 2589.75,-453.25 2891.75,-453.25 2891.75,-242 2589.75,-242"/>
<polygon fill="none" stroke="#c1cdcd" points="2589.75,-286.25 2589.75,-453.25 2891.75,-453.25 2891.75,-286.25 2589.75,-286.25"/>
<image xlink:href="static/img/industries/paper_mill.png" width="300px" height="165px" preserveAspectRatio="xMinYMin meet" x="2590.75" y="-452.25"/>
<polygon fill="none" stroke="#c1cdcd" points="2589.75,-242 2589.75,-286.25 2891.75,-286.25 2891.75,-242 2589.75,-242"/>
<polygon fill="ghostwhite" stroke="none" points="2590.75,-243 2590.75,-285.25 2890.75,-285.25 2890.75,-243 2590.75,-243"/>
<text text-anchor="start" x="2669.88" y="-249.85" font-family="sans-serif" font-size="32.00">Paper Mill</text>
</a>
</g>
</g>
<!-- C_kaolin&#45;&gt;I_paper_mill -->
<g id="edge2" class="edge">
<title>C_kaolin&#45;&gt;I_paper_mill</title>
<g id="a_edge2"><a xlink:title="China Clay &#45;&gt; Paper Mill">
<path fill="none" stroke="#a89a28" stroke-width="5" d="M2508.63,-272.16C2523.81,-277.12 2540.23,-282.48 2557.08,-287.98"/>
<polygon fill="#a89a28" stroke="#a89a28" stroke-width="5" points="2554.31,-296.28 2576.03,-294.17 2559.74,-279.64 2554.31,-296.28"/>
</a>
</g>
</g>
<!-- C_paper -->
<g id="paper" class="node">
<title>C_paper</title>
<g id="a_paper"><a xlink:href="cargos.html#paper" xlink:title="&lt;TABLE&gt;" target="_top">
<polygon fill="#74581c" stroke="#74581c" points="3076.25,-252.75 2962.75,-252.75 2962.75,-200.5 3076.25,-200.5 3076.25,-252.75"/>
<polygon fill="none" stroke="#74581c" points="2973.75,-207.5 2973.75,-245.75 3065.25,-245.75 3065.25,-207.5 2973.75,-207.5"/>
<text text-anchor="start" x="2976.75" y="-212.35" font-family="sans-serif" font-size="32.00" fill="white">Paper</text>
<polygon fill="none" stroke="#74581c" points="2970.75,-204.5 2970.75,-248.75 3068.25,-248.75 3068.25,-204.5 2970.75,-204.5"/>
</a>
</g>
</g>
<!-- I_paper_mill&#45;&gt;C_paper -->
<g id="edge25" class="edge">
<title>I_paper_mill&#45;&gt;C_paper</title>
<g id="a_edge25"><a xlink:title="Paper Mill &#45;&gt; Paper">
<path fill="none" stroke="#74581c" stroke-width="5" d="M2899.53,-278.64C2921.98,-268.82 2943.74,-259.31 2962.38,-251.16"/>
</a>
</g>
</g>
<!-- I_wharf -->
<g id="wharf" class="node">
<title>I_wharf</title>
<g id="a_wharf"><a xlink:href="industries.html#wharf" xlink:title="Wharf" target="_top">
<polygon fill="white" stroke="none" points="1961,-708 1961,-971.25 2263,-971.25 2263,-708 1961,-708"/>
<polygon fill="none" stroke="#c1cdcd" points="1961,-804.25 1961,-971.25 2263,-971.25 2263,-804.25 1961,-804.25"/>
<image xlink:href="static/img/industries/wharf.png" width="300px" height="165px" preserveAspectRatio="xMinYMin meet" x="1962" y="-970.25"/>
<polygon fill="none" stroke="#c1cdcd" points="1961,-708 1961,-804.25 2263,-804.25 2263,-708 1961,-708"/>
<polygon fill="ghostwhite" stroke="none" points="1962,-709 1962,-803.25 2262,-803.25 2262,-709 1962,-709"/>
<text text-anchor="start" x="2069.25" y="-767.85" font-family="sans-serif" font-size="32.00">Wharf</text>
<text text-anchor="start" x="1971.75" y="-742" font-family="sans-serif" font-size="20.00">Produces Engineering Supplies</text>
<text text-anchor="start" x="2002.5" y="-716" font-family="sans-serif" font-size="20.00">Produces Farm Supplies</text>
</a>
</g>
</g>
<!-- C_explosives&#45;&gt;I_wharf -->
<g id="edge3" class="edge">
<title>C_explosives&#45;&gt;I_wharf</title>
<g id="a_edge3"><a xlink:title="Explosives &#45;&gt; Wharf">
<path fill="none" stroke="#a8a8a8" stroke-width="5" d="M1878.22,-759.21C1893.89,-764.63 1911.01,-770.54 1928.62,-776.62"/>
<polygon fill="#a8a8a8" stroke="#a8a8a8" stroke-width="5" points="1925.63,-784.85 1947.39,-783.11 1931.35,-768.31 1925.63,-784.85"/>
</a>
</g>
</g>
<!-- C_potash -->
<g id="potash" class="node">
<title>C_potash</title>
<g id="a_potash"><a xlink:href="cargos.html#potash" xlink:title="&lt;TABLE&gt;" target="_top">
<polygon fill="#505050" stroke="#505050" points="2490.25,-750.75 2362.5,-750.75 2362.5,-698.5 2490.25,-698.5 2490.25,-750.75"/>
<polygon fill="none" stroke="#505050" points="2373.5,-705.5 2373.5,-743.75 2479.25,-743.75 2479.25,-705.5 2373.5,-705.5"/>
<text text-anchor="start" x="2376.5" y="-710.35" font-family="sans-serif" font-size="32.00" fill="white">Potash</text>
<polygon fill="none" stroke="#505050" points="2370.5,-702.5 2370.5,-746.75 2482.25,-746.75 2482.25,-702.5 2370.5,-702.5"/>
</a>
</g>
</g>
<!-- I_wharf&#45;&gt;C_potash -->
<g id="edge34" class="edge">
<title>I_wharf&#45;&gt;C_potash</title>
<g id="a_edge34"><a xlink:title="Wharf &#45;&gt; Potash">
<path fill="none" stroke="#505050" stroke-width="5" d="M2270.56,-781.62C2303.01,-769.67 2335.38,-757.76 2362.07,-747.93"/>
</a>
</g>
</g>
<!-- I_port -->
<g id="port" class="node">
<title>I_port</title>
<g id="a_port"><a xlink:href="industries.html#port" xlink:title="Port" target="_top">
<polygon fill="white" stroke="none" points="1961,-4 1961,-267.25 2263,-267.25 2263,-4 1961,-4"/>
<polygon fill="none" stroke="#c1cdcd" points="1961,-100.25 1961,-267.25 2263,-267.25 2263,-100.25 1961,-100.25"/>
<image xlink:href="static/img/industries/port.png" width="300px" height="165px" preserveAspectRatio="xMinYMin meet" x="1962" y="-266.25"/>
<polygon fill="none" stroke="#c1cdcd" points="1961,-4 1961,-100.25 2263,-100.25 2263,-4 1961,-4"/>
<polygon fill="ghostwhite" stroke="none" points="1962,-5 1962,-99.25 2262,-99.25 2262,-5 1962,-5"/>
<text text-anchor="start" x="2082.75" y="-63.85" font-family="sans-serif" font-size="32.00">Port</text>
<text text-anchor="start" x="1971.75" y="-38" font-family="sans-serif" font-size="20.00">Produces Engineering Supplies</text>
<text text-anchor="start" x="2002.5" y="-12" font-family="sans-serif" font-size="20.00">Produces Farm Supplies</text>
</a>
</g>
</g>
<!-- C_fertiliser&#45;&gt;I_port -->
<g id="edge4" class="edge">
<title>C_fertiliser&#45;&gt;I_port</title>
<g id="a_edge4"><a xlink:title="Fertiliser &#45;&gt; Port">
<path fill="none" stroke="#a86052" stroke-width="5" d="M1824.53,-461.17C1856.73,-424.58 1917.39,-355.65 1974.62,-290.61"/>
<polygon fill="#a86052" stroke="#a86052" stroke-width="5" points="1981.07,-296.52 1987.72,-275.72 1967.94,-284.96 1981.07,-296.52"/>
</a>
</g>
</g>
<!-- I_port&#45;&gt;C_ammonia -->
<g id="edge28" class="edge">
<title>I_port&#45;&gt;C_ammonia</title>
<g id="a_edge28"><a xlink:title="Port &#45;&gt; Ammonia">
<path fill="none" stroke="#5582a8" stroke-width="5" d="M1953.04,-162.62C1931.87,-165.86 1910.43,-168.97 1890,-171.62 1644.44,-203.58 1352.47,-228.4 1213.58,-239.41"/>
</a>
</g>
</g>
<!-- I_port&#45;&gt;C_kaolin -->
<g id="edge29" class="edge">
<title>I_port&#45;&gt;C_kaolin</title>
<g id="a_edge29"><a xlink:title="Port &#45;&gt; China Clay">
<path fill="none" stroke="#a89a28" stroke-width="5" d="M2270.56,-191.11C2298.31,-200.88 2326,-210.63 2350.13,-219.13"/>
</a>
</g>
</g>
<!-- C_fish -->
<g id="fish" class="node">
<title>C_fish</title>
<g id="a_fish"><a xlink:href="cargos.html#fish" xlink:title="&lt;TABLE&gt;" target="_top">
<polygon fill="#a84b60" stroke="#a84b60" points="510.62,-1295.75 422.62,-1295.75 422.62,-1243.5 510.62,-1243.5 510.62,-1295.75"/>
<polygon fill="none" stroke="#a84b60" points="433.62,-1250.5 433.62,-1288.75 499.62,-1288.75 499.62,-1250.5 433.62,-1250.5"/>
<text text-anchor="start" x="436.62" y="-1255.35" font-family="sans-serif" font-size="32.00" fill="white">Fish</text>
<polygon fill="none" stroke="#a84b60" points="430.62,-1247.5 430.62,-1291.75 502.62,-1291.75 502.62,-1247.5 430.62,-1247.5"/>
</a>
</g>
</g>
<!-- I_fishing_harbour -->
<g id="fishing_harbour" class="node">
<title>I_fishing_harbour</title>
<g id="a_fishing_harbour"><a xlink:href="industries.html#fishing_harbour" xlink:title="Fishing Harbour" target="_top">
<polygon fill="white" stroke="none" points="623.25,-1164 623.25,-1375.25 925.25,-1375.25 925.25,-1164 623.25,-1164"/>
<polygon fill="none" stroke="#c1cdcd" points="623.25,-1208.25 623.25,-1375.25 925.25,-1375.25 925.25,-1208.25 623.25,-1208.25"/>
<image xlink:href="static/img/industries/fishing_harbour.png" width="300px" height="165px" preserveAspectRatio="xMinYMin meet" x="624.25" y="-1374.25"/>
<polygon fill="none" stroke="#c1cdcd" points="623.25,-1164 623.25,-1208.25 925.25,-1208.25 925.25,-1164 623.25,-1164"/>
<polygon fill="ghostwhite" stroke="none" points="624.25,-1165 624.25,-1207.25 924.25,-1207.25 924.25,-1165 624.25,-1165"/>
<text text-anchor="start" x="660.25" y="-1171.85" font-family="sans-serif" font-size="32.00">Fishing Harbour</text>
</a>
</g>
</g>
<!-- C_fish&#45;&gt;I_fishing_harbour -->
<g id="edge5" class="edge">
<title>C_fish&#45;&gt;I_fishing_harbour</title>
<g id="a_edge5"><a xlink:title="Fish &#45;&gt; Fishing Harbour">
<path fill="none" stroke="#a84b60" stroke-width="5" d="M511.09,-1269.62C532.63,-1269.62 560.26,-1269.62 589.46,-1269.62"/>
<polygon fill="#a84b60" stroke="#a84b60" stroke-width="5" points="589.18,-1278.38 609.18,-1269.63 589.18,-1260.88 589.18,-1278.38"/>
</a>
</g>
</g>
<!-- C_food -->
<g id="food" class="node">
<title>C_food</title>
<g id="a_food"><a xlink:href="cargos.html#food" xlink:title="&lt;TABLE&gt;" target="_top">
<polygon fill="#347084" stroke="#347084" points="1266.5,-1483 996.25,-1483 996.25,-1350.25 1266.5,-1350.25 1266.5,-1483"/>
<polygon fill="none" stroke="#347084" points="1007.25,-1437.75 1007.25,-1476 1255.5,-1476 1255.5,-1437.75 1007.25,-1437.75"/>
<text text-anchor="start" x="1094.62" y="-1442.6" font-family="sans-serif" font-size="32.00" fill="white">Food</text>
<polygon fill="white" stroke="none" points="1007.25,-1397.5 1007.25,-1435.75 1255.5,-1435.75 1255.5,-1397.5 1007.25,-1397.5"/>
<polygon fill="none" stroke="#347084" points="1007.25,-1397.5 1007.25,-1435.75 1255.5,-1435.75 1255.5,-1397.5 1007.25,-1397.5"/>
<text text-anchor="start" x="1010.25" y="-1402.35" font-family="sans-serif" font-size="32.00">To General Store</text>
<polygon fill="white" stroke="none" points="1007.25,-1357.25 1007.25,-1395.5 1255.5,-1395.5 1255.5,-1357.25 1007.25,-1357.25"/>
<polygon fill="none" stroke="#347084" points="1007.25,-1357.25 1007.25,-1395.5 1255.5,-1395.5 1255.5,-1357.25 1007.25,-1357.25"/>
<text text-anchor="start" x="1072.5" y="-1362.1" font-family="sans-serif" font-size="32.00">To Hotel</text>
<polygon fill="none" stroke="#347084" points="1004.25,-1354.25 1004.25,-1479 1258.5,-1479 1258.5,-1354.25 1004.25,-1354.25"/>
</a>
</g>
</g>
<!-- I_fishing_harbour&#45;&gt;C_food -->
<g id="edge22" class="edge">
<title>I_fishing_harbour&#45;&gt;C_food</title>
<g id="a_edge22"><a xlink:title="Fishing Harbour &#45;&gt; Food">
<path fill="none" stroke="#347084" stroke-width="5" d="M933.08,-1334.96C954.01,-1343.62 975.32,-1352.44 995.81,-1360.92"/>
</a>
</g>
</g>
<!-- C_logs -->
<g id="logs" class="node">
<title>C_logs</title>
<g id="a_logs"><a xlink:href="cargos.html#logs" xlink:title="&lt;TABLE&gt;" target="_top">
<polygon fill="#5d45a8" stroke="#5d45a8" points="1180.25,-1000.75 1082.5,-1000.75 1082.5,-948.5 1180.25,-948.5 1180.25,-1000.75"/>
<polygon fill="none" stroke="#5d45a8" points="1093.5,-955.5 1093.5,-993.75 1169.25,-993.75 1169.25,-955.5 1093.5,-955.5"/>
<text text-anchor="start" x="1096.5" y="-960.35" font-family="sans-serif" font-size="32.00" fill="white">Logs</text>
<polygon fill="none" stroke="#5d45a8" points="1090.5,-952.5 1090.5,-996.75 1172.25,-996.75 1172.25,-952.5 1090.5,-952.5"/>
</a>
</g>
</g>
<!-- C_logs&#45;&gt;I_paper_mill -->
<g id="edge6" class="edge">
<title>C_logs&#45;&gt;I_paper_mill</title>
<g id="a_edge6"><a xlink:title="Logs &#45;&gt; Paper Mill">
<path fill="none" stroke="#5d45a8" stroke-width="5" d="M1180.56,-986.4C1289.87,-1012.03 1565.31,-1070.62 1799.25,-1070.62 1799.25,-1070.62 1799.25,-1070.62 2113,-1070.62 2421.44,-1070.62 2612.16,-690.29 2693.67,-481.33"/>
<polygon fill="#5d45a8" stroke="#5d45a8" stroke-width="5" points="2701.76,-484.67 2700.73,-462.87 2685.42,-478.42 2701.76,-484.67"/>
</a>
</g>
</g>
<!-- I_sawmill -->
<g id="sawmill" class="node">
<title>I_sawmill</title>
<g id="a_sawmill"><a xlink:href="industries.html#sawmill" xlink:title="Sawmill" target="_top">
<polygon fill="white" stroke="none" points="1337.5,-757 1337.5,-968.25 1639.5,-968.25 1639.5,-757 1337.5,-757"/>
<polygon fill="none" stroke="#c1cdcd" points="1337.5,-801.25 1337.5,-968.25 1639.5,-968.25 1639.5,-801.25 1337.5,-801.25"/>
<image xlink:href="static/img/industries/sawmill.png" width="300px" height="165px" preserveAspectRatio="xMinYMin meet" x="1338.5" y="-967.25"/>
<polygon fill="none" stroke="#c1cdcd" points="1337.5,-757 1337.5,-801.25 1639.5,-801.25 1639.5,-757 1337.5,-757"/>
<polygon fill="ghostwhite" stroke="none" points="1338.5,-758 1338.5,-800.25 1638.5,-800.25 1638.5,-758 1338.5,-758"/>
<text text-anchor="start" x="1433.75" y="-764.85" font-family="sans-serif" font-size="32.00">Sawmill</text>
</a>
</g>
</g>
<!-- C_logs&#45;&gt;I_sawmill -->
<g id="edge7" class="edge">
<title>C_logs&#45;&gt;I_sawmill</title>
<g id="a_edge7"><a xlink:title="Logs &#45;&gt; Sawmill">
<path fill="none" stroke="#5d45a8" stroke-width="5" d="M1180.64,-959.4C1213.35,-949.09 1258.85,-934.74 1304.81,-920.24"/>
<polygon fill="#5d45a8" stroke="#5d45a8" stroke-width="5" points="1307.18,-928.67 1323.62,-914.31 1301.91,-911.98 1307.18,-928.67"/>
</a>
</g>
</g>
<!-- C_timber -->
<g id="timber" class="node">
<title>C_timber</title>
<g id="a_timber"><a xlink:href="cargos.html#timber" xlink:title="&lt;TABLE&gt;" target="_top">
<polygon fill="#7d70a8" stroke="#7d70a8" points="1863.75,-878.75 1736.75,-878.75 1736.75,-826.5 1863.75,-826.5 1863.75,-878.75"/>
<polygon fill="none" stroke="#7d70a8" points="1747.75,-833.5 1747.75,-871.75 1852.75,-871.75 1852.75,-833.5 1747.75,-833.5"/>
<text text-anchor="start" x="1750.75" y="-838.35" font-family="sans-serif" font-size="32.00" fill="white">Timber</text>
<polygon fill="none" stroke="#7d70a8" points="1744.75,-830.5 1744.75,-874.75 1855.75,-874.75 1855.75,-830.5 1744.75,-830.5"/>
</a>
</g>
</g>
<!-- I_sawmill&#45;&gt;C_timber -->
<g id="edge33" class="edge">
<title>I_sawmill&#45;&gt;C_timber</title>
<g id="a_edge33"><a xlink:title="Sawmill &#45;&gt; Timber">
<path fill="none" stroke="#7d70a8" stroke-width="5" d="M1647.1,-857.54C1678.78,-856.51 1710.31,-855.5 1736.39,-854.65"/>
</a>
</g>
</g>
<!-- C_paper&#45;&gt;I_port -->
<g id="edge8" class="edge">
<title>C_paper&#45;&gt;I_port</title>
<g id="a_edge8"><a xlink:title="Paper &#45;&gt; Port">
<path fill="none" stroke="#74581c" stroke-width="5" d="M2962.45,-216.28C2942.69,-212.87 2920.28,-209.28 2899.75,-206.62 2693.93,-180.05 2456.53,-160.08 2296.8,-148.2"/>
<polygon fill="#74581c" stroke="#74581c" stroke-width="5" points="2297.68,-139.49 2277.09,-146.75 2296.39,-156.94 2297.68,-139.49"/>
</a>
</g>
</g>
<!-- C_peat -->
<g id="peat" class="node">
<title>C_peat</title>
<g id="a_peat"><a xlink:href="cargos.html#peat" xlink:title="&lt;TABLE&gt;" target="_top">
<polygon fill="#882034" stroke="#882034" points="1847.25,-1307.75 1753.25,-1307.75 1753.25,-1255.5 1847.25,-1255.5 1847.25,-1307.75"/>
<polygon fill="none" stroke="#882034" points="1764.25,-1262.5 1764.25,-1300.75 1836.25,-1300.75 1836.25,-1262.5 1764.25,-1262.5"/>
<text text-anchor="start" x="1767.25" y="-1267.35" font-family="sans-serif" font-size="32.00" fill="white">Peat</text>
<polygon fill="none" stroke="#882034" points="1761.25,-1259.5 1761.25,-1303.75 1839.25,-1303.75 1839.25,-1259.5 1761.25,-1259.5"/>
</a>
</g>
</g>
<!-- C_peat&#45;&gt;I_wharf -->
<g id="edge10" class="edge">
<title>C_peat&#45;&gt;I_wharf</title>
<g id="a_edge10"><a xlink:title="Peat &#45;&gt; Wharf">
<path fill="none" stroke="#882034" stroke-width="5" d="M1819.7,-1255.3C1854.9,-1205.06 1934.13,-1092.01 2001.08,-996.47"/>
<polygon fill="#882034" stroke="#882034" stroke-width="5" points="2008.15,-1001.64 2012.46,-980.24 1993.81,-991.6 2008.15,-1001.64"/>
</a>
</g>
</g>
<!-- I_power_plant -->
<g id="power_plant" class="node">
<title>I_power_plant</title>
<g id="a_power_plant"><a xlink:href="industries.html#power_plant" xlink:title="Power Plant" target="_top">
<polygon fill="white" stroke="none" points="1961,-1176 1961,-1387.25 2263,-1387.25 2263,-1176 1961,-1176"/>
<polygon fill="none" stroke="#c1cdcd" points="1961,-1220.25 1961,-1387.25 2263,-1387.25 2263,-1220.25 1961,-1220.25"/>
<image xlink:href="static/img/industries/power_plant.png" width="300px" height="165px" preserveAspectRatio="xMinYMin meet" x="1962" y="-1386.25"/>
<polygon fill="none" stroke="#c1cdcd" points="1961,-1176 1961,-1220.25 2263,-1220.25 2263,-1176 1961,-1176"/>
<polygon fill="ghostwhite" stroke="none" points="1962,-1177 1962,-1219.25 2262,-1219.25 2262,-1177 1962,-1177"/>
<text text-anchor="start" x="2025.75" y="-1183.85" font-family="sans-serif" font-size="32.00">Power Plant</text>
</a>
</g>
</g>
<!-- C_peat&#45;&gt;I_power_plant -->
<g id="edge9" class="edge">
<title>C_peat&#45;&gt;I_power_plant</title>
<g id="a_edge9"><a xlink:title="Peat &#45;&gt; Power Plant">
<path fill="none" stroke="#882034" stroke-width="5" d="M1847.62,-1281.62C1869.68,-1281.62 1897.64,-1281.62 1927.06,-1281.62"/>
<polygon fill="#882034" stroke="#882034" stroke-width="5" points="1926.93,-1290.38 1946.93,-1281.63 1926.93,-1272.88 1926.93,-1290.38"/>
</a>
</g>
</g>
<!-- C_phosphate -->
<g id="phosphate" class="node">
<title>C_phosphate</title>
<g id="a_phosphate"><a xlink:href="cargos.html#phosphate" xlink:title="&lt;TABLE&gt;" target="_top">
<polygon fill="#004ca8" stroke="#004ca8" points="1222.25,-597.75 1040.5,-597.75 1040.5,-545.5 1222.25,-545.5 1222.25,-597.75"/>
<polygon fill="none" stroke="#004ca8" points="1051.5,-552.5 1051.5,-590.75 1211.25,-590.75 1211.25,-552.5 1051.5,-552.5"/>
<text text-anchor="start" x="1054.5" y="-557.35" font-family="sans-serif" font-size="32.00" fill="white">Phosphate</text>
<polygon fill="none" stroke="#004ca8" points="1048.5,-549.5 1048.5,-593.75 1214.25,-593.75 1214.25,-549.5 1048.5,-549.5"/>
</a>
</g>
</g>
<!-- C_phosphate&#45;&gt;I_chemical_plant -->
<g id="edge11" class="edge">
<title>C_phosphate&#45;&gt;I_chemical_plant</title>
<g id="a_edge11"><a xlink:title="Phosphate &#45;&gt; Chemical Plant">
<path fill="none" stroke="#004ca8" stroke-width="5" d="M1222.45,-571.62C1247.38,-571.62 1275.39,-571.62 1303.61,-571.62"/>
<polygon fill="#004ca8" stroke="#004ca8" stroke-width="5" points="1303.26,-580.38 1323.26,-571.63 1303.26,-562.88 1303.26,-580.38"/>
</a>
</g>
</g>
<!-- C_potash&#45;&gt;I_chemical_plant -->
<g id="edge12" class="edge">
<title>C_potash&#45;&gt;I_chemical_plant</title>
<g id="a_edge12"><a xlink:title="Potash &#45;&gt; Chemical Plant">
<path fill="none" stroke="#505050" stroke-width="5" d="M2362.34,-700.27C2334.67,-690.39 2301.59,-679.68 2271,-672.62 2069.12,-626.05 1832.6,-599.24 1673.07,-585.1"/>
<polygon fill="#505050" stroke="#505050" stroke-width="5" points="1674.06,-576.4 1653.38,-583.4 1672.55,-593.84 1674.06,-576.4"/>
</a>
</g>
</g>
<!-- C_pyrite_ore -->
<g id="pyrite_ore" class="node">
<title>C_pyrite_ore</title>
<g id="a_pyrite_ore"><a xlink:href="cargos.html#pyrite_ore" xlink:title="&lt;TABLE&gt;" target="_top">
<polygon fill="#468fa8" stroke="#468fa8" points="552.25,-222.75 381,-222.75 381,-170.5 552.25,-170.5 552.25,-222.75"/>
<polygon fill="none" stroke="#468fa8" points="392,-177.5 392,-215.75 541.25,-215.75 541.25,-177.5 392,-177.5"/>
<text text-anchor="start" x="395" y="-182.35" font-family="sans-serif" font-size="32.00" fill="white">Pyrite Ore</text>
<polygon fill="none" stroke="#468fa8" points="389,-174.5 389,-218.75 544.25,-218.75 544.25,-174.5 389,-174.5"/>
</a>
</g>
</g>
<!-- I_pyrite_smelter -->
<g id="pyrite_smelter" class="node">
<title>I_pyrite_smelter</title>
<g id="a_pyrite_smelter"><a xlink:href="industries.html#pyrite_smelter" xlink:title="Pyrite Smelter" target="_top">
<polygon fill="white" stroke="none" points="623.25,-91 623.25,-302.25 925.25,-302.25 925.25,-91 623.25,-91"/>
<polygon fill="none" stroke="#c1cdcd" points="623.25,-135.25 623.25,-302.25 925.25,-302.25 925.25,-135.25 623.25,-135.25"/>
<image xlink:href="static/img/industries/pyrite_smelter.png" width="300px" height="165px" preserveAspectRatio="xMinYMin meet" x="624.25" y="-301.25"/>
<polygon fill="none" stroke="#c1cdcd" points="623.25,-91 623.25,-135.25 925.25,-135.25 925.25,-91 623.25,-91"/>
<polygon fill="ghostwhite" stroke="none" points="624.25,-92 624.25,-134.25 924.25,-134.25 924.25,-92 624.25,-92"/>
<text text-anchor="start" x="674.12" y="-98.85" font-family="sans-serif" font-size="32.00">Pyrite Smelter</text>
</a>
</g>
</g>
<!-- C_pyrite_ore&#45;&gt;I_pyrite_smelter -->
<g id="edge13" class="edge">
<title>C_pyrite_ore&#45;&gt;I_pyrite_smelter</title>
<g id="a_edge13"><a xlink:title="Pyrite Ore &#45;&gt; Pyrite Smelter">
<path fill="none" stroke="#468fa8" stroke-width="5" d="M552.35,-196.62C564.12,-196.62 576.57,-196.62 589.33,-196.62"/>
<polygon fill="#468fa8" stroke="#468fa8" stroke-width="5" points="589.14,-205.38 609.14,-196.63 589.14,-187.88 589.14,-205.38"/>
</a>
</g>
</g>
<!-- C_sulphur -->
<g id="sulphur" class="node">
<title>C_sulphur</title>
<g id="a_sulphur"><a xlink:href="cargos.html#sulphur" xlink:title="&lt;TABLE&gt;" target="_top">
<polygon fill="#a85050" stroke="#a85050" points="1200.5,-392.75 1062.25,-392.75 1062.25,-340.5 1200.5,-340.5 1200.5,-392.75"/>
<polygon fill="none" stroke="#a85050" points="1073.25,-347.5 1073.25,-385.75 1189.5,-385.75 1189.5,-347.5 1073.25,-347.5"/>
<text text-anchor="start" x="1076.25" y="-352.35" font-family="sans-serif" font-size="32.00" fill="white">Sulphur</text>
<polygon fill="none" stroke="#a85050" points="1070.25,-344.5 1070.25,-388.75 1192.5,-388.75 1192.5,-344.5 1070.25,-344.5"/>
</a>
</g>
</g>
<!-- I_pyrite_smelter&#45;&gt;C_sulphur -->
<g id="edge31" class="edge">
<title>I_pyrite_smelter&#45;&gt;C_sulphur</title>
<g id="a_edge31"><a xlink:title="Pyrite Smelter &#45;&gt; Sulphur">
<path fill="none" stroke="#a85050" stroke-width="5" d="M932.99,-273.27C954.23,-283.52 975.76,-293.85 996.25,-303.62 1021.56,-315.7 1049.63,-328.91 1073.53,-340.1"/>
</a>
</g>
</g>
<!-- C_zinc -->
<g id="zinc" class="node">
<title>C_zinc</title>
<g id="a_zinc"><a xlink:href="cargos.html#zinc" xlink:title="&lt;TABLE&gt;" target="_top">
<polygon fill="#a8926d" stroke="#a8926d" points="1532.5,-139.75 1444.5,-139.75 1444.5,-87.5 1532.5,-87.5 1532.5,-139.75"/>
<polygon fill="none" stroke="#a8926d" points="1455.5,-94.5 1455.5,-132.75 1521.5,-132.75 1521.5,-94.5 1455.5,-94.5"/>
<text text-anchor="start" x="1458.5" y="-99.35" font-family="sans-serif" font-size="32.00" fill="white">Zinc</text>
<polygon fill="none" stroke="#a8926d" points="1452.5,-91.5 1452.5,-135.75 1524.5,-135.75 1524.5,-91.5 1452.5,-91.5"/>
</a>
</g>
</g>
<!-- I_pyrite_smelter&#45;&gt;C_zinc -->
<g id="edge32" class="edge">
<title>I_pyrite_smelter&#45;&gt;C_zinc</title>
<g id="a_edge32"><a xlink:title="Pyrite Smelter &#45;&gt; Zinc">
<path fill="none" stroke="#a8926d" stroke-width="5" d="M932.88,-178.26C1097.39,-159.08 1344.95,-130.24 1444.14,-118.68"/>
</a>
</g>
</g>
<!-- C_sulphur&#45;&gt;I_chemical_plant -->
<g id="edge14" class="edge">
<title>C_sulphur&#45;&gt;I_chemical_plant</title>
<g id="a_edge14"><a xlink:title="Sulphur &#45;&gt; Chemical Plant">
<path fill="none" stroke="#a85050" stroke-width="5" d="M1178.44,-393.22C1211.81,-412.48 1259.29,-439.89 1307.04,-467.45"/>
<polygon fill="#a85050" stroke="#a85050" stroke-width="5" points="1302.6,-474.99 1324.3,-477.41 1311.35,-459.84 1302.6,-474.99"/>
</a>
</g>
</g>
<!-- C_sulphur&#45;&gt;I_paper_mill -->
<g id="edge15" class="edge">
<title>C_sulphur&#45;&gt;I_paper_mill</title>
<g id="a_edge15"><a xlink:title="Sulphur &#45;&gt; Paper Mill">
<path fill="none" stroke="#a85050" stroke-width="5" d="M1200.54,-366.62C1321.23,-366.62 1580.43,-366.62 1799.25,-366.62 1799.25,-366.62 1799.25,-366.62 2113,-366.62 2262.14,-366.62 2431.16,-361.18 2556.06,-356.12"/>
<polygon fill="#a85050" stroke="#a85050" stroke-width="5" points="2556.17,-364.88 2575.79,-355.31 2555.45,-347.39 2556.17,-364.88"/>
</a>
</g>
</g>
<!-- C_timber&#45;&gt;I_wharf -->
<g id="edge16" class="edge">
<title>C_timber&#45;&gt;I_wharf</title>
<g id="a_edge16"><a xlink:title="Timber &#45;&gt; Wharf">
<path fill="none" stroke="#7d70a8" stroke-width="5" d="M1863.93,-849.99C1882.88,-849.2 1904.72,-848.28 1927.41,-847.33"/>
<polygon fill="#7d70a8" stroke="#7d70a8" stroke-width="5" points="1927.43,-856.09 1947.05,-846.51 1926.7,-838.6 1927.43,-856.09"/>
</a>
</g>
</g>
<!-- C_zinc&#45;&gt;I_port -->
<g id="edge17" class="edge">
<title>C_zinc&#45;&gt;I_port</title>
<g id="a_edge17"><a xlink:title="Zinc &#45;&gt; Port">
<path fill="none" stroke="#a8926d" stroke-width="5" d="M1532.71,-115.15C1613.14,-118 1790.09,-124.27 1927.21,-129.12"/>
<polygon fill="#a8926d" stroke="#a8926d" stroke-width="5" points="1926.65,-137.85 1946.95,-129.82 1927.27,-120.37 1926.65,-137.85"/>
</a>
</g>
</g>
<!-- I_fish_farm -->
<g id="fish_farm" class="node">
<title>I_fish_farm</title>
<g id="a_fish_farm"><a xlink:href="industries.html#fish_farm" xlink:title="Fish Farm" target="_top">
<polygon fill="white" stroke="none" points="8,-1299 8,-1536.25 310,-1536.25 310,-1299 8,-1299"/>
<polygon fill="none" stroke="#c1cdcd" points="8,-1369.25 8,-1536.25 310,-1536.25 310,-1369.25 8,-1369.25"/>
<image xlink:href="static/img/industries/fish_farm.png" width="300px" height="165px" preserveAspectRatio="xMinYMin meet" x="9" y="-1535.25"/>
<polygon fill="none" stroke="#c1cdcd" points="8,-1299 8,-1369.25 310,-1369.25 310,-1299 8,-1299"/>
<polygon fill="ghostwhite" stroke="none" points="9,-1300 9,-1368.25 309,-1368.25 309,-1300 9,-1300"/>
<text text-anchor="start" x="87" y="-1332.85" font-family="sans-serif" font-size="32.00">Fish Farm</text>
<text text-anchor="start" x="51.75" y="-1307" font-family="sans-serif" font-size="20.00">Requires Farm Supplies</text>
</a>
</g>
</g>
<!-- I_fish_farm&#45;&gt;C_fish -->
<g id="edge20" class="edge">
<title>I_fish_farm&#45;&gt;C_fish</title>
<g id="a_edge20"><a xlink:title="Fish Farm &#45;&gt; Fish">
<path fill="none" stroke="#a84b60" stroke-width="5" d="M317.74,-1341.24C356.27,-1322.58 394.38,-1304.12 422.27,-1290.62"/>
</a>
</g>
</g>
<!-- I_fishing_grounds -->
<g id="fishing_grounds" class="node">
<title>I_fishing_grounds</title>
<g id="a_fishing_grounds"><a xlink:href="industries.html#fishing_grounds" xlink:title="Fishing Grounds" target="_top">
<polygon fill="white" stroke="none" points="8,-1017 8,-1228.25 310,-1228.25 310,-1017 8,-1017"/>
<polygon fill="none" stroke="#c1cdcd" points="8,-1061.25 8,-1228.25 310,-1228.25 310,-1061.25 8,-1061.25"/>
<image xlink:href="static/img/industries/fishing_grounds.png" width="300px" height="165px" preserveAspectRatio="xMinYMin meet" x="9" y="-1227.25"/>
<polygon fill="none" stroke="#c1cdcd" points="8,-1017 8,-1061.25 310,-1061.25 310,-1017 8,-1017"/>
<polygon fill="ghostwhite" stroke="none" points="9,-1018 9,-1060.25 309,-1060.25 309,-1018 9,-1018"/>
<text text-anchor="start" x="41.62" y="-1024.85" font-family="sans-serif" font-size="32.00">Fishing Grounds</text>
</a>
</g>
</g>
<!-- I_fishing_grounds&#45;&gt;C_fish -->
<g id="edge21" class="edge">
<title>I_fishing_grounds&#45;&gt;C_fish</title>
<g id="a_edge21"><a xlink:title="Fishing Grounds &#45;&gt; Fish">
<path fill="none" stroke="#a84b60" stroke-width="5" d="M317.74,-1198.49C356.27,-1217.03 394.38,-1235.36 422.27,-1248.77"/>
</a>
</g>
</g>
<!-- I_forest -->
<g id="forest" class="node">
<title>I_forest</title>
<g id="a_forest"><a xlink:href="industries.html#forest" xlink:title="Forest" target="_top">
<polygon fill="white" stroke="none" points="623.25,-856 623.25,-1093.25 925.25,-1093.25 925.25,-856 623.25,-856"/>
<polygon fill="none" stroke="#c1cdcd" points="623.25,-926.25 623.25,-1093.25 925.25,-1093.25 925.25,-926.25 623.25,-926.25"/>
<image xlink:href="static/img/industries/forest.png" width="300px" height="165px" preserveAspectRatio="xMinYMin meet" x="624.25" y="-1092.25"/>
<polygon fill="none" stroke="#c1cdcd" points="623.25,-856 623.25,-926.25 925.25,-926.25 925.25,-856 623.25,-856"/>
<polygon fill="ghostwhite" stroke="none" points="624.25,-857 624.25,-925.25 924.25,-925.25 924.25,-857 624.25,-857"/>
<text text-anchor="start" x="728.88" y="-889.85" font-family="sans-serif" font-size="32.00">Forest</text>
<text text-anchor="start" x="667" y="-864" font-family="sans-serif" font-size="20.00">Requires Farm Supplies</text>
</a>
</g>
</g>
<!-- I_forest&#45;&gt;C_logs -->
<g id="edge23" class="edge">
<title>I_forest&#45;&gt;C_logs</title>
<g id="a_edge23"><a xlink:title="Forest &#45;&gt; Logs">
<path fill="none" stroke="#5d45a8" stroke-width="5" d="M933.08,-974.62C987.17,-974.62 1043.74,-974.62 1082.36,-974.62"/>
</a>
</g>
</g>
<!-- I_herding_coop -->
<g id="herding_coop" class="node">
<title>I_herding_coop</title>
<g id="a_herding_coop"><a xlink:href="industries.html#herding_coop" xlink:title="Herding Co&#45;op" target="_top">
<polygon fill="white" stroke="none" points="623.25,-1446 623.25,-1683.25 925.25,-1683.25 925.25,-1446 623.25,-1446"/>
<polygon fill="none" stroke="#c1cdcd" points="623.25,-1516.25 623.25,-1683.25 925.25,-1683.25 925.25,-1516.25 623.25,-1516.25"/>
<image xlink:href="static/img/industries/herding_coop.png" width="300px" height="165px" preserveAspectRatio="xMinYMin meet" x="624.25" y="-1682.25"/>
<polygon fill="none" stroke="#c1cdcd" points="623.25,-1446 623.25,-1516.25 925.25,-1516.25 925.25,-1446 623.25,-1446"/>
<polygon fill="ghostwhite" stroke="none" points="624.25,-1447 624.25,-1515.25 924.25,-1515.25 924.25,-1447 624.25,-1447"/>
<text text-anchor="start" x="669.62" y="-1479.85" font-family="sans-serif" font-size="32.00">Herding Co&#45;op</text>
<text text-anchor="start" x="667" y="-1454" font-family="sans-serif" font-size="20.00">Requires Farm Supplies</text>
</a>
</g>
</g>
<!-- I_herding_coop&#45;&gt;C_food -->
<g id="edge24" class="edge">
<title>I_herding_coop&#45;&gt;C_food</title>
<g id="a_edge24"><a xlink:title="Herding Co&#45;op &#45;&gt; Food">
<path fill="none" stroke="#347084" stroke-width="5" d="M933.08,-1498.85C954.01,-1490.12 975.32,-1481.25 995.81,-1472.71"/>
</a>
</g>
</g>
<!-- I_peatlands -->
<g id="peatlands" class="node">
<title>I_peatlands</title>
<g id="a_peatlands"><a xlink:href="industries.html#peatlands" xlink:title="Peatlands" target="_top">
<polygon fill="white" stroke="none" points="1337.5,-1170 1337.5,-1407.25 1639.5,-1407.25 1639.5,-1170 1337.5,-1170"/>
<polygon fill="none" stroke="#c1cdcd" points="1337.5,-1240.25 1337.5,-1407.25 1639.5,-1407.25 1639.5,-1240.25 1337.5,-1240.25"/>
<image xlink:href="static/img/industries/peatlands.png" width="300px" height="165px" preserveAspectRatio="xMinYMin meet" x="1338.5" y="-1406.25"/>
<polygon fill="none" stroke="#c1cdcd" points="1337.5,-1170 1337.5,-1240.25 1639.5,-1240.25 1639.5,-1170 1337.5,-1170"/>
<polygon fill="ghostwhite" stroke="none" points="1338.5,-1171 1338.5,-1239.25 1638.5,-1239.25 1638.5,-1171 1338.5,-1171"/>
<text text-anchor="start" x="1417.25" y="-1203.85" font-family="sans-serif" font-size="32.00">Peatlands</text>
<text text-anchor="start" x="1350.5" y="-1178" font-family="sans-serif" font-size="20.00">Requires Engineering Supplies</text>
</a>
</g>
</g>
<!-- I_peatlands&#45;&gt;C_peat -->
<g id="edge26" class="edge">
<title>I_peatlands&#45;&gt;C_peat</title>
<g id="a_edge26"><a xlink:title="Peatlands &#45;&gt; Peat">
<path fill="none" stroke="#882034" stroke-width="5" d="M1647.1,-1285.06C1685.81,-1284.19 1724.29,-1283.32 1752.87,-1282.67"/>
</a>
</g>
</g>
<!-- I_phosphate_mine -->
<g id="phosphate_mine" class="node">
<title>I_phosphate_mine</title>
<g id="a_phosphate_mine"><a xlink:href="industries.html#phosphate_mine" xlink:title="Phosphate Mine" target="_top">
<polygon fill="white" stroke="none" points="623.25,-453 623.25,-690.25 925.25,-690.25 925.25,-453 623.25,-453"/>
<polygon fill="none" stroke="#c1cdcd" points="623.25,-523.25 623.25,-690.25 925.25,-690.25 925.25,-523.25 623.25,-523.25"/>
<image xlink:href="static/img/industries/phosphate_mine.png" width="300px" height="165px" preserveAspectRatio="xMinYMin meet" x="624.25" y="-689.25"/>
<polygon fill="none" stroke="#c1cdcd" points="623.25,-453 623.25,-523.25 925.25,-523.25 925.25,-453 623.25,-453"/>
<polygon fill="ghostwhite" stroke="none" points="624.25,-454 624.25,-522.25 924.25,-522.25 924.25,-454 624.25,-454"/>
<text text-anchor="start" x="658" y="-486.85" font-family="sans-serif" font-size="32.00">Phosphate Mine</text>
<text text-anchor="start" x="636.25" y="-461" font-family="sans-serif" font-size="20.00">Requires Engineering Supplies</text>
</a>
</g>
</g>
<!-- I_phosphate_mine&#45;&gt;C_phosphate -->
<g id="edge27" class="edge">
<title>I_phosphate_mine&#45;&gt;C_phosphate</title>
<g id="a_edge27"><a xlink:title="Phosphate Mine &#45;&gt; Phosphate">
<path fill="none" stroke="#004ca8" stroke-width="5" d="M933.08,-571.62C969.76,-571.62 1007.58,-571.62 1040.16,-571.62"/>
</a>
</g>
</g>
<!-- I_pyrite_mine -->
<g id="pyrite_mine" class="node">
<title>I_pyrite_mine</title>
<g id="a_pyrite_mine"><a xlink:href="industries.html#pyrite_mine" xlink:title="Pyrite Mine" target="_top">
<polygon fill="white" stroke="none" points="8,-78 8,-315.25 310,-315.25 310,-78 8,-78"/>
<polygon fill="none" stroke="#c1cdcd" points="8,-148.25 8,-315.25 310,-315.25 310,-148.25 8,-148.25"/>
<image xlink:href="static/img/industries/pyrite_mine.png" width="300px" height="165px" preserveAspectRatio="xMinYMin meet" x="9" y="-314.25"/>
<polygon fill="none" stroke="#c1cdcd" points="8,-78 8,-148.25 310,-148.25 310,-78 8,-78"/>
<polygon fill="ghostwhite" stroke="none" points="9,-79 9,-147.25 309,-147.25 309,-79 9,-79"/>
<text text-anchor="start" x="79.12" y="-111.85" font-family="sans-serif" font-size="32.00">Pyrite Mine</text>
<text text-anchor="start" x="21" y="-86" font-family="sans-serif" font-size="20.00">Requires Engineering Supplies</text>
</a>
</g>
</g>
<!-- I_pyrite_mine&#45;&gt;C_pyrite_ore -->
<g id="edge30" class="edge">
<title>I_pyrite_mine&#45;&gt;C_pyrite_ore</title>
<g id="a_edge30"><a xlink:title="Pyrite Mine &#45;&gt; Pyrite Ore">
<path fill="none" stroke="#468fa8" stroke-width="5" d="M317.74,-196.62C339.48,-196.62 361.1,-196.62 380.82,-196.62"/>
</a>
</g>
</g>
</g>
</svg>
