<?xml version="1.0" encoding="UTF-8" standalone="no"?>
<?xml-stylesheet href="static/css/cargoflow_styles.css" type="text/css"?>
<!DOCTYPE svg PUBLIC "-//W3C//DTD SVG 1.1//EN"
 "http://www.w3.org/Graphics/SVG/1.1/DTD/svg11.dtd">
<!-- Generated by graphviz version 10.0.1 (20240210.2158)
 -->
<!-- Title: temperate_basic Pages: 1 -->
<svg width="2305pt" height="2467pt"
 viewBox="0.00 0.00 2304.50 2467.25" xmlns="http://www.w3.org/2000/svg" xmlns:xlink="http://www.w3.org/1999/xlink">
<g id="page0,1_graph0" class="graph" transform="scale(1 1) rotate(0) translate(4 2463.25)">
<title>temperate_basic</title>
<g id="a_page0,1_graph0"><a xlink:title="Temperate Basic">
<polygon fill="white" stroke="none" points="-4,4 -4,-2463.25 2300.5,-2463.25 2300.5,4 -4,4"/>
</a>
</g>
<!-- I_port -->
<g id="port" class="node">
<title>I_port</title>
<g id="a_port"><a xlink:href="industries.html#port" xlink:title="Port" target="_top">
<polygon fill="white" stroke="none" points="1986.5,-961 1986.5,-1224.25 2288.5,-1224.25 2288.5,-961 1986.5,-961"/>
<polygon fill="none" stroke="#c1cdcd" points="1986.5,-1057.25 1986.5,-1224.25 2288.5,-1224.25 2288.5,-1057.25 1986.5,-1057.25"/>
<image xlink:href="static/img/industries/port.png" width="300px" height="165px" preserveAspectRatio="xMinYMin meet" x="1987.5" y="-1223.25"/>
<polygon fill="none" stroke="#c1cdcd" points="1986.5,-961 1986.5,-1057.25 2288.5,-1057.25 2288.5,-961 1986.5,-961"/>
<polygon fill="ghostwhite" stroke="none" points="1987.5,-962 1987.5,-1056.25 2287.5,-1056.25 2287.5,-962 1987.5,-962"/>
<text text-anchor="start" x="2108.25" y="-1020.85" font-family="sans-serif" font-size="32.00">Port</text>
<text text-anchor="start" x="1997.25" y="-995" font-family="sans-serif" font-size="20.00">Produces Engineering Supplies</text>
<text text-anchor="start" x="2028" y="-969" font-family="sans-serif" font-size="20.00">Produces Farm Supplies</text>
</a>
</g>
</g>
<!-- C_chemicals -->
<g id="chemicals" class="node">
<title>C_chemicals</title>
<g id="a_chemicals"><a xlink:href="cargos.html#chemicals" xlink:title="&lt;TABLE&gt;" target="_top">
<polygon fill="#a80000" stroke="#a80000" points="1201.25,-628.75 1024,-628.75 1024,-576.5 1201.25,-576.5 1201.25,-628.75"/>
<polygon fill="none" stroke="#a80000" points="1035,-583.5 1035,-621.75 1190.25,-621.75 1190.25,-583.5 1035,-583.5"/>
<text text-anchor="start" x="1038" y="-588.35" font-family="sans-serif" font-size="32.00" fill="white">Chemicals</text>
<polygon fill="none" stroke="#a80000" points="1032,-580.5 1032,-624.75 1193.25,-624.75 1193.25,-580.5 1032,-580.5"/>
</a>
</g>
</g>
<!-- I_port&#45;&gt;C_chemicals -->
<g id="edge32" class="edge">
<title>I_port&#45;&gt;C_chemicals</title>
<g id="a_edge32"><a xlink:title="Port &#45;&gt; Chemicals">
<path fill="none" stroke="#a80000" stroke-width="5" d="M1978.6,-991.49C1869.82,-924.33 1720.49,-837 1582.25,-772.62 1453.19,-712.53 1296.49,-659.47 1200.97,-629.22"/>
</a>
</g>
</g>
<!-- C_alcohol -->
<g id="alcohol" class="node">
<title>C_alcohol</title>
<g id="a_alcohol"><a xlink:href="cargos.html#alcohol" xlink:title="&lt;TABLE&gt;" target="_top">
<polygon fill="#5582a8" stroke="#5582a8" points="1915.5,-1262 1645.25,-1262 1645.25,-1129.25 1915.5,-1129.25 1915.5,-1262"/>
<polygon fill="none" stroke="#5582a8" points="1656.25,-1216.75 1656.25,-1255 1904.5,-1255 1904.5,-1216.75 1656.25,-1216.75"/>
<text text-anchor="start" x="1728.25" y="-1221.6" font-family="sans-serif" font-size="32.00" fill="white">Alcohol</text>
<polygon fill="white" stroke="none" points="1656.25,-1176.5 1656.25,-1214.75 1904.5,-1214.75 1904.5,-1176.5 1656.25,-1176.5"/>
<polygon fill="none" stroke="#5582a8" points="1656.25,-1176.5 1656.25,-1214.75 1904.5,-1214.75 1904.5,-1176.5 1656.25,-1176.5"/>
<text text-anchor="start" x="1659.25" y="-1181.35" font-family="sans-serif" font-size="32.00">To General Store</text>
<polygon fill="white" stroke="none" points="1656.25,-1136.25 1656.25,-1174.5 1904.5,-1174.5 1904.5,-1136.25 1656.25,-1136.25"/>
<polygon fill="none" stroke="#5582a8" points="1656.25,-1136.25 1656.25,-1174.5 1904.5,-1174.5 1904.5,-1136.25 1656.25,-1136.25"/>
<text text-anchor="start" x="1721.5" y="-1141.1" font-family="sans-serif" font-size="32.00">To Hotel</text>
<polygon fill="none" stroke="#5582a8" points="1653.25,-1133.25 1653.25,-1258 1907.5,-1258 1907.5,-1133.25 1653.25,-1133.25"/>
</a>
</g>
</g>
<!-- I_glass_works -->
<g id="glass_works" class="node">
<title>I_glass_works</title>
<g id="a_glass_works"><a xlink:href="industries.html#glass_works" xlink:title="Glass Works" target="_top">
<polygon fill="white" stroke="none" points="1272.25,-808 1272.25,-1019.25 1574.25,-1019.25 1574.25,-808 1272.25,-808"/>
<polygon fill="none" stroke="#c1cdcd" points="1272.25,-852.25 1272.25,-1019.25 1574.25,-1019.25 1574.25,-852.25 1272.25,-852.25"/>
<image xlink:href="static/img/industries/glass_works.png" width="300px" height="165px" preserveAspectRatio="xMinYMin meet" x="1273.25" y="-1018.25"/>
<polygon fill="none" stroke="#c1cdcd" points="1272.25,-808 1272.25,-852.25 1574.25,-852.25 1574.25,-808 1272.25,-808"/>
<polygon fill="ghostwhite" stroke="none" points="1273.25,-809 1273.25,-851.25 1573.25,-851.25 1573.25,-809 1273.25,-809"/>
<text text-anchor="start" x="1333.62" y="-815.85" font-family="sans-serif" font-size="32.00">Glass Works</text>
</a>
</g>
</g>
<!-- C_chemicals&#45;&gt;I_glass_works -->
<g id="edge1" class="edge">
<title>C_chemicals&#45;&gt;I_glass_works</title>
<g id="a_edge1"><a xlink:title="Chemicals &#45;&gt; Glass Works">
<path fill="none" stroke="#a80000" stroke-width="5" d="M1139.68,-629.22C1169.67,-659.79 1220.41,-711.44 1264.25,-755.62 1273.98,-765.44 1284.07,-775.57 1294.22,-785.76"/>
<polygon fill="#a80000" stroke="#a80000" stroke-width="5" points="1287.77,-791.69 1308.09,-799.67 1300.16,-779.33 1287.77,-791.69"/>
</a>
</g>
</g>
<!-- I_hardware_factory -->
<g id="hardware_factory" class="node">
<title>I_hardware_factory</title>
<g id="a_hardware_factory"><a xlink:href="industries.html#hardware_factory" xlink:title="Hardware Factory" target="_top">
<polygon fill="white" stroke="none" points="1272.25,-398 1272.25,-609.25 1574.25,-609.25 1574.25,-398 1272.25,-398"/>
<polygon fill="none" stroke="#c1cdcd" points="1272.25,-442.25 1272.25,-609.25 1574.25,-609.25 1574.25,-442.25 1272.25,-442.25"/>
<image xlink:href="static/img/industries/hardware_factory.png" width="300px" height="165px" preserveAspectRatio="xMinYMin meet" x="1273.25" y="-608.25"/>
<polygon fill="none" stroke="#c1cdcd" points="1272.25,-398 1272.25,-442.25 1574.25,-442.25 1574.25,-398 1272.25,-398"/>
<polygon fill="ghostwhite" stroke="none" points="1273.25,-399 1273.25,-441.25 1573.25,-441.25 1573.25,-399 1273.25,-399"/>
<text text-anchor="start" x="1295.75" y="-405.85" font-family="sans-serif" font-size="32.00">Hardware Factory</text>
</a>
</g>
</g>
<!-- C_chemicals&#45;&gt;I_hardware_factory -->
<g id="edge2" class="edge">
<title>C_chemicals&#45;&gt;I_hardware_factory</title>
<g id="a_edge2"><a xlink:title="Chemicals &#45;&gt; Hardware Factory">
<path fill="none" stroke="#a80000" stroke-width="5" d="M1196.33,-576.09C1210.05,-571.69 1224.74,-566.98 1239.8,-562.15"/>
<polygon fill="#a80000" stroke="#a80000" stroke-width="5" points="1242.22,-570.56 1258.59,-556.12 1236.87,-553.9 1242.22,-570.56"/>
</a>
</g>
</g>
<!-- I_metal_workshop -->
<g id="metal_workshop" class="node">
<title>I_metal_workshop</title>
<g id="a_metal_workshop"><a xlink:href="industries.html#metal_workshop" xlink:title="Metal Workshop" target="_top">
<polygon fill="white" stroke="none" points="1272.25,-116 1272.25,-327.25 1574.25,-327.25 1574.25,-116 1272.25,-116"/>
<polygon fill="none" stroke="#c1cdcd" points="1272.25,-160.25 1272.25,-327.25 1574.25,-327.25 1574.25,-160.25 1272.25,-160.25"/>
<image xlink:href="static/img/industries/metal_workshop.png" width="300px" height="165px" preserveAspectRatio="xMinYMin meet" x="1273.25" y="-326.25"/>
<polygon fill="none" stroke="#c1cdcd" points="1272.25,-116 1272.25,-160.25 1574.25,-160.25 1574.25,-116 1272.25,-116"/>
<polygon fill="ghostwhite" stroke="none" points="1273.25,-117 1273.25,-159.25 1573.25,-159.25 1573.25,-117 1273.25,-117"/>
<text text-anchor="start" x="1307.75" y="-123.85" font-family="sans-serif" font-size="32.00">Metal Workshop</text>
</a>
</g>
</g>
<!-- C_chemicals&#45;&gt;I_metal_workshop -->
<g id="edge3" class="edge">
<title>C_chemicals&#45;&gt;I_metal_workshop</title>
<g id="a_edge3"><a xlink:title="Chemicals &#45;&gt; Metal Workshop">
<path fill="none" stroke="#a80000" stroke-width="5" d="M1130.19,-576.18C1169.12,-514.03 1263.24,-363.82 1264.25,-362.62 1267.91,-358.29 1271.71,-353.96 1275.61,-349.66"/>
<polygon fill="#a80000" stroke="#a80000" stroke-width="5" points="1281.58,-356.07 1288.98,-335.54 1268.88,-344.04 1281.58,-356.07"/>
</a>
</g>
</g>
<!-- C_goods -->
<g id="goods" class="node">
<title>C_goods</title>
<g id="a_goods"><a xlink:href="cargos.html#goods" xlink:title="&lt;TABLE&gt;" target="_top">
<polygon fill="#a89a28" stroke="#a89a28" points="1915.5,-581.88 1645.25,-581.88 1645.25,-489.38 1915.5,-489.38 1915.5,-581.88"/>
<polygon fill="none" stroke="#a89a28" points="1656.25,-536.62 1656.25,-574.88 1904.5,-574.88 1904.5,-536.62 1656.25,-536.62"/>
<text text-anchor="start" x="1733.12" y="-541.48" font-family="sans-serif" font-size="32.00" fill="white">Goods</text>
<polygon fill="white" stroke="none" points="1656.25,-496.38 1656.25,-534.62 1904.5,-534.62 1904.5,-496.38 1656.25,-496.38"/>
<polygon fill="none" stroke="#a89a28" points="1656.25,-496.38 1656.25,-534.62 1904.5,-534.62 1904.5,-496.38 1656.25,-496.38"/>
<text text-anchor="start" x="1659.25" y="-501.23" font-family="sans-serif" font-size="32.00">To General Store</text>
<polygon fill="none" stroke="#a89a28" points="1653.25,-493.38 1653.25,-577.88 1907.5,-577.88 1907.5,-493.38 1653.25,-493.38"/>
</a>
</g>
</g>
<!-- I_glass_works&#45;&gt;C_goods -->
<g id="edge26" class="edge">
<title>I_glass_works&#45;&gt;C_goods</title>
<g id="a_edge26"><a xlink:title="Glass Works &#45;&gt; Goods">
<path fill="none" stroke="#a89a28" stroke-width="5" d="M1527.21,-804.04C1596.43,-730.35 1684.16,-636.98 1735.78,-582.02"/>
</a>
</g>
</g>
<!-- I_hardware_factory&#45;&gt;C_goods -->
<g id="edge27" class="edge">
<title>I_hardware_factory&#45;&gt;C_goods</title>
<g id="a_edge27"><a xlink:title="Hardware Factory &#45;&gt; Goods">
<path fill="none" stroke="#a89a28" stroke-width="5" d="M1582.08,-517.85C1603.01,-519.73 1624.32,-521.65 1644.81,-523.5"/>
</a>
</g>
</g>
<!-- I_metal_workshop&#45;&gt;C_goods -->
<g id="edge29" class="edge">
<title>I_metal_workshop&#45;&gt;C_goods</title>
<g id="a_edge29"><a xlink:title="Metal Workshop &#45;&gt; Goods">
<path fill="none" stroke="#a89a28" stroke-width="5" d="M1547.96,-331.01C1609.21,-385.17 1679.91,-447.68 1726.88,-489.21"/>
</a>
</g>
</g>
<!-- C_kaolin -->
<g id="kaolin" class="node">
<title>C_kaolin</title>
<g id="a_kaolin"><a xlink:href="cargos.html#kaolin" xlink:title="&lt;TABLE&gt;" target="_top">
<polygon fill="#74581c" stroke="#74581c" points="1872.75,-2151.75 1688,-2151.75 1688,-2099.5 1872.75,-2099.5 1872.75,-2151.75"/>
<polygon fill="none" stroke="#74581c" points="1699,-2106.5 1699,-2144.75 1861.75,-2144.75 1861.75,-2106.5 1699,-2106.5"/>
<text text-anchor="start" x="1702" y="-2111.35" font-family="sans-serif" font-size="32.00" fill="white">China Clay</text>
<polygon fill="none" stroke="#74581c" points="1696,-2103.5 1696,-2147.75 1864.75,-2147.75 1864.75,-2103.5 1696,-2103.5"/>
</a>
</g>
</g>
<!-- C_kaolin&#45;&gt;I_port -->
<g id="edge4" class="edge">
<title>C_kaolin&#45;&gt;I_port</title>
<g id="a_edge4"><a xlink:title="China Clay &#45;&gt; Port">
<path fill="none" stroke="#74581c" stroke-width="5" d="M1790.51,-2099.05C1830.8,-1981.85 1994.48,-1505.73 2081.5,-1252.62"/>
<polygon fill="#74581c" stroke="#74581c" stroke-width="5" points="2089.67,-1255.76 2087.9,-1234 2073.12,-1250.07 2089.67,-1255.76"/>
</a>
</g>
</g>
<!-- C_coal -->
<g id="coal" class="node">
<title>C_coal</title>
<g id="a_coal"><a xlink:href="cargos.html#coal" xlink:title="&lt;TABLE&gt;" target="_top">
<polygon fill="#a8a8a8" stroke="#a8a8a8" points="527.5,-641.75 433.5,-641.75 433.5,-589.5 527.5,-589.5 527.5,-641.75"/>
<polygon fill="none" stroke="#a8a8a8" points="444.5,-596.5 444.5,-634.75 516.5,-634.75 516.5,-596.5 444.5,-596.5"/>
<text text-anchor="start" x="447.5" y="-601.35" font-family="sans-serif" font-size="32.00" fill="white">Coal</text>
<polygon fill="none" stroke="#a8a8a8" points="441.5,-593.5 441.5,-637.75 519.5,-637.75 519.5,-593.5 441.5,-593.5"/>
</a>
</g>
</g>
<!-- I_integrated_steel_mill -->
<g id="integrated_steel_mill" class="node">
<title>I_integrated_steel_mill</title>
<g id="a_integrated_steel_mill"><a xlink:href="industries.html#integrated_steel_mill" xlink:title="Steel Mill" target="_top">
<polygon fill="white" stroke="none" points="651,-299 651,-510.25 953,-510.25 953,-299 651,-299"/>
<polygon fill="none" stroke="#c1cdcd" points="651,-343.25 651,-510.25 953,-510.25 953,-343.25 651,-343.25"/>
<image xlink:href="static/img/industries/integrated_steel_mill.png" width="300px" height="165px" preserveAspectRatio="xMinYMin meet" x="652" y="-509.25"/>
<polygon fill="none" stroke="#c1cdcd" points="651,-299 651,-343.25 953,-343.25 953,-299 651,-299"/>
<polygon fill="ghostwhite" stroke="none" points="652,-300 652,-342.25 952,-342.25 952,-300 652,-300"/>
<text text-anchor="start" x="737.5" y="-306.85" font-family="sans-serif" font-size="32.00">Steel Mill</text>
</a>
</g>
</g>
<!-- C_coal&#45;&gt;I_integrated_steel_mill -->
<g id="edge5" class="edge">
<title>C_coal&#45;&gt;I_integrated_steel_mill</title>
<g id="a_edge5"><a xlink:title="Coal &#45;&gt; Steel Mill">
<path fill="none" stroke="#a8a8a8" stroke-width="5" d="M521.64,-589.12C547.69,-571.91 583.67,-548.15 621.15,-523.4"/>
<polygon fill="#a8a8a8" stroke="#a8a8a8" stroke-width="5" points="625.94,-530.72 637.8,-512.4 616.29,-516.12 625.94,-530.72"/>
</a>
</g>
</g>
<!-- C_steel -->
<g id="steel" class="node">
<title>C_steel</title>
<g id="a_steel"><a xlink:href="cargos.html#steel" xlink:title="&lt;TABLE&gt;" target="_top">
<polygon fill="#7d70a8" stroke="#7d70a8" points="1163,-430.75 1062.25,-430.75 1062.25,-378.5 1163,-378.5 1163,-430.75"/>
<polygon fill="none" stroke="#7d70a8" points="1073.25,-385.5 1073.25,-423.75 1152,-423.75 1152,-385.5 1073.25,-385.5"/>
<text text-anchor="start" x="1076.25" y="-390.35" font-family="sans-serif" font-size="32.00" fill="white">Steel</text>
<polygon fill="none" stroke="#7d70a8" points="1070.25,-382.5 1070.25,-426.75 1155,-426.75 1155,-382.5 1070.25,-382.5"/>
</a>
</g>
</g>
<!-- I_integrated_steel_mill&#45;&gt;C_steel -->
<g id="edge34" class="edge">
<title>I_integrated_steel_mill&#45;&gt;C_steel</title>
<g id="a_edge34"><a xlink:title="Steel Mill &#45;&gt; Steel">
<path fill="none" stroke="#7d70a8" stroke-width="5" d="M960.93,-404.62C997.71,-404.62 1034.21,-404.62 1062.08,-404.62"/>
</a>
</g>
</g>
<!-- C_fish -->
<g id="fish" class="node">
<title>C_fish</title>
<g id="a_fish"><a xlink:href="cargos.html#fish" xlink:title="&lt;TABLE&gt;" target="_top">
<polygon fill="#a84b60" stroke="#a84b60" points="1156.62,-2067.75 1068.62,-2067.75 1068.62,-2015.5 1156.62,-2015.5 1156.62,-2067.75"/>
<polygon fill="none" stroke="#a84b60" points="1079.62,-2022.5 1079.62,-2060.75 1145.62,-2060.75 1145.62,-2022.5 1079.62,-2022.5"/>
<text text-anchor="start" x="1082.62" y="-2027.35" font-family="sans-serif" font-size="32.00" fill="white">Fish</text>
<polygon fill="none" stroke="#a84b60" points="1076.62,-2019.5 1076.62,-2063.75 1148.62,-2063.75 1148.62,-2019.5 1076.62,-2019.5"/>
</a>
</g>
</g>
<!-- I_fishing_harbour -->
<g id="fishing_harbour" class="node">
<title>I_fishing_harbour</title>
<g id="a_fishing_harbour"><a xlink:href="industries.html#fishing_harbour" xlink:title="Fishing Harbour" target="_top">
<polygon fill="white" stroke="none" points="1272.25,-1936 1272.25,-2147.25 1574.25,-2147.25 1574.25,-1936 1272.25,-1936"/>
<polygon fill="none" stroke="#c1cdcd" points="1272.25,-1980.25 1272.25,-2147.25 1574.25,-2147.25 1574.25,-1980.25 1272.25,-1980.25"/>
<image xlink:href="static/img/industries/fishing_harbour.png" width="300px" height="165px" preserveAspectRatio="xMinYMin meet" x="1273.25" y="-2146.25"/>
<polygon fill="none" stroke="#c1cdcd" points="1272.25,-1936 1272.25,-1980.25 1574.25,-1980.25 1574.25,-1936 1272.25,-1936"/>
<polygon fill="ghostwhite" stroke="none" points="1273.25,-1937 1273.25,-1979.25 1573.25,-1979.25 1573.25,-1937 1273.25,-1937"/>
<text text-anchor="start" x="1309.25" y="-1943.85" font-family="sans-serif" font-size="32.00">Fishing Harbour</text>
</a>
</g>
</g>
<!-- C_fish&#45;&gt;I_fishing_harbour -->
<g id="edge6" class="edge">
<title>C_fish&#45;&gt;I_fishing_harbour</title>
<g id="a_edge6"><a xlink:title="Fish &#45;&gt; Fishing Harbour">
<path fill="none" stroke="#a84b60" stroke-width="5" d="M1156.86,-2041.62C1179.16,-2041.62 1208.03,-2041.62 1238.49,-2041.62"/>
<polygon fill="#a84b60" stroke="#a84b60" stroke-width="5" points="1238.1,-2050.38 1258.1,-2041.63 1238.1,-2032.88 1238.1,-2050.38"/>
</a>
</g>
</g>
<!-- C_food -->
<g id="food" class="node">
<title>C_food</title>
<g id="a_food"><a xlink:href="cargos.html#food" xlink:title="&lt;TABLE&gt;" target="_top">
<polygon fill="#a88000" stroke="#a88000" points="1915.5,-1685 1645.25,-1685 1645.25,-1552.25 1915.5,-1552.25 1915.5,-1685"/>
<polygon fill="none" stroke="#a88000" points="1656.25,-1639.75 1656.25,-1678 1904.5,-1678 1904.5,-1639.75 1656.25,-1639.75"/>
<text text-anchor="start" x="1743.62" y="-1644.6" font-family="sans-serif" font-size="32.00" fill="white">Food</text>
<polygon fill="white" stroke="none" points="1656.25,-1599.5 1656.25,-1637.75 1904.5,-1637.75 1904.5,-1599.5 1656.25,-1599.5"/>
<polygon fill="none" stroke="#a88000" points="1656.25,-1599.5 1656.25,-1637.75 1904.5,-1637.75 1904.5,-1599.5 1656.25,-1599.5"/>
<text text-anchor="start" x="1659.25" y="-1604.35" font-family="sans-serif" font-size="32.00">To General Store</text>
<polygon fill="white" stroke="none" points="1656.25,-1559.25 1656.25,-1597.5 1904.5,-1597.5 1904.5,-1559.25 1656.25,-1559.25"/>
<polygon fill="none" stroke="#a88000" points="1656.25,-1559.25 1656.25,-1597.5 1904.5,-1597.5 1904.5,-1559.25 1656.25,-1559.25"/>
<text text-anchor="start" x="1721.5" y="-1564.1" font-family="sans-serif" font-size="32.00">To Hotel</text>
<polygon fill="none" stroke="#a88000" points="1653.25,-1556.25 1653.25,-1681 1907.5,-1681 1907.5,-1556.25 1653.25,-1556.25"/>
</a>
</g>
</g>
<!-- I_fishing_harbour&#45;&gt;C_food -->
<g id="edge25" class="edge">
<title>I_fishing_harbour&#45;&gt;C_food</title>
<g id="a_edge25"><a xlink:title="Fishing Harbour &#45;&gt; Food">
<path fill="none" stroke="#a88000" stroke-width="5" d="M1552.25,-1932.15C1562.71,-1921.8 1572.85,-1911.21 1582.25,-1900.62 1643.03,-1832.17 1701.68,-1744.62 1738.97,-1685.36"/>
</a>
</g>
</g>
<!-- C_food&#45;&gt;I_port -->
<g id="edge7" class="edge">
<title>C_food&#45;&gt;I_port</title>
<g id="a_edge7"><a xlink:title="Food &#45;&gt; Port">
<path fill="none" stroke="#a88000" stroke-width="5" d="M1826.35,-1552.01C1877.4,-1476.4 1962.4,-1350.49 2030.52,-1249.59"/>
<polygon fill="#a88000" stroke="#a88000" stroke-width="5" points="2037.58,-1254.78 2041.52,-1233.31 2023.07,-1244.99 2037.58,-1254.78"/>
</a>
</g>
</g>
<!-- C_fruits -->
<g id="fruits" class="node">
<title>C_fruits</title>
<g id="a_fruits"><a xlink:href="cargos.html#fruits" xlink:title="&lt;TABLE&gt;" target="_top">
<polygon fill="#347084" stroke="#347084" points="1158.5,-1261.75 1066.75,-1261.75 1066.75,-1209.5 1158.5,-1209.5 1158.5,-1261.75"/>
<polygon fill="none" stroke="#347084" points="1077.75,-1216.5 1077.75,-1254.75 1147.5,-1254.75 1147.5,-1216.5 1077.75,-1216.5"/>
<text text-anchor="start" x="1080.75" y="-1221.35" font-family="sans-serif" font-size="32.00" fill="white">Fruit</text>
<polygon fill="none" stroke="#347084" points="1074.75,-1213.5 1074.75,-1257.75 1150.5,-1257.75 1150.5,-1213.5 1074.75,-1213.5"/>
</a>
</g>
</g>
<!-- I_cider_mill -->
<g id="cider_mill" class="node">
<title>I_cider_mill</title>
<g id="a_cider_mill"><a xlink:href="industries.html#cider_mill" xlink:title="Cider Mill" target="_top">
<polygon fill="white" stroke="none" points="1272.25,-1090 1272.25,-1301.25 1574.25,-1301.25 1574.25,-1090 1272.25,-1090"/>
<polygon fill="none" stroke="#c1cdcd" points="1272.25,-1134.25 1272.25,-1301.25 1574.25,-1301.25 1574.25,-1134.25 1272.25,-1134.25"/>
<image xlink:href="static/img/industries/cider_mill.png" width="300px" height="165px" preserveAspectRatio="xMinYMin meet" x="1273.25" y="-1300.25"/>
<polygon fill="none" stroke="#c1cdcd" points="1272.25,-1090 1272.25,-1134.25 1574.25,-1134.25 1574.25,-1090 1272.25,-1090"/>
<polygon fill="ghostwhite" stroke="none" points="1273.25,-1091 1273.25,-1133.25 1573.25,-1133.25 1573.25,-1091 1273.25,-1091"/>
<text text-anchor="start" x="1356.88" y="-1097.85" font-family="sans-serif" font-size="32.00">Cider Mill</text>
</a>
</g>
</g>
<!-- C_fruits&#45;&gt;I_cider_mill -->
<g id="edge8" class="edge">
<title>C_fruits&#45;&gt;I_cider_mill</title>
<g id="a_edge8"><a xlink:title="Fruit &#45;&gt; Cider Mill">
<path fill="none" stroke="#347084" stroke-width="5" d="M1158.83,-1229.77C1180.89,-1226.91 1209.04,-1223.26 1238.69,-1219.42"/>
<polygon fill="#347084" stroke="#347084" stroke-width="5" points="1239.53,-1228.13 1258.24,-1216.88 1237.28,-1210.78 1239.53,-1228.13"/>
</a>
</g>
</g>
<!-- I_cider_mill&#45;&gt;C_alcohol -->
<g id="edge17" class="edge">
<title>I_cider_mill&#45;&gt;C_alcohol</title>
<g id="a_edge17"><a xlink:title="Cider Mill &#45;&gt; Alcohol">
<path fill="none" stroke="#5582a8" stroke-width="5" d="M1582.08,-1195.62C1603.01,-1195.62 1624.32,-1195.62 1644.81,-1195.62"/>
</a>
</g>
</g>
<!-- C_goods&#45;&gt;I_port -->
<g id="edge9" class="edge">
<title>C_goods&#45;&gt;I_port</title>
<g id="a_edge9"><a xlink:title="Goods &#45;&gt; Port">
<path fill="none" stroke="#a89a28" stroke-width="5" d="M1839.51,-582.35C1864.86,-604.6 1893.69,-632.65 1915.5,-661.62 1978.18,-744.9 2031.97,-848.58 2070.79,-933.38"/>
<polygon fill="#a89a28" stroke="#a89a28" stroke-width="5" points="2062.7,-936.72 2078.9,-951.36 2078.65,-929.53 2062.7,-936.72"/>
</a>
</g>
</g>
<!-- C_iron_ore -->
<g id="iron_ore" class="node">
<title>C_iron_ore</title>
<g id="a_iron_ore"><a xlink:href="cargos.html#iron_ore" xlink:title="&lt;TABLE&gt;" target="_top">
<polygon fill="#5d45a8" stroke="#5d45a8" points="553.38,-430.75 407.62,-430.75 407.62,-378.5 553.38,-378.5 553.38,-430.75"/>
<polygon fill="none" stroke="#5d45a8" points="418.62,-385.5 418.62,-423.75 542.38,-423.75 542.38,-385.5 418.62,-385.5"/>
<text text-anchor="start" x="421.62" y="-390.35" font-family="sans-serif" font-size="32.00" fill="white">Iron Ore</text>
<polygon fill="none" stroke="#5d45a8" points="415.62,-382.5 415.62,-426.75 545.38,-426.75 545.38,-382.5 415.62,-382.5"/>
</a>
</g>
</g>
<!-- C_iron_ore&#45;&gt;I_integrated_steel_mill -->
<g id="edge10" class="edge">
<title>C_iron_ore&#45;&gt;I_integrated_steel_mill</title>
<g id="a_edge10"><a xlink:title="Iron Ore &#45;&gt; Steel Mill">
<path fill="none" stroke="#5d45a8" stroke-width="5" d="M553.6,-404.62C572.89,-404.62 594.64,-404.62 617.04,-404.62"/>
<polygon fill="#5d45a8" stroke="#5d45a8" stroke-width="5" points="616.79,-413.38 636.79,-404.63 616.79,-395.88 616.79,-413.38"/>
</a>
</g>
</g>
<!-- C_livestock -->
<g id="livestock" class="node">
<title>C_livestock</title>
<g id="a_livestock"><a xlink:href="cargos.html#livestock" xlink:title="&lt;TABLE&gt;" target="_top">
<polygon fill="#a84800" stroke="#a84800" points="1193,-1503.75 1032.25,-1503.75 1032.25,-1451.5 1193,-1451.5 1193,-1503.75"/>
<polygon fill="none" stroke="#a84800" points="1043.25,-1458.5 1043.25,-1496.75 1182,-1496.75 1182,-1458.5 1043.25,-1458.5"/>
<text text-anchor="start" x="1046.25" y="-1463.35" font-family="sans-serif" font-size="32.00" fill="white">Livestock</text>
<polygon fill="none" stroke="#a84800" points="1040.25,-1455.5 1040.25,-1499.75 1185,-1499.75 1185,-1455.5 1040.25,-1455.5"/>
</a>
</g>
</g>
<!-- I_stockyard -->
<g id="stockyard" class="node">
<title>I_stockyard</title>
<g id="a_stockyard"><a xlink:href="industries.html#stockyard" xlink:title="Stockyard" target="_top">
<polygon fill="white" stroke="none" points="1272.25,-1372 1272.25,-1583.25 1574.25,-1583.25 1574.25,-1372 1272.25,-1372"/>
<polygon fill="none" stroke="#c1cdcd" points="1272.25,-1416.25 1272.25,-1583.25 1574.25,-1583.25 1574.25,-1416.25 1272.25,-1416.25"/>
<image xlink:href="static/img/industries/stockyard.png" width="300px" height="165px" preserveAspectRatio="xMinYMin meet" x="1273.25" y="-1582.25"/>
<polygon fill="none" stroke="#c1cdcd" points="1272.25,-1372 1272.25,-1416.25 1574.25,-1416.25 1574.25,-1372 1272.25,-1372"/>
<polygon fill="ghostwhite" stroke="none" points="1273.25,-1373 1273.25,-1415.25 1573.25,-1415.25 1573.25,-1373 1273.25,-1373"/>
<text text-anchor="start" x="1352.38" y="-1379.85" font-family="sans-serif" font-size="32.00">Stockyard</text>
</a>
</g>
</g>
<!-- C_livestock&#45;&gt;I_stockyard -->
<g id="edge11" class="edge">
<title>C_livestock&#45;&gt;I_stockyard</title>
<g id="a_edge11"><a xlink:title="Livestock &#45;&gt; Stockyard">
<path fill="none" stroke="#a84800" stroke-width="5" d="M1193.1,-1477.62C1207.35,-1477.62 1222.72,-1477.62 1238.51,-1477.62"/>
<polygon fill="#a84800" stroke="#a84800" stroke-width="5" points="1238.23,-1486.38 1258.23,-1477.63 1238.23,-1468.88 1238.23,-1486.38"/>
</a>
</g>
</g>
<!-- I_stockyard&#45;&gt;C_food -->
<g id="edge35" class="edge">
<title>I_stockyard&#45;&gt;C_food</title>
<g id="a_edge35"><a xlink:title="Stockyard &#45;&gt; Food">
<path fill="none" stroke="#a88000" stroke-width="5" d="M1582.08,-1540.29C1603.01,-1548.6 1624.32,-1557.06 1644.81,-1565.2"/>
</a>
</g>
</g>
<!-- C_milk -->
<g id="milk" class="node">
<title>C_milk</title>
<g id="a_milk"><a xlink:href="cargos.html#milk" xlink:title="&lt;TABLE&gt;" target="_top">
<polygon fill="#004ca8" stroke="#004ca8" points="1154.75,-1779.75 1070.5,-1779.75 1070.5,-1727.5 1154.75,-1727.5 1154.75,-1779.75"/>
<polygon fill="none" stroke="#004ca8" points="1081.5,-1734.5 1081.5,-1772.75 1143.75,-1772.75 1143.75,-1734.5 1081.5,-1734.5"/>
<text text-anchor="start" x="1084.5" y="-1739.35" font-family="sans-serif" font-size="32.00" fill="white">Milk</text>
<polygon fill="none" stroke="#004ca8" points="1078.5,-1731.5 1078.5,-1775.75 1146.75,-1775.75 1146.75,-1731.5 1078.5,-1731.5"/>
</a>
</g>
</g>
<!-- I_dairy -->
<g id="dairy" class="node">
<title>I_dairy</title>
<g id="a_dairy"><a xlink:href="industries.html#dairy" xlink:title="Dairy" target="_top">
<polygon fill="white" stroke="none" points="1272.25,-1654 1272.25,-1865.25 1574.25,-1865.25 1574.25,-1654 1272.25,-1654"/>
<polygon fill="none" stroke="#c1cdcd" points="1272.25,-1698.25 1272.25,-1865.25 1574.25,-1865.25 1574.25,-1698.25 1272.25,-1698.25"/>
<image xlink:href="static/img/industries/dairy.png" width="300px" height="165px" preserveAspectRatio="xMinYMin meet" x="1273.25" y="-1864.25"/>
<polygon fill="none" stroke="#c1cdcd" points="1272.25,-1654 1272.25,-1698.25 1574.25,-1698.25 1574.25,-1654 1272.25,-1654"/>
<polygon fill="ghostwhite" stroke="none" points="1273.25,-1655 1273.25,-1697.25 1573.25,-1697.25 1573.25,-1655 1273.25,-1655"/>
<text text-anchor="start" x="1386.12" y="-1661.85" font-family="sans-serif" font-size="32.00">Dairy</text>
</a>
</g>
</g>
<!-- C_milk&#45;&gt;I_dairy -->
<g id="edge12" class="edge">
<title>C_milk&#45;&gt;I_dairy</title>
<g id="a_edge12"><a xlink:title="Milk &#45;&gt; Dairy">
<path fill="none" stroke="#004ca8" stroke-width="5" d="M1155.25,-1754.43C1177.79,-1754.87 1207.39,-1755.45 1238.65,-1756.06"/>
<polygon fill="#004ca8" stroke="#004ca8" stroke-width="5" points="1238.17,-1764.8 1258.34,-1756.44 1238.51,-1747.3 1238.17,-1764.8"/>
</a>
</g>
</g>
<!-- I_dairy&#45;&gt;C_food -->
<g id="edge20" class="edge">
<title>I_dairy&#45;&gt;C_food</title>
<g id="a_edge20"><a xlink:title="Dairy &#45;&gt; Food">
<path fill="none" stroke="#a88000" stroke-width="5" d="M1582.08,-1696.96C1603.01,-1688.65 1624.32,-1680.19 1644.81,-1672.05"/>
</a>
</g>
</g>
<!-- C_sand -->
<g id="sand" class="node">
<title>C_sand</title>
<g id="a_sand"><a xlink:href="cargos.html#sand" xlink:title="&lt;TABLE&gt;" target="_top">
<polygon fill="#468fa8" stroke="#468fa8" points="1164.12,-939.75 1061.12,-939.75 1061.12,-887.5 1164.12,-887.5 1164.12,-939.75"/>
<polygon fill="none" stroke="#468fa8" points="1072.12,-894.5 1072.12,-932.75 1153.12,-932.75 1153.12,-894.5 1072.12,-894.5"/>
<text text-anchor="start" x="1075.12" y="-899.35" font-family="sans-serif" font-size="32.00" fill="white">Sand</text>
<polygon fill="none" stroke="#468fa8" points="1069.12,-891.5 1069.12,-935.75 1156.12,-935.75 1156.12,-891.5 1069.12,-891.5"/>
</a>
</g>
</g>
<!-- C_sand&#45;&gt;I_glass_works -->
<g id="edge13" class="edge">
<title>C_sand&#45;&gt;I_glass_works</title>
<g id="a_edge13"><a xlink:title="Sand &#45;&gt; Glass Works">
<path fill="none" stroke="#468fa8" stroke-width="5" d="M1164.59,-913.62C1185.61,-913.62 1211.36,-913.62 1238.37,-913.62"/>
<polygon fill="#468fa8" stroke="#468fa8" stroke-width="5" points="1238.3,-922.38 1258.3,-913.63 1238.3,-904.88 1238.3,-922.38"/>
</a>
</g>
</g>
<!-- C_scrap_metal -->
<g id="scrap_metal" class="node">
<title>C_scrap_metal</title>
<g id="a_scrap_metal"><a xlink:href="cargos.html#scrap_metal" xlink:title="&lt;TABLE&gt;" target="_top">
<polygon fill="#a85050" stroke="#a85050" points="580,-225.75 381,-225.75 381,-173.5 580,-173.5 580,-225.75"/>
<polygon fill="none" stroke="#a85050" points="392,-180.5 392,-218.75 569,-218.75 569,-180.5 392,-180.5"/>
<text text-anchor="start" x="395" y="-185.35" font-family="sans-serif" font-size="32.00" fill="white">Scrap Metal</text>
<polygon fill="none" stroke="#a85050" points="389,-177.5 389,-221.75 572,-221.75 572,-177.5 389,-177.5"/>
</a>
</g>
</g>
<!-- C_scrap_metal&#45;&gt;I_integrated_steel_mill -->
<g id="edge14" class="edge">
<title>C_scrap_metal&#45;&gt;I_integrated_steel_mill</title>
<g id="a_edge14"><a xlink:title="Scrap Metal &#45;&gt; Steel Mill">
<path fill="none" stroke="#a85050" stroke-width="5" d="M522.94,-226.22C548.91,-242.88 584.37,-265.63 621.28,-289.31"/>
<polygon fill="#a85050" stroke="#a85050" stroke-width="5" points="616.31,-296.52 637.87,-299.95 625.76,-281.79 616.31,-296.52"/>
</a>
</g>
</g>
<!-- C_steel&#45;&gt;I_hardware_factory -->
<g id="edge15" class="edge">
<title>C_steel&#45;&gt;I_hardware_factory</title>
<g id="a_edge15"><a xlink:title="Steel &#45;&gt; Hardware Factory">
<path fill="none" stroke="#7d70a8" stroke-width="5" d="M1163.21,-420.53C1184.76,-427.44 1211.46,-436.01 1239.47,-444.99"/>
<polygon fill="#7d70a8" stroke="#7d70a8" stroke-width="5" points="1236.65,-453.28 1258.37,-451.06 1242,-436.61 1236.65,-453.28"/>
</a>
</g>
</g>
<!-- C_steel&#45;&gt;I_metal_workshop -->
<g id="edge16" class="edge">
<title>C_steel&#45;&gt;I_metal_workshop</title>
<g id="a_edge16"><a xlink:title="Steel &#45;&gt; Metal Workshop">
<path fill="none" stroke="#7d70a8" stroke-width="5" d="M1158.5,-378.02C1181.48,-364.39 1211.13,-346.81 1242.22,-328.37"/>
<polygon fill="#7d70a8" stroke="#7d70a8" stroke-width="5" points="1246.36,-336.09 1259.1,-318.36 1237.43,-321.04 1246.36,-336.09"/>
</a>
</g>
</g>
<!-- I_clay_pit -->
<g id="clay_pit" class="node">
<title>I_clay_pit</title>
<g id="a_clay_pit"><a xlink:href="industries.html#clay_pit" xlink:title="Clay Pit" target="_top">
<polygon fill="white" stroke="none" points="1272.25,-2218 1272.25,-2455.25 1574.25,-2455.25 1574.25,-2218 1272.25,-2218"/>
<polygon fill="none" stroke="#c1cdcd" points="1272.25,-2288.25 1272.25,-2455.25 1574.25,-2455.25 1574.25,-2288.25 1272.25,-2288.25"/>
<image xlink:href="static/img/industries/clay_pit.png" width="300px" height="165px" preserveAspectRatio="xMinYMin meet" x="1273.25" y="-2454.25"/>
<polygon fill="none" stroke="#c1cdcd" points="1272.25,-2218 1272.25,-2288.25 1574.25,-2288.25 1574.25,-2218 1272.25,-2218"/>
<polygon fill="ghostwhite" stroke="none" points="1273.25,-2219 1273.25,-2287.25 1573.25,-2287.25 1573.25,-2219 1273.25,-2219"/>
<text text-anchor="start" x="1368.5" y="-2251.85" font-family="sans-serif" font-size="32.00">Clay Pit</text>
<text text-anchor="start" x="1285.25" y="-2226" font-family="sans-serif" font-size="20.00">Requires Engineering Supplies</text>
</a>
</g>
</g>
<!-- I_clay_pit&#45;&gt;C_kaolin -->
<g id="edge18" class="edge">
<title>I_clay_pit&#45;&gt;C_kaolin</title>
<g id="a_edge18"><a xlink:title="Clay Pit &#45;&gt; China Clay">
<path fill="none" stroke="#74581c" stroke-width="5" d="M1582.08,-2242.85C1637.84,-2209.72 1696.23,-2175.03 1734.88,-2152.06"/>
</a>
</g>
</g>
<!-- I_coal_mine -->
<g id="coal_mine" class="node">
<title>I_coal_mine</title>
<g id="a_coal_mine"><a xlink:href="industries.html#coal_mine" xlink:title="Coal Mine" target="_top">
<polygon fill="white" stroke="none" points="8,-594 8,-831.25 310,-831.25 310,-594 8,-594"/>
<polygon fill="none" stroke="#c1cdcd" points="8,-664.25 8,-831.25 310,-831.25 310,-664.25 8,-664.25"/>
<image xlink:href="static/img/industries/coal_mine.png" width="300px" height="165px" preserveAspectRatio="xMinYMin meet" x="9" y="-830.25"/>
<polygon fill="none" stroke="#c1cdcd" points="8,-594 8,-664.25 310,-664.25 310,-594 8,-594"/>
<polygon fill="ghostwhite" stroke="none" points="9,-595 9,-663.25 309,-663.25 309,-595 9,-595"/>
<text text-anchor="start" x="86.62" y="-627.85" font-family="sans-serif" font-size="32.00">Coal Mine</text>
<text text-anchor="start" x="21" y="-602" font-family="sans-serif" font-size="20.00">Requires Engineering Supplies</text>
</a>
</g>
</g>
<!-- I_coal_mine&#45;&gt;C_coal -->
<g id="edge19" class="edge">
<title>I_coal_mine&#45;&gt;C_coal</title>
<g id="a_edge19"><a xlink:title="Coal Mine &#45;&gt; Coal">
<path fill="none" stroke="#a8a8a8" stroke-width="5" d="M317.88,-664.69C360.01,-651.9 402.32,-639.06 433.07,-629.72"/>
</a>
</g>
</g>
<!-- I_dairy_farm -->
<g id="dairy_farm" class="node">
<title>I_dairy_farm</title>
<g id="a_dairy_farm"><a xlink:href="industries.html#dairy_farm" xlink:title="Dairy Farm" target="_top">
<polygon fill="white" stroke="none" points="651,-1574 651,-1811.25 953,-1811.25 953,-1574 651,-1574"/>
<polygon fill="none" stroke="#c1cdcd" points="651,-1644.25 651,-1811.25 953,-1811.25 953,-1644.25 651,-1644.25"/>
<image xlink:href="static/img/industries/dairy_farm.png" width="300px" height="165px" preserveAspectRatio="xMinYMin meet" x="652" y="-1810.25"/>
<polygon fill="none" stroke="#c1cdcd" points="651,-1574 651,-1644.25 953,-1644.25 953,-1574 651,-1574"/>
<polygon fill="ghostwhite" stroke="none" points="652,-1575 652,-1643.25 952,-1643.25 952,-1575 652,-1575"/>
<text text-anchor="start" x="722.88" y="-1607.85" font-family="sans-serif" font-size="32.00">Dairy Farm</text>
<text text-anchor="start" x="694.75" y="-1582" font-family="sans-serif" font-size="20.00">Requires Farm Supplies</text>
</a>
</g>
</g>
<!-- I_dairy_farm&#45;&gt;C_livestock -->
<g id="edge21" class="edge">
<title>I_dairy_farm&#45;&gt;C_livestock</title>
<g id="a_edge21"><a xlink:title="Dairy Farm &#45;&gt; Livestock">
<path fill="none" stroke="#a84800" stroke-width="5" d="M960.93,-1582.61C1003.05,-1553.26 1044.81,-1524.17 1073.65,-1504.08"/>
</a>
</g>
</g>
<!-- I_dairy_farm&#45;&gt;C_milk -->
<g id="edge22" class="edge">
<title>I_dairy_farm&#45;&gt;C_milk</title>
<g id="a_edge22"><a xlink:title="Dairy Farm &#45;&gt; Milk">
<path fill="none" stroke="#004ca8" stroke-width="5" d="M960.93,-1723.84C1001.42,-1731.84 1041.57,-1739.78 1070.24,-1745.44"/>
</a>
</g>
</g>
<!-- I_dredging_site -->
<g id="dredging_site" class="node">
<title>I_dredging_site</title>
<g id="a_dredging_site"><a xlink:href="industries.html#dredging_site" xlink:title="Dredging Site" target="_top">
<polygon fill="white" stroke="none" points="651,-795 651,-1032.25 953,-1032.25 953,-795 651,-795"/>
<polygon fill="none" stroke="#c1cdcd" points="651,-865.25 651,-1032.25 953,-1032.25 953,-865.25 651,-865.25"/>
<image xlink:href="static/img/industries/dredging_site.png" width="300px" height="165px" preserveAspectRatio="xMinYMin meet" x="652" y="-1031.25"/>
<polygon fill="none" stroke="#c1cdcd" points="651,-795 651,-865.25 953,-865.25 953,-795 651,-795"/>
<polygon fill="ghostwhite" stroke="none" points="652,-796 652,-864.25 952,-864.25 952,-796 652,-796"/>
<text text-anchor="start" x="704.88" y="-828.85" font-family="sans-serif" font-size="32.00">Dredging Site</text>
<text text-anchor="start" x="664" y="-803" font-family="sans-serif" font-size="20.00">Requires Engineering Supplies</text>
</a>
</g>
</g>
<!-- I_dredging_site&#45;&gt;C_sand -->
<g id="edge23" class="edge">
<title>I_dredging_site&#45;&gt;C_sand</title>
<g id="a_edge23"><a xlink:title="Dredging Site &#45;&gt; Sand">
<path fill="none" stroke="#468fa8" stroke-width="5" d="M960.93,-913.62C997.12,-913.62 1033.04,-913.62 1060.73,-913.62"/>
</a>
</g>
</g>
<!-- I_fishing_grounds -->
<g id="fishing_grounds" class="node">
<title>I_fishing_grounds</title>
<g id="a_fishing_grounds"><a xlink:href="industries.html#fishing_grounds" xlink:title="Fishing Grounds" target="_top">
<polygon fill="white" stroke="none" points="651,-1936 651,-2147.25 953,-2147.25 953,-1936 651,-1936"/>
<polygon fill="none" stroke="#c1cdcd" points="651,-1980.25 651,-2147.25 953,-2147.25 953,-1980.25 651,-1980.25"/>
<image xlink:href="static/img/industries/fishing_grounds.png" width="300px" height="165px" preserveAspectRatio="xMinYMin meet" x="652" y="-2146.25"/>
<polygon fill="none" stroke="#c1cdcd" points="651,-1936 651,-1980.25 953,-1980.25 953,-1936 651,-1936"/>
<polygon fill="ghostwhite" stroke="none" points="652,-1937 652,-1979.25 952,-1979.25 952,-1937 652,-1937"/>
<text text-anchor="start" x="684.62" y="-1943.85" font-family="sans-serif" font-size="32.00">Fishing Grounds</text>
</a>
</g>
</g>
<!-- I_fishing_grounds&#45;&gt;C_fish -->
<g id="edge24" class="edge">
<title>I_fishing_grounds&#45;&gt;C_fish</title>
<g id="a_edge24"><a xlink:title="Fishing Grounds &#45;&gt; Fish">
<path fill="none" stroke="#a84b60" stroke-width="5" d="M960.93,-2041.62C1000.53,-2041.62 1039.81,-2041.62 1068.33,-2041.62"/>
</a>
</g>
</g>
<!-- I_iron_ore_mine -->
<g id="iron_ore_mine" class="node">
<title>I_iron_ore_mine</title>
<g id="a_iron_ore_mine"><a xlink:href="industries.html#iron_ore_mine" xlink:title="Iron Ore Mine" target="_top">
<polygon fill="white" stroke="none" points="8,-286 8,-523.25 310,-523.25 310,-286 8,-286"/>
<polygon fill="none" stroke="#c1cdcd" points="8,-356.25 8,-523.25 310,-523.25 310,-356.25 8,-356.25"/>
<image xlink:href="static/img/industries/iron_ore_mine.png" width="300px" height="165px" preserveAspectRatio="xMinYMin meet" x="9" y="-522.25"/>
<polygon fill="none" stroke="#c1cdcd" points="8,-286 8,-356.25 310,-356.25 310,-286 8,-286"/>
<polygon fill="ghostwhite" stroke="none" points="9,-287 9,-355.25 309,-355.25 309,-287 9,-287"/>
<text text-anchor="start" x="60.75" y="-319.85" font-family="sans-serif" font-size="32.00">Iron Ore Mine</text>
<text text-anchor="start" x="21" y="-294" font-family="sans-serif" font-size="20.00">Requires Engineering Supplies</text>
</a>
</g>
</g>
<!-- I_iron_ore_mine&#45;&gt;C_iron_ore -->
<g id="edge28" class="edge">
<title>I_iron_ore_mine&#45;&gt;C_iron_ore</title>
<g id="a_edge28"><a xlink:title="Iron Ore Mine &#45;&gt; Iron Ore">
<path fill="none" stroke="#5d45a8" stroke-width="5" d="M317.88,-404.62C349.16,-404.62 380.55,-404.62 407.22,-404.62"/>
</a>
</g>
</g>
<!-- I_orchard_piggery -->
<g id="orchard_piggery" class="node">
<title>I_orchard_piggery</title>
<g id="a_orchard_piggery"><a xlink:href="industries.html#orchard_piggery" xlink:title="Orchard &amp; Piggery" target="_top">
<polygon fill="white" stroke="none" points="651,-1158 651,-1395.25 953,-1395.25 953,-1158 651,-1158"/>
<polygon fill="none" stroke="#c1cdcd" points="651,-1228.25 651,-1395.25 953,-1395.25 953,-1228.25 651,-1228.25"/>
<image xlink:href="static/img/industries/orchard_piggery.png" width="300px" height="165px" preserveAspectRatio="xMinYMin meet" x="652" y="-1394.25"/>
<polygon fill="none" stroke="#c1cdcd" points="651,-1158 651,-1228.25 953,-1228.25 953,-1158 651,-1158"/>
<polygon fill="ghostwhite" stroke="none" points="652,-1159 652,-1227.25 952,-1227.25 952,-1159 652,-1159"/>
<text text-anchor="start" x="670.75" y="-1191.85" font-family="sans-serif" font-size="32.00">Orchard &amp; Piggery</text>
<text text-anchor="start" x="694.75" y="-1166" font-family="sans-serif" font-size="20.00">Requires Farm Supplies</text>
</a>
</g>
</g>
<!-- I_orchard_piggery&#45;&gt;C_fruits -->
<g id="edge30" class="edge">
<title>I_orchard_piggery&#45;&gt;C_fruits</title>
<g id="a_edge30"><a xlink:title="Orchard &amp; Piggery &#45;&gt; Fruit">
<path fill="none" stroke="#347084" stroke-width="5" d="M960.93,-1255.64C999.64,-1250.5 1038.04,-1245.4 1066.39,-1241.63"/>
</a>
</g>
</g>
<!-- I_orchard_piggery&#45;&gt;C_livestock -->
<g id="edge31" class="edge">
<title>I_orchard_piggery&#45;&gt;C_livestock</title>
<g id="a_edge31"><a xlink:title="Orchard &amp; Piggery &#45;&gt; Livestock">
<path fill="none" stroke="#a84800" stroke-width="5" d="M960.93,-1379.48C1001.71,-1406.04 1042.16,-1432.38 1070.87,-1451.08"/>
</a>
</g>
</g>
<!-- I_scrap_yard -->
<g id="scrap_yard" class="node">
<title>I_scrap_yard</title>
<g id="a_scrap_yard"><a xlink:href="industries.html#scrap_yard" xlink:title="Scrap Yard" target="_top">
<polygon fill="white" stroke="none" points="8,-4 8,-215.25 310,-215.25 310,-4 8,-4"/>
<polygon fill="none" stroke="#c1cdcd" points="8,-48.25 8,-215.25 310,-215.25 310,-48.25 8,-48.25"/>
<image xlink:href="static/img/industries/scrap_yard.png" width="300px" height="165px" preserveAspectRatio="xMinYMin meet" x="9" y="-214.25"/>
<polygon fill="none" stroke="#c1cdcd" points="8,-4 8,-48.25 310,-48.25 310,-4 8,-4"/>
<polygon fill="ghostwhite" stroke="none" points="9,-5 9,-47.25 309,-47.25 309,-5 9,-5"/>
<text text-anchor="start" x="80.62" y="-11.85" font-family="sans-serif" font-size="32.00">Scrap Yard</text>
</a>
</g>
</g>
<!-- I_scrap_yard&#45;&gt;C_scrap_metal -->
<g id="edge33" class="edge">
<title>I_scrap_yard&#45;&gt;C_scrap_metal</title>
<g id="a_edge33"><a xlink:title="Scrap Yard &#45;&gt; Scrap Metal">
<path fill="none" stroke="#a85050" stroke-width="5" d="M317.88,-154.1C340.83,-160.56 363.84,-167.04 385,-173"/>
</a>
</g>
</g>
</g>
</svg>
