<?xml version="1.0" encoding="UTF-8" standalone="no"?>
<?xml-stylesheet href="static/css/cargoflow_styles.css" type="text/css"?>
<!DOCTYPE svg PUBLIC "-//W3C//DTD SVG 1.1//EN"
 "http://www.w3.org/Graphics/SVG/1.1/DTD/svg11.dtd">
<!-- Generated by graphviz version 2.40.1 (20161225.0304)
 -->
<!-- Title: temperate_basic Pages: 1 -->
<svg width="1305pt" height="755pt"
 viewBox="0.00 0.00 1305.22 755.00" xmlns="http://www.w3.org/2000/svg" xmlns:xlink="http://www.w3.org/1999/xlink">
<g id="page0,1_graph0" class="graph" transform="scale(1 1) rotate(0) translate(4 751)">
<title>temperate_basic</title>
<g id="a_page0,1_graph0"><a xlink:title="Temperate Basic">
<polygon fill="#ffffff" stroke="transparent" points="-4,4 -4,-751 1301.2226,-751 1301.2226,4 -4,4"/>
</a>
</g>
<!-- C_alcohol -->
<g id="alcohol" class="node">
<title>C_alcohol</title>
<g id="a_alcohol"><a xlink:href="cargos.html#alcohol" xlink:title="Alcohol" target="_top">
<ellipse fill="none" stroke="#000000" cx="564.2315" cy="-484" rx="39.2233" ry="18"/>
<text text-anchor="middle" x="564.2315" y="-479.8" font-family="sans-serif" font-size="14.00" fill="#000000">Alcohol</text>
</a>
</g>
</g>
<!-- C_chemicals -->
<g id="chemicals" class="node">
<title>C_chemicals</title>
<g id="a_chemicals"><a xlink:href="cargos.html#chemicals" xlink:title="Chemicals" target="_top">
<ellipse fill="none" stroke="#000000" cx="943.2102" cy="-255" rx="51.2759" ry="18"/>
<text text-anchor="middle" x="943.2102" y="-250.8" font-family="sans-serif" font-size="14.00" fill="#000000">Chemicals</text>
</a>
</g>
</g>
<!-- I_glass_works -->
<g id="glass_works" class="node">
<title>I_glass_works</title>
<g id="a_glass_works"><a xlink:href="industries.html#glass_works" xlink:title="Glass Works" target="_top">
<polygon fill="none" stroke="#000000" points="1182.3981,-273 1079.3981,-273 1079.3981,-237 1182.3981,-237 1182.3981,-273"/>
<text text-anchor="start" x="1091.8522" y="-250.8" font-family="sans-serif" font-size="14.00" fill="#000000">Glass Works</text>
</a>
</g>
</g>
<!-- C_chemicals&#45;&gt;I_glass_works -->
<g id="edge1" class="edge">
<title>C_chemicals&#45;&gt;I_glass_works</title>
<g id="a_edge1"><a xlink:title="Chemicals &#45;&gt; Glass Works">
<path fill="none" stroke="#000000" d="M994.9936,-255C1017.9695,-255 1045.1865,-255 1069.2067,-255"/>
<polygon fill="#000000" stroke="#000000" points="1069.2837,-258.5001 1079.2837,-255 1069.2837,-251.5001 1069.2837,-258.5001"/>
</a>
</g>
</g>
<!-- I_metal_workshop -->
<g id="metal_workshop" class="node">
<title>I_metal_workshop</title>
<g id="a_metal_workshop"><a xlink:href="industries.html#metal_workshop" xlink:title="Metal Workshop" target="_top">
<polygon fill="none" stroke="#000000" points="1192.8981,-103 1068.8981,-103 1068.8981,-67 1192.8981,-67 1192.8981,-103"/>
<text text-anchor="start" x="1080.4489" y="-80.8" font-family="sans-serif" font-size="14.00" fill="#000000">Metal Workshop</text>
</a>
</g>
</g>
<!-- C_chemicals&#45;&gt;I_metal_workshop -->
<g id="edge2" class="edge">
<title>C_chemicals&#45;&gt;I_metal_workshop</title>
<g id="a_edge2"><a xlink:title="Chemicals &#45;&gt; Metal Workshop">
<path fill="none" stroke="#000000" d="M989.4931,-246.7249C1005.6196,-242.2226 1023.1108,-235.3663 1036.8981,-225 1076.3413,-195.3437 1104.5959,-144.0442 1119.2954,-112.4609"/>
<polygon fill="#000000" stroke="#000000" points="1122.4895,-113.8919 1123.4196,-103.338 1116.111,-111.0084 1122.4895,-113.8919"/>
</a>
</g>
</g>
<!-- C_goods -->
<g id="goods" class="node">
<title>C_goods</title>
<g id="a_goods"><a xlink:href="cargos.html#goods" xlink:title="Goods" target="_top">
<ellipse fill="none" stroke="#000000" cx="1261.0603" cy="-140" rx="36.3252" ry="18"/>
<text text-anchor="middle" x="1261.0603" y="-135.8" font-family="sans-serif" font-size="14.00" fill="#000000">Goods</text>
</a>
</g>
</g>
<!-- I_glass_works&#45;&gt;C_goods -->
<g id="edge25" class="edge">
<title>I_glass_works&#45;&gt;C_goods</title>
<g id="a_edge25"><a xlink:title="Glass Works &#45;&gt; Goods">
<path fill="none" stroke="#000000" d="M1151.5227,-236.7779C1174.2913,-216.6615 1210.9658,-184.2592 1235.5303,-162.5561"/>
<polygon fill="#000000" stroke="#000000" points="1237.8706,-165.1588 1243.0473,-155.9148 1233.2358,-159.913 1237.8706,-165.1588"/>
</a>
</g>
</g>
<!-- I_metal_workshop&#45;&gt;C_goods -->
<g id="edge27" class="edge">
<title>I_metal_workshop&#45;&gt;C_goods</title>
<g id="a_edge27"><a xlink:title="Metal Workshop &#45;&gt; Goods">
<path fill="none" stroke="#000000" d="M1173.5181,-103.0091C1189.7274,-109.8583 1208.0556,-117.6029 1223.7376,-124.2293"/>
<polygon fill="#000000" stroke="#000000" points="1222.5435,-127.5243 1233.1173,-128.1927 1225.2682,-121.0763 1222.5435,-127.5243"/>
</a>
</g>
</g>
<!-- C_coal -->
<g id="coal" class="node">
<title>C_coal</title>
<g id="a_coal"><a xlink:href="cargos.html#coal" xlink:title="Coal" target="_top">
<ellipse fill="none" stroke="#000000" cx="564.2315" cy="-145" rx="28.0908" ry="18"/>
<text text-anchor="middle" x="564.2315" y="-140.8" font-family="sans-serif" font-size="14.00" fill="#000000">Coal</text>
</a>
</g>
</g>
<!-- I_blast_furnace -->
<g id="blast_furnace" class="node">
<title>I_blast_furnace</title>
<g id="a_blast_furnace"><a xlink:href="industries.html#blast_furnace" xlink:title="Blast Furnace" target="_top">
<polygon fill="none" stroke="#000000" points="790.5222,-103 680.5222,-103 680.5222,-67 790.5222,-67 790.5222,-103"/>
<text text-anchor="start" x="692.3362" y="-80.8" font-family="sans-serif" font-size="14.00" fill="#000000">Blast Furnace</text>
</a>
</g>
</g>
<!-- C_coal&#45;&gt;I_blast_furnace -->
<g id="edge3" class="edge">
<title>C_coal&#45;&gt;I_blast_furnace</title>
<g id="a_edge3"><a xlink:title="Coal &#45;&gt; Blast Furnace">
<path fill="none" stroke="#000000" d="M589.1387,-136.2755C611.3967,-128.4789 644.931,-116.7324 674.2893,-106.4488"/>
<polygon fill="#000000" stroke="#000000" points="675.7825,-109.6343 684.0632,-103.0252 673.4683,-103.0279 675.7825,-109.6343"/>
</a>
</g>
</g>
<!-- C_steel -->
<g id="steel" class="node">
<title>C_steel</title>
<g id="a_steel"><a xlink:href="cargos.html#steel" xlink:title="Steel" target="_top">
<ellipse fill="none" stroke="#000000" cx="943.2102" cy="-85" rx="30.0292" ry="18"/>
<text text-anchor="middle" x="943.2102" y="-80.8" font-family="sans-serif" font-size="14.00" fill="#000000">Steel</text>
</a>
</g>
</g>
<!-- I_blast_furnace&#45;&gt;C_steel -->
<g id="edge15" class="edge">
<title>I_blast_furnace&#45;&gt;C_steel</title>
<g id="a_edge15"><a xlink:title="Blast Furnace &#45;&gt; Steel">
<path fill="none" stroke="#000000" d="M790.6335,-85C825.8311,-85 870.6887,-85 902.6361,-85"/>
<polygon fill="#000000" stroke="#000000" points="902.9429,-88.5001 912.9428,-85 902.9428,-81.5001 902.9429,-88.5001"/>
</a>
</g>
</g>
<!-- C_fish -->
<g id="fish" class="node">
<title>C_fish</title>
<g id="a_fish"><a xlink:href="cargos.html#fish" xlink:title="Fish" target="_top">
<ellipse fill="none" stroke="#000000" cx="231.9704" cy="-304" rx="27" ry="18"/>
<text text-anchor="middle" x="231.9704" y="-299.8" font-family="sans-serif" font-size="14.00" fill="#000000">Fish</text>
</a>
</g>
</g>
<!-- I_fishing_harbour -->
<g id="fishing_harbour" class="node">
<title>I_fishing_harbour</title>
<g id="a_fishing_harbour"><a xlink:href="industries.html#fishing_harbour" xlink:title="Fishing Harbour" target="_top">
<polygon fill="none" stroke="#000000" points="454.4409,-322 331.4409,-322 331.4409,-286 454.4409,-286 454.4409,-322"/>
<text text-anchor="start" x="343.6411" y="-299.8" font-family="sans-serif" font-size="14.00" fill="#000000">Fishing Harbour</text>
</a>
</g>
</g>
<!-- C_fish&#45;&gt;I_fishing_harbour -->
<g id="edge4" class="edge">
<title>C_fish&#45;&gt;I_fishing_harbour</title>
<g id="a_edge4"><a xlink:title="Fish &#45;&gt; Fishing Harbour">
<path fill="none" stroke="#000000" d="M259.2769,-304C276.3896,-304 299.3079,-304 321.3292,-304"/>
<polygon fill="#000000" stroke="#000000" points="321.3599,-307.5001 331.3599,-304 321.3599,-300.5001 321.3599,-307.5001"/>
</a>
</g>
</g>
<!-- C_food -->
<g id="food" class="node">
<title>C_food</title>
<g id="a_food"><a xlink:href="cargos.html#food" xlink:title="Food" target="_top">
<ellipse fill="none" stroke="#000000" cx="564.2315" cy="-306" rx="30.0292" ry="18"/>
<text text-anchor="middle" x="564.2315" y="-301.8" font-family="sans-serif" font-size="14.00" fill="#000000">Food</text>
</a>
</g>
</g>
<!-- I_fishing_harbour&#45;&gt;C_food -->
<g id="edge24" class="edge">
<title>I_fishing_harbour&#45;&gt;C_food</title>
<g id="a_edge24"><a xlink:title="Fishing Harbour &#45;&gt; Food">
<path fill="none" stroke="#000000" d="M454.7807,-304.722C477.6298,-304.9888 502.9345,-305.2843 523.4522,-305.5239"/>
<polygon fill="#000000" stroke="#000000" points="523.6667,-309.0265 533.7069,-305.6436 523.7485,-302.027 523.6667,-309.0265"/>
</a>
</g>
</g>
<!-- I_port -->
<g id="port" class="node">
<title>I_port</title>
<g id="a_port"><a xlink:href="industries.html#port" xlink:title="Port" target="_top">
<polygon fill="none" stroke="#000000" points="762.5222,-271 708.5222,-271 708.5222,-235 762.5222,-235 762.5222,-271"/>
<text text-anchor="start" x="723.1843" y="-248.8" font-family="sans-serif" font-size="14.00" fill="#000000">Port</text>
</a>
</g>
</g>
<!-- C_food&#45;&gt;I_port -->
<g id="edge5" class="edge">
<title>C_food&#45;&gt;I_port</title>
<g id="a_edge5"><a xlink:title="Food &#45;&gt; Port">
<path fill="none" stroke="#000000" d="M591.3731,-297.602C620.3146,-288.647 666.3295,-274.4093 698.5649,-264.4352"/>
<polygon fill="#000000" stroke="#000000" points="699.9891,-267.6583 708.5077,-261.3587 697.9199,-260.9711 699.9891,-267.6583"/>
</a>
</g>
</g>
<!-- I_port&#45;&gt;C_chemicals -->
<g id="edge30" class="edge">
<title>I_port&#45;&gt;C_chemicals</title>
<g id="a_edge30"><a xlink:title="Port &#45;&gt; Chemicals">
<path fill="none" stroke="#000000" d="M762.6738,-253.2615C792.715,-253.5508 842.1037,-254.0264 881.6367,-254.4071"/>
<polygon fill="#000000" stroke="#000000" points="881.6841,-257.9076 891.7173,-254.5041 881.7515,-250.9079 881.6841,-257.9076"/>
</a>
</g>
</g>
<!-- C_engineering_supplies_port -->
<g id="engineering_supplies" class="node">
<title>C_engineering_supplies_port</title>
<g id="a_engineering_supplies"><a xlink:href="cargos.html#engineering_supplies" xlink:title="Engineering Supplies" target="_top">
<ellipse fill="none" stroke="#000000" cx="943.2102" cy="-315" rx="93.8763" ry="18"/>
<text text-anchor="middle" x="943.2102" y="-310.8" font-family="sans-serif" font-size="14.00" fill="#000000">Engineering Supplies</text>
</a>
</g>
</g>
<!-- I_port&#45;&gt;C_engineering_supplies_port -->
<g id="edge31" class="edge">
<title>I_port&#45;&gt;C_engineering_supplies_port</title>
<g id="a_edge31"><a xlink:title="Port &#45;&gt; Engineering Supplies">
<path fill="none" stroke="#000000" d="M762.6738,-261.1054C792.9441,-270.1419 842.8582,-285.0425 882.5396,-296.8883"/>
<polygon fill="#000000" stroke="#000000" points="881.5463,-300.2444 892.1297,-299.7512 883.5487,-293.5369 881.5463,-300.2444"/>
</a>
</g>
</g>
<!-- C_farm_supplies_port -->
<g id="farm_supplies" class="node">
<title>C_farm_supplies_port</title>
<g id="a_farm_supplies"><a xlink:href="cargos.html#farm_supplies" xlink:title="Farm Supplies" target="_top">
<ellipse fill="none" stroke="#000000" cx="943.2102" cy="-195" rx="67.2376" ry="18"/>
<text text-anchor="middle" x="943.2102" y="-190.8" font-family="sans-serif" font-size="14.00" fill="#000000">Farm Supplies</text>
</a>
</g>
</g>
<!-- I_port&#45;&gt;C_farm_supplies_port -->
<g id="edge32" class="edge">
<title>I_port&#45;&gt;C_farm_supplies_port</title>
<g id="a_edge32"><a xlink:title="Port &#45;&gt; Farm Supplies">
<path fill="none" stroke="#000000" d="M762.6738,-245.4175C794.0615,-236.652 846.5699,-221.9882 886.8905,-210.7281"/>
<polygon fill="#000000" stroke="#000000" points="887.9068,-214.0783 896.5969,-208.0175 886.024,-207.3363 887.9068,-214.0783"/>
</a>
</g>
</g>
<!-- C_fruits -->
<g id="fruits" class="node">
<title>C_fruits</title>
<g id="a_fruits"><a xlink:href="cargos.html#fruits" xlink:title="Fruit" target="_top">
<ellipse fill="none" stroke="#000000" cx="231.9704" cy="-484" rx="27.589" ry="18"/>
<text text-anchor="middle" x="231.9704" y="-479.8" font-family="sans-serif" font-size="14.00" fill="#000000">Fruit</text>
</a>
</g>
</g>
<!-- I_brewery -->
<g id="brewery" class="node">
<title>I_brewery</title>
<g id="a_brewery"><a xlink:href="industries.html#brewery" xlink:title="Cider Mill" target="_top">
<polygon fill="none" stroke="#000000" points="433.9409,-502 351.9409,-502 351.9409,-466 433.9409,-466 433.9409,-502"/>
<text text-anchor="start" x="363.7719" y="-479.8" font-family="sans-serif" font-size="14.00" fill="#000000">Cider Mill</text>
</a>
</g>
</g>
<!-- C_fruits&#45;&gt;I_brewery -->
<g id="edge6" class="edge">
<title>C_fruits&#45;&gt;I_brewery</title>
<g id="a_edge6"><a xlink:title="Fruit &#45;&gt; Cider Mill">
<path fill="none" stroke="#000000" d="M260.0093,-484C282.4535,-484 314.5352,-484 341.5586,-484"/>
<polygon fill="#000000" stroke="#000000" points="341.6373,-487.5001 351.6372,-484 341.6372,-480.5001 341.6373,-487.5001"/>
</a>
</g>
</g>
<!-- I_brewery&#45;&gt;C_alcohol -->
<g id="edge16" class="edge">
<title>I_brewery&#45;&gt;C_alcohol</title>
<g id="a_edge16"><a xlink:title="Cider Mill &#45;&gt; Alcohol">
<path fill="none" stroke="#000000" d="M433.9692,-484C458.2392,-484 489.1411,-484 514.7554,-484"/>
<polygon fill="#000000" stroke="#000000" points="515.0104,-487.5001 525.0104,-484 515.0103,-480.5001 515.0104,-487.5001"/>
</a>
</g>
</g>
<!-- C_goods&#45;&gt;I_port -->
<g id="edge7" class="edge">
<title>C_goods&#45;&gt;I_port</title>
<g id="a_edge7"><a xlink:title="Goods &#45;&gt; Port">
<path fill="none" stroke="#000000" d="M1226.0414,-135.4146C1153.2036,-127.2976 981.2072,-115.579 849.5222,-165 814.0807,-178.3011 780.6855,-206.6504 759.3132,-227.5953"/>
<polygon fill="#000000" stroke="#000000" points="756.5794,-225.3804 752.0017,-234.9353 761.5387,-230.3206 756.5794,-225.3804"/>
</a>
</g>
</g>
<!-- C_iron_ore -->
<g id="iron_ore" class="node">
<title>C_iron_ore</title>
<g id="a_iron_ore"><a xlink:href="cargos.html#iron_ore" xlink:title="Iron Ore" target="_top">
<ellipse fill="none" stroke="#000000" cx="564.2315" cy="-85" rx="42.5888" ry="18"/>
<text text-anchor="middle" x="564.2315" y="-80.8" font-family="sans-serif" font-size="14.00" fill="#000000">Iron Ore</text>
</a>
</g>
</g>
<!-- C_iron_ore&#45;&gt;I_blast_furnace -->
<g id="edge8" class="edge">
<title>C_iron_ore&#45;&gt;I_blast_furnace</title>
<g id="a_edge8"><a xlink:title="Iron Ore &#45;&gt; Blast Furnace">
<path fill="none" stroke="#000000" d="M607.0136,-85C626.0888,-85 648.9861,-85 670.135,-85"/>
<polygon fill="#000000" stroke="#000000" points="670.3524,-88.5001 680.3524,-85 670.3524,-81.5001 670.3524,-88.5001"/>
</a>
</g>
</g>
<!-- C_kaolin -->
<g id="kaolin" class="node">
<title>C_kaolin</title>
<g id="a_kaolin"><a xlink:href="cargos.html#kaolin" xlink:title="Kaolin" target="_top">
<ellipse fill="none" stroke="#000000" cx="564.2315" cy="-246" rx="34.8806" ry="18"/>
<text text-anchor="middle" x="564.2315" y="-241.8" font-family="sans-serif" font-size="14.00" fill="#000000">Kaolin</text>
</a>
</g>
</g>
<!-- C_kaolin&#45;&gt;I_port -->
<g id="edge9" class="edge">
<title>C_kaolin&#45;&gt;I_port</title>
<g id="a_edge9"><a xlink:title="Kaolin &#45;&gt; Port">
<path fill="none" stroke="#000000" d="M598.8948,-247.4166C627.7133,-248.5943 668.6401,-250.2668 698.1782,-251.4739"/>
<polygon fill="#000000" stroke="#000000" points="698.3672,-254.9844 708.5018,-251.8958 698.6531,-247.9903 698.3672,-254.9844"/>
</a>
</g>
</g>
<!-- C_livestock -->
<g id="livestock" class="node">
<title>C_livestock</title>
<g id="a_livestock"><a xlink:href="cargos.html#livestock" xlink:title="Livestock" target="_top">
<ellipse fill="none" stroke="#000000" cx="231.9704" cy="-424" rx="46.9409" ry="18"/>
<text text-anchor="middle" x="231.9704" y="-419.8" font-family="sans-serif" font-size="14.00" fill="#000000">Livestock</text>
</a>
</g>
</g>
<!-- I_stockyard -->
<g id="stockyard" class="node">
<title>I_stockyard</title>
<g id="a_stockyard"><a xlink:href="industries.html#stockyard" xlink:title="Stockyard" target="_top">
<polygon fill="none" stroke="#000000" points="435.9409,-442 349.9409,-442 349.9409,-406 435.9409,-406 435.9409,-442"/>
<text text-anchor="start" x="361.8168" y="-419.8" font-family="sans-serif" font-size="14.00" fill="#000000">Stockyard</text>
</a>
</g>
</g>
<!-- C_livestock&#45;&gt;I_stockyard -->
<g id="edge10" class="edge">
<title>C_livestock&#45;&gt;I_stockyard</title>
<g id="a_edge10"><a xlink:title="Livestock &#45;&gt; Stockyard">
<path fill="none" stroke="#000000" d="M278.9625,-424C298.0071,-424 320.0969,-424 339.7308,-424"/>
<polygon fill="#000000" stroke="#000000" points="339.7451,-427.5001 349.745,-424 339.745,-420.5001 339.7451,-427.5001"/>
</a>
</g>
</g>
<!-- I_stockyard&#45;&gt;C_food -->
<g id="edge34" class="edge">
<title>I_stockyard&#45;&gt;C_food</title>
<g id="a_edge34"><a xlink:title="Stockyard &#45;&gt; Food">
<path fill="none" stroke="#000000" d="M436.2743,-412.0238C449.2534,-407.4329 463.1577,-401.4602 474.9409,-394 502.2949,-376.6814 528.0072,-349.778 544.7504,-330.2755"/>
<polygon fill="#000000" stroke="#000000" points="547.5987,-332.3264 551.3555,-322.4199 542.241,-327.8214 547.5987,-332.3264"/>
</a>
</g>
</g>
<!-- C_milk -->
<g id="milk" class="node">
<title>C_milk</title>
<g id="a_milk"><a xlink:href="cargos.html#milk" xlink:title="Milk" target="_top">
<ellipse fill="none" stroke="#000000" cx="231.9704" cy="-364" rx="27" ry="18"/>
<text text-anchor="middle" x="231.9704" y="-359.8" font-family="sans-serif" font-size="14.00" fill="#000000">Milk</text>
</a>
</g>
</g>
<!-- I_dairy -->
<g id="dairy" class="node">
<title>I_dairy</title>
<g id="a_dairy"><a xlink:href="industries.html#dairy" xlink:title="Dairy" target="_top">
<polygon fill="none" stroke="#000000" points="420.9409,-382 364.9409,-382 364.9409,-346 420.9409,-346 420.9409,-382"/>
<text text-anchor="start" x="376.6064" y="-359.8" font-family="sans-serif" font-size="14.00" fill="#000000">Dairy</text>
</a>
</g>
</g>
<!-- C_milk&#45;&gt;I_dairy -->
<g id="edge11" class="edge">
<title>C_milk&#45;&gt;I_dairy</title>
<g id="a_edge11"><a xlink:title="Milk &#45;&gt; Dairy">
<path fill="none" stroke="#000000" d="M259.2769,-364C285.4001,-364 325.052,-364 354.3897,-364"/>
<polygon fill="#000000" stroke="#000000" points="354.6875,-367.5001 364.6875,-364 354.6875,-360.5001 354.6875,-367.5001"/>
</a>
</g>
</g>
<!-- I_dairy&#45;&gt;C_food -->
<g id="edge19" class="edge">
<title>I_dairy&#45;&gt;C_food</title>
<g id="a_edge19"><a xlink:title="Dairy &#45;&gt; Food">
<path fill="none" stroke="#000000" d="M421.226,-354.4225C450.4643,-344.5222 496.2091,-329.0328 528.0603,-318.2478"/>
<polygon fill="#000000" stroke="#000000" points="529.5257,-321.4469 537.8749,-314.9245 527.2806,-314.8166 529.5257,-321.4469"/>
</a>
</g>
</g>
<!-- C_sand -->
<g id="sand" class="node">
<title>C_sand</title>
<g id="a_sand"><a xlink:href="cargos.html#sand" xlink:title="Sand" target="_top">
<ellipse fill="none" stroke="#000000" cx="943.2102" cy="-375" rx="30.5224" ry="18"/>
<text text-anchor="middle" x="943.2102" y="-370.8" font-family="sans-serif" font-size="14.00" fill="#000000">Sand</text>
</a>
</g>
</g>
<!-- C_sand&#45;&gt;I_glass_works -->
<g id="edge12" class="edge">
<title>C_sand&#45;&gt;I_glass_works</title>
<g id="a_edge12"><a xlink:title="Sand &#45;&gt; Glass Works">
<path fill="none" stroke="#000000" d="M972.5107,-369.234C991.7439,-364.6021 1016.9376,-356.8777 1036.8981,-345 1065.3963,-328.0419 1092.1162,-300.944 1109.7288,-280.9082"/>
<polygon fill="#000000" stroke="#000000" points="1112.6008,-282.9366 1116.4708,-273.0739 1107.295,-278.3706 1112.6008,-282.9366"/>
</a>
</g>
</g>
<!-- C_scrap_metal -->
<g id="scrap_metal" class="node">
<title>C_scrap_metal</title>
<g id="a_scrap_metal"><a xlink:href="cargos.html#scrap_metal" xlink:title="Scrap Metal" target="_top">
<ellipse fill="none" stroke="#000000" cx="564.2315" cy="-25" rx="57.0821" ry="18"/>
<text text-anchor="middle" x="564.2315" y="-20.8" font-family="sans-serif" font-size="14.00" fill="#000000">Scrap Metal</text>
</a>
</g>
</g>
<!-- C_scrap_metal&#45;&gt;I_blast_furnace -->
<g id="edge13" class="edge">
<title>C_scrap_metal&#45;&gt;I_blast_furnace</title>
<g id="a_edge13"><a xlink:title="Scrap Metal &#45;&gt; Blast Furnace">
<path fill="none" stroke="#000000" d="M602.6725,-38.4652C623.7389,-45.8443 650.3464,-55.1645 674.2066,-63.5223"/>
<polygon fill="#000000" stroke="#000000" points="673.2959,-66.9117 683.8907,-66.9144 675.61,-60.3053 673.2959,-66.9117"/>
</a>
</g>
</g>
<!-- C_steel&#45;&gt;I_metal_workshop -->
<g id="edge14" class="edge">
<title>C_steel&#45;&gt;I_metal_workshop</title>
<g id="a_edge14"><a xlink:title="Steel &#45;&gt; Metal Workshop">
<path fill="none" stroke="#000000" d="M973.7832,-85C996.7341,-85 1029.1357,-85 1058.5571,-85"/>
<polygon fill="#000000" stroke="#000000" points="1058.8192,-88.5001 1068.8192,-85 1058.8191,-81.5001 1058.8192,-88.5001"/>
</a>
</g>
</g>
<!-- I_clay_pit -->
<g id="clay_pit" class="node">
<title>I_clay_pit</title>
<g id="a_clay_pit"><a xlink:href="industries.html#clay_pit" xlink:title="Clay Pit" target="_top">
<polygon fill="none" stroke="#000000" points="474.9409,-262 310.9409,-262 310.9409,-212 474.9409,-212 474.9409,-262"/>
<text text-anchor="start" x="368.8237" y="-242.8" font-family="sans-serif" font-size="14.00" fill="#000000">Clay Pit</text>
<text text-anchor="start" x="322.893" y="-222.8" font-family="sans-serif" font-size="14.00" fill="#000000">[Engineering Supplies]</text>
</a>
</g>
</g>
<!-- I_clay_pit&#45;&gt;C_kaolin -->
<g id="edge17" class="edge">
<title>I_clay_pit&#45;&gt;C_kaolin</title>
<g id="a_edge17"><a xlink:title="Clay Pit &#45;&gt; Kaolin">
<path fill="none" stroke="#000000" d="M475.0743,-241.3155C490.4004,-242.1207 505.8768,-242.9339 519.5358,-243.6516"/>
<polygon fill="#000000" stroke="#000000" points="519.4242,-247.1505 529.5941,-244.1801 519.7915,-240.1601 519.4242,-247.1505"/>
</a>
</g>
</g>
<!-- I_coal_mine -->
<g id="coal_mine" class="node">
<title>I_coal_mine</title>
<g id="a_coal_mine"><a xlink:href="industries.html#coal_mine" xlink:title="Coal Mine" target="_top">
<polygon fill="none" stroke="#000000" points="474.9409,-184 310.9409,-184 310.9409,-134 474.9409,-134 474.9409,-184"/>
<text text-anchor="start" x="361.4272" y="-164.8" font-family="sans-serif" font-size="14.00" fill="#000000">Coal Mine</text>
<text text-anchor="start" x="322.893" y="-144.8" font-family="sans-serif" font-size="14.00" fill="#000000">[Engineering Supplies]</text>
</a>
</g>
</g>
<!-- I_coal_mine&#45;&gt;C_coal -->
<g id="edge18" class="edge">
<title>I_coal_mine&#45;&gt;C_coal</title>
<g id="a_edge18"><a xlink:title="Coal Mine &#45;&gt; Coal">
<path fill="none" stroke="#000000" d="M475.0743,-152.287C492.9333,-150.8274 510.9963,-149.351 526.1501,-148.1125"/>
<polygon fill="#000000" stroke="#000000" points="526.4566,-151.5992 536.1382,-147.2961 525.8863,-144.6225 526.4566,-151.5992"/>
</a>
</g>
</g>
<!-- I_dairy_farm -->
<g id="dairy_farm" class="node">
<title>I_dairy_farm</title>
<g id="a_dairy_farm"><a xlink:href="industries.html#dairy_farm" xlink:title="Dairy Farm" target="_top">
<polygon fill="none" stroke="#000000" points="137.5,-415 15.5,-415 15.5,-365 137.5,-365 137.5,-415"/>
<text text-anchor="start" x="41.8896" y="-395.8" font-family="sans-serif" font-size="14.00" fill="#000000">Dairy Farm</text>
<text text-anchor="start" x="27.4829" y="-375.8" font-family="sans-serif" font-size="14.00" fill="#000000">[Farm Supplies]</text>
</a>
</g>
</g>
<!-- I_dairy_farm&#45;&gt;C_livestock -->
<g id="edge20" class="edge">
<title>I_dairy_farm&#45;&gt;C_livestock</title>
<g id="a_edge20"><a xlink:title="Dairy Farm &#45;&gt; Livestock">
<path fill="none" stroke="#000000" d="M137.946,-403.4377C152.2888,-406.5743 167.4062,-409.8804 181.2245,-412.9023"/>
<polygon fill="#000000" stroke="#000000" points="180.5102,-416.3288 191.0271,-415.0461 182.0058,-409.4904 180.5102,-416.3288"/>
</a>
</g>
</g>
<!-- I_dairy_farm&#45;&gt;C_milk -->
<g id="edge21" class="edge">
<title>I_dairy_farm&#45;&gt;C_milk</title>
<g id="a_edge21"><a xlink:title="Dairy Farm &#45;&gt; Milk">
<path fill="none" stroke="#000000" d="M137.946,-379.7241C157.3456,-376.4798 178.1622,-372.9986 195.2648,-370.1384"/>
<polygon fill="#000000" stroke="#000000" points="196.102,-373.5471 205.3877,-368.4456 194.9473,-366.643 196.102,-373.5471"/>
</a>
</g>
</g>
<!-- I_dredging_site -->
<g id="dredging_site" class="node">
<title>I_dredging_site</title>
<g id="a_dredging_site"><a xlink:href="industries.html#dredging_site" xlink:title="Dredging Site" target="_top">
<polygon fill="none" stroke="#000000" points="817.5222,-400 653.5222,-400 653.5222,-350 817.5222,-350 817.5222,-400"/>
<text text-anchor="start" x="693.1087" y="-380.8" font-family="sans-serif" font-size="14.00" fill="#000000">Dredging Site</text>
<text text-anchor="start" x="665.4744" y="-360.8" font-family="sans-serif" font-size="14.00" fill="#000000">[Engineering Supplies]</text>
</a>
</g>
</g>
<!-- I_dredging_site&#45;&gt;C_sand -->
<g id="edge22" class="edge">
<title>I_dredging_site&#45;&gt;C_sand</title>
<g id="a_edge22"><a xlink:title="Dredging Site &#45;&gt; Sand">
<path fill="none" stroke="#000000" d="M817.606,-375C846.6437,-375 878.0581,-375 902.2064,-375"/>
<polygon fill="#000000" stroke="#000000" points="902.4184,-378.5001 912.4184,-375 902.4184,-371.5001 902.4184,-378.5001"/>
</a>
</g>
</g>
<!-- I_fishing_grounds -->
<g id="fishing_grounds" class="node">
<title>I_fishing_grounds</title>
<g id="a_fishing_grounds"><a xlink:href="industries.html#fishing_grounds" xlink:title="Fishing Grounds" target="_top">
<polygon fill="none" stroke="#000000" points="139.5,-322 13.5,-322 13.5,-286 139.5,-286 139.5,-322"/>
<text text-anchor="start" x="25.1416" y="-299.8" font-family="sans-serif" font-size="14.00" fill="#000000">Fishing Grounds</text>
</a>
</g>
</g>
<!-- I_fishing_grounds&#45;&gt;C_fish -->
<g id="edge23" class="edge">
<title>I_fishing_grounds&#45;&gt;C_fish</title>
<g id="a_edge23"><a xlink:title="Fishing Grounds &#45;&gt; Fish">
<path fill="none" stroke="#000000" d="M139.7358,-304C158.3555,-304 178.126,-304 194.5672,-304"/>
<polygon fill="#000000" stroke="#000000" points="194.8451,-307.5001 204.8451,-304 194.8451,-300.5001 194.8451,-307.5001"/>
</a>
</g>
</g>
<!-- I_general_store -->
<g id="general_store" class="node">
<title>I_general_store</title>
<g id="a_general_store"><a xlink:href="industries.html#general_store" xlink:title="General Store" target="_top">
<polygon fill="none" stroke="#000000" points="132,-613 21,-613 21,-523 132,-523 132,-613"/>
<text text-anchor="start" x="33.4209" y="-593.8" font-family="sans-serif" font-size="14.00" fill="#000000">General Store</text>
<text text-anchor="start" x="50.1519" y="-573.8" font-family="sans-serif" font-size="14.00" fill="#000000">[Alcohol]</text>
<text text-anchor="start" x="57.1553" y="-553.8" font-family="sans-serif" font-size="14.00" fill="#000000">[Food]</text>
<text text-anchor="start" x="52.4863" y="-533.8" font-family="sans-serif" font-size="14.00" fill="#000000">[Goods]</text>
</a>
</g>
</g>
<!-- I_hotel -->
<g id="hotel" class="node">
<title>I_hotel</title>
<g id="a_hotel"><a xlink:href="industries.html#hotel" xlink:title="Hotel" target="_top">
<polygon fill="none" stroke="#000000" points="129,-747 24,-747 24,-637 129,-637 129,-747"/>
<text text-anchor="start" x="60.6587" y="-727.8" font-family="sans-serif" font-size="14.00" fill="#000000">Hotel</text>
<text text-anchor="start" x="50.1519" y="-707.8" font-family="sans-serif" font-size="14.00" fill="#000000">[Alcohol]</text>
<text text-anchor="start" x="57.1553" y="-687.8" font-family="sans-serif" font-size="14.00" fill="#000000">[Food]</text>
<text text-anchor="start" x="36.145" y="-667.8" font-family="sans-serif" font-size="14.00" fill="#000000">[Passengers]</text>
<text text-anchor="start" x="36.145" y="-647.8" font-family="sans-serif" font-size="14.00" fill="#000000">[Passengers]</text>
</a>
</g>
</g>
<!-- I_iron_ore_mine -->
<g id="iron_ore_mine" class="node">
<title>I_iron_ore_mine</title>
<g id="a_iron_ore_mine"><a xlink:href="industries.html#iron_ore_mine" xlink:title="Iron Ore Mine" target="_top">
<polygon fill="none" stroke="#000000" points="474.9409,-110 310.9409,-110 310.9409,-60 474.9409,-60 474.9409,-110"/>
<text text-anchor="start" x="350.1479" y="-90.8" font-family="sans-serif" font-size="14.00" fill="#000000">Iron Ore Mine</text>
<text text-anchor="start" x="322.893" y="-70.8" font-family="sans-serif" font-size="14.00" fill="#000000">[Engineering Supplies]</text>
</a>
</g>
</g>
<!-- I_iron_ore_mine&#45;&gt;C_iron_ore -->
<g id="edge26" class="edge">
<title>I_iron_ore_mine&#45;&gt;C_iron_ore</title>
<g id="a_edge26"><a xlink:title="Iron Ore Mine &#45;&gt; Iron Ore">
<path fill="none" stroke="#000000" d="M475.0743,-85C487.3014,-85 499.6241,-85 511.0433,-85"/>
<polygon fill="#000000" stroke="#000000" points="511.2478,-88.5001 521.2477,-85 511.2477,-81.5001 511.2478,-88.5001"/>
</a>
</g>
</g>
<!-- I_orchard_piggery -->
<g id="orchard_piggery" class="node">
<title>I_orchard_piggery</title>
<g id="a_orchard_piggery"><a xlink:href="industries.html#orchard_piggery" xlink:title="Orchard and Piggery" target="_top">
<polygon fill="none" stroke="#000000" points="153,-499 0,-499 0,-449 153,-449 153,-499"/>
<text text-anchor="start" x="12.4106" y="-479.8" font-family="sans-serif" font-size="14.00" fill="#000000">Orchard and Piggery</text>
<text text-anchor="start" x="27.9829" y="-459.8" font-family="sans-serif" font-size="14.00" fill="#000000">[Farm Supplies]</text>
</a>
</g>
</g>
<!-- I_orchard_piggery&#45;&gt;C_fruits -->
<g id="edge28" class="edge">
<title>I_orchard_piggery&#45;&gt;C_fruits</title>
<g id="a_edge28"><a xlink:title="Orchard and Piggery &#45;&gt; Fruit">
<path fill="none" stroke="#000000" d="M153.3243,-478.9414C167.4066,-479.8472 181.5287,-480.7555 193.8418,-481.5475"/>
<polygon fill="#000000" stroke="#000000" points="193.9461,-485.0614 204.1502,-482.2106 194.3955,-478.0758 193.9461,-485.0614"/>
</a>
</g>
</g>
<!-- I_orchard_piggery&#45;&gt;C_livestock -->
<g id="edge29" class="edge">
<title>I_orchard_piggery&#45;&gt;C_livestock</title>
<g id="a_edge29"><a xlink:title="Orchard and Piggery &#45;&gt; Livestock">
<path fill="none" stroke="#000000" d="M153.3243,-449.293C164.5712,-445.6759 175.8436,-442.0506 186.1995,-438.7201"/>
<polygon fill="#000000" stroke="#000000" points="187.3686,-442.0208 195.8168,-435.6272 185.2254,-435.3569 187.3686,-442.0208"/>
</a>
</g>
</g>
<!-- I_junk_yard -->
<g id="junk_yard" class="node">
<title>I_junk_yard</title>
<g id="a_junk_yard"><a xlink:href="industries.html#junk_yard" xlink:title="Scrap Yard" target="_top">
<polygon fill="none" stroke="#000000" points="438.9409,-36 346.9409,-36 346.9409,0 438.9409,0 438.9409,-36"/>
<text text-anchor="start" x="358.5629" y="-13.8" font-family="sans-serif" font-size="14.00" fill="#000000">Scrap Yard</text>
</a>
</g>
</g>
<!-- I_junk_yard&#45;&gt;C_scrap_metal -->
<g id="edge33" class="edge">
<title>I_junk_yard&#45;&gt;C_scrap_metal</title>
<g id="a_edge33"><a xlink:title="Scrap Yard &#45;&gt; Scrap Metal">
<path fill="none" stroke="#000000" d="M439.2946,-19.8943C457.0154,-20.6185 477.6015,-21.4598 496.8885,-22.2479"/>
<polygon fill="#000000" stroke="#000000" points="497.0029,-25.7554 507.1375,-22.6668 497.2888,-18.7613 497.0029,-25.7554"/>
</a>
</g>
</g>
</g>
</svg>
