<?xml version="1.0" encoding="UTF-8" standalone="no"?>
<?xml-stylesheet href="static/css/cargoflow_styles.css" type="text/css"?>
<!DOCTYPE svg PUBLIC "-//W3C//DTD SVG 1.1//EN"
 "http://www.w3.org/Graphics/SVG/1.1/DTD/svg11.dtd">
<!-- Generated by graphviz version 2.40.1 (20161225.0304)
 -->
<!-- Title: tropic_basic Pages: 1 -->
<svg width="1290pt" height="870pt"
 viewBox="0.00 0.00 1290.46 869.96" xmlns="http://www.w3.org/2000/svg" xmlns:xlink="http://www.w3.org/1999/xlink">
<g id="page0,1_graph0" class="graph" transform="scale(1 1) rotate(0) translate(4 865.9574)">
<title>tropic_basic</title>
<g id="a_page0,1_graph0"><a xlink:title="Tropic Basic">
<polygon fill="#ffffff" stroke="transparent" points="-4,4 -4,-865.9574 1286.4572,-865.9574 1286.4572,4 -4,4"/>
</a>
</g>
<!-- C_alcohol -->
<g id="alcohol" class="node">
<title>C_alcohol</title>
<g id="a_alcohol"><a xlink:href="cargos.html#alcohol" xlink:title="Alcohol" target="_top">
<ellipse fill="none" stroke="#000000" cx="614.5478" cy="-428.9574" rx="39.2233" ry="18"/>
<text text-anchor="middle" x="614.5478" y="-424.7574" font-family="sans-serif" font-size="14.00" fill="#000000">Alcohol</text>
</a>
</g>
</g>
<!-- I_port -->
<g id="port" class="node">
<title>I_port</title>
<g id="a_port"><a xlink:href="industries.html#port" xlink:title="Port" target="_top">
<polygon fill="none" stroke="#000000" points="1063.0813,-418.9574 1009.0813,-418.9574 1009.0813,-382.9574 1063.0813,-382.9574 1063.0813,-418.9574"/>
<text text-anchor="start" x="1023.7434" y="-396.7574" font-family="sans-serif" font-size="14.00" fill="#000000">Port</text>
</a>
</g>
</g>
<!-- C_alcohol&#45;&gt;I_port -->
<g id="edge1" class="edge">
<title>C_alcohol&#45;&gt;I_port</title>
<g id="a_edge1"><a xlink:title="Alcohol &#45;&gt; Port">
<path fill="none" stroke="#000000" d="M653.4491,-426.3734C734.3011,-421.0029 919.5578,-408.6974 998.9024,-403.427"/>
<polygon fill="#000000" stroke="#000000" points="999.184,-406.9161 1008.9301,-402.7609 998.72,-399.9315 999.184,-406.9161"/>
</a>
</g>
</g>
<!-- C_goods -->
<g id="goods" class="node">
<title>C_goods</title>
<g id="a_goods"><a xlink:href="cargos.html#goods" xlink:title="Goods" target="_top">
<ellipse fill="none" stroke="#000000" cx="1188.7692" cy="-460.9574" rx="36.3252" ry="18"/>
<text text-anchor="middle" x="1188.7692" y="-456.7574" font-family="sans-serif" font-size="14.00" fill="#000000">Goods</text>
</a>
</g>
</g>
<!-- I_port&#45;&gt;C_goods -->
<g id="edge30" class="edge">
<title>I_port&#45;&gt;C_goods</title>
<g id="a_edge30"><a xlink:title="Port &#45;&gt; Goods">
<path fill="none" stroke="#000000" d="M1063.2672,-415.9321C1073.1262,-421.0533 1084.4537,-426.587 1095.0813,-430.9574 1111.8244,-437.8427 1130.7647,-444.1695 1147.2121,-449.2199"/>
<polygon fill="#000000" stroke="#000000" points="1146.5043,-452.6619 1157.0888,-452.1931 1148.5222,-445.9591 1146.5043,-452.6619"/>
</a>
</g>
</g>
<!-- C_engineering_supplies_port -->
<g id="engineering_supplies" class="node">
<title>C_engineering_supplies_port</title>
<g id="a_engineering_supplies"><a xlink:href="cargos.html#engineering_supplies" xlink:title="Engineering Supplies" target="_top">
<ellipse fill="none" stroke="#000000" cx="1188.7692" cy="-400.9574" rx="93.8763" ry="18"/>
<text text-anchor="middle" x="1188.7692" y="-396.7574" font-family="sans-serif" font-size="14.00" fill="#000000">Engineering Supplies</text>
</a>
</g>
</g>
<!-- I_port&#45;&gt;C_engineering_supplies_port -->
<g id="edge31" class="edge">
<title>I_port&#45;&gt;C_engineering_supplies_port</title>
<g id="a_edge31"><a xlink:title="Port &#45;&gt; Engineering Supplies">
<path fill="none" stroke="#000000" d="M1063.3788,-400.9574C1069.8926,-400.9574 1077.2325,-400.9574 1085.0101,-400.9574"/>
<polygon fill="#000000" stroke="#000000" points="1085.0667,-404.4575 1095.0666,-400.9574 1085.0666,-397.4575 1085.0667,-404.4575"/>
</a>
</g>
</g>
<!-- C_farm_supplies_port -->
<g id="farm_supplies" class="node">
<title>C_farm_supplies_port</title>
<g id="a_farm_supplies"><a xlink:href="cargos.html#farm_supplies" xlink:title="Farm Supplies" target="_top">
<ellipse fill="none" stroke="#000000" cx="1188.7692" cy="-340.9574" rx="67.2376" ry="18"/>
<text text-anchor="middle" x="1188.7692" y="-336.7574" font-family="sans-serif" font-size="14.00" fill="#000000">Farm Supplies</text>
</a>
</g>
</g>
<!-- I_port&#45;&gt;C_farm_supplies_port -->
<g id="edge32" class="edge">
<title>I_port&#45;&gt;C_farm_supplies_port</title>
<g id="a_edge32"><a xlink:title="Port &#45;&gt; Farm Supplies">
<path fill="none" stroke="#000000" d="M1063.2672,-385.9827C1073.1262,-380.8615 1084.4537,-375.3278 1095.0813,-370.9574 1107.0463,-366.037 1120.1334,-361.4019 1132.6309,-357.3139"/>
<polygon fill="#000000" stroke="#000000" points="1134.0369,-360.5389 1142.4945,-354.1577 1131.9035,-353.8719 1134.0369,-360.5389"/>
</a>
</g>
</g>
<!-- C_beans -->
<g id="beans" class="node">
<title>C_beans</title>
<g id="a_beans"><a xlink:href="cargos.html#beans" xlink:title="Beans" target="_top">
<ellipse fill="none" stroke="#000000" cx="614.5478" cy="-258.9574" rx="35.365" ry="18"/>
<text text-anchor="middle" x="614.5478" y="-254.7574" font-family="sans-serif" font-size="14.00" fill="#000000">Beans</text>
</a>
</g>
</g>
<!-- I_food_processor -->
<g id="food_processor" class="node">
<title>I_food_processor</title>
<g id="a_food_processor"><a xlink:href="industries.html#food_processor" xlink:title="Food Processing Plant" target="_top">
<polygon fill="none" stroke="#000000" points="866.8583,-276.9574 702.8583,-276.9574 702.8583,-240.9574 866.8583,-240.9574 866.8583,-276.9574"/>
<text text-anchor="start" x="714.4311" y="-254.7574" font-family="sans-serif" font-size="14.00" fill="#000000">Food Processing Plant</text>
</a>
</g>
</g>
<!-- C_beans&#45;&gt;I_food_processor -->
<g id="edge2" class="edge">
<title>C_beans&#45;&gt;I_food_processor</title>
<g id="a_edge2"><a xlink:title="Beans &#45;&gt; Food Processing Plant">
<path fill="none" stroke="#000000" d="M649.8363,-258.9574C662.4643,-258.9574 677.3514,-258.9574 692.5445,-258.9574"/>
<polygon fill="#000000" stroke="#000000" points="692.5521,-262.4575 702.5521,-258.9574 692.5521,-255.4575 692.5521,-262.4575"/>
</a>
</g>
</g>
<!-- C_food -->
<g id="food" class="node">
<title>C_food</title>
<g id="a_food"><a xlink:href="cargos.html#food" xlink:title="Food" target="_top">
<ellipse fill="none" stroke="#000000" cx="937.9698" cy="-313.9574" rx="30.0292" ry="18"/>
<text text-anchor="middle" x="937.9698" y="-309.7574" font-family="sans-serif" font-size="14.00" fill="#000000">Food</text>
</a>
</g>
</g>
<!-- I_food_processor&#45;&gt;C_food -->
<g id="edge26" class="edge">
<title>I_food_processor&#45;&gt;C_food</title>
<g id="a_edge26"><a xlink:title="Food Processing Plant &#45;&gt; Food">
<path fill="none" stroke="#000000" d="M834.9927,-276.9665C856.9278,-284.8459 882.1614,-293.9102 902.1599,-301.0939"/>
<polygon fill="#000000" stroke="#000000" points="901.2122,-304.4724 911.8067,-304.5592 903.5787,-297.8846 901.2122,-304.4724"/>
</a>
</g>
</g>
<!-- C_chemicals -->
<g id="chemicals" class="node">
<title>C_chemicals</title>
<g id="a_chemicals"><a xlink:href="cargos.html#chemicals" xlink:title="Chemicals" target="_top">
<ellipse fill="none" stroke="#000000" cx="614.5478" cy="-548.9574" rx="51.2759" ry="18"/>
<text text-anchor="middle" x="614.5478" y="-544.7574" font-family="sans-serif" font-size="14.00" fill="#000000">Chemicals</text>
</a>
</g>
</g>
<!-- C_chemicals&#45;&gt;I_port -->
<g id="edge4" class="edge">
<title>C_chemicals&#45;&gt;I_port</title>
<g id="a_edge4"><a xlink:title="Chemicals &#45;&gt; Port">
<path fill="none" stroke="#000000" d="M660.0531,-557.4135C733.5479,-568.4645 879.9375,-579.413 977.0813,-513.9574 1006.2463,-494.306 1021.9371,-455.5117 1029.644,-428.9113"/>
<polygon fill="#000000" stroke="#000000" points="1033.0825,-429.6023 1032.3039,-419.0362 1026.3234,-427.7817 1033.0825,-429.6023"/>
</a>
</g>
</g>
<!-- I_copper_refinery -->
<g id="copper_refinery" class="node">
<title>I_copper_refinery</title>
<g id="a_copper_refinery"><a xlink:href="industries.html#copper_refinery" xlink:title="Copper Smelter" target="_top">
<polygon fill="none" stroke="#000000" points="845.8583,-506.9574 723.8583,-506.9574 723.8583,-470.9574 845.8583,-470.9574 845.8583,-506.9574"/>
<text text-anchor="start" x="735.8378" y="-484.7574" font-family="sans-serif" font-size="14.00" fill="#000000">Copper Smelter</text>
</a>
</g>
</g>
<!-- C_chemicals&#45;&gt;I_copper_refinery -->
<g id="edge3" class="edge">
<title>C_chemicals&#45;&gt;I_copper_refinery</title>
<g id="a_edge3"><a xlink:title="Chemicals &#45;&gt; Copper Smelter">
<path fill="none" stroke="#000000" d="M651.0837,-536.0859C672.3101,-528.6079 699.5976,-518.9946 723.9854,-510.4028"/>
<polygon fill="#000000" stroke="#000000" points="725.2544,-513.6667 733.5232,-507.0427 722.9284,-507.0644 725.2544,-513.6667"/>
</a>
</g>
</g>
<!-- C_copper -->
<g id="copper" class="node">
<title>C_copper</title>
<g id="a_copper"><a xlink:href="cargos.html#copper" xlink:title="Copper" target="_top">
<ellipse fill="none" stroke="#000000" cx="937.9698" cy="-483.9574" rx="39.2233" ry="18"/>
<text text-anchor="middle" x="937.9698" y="-479.7574" font-family="sans-serif" font-size="14.00" fill="#000000">Copper</text>
</a>
</g>
</g>
<!-- I_copper_refinery&#45;&gt;C_copper -->
<g id="edge22" class="edge">
<title>I_copper_refinery&#45;&gt;C_copper</title>
<g id="a_edge22"><a xlink:title="Copper Smelter &#45;&gt; Copper">
<path fill="none" stroke="#000000" d="M846.2524,-486.9525C860.3075,-486.4935 875.0728,-486.0114 888.5495,-485.5713"/>
<polygon fill="#000000" stroke="#000000" points="888.6905,-489.0686 898.5709,-485.244 888.4619,-482.0724 888.6905,-489.0686"/>
</a>
</g>
</g>
<!-- C_coffee -->
<g id="coffee" class="node">
<title>C_coffee</title>
<g id="a_coffee"><a xlink:href="cargos.html#coffee" xlink:title="Coffee" target="_top">
<ellipse fill="none" stroke="#000000" cx="937.9698" cy="-373.9574" rx="36.0136" ry="18"/>
<text text-anchor="middle" x="937.9698" y="-369.7574" font-family="sans-serif" font-size="14.00" fill="#000000">Coffee</text>
</a>
</g>
</g>
<!-- C_coffee&#45;&gt;I_port -->
<g id="edge5" class="edge">
<title>C_coffee&#45;&gt;I_port</title>
<g id="a_edge5"><a xlink:title="Coffee &#45;&gt; Port">
<path fill="none" stroke="#000000" d="M969.5529,-382.649C978.949,-385.2348 989.3289,-388.0913 999.0395,-390.7636"/>
<polygon fill="#000000" stroke="#000000" points="998.2772,-394.1839 1008.8475,-393.4627 1000.1346,-387.4348 998.2772,-394.1839"/>
</a>
</g>
</g>
<!-- C_copper&#45;&gt;I_port -->
<g id="edge6" class="edge">
<title>C_copper&#45;&gt;I_port</title>
<g id="a_edge6"><a xlink:title="Copper &#45;&gt; Port">
<path fill="none" stroke="#000000" d="M956.8867,-467.9542C970.9224,-456.0802 990.3326,-439.6597 1006.4236,-426.0471"/>
<polygon fill="#000000" stroke="#000000" points="1009.1156,-428.3542 1014.4896,-419.2235 1004.5945,-423.01 1009.1156,-428.3542"/>
</a>
</g>
</g>
<!-- C_copper_ore -->
<g id="copper_ore" class="node">
<title>C_copper_ore</title>
<g id="a_copper_ore"><a xlink:href="cargos.html#copper_ore" xlink:title="Copper Ore" target="_top">
<ellipse fill="none" stroke="#000000" cx="614.5478" cy="-488.9574" rx="56.1216" ry="18"/>
<text text-anchor="middle" x="614.5478" y="-484.7574" font-family="sans-serif" font-size="14.00" fill="#000000">Copper Ore</text>
</a>
</g>
</g>
<!-- C_copper_ore&#45;&gt;I_copper_refinery -->
<g id="edge7" class="edge">
<title>C_copper_ore&#45;&gt;I_copper_refinery</title>
<g id="a_edge7"><a xlink:title="Copper Ore &#45;&gt; Copper Smelter">
<path fill="none" stroke="#000000" d="M671.2588,-488.9574C684.8073,-488.9574 699.4412,-488.9574 713.5535,-488.9574"/>
<polygon fill="#000000" stroke="#000000" points="713.7144,-492.4575 723.7144,-488.9574 713.7144,-485.4575 713.7144,-492.4575"/>
</a>
</g>
</g>
<!-- C_fish -->
<g id="fish" class="node">
<title>C_fish</title>
<g id="a_fish"><a xlink:href="cargos.html#fish" xlink:title="Fish" target="_top">
<ellipse fill="none" stroke="#000000" cx="614.5478" cy="-138.9574" rx="27" ry="18"/>
<text text-anchor="middle" x="614.5478" y="-134.7574" font-family="sans-serif" font-size="14.00" fill="#000000">Fish</text>
</a>
</g>
</g>
<!-- I_fishing_harbour -->
<g id="fishing_harbour" class="node">
<title>I_fishing_harbour</title>
<g id="a_fishing_harbour"><a xlink:href="industries.html#fishing_harbour" xlink:title="Fishing Harbour" target="_top">
<polygon fill="none" stroke="#000000" points="846.3583,-156.9574 723.3583,-156.9574 723.3583,-120.9574 846.3583,-120.9574 846.3583,-156.9574"/>
<text text-anchor="start" x="735.5585" y="-134.7574" font-family="sans-serif" font-size="14.00" fill="#000000">Fishing Harbour</text>
</a>
</g>
</g>
<!-- C_fish&#45;&gt;I_fishing_harbour -->
<g id="edge8" class="edge">
<title>C_fish&#45;&gt;I_fishing_harbour</title>
<g id="a_edge8"><a xlink:title="Fish &#45;&gt; Fishing Harbour">
<path fill="none" stroke="#000000" d="M641.9112,-138.9574C661.1669,-138.9574 687.8874,-138.9574 713.0208,-138.9574"/>
<polygon fill="#000000" stroke="#000000" points="713.2952,-142.4575 723.2952,-138.9574 713.2952,-135.4575 713.2952,-142.4575"/>
</a>
</g>
</g>
<!-- I_fishing_harbour&#45;&gt;C_food -->
<g id="edge24" class="edge">
<title>I_fishing_harbour&#45;&gt;C_food</title>
<g id="a_edge24"><a xlink:title="Fishing Harbour &#45;&gt; Food">
<path fill="none" stroke="#000000" d="M846.6677,-154.0713C854.1901,-157.9551 861.2013,-162.8328 866.8583,-168.9574 902.8553,-207.9297 869.1684,-239.9901 898.8583,-283.9574 901.4609,-287.8115 904.721,-291.3812 908.2422,-294.6136"/>
<polygon fill="#000000" stroke="#000000" points="906.2563,-297.5109 916.2138,-301.1303 910.6868,-292.0913 906.2563,-297.5109"/>
</a>
</g>
</g>
<!-- C_food&#45;&gt;I_port -->
<g id="edge9" class="edge">
<title>C_food&#45;&gt;I_port</title>
<g id="a_edge9"><a xlink:title="Food &#45;&gt; Port">
<path fill="none" stroke="#000000" d="M957.4129,-328.1808C963.8018,-333.0352 970.8577,-338.5947 977.0813,-343.9574 988.7153,-353.9823 1001.0161,-365.6746 1011.3579,-375.8512"/>
<polygon fill="#000000" stroke="#000000" points="1008.9426,-378.3853 1018.5046,-382.948 1013.875,-373.4182 1008.9426,-378.3853"/>
</a>
</g>
</g>
<!-- C_fruits -->
<g id="fruits" class="node">
<title>C_fruits</title>
<g id="a_fruits"><a xlink:href="cargos.html#fruits" xlink:title="Fruit" target="_top">
<ellipse fill="none" stroke="#000000" cx="614.5478" cy="-368.9574" rx="27.589" ry="18"/>
<text text-anchor="middle" x="614.5478" y="-364.7574" font-family="sans-serif" font-size="14.00" fill="#000000">Fruit</text>
</a>
</g>
</g>
<!-- C_fruits&#45;&gt;I_food_processor -->
<g id="edge10" class="edge">
<title>C_fruits&#45;&gt;I_food_processor</title>
<g id="a_edge10"><a xlink:title="Fruit &#45;&gt; Food Processing Plant">
<path fill="none" stroke="#000000" d="M634.4179,-356.1237C662.3253,-338.0989 713.612,-304.9739 748.4636,-282.464"/>
<polygon fill="#000000" stroke="#000000" points="750.4445,-285.3512 756.9458,-276.9855 746.6466,-279.471 750.4445,-285.3512"/>
</a>
</g>
</g>
<!-- C_grain -->
<g id="grain" class="node">
<title>C_grain</title>
<g id="a_grain"><a xlink:href="cargos.html#grain" xlink:title="Grain" target="_top">
<ellipse fill="none" stroke="#000000" cx="614.5478" cy="-198.9574" rx="31.9654" ry="18"/>
<text text-anchor="middle" x="614.5478" y="-194.7574" font-family="sans-serif" font-size="14.00" fill="#000000">Grain</text>
</a>
</g>
</g>
<!-- I_flour_mill -->
<g id="flour_mill" class="node">
<title>I_flour_mill</title>
<g id="a_flour_mill"><a xlink:href="industries.html#flour_mill" xlink:title="Flour Mill" target="_top">
<polygon fill="none" stroke="#000000" points="824.8583,-216.9574 744.8583,-216.9574 744.8583,-180.9574 824.8583,-180.9574 824.8583,-216.9574"/>
<text text-anchor="start" x="756.4687" y="-194.7574" font-family="sans-serif" font-size="14.00" fill="#000000">Flour Mill</text>
</a>
</g>
</g>
<!-- C_grain&#45;&gt;I_flour_mill -->
<g id="edge11" class="edge">
<title>C_grain&#45;&gt;I_flour_mill</title>
<g id="a_edge11"><a xlink:title="Grain &#45;&gt; Flour Mill">
<path fill="none" stroke="#000000" d="M646.5819,-198.9574C671.2975,-198.9574 705.9535,-198.9574 734.387,-198.9574"/>
<polygon fill="#000000" stroke="#000000" points="734.5511,-202.4575 744.551,-198.9574 734.551,-195.4575 734.5511,-202.4575"/>
</a>
</g>
</g>
<!-- I_flour_mill&#45;&gt;C_food -->
<g id="edge25" class="edge">
<title>I_flour_mill&#45;&gt;C_food</title>
<g id="a_edge25"><a xlink:title="Flour Mill &#45;&gt; Food">
<path fill="none" stroke="#000000" d="M824.8913,-207.5522C839.2771,-212.1165 854.8891,-218.9312 866.8583,-228.9574 888.5379,-247.1177 880.174,-262.7277 898.8583,-283.9574 901.9308,-287.4485 905.4613,-290.8092 909.1169,-293.9377"/>
<polygon fill="#000000" stroke="#000000" points="907.1896,-296.8775 917.1902,-300.3759 911.554,-291.4046 907.1896,-296.8775"/>
</a>
</g>
</g>
<!-- C_livestock -->
<g id="livestock" class="node">
<title>C_livestock</title>
<g id="a_livestock"><a xlink:href="cargos.html#livestock" xlink:title="Livestock" target="_top">
<ellipse fill="none" stroke="#000000" cx="614.5478" cy="-78.9574" rx="46.9409" ry="18"/>
<text text-anchor="middle" x="614.5478" y="-74.7574" font-family="sans-serif" font-size="14.00" fill="#000000">Livestock</text>
</a>
</g>
</g>
<!-- I_stockyard -->
<g id="stockyard" class="node">
<title>I_stockyard</title>
<g id="a_stockyard"><a xlink:href="industries.html#stockyard" xlink:title="Stockyard" target="_top">
<polygon fill="none" stroke="#000000" points="827.8583,-96.9574 741.8583,-96.9574 741.8583,-60.9574 827.8583,-60.9574 827.8583,-96.9574"/>
<text text-anchor="start" x="753.7343" y="-74.7574" font-family="sans-serif" font-size="14.00" fill="#000000">Stockyard</text>
</a>
</g>
</g>
<!-- C_livestock&#45;&gt;I_stockyard -->
<g id="edge12" class="edge">
<title>C_livestock&#45;&gt;I_stockyard</title>
<g id="a_edge12"><a xlink:title="Livestock &#45;&gt; Stockyard">
<path fill="none" stroke="#000000" d="M661.5368,-78.9574C683.3092,-78.9574 709.2787,-78.9574 731.7585,-78.9574"/>
<polygon fill="#000000" stroke="#000000" points="731.8139,-82.4575 741.8139,-78.9574 731.8138,-75.4575 731.8139,-82.4575"/>
</a>
</g>
</g>
<!-- I_stockyard&#45;&gt;C_food -->
<g id="edge35" class="edge">
<title>I_stockyard&#45;&gt;C_food</title>
<g id="a_edge35"><a xlink:title="Stockyard &#45;&gt; Food">
<path fill="none" stroke="#000000" d="M828.2118,-85.8897C842.4376,-90.2549 857.0873,-97.3677 866.8583,-108.9574 917.823,-169.4079 857.6205,-216.4956 898.8583,-283.9574 901.2838,-287.9253 904.442,-291.5605 907.9126,-294.8255"/>
<polygon fill="#000000" stroke="#000000" points="905.9037,-297.7054 915.8458,-301.3669 910.357,-292.3046 905.9037,-297.7054"/>
</a>
</g>
</g>
<!-- C_nitrates -->
<g id="nitrates" class="node">
<title>C_nitrates</title>
<g id="a_nitrates"><a xlink:href="cargos.html#nitrates" xlink:title="Nitrates" target="_top">
<ellipse fill="none" stroke="#000000" cx="263.1187" cy="-611.9574" rx="40.6508" ry="18"/>
<text text-anchor="middle" x="263.1187" y="-607.7574" font-family="sans-serif" font-size="14.00" fill="#000000">Nitrates</text>
</a>
</g>
</g>
<!-- I_chemical_plant -->
<g id="chemical_plant" class="node">
<title>I_chemical_plant</title>
<g id="a_chemical_plant"><a xlink:href="industries.html#chemical_plant" xlink:title="Chemical Plant" target="_top">
<polygon fill="none" stroke="#000000" points="503.2374,-569.9574 385.2374,-569.9574 385.2374,-533.9574 503.2374,-533.9574 503.2374,-569.9574"/>
<text text-anchor="start" x="397.1617" y="-547.7574" font-family="sans-serif" font-size="14.00" fill="#000000">Chemical Plant</text>
</a>
</g>
</g>
<!-- C_nitrates&#45;&gt;I_chemical_plant -->
<g id="edge13" class="edge">
<title>C_nitrates&#45;&gt;I_chemical_plant</title>
<g id="a_edge13"><a xlink:title="Nitrates &#45;&gt; Chemical Plant">
<path fill="none" stroke="#000000" d="M295.9179,-601.0919C319.3642,-593.3247 351.6759,-582.6206 380.1567,-573.1857"/>
<polygon fill="#000000" stroke="#000000" points="381.2581,-576.5079 389.6502,-570.0408 379.0568,-569.8631 381.2581,-576.5079"/>
</a>
</g>
</g>
<!-- I_chemical_plant&#45;&gt;C_chemicals -->
<g id="edge18" class="edge">
<title>I_chemical_plant&#45;&gt;C_chemicals</title>
<g id="a_edge18"><a xlink:title="Chemical Plant &#45;&gt; Chemicals">
<path fill="none" stroke="#000000" d="M503.3257,-550.9166C519.3242,-550.6348 536.6813,-550.329 552.8208,-550.0447"/>
<polygon fill="#000000" stroke="#000000" points="553.2877,-553.5371 563.2244,-549.8615 553.1643,-546.5382 553.2877,-553.5371"/>
</a>
</g>
</g>
<!-- C_oil -->
<g id="oil" class="node">
<title>C_oil</title>
<g id="a_oil"><a xlink:href="cargos.html#oil" xlink:title="Oil" target="_top">
<ellipse fill="none" stroke="#000000" cx="263.1187" cy="-491.9574" rx="27" ry="18"/>
<text text-anchor="middle" x="263.1187" y="-487.7574" font-family="sans-serif" font-size="14.00" fill="#000000">Oil</text>
</a>
</g>
</g>
<!-- C_oil&#45;&gt;I_chemical_plant -->
<g id="edge14" class="edge">
<title>C_oil&#45;&gt;I_chemical_plant</title>
<g id="a_edge14"><a xlink:title="Oil &#45;&gt; Chemical Plant">
<path fill="none" stroke="#000000" d="M287.5451,-500.0493C311.1717,-507.8761 348.0032,-520.0775 380.0221,-530.6845"/>
<polygon fill="#000000" stroke="#000000" points="379.1912,-534.0963 389.7845,-533.9186 381.3925,-527.4514 379.1912,-534.0963"/>
</a>
</g>
</g>
<!-- C_wool -->
<g id="wool" class="node">
<title>C_wool</title>
<g id="a_wool"><a xlink:href="cargos.html#wool" xlink:title="Wool" target="_top">
<ellipse fill="none" stroke="#000000" cx="937.9698" cy="-253.9574" rx="30.1996" ry="18"/>
<text text-anchor="middle" x="937.9698" y="-249.7574" font-family="sans-serif" font-size="14.00" fill="#000000">Wool</text>
</a>
</g>
</g>
<!-- C_wool&#45;&gt;I_port -->
<g id="edge15" class="edge">
<title>C_wool&#45;&gt;I_port</title>
<g id="a_edge15"><a xlink:title="Wool &#45;&gt; Port">
<path fill="none" stroke="#000000" d="M958.9694,-267.351C965.3136,-272.0721 971.9499,-277.7624 977.0813,-283.9574 999.529,-311.0578 1016.3905,-348.126 1026.2208,-373.2212"/>
<polygon fill="#000000" stroke="#000000" points="1023.0571,-374.749 1029.8798,-382.8546 1029.6009,-372.2635 1023.0571,-374.749"/>
</a>
</g>
</g>
<!-- I_arable_farm -->
<g id="arable_farm" class="node">
<title>I_arable_farm</title>
<g id="a_arable_farm"><a xlink:href="industries.html#arable_farm" xlink:title="Arable Farm" target="_top">
<polygon fill="none" stroke="#000000" points="505.2374,-247.9574 383.2374,-247.9574 383.2374,-197.9574 505.2374,-197.9574 505.2374,-247.9574"/>
<text text-anchor="start" x="405.7271" y="-228.7574" font-family="sans-serif" font-size="14.00" fill="#000000">Arable Farm</text>
<text text-anchor="start" x="395.2203" y="-208.7574" font-family="sans-serif" font-size="14.00" fill="#000000">[Farm Supplies]</text>
</a>
</g>
</g>
<!-- I_arable_farm&#45;&gt;C_beans -->
<g id="edge16" class="edge">
<title>I_arable_farm&#45;&gt;C_beans</title>
<g id="a_edge16"><a xlink:title="Arable Farm &#45;&gt; Beans">
<path fill="none" stroke="#000000" d="M505.2423,-235.8526C527.2883,-240.5126 551.6885,-245.6703 571.8322,-249.9282"/>
<polygon fill="#000000" stroke="#000000" points="571.1379,-253.3587 581.6456,-252.0026 572.5857,-246.5101 571.1379,-253.3587"/>
</a>
</g>
</g>
<!-- I_arable_farm&#45;&gt;C_grain -->
<g id="edge17" class="edge">
<title>I_arable_farm&#45;&gt;C_grain</title>
<g id="a_edge17"><a xlink:title="Arable Farm &#45;&gt; Grain">
<path fill="none" stroke="#000000" d="M505.2423,-214.3606C527.9415,-211.1619 553.1365,-207.6114 573.6114,-204.7261"/>
<polygon fill="#000000" stroke="#000000" points="574.1363,-208.1868 583.55,-203.3256 573.1594,-201.2553 574.1363,-208.1868"/>
</a>
</g>
</g>
<!-- I_coffee_estate -->
<g id="coffee_estate" class="node">
<title>I_coffee_estate</title>
<g id="a_coffee_estate"><a xlink:href="industries.html#coffee_estate" xlink:title="Coffee Estate" target="_top">
<polygon fill="none" stroke="#000000" points="505.2374,-348.9574 383.2374,-348.9574 383.2374,-298.9574 505.2374,-298.9574 505.2374,-348.9574"/>
<text text-anchor="start" x="401.9468" y="-329.7574" font-family="sans-serif" font-size="14.00" fill="#000000">Coffee Estate</text>
<text text-anchor="start" x="395.2203" y="-309.7574" font-family="sans-serif" font-size="14.00" fill="#000000">[Farm Supplies]</text>
</a>
</g>
</g>
<!-- I_coffee_estate&#45;&gt;C_coffee -->
<g id="edge19" class="edge">
<title>I_coffee_estate&#45;&gt;C_coffee</title>
<g id="a_edge19"><a xlink:title="Coffee Estate &#45;&gt; Coffee">
<path fill="none" stroke="#000000" d="M505.4018,-326.9402C551.0573,-329.4254 614.9412,-333.4491 670.8583,-338.9574 749.4024,-346.6946 840.4619,-359.4395 893.4081,-367.2282"/>
<polygon fill="#000000" stroke="#000000" points="893.0697,-370.7162 903.4742,-368.7169 894.0939,-363.7915 893.0697,-370.7162"/>
</a>
</g>
</g>
<!-- I_coffee_estate&#45;&gt;C_fruits -->
<g id="edge20" class="edge">
<title>I_coffee_estate&#45;&gt;C_fruits</title>
<g id="a_edge20"><a xlink:title="Coffee Estate &#45;&gt; Fruit">
<path fill="none" stroke="#000000" d="M505.2423,-340.0763C529.8497,-346.5782 557.3902,-353.855 578.6706,-359.4778"/>
<polygon fill="#000000" stroke="#000000" points="578.0119,-362.9238 588.5742,-362.0946 579.8001,-356.1561 578.0119,-362.9238"/>
</a>
</g>
</g>
<!-- I_copper_mine -->
<g id="copper_mine" class="node">
<title>I_copper_mine</title>
<g id="a_copper_mine"><a xlink:href="industries.html#copper_mine" xlink:title="Copper Mine" target="_top">
<polygon fill="none" stroke="#000000" points="526.2374,-509.9574 362.2374,-509.9574 362.2374,-459.9574 526.2374,-459.9574 526.2374,-509.9574"/>
<text text-anchor="start" x="404.1617" y="-490.7574" font-family="sans-serif" font-size="14.00" fill="#000000">Copper Mine</text>
<text text-anchor="start" x="374.1895" y="-470.7574" font-family="sans-serif" font-size="14.00" fill="#000000">[Engineering Supplies]</text>
</a>
</g>
</g>
<!-- I_copper_mine&#45;&gt;C_copper_ore -->
<g id="edge21" class="edge">
<title>I_copper_mine&#45;&gt;C_copper_ore</title>
<g id="a_edge21"><a xlink:title="Copper Mine &#45;&gt; Copper Ore">
<path fill="none" stroke="#000000" d="M526.3994,-486.8871C533.6004,-487.0562 540.83,-487.226 547.8818,-487.3917"/>
<polygon fill="#000000" stroke="#000000" points="547.9829,-490.8949 558.0624,-487.6308 548.1474,-483.8968 547.9829,-490.8949"/>
</a>
</g>
</g>
<!-- I_fishing_grounds -->
<g id="fishing_grounds" class="node">
<title>I_fishing_grounds</title>
<g id="a_fishing_grounds"><a xlink:href="industries.html#fishing_grounds" xlink:title="Fishing Grounds" target="_top">
<polygon fill="none" stroke="#000000" points="507.2374,-156.9574 381.2374,-156.9574 381.2374,-120.9574 507.2374,-120.9574 507.2374,-156.9574"/>
<text text-anchor="start" x="392.879" y="-134.7574" font-family="sans-serif" font-size="14.00" fill="#000000">Fishing Grounds</text>
</a>
</g>
</g>
<!-- I_fishing_grounds&#45;&gt;C_fish -->
<g id="edge23" class="edge">
<title>I_fishing_grounds&#45;&gt;C_fish</title>
<g id="a_edge23"><a xlink:title="Fishing Grounds &#45;&gt; Fish">
<path fill="none" stroke="#000000" d="M507.6547,-138.9574C531.0099,-138.9574 556.7032,-138.9574 577.0456,-138.9574"/>
<polygon fill="#000000" stroke="#000000" points="577.155,-142.4575 587.155,-138.9574 577.1549,-135.4575 577.155,-142.4575"/>
</a>
</g>
</g>
<!-- I_general_store -->
<g id="general_store" class="node">
<title>I_general_store</title>
<g id="a_general_store"><a xlink:href="industries.html#general_store" xlink:title="General Store" target="_top">
<polygon fill="none" stroke="#000000" points="137.5,-727.9574 26.5,-727.9574 26.5,-637.9574 137.5,-637.9574 137.5,-727.9574"/>
<text text-anchor="start" x="38.9209" y="-708.7574" font-family="sans-serif" font-size="14.00" fill="#000000">General Store</text>
<text text-anchor="start" x="55.6519" y="-688.7574" font-family="sans-serif" font-size="14.00" fill="#000000">[Alcohol]</text>
<text text-anchor="start" x="62.6553" y="-668.7574" font-family="sans-serif" font-size="14.00" fill="#000000">[Food]</text>
<text text-anchor="start" x="57.9863" y="-648.7574" font-family="sans-serif" font-size="14.00" fill="#000000">[Goods]</text>
</a>
</g>
</g>
<!-- I_hotel -->
<g id="hotel" class="node">
<title>I_hotel</title>
<g id="a_hotel"><a xlink:href="industries.html#hotel" xlink:title="Hotel" target="_top">
<polygon fill="none" stroke="#000000" points="134.5,-861.9574 29.5,-861.9574 29.5,-751.9574 134.5,-751.9574 134.5,-861.9574"/>
<text text-anchor="start" x="66.1587" y="-842.7574" font-family="sans-serif" font-size="14.00" fill="#000000">Hotel</text>
<text text-anchor="start" x="55.6519" y="-822.7574" font-family="sans-serif" font-size="14.00" fill="#000000">[Alcohol]</text>
<text text-anchor="start" x="62.6553" y="-802.7574" font-family="sans-serif" font-size="14.00" fill="#000000">[Food]</text>
<text text-anchor="start" x="41.645" y="-782.7574" font-family="sans-serif" font-size="14.00" fill="#000000">[Passengers]</text>
<text text-anchor="start" x="41.645" y="-762.7574" font-family="sans-serif" font-size="14.00" fill="#000000">[Passengers]</text>
</a>
</g>
</g>
<!-- I_nitrate_mine -->
<g id="nitrate_mine" class="node">
<title>I_nitrate_mine</title>
<g id="a_nitrate_mine"><a xlink:href="industries.html#nitrate_mine" xlink:title="Nitrate Mine" target="_top">
<polygon fill="none" stroke="#000000" points="164,-613.9574 0,-613.9574 0,-563.9574 164,-563.9574 164,-613.9574"/>
<text text-anchor="start" x="44.2656" y="-594.7574" font-family="sans-serif" font-size="14.00" fill="#000000">Nitrate Mine</text>
<text text-anchor="start" x="11.9521" y="-574.7574" font-family="sans-serif" font-size="14.00" fill="#000000">[Engineering Supplies]</text>
</a>
</g>
</g>
<!-- I_nitrate_mine&#45;&gt;C_nitrates -->
<g id="edge27" class="edge">
<title>I_nitrate_mine&#45;&gt;C_nitrates</title>
<g id="a_edge27"><a xlink:title="Nitrate Mine &#45;&gt; Nitrates">
<path fill="none" stroke="#000000" d="M164.0805,-599.3807C180.963,-601.5246 198.2421,-603.7188 213.543,-605.6619"/>
<polygon fill="#000000" stroke="#000000" points="213.4294,-609.1755 223.7907,-606.9632 214.3113,-602.2312 213.4294,-609.1755"/>
</a>
</g>
</g>
<!-- C_farm_supplies_nitrate_mine -->
<g id="farm_supplies" class="node">
<title>C_farm_supplies_nitrate_mine</title>
<g id="a_farm_supplies"><a xlink:href="cargos.html#farm_supplies" xlink:title="Farm Supplies" target="_top">
<ellipse fill="none" stroke="#000000" cx="263.1187" cy="-551.9574" rx="67.2376" ry="18"/>
<text text-anchor="middle" x="263.1187" y="-547.7574" font-family="sans-serif" font-size="14.00" fill="#000000">Farm Supplies</text>
</a>
</g>
</g>
<!-- I_nitrate_mine&#45;&gt;C_farm_supplies_nitrate_mine -->
<g id="edge28" class="edge">
<title>I_nitrate_mine&#45;&gt;C_farm_supplies_nitrate_mine</title>
<g id="a_edge28"><a xlink:title="Nitrate Mine &#45;&gt; Farm Supplies">
<path fill="none" stroke="#000000" d="M164.0805,-572.1895C176.0251,-569.7494 188.1681,-567.2687 199.6687,-564.9194"/>
<polygon fill="#000000" stroke="#000000" points="200.4916,-568.3236 209.5887,-562.8928 199.0905,-561.4653 200.4916,-568.3236"/>
</a>
</g>
</g>
<!-- I_oil_wells -->
<g id="oil_wells" class="node">
<title>I_oil_wells</title>
<g id="a_oil_wells"><a xlink:href="industries.html#oil_wells" xlink:title="Oil Wells" target="_top">
<polygon fill="none" stroke="#000000" points="164,-516.9574 0,-516.9574 0,-466.9574 164,-466.9574 164,-516.9574"/>
<text text-anchor="start" x="54.5127" y="-497.7574" font-family="sans-serif" font-size="14.00" fill="#000000">Oil Wells</text>
<text text-anchor="start" x="11.9521" y="-477.7574" font-family="sans-serif" font-size="14.00" fill="#000000">[Engineering Supplies]</text>
</a>
</g>
</g>
<!-- I_oil_wells&#45;&gt;C_oil -->
<g id="edge29" class="edge">
<title>I_oil_wells&#45;&gt;C_oil</title>
<g id="a_edge29"><a xlink:title="Oil Wells &#45;&gt; Oil">
<path fill="none" stroke="#000000" d="M164.0805,-491.9574C185.6751,-491.9574 207.9184,-491.9574 225.8408,-491.9574"/>
<polygon fill="#000000" stroke="#000000" points="225.8564,-495.4575 235.8564,-491.9574 225.8563,-488.4575 225.8564,-495.4575"/>
</a>
</g>
</g>
<!-- I_ranch -->
<g id="ranch" class="node">
<title>I_ranch</title>
<g id="a_ranch"><a xlink:href="industries.html#ranch" xlink:title="Ranch" target="_top">
<polygon fill="none" stroke="#000000" points="505.2374,-72.9574 383.2374,-72.9574 383.2374,-22.9574 505.2374,-22.9574 505.2374,-72.9574"/>
<text text-anchor="start" x="424.003" y="-53.7574" font-family="sans-serif" font-size="14.00" fill="#000000">Ranch</text>
<text text-anchor="start" x="395.2203" y="-33.7574" font-family="sans-serif" font-size="14.00" fill="#000000">[Farm Supplies]</text>
</a>
</g>
</g>
<!-- I_ranch&#45;&gt;C_livestock -->
<g id="edge33" class="edge">
<title>I_ranch&#45;&gt;C_livestock</title>
<g id="a_edge33"><a xlink:title="Ranch &#45;&gt; Livestock">
<path fill="none" stroke="#000000" d="M505.2423,-59.0616C523.8395,-62.4466 544.112,-66.1366 562.0915,-69.4093"/>
<polygon fill="#000000" stroke="#000000" points="561.6346,-72.8835 572.0997,-71.231 562.8882,-65.9967 561.6346,-72.8835"/>
</a>
</g>
</g>
<!-- I_ranch&#45;&gt;C_wool -->
<g id="edge34" class="edge">
<title>I_ranch&#45;&gt;C_wool</title>
<g id="a_edge34"><a xlink:title="Ranch &#45;&gt; Wool">
<path fill="none" stroke="#000000" d="M505.4365,-27.8903C594.0829,-2.9239 759.3417,27.7401 866.8583,-48.9574 896.2766,-69.9431 921.5403,-174.6109 932.354,-225.7469"/>
<polygon fill="#000000" stroke="#000000" points="928.9805,-226.7162 934.4385,-235.7969 935.8346,-225.2945 928.9805,-226.7162"/>
</a>
</g>
</g>
<!-- I_vineyard -->
<g id="vineyard" class="node">
<title>I_vineyard</title>
<g id="a_vineyard"><a xlink:href="industries.html#vineyard" xlink:title="Vineyard" target="_top">
<polygon fill="none" stroke="#000000" points="505.2374,-430.9574 383.2374,-430.9574 383.2374,-380.9574 505.2374,-380.9574 505.2374,-430.9574"/>
<text text-anchor="start" x="416.733" y="-411.7574" font-family="sans-serif" font-size="14.00" fill="#000000">Vineyard</text>
<text text-anchor="start" x="395.2203" y="-391.7574" font-family="sans-serif" font-size="14.00" fill="#000000">[Farm Supplies]</text>
</a>
</g>
</g>
<!-- I_vineyard&#45;&gt;C_alcohol -->
<g id="edge36" class="edge">
<title>I_vineyard&#45;&gt;C_alcohol</title>
<g id="a_edge36"><a xlink:title="Vineyard &#45;&gt; Alcohol">
<path fill="none" stroke="#000000" d="M505.2423,-414.196C525.5497,-416.9384 547.8547,-419.9507 566.9904,-422.5349"/>
<polygon fill="#000000" stroke="#000000" points="566.5922,-426.0128 576.9707,-423.8827 567.5291,-419.0758 566.5922,-426.0128"/>
</a>
</g>
</g>
<!-- I_vineyard&#45;&gt;C_fruits -->
<g id="edge37" class="edge">
<title>I_vineyard&#45;&gt;C_fruits</title>
<g id="a_edge37"><a xlink:title="Vineyard &#45;&gt; Fruit">
<path fill="none" stroke="#000000" d="M505.2423,-392.7041C529.6856,-387.3937 557.0231,-381.4547 578.2442,-376.8444"/>
<polygon fill="#000000" stroke="#000000" points="579.102,-380.2398 588.131,-374.6965 577.6158,-373.3993 579.102,-380.2398"/>
</a>
</g>
</g>
</g>
</svg>
