<?xml version="1.0" encoding="UTF-8" standalone="no"?>
<?xml-stylesheet href="static/css/cargoflow_styles.css" type="text/css"?>
<!DOCTYPE svg PUBLIC "-//W3C//DTD SVG 1.1//EN"
 "http://www.w3.org/Graphics/SVG/1.1/DTD/svg11.dtd">
<!-- Generated by graphviz version 2.49.3 (20211023.0002)
 -->
<!-- Title: tropic_basic Pages: 1 -->
<svg width="2913pt" height="2529pt"
 viewBox="0.00 0.00 2913.00 2528.50" xmlns="http://www.w3.org/2000/svg" xmlns:xlink="http://www.w3.org/1999/xlink">
<g id="page0,1_graph0" class="graph" transform="scale(1 1) rotate(0) translate(4 2524.5)">
<title>tropic_basic</title>
<g id="a_page0,1_graph0"><a xlink:title="Tropic Basic">
<polygon fill="white" stroke="transparent" points="-4,4 -4,-2524.5 2909,-2524.5 2909,4 -4,4"/>
</a>
</g>
<g id="clust8" class="cluster">
<title>cluster_BASIC_TROPIC_0</title>
<g id="a_clust8"><a xlink:title="Tropic Basic">
<polygon fill="none" stroke="white" points="999,-517.5 999,-683.5 1199,-683.5 1199,-517.5 999,-517.5"/>
</a>
</g>
</g>
<g id="clust6" class="cluster">
<title>cluster_BASIC_TROPIC_2</title>
<g id="a_clust6"><a xlink:title="Tropic Basic">
<polygon fill="none" stroke="white" points="394.5,-1568.5 394.5,-1734.5 517.5,-1734.5 517.5,-1568.5 394.5,-1568.5"/>
</a>
</g>
</g>
<g id="clust5" class="cluster">
<title>cluster_town_industries</title>
<g id="a_clust5"><a xlink:title="Tropic Basic">
<polygon fill="#e0eeee" stroke="#e0eeee" stroke-width="5" points="2563,-1435.5 2563,-2512.5 2897,-2512.5 2897,-1435.5 2563,-1435.5"/>
</a>
</g>
</g>
<g id="clust7" class="cluster">
<title>cluster_BASIC_TROPIC_3</title>
<g id="a_clust7"><a xlink:title="Tropic Basic">
<polygon fill="none" stroke="white" points="1725.5,-823.5 1725.5,-1201.5 1862.5,-1201.5 1862.5,-823.5 1725.5,-823.5"/>
</a>
</g>
</g>
<g id="clust9" class="cluster">
<title>cluster_BASIC_TROPIC_1</title>
<g id="a_clust9"><a xlink:title="Tropic Basic">
<polygon fill="none" stroke="white" points="384.5,-314.5 384.5,-480.5 527.5,-480.5 527.5,-314.5 384.5,-314.5"/>
</a>
</g>
</g>
<!-- I_arable_farm -->
<g id="arable_farm" class="node">
<title>I_arable_farm</title>
<g id="a_arable_farm"><a xlink:href="industries.html#arable_farm" xlink:title="Arable Farm" target="_top">
<polygon fill="white" stroke="transparent" points="8,-1775 8,-2016 310,-2016 310,-1775 8,-1775"/>
<polygon fill="none" stroke="#c1cdcd" points="8,-1848.5 8,-2015.5 310,-2015.5 310,-1848.5 8,-1848.5"/>
<image xlink:href="static/img/industries/arable_farm.png" width="300px" height="165px" preserveAspectRatio="xMinYMin meet" x="9" y="-2014.5"/>
<polygon fill="none" stroke="#c1cdcd" points="8,-1774.5 8,-1848.5 310,-1848.5 310,-1774.5 8,-1774.5"/>
<polygon fill="ghostwhite" stroke="transparent" points="9,-1775.5 9,-1847.5 309,-1847.5 309,-1775.5 9,-1775.5"/>
<text text-anchor="start" x="70.5" y="-1816.9" font-family="sans-serif" font-size="32.00">Arable Farm</text>
<text text-anchor="start" x="51.5" y="-1786.5" font-family="sans-serif" font-size="20.00">Requires Farm Supplies</text>
</a>
</g>
</g>
<!-- C_beans -->
<g id="beans" class="node">
<title>C_beans</title>
<g id="a_beans"><a xlink:href="cargos.html#beans" xlink:title="Beans" target="_top">
<polygon fill="#602c03" stroke="#602c03" points="509.5,-1726 402.5,-1726 402.5,-1683 509.5,-1683 509.5,-1726"/>
<text text-anchor="middle" x="456" y="-1696.4" font-family="sans-serif" font-size="32.00" fill="white">Beans</text>
</a>
</g>
</g>
<!-- I_arable_farm&#45;&gt;C_beans -->
<g id="edge19" class="edge">
<title>I_arable_farm&#45;&gt;C_beans</title>
<g id="a_edge19"><a xlink:title="Arable Farm &#45;&gt; Beans">
<path fill="none" stroke="#602c03" stroke-width="5" d="M318.29,-1793.01C357.52,-1767.61 395.73,-1742.88 421.73,-1726.04"/>
</a>
</g>
</g>
<!-- C_grain -->
<g id="grain" class="node">
<title>C_grain</title>
<g id="a_grain"><a xlink:href="cargos.html#grain" xlink:title="Grain" target="_top">
<polygon fill="#505050" stroke="#505050" points="503.5,-1917 408.5,-1917 408.5,-1874 503.5,-1874 503.5,-1917"/>
<text text-anchor="middle" x="456" y="-1887.4" font-family="sans-serif" font-size="32.00" fill="white">Grain</text>
</a>
</g>
</g>
<!-- I_arable_farm&#45;&gt;C_grain -->
<g id="edge20" class="edge">
<title>I_arable_farm&#45;&gt;C_grain</title>
<g id="a_edge20"><a xlink:title="Arable Farm &#45;&gt; Grain">
<path fill="none" stroke="#505050" stroke-width="5" d="M318.29,-1895.5C351.24,-1895.5 383.45,-1895.5 408.33,-1895.5"/>
</a>
</g>
</g>
<!-- I_coffee_estate -->
<g id="coffee_estate" class="node">
<title>I_coffee_estate</title>
<g id="a_coffee_estate"><a xlink:href="industries.html#coffee_estate" xlink:title="Coffee Estate" target="_top">
<polygon fill="white" stroke="transparent" points="8,-1151 8,-1392 310,-1392 310,-1151 8,-1151"/>
<polygon fill="none" stroke="#c1cdcd" points="8,-1224.5 8,-1391.5 310,-1391.5 310,-1224.5 8,-1224.5"/>
<image xlink:href="static/img/industries/coffee_estate.png" width="300px" height="165px" preserveAspectRatio="xMinYMin meet" x="9" y="-1390.5"/>
<polygon fill="none" stroke="#c1cdcd" points="8,-1150.5 8,-1224.5 310,-1224.5 310,-1150.5 8,-1150.5"/>
<polygon fill="ghostwhite" stroke="transparent" points="9,-1151.5 9,-1223.5 309,-1223.5 309,-1151.5 9,-1151.5"/>
<text text-anchor="start" x="62" y="-1192.9" font-family="sans-serif" font-size="32.00">Coffee Estate</text>
<text text-anchor="start" x="51.5" y="-1162.5" font-family="sans-serif" font-size="20.00">Requires Farm Supplies</text>
</a>
</g>
</g>
<!-- C_fruits -->
<g id="fruits" class="node">
<title>C_fruits</title>
<g id="a_fruits"><a xlink:href="cargos.html#fruits" xlink:title="Fruit" target="_top">
<polygon fill="#004ca8" stroke="#004ca8" points="496.5,-1620 415.5,-1620 415.5,-1577 496.5,-1577 496.5,-1620"/>
<text text-anchor="middle" x="456" y="-1590.4" font-family="sans-serif" font-size="32.00" fill="white">Fruit</text>
</a>
</g>
</g>
<!-- I_coffee_estate&#45;&gt;C_fruits -->
<g id="edge23" class="edge">
<title>I_coffee_estate&#45;&gt;C_fruits</title>
<g id="a_edge23"><a xlink:title="Coffee Estate &#45;&gt; Fruit">
<path fill="none" stroke="#004ca8" stroke-width="5" d="M288.92,-1396.28C298.91,-1406.7 308.71,-1417.19 318,-1427.5 364.36,-1478.92 414.04,-1543.66 438.9,-1576.79"/>
</a>
</g>
</g>
<!-- C_coffee -->
<g id="coffee" class="node">
<title>C_coffee</title>
<g id="a_coffee"><a xlink:href="cargos.html#coffee" xlink:title="Coffee" target="_top">
<polygon fill="#347084" stroke="#347084" points="1849,-1087 1739,-1087 1739,-1044 1849,-1044 1849,-1087"/>
<text text-anchor="middle" x="1794" y="-1057.4" font-family="sans-serif" font-size="32.00" fill="white">Coffee</text>
</a>
</g>
</g>
<!-- I_coffee_estate&#45;&gt;C_coffee -->
<g id="edge22" class="edge">
<title>I_coffee_estate&#45;&gt;C_coffee</title>
<g id="a_edge22"><a xlink:title="Coffee Estate &#45;&gt; Coffee">
<path fill="none" stroke="#347084" stroke-width="5" d="M318.06,-1190.86C338.92,-1181.87 360.26,-1173.46 381,-1166.5 547.52,-1110.64 592.36,-1086.5 768,-1086.5 768,-1086.5 768,-1086.5 1100,-1086.5 1338.03,-1086.5 1621.83,-1073.97 1738.66,-1068.27"/>
</a>
</g>
</g>
<!-- I_nitrate_mine -->
<g id="nitrate_mine" class="node">
<title>I_nitrate_mine</title>
<g id="a_nitrate_mine"><a xlink:href="industries.html#nitrate_mine" xlink:title="Nitrate Mine" target="_top">
<polygon fill="white" stroke="transparent" points="8,-316.5 8,-584.5 310,-584.5 310,-316.5 8,-316.5"/>
<polygon fill="none" stroke="#c1cdcd" points="8,-417.5 8,-584.5 310,-584.5 310,-417.5 8,-417.5"/>
<image xlink:href="static/img/industries/nitrate_mine.png" width="300px" height="165px" preserveAspectRatio="xMinYMin meet" x="9" y="-583.5"/>
<polygon fill="none" stroke="#c1cdcd" points="8,-316.5 8,-417.5 310,-417.5 310,-316.5 8,-316.5"/>
<polygon fill="ghostwhite" stroke="transparent" points="9,-317.5 9,-416.5 309,-416.5 309,-317.5 9,-317.5"/>
<text text-anchor="start" x="72.5" y="-385.9" font-family="sans-serif" font-size="32.00">Nitrate Mine</text>
<text text-anchor="start" x="21.5" y="-355.5" font-family="sans-serif" font-size="20.00">Requires Engineering Supplies</text>
<text text-anchor="start" x="49.5" y="-328.5" font-family="sans-serif" font-size="20.00">Produces Farm Supplies</text>
</a>
</g>
</g>
<!-- C_nitrates -->
<g id="nitrates" class="node">
<title>C_nitrates</title>
<g id="a_nitrates"><a xlink:href="cargos.html#nitrates" xlink:title="Nitrates" target="_top">
<polygon fill="#a85050" stroke="#a85050" points="519.5,-472 392.5,-472 392.5,-429 519.5,-429 519.5,-472"/>
<text text-anchor="middle" x="456" y="-442.4" font-family="sans-serif" font-size="32.00" fill="white">Nitrates</text>
</a>
</g>
</g>
<!-- I_nitrate_mine&#45;&gt;C_nitrates -->
<g id="edge30" class="edge">
<title>I_nitrate_mine&#45;&gt;C_nitrates</title>
<g id="a_edge30"><a xlink:title="Nitrate Mine &#45;&gt; Nitrates">
<path fill="none" stroke="#a85050" stroke-width="5" d="M318.29,-450.5C344.54,-450.5 370.32,-450.5 392.3,-450.5"/>
</a>
</g>
</g>
<!-- I_ranch -->
<g id="ranch" class="node">
<title>I_ranch</title>
<g id="a_ranch"><a xlink:href="industries.html#ranch" xlink:title="Ranch" target="_top">
<polygon fill="white" stroke="transparent" points="8,-839 8,-1080 310,-1080 310,-839 8,-839"/>
<polygon fill="none" stroke="#c1cdcd" points="8,-912.5 8,-1079.5 310,-1079.5 310,-912.5 8,-912.5"/>
<image xlink:href="static/img/industries/ranch.png" width="300px" height="165px" preserveAspectRatio="xMinYMin meet" x="9" y="-1078.5"/>
<polygon fill="none" stroke="#c1cdcd" points="8,-838.5 8,-912.5 310,-912.5 310,-838.5 8,-838.5"/>
<polygon fill="ghostwhite" stroke="transparent" points="9,-839.5 9,-911.5 309,-911.5 309,-839.5 9,-839.5"/>
<text text-anchor="start" x="112.5" y="-880.9" font-family="sans-serif" font-size="32.00">Ranch</text>
<text text-anchor="start" x="51.5" y="-850.5" font-family="sans-serif" font-size="20.00">Requires Farm Supplies</text>
</a>
</g>
</g>
<!-- C_wool -->
<g id="wool" class="node">
<title>C_wool</title>
<g id="a_wool"><a xlink:href="cargos.html#wool" xlink:title="Wool" target="_top">
<polygon fill="#a8926d" stroke="#a8926d" points="1838.5,-981 1749.5,-981 1749.5,-938 1838.5,-938 1838.5,-981"/>
<text text-anchor="middle" x="1794" y="-951.4" font-family="sans-serif" font-size="32.00" fill="white">Wool</text>
</a>
</g>
</g>
<!-- I_ranch&#45;&gt;C_wool -->
<g id="edge34" class="edge">
<title>I_ranch&#45;&gt;C_wool</title>
<g id="a_edge34"><a xlink:title="Ranch &#45;&gt; Wool">
<path fill="none" stroke="#a8926d" stroke-width="5" d="M318.1,-959.5C440.82,-959.5 615.21,-959.5 768,-959.5 768,-959.5 768,-959.5 1100,-959.5 1345.44,-959.5 1639.77,-959.5 1749.22,-959.5"/>
</a>
</g>
</g>
<!-- C_livestock -->
<g id="livestock" class="node">
<title>C_livestock</title>
<g id="a_livestock"><a xlink:href="cargos.html#livestock" xlink:title="Livestock" target="_top">
<polygon fill="#468fa8" stroke="#468fa8" points="531,-1352 381,-1352 381,-1309 531,-1309 531,-1352"/>
<text text-anchor="middle" x="456" y="-1322.4" font-family="sans-serif" font-size="32.00" fill="white">Livestock</text>
</a>
</g>
</g>
<!-- I_ranch&#45;&gt;C_livestock -->
<g id="edge33" class="edge">
<title>I_ranch&#45;&gt;C_livestock</title>
<g id="a_edge33"><a xlink:title="Ranch &#45;&gt; Livestock">
<path fill="none" stroke="#468fa8" stroke-width="5" d="M290.99,-1084.09C300.41,-1094.46 309.52,-1105.01 318,-1115.5 371.27,-1181.43 421.5,-1269.03 443.44,-1308.99"/>
</a>
</g>
</g>
<!-- I_flour_mill -->
<g id="flour_mill" class="node">
<title>I_flour_mill</title>
<g id="a_flour_mill"><a xlink:href="industries.html#flour_mill" xlink:title="Flour Mill" target="_top">
<polygon fill="white" stroke="transparent" points="618,-1882.5 618,-2096.5 920,-2096.5 920,-1882.5 618,-1882.5"/>
<polygon fill="none" stroke="#c1cdcd" points="618,-1929.5 618,-2096.5 920,-2096.5 920,-1929.5 618,-1929.5"/>
<image xlink:href="static/img/industries/flour_mill.png" width="300px" height="165px" preserveAspectRatio="xMinYMin meet" x="619" y="-2095.5"/>
<polygon fill="none" stroke="#c1cdcd" points="618,-1882.5 618,-1929.5 920,-1929.5 920,-1882.5 618,-1882.5"/>
<polygon fill="ghostwhite" stroke="transparent" points="619,-1883.5 619,-1928.5 919,-1928.5 919,-1883.5 619,-1883.5"/>
<text text-anchor="start" x="704" y="-1897.9" font-family="sans-serif" font-size="32.00">Flour Mill</text>
</a>
</g>
</g>
<!-- C_food -->
<g id="food" class="node">
<title>C_food</title>
<g id="a_food"><a xlink:href="cargos.html#food" xlink:title="Food" target="_top">
<polygon fill="#a84800" stroke="#a84800" points="2219.5,-1331 2130.5,-1331 2130.5,-1288 2219.5,-1288 2219.5,-1331"/>
<text text-anchor="middle" x="2175" y="-1301.4" font-family="sans-serif" font-size="32.00" fill="white">Food</text>
</a>
</g>
</g>
<!-- I_flour_mill&#45;&gt;C_food -->
<g id="edge28" class="edge">
<title>I_flour_mill&#45;&gt;C_food</title>
<g id="a_edge28"><a xlink:title="Flour Mill &#45;&gt; Food">
<path fill="none" stroke="#a84800" stroke-width="5" d="M928.43,-1929.88C1160.06,-1840.15 1601.76,-1659.27 1953,-1457.5 1982.84,-1440.36 1987.58,-1431.9 2016,-1412.5 2058.19,-1383.7 2107.63,-1351.75 2139.82,-1331.19"/>
</a>
</g>
</g>
<!-- I_food_processor -->
<g id="food_processor" class="node">
<title>I_food_processor</title>
<g id="a_food_processor"><a xlink:href="industries.html#food_processor" xlink:title="Food Processing Plant" target="_top">
<polygon fill="white" stroke="transparent" points="602,-1597.5 602,-1811.5 936,-1811.5 936,-1597.5 602,-1597.5"/>
<polygon fill="none" stroke="#c1cdcd" points="602,-1644.5 602,-1811.5 936,-1811.5 936,-1644.5 602,-1644.5"/>
<image xlink:href="static/img/industries/food_processor.png" width="332px" height="165px" preserveAspectRatio="xMinYMin meet" x="603" y="-1810.5"/>
<polygon fill="none" stroke="#c1cdcd" points="602,-1597.5 602,-1644.5 936,-1644.5 936,-1597.5 602,-1597.5"/>
<polygon fill="ghostwhite" stroke="transparent" points="603,-1598.5 603,-1643.5 935,-1643.5 935,-1598.5 603,-1598.5"/>
<text text-anchor="start" x="608" y="-1612.9" font-family="sans-serif" font-size="32.00">Food Processing Plant</text>
</a>
</g>
</g>
<!-- I_food_processor&#45;&gt;C_food -->
<g id="edge29" class="edge">
<title>I_food_processor&#45;&gt;C_food</title>
<g id="a_edge29"><a xlink:title="Food Processing Plant &#45;&gt; Food">
<path fill="none" stroke="#a84800" stroke-width="5" d="M912.14,-1593.35C939.78,-1575.78 969.4,-1559.48 999,-1547.5 1397.65,-1386.14 1536.27,-1491.78 1953,-1385.5 2015.71,-1369.51 2086.06,-1343.94 2130.2,-1326.94"/>
</a>
</g>
</g>
<!-- I_stockyard -->
<g id="stockyard" class="node">
<title>I_stockyard</title>
<g id="a_stockyard"><a xlink:href="industries.html#stockyard" xlink:title="Stockyard" target="_top">
<polygon fill="white" stroke="transparent" points="618,-1312.5 618,-1526.5 920,-1526.5 920,-1312.5 618,-1312.5"/>
<polygon fill="none" stroke="#c1cdcd" points="618,-1359.5 618,-1526.5 920,-1526.5 920,-1359.5 618,-1359.5"/>
<image xlink:href="static/img/industries/stockyard.png" width="300px" height="165px" preserveAspectRatio="xMinYMin meet" x="619" y="-1525.5"/>
<polygon fill="none" stroke="#c1cdcd" points="618,-1312.5 618,-1359.5 920,-1359.5 920,-1312.5 618,-1312.5"/>
<polygon fill="ghostwhite" stroke="transparent" points="619,-1313.5 619,-1358.5 919,-1358.5 919,-1313.5 619,-1313.5"/>
<text text-anchor="start" x="697.5" y="-1327.9" font-family="sans-serif" font-size="32.00">Stockyard</text>
</a>
</g>
</g>
<!-- I_stockyard&#45;&gt;C_food -->
<g id="edge35" class="edge">
<title>I_stockyard&#45;&gt;C_food</title>
<g id="a_edge35"><a xlink:title="Stockyard &#45;&gt; Food">
<path fill="none" stroke="#a84800" stroke-width="5" d="M928.33,-1407.1C1246.56,-1382.16 1948.88,-1327.14 2130.46,-1312.91"/>
</a>
</g>
</g>
<!-- C_fish -->
<g id="fish" class="node">
<title>C_fish</title>
<g id="a_fish"><a xlink:href="cargos.html#fish" xlink:title="Fish" target="_top">
<polygon fill="#882034" stroke="#882034" points="2213.5,-1797 2136.5,-1797 2136.5,-1754 2213.5,-1754 2213.5,-1797"/>
<text text-anchor="middle" x="2175" y="-1767.4" font-family="sans-serif" font-size="32.00" fill="white">Fish</text>
</a>
</g>
</g>
<!-- I_fishing_harbour -->
<g id="fishing_harbour" class="node">
<title>I_fishing_harbour</title>
<g id="a_fishing_harbour"><a xlink:href="industries.html#fishing_harbour" xlink:title="Fishing Harbour" target="_top">
<polygon fill="white" stroke="transparent" points="2024,-1447.5 2024,-1661.5 2326,-1661.5 2326,-1447.5 2024,-1447.5"/>
<polygon fill="none" stroke="#c1cdcd" points="2024,-1494.5 2024,-1661.5 2326,-1661.5 2326,-1494.5 2024,-1494.5"/>
<image xlink:href="static/img/industries/fishing_harbour.png" width="300px" height="165px" preserveAspectRatio="xMinYMin meet" x="2025" y="-1660.5"/>
<polygon fill="none" stroke="#c1cdcd" points="2024,-1447.5 2024,-1494.5 2326,-1494.5 2326,-1447.5 2024,-1447.5"/>
<polygon fill="ghostwhite" stroke="transparent" points="2025,-1448.5 2025,-1493.5 2325,-1493.5 2325,-1448.5 2025,-1448.5"/>
<text text-anchor="start" x="2061" y="-1462.9" font-family="sans-serif" font-size="32.00">Fishing Harbour</text>
</a>
</g>
</g>
<!-- C_fish&#45;&gt;I_fishing_harbour -->
<g id="edge9" class="edge">
<title>C_fish&#45;&gt;I_fishing_harbour</title>
<g id="a_edge9"><a xlink:title="Fish &#45;&gt; Fishing Harbour">
<path fill="none" stroke="#882034" stroke-width="5" d="M2175,-1753.66C2175,-1731.14 2175,-1708.62 2175,-1686.1"/>
<polygon fill="#882034" stroke="#882034" stroke-width="5" points="2183.75,-1685.86 2175,-1665.86 2166.25,-1685.86 2183.75,-1685.86"/>
</a>
</g>
</g>
<!-- I_port -->
<g id="port" class="node">
<title>I_port</title>
<g id="a_port"><a xlink:href="industries.html#port" xlink:title="Port" target="_top">
<polygon fill="white" stroke="transparent" points="2024,-825.5 2024,-1093.5 2326,-1093.5 2326,-825.5 2024,-825.5"/>
<polygon fill="none" stroke="#c1cdcd" points="2024,-926.5 2024,-1093.5 2326,-1093.5 2326,-926.5 2024,-926.5"/>
<image xlink:href="static/img/industries/port.png" width="300px" height="165px" preserveAspectRatio="xMinYMin meet" x="2025" y="-1092.5"/>
<polygon fill="none" stroke="#c1cdcd" points="2024,-825.5 2024,-926.5 2326,-926.5 2326,-825.5 2024,-825.5"/>
<polygon fill="ghostwhite" stroke="transparent" points="2025,-826.5 2025,-925.5 2325,-925.5 2325,-826.5 2025,-826.5"/>
<text text-anchor="start" x="2145.5" y="-894.9" font-family="sans-serif" font-size="32.00">Port</text>
<text text-anchor="start" x="2035" y="-864.5" font-family="sans-serif" font-size="20.00">Produces Engineering Supplies</text>
<text text-anchor="start" x="2065.5" y="-837.5" font-family="sans-serif" font-size="20.00">Produces Farm Supplies</text>
</a>
</g>
</g>
<!-- C_food&#45;&gt;I_port -->
<g id="edge10" class="edge">
<title>C_food&#45;&gt;I_port</title>
<g id="a_edge10"><a xlink:title="Food &#45;&gt; Port">
<path fill="none" stroke="#a84800" stroke-width="5" d="M2175,-1287.98C2175,-1231.21 2175,-1174.44 2175,-1117.67"/>
<polygon fill="#a84800" stroke="#a84800" stroke-width="5" points="2183.75,-1117.59 2175,-1097.59 2166.25,-1117.59 2183.75,-1117.59"/>
</a>
</g>
</g>
<!-- T_towns_food -->
<g id="node13" class="node">
<title>T_towns_food</title>
<polygon fill="none" stroke="#a84800" stroke-width="5" stroke-dasharray="5,2" points="2799.5,-1380 2660.5,-1380 2660.5,-1297 2799.5,-1297 2799.5,-1380"/>
<text text-anchor="middle" x="2730" y="-1330.4" font-family="sans-serif" font-size="32.00" fill="#a84800">Towns</text>
</g>
<!-- C_food&#45;&gt;T_towns_food -->
<g id="edge11" class="edge">
<title>C_food&#45;&gt;T_towns_food</title>
<path fill="none" stroke="#a84800" stroke-width="5" stroke-dasharray="5,2" d="M2219.86,-1311.8C2310.44,-1316.55 2519.77,-1327.53 2639.91,-1333.83"/>
<polygon fill="#a84800" stroke="#a84800" stroke-width="5" points="2639.75,-1342.58 2660.19,-1334.89 2640.67,-1325.11 2639.75,-1342.58"/>
</g>
<!-- I_fishing_harbour&#45;&gt;C_food -->
<g id="edge27" class="edge">
<title>I_fishing_harbour&#45;&gt;C_food</title>
<g id="a_edge27"><a xlink:title="Fishing Harbour &#45;&gt; Food">
<path fill="none" stroke="#a84800" stroke-width="5" d="M2175,-1443.2C2175,-1405.81 2175,-1368.42 2175,-1331.03"/>
</a>
</g>
</g>
<!-- C_goods -->
<g id="goods" class="node">
<title>C_goods</title>
<g id="a_goods"><a xlink:href="cargos.html#goods" xlink:title="Goods" target="_top">
<polygon fill="#a84b60" stroke="#a84b60" points="2508,-981 2397,-981 2397,-938 2508,-938 2508,-981"/>
<text text-anchor="middle" x="2452.5" y="-951.4" font-family="sans-serif" font-size="32.00" fill="white">Goods</text>
</a>
</g>
</g>
<!-- I_port&#45;&gt;C_goods -->
<g id="edge32" class="edge">
<title>I_port&#45;&gt;C_goods</title>
<g id="a_edge32"><a xlink:title="Port &#45;&gt; Goods">
<path fill="none" stroke="#a84b60" stroke-width="5" d="M2334.26,-959.5C2356.69,-959.5 2378.37,-959.5 2396.86,-959.5"/>
</a>
</g>
</g>
<!-- T_towns_alcohol -->
<g id="node12" class="node">
<title>T_towns_alcohol</title>
<polygon fill="none" stroke="#a80000" stroke-width="5" stroke-dasharray="5,2" points="2799.5,-1234 2660.5,-1234 2660.5,-1151 2799.5,-1151 2799.5,-1234"/>
<text text-anchor="middle" x="2730" y="-1184.4" font-family="sans-serif" font-size="32.00" fill="#a80000">Towns</text>
</g>
<!-- T_towns_goods -->
<g id="node14" class="node">
<title>T_towns_goods</title>
<polygon fill="none" stroke="#a84b60" stroke-width="5" stroke-dasharray="5,2" points="2799.5,-1001 2660.5,-1001 2660.5,-918 2799.5,-918 2799.5,-1001"/>
<text text-anchor="middle" x="2730" y="-951.4" font-family="sans-serif" font-size="32.00" fill="#a84b60">Towns</text>
</g>
<!-- T_town_industries -->
<g id="node15" class="node">
<title>T_town_industries</title>
<text text-anchor="middle" x="2730" y="-2474.4" font-family="sans-serif" font-size="32.00">Town Industries</text>
</g>
<!-- I_general_store -->
<g id="general_store" class="node">
<title>I_general_store</title>
<g id="a_general_store"><a xlink:href="industries.html#general_store" xlink:title="General Store" target="_top">
<polygon fill="white" stroke="transparent" points="2579,-2099 2579,-2394 2881,-2394 2881,-2099 2579,-2099"/>
<polygon fill="none" stroke="#c1cdcd" points="2579,-2226.5 2579,-2393.5 2881,-2393.5 2881,-2226.5 2579,-2226.5"/>
<image xlink:href="static/img/industries/general_store.png" width="300px" height="165px" preserveAspectRatio="xMinYMin meet" x="2580" y="-2392.5"/>
<polygon fill="none" stroke="#c1cdcd" points="2579,-2098.5 2579,-2226.5 2881,-2226.5 2881,-2098.5 2579,-2098.5"/>
<polygon fill="ghostwhite" stroke="transparent" points="2580,-2099.5 2580,-2225.5 2880,-2225.5 2880,-2099.5 2580,-2099.5"/>
<text text-anchor="start" x="2630" y="-2194.9" font-family="sans-serif" font-size="32.00">General Store</text>
<text text-anchor="start" x="2654.5" y="-2164.5" font-family="sans-serif" font-size="20.00">Requires Alcohol</text>
<text text-anchor="start" x="2664" y="-2137.5" font-family="sans-serif" font-size="20.00">Requires Food</text>
<text text-anchor="start" x="2657.5" y="-2110.5" font-family="sans-serif" font-size="20.00">Requires Goods</text>
</a>
</g>
</g>
<!-- I_hotel -->
<g id="hotel" class="node">
<title>I_hotel</title>
<g id="a_hotel"><a xlink:href="industries.html#hotel" xlink:title="Hotel" target="_top">
<polygon fill="white" stroke="transparent" points="2579,-1733 2579,-2028 2881,-2028 2881,-1733 2579,-1733"/>
<polygon fill="none" stroke="#c1cdcd" points="2579,-1860.5 2579,-2027.5 2881,-2027.5 2881,-1860.5 2579,-1860.5"/>
<image xlink:href="static/img/industries/hotel.png" width="300px" height="165px" preserveAspectRatio="xMinYMin meet" x="2580" y="-2026.5"/>
<polygon fill="none" stroke="#c1cdcd" points="2579,-1732.5 2579,-1860.5 2881,-1860.5 2881,-1732.5 2579,-1732.5"/>
<polygon fill="ghostwhite" stroke="transparent" points="2580,-1733.5 2580,-1859.5 2880,-1859.5 2880,-1733.5 2580,-1733.5"/>
<text text-anchor="start" x="2692.5" y="-1828.9" font-family="sans-serif" font-size="32.00">Hotel</text>
<text text-anchor="start" x="2654.5" y="-1798.5" font-family="sans-serif" font-size="20.00">Requires Alcohol</text>
<text text-anchor="start" x="2664" y="-1771.5" font-family="sans-serif" font-size="20.00">Requires Food</text>
<text text-anchor="start" x="2634" y="-1744.5" font-family="sans-serif" font-size="20.00">Requires Passengers</text>
</a>
</g>
</g>
<!-- I_plaza -->
<g id="plaza" class="node">
<title>I_plaza</title>
<g id="a_plaza"><a xlink:href="industries.html#plaza" xlink:title="Plaza" target="_top">
<polygon fill="white" stroke="transparent" points="2579,-1447.5 2579,-1661.5 2881,-1661.5 2881,-1447.5 2579,-1447.5"/>
<polygon fill="none" stroke="#c1cdcd" points="2579,-1494.5 2579,-1661.5 2881,-1661.5 2881,-1494.5 2579,-1494.5"/>
<image xlink:href="static/img/industries/plaza.png" width="300px" height="165px" preserveAspectRatio="xMinYMin meet" x="2580" y="-1660.5"/>
<polygon fill="none" stroke="#c1cdcd" points="2579,-1447.5 2579,-1494.5 2881,-1494.5 2881,-1447.5 2579,-1447.5"/>
<polygon fill="ghostwhite" stroke="transparent" points="2580,-1448.5 2580,-1493.5 2880,-1493.5 2880,-1448.5 2580,-1448.5"/>
<text text-anchor="start" x="2689.5" y="-1462.9" font-family="sans-serif" font-size="32.00">Plaza</text>
</a>
</g>
</g>
<!-- C_beans&#45;&gt;I_food_processor -->
<g id="edge3" class="edge">
<title>C_beans&#45;&gt;I_food_processor</title>
<g id="a_edge3"><a xlink:title="Beans &#45;&gt; Food Processing Plant">
<path fill="none" stroke="#602c03" stroke-width="5" d="M509.76,-1704.5C528.28,-1704.5 550.32,-1704.5 573.61,-1704.5"/>
<polygon fill="#602c03" stroke="#602c03" stroke-width="5" points="573.87,-1713.25 593.87,-1704.5 573.87,-1695.75 573.87,-1713.25"/>
</a>
</g>
</g>
<!-- C_fruits&#45;&gt;I_food_processor -->
<g id="edge12" class="edge">
<title>C_fruits&#45;&gt;I_food_processor</title>
<g id="a_edge12"><a xlink:title="Fruit &#45;&gt; Food Processing Plant">
<path fill="none" stroke="#004ca8" stroke-width="5" d="M496.7,-1612.03C517.76,-1619.21 545.35,-1628.61 574.86,-1638.67"/>
<polygon fill="#004ca8" stroke="#004ca8" stroke-width="5" points="572.21,-1647.01 593.96,-1645.18 577.86,-1630.45 572.21,-1647.01"/>
</a>
</g>
</g>
<!-- C_alcohol -->
<g id="alcohol" class="node">
<title>C_alcohol</title>
<g id="a_alcohol"><a xlink:href="cargos.html#alcohol" xlink:title="Alcohol" target="_top">
<polygon fill="#a80000" stroke="#a80000" points="1854.5,-1193 1733.5,-1193 1733.5,-1150 1854.5,-1150 1854.5,-1193"/>
<text text-anchor="middle" x="1794" y="-1163.4" font-family="sans-serif" font-size="32.00" fill="white">Alcohol</text>
</a>
</g>
</g>
<!-- C_alcohol&#45;&gt;I_port -->
<g id="edge1" class="edge">
<title>C_alcohol&#45;&gt;I_port</title>
<g id="a_edge1"><a xlink:title="Alcohol &#45;&gt; Port">
<path fill="none" stroke="#a80000" stroke-width="5" d="M1854.86,-1156.04C1885.15,-1147.08 1921.97,-1134.4 1953,-1118.5 1968.28,-1110.67 1983.67,-1101.86 1998.84,-1092.5"/>
<polygon fill="#a80000" stroke="#a80000" stroke-width="5" points="2003.64,-1099.82 2015.85,-1081.73 1994.27,-1085.04 2003.64,-1099.82"/>
</a>
</g>
</g>
<!-- C_alcohol&#45;&gt;T_towns_alcohol -->
<g id="edge2" class="edge">
<title>C_alcohol&#45;&gt;T_towns_alcohol</title>
<path fill="none" stroke="#a80000" stroke-width="5" stroke-dasharray="5,2" d="M1854.85,-1172.85C2014.54,-1176.44 2451.41,-1186.26 2640.18,-1190.5"/>
<polygon fill="#a80000" stroke="#a80000" stroke-width="5" points="2640.14,-1199.25 2660.33,-1190.96 2640.53,-1181.76 2640.14,-1199.25"/>
</g>
<!-- C_coffee&#45;&gt;I_port -->
<g id="edge6" class="edge">
<title>C_coffee&#45;&gt;I_port</title>
<g id="a_edge6"><a xlink:title="Coffee &#45;&gt; Port">
<path fill="none" stroke="#347084" stroke-width="5" d="M1849.3,-1050.31C1888.13,-1039.45 1942.76,-1024.17 1996.15,-1009.24"/>
<polygon fill="#347084" stroke="#347084" stroke-width="5" points="1998.83,-1017.58 2015.74,-1003.76 1994.12,-1000.72 1998.83,-1017.58"/>
</a>
</g>
</g>
<!-- C_copper -->
<g id="copper" class="node">
<title>C_copper</title>
<g id="a_copper"><a xlink:href="cargos.html#copper" xlink:title="Copper" target="_top">
<polygon fill="#a89a28" stroke="#a89a28" points="1854.5,-875 1733.5,-875 1733.5,-832 1854.5,-832 1854.5,-875"/>
<text text-anchor="middle" x="1794" y="-845.4" font-family="sans-serif" font-size="32.00" fill="white">Copper</text>
</a>
</g>
</g>
<!-- C_copper&#45;&gt;I_port -->
<g id="edge7" class="edge">
<title>C_copper&#45;&gt;I_port</title>
<g id="a_edge7"><a xlink:title="Copper &#45;&gt; Port">
<path fill="none" stroke="#a89a28" stroke-width="5" d="M1854.64,-870.18C1893.08,-880.93 1945.27,-895.53 1996.32,-909.8"/>
<polygon fill="#a89a28" stroke="#a89a28" stroke-width="5" points="1994.17,-918.29 2015.79,-915.25 1998.89,-901.44 1994.17,-918.29"/>
</a>
</g>
</g>
<!-- C_wool&#45;&gt;I_port -->
<g id="edge18" class="edge">
<title>C_wool&#45;&gt;I_port</title>
<g id="a_edge18"><a xlink:title="Wool &#45;&gt; Port">
<path fill="none" stroke="#a8926d" stroke-width="5" d="M1838.85,-959.5C1877.8,-959.5 1937.43,-959.5 1995.65,-959.5"/>
<polygon fill="#a8926d" stroke="#a8926d" stroke-width="5" points="1995.73,-968.25 2015.73,-959.5 1995.73,-950.75 1995.73,-968.25"/>
</a>
</g>
</g>
<!-- C_chemicals -->
<g id="chemicals" class="node">
<title>C_chemicals</title>
<g id="a_chemicals"><a xlink:href="cargos.html#chemicals" xlink:title="Chemicals" target="_top">
<polygon fill="#a86052" stroke="#a86052" points="1182,-569 1016,-569 1016,-526 1182,-526 1182,-569"/>
<text text-anchor="middle" x="1099" y="-539.4" font-family="sans-serif" font-size="32.00" fill="white">Chemicals</text>
</a>
</g>
</g>
<!-- C_chemicals&#45;&gt;I_port -->
<g id="edge5" class="edge">
<title>C_chemicals&#45;&gt;I_port</title>
<g id="a_edge5"><a xlink:title="Chemicals &#45;&gt; Port">
<path fill="none" stroke="#a86052" stroke-width="5" d="M1182.03,-549.88C1277.68,-554.61 1439.56,-568.66 1572,-610.5 1753.97,-667.98 1789.25,-710.49 1953,-808.5 1967.99,-817.47 1983.35,-827.07 1998.64,-836.91"/>
<polygon fill="#a86052" stroke="#a86052" stroke-width="5" points="1994.31,-844.53 2015.85,-848.1 2003.85,-829.86 1994.31,-844.53"/>
</a>
</g>
</g>
<!-- I_copper_smelter -->
<g id="copper_smelter" class="node">
<title>I_copper_smelter</title>
<g id="a_copper_smelter"><a xlink:href="industries.html#copper_smelter" xlink:title="Copper Smelter" target="_top">
<polygon fill="white" stroke="transparent" points="1262,-646.5 1262,-860.5 1564,-860.5 1564,-646.5 1262,-646.5"/>
<polygon fill="none" stroke="#c1cdcd" points="1262,-693.5 1262,-860.5 1564,-860.5 1564,-693.5 1262,-693.5"/>
<image xlink:href="static/img/industries/copper_smelter.png" width="300px" height="165px" preserveAspectRatio="xMinYMin meet" x="1263" y="-859.5"/>
<polygon fill="none" stroke="#c1cdcd" points="1262,-646.5 1262,-693.5 1564,-693.5 1564,-646.5 1262,-646.5"/>
<polygon fill="ghostwhite" stroke="transparent" points="1263,-647.5 1263,-692.5 1563,-692.5 1563,-647.5 1263,-647.5"/>
<text text-anchor="start" x="1300.5" y="-661.9" font-family="sans-serif" font-size="32.00">Copper Smelter</text>
</a>
</g>
</g>
<!-- C_chemicals&#45;&gt;I_copper_smelter -->
<g id="edge4" class="edge">
<title>C_chemicals&#45;&gt;I_copper_smelter</title>
<g id="a_edge4"><a xlink:title="Chemicals &#45;&gt; Copper Smelter">
<path fill="none" stroke="#a86052" stroke-width="5" d="M1143.58,-569.25C1161.1,-578.4 1181.3,-589.47 1199,-600.5 1214.32,-610.05 1230.01,-620.31 1245.58,-630.83"/>
<polygon fill="#a86052" stroke="#a86052" stroke-width="5" points="1240.96,-638.27 1262.41,-642.34 1250.84,-623.83 1240.96,-638.27"/>
</a>
</g>
</g>
<!-- C_copper_ore -->
<g id="copper_ore" class="node">
<title>C_copper_ore</title>
<g id="a_copper_ore"><a xlink:href="cargos.html#copper_ore" xlink:title="Copper Ore" target="_top">
<polygon fill="#5d45a8" stroke="#5d45a8" points="1191,-675 1007,-675 1007,-632 1191,-632 1191,-675"/>
<text text-anchor="middle" x="1099" y="-645.4" font-family="sans-serif" font-size="32.00" fill="white">Copper Ore</text>
</a>
</g>
</g>
<!-- C_copper_ore&#45;&gt;I_copper_smelter -->
<g id="edge8" class="edge">
<title>C_copper_ore&#45;&gt;I_copper_smelter</title>
<g id="a_edge8"><a xlink:title="Copper Ore &#45;&gt; Copper Smelter">
<path fill="none" stroke="#5d45a8" stroke-width="5" d="M1167.32,-675.08C1187.53,-681.55 1210.72,-688.99 1234.59,-696.64"/>
<polygon fill="#5d45a8" stroke="#5d45a8" stroke-width="5" points="1232.12,-705.03 1253.83,-702.81 1237.46,-688.37 1232.12,-705.03"/>
</a>
</g>
</g>
<!-- I_chemical_plant -->
<g id="chemical_plant" class="node">
<title>I_chemical_plant</title>
<g id="a_chemical_plant"><a xlink:href="industries.html#chemical_plant" xlink:title="Chemical Plant" target="_top">
<polygon fill="white" stroke="transparent" points="618,-290.5 618,-504.5 920,-504.5 920,-290.5 618,-290.5"/>
<polygon fill="none" stroke="#c1cdcd" points="618,-337.5 618,-504.5 920,-504.5 920,-337.5 618,-337.5"/>
<image xlink:href="static/img/industries/chemical_plant.png" width="300px" height="165px" preserveAspectRatio="xMinYMin meet" x="619" y="-503.5"/>
<polygon fill="none" stroke="#c1cdcd" points="618,-290.5 618,-337.5 920,-337.5 920,-290.5 618,-290.5"/>
<polygon fill="ghostwhite" stroke="transparent" points="619,-291.5 619,-336.5 919,-336.5 919,-291.5 619,-291.5"/>
<text text-anchor="start" x="661" y="-305.9" font-family="sans-serif" font-size="32.00">Chemical Plant</text>
</a>
</g>
</g>
<!-- C_nitrates&#45;&gt;I_chemical_plant -->
<g id="edge16" class="edge">
<title>C_nitrates&#45;&gt;I_chemical_plant</title>
<g id="a_edge16"><a xlink:title="Nitrates &#45;&gt; Chemical Plant">
<path fill="none" stroke="#a85050" stroke-width="5" d="M519.56,-439.84C540.45,-436.28 564.87,-432.12 590.09,-427.82"/>
<polygon fill="#a85050" stroke="#a85050" stroke-width="5" points="591.72,-436.42 609.97,-424.43 588.78,-419.17 591.72,-436.42"/>
</a>
</g>
</g>
<!-- C_oil -->
<g id="oil" class="node">
<title>C_oil</title>
<g id="a_oil"><a xlink:href="cargos.html#oil" xlink:title="Oil" target="_top">
<polygon fill="#7d70a8" stroke="#7d70a8" points="484,-366 428,-366 428,-323 484,-323 484,-366"/>
<text text-anchor="middle" x="456" y="-336.4" font-family="sans-serif" font-size="32.00" fill="white">Oil</text>
</a>
</g>
</g>
<!-- C_oil&#45;&gt;I_chemical_plant -->
<g id="edge17" class="edge">
<title>C_oil&#45;&gt;I_chemical_plant</title>
<g id="a_edge17"><a xlink:title="Oil &#45;&gt; Chemical Plant">
<path fill="none" stroke="#7d70a8" stroke-width="5" d="M484.06,-349.11C509,-353.36 548.35,-360.07 589.9,-367.15"/>
<polygon fill="#7d70a8" stroke="#7d70a8" stroke-width="5" points="588.57,-375.8 609.76,-370.53 591.51,-358.55 588.57,-375.8"/>
</a>
</g>
</g>
<!-- I_copper_smelter&#45;&gt;C_copper -->
<g id="edge25" class="edge">
<title>I_copper_smelter&#45;&gt;C_copper</title>
<g id="a_edge25"><a xlink:title="Copper Smelter &#45;&gt; Copper">
<path fill="none" stroke="#a89a28" stroke-width="5" d="M1572.26,-795.26C1629.09,-810.25 1689.78,-826.27 1733.11,-837.7"/>
</a>
</g>
</g>
<!-- C_goods&#45;&gt;T_towns_goods -->
<g id="edge13" class="edge">
<title>C_goods&#45;&gt;T_towns_goods</title>
<path fill="none" stroke="#a84b60" stroke-width="5" stroke-dasharray="5,2" d="M2508.26,-959.5C2545.9,-959.5 2596.73,-959.5 2640.12,-959.5"/>
<polygon fill="#a84b60" stroke="#a84b60" stroke-width="5" points="2640.41,-968.25 2660.41,-959.5 2640.41,-950.75 2640.41,-968.25"/>
</g>
<!-- C_grain&#45;&gt;I_flour_mill -->
<g id="edge14" class="edge">
<title>C_grain&#45;&gt;I_flour_mill</title>
<g id="a_edge14"><a xlink:title="Grain &#45;&gt; Flour Mill">
<path fill="none" stroke="#505050" stroke-width="5" d="M503.56,-1909.57C527.46,-1916.8 558.25,-1926.1 590.33,-1935.8"/>
<polygon fill="#505050" stroke="#505050" stroke-width="5" points="588.2,-1944.3 609.87,-1941.71 593.26,-1927.54 588.2,-1944.3"/>
</a>
</g>
</g>
<!-- C_livestock&#45;&gt;I_stockyard -->
<g id="edge15" class="edge">
<title>C_livestock&#45;&gt;I_stockyard</title>
<g id="a_edge15"><a xlink:title="Livestock &#45;&gt; Stockyard">
<path fill="none" stroke="#468fa8" stroke-width="5" d="M531.1,-1351.7C549.32,-1356.92 569.63,-1362.73 590.47,-1368.7"/>
<polygon fill="#468fa8" stroke="#468fa8" stroke-width="5" points="588.08,-1377.11 609.72,-1374.2 592.9,-1360.29 588.08,-1377.11"/>
</a>
</g>
</g>
<!-- I_chemical_plant&#45;&gt;C_chemicals -->
<g id="edge21" class="edge">
<title>I_chemical_plant&#45;&gt;C_chemicals</title>
<g id="a_edge21"><a xlink:title="Chemical Plant &#45;&gt; Chemicals">
<path fill="none" stroke="#a86052" stroke-width="5" d="M928.24,-469.86C972.96,-490.32 1018.25,-511.03 1050.8,-525.91"/>
</a>
</g>
</g>
<!-- I_copper_mine -->
<g id="copper_mine" class="node">
<title>I_copper_mine</title>
<g id="a_copper_mine"><a xlink:href="industries.html#copper_mine" xlink:title="Copper Mine" target="_top">
<polygon fill="white" stroke="transparent" points="618,-576 618,-817 920,-817 920,-576 618,-576"/>
<polygon fill="none" stroke="#c1cdcd" points="618,-649.5 618,-816.5 920,-816.5 920,-649.5 618,-649.5"/>
<image xlink:href="static/img/industries/copper_mine.png" width="300px" height="165px" preserveAspectRatio="xMinYMin meet" x="619" y="-815.5"/>
<polygon fill="none" stroke="#c1cdcd" points="618,-575.5 618,-649.5 920,-649.5 920,-575.5 618,-575.5"/>
<polygon fill="ghostwhite" stroke="transparent" points="619,-576.5 619,-648.5 919,-648.5 919,-576.5 619,-576.5"/>
<text text-anchor="start" x="677" y="-617.9" font-family="sans-serif" font-size="32.00">Copper Mine</text>
<text text-anchor="start" x="631.5" y="-587.5" font-family="sans-serif" font-size="20.00">Requires Engineering Supplies</text>
</a>
</g>
</g>
<!-- I_copper_mine&#45;&gt;C_copper_ore -->
<g id="edge24" class="edge">
<title>I_copper_mine&#45;&gt;C_copper_ore</title>
<g id="a_edge24"><a xlink:title="Copper Mine &#45;&gt; Copper Ore">
<path fill="none" stroke="#5d45a8" stroke-width="5" d="M928.24,-675.76C955.1,-672.23 982.17,-668.68 1006.57,-665.49"/>
</a>
</g>
</g>
<!-- I_fishing_grounds -->
<g id="fishing_grounds" class="node">
<title>I_fishing_grounds</title>
<g id="a_fishing_grounds"><a xlink:href="industries.html#fishing_grounds" xlink:title="Fishing Grounds" target="_top">
<polygon fill="white" stroke="transparent" points="1643,-1693.5 1643,-1907.5 1945,-1907.5 1945,-1693.5 1643,-1693.5"/>
<polygon fill="none" stroke="#c1cdcd" points="1643,-1740.5 1643,-1907.5 1945,-1907.5 1945,-1740.5 1643,-1740.5"/>
<image xlink:href="static/img/industries/fishing_grounds.png" width="300px" height="165px" preserveAspectRatio="xMinYMin meet" x="1644" y="-1906.5"/>
<polygon fill="none" stroke="#c1cdcd" points="1643,-1693.5 1643,-1740.5 1945,-1740.5 1945,-1693.5 1643,-1693.5"/>
<polygon fill="ghostwhite" stroke="transparent" points="1644,-1694.5 1644,-1739.5 1944,-1739.5 1944,-1694.5 1644,-1694.5"/>
<text text-anchor="start" x="1676.5" y="-1708.9" font-family="sans-serif" font-size="32.00">Fishing Grounds</text>
</a>
</g>
</g>
<!-- I_fishing_grounds&#45;&gt;C_fish -->
<g id="edge26" class="edge">
<title>I_fishing_grounds&#45;&gt;C_fish</title>
<g id="a_edge26"><a xlink:title="Fishing Grounds &#45;&gt; Fish">
<path fill="none" stroke="#882034" stroke-width="5" d="M1953.26,-1790.06C2020.65,-1785.62 2093.46,-1780.81 2136.32,-1777.99"/>
</a>
</g>
</g>
<!-- I_oil_wells -->
<g id="oil_wells" class="node">
<title>I_oil_wells</title>
<g id="a_oil_wells"><a xlink:href="industries.html#oil_wells" xlink:title="Oil Wells" target="_top">
<polygon fill="white" stroke="transparent" points="8,-4 8,-245 310,-245 310,-4 8,-4"/>
<polygon fill="none" stroke="#c1cdcd" points="8,-77.5 8,-244.5 310,-244.5 310,-77.5 8,-77.5"/>
<image xlink:href="static/img/industries/oil_wells.png" width="300px" height="165px" preserveAspectRatio="xMinYMin meet" x="9" y="-243.5"/>
<polygon fill="none" stroke="#c1cdcd" points="8,-3.5 8,-77.5 310,-77.5 310,-3.5 8,-3.5"/>
<polygon fill="ghostwhite" stroke="transparent" points="9,-4.5 9,-76.5 309,-76.5 309,-4.5 9,-4.5"/>
<text text-anchor="start" x="96" y="-45.9" font-family="sans-serif" font-size="32.00">Oil Wells</text>
<text text-anchor="start" x="21.5" y="-15.5" font-family="sans-serif" font-size="20.00">Requires Engineering Supplies</text>
</a>
</g>
</g>
<!-- I_oil_wells&#45;&gt;C_oil -->
<g id="edge31" class="edge">
<title>I_oil_wells&#45;&gt;C_oil</title>
<g id="a_edge31"><a xlink:title="Oil Wells &#45;&gt; Oil">
<path fill="none" stroke="#7d70a8" stroke-width="5" d="M318.29,-242.55C360.8,-274.25 402.11,-305.06 427.99,-324.36"/>
</a>
</g>
</g>
<!-- I_vineyard -->
<g id="vineyard" class="node">
<title>I_vineyard</title>
<g id="a_vineyard"><a xlink:href="industries.html#vineyard" xlink:title="Vineyard" target="_top">
<polygon fill="white" stroke="transparent" points="8,-1463 8,-1704 310,-1704 310,-1463 8,-1463"/>
<polygon fill="none" stroke="#c1cdcd" points="8,-1536.5 8,-1703.5 310,-1703.5 310,-1536.5 8,-1536.5"/>
<image xlink:href="static/img/industries/vineyard.png" width="300px" height="165px" preserveAspectRatio="xMinYMin meet" x="9" y="-1702.5"/>
<polygon fill="none" stroke="#c1cdcd" points="8,-1462.5 8,-1536.5 310,-1536.5 310,-1462.5 8,-1462.5"/>
<polygon fill="ghostwhite" stroke="transparent" points="9,-1463.5 9,-1535.5 309,-1535.5 309,-1463.5 9,-1463.5"/>
<text text-anchor="start" x="96" y="-1504.9" font-family="sans-serif" font-size="32.00">Vineyard</text>
<text text-anchor="start" x="51.5" y="-1474.5" font-family="sans-serif" font-size="20.00">Requires Farm Supplies</text>
</a>
</g>
</g>
<!-- I_vineyard&#45;&gt;C_fruits -->
<g id="edge37" class="edge">
<title>I_vineyard&#45;&gt;C_fruits</title>
<g id="a_edge37"><a xlink:title="Vineyard &#45;&gt; Fruit">
<path fill="none" stroke="#004ca8" stroke-width="5" d="M318.29,-1591.55C354.38,-1593.38 389.6,-1595.17 415.25,-1596.48"/>
</a>
</g>
</g>
<!-- I_vineyard&#45;&gt;C_alcohol -->
<g id="edge36" class="edge">
<title>I_vineyard&#45;&gt;C_alcohol</title>
<g id="a_edge36"><a xlink:title="Vineyard &#45;&gt; Alcohol">
<path fill="none" stroke="#a80000" stroke-width="5" d="M294.58,-1458.59C302.96,-1448.45 310.87,-1438.04 318,-1427.5 358.51,-1367.61 324.26,-1322.32 381,-1277.5 517.81,-1169.44 593.66,-1213.5 768,-1213.5 768,-1213.5 768,-1213.5 1100,-1213.5 1334.74,-1213.5 1613.39,-1189.19 1733.28,-1177.56"/>
</a>
</g>
</g>
</g>
</svg>
