<?xml version="1.0" encoding="UTF-8" standalone="no"?>
<?xml-stylesheet href="static/css/cargoflow_styles.css" type="text/css"?>
<!DOCTYPE svg PUBLIC "-//W3C//DTD SVG 1.1//EN"
 "http://www.w3.org/Graphics/SVG/1.1/DTD/svg11.dtd">
<!-- Generated by graphviz version 2.49.3 (20211023.0002)
 -->
<!-- Title: temperate_basic Pages: 1 -->
<svg width="2206pt" height="2801pt"
 viewBox="0.00 0.00 2206.00 2801.00" xmlns="http://www.w3.org/2000/svg" xmlns:xlink="http://www.w3.org/1999/xlink">
<g id="page0,1_graph0" class="graph" transform="scale(1 1) rotate(0) translate(4 2797)">
<title>temperate_basic</title>
<g id="a_page0,1_graph0"><a xlink:title="Temperate Basic">
<polygon fill="white" stroke="transparent" points="-4,4 -4,-2797 2202,-2797 2202,4 -4,4"/>
</a>
</g>
<g id="clust2" class="cluster">
<title>cluster_town_industries</title>
<g id="a_clust2"><a xlink:title="Temperate Basic">
<polygon fill="#e0eeee" stroke="#e0eeee" stroke-width="5" points="1856,-1708 1856,-2785 2190,-2785 2190,-1708 1856,-1708"/>
</a>
</g>
</g>
<!-- I_port -->
<g id="port" class="node">
<title>I_port</title>
<g id="a_port"><a xlink:href="industries.html#port" xlink:title="Port" target="_top">
<polygon fill="white" stroke="transparent" points="1872,-1234 1872,-1502 2174,-1502 2174,-1234 1872,-1234"/>
<polygon fill="none" stroke="#c1cdcd" points="1872,-1335 1872,-1502 2174,-1502 2174,-1335 1872,-1335"/>
<image xlink:href="static/img/industries/port.png" width="300px" height="165px" preserveAspectRatio="xMinYMin meet" x="1873" y="-1501"/>
<polygon fill="none" stroke="#c1cdcd" points="1872,-1234 1872,-1335 2174,-1335 2174,-1234 1872,-1234"/>
<polygon fill="ghostwhite" stroke="transparent" points="1873,-1235 1873,-1334 2173,-1334 2173,-1235 1873,-1235"/>
<text text-anchor="start" x="1993.5" y="-1303.4" font-family="sans-serif" font-size="32.00">Port</text>
<text text-anchor="start" x="1883" y="-1273" font-family="sans-serif" font-size="20.00">Produces Engineering Supplies</text>
<text text-anchor="start" x="1913.5" y="-1246" font-family="sans-serif" font-size="20.00">Produces Farm Supplies</text>
</a>
</g>
</g>
<!-- C_chemicals -->
<g id="chemicals" class="node">
<title>C_chemicals</title>
<g id="a_chemicals"><a xlink:href="cargos.html#chemicals" xlink:title="Chemicals" target="_top">
<polygon fill="#602c03" stroke="#602c03" points="1184,-1606.5 1018,-1606.5 1018,-1563.5 1184,-1563.5 1184,-1606.5"/>
<text text-anchor="middle" x="1101" y="-1576.9" font-family="sans-serif" font-size="32.00" fill="white">Chemicals</text>
</a>
</g>
</g>
<!-- I_port&#45;&gt;C_chemicals -->
<g id="edge32" class="edge">
<title>I_port&#45;&gt;C_chemicals</title>
<g id="a_edge32"><a xlink:title="Port &#45;&gt; Chemicals">
<path fill="none" stroke="#602c03" stroke-width="5" d="M1863.9,-1406.12C1842.76,-1411.16 1821.36,-1416.23 1801,-1421 1555.06,-1478.68 1492.51,-1488.54 1247,-1548 1226.67,-1552.92 1204.79,-1558.41 1184.35,-1563.62"/>
</a>
</g>
</g>
<!-- T_town_industries -->
<g id="node2" class="node">
<title>T_town_industries</title>
<text text-anchor="middle" x="2023" y="-2746.9" font-family="sans-serif" font-size="32.00">Town Industries</text>
</g>
<!-- I_general_store -->
<g id="general_store" class="node">
<title>I_general_store</title>
<g id="a_general_store"><a xlink:href="industries.html#general_store" xlink:title="General Store" target="_top">
<polygon fill="white" stroke="transparent" points="1872,-2371.5 1872,-2666.5 2174,-2666.5 2174,-2371.5 1872,-2371.5"/>
<polygon fill="none" stroke="#c1cdcd" points="1872,-2499 1872,-2666 2174,-2666 2174,-2499 1872,-2499"/>
<image xlink:href="static/img/industries/general_store.png" width="300px" height="165px" preserveAspectRatio="xMinYMin meet" x="1873" y="-2665"/>
<polygon fill="none" stroke="#c1cdcd" points="1872,-2371 1872,-2499 2174,-2499 2174,-2371 1872,-2371"/>
<polygon fill="ghostwhite" stroke="transparent" points="1873,-2372 1873,-2498 2173,-2498 2173,-2372 1873,-2372"/>
<text text-anchor="start" x="1923" y="-2467.4" font-family="sans-serif" font-size="32.00">General Store</text>
<text text-anchor="start" x="1947.5" y="-2437" font-family="sans-serif" font-size="20.00">Requires Alcohol</text>
<text text-anchor="start" x="1957" y="-2410" font-family="sans-serif" font-size="20.00">Requires Food</text>
<text text-anchor="start" x="1950.5" y="-2383" font-family="sans-serif" font-size="20.00">Requires Goods</text>
</a>
</g>
</g>
<!-- I_hotel -->
<g id="hotel" class="node">
<title>I_hotel</title>
<g id="a_hotel"><a xlink:href="industries.html#hotel" xlink:title="Hotel" target="_top">
<polygon fill="white" stroke="transparent" points="1872,-2005.5 1872,-2300.5 2174,-2300.5 2174,-2005.5 1872,-2005.5"/>
<polygon fill="none" stroke="#c1cdcd" points="1872,-2133 1872,-2300 2174,-2300 2174,-2133 1872,-2133"/>
<image xlink:href="static/img/industries/hotel.png" width="300px" height="165px" preserveAspectRatio="xMinYMin meet" x="1873" y="-2299"/>
<polygon fill="none" stroke="#c1cdcd" points="1872,-2005 1872,-2133 2174,-2133 2174,-2005 1872,-2005"/>
<polygon fill="ghostwhite" stroke="transparent" points="1873,-2006 1873,-2132 2173,-2132 2173,-2006 1873,-2006"/>
<text text-anchor="start" x="1985.5" y="-2101.4" font-family="sans-serif" font-size="32.00">Hotel</text>
<text text-anchor="start" x="1947.5" y="-2071" font-family="sans-serif" font-size="20.00">Requires Alcohol</text>
<text text-anchor="start" x="1957" y="-2044" font-family="sans-serif" font-size="20.00">Requires Food</text>
<text text-anchor="start" x="1927" y="-2017" font-family="sans-serif" font-size="20.00">Requires Passengers</text>
</a>
</g>
</g>
<!-- I_plaza -->
<g id="plaza" class="node">
<title>I_plaza</title>
<g id="a_plaza"><a xlink:href="industries.html#plaza" xlink:title="Plaza" target="_top">
<polygon fill="white" stroke="transparent" points="1872,-1720 1872,-1934 2174,-1934 2174,-1720 1872,-1720"/>
<polygon fill="none" stroke="#c1cdcd" points="1872,-1767 1872,-1934 2174,-1934 2174,-1767 1872,-1767"/>
<image xlink:href="static/img/industries/plaza.png" width="300px" height="165px" preserveAspectRatio="xMinYMin meet" x="1873" y="-1933"/>
<polygon fill="none" stroke="#c1cdcd" points="1872,-1720 1872,-1767 2174,-1767 2174,-1720 1872,-1720"/>
<polygon fill="ghostwhite" stroke="transparent" points="1873,-1721 1873,-1766 2173,-1766 2173,-1721 1873,-1721"/>
<text text-anchor="start" x="1982.5" y="-1735.4" font-family="sans-serif" font-size="32.00">Plaza</text>
</a>
</g>
</g>
<!-- C_alcohol -->
<g id="alcohol" class="node">
<title>C_alcohol</title>
<g id="a_alcohol"><a xlink:href="cargos.html#alcohol" xlink:title="Alcohol" target="_top">
<polygon fill="#a80000" stroke="#a80000" points="1775,-132.5 1654,-132.5 1654,-89.5 1775,-89.5 1775,-132.5"/>
<text text-anchor="middle" x="1714.5" y="-102.9" font-family="sans-serif" font-size="32.00" fill="white">Alcohol</text>
</a>
</g>
</g>
<!-- T_towns_alcohol -->
<g id="node7" class="node">
<title>T_towns_alcohol</title>
<polygon fill="none" stroke="#a80000" stroke-width="5" stroke-dasharray="5,2" points="2092.5,-152.5 1953.5,-152.5 1953.5,-69.5 2092.5,-69.5 2092.5,-152.5"/>
<text text-anchor="middle" x="2023" y="-102.9" font-family="sans-serif" font-size="32.00" fill="#a80000">Towns</text>
</g>
<!-- C_alcohol&#45;&gt;T_towns_alcohol -->
<g id="edge1" class="edge">
<title>C_alcohol&#45;&gt;T_towns_alcohol</title>
<path fill="none" stroke="#a80000" stroke-width="5" stroke-dasharray="5,2" d="M1775.32,-111C1820.19,-111 1882.32,-111 1933.01,-111"/>
<polygon fill="#a80000" stroke="#a80000" stroke-width="5" points="1933.23,-119.75 1953.23,-111 1933.23,-102.25 1933.23,-119.75"/>
</g>
<!-- I_glass_works -->
<g id="glass_works" class="node">
<title>I_glass_works</title>
<g id="a_glass_works"><a xlink:href="industries.html#glass_works" xlink:title="Glass Works" target="_top">
<polygon fill="white" stroke="transparent" points="1255,-1584 1255,-1798 1557,-1798 1557,-1584 1255,-1584"/>
<polygon fill="none" stroke="#c1cdcd" points="1255,-1631 1255,-1798 1557,-1798 1557,-1631 1255,-1631"/>
<image xlink:href="static/img/industries/glass_works.png" width="300px" height="165px" preserveAspectRatio="xMinYMin meet" x="1256" y="-1797"/>
<polygon fill="none" stroke="#c1cdcd" points="1255,-1584 1255,-1631 1557,-1631 1557,-1584 1255,-1584"/>
<polygon fill="ghostwhite" stroke="transparent" points="1256,-1585 1256,-1630 1556,-1630 1556,-1585 1256,-1585"/>
<text text-anchor="start" x="1315.5" y="-1599.4" font-family="sans-serif" font-size="32.00">Glass Works</text>
</a>
</g>
</g>
<!-- C_chemicals&#45;&gt;I_glass_works -->
<g id="edge2" class="edge">
<title>C_chemicals&#45;&gt;I_glass_works</title>
<g id="a_edge2"><a xlink:title="Chemicals &#45;&gt; Glass Works">
<path fill="none" stroke="#602c03" stroke-width="5" d="M1163.68,-1606.58C1182.84,-1613.28 1204.99,-1621.03 1227.95,-1629.06"/>
<polygon fill="#602c03" stroke="#602c03" stroke-width="5" points="1225.17,-1637.36 1246.94,-1635.7 1230.95,-1620.84 1225.17,-1637.36"/>
</a>
</g>
</g>
<!-- I_metal_workshop -->
<g id="metal_workshop" class="node">
<title>I_metal_workshop</title>
<g id="a_metal_workshop"><a xlink:href="industries.html#metal_workshop" xlink:title="Metal Workshop" target="_top">
<polygon fill="white" stroke="transparent" points="1255,-1869 1255,-2083 1557,-2083 1557,-1869 1255,-1869"/>
<polygon fill="none" stroke="#c1cdcd" points="1255,-1916 1255,-2083 1557,-2083 1557,-1916 1255,-1916"/>
<image xlink:href="static/img/industries/metal_workshop.png" width="300px" height="165px" preserveAspectRatio="xMinYMin meet" x="1256" y="-2082"/>
<polygon fill="none" stroke="#c1cdcd" points="1255,-1869 1255,-1916 1557,-1916 1557,-1869 1255,-1869"/>
<polygon fill="ghostwhite" stroke="transparent" points="1256,-1870 1256,-1915 1556,-1915 1556,-1870 1256,-1870"/>
<text text-anchor="start" x="1290.5" y="-1884.4" font-family="sans-serif" font-size="32.00">Metal Workshop</text>
</a>
</g>
</g>
<!-- C_chemicals&#45;&gt;I_metal_workshop -->
<g id="edge3" class="edge">
<title>C_chemicals&#45;&gt;I_metal_workshop</title>
<g id="a_edge3"><a xlink:title="Chemicals &#45;&gt; Metal Workshop">
<path fill="none" stroke="#602c03" stroke-width="5" d="M1147.31,-1606.62C1160.68,-1614.85 1174.31,-1625.35 1184,-1638 1239.67,-1710.62 1197.25,-1757.21 1247,-1834 1250.2,-1838.93 1253.61,-1843.8 1257.19,-1848.6"/>
<polygon fill="#602c03" stroke="#602c03" stroke-width="5" points="1250.67,-1854.45 1270,-1864.59 1264.33,-1843.51 1250.67,-1854.45"/>
</a>
</g>
</g>
<!-- C_goods -->
<g id="goods" class="node">
<title>C_goods</title>
<g id="a_goods"><a xlink:href="cargos.html#goods" xlink:title="Goods" target="_top">
<polygon fill="#a84b60" stroke="#a84b60" points="1770,-1627.5 1659,-1627.5 1659,-1584.5 1770,-1584.5 1770,-1627.5"/>
<text text-anchor="middle" x="1714.5" y="-1597.9" font-family="sans-serif" font-size="32.00" fill="white">Goods</text>
</a>
</g>
</g>
<!-- I_glass_works&#45;&gt;C_goods -->
<g id="edge27" class="edge">
<title>I_glass_works&#45;&gt;C_goods</title>
<g id="a_edge27"><a xlink:title="Glass Works &#45;&gt; Goods">
<path fill="none" stroke="#a84b60" stroke-width="5" d="M1565.19,-1647.13C1598.85,-1637.79 1632.2,-1628.55 1658.72,-1621.19"/>
</a>
</g>
</g>
<!-- I_metal_workshop&#45;&gt;C_goods -->
<g id="edge29" class="edge">
<title>I_metal_workshop&#45;&gt;C_goods</title>
<g id="a_edge29"><a xlink:title="Metal Workshop &#45;&gt; Goods">
<path fill="none" stroke="#a84b60" stroke-width="5" d="M1536.57,-1864.8C1546.52,-1854.7 1556.13,-1844.37 1565,-1834 1624.44,-1764.56 1678.87,-1669.83 1701.9,-1627.72"/>
</a>
</g>
</g>
<!-- C_kaolin -->
<g id="kaolin" class="node">
<title>C_kaolin</title>
<g id="a_kaolin"><a xlink:href="cargos.html#kaolin" xlink:title="China Clay" target="_top">
<polygon fill="#882034" stroke="#882034" points="1801,-1389.5 1628,-1389.5 1628,-1346.5 1801,-1346.5 1801,-1389.5"/>
<text text-anchor="middle" x="1714.5" y="-1359.9" font-family="sans-serif" font-size="32.00" fill="white">China Clay</text>
</a>
</g>
</g>
<!-- C_kaolin&#45;&gt;I_port -->
<g id="edge4" class="edge">
<title>C_kaolin&#45;&gt;I_port</title>
<g id="a_edge4"><a xlink:title="China Clay &#45;&gt; Port">
<path fill="none" stroke="#882034" stroke-width="5" d="M1801.28,-1368C1814.74,-1368 1829.06,-1368 1843.69,-1368"/>
<polygon fill="#882034" stroke="#882034" stroke-width="5" points="1843.79,-1376.75 1863.79,-1368 1843.79,-1359.25 1843.79,-1376.75"/>
</a>
</g>
</g>
<!-- C_coal -->
<g id="coal" class="node">
<title>C_coal</title>
<g id="a_coal"><a xlink:href="cargos.html#coal" xlink:title="Coal" target="_top">
<polygon fill="#a86052" stroke="#a86052" points="515.5,-2110.5 433.5,-2110.5 433.5,-2067.5 515.5,-2067.5 515.5,-2110.5"/>
<text text-anchor="middle" x="474.5" y="-2080.9" font-family="sans-serif" font-size="32.00" fill="white">Coal</text>
</a>
</g>
</g>
<!-- I_integrated_steel_mill -->
<g id="integrated_steel_mill" class="node">
<title>I_integrated_steel_mill</title>
<g id="a_integrated_steel_mill"><a xlink:href="industries.html#integrated_steel_mill" xlink:title="Steel Mill" target="_top">
<polygon fill="white" stroke="transparent" points="642,-1876 642,-2090 944,-2090 944,-1876 642,-1876"/>
<polygon fill="none" stroke="#c1cdcd" points="642,-1923 642,-2090 944,-2090 944,-1923 642,-1923"/>
<image xlink:href="static/img/industries/integrated_steel_mill.png" width="300px" height="165px" preserveAspectRatio="xMinYMin meet" x="643" y="-2089"/>
<polygon fill="none" stroke="#c1cdcd" points="642,-1876 642,-1923 944,-1923 944,-1876 642,-1876"/>
<polygon fill="ghostwhite" stroke="transparent" points="643,-1877 643,-1922 943,-1922 943,-1877 643,-1877"/>
<text text-anchor="start" x="728" y="-1891.4" font-family="sans-serif" font-size="32.00">Steel Mill</text>
</a>
</g>
</g>
<!-- C_coal&#45;&gt;I_integrated_steel_mill -->
<g id="edge5" class="edge">
<title>C_coal&#45;&gt;I_integrated_steel_mill</title>
<g id="a_edge5"><a xlink:title="Coal &#45;&gt; Steel Mill">
<path fill="none" stroke="#a86052" stroke-width="5" d="M515.58,-2075.58C541.63,-2066.85 577.58,-2054.81 614.96,-2042.29"/>
<polygon fill="#a86052" stroke="#a86052" stroke-width="5" points="617.8,-2050.57 633.99,-2035.92 612.24,-2033.98 617.8,-2050.57"/>
</a>
</g>
</g>
<!-- C_steel -->
<g id="steel" class="node">
<title>C_steel</title>
<g id="a_steel"><a xlink:href="cargos.html#steel" xlink:title="Steel" target="_top">
<polygon fill="#7d70a8" stroke="#7d70a8" points="1145.5,-1997.5 1056.5,-1997.5 1056.5,-1954.5 1145.5,-1954.5 1145.5,-1997.5"/>
<text text-anchor="middle" x="1101" y="-1967.9" font-family="sans-serif" font-size="32.00" fill="white">Steel</text>
</a>
</g>
</g>
<!-- I_integrated_steel_mill&#45;&gt;C_steel -->
<g id="edge34" class="edge">
<title>I_integrated_steel_mill&#45;&gt;C_steel</title>
<g id="a_edge34"><a xlink:title="Steel Mill &#45;&gt; Steel">
<path fill="none" stroke="#7d70a8" stroke-width="5" d="M952.38,-1979.38C990.73,-1978.5 1028.63,-1977.63 1056.43,-1977"/>
</a>
</g>
</g>
<!-- C_fish -->
<g id="fish" class="node">
<title>C_fish</title>
<g id="a_fish"><a xlink:href="cargos.html#fish" xlink:title="Fish" target="_top">
<polygon fill="#5d45a8" stroke="#5d45a8" points="1139.5,-987.5 1062.5,-987.5 1062.5,-944.5 1139.5,-944.5 1139.5,-987.5"/>
<text text-anchor="middle" x="1101" y="-957.9" font-family="sans-serif" font-size="32.00" fill="white">Fish</text>
</a>
</g>
</g>
<!-- I_fishing_harbour -->
<g id="fishing_harbour" class="node">
<title>I_fishing_harbour</title>
<g id="a_fishing_harbour"><a xlink:href="industries.html#fishing_harbour" xlink:title="Fishing Harbour" target="_top">
<polygon fill="white" stroke="transparent" points="1255,-859 1255,-1073 1557,-1073 1557,-859 1255,-859"/>
<polygon fill="none" stroke="#c1cdcd" points="1255,-906 1255,-1073 1557,-1073 1557,-906 1255,-906"/>
<image xlink:href="static/img/industries/fishing_harbour.png" width="300px" height="165px" preserveAspectRatio="xMinYMin meet" x="1256" y="-1072"/>
<polygon fill="none" stroke="#c1cdcd" points="1255,-859 1255,-906 1557,-906 1557,-859 1255,-859"/>
<polygon fill="ghostwhite" stroke="transparent" points="1256,-860 1256,-905 1556,-905 1556,-860 1256,-860"/>
<text text-anchor="start" x="1292" y="-874.4" font-family="sans-serif" font-size="32.00">Fishing Harbour</text>
</a>
</g>
</g>
<!-- C_fish&#45;&gt;I_fishing_harbour -->
<g id="edge6" class="edge">
<title>C_fish&#45;&gt;I_fishing_harbour</title>
<g id="a_edge6"><a xlink:title="Fish &#45;&gt; Fishing Harbour">
<path fill="none" stroke="#5d45a8" stroke-width="5" d="M1139.76,-966C1162.73,-966 1193.91,-966 1226.83,-966"/>
<polygon fill="#5d45a8" stroke="#5d45a8" stroke-width="5" points="1226.93,-974.75 1246.93,-966 1226.93,-957.25 1226.93,-974.75"/>
</a>
</g>
</g>
<!-- C_food -->
<g id="food" class="node">
<title>C_food</title>
<g id="a_food"><a xlink:href="cargos.html#food" xlink:title="Food" target="_top">
<polygon fill="#a84800" stroke="#a84800" points="1759,-1066.5 1670,-1066.5 1670,-1023.5 1759,-1023.5 1759,-1066.5"/>
<text text-anchor="middle" x="1714.5" y="-1036.9" font-family="sans-serif" font-size="32.00" fill="white">Food</text>
</a>
</g>
</g>
<!-- I_fishing_harbour&#45;&gt;C_food -->
<g id="edge26" class="edge">
<title>I_fishing_harbour&#45;&gt;C_food</title>
<g id="a_edge26"><a xlink:title="Fishing Harbour &#45;&gt; Food">
<path fill="none" stroke="#a84800" stroke-width="5" d="M1565.19,-1006.77C1603.68,-1016.7 1641.77,-1026.51 1669.7,-1033.71"/>
</a>
</g>
</g>
<!-- C_food&#45;&gt;I_port -->
<g id="edge7" class="edge">
<title>C_food&#45;&gt;I_port</title>
<g id="a_edge7"><a xlink:title="Food &#45;&gt; Port">
<path fill="none" stroke="#a84800" stroke-width="5" d="M1736.09,-1066.69C1765.41,-1097.6 1821.77,-1156.99 1876.76,-1214.94"/>
<polygon fill="#a84800" stroke="#a84800" stroke-width="5" points="1870.57,-1221.13 1890.69,-1229.62 1883.27,-1209.09 1870.57,-1221.13"/>
</a>
</g>
</g>
<!-- T_towns_food -->
<g id="node17" class="node">
<title>T_towns_food</title>
<polygon fill="none" stroke="#a84800" stroke-width="5" stroke-dasharray="5,2" points="2092.5,-1086.5 1953.5,-1086.5 1953.5,-1003.5 2092.5,-1003.5 2092.5,-1086.5"/>
<text text-anchor="middle" x="2023" y="-1036.9" font-family="sans-serif" font-size="32.00" fill="#a84800">Towns</text>
</g>
<!-- C_food&#45;&gt;T_towns_food -->
<g id="edge8" class="edge">
<title>C_food&#45;&gt;T_towns_food</title>
<path fill="none" stroke="#a84800" stroke-width="5" stroke-dasharray="5,2" d="M1759.09,-1045C1804.2,-1045 1875.95,-1045 1933.1,-1045"/>
<polygon fill="#a84800" stroke="#a84800" stroke-width="5" points="1933.42,-1053.75 1953.42,-1045 1933.42,-1036.25 1933.42,-1053.75"/>
</g>
<!-- C_fruits -->
<g id="fruits" class="node">
<title>C_fruits</title>
<g id="a_fruits"><a xlink:href="cargos.html#fruits" xlink:title="Fruit" target="_top">
<polygon fill="#a88000" stroke="#a88000" points="1141.5,-261.5 1060.5,-261.5 1060.5,-218.5 1141.5,-218.5 1141.5,-261.5"/>
<text text-anchor="middle" x="1101" y="-231.9" font-family="sans-serif" font-size="32.00" fill="white">Fruit</text>
</a>
</g>
</g>
<!-- I_cider_mill -->
<g id="cider_mill" class="node">
<title>I_cider_mill</title>
<g id="a_cider_mill"><a xlink:href="industries.html#cider_mill" xlink:title="Cider Mill" target="_top">
<polygon fill="white" stroke="transparent" points="1255,-4 1255,-218 1557,-218 1557,-4 1255,-4"/>
<polygon fill="none" stroke="#c1cdcd" points="1255,-51 1255,-218 1557,-218 1557,-51 1255,-51"/>
<image xlink:href="static/img/industries/cider_mill.png" width="300px" height="165px" preserveAspectRatio="xMinYMin meet" x="1256" y="-217"/>
<polygon fill="none" stroke="#c1cdcd" points="1255,-4 1255,-51 1557,-51 1557,-4 1255,-4"/>
<polygon fill="ghostwhite" stroke="transparent" points="1256,-5 1256,-50 1556,-50 1556,-5 1256,-5"/>
<text text-anchor="start" x="1339" y="-19.4" font-family="sans-serif" font-size="32.00">Cider Mill</text>
</a>
</g>
</g>
<!-- C_fruits&#45;&gt;I_cider_mill -->
<g id="edge9" class="edge">
<title>C_fruits&#45;&gt;I_cider_mill</title>
<g id="a_edge9"><a xlink:title="Fruit &#45;&gt; Cider Mill">
<path fill="none" stroke="#a88000" stroke-width="5" d="M1141.61,-223.14C1164.72,-213.3 1195.67,-200.12 1228.22,-186.26"/>
<polygon fill="#a88000" stroke="#a88000" stroke-width="5" points="1232,-194.16 1246.97,-178.28 1225.14,-178.06 1232,-194.16"/>
</a>
</g>
</g>
<!-- I_cider_mill&#45;&gt;C_alcohol -->
<g id="edge18" class="edge">
<title>I_cider_mill&#45;&gt;C_alcohol</title>
<g id="a_edge18"><a xlink:title="Cider Mill &#45;&gt; Alcohol">
<path fill="none" stroke="#a80000" stroke-width="5" d="M1565.19,-111C1596.81,-111 1628.14,-111 1653.81,-111"/>
</a>
</g>
</g>
<!-- C_goods&#45;&gt;I_port -->
<g id="edge10" class="edge">
<title>C_goods&#45;&gt;I_port</title>
<g id="a_edge10"><a xlink:title="Goods &#45;&gt; Port">
<path fill="none" stroke="#a84b60" stroke-width="5" d="M1743.24,-1584.46C1768.14,-1565.12 1806.97,-1534.97 1847.83,-1503.25"/>
<polygon fill="#a84b60" stroke="#a84b60" stroke-width="5" points="1853.44,-1509.97 1863.87,-1490.79 1842.7,-1496.15 1853.44,-1509.97"/>
</a>
</g>
</g>
<!-- T_towns_goods -->
<g id="node21" class="node">
<title>T_towns_goods</title>
<polygon fill="none" stroke="#a84b60" stroke-width="5" stroke-dasharray="5,2" points="2092.5,-1652.5 1953.5,-1652.5 1953.5,-1569.5 2092.5,-1569.5 2092.5,-1652.5"/>
<text text-anchor="middle" x="2023" y="-1602.9" font-family="sans-serif" font-size="32.00" fill="#a84b60">Towns</text>
</g>
<!-- C_goods&#45;&gt;T_towns_goods -->
<g id="edge11" class="edge">
<title>C_goods&#45;&gt;T_towns_goods</title>
<path fill="none" stroke="#a84b60" stroke-width="5" stroke-dasharray="5,2" d="M1770.3,-1606.89C1815.52,-1607.63 1880.58,-1608.69 1933.22,-1609.55"/>
<polygon fill="#a84b60" stroke="#a84b60" stroke-width="5" points="1933.32,-1618.3 1953.46,-1609.88 1933.6,-1600.81 1933.32,-1618.3"/>
</g>
<!-- C_iron_ore -->
<g id="iron_ore" class="node">
<title>C_iron_ore</title>
<g id="a_iron_ore"><a xlink:href="cargos.html#iron_ore" xlink:title="Iron Ore" target="_top">
<polygon fill="#74581c" stroke="#74581c" points="541.5,-2004.5 407.5,-2004.5 407.5,-1961.5 541.5,-1961.5 541.5,-2004.5"/>
<text text-anchor="middle" x="474.5" y="-1974.9" font-family="sans-serif" font-size="32.00" fill="white">Iron Ore</text>
</a>
</g>
</g>
<!-- C_iron_ore&#45;&gt;I_integrated_steel_mill -->
<g id="edge12" class="edge">
<title>C_iron_ore&#45;&gt;I_integrated_steel_mill</title>
<g id="a_edge12"><a xlink:title="Iron Ore &#45;&gt; Steel Mill">
<path fill="none" stroke="#74581c" stroke-width="5" d="M541.85,-1983C563.27,-1983 588.12,-1983 613.68,-1983"/>
<polygon fill="#74581c" stroke="#74581c" stroke-width="5" points="613.8,-1991.75 633.8,-1983 613.8,-1974.25 613.8,-1991.75"/>
</a>
</g>
</g>
<!-- C_livestock -->
<g id="livestock" class="node">
<title>C_livestock</title>
<g id="a_livestock"><a xlink:href="cargos.html#livestock" xlink:title="Livestock" target="_top">
<polygon fill="#004ca8" stroke="#004ca8" points="1176,-417.5 1026,-417.5 1026,-374.5 1176,-374.5 1176,-417.5"/>
<text text-anchor="middle" x="1101" y="-387.9" font-family="sans-serif" font-size="32.00" fill="white">Livestock</text>
</a>
</g>
</g>
<!-- I_stockyard -->
<g id="stockyard" class="node">
<title>I_stockyard</title>
<g id="a_stockyard"><a xlink:href="industries.html#stockyard" xlink:title="Stockyard" target="_top">
<polygon fill="white" stroke="transparent" points="1255,-289 1255,-503 1557,-503 1557,-289 1255,-289"/>
<polygon fill="none" stroke="#c1cdcd" points="1255,-336 1255,-503 1557,-503 1557,-336 1255,-336"/>
<image xlink:href="static/img/industries/stockyard.png" width="300px" height="165px" preserveAspectRatio="xMinYMin meet" x="1256" y="-502"/>
<polygon fill="none" stroke="#c1cdcd" points="1255,-289 1255,-336 1557,-336 1557,-289 1255,-289"/>
<polygon fill="ghostwhite" stroke="transparent" points="1256,-290 1256,-335 1556,-335 1556,-290 1256,-290"/>
<text text-anchor="start" x="1334.5" y="-304.4" font-family="sans-serif" font-size="32.00">Stockyard</text>
</a>
</g>
</g>
<!-- C_livestock&#45;&gt;I_stockyard -->
<g id="edge13" class="edge">
<title>C_livestock&#45;&gt;I_stockyard</title>
<g id="a_edge13"><a xlink:title="Livestock &#45;&gt; Stockyard">
<path fill="none" stroke="#004ca8" stroke-width="5" d="M1176.12,-396C1191.78,-396 1208.94,-396 1226.61,-396"/>
<polygon fill="#004ca8" stroke="#004ca8" stroke-width="5" points="1226.72,-404.75 1246.72,-396 1226.72,-387.25 1226.72,-404.75"/>
</a>
</g>
</g>
<!-- I_stockyard&#45;&gt;C_food -->
<g id="edge35" class="edge">
<title>I_stockyard&#45;&gt;C_food</title>
<g id="a_edge35"><a xlink:title="Stockyard &#45;&gt; Food">
<path fill="none" stroke="#a84800" stroke-width="5" d="M1542.31,-507.21C1550.63,-517.09 1558.32,-527.39 1565,-538 1670.17,-705.08 1703.47,-949.63 1711.4,-1023.25"/>
</a>
</g>
</g>
<!-- C_milk -->
<g id="milk" class="node">
<title>C_milk</title>
<g id="a_milk"><a xlink:href="cargos.html#milk" xlink:title="Milk" target="_top">
<polygon fill="#505050" stroke="#505050" points="1137.5,-573.5 1064.5,-573.5 1064.5,-530.5 1137.5,-530.5 1137.5,-573.5"/>
<text text-anchor="middle" x="1101" y="-543.9" font-family="sans-serif" font-size="32.00" fill="white">Milk</text>
</a>
</g>
</g>
<!-- I_dairy -->
<g id="dairy" class="node">
<title>I_dairy</title>
<g id="a_dairy"><a xlink:href="industries.html#dairy" xlink:title="Dairy" target="_top">
<polygon fill="white" stroke="transparent" points="1255,-574 1255,-788 1557,-788 1557,-574 1255,-574"/>
<polygon fill="none" stroke="#c1cdcd" points="1255,-621 1255,-788 1557,-788 1557,-621 1255,-621"/>
<image xlink:href="static/img/industries/dairy.png" width="300px" height="165px" preserveAspectRatio="xMinYMin meet" x="1256" y="-787"/>
<polygon fill="none" stroke="#c1cdcd" points="1255,-574 1255,-621 1557,-621 1557,-574 1255,-574"/>
<polygon fill="ghostwhite" stroke="transparent" points="1256,-575 1256,-620 1556,-620 1556,-575 1256,-575"/>
<text text-anchor="start" x="1368.5" y="-589.4" font-family="sans-serif" font-size="32.00">Dairy</text>
</a>
</g>
</g>
<!-- C_milk&#45;&gt;I_dairy -->
<g id="edge14" class="edge">
<title>C_milk&#45;&gt;I_dairy</title>
<g id="a_edge14"><a xlink:title="Milk &#45;&gt; Dairy">
<path fill="none" stroke="#505050" stroke-width="5" d="M1137.65,-567.18C1161.12,-577.17 1193.79,-591.08 1228.26,-605.75"/>
<polygon fill="#505050" stroke="#505050" stroke-width="5" points="1225.14,-613.94 1246.97,-613.72 1232,-597.84 1225.14,-613.94"/>
</a>
</g>
</g>
<!-- I_dairy&#45;&gt;C_food -->
<g id="edge21" class="edge">
<title>I_dairy&#45;&gt;C_food</title>
<g id="a_edge21"><a xlink:title="Dairy &#45;&gt; Food">
<path fill="none" stroke="#a84800" stroke-width="5" d="M1536.43,-792.32C1546.41,-802.39 1556.06,-812.69 1565,-823 1623.46,-890.45 1677.97,-981.99 1701.41,-1023.25"/>
</a>
</g>
</g>
<!-- C_sand -->
<g id="sand" class="node">
<title>C_sand</title>
<g id="a_sand"><a xlink:href="cargos.html#sand" xlink:title="Sand" target="_top">
<polygon fill="#468fa8" stroke="#468fa8" points="1146.5,-1712.5 1055.5,-1712.5 1055.5,-1669.5 1146.5,-1669.5 1146.5,-1712.5"/>
<text text-anchor="middle" x="1101" y="-1682.9" font-family="sans-serif" font-size="32.00" fill="white">Sand</text>
</a>
</g>
</g>
<!-- C_sand&#45;&gt;I_glass_works -->
<g id="edge15" class="edge">
<title>C_sand&#45;&gt;I_glass_works</title>
<g id="a_edge15"><a xlink:title="Sand &#45;&gt; Glass Works">
<path fill="none" stroke="#468fa8" stroke-width="5" d="M1146.71,-1691C1168.82,-1691 1197.1,-1691 1226.79,-1691"/>
<polygon fill="#468fa8" stroke="#468fa8" stroke-width="5" points="1226.99,-1699.75 1246.99,-1691 1226.99,-1682.25 1226.99,-1699.75"/>
</a>
</g>
</g>
<!-- C_scrap_metal -->
<g id="scrap_metal" class="node">
<title>C_scrap_metal</title>
<g id="a_scrap_metal"><a xlink:href="cargos.html#scrap_metal" xlink:title="Scrap Metal" target="_top">
<polygon fill="#a85050" stroke="#a85050" points="568,-1898.5 381,-1898.5 381,-1855.5 568,-1855.5 568,-1898.5"/>
<text text-anchor="middle" x="474.5" y="-1868.9" font-family="sans-serif" font-size="32.00" fill="white">Scrap Metal</text>
</a>
</g>
</g>
<!-- C_scrap_metal&#45;&gt;I_integrated_steel_mill -->
<g id="edge16" class="edge">
<title>C_scrap_metal&#45;&gt;I_integrated_steel_mill</title>
<g id="a_edge16"><a xlink:title="Scrap Metal &#45;&gt; Steel Mill">
<path fill="none" stroke="#a85050" stroke-width="5" d="M539.93,-1898.58C562.07,-1905.99 588.05,-1914.69 614.76,-1923.64"/>
<polygon fill="#a85050" stroke="#a85050" stroke-width="5" points="612.06,-1931.96 633.8,-1930.02 617.62,-1915.37 612.06,-1931.96"/>
</a>
</g>
</g>
<!-- C_steel&#45;&gt;I_metal_workshop -->
<g id="edge17" class="edge">
<title>C_steel&#45;&gt;I_metal_workshop</title>
<g id="a_edge17"><a xlink:title="Steel &#45;&gt; Metal Workshop">
<path fill="none" stroke="#7d70a8" stroke-width="5" d="M1145.74,-1976C1167.88,-1976 1196.39,-1976 1226.37,-1976"/>
<polygon fill="#7d70a8" stroke="#7d70a8" stroke-width="5" points="1226.76,-1984.75 1246.76,-1976 1226.76,-1967.25 1226.76,-1984.75"/>
</a>
</g>
</g>
<!-- I_clay_pit -->
<g id="clay_pit" class="node">
<title>I_clay_pit</title>
<g id="a_clay_pit"><a xlink:href="industries.html#clay_pit" xlink:title="Clay Pit" target="_top">
<polygon fill="white" stroke="transparent" points="1255,-1144.5 1255,-1385.5 1557,-1385.5 1557,-1144.5 1255,-1144.5"/>
<polygon fill="none" stroke="#c1cdcd" points="1255,-1218 1255,-1385 1557,-1385 1557,-1218 1255,-1218"/>
<image xlink:href="static/img/industries/clay_pit.png" width="300px" height="165px" preserveAspectRatio="xMinYMin meet" x="1256" y="-1384"/>
<polygon fill="none" stroke="#c1cdcd" points="1255,-1144 1255,-1218 1557,-1218 1557,-1144 1255,-1144"/>
<polygon fill="ghostwhite" stroke="transparent" points="1256,-1145 1256,-1217 1556,-1217 1556,-1145 1256,-1145"/>
<text text-anchor="start" x="1350.5" y="-1186.4" font-family="sans-serif" font-size="32.00">Clay Pit</text>
<text text-anchor="start" x="1268.5" y="-1156" font-family="sans-serif" font-size="20.00">Requires Engineering Supplies</text>
</a>
</g>
</g>
<!-- I_clay_pit&#45;&gt;C_kaolin -->
<g id="edge19" class="edge">
<title>I_clay_pit&#45;&gt;C_kaolin</title>
<g id="a_edge19"><a xlink:title="Clay Pit &#45;&gt; China Clay">
<path fill="none" stroke="#882034" stroke-width="5" d="M1565.19,-1318.16C1595.05,-1328.19 1624.66,-1338.14 1649.48,-1346.49"/>
</a>
</g>
</g>
<!-- I_coal_mine -->
<g id="coal_mine" class="node">
<title>I_coal_mine</title>
<g id="a_coal_mine"><a xlink:href="industries.html#coal_mine" xlink:title="Coal Mine" target="_top">
<polygon fill="white" stroke="transparent" points="8,-2174.5 8,-2415.5 310,-2415.5 310,-2174.5 8,-2174.5"/>
<polygon fill="none" stroke="#c1cdcd" points="8,-2248 8,-2415 310,-2415 310,-2248 8,-2248"/>
<image xlink:href="static/img/industries/coal_mine.png" width="300px" height="165px" preserveAspectRatio="xMinYMin meet" x="9" y="-2414"/>
<polygon fill="none" stroke="#c1cdcd" points="8,-2174 8,-2248 310,-2248 310,-2174 8,-2174"/>
<polygon fill="ghostwhite" stroke="transparent" points="9,-2175 9,-2247 309,-2247 309,-2175 9,-2175"/>
<text text-anchor="start" x="86.5" y="-2216.4" font-family="sans-serif" font-size="32.00">Coal Mine</text>
<text text-anchor="start" x="21.5" y="-2186" font-family="sans-serif" font-size="20.00">Requires Engineering Supplies</text>
</a>
</g>
</g>
<!-- I_coal_mine&#45;&gt;C_coal -->
<g id="edge20" class="edge">
<title>I_coal_mine&#45;&gt;C_coal</title>
<g id="a_edge20"><a xlink:title="Coal Mine &#45;&gt; Coal">
<path fill="none" stroke="#a86052" stroke-width="5" d="M318.13,-2191.09C364.54,-2160.6 410.79,-2130.2 440.61,-2110.61"/>
</a>
</g>
</g>
<!-- I_dairy_farm -->
<g id="dairy_farm" class="node">
<title>I_dairy_farm</title>
<g id="a_dairy_farm"><a xlink:href="industries.html#dairy_farm" xlink:title="Dairy Farm" target="_top">
<polygon fill="white" stroke="transparent" points="642,-431.5 642,-672.5 944,-672.5 944,-431.5 642,-431.5"/>
<polygon fill="none" stroke="#c1cdcd" points="642,-505 642,-672 944,-672 944,-505 642,-505"/>
<image xlink:href="static/img/industries/dairy_farm.png" width="300px" height="165px" preserveAspectRatio="xMinYMin meet" x="643" y="-671"/>
<polygon fill="none" stroke="#c1cdcd" points="642,-431 642,-505 944,-505 944,-431 642,-431"/>
<polygon fill="ghostwhite" stroke="transparent" points="643,-432 643,-504 943,-504 943,-432 643,-432"/>
<text text-anchor="start" x="713.5" y="-473.4" font-family="sans-serif" font-size="32.00">Dairy Farm</text>
<text text-anchor="start" x="685.5" y="-443" font-family="sans-serif" font-size="20.00">Requires Farm Supplies</text>
</a>
</g>
</g>
<!-- I_dairy_farm&#45;&gt;C_livestock -->
<g id="edge22" class="edge">
<title>I_dairy_farm&#45;&gt;C_livestock</title>
<g id="a_edge22"><a xlink:title="Dairy Farm &#45;&gt; Livestock">
<path fill="none" stroke="#004ca8" stroke-width="5" d="M952.38,-471.26C991.32,-451.41 1029.79,-431.79 1057.69,-417.57"/>
</a>
</g>
</g>
<!-- I_dairy_farm&#45;&gt;C_milk -->
<g id="edge23" class="edge">
<title>I_dairy_farm&#45;&gt;C_milk</title>
<g id="a_edge23"><a xlink:title="Dairy Farm &#45;&gt; Milk">
<path fill="none" stroke="#505050" stroke-width="5" d="M952.38,-552C994.52,-552 1036.12,-552 1064.37,-552"/>
</a>
</g>
</g>
<!-- I_dredging_site -->
<g id="dredging_site" class="node">
<title>I_dredging_site</title>
<g id="a_dredging_site"><a xlink:href="industries.html#dredging_site" xlink:title="Dredging Site" target="_top">
<polygon fill="white" stroke="transparent" points="642,-1563.5 642,-1804.5 944,-1804.5 944,-1563.5 642,-1563.5"/>
<polygon fill="none" stroke="#c1cdcd" points="642,-1637 642,-1804 944,-1804 944,-1637 642,-1637"/>
<image xlink:href="static/img/industries/dredging_site.png" width="300px" height="165px" preserveAspectRatio="xMinYMin meet" x="643" y="-1803"/>
<polygon fill="none" stroke="#c1cdcd" points="642,-1563 642,-1637 944,-1637 944,-1563 642,-1563"/>
<polygon fill="ghostwhite" stroke="transparent" points="643,-1564 643,-1636 943,-1636 943,-1564 643,-1564"/>
<text text-anchor="start" x="696" y="-1605.4" font-family="sans-serif" font-size="32.00">Dredging Site</text>
<text text-anchor="start" x="655.5" y="-1575" font-family="sans-serif" font-size="20.00">Requires Engineering Supplies</text>
</a>
</g>
</g>
<!-- I_dredging_site&#45;&gt;C_sand -->
<g id="edge24" class="edge">
<title>I_dredging_site&#45;&gt;C_sand</title>
<g id="a_edge24"><a xlink:title="Dredging Site &#45;&gt; Sand">
<path fill="none" stroke="#468fa8" stroke-width="5" d="M952.38,-1687.62C990.29,-1688.49 1027.77,-1689.35 1055.47,-1689.98"/>
</a>
</g>
</g>
<!-- I_fishing_grounds -->
<g id="fishing_grounds" class="node">
<title>I_fishing_grounds</title>
<g id="a_fishing_grounds"><a xlink:href="industries.html#fishing_grounds" xlink:title="Fishing Grounds" target="_top">
<polygon fill="white" stroke="transparent" points="642,-859 642,-1073 944,-1073 944,-859 642,-859"/>
<polygon fill="none" stroke="#c1cdcd" points="642,-906 642,-1073 944,-1073 944,-906 642,-906"/>
<image xlink:href="static/img/industries/fishing_grounds.png" width="300px" height="165px" preserveAspectRatio="xMinYMin meet" x="643" y="-1072"/>
<polygon fill="none" stroke="#c1cdcd" points="642,-859 642,-906 944,-906 944,-859 642,-859"/>
<polygon fill="ghostwhite" stroke="transparent" points="643,-860 643,-905 943,-905 943,-860 643,-860"/>
<text text-anchor="start" x="675.5" y="-874.4" font-family="sans-serif" font-size="32.00">Fishing Grounds</text>
</a>
</g>
</g>
<!-- I_fishing_grounds&#45;&gt;C_fish -->
<g id="edge25" class="edge">
<title>I_fishing_grounds&#45;&gt;C_fish</title>
<g id="a_edge25"><a xlink:title="Fishing Grounds &#45;&gt; Fish">
<path fill="none" stroke="#5d45a8" stroke-width="5" d="M952.38,-966C993.5,-966 1034.11,-966 1062.29,-966"/>
</a>
</g>
</g>
<!-- I_iron_ore_mine -->
<g id="iron_ore_mine" class="node">
<title>I_iron_ore_mine</title>
<g id="a_iron_ore_mine"><a xlink:href="industries.html#iron_ore_mine" xlink:title="Iron Ore Mine" target="_top">
<polygon fill="white" stroke="transparent" points="8,-1862.5 8,-2103.5 310,-2103.5 310,-1862.5 8,-1862.5"/>
<polygon fill="none" stroke="#c1cdcd" points="8,-1936 8,-2103 310,-2103 310,-1936 8,-1936"/>
<image xlink:href="static/img/industries/iron_ore_mine.png" width="300px" height="165px" preserveAspectRatio="xMinYMin meet" x="9" y="-2102"/>
<polygon fill="none" stroke="#c1cdcd" points="8,-1862 8,-1936 310,-1936 310,-1862 8,-1862"/>
<polygon fill="ghostwhite" stroke="transparent" points="9,-1863 9,-1935 309,-1935 309,-1863 9,-1863"/>
<text text-anchor="start" x="61" y="-1904.4" font-family="sans-serif" font-size="32.00">Iron Ore Mine</text>
<text text-anchor="start" x="21.5" y="-1874" font-family="sans-serif" font-size="20.00">Requires Engineering Supplies</text>
</a>
</g>
</g>
<!-- I_iron_ore_mine&#45;&gt;C_iron_ore -->
<g id="edge28" class="edge">
<title>I_iron_ore_mine&#45;&gt;C_iron_ore</title>
<g id="a_edge28"><a xlink:title="Iron Ore Mine &#45;&gt; Iron Ore">
<path fill="none" stroke="#74581c" stroke-width="5" d="M318.13,-1983C349.63,-1983 381.05,-1983 407.32,-1983"/>
</a>
</g>
</g>
<!-- I_orchard_piggery -->
<g id="orchard_piggery" class="node">
<title>I_orchard_piggery</title>
<g id="a_orchard_piggery"><a xlink:href="industries.html#orchard_piggery" xlink:title="Orchard and Piggery" target="_top">
<polygon fill="white" stroke="transparent" points="639,-119.5 639,-360.5 947,-360.5 947,-119.5 639,-119.5"/>
<polygon fill="none" stroke="#c1cdcd" points="639,-193 639,-360 947,-360 947,-193 639,-193"/>
<image xlink:href="static/img/industries/orchard_piggery.png" width="306px" height="165px" preserveAspectRatio="xMinYMin meet" x="640" y="-359"/>
<polygon fill="none" stroke="#c1cdcd" points="639,-119 639,-193 947,-193 947,-119 639,-119"/>
<polygon fill="ghostwhite" stroke="transparent" points="640,-120 640,-192 946,-192 946,-120 640,-120"/>
<text text-anchor="start" x="645" y="-161.4" font-family="sans-serif" font-size="32.00">Orchard and Piggery</text>
<text text-anchor="start" x="685.5" y="-131" font-family="sans-serif" font-size="20.00">Requires Farm Supplies</text>
</a>
</g>
</g>
<!-- I_orchard_piggery&#45;&gt;C_fruits -->
<g id="edge30" class="edge">
<title>I_orchard_piggery&#45;&gt;C_fruits</title>
<g id="a_edge30"><a xlink:title="Orchard and Piggery &#45;&gt; Fruit">
<path fill="none" stroke="#a88000" stroke-width="5" d="M955.07,-240C994.37,-240 1032.97,-240 1060.44,-240"/>
</a>
</g>
</g>
<!-- I_orchard_piggery&#45;&gt;C_livestock -->
<g id="edge31" class="edge">
<title>I_orchard_piggery&#45;&gt;C_livestock</title>
<g id="a_edge31"><a xlink:title="Orchard and Piggery &#45;&gt; Livestock">
<path fill="none" stroke="#004ca8" stroke-width="5" d="M955.07,-322.11C993.08,-341.49 1030.42,-360.53 1057.68,-374.43"/>
</a>
</g>
</g>
<!-- I_scrap_yard -->
<g id="scrap_yard" class="node">
<title>I_scrap_yard</title>
<g id="a_scrap_yard"><a xlink:href="industries.html#scrap_yard" xlink:title="Scrap Yard" target="_top">
<polygon fill="white" stroke="transparent" points="8,-1577 8,-1791 310,-1791 310,-1577 8,-1577"/>
<polygon fill="none" stroke="#c1cdcd" points="8,-1624 8,-1791 310,-1791 310,-1624 8,-1624"/>
<image xlink:href="static/img/industries/scrap_yard.png" width="300px" height="165px" preserveAspectRatio="xMinYMin meet" x="9" y="-1790"/>
<polygon fill="none" stroke="#c1cdcd" points="8,-1577 8,-1624 310,-1624 310,-1577 8,-1577"/>
<polygon fill="ghostwhite" stroke="transparent" points="9,-1578 9,-1623 309,-1623 309,-1578 9,-1578"/>
<text text-anchor="start" x="80" y="-1592.4" font-family="sans-serif" font-size="32.00">Scrap Yard</text>
</a>
</g>
</g>
<!-- I_scrap_yard&#45;&gt;C_scrap_metal -->
<g id="edge33" class="edge">
<title>I_scrap_yard&#45;&gt;C_scrap_metal</title>
<g id="a_edge33"><a xlink:title="Scrap Yard &#45;&gt; Scrap Metal">
<path fill="none" stroke="#a85050" stroke-width="5" d="M318.13,-1781.35C363.48,-1809.27 408.67,-1837.09 438.53,-1855.47"/>
</a>
</g>
</g>
</g>
</svg>
