<?xml version="1.0" encoding="UTF-8" standalone="no"?>
<?xml-stylesheet href="cargoflow_styles.css" type="text/css"?>
<!DOCTYPE svg PUBLIC "-//W3C//DTD SVG 1.1//EN"
 "http://www.w3.org/Graphics/SVG/1.1/DTD/svg11.dtd">
<!-- Generated by graphviz version 2.26.3 (20100126.1600)
 -->
<!-- Title: arctic_basic Pages: 1 -->
<svg width="2598pt" height="514pt"
 viewBox="0.00 0.00 2598.00 514.20" xmlns="http://www.w3.org/2000/svg" xmlns:xlink="http://www.w3.org/1999/xlink">
<g id="graph1" class="graph" transform="scale(1 1) rotate(0) translate(4 510.199)">
<title>arctic_basic</title>
<a xlink:title="Arctic Basic">
<polygon fill="white" stroke="white" points="-4,5 -4,-510.199 2595,-510.199 2595,5 -4,5"/>
</a>
<!-- C_bauxite -->
<g id="bauxite" class="node"><title>C_bauxite</title>
<a xlink:href="cargos.html#bauxite" xlink:title="Bauxite" target="_top">
<ellipse fill="none" stroke="black" cx="1096" cy="-313.982" rx="48.1403" ry="18"/>
<text text-anchor="middle" x="1096" y="-309.882" font-family="sans-serif" font-size="14.00">Bauxite</text>
</a>
</g>
<!-- I_aluminium_plant -->
<g id="aluminium_plant" class="node"><title>I_aluminium_plant</title>
<a xlink:href="industries.html#aluminium_plant" xlink:title="Aluminium Plant" target="_top">
<polygon fill="none" stroke="black" points="1360,-345.982 1220,-345.982 1220,-309.982 1360,-309.982 1360,-345.982"/>
<text text-anchor="start" x="1232.5" y="-324.215" font-family="sans-serif" font-size="14.00">Aluminium Plant</text>
</a>
</g>
<!-- C_bauxite&#45;&gt;I_aluminium_plant -->
<g id="edge2" class="edge"><title>C_bauxite&#45;&gt;I_aluminium_plant</title>
<a xlink:title="Bauxite &#45;&gt; Aluminium Plant">
<path fill="none" stroke="black" d="M1143.96,-317.442C1163.8,-318.875 1187.37,-320.575 1209.72,-322.188"/>
<polygon fill="black" stroke="black" points="1209.66,-325.693 1219.88,-322.922 1210.16,-318.711 1209.66,-325.693"/>
</a>
</g>
<!-- C_metal -->
<g id="metal" class="node"><title>C_metal</title>
<a xlink:href="cargos.html#metal" xlink:title="Metal" target="_top">
<ellipse fill="none" stroke="black" cx="1455" cy="-251.982" rx="38.2185" ry="18"/>
<text text-anchor="middle" x="1455" y="-247.882" font-family="sans-serif" font-size="14.00">Metal</text>
</a>
</g>
<!-- I_aluminium_plant&#45;&gt;C_metal -->
<g id="edge58" class="edge"><title>I_aluminium_plant&#45;&gt;C_metal</title>
<a xlink:title="Aluminium Plant &#45;&gt; Metal">
<path fill="none" stroke="black" d="M1329.1,-309.971C1356.09,-297.539 1391.75,-281.117 1418.22,-268.923"/>
<polygon fill="black" stroke="black" points="1419.91,-271.999 1427.52,-264.637 1416.98,-265.641 1419.91,-271.999"/>
</a>
</g>
<!-- C_chemicals -->
<g id="chemicals" class="node"><title>C_chemicals</title>
<a xlink:href="cargos.html#chemicals" xlink:title="Chemicals" target="_top">
<ellipse fill="none" stroke="black" cx="1096" cy="-205.982" rx="59.7599" ry="18"/>
<text text-anchor="middle" x="1096" y="-201.882" font-family="sans-serif" font-size="14.00">Chemicals</text>
</a>
</g>
<!-- C_chemicals&#45;&gt;I_aluminium_plant -->
<g id="edge12" class="edge"><title>C_chemicals&#45;&gt;I_aluminium_plant</title>
<a xlink:title="Chemicals &#45;&gt; Aluminium Plant">
<path fill="none" stroke="black" d="M1139.83,-218.33C1148.46,-222.097 1157,-226.904 1164,-232.982 1188.36,-254.12 1175.26,-275.289 1200,-295.982 1204.03,-299.353 1208.44,-302.381 1213.08,-305.097"/>
<polygon fill="black" stroke="black" points="1211.76,-308.357 1222.23,-309.947 1215.03,-302.172 1211.76,-308.357"/>
</a>
</g>
<!-- I_fertiliser_plant -->
<g id="fertiliser_plant" class="node"><title>I_fertiliser_plant</title>
<a xlink:href="industries.html#fertiliser_plant" xlink:title="Fertiliser Plant" target="_top">
<polygon fill="none" stroke="black" points="1822,-185.982 1696,-185.982 1696,-149.982 1822,-149.982 1822,-185.982"/>
<text text-anchor="start" x="1708.5" y="-164.215" font-family="sans-serif" font-size="14.00">Fertiliser Plant</text>
</a>
</g>
<!-- C_chemicals&#45;&gt;I_fertiliser_plant -->
<g id="edge4" class="edge"><title>C_chemicals&#45;&gt;I_fertiliser_plant</title>
<a xlink:title="Chemicals &#45;&gt; Fertiliser Plant">
<path fill="none" stroke="black" d="M1155.13,-202.593C1276.38,-195.643 1552.91,-179.794 1685.47,-172.196"/>
<polygon fill="black" stroke="black" points="1685.75,-175.685 1695.54,-171.619 1685.35,-168.697 1685.75,-175.685"/>
</a>
</g>
<!-- I_plastics_plant -->
<g id="plastics_plant" class="node"><title>I_plastics_plant</title>
<a xlink:href="industries.html#plastics_plant" xlink:title="Plastics Plant" target="_top">
<polygon fill="none" stroke="black" points="1653,-47.9815 1537,-47.9815 1537,-11.9815 1653,-11.9815 1653,-47.9815"/>
<text text-anchor="start" x="1549.5" y="-26.2148" font-family="sans-serif" font-size="14.00">Plastics Plant</text>
</a>
</g>
<!-- C_chemicals&#45;&gt;I_plastics_plant -->
<g id="edge6" class="edge"><title>C_chemicals&#45;&gt;I_plastics_plant</title>
<a xlink:title="Chemicals &#45;&gt; Plastics Plant">
<path fill="none" stroke="black" d="M1101.3,-187.876C1112.71,-152.602 1143.27,-75.303 1200,-42.9815 1301.68,14.9546 1443.22,1.45891 1526.36,-14.0012"/>
<polygon fill="black" stroke="black" points="1525.72,-17.4427 1536.2,-15.8917 1527.04,-10.5683 1525.72,-17.4427"/>
</a>
</g>
<!-- I_tyre_plant -->
<g id="tyre_plant" class="node"><title>I_tyre_plant</title>
<a xlink:href="industries.html#tyre_plant" xlink:title="Tyre Plant" target="_top">
<polygon fill="none" stroke="black" points="2394,-448.982 2300,-448.982 2300,-412.982 2394,-412.982 2394,-448.982"/>
<text text-anchor="start" x="2312.5" y="-427.215" font-family="sans-serif" font-size="14.00">Tyre Plant</text>
</a>
</g>
<!-- C_chemicals&#45;&gt;I_tyre_plant -->
<g id="edge8" class="edge"><title>C_chemicals&#45;&gt;I_tyre_plant</title>
<a xlink:title="Chemicals &#45;&gt; Tyre Plant">
<path fill="none" stroke="black" d="M1137.52,-219.094C1293.39,-268.028 1844.01,-438.178 2026,-457.982 2124.97,-468.751 2151.36,-471.454 2250,-457.982 2262.97,-456.21 2276.66,-453.163 2289.53,-449.739"/>
<polygon fill="black" stroke="black" points="2290.49,-453.106 2299.19,-447.063 2288.62,-446.361 2290.49,-453.106"/>
</a>
</g>
<!-- I_vehicle_factory -->
<g id="vehicle_factory" class="node"><title>I_vehicle_factory</title>
<a xlink:href="industries.html#vehicle_factory" xlink:title="Vehicle Factory" target="_top">
<polygon fill="none" stroke="black" points="1659,-250.982 1531,-250.982 1531,-214.982 1659,-214.982 1659,-250.982"/>
<text text-anchor="start" x="1543.5" y="-229.215" font-family="sans-serif" font-size="14.00">Vehicle Factory</text>
</a>
</g>
<!-- C_chemicals&#45;&gt;I_vehicle_factory -->
<g id="edge10" class="edge"><title>C_chemicals&#45;&gt;I_vehicle_factory</title>
<a xlink:title="Chemicals &#45;&gt; Vehicle Factory">
<path fill="none" stroke="black" d="M1155.71,-208.248C1233.58,-211.338 1374.05,-217.37 1494,-224.982 1502.55,-225.524 1511.49,-226.149 1520.38,-226.806"/>
<polygon fill="black" stroke="black" points="1520.13,-230.297 1530.37,-227.559 1520.66,-223.317 1520.13,-230.297"/>
</a>
</g>
<!-- I_glass_works -->
<g id="glass_works" class="node"><title>I_glass_works</title>
<a xlink:href="industries.html#glass_works" xlink:title="Glass Works" target="_top">
<polygon fill="none" stroke="black" points="1650,-116.982 1540,-116.982 1540,-80.9815 1650,-80.9815 1650,-116.982"/>
<text text-anchor="start" x="1552.5" y="-95.2148" font-family="sans-serif" font-size="14.00">Glass Works</text>
</a>
</g>
<!-- C_chemicals&#45;&gt;I_glass_works -->
<g id="edge14" class="edge"><title>C_chemicals&#45;&gt;I_glass_works</title>
<a xlink:title="Chemicals &#45;&gt; Glass Works">
<path fill="none" stroke="black" d="M1122.36,-189.78C1142.8,-177.976 1172.24,-162.6 1200,-153.982 1260.05,-135.339 1433.73,-115.464 1529.57,-105.49"/>
<polygon fill="black" stroke="black" points="1530.14,-108.949 1539.72,-104.439 1529.42,-101.987 1530.14,-108.949"/>
</a>
</g>
<!-- I_paper_mill -->
<g id="paper_mill" class="node"><title>I_paper_mill</title>
<a xlink:href="industries.html#paper_mill" xlink:title="Paper Mill" target="_top">
<polygon fill="none" stroke="black" points="1336,-402.982 1244,-402.982 1244,-366.982 1336,-366.982 1336,-402.982"/>
<text text-anchor="start" x="1256.5" y="-381.215" font-family="sans-serif" font-size="14.00">Paper Mill</text>
</a>
</g>
<!-- C_chemicals&#45;&gt;I_paper_mill -->
<g id="edge16" class="edge"><title>C_chemicals&#45;&gt;I_paper_mill</title>
<a xlink:title="Chemicals &#45;&gt; Paper Mill">
<path fill="none" stroke="black" d="M1142.03,-217.63C1150.2,-221.42 1158.01,-226.415 1164,-232.982 1202.12,-274.734 1160.73,-314.316 1200,-354.982 1209.21,-364.517 1221.52,-371.021 1234.08,-375.459"/>
<polygon fill="black" stroke="black" points="1233.09,-378.817 1243.68,-378.465 1235.18,-372.137 1233.09,-378.817"/>
</a>
</g>
<!-- C_farm_supplies -->
<g id="farm_supplies" class="node"><title>C_farm_supplies</title>
<a xlink:href="cargos.html#farm_supplies" xlink:title="Farm Supplies" target="_top">
<ellipse fill="none" stroke="black" cx="2138" cy="-230.982" rx="77.8268" ry="18"/>
<text text-anchor="middle" x="2138" y="-226.882" font-family="sans-serif" font-size="14.00">Farm Supplies</text>
</a>
</g>
<!-- I_fertiliser_plant&#45;&gt;C_farm_supplies -->
<g id="edge66" class="edge"><title>I_fertiliser_plant&#45;&gt;C_farm_supplies</title>
<a xlink:title="Fertiliser Plant &#45;&gt; Farm Supplies">
<path fill="none" stroke="black" d="M1822.01,-178.455C1888.72,-189.544 1993.91,-207.03 2064.39,-218.745"/>
<polygon fill="black" stroke="black" points="2064.08,-222.243 2074.52,-220.43 2065.23,-215.338 2064.08,-222.243"/>
</a>
</g>
<!-- C_goods -->
<g id="goods" class="node"><title>C_goods</title>
<a xlink:href="cargos.html#goods" xlink:title="Goods" target="_top">
<ellipse fill="none" stroke="black" cx="1759" cy="-113.982" rx="40.9981" ry="18"/>
<text text-anchor="middle" x="1759" y="-109.882" font-family="sans-serif" font-size="14.00">Goods</text>
</a>
</g>
<!-- I_plastics_plant&#45;&gt;C_goods -->
<g id="edge88" class="edge"><title>I_plastics_plant&#45;&gt;C_goods</title>
<a xlink:title="Plastics Plant &#45;&gt; Goods">
<path fill="none" stroke="black" d="M1630.18,-48.0016C1657.66,-62.0777 1695.7,-81.5579 1723.31,-95.7002"/>
<polygon fill="black" stroke="black" points="1721.75,-98.8325 1732.24,-100.276 1724.94,-92.6022 1721.75,-98.8325"/>
</a>
</g>
<!-- C_vehicle_parts -->
<g id="vehicle_parts" class="node"><title>C_vehicle_parts</title>
<a xlink:href="cargos.html#vehicle_parts" xlink:title="Vehicle Parts" target="_top">
<ellipse fill="none" stroke="black" cx="2517" cy="-125.982" rx="72.9626" ry="18"/>
<text text-anchor="middle" x="2517" y="-121.882" font-family="sans-serif" font-size="14.00">Vehicle Parts</text>
</a>
</g>
<!-- I_plastics_plant&#45;&gt;C_vehicle_parts -->
<g id="edge86" class="edge"><title>I_plastics_plant&#45;&gt;C_vehicle_parts</title>
<a xlink:title="Plastics Plant &#45;&gt; Vehicle Parts">
<path fill="none" stroke="black" d="M1653.54,-29.9815C1719.33,-29.9815 1829.33,-29.9815 1924,-29.9815 1924,-29.9815 1924,-29.9815 2138,-29.9815 2259.66,-29.9815 2291.83,-38.8684 2408,-74.9815 2432.22,-82.511 2457.98,-94.3691 2478.38,-104.757"/>
<polygon fill="black" stroke="black" points="2476.86,-107.911 2487.35,-109.405 2480.08,-101.696 2476.86,-107.911"/>
</a>
</g>
<!-- I_tyre_plant&#45;&gt;C_vehicle_parts -->
<g id="edge108" class="edge"><title>I_tyre_plant&#45;&gt;C_vehicle_parts</title>
<a xlink:title="Tyre Plant &#45;&gt; Vehicle Parts">
<path fill="none" stroke="black" d="M2367.21,-412.78C2380.05,-400.468 2396.38,-383.342 2408,-365.982 2455.46,-295.1 2491.59,-200.198 2507.73,-153.836"/>
<polygon fill="black" stroke="black" points="2511.11,-154.775 2511.05,-144.181 2504.49,-152.502 2511.11,-154.775"/>
</a>
</g>
<!-- C_vehicles -->
<g id="vehicles" class="node"><title>C_vehicles</title>
<a xlink:href="cargos.html#vehicles" xlink:title="Vehicles" target="_top">
<ellipse fill="none" stroke="black" cx="1759" cy="-345.982" rx="50.0315" ry="18"/>
<text text-anchor="middle" x="1759" y="-341.882" font-family="sans-serif" font-size="14.00">Vehicles</text>
</a>
</g>
<!-- I_vehicle_factory&#45;&gt;C_vehicles -->
<g id="edge110" class="edge"><title>I_vehicle_factory&#45;&gt;C_vehicles</title>
<a xlink:title="Vehicle Factory &#45;&gt; Vehicles">
<path fill="none" stroke="black" d="M1621.35,-251.137C1650.23,-271.039 1696.56,-302.96 1727.38,-324.197"/>
<polygon fill="black" stroke="black" points="1725.42,-327.092 1735.64,-329.884 1729.39,-321.328 1725.42,-327.092"/>
</a>
</g>
<!-- I_glass_works&#45;&gt;C_goods -->
<g id="edge72" class="edge"><title>I_glass_works&#45;&gt;C_goods</title>
<a xlink:title="Glass Works &#45;&gt; Goods">
<path fill="none" stroke="black" d="M1650.07,-104.018C1669.07,-105.756 1690.24,-107.692 1708.83,-109.392"/>
<polygon fill="black" stroke="black" points="1708.58,-112.884 1718.86,-110.31 1709.22,-105.913 1708.58,-112.884"/>
</a>
</g>
<!-- I_glass_works&#45;&gt;C_vehicle_parts -->
<g id="edge70" class="edge"><title>I_glass_works&#45;&gt;C_vehicle_parts</title>
<a xlink:title="Glass Works &#45;&gt; Vehicle Parts">
<path fill="none" stroke="black" d="M1650.15,-90.5925C1715.38,-81.4117 1827.33,-67.9815 1924,-67.9815 1924,-67.9815 1924,-67.9815 2138,-67.9815 2258.84,-67.9815 2289.03,-78.8159 2408,-99.9815 2424.1,-102.846 2441.38,-106.632 2457.33,-110.426"/>
<polygon fill="black" stroke="black" points="2456.52,-113.832 2467.06,-112.781 2458.16,-107.028 2456.52,-113.832"/>
</a>
</g>
<!-- C_paper -->
<g id="paper" class="node"><title>C_paper</title>
<a xlink:href="cargos.html#paper" xlink:title="Paper" target="_top">
<ellipse fill="none" stroke="black" cx="1455" cy="-389.982" rx="38.9134" ry="18"/>
<text text-anchor="middle" x="1455" y="-385.882" font-family="sans-serif" font-size="14.00">Paper</text>
</a>
</g>
<!-- I_paper_mill&#45;&gt;C_paper -->
<g id="edge84" class="edge"><title>I_paper_mill&#45;&gt;C_paper</title>
<a xlink:title="Paper Mill &#45;&gt; Paper">
<path fill="none" stroke="black" d="M1336.4,-386.388C1358.04,-387.043 1383.81,-387.824 1405.79,-388.49"/>
<polygon fill="black" stroke="black" points="1405.82,-391.993 1415.92,-388.797 1406.03,-384.996 1405.82,-391.993"/>
</a>
</g>
<!-- C_clay -->
<g id="clay" class="node"><title>C_clay</title>
<a xlink:href="cargos.html#clay" xlink:title="Clay" target="_top">
<ellipse fill="none" stroke="black" cx="1096" cy="-367.982" rx="32.157" ry="18"/>
<text text-anchor="middle" x="1096" y="-363.882" font-family="sans-serif" font-size="14.00">Clay</text>
</a>
</g>
<!-- C_clay&#45;&gt;I_paper_mill -->
<g id="edge18" class="edge"><title>C_clay&#45;&gt;I_paper_mill</title>
<a xlink:title="Clay &#45;&gt; Paper Mill">
<path fill="none" stroke="black" d="M1128.47,-370.827C1157.11,-373.337 1199.49,-377.05 1233.66,-380.044"/>
<polygon fill="black" stroke="black" points="1233.7,-383.562 1243.97,-380.948 1234.31,-376.588 1233.7,-383.562"/>
</a>
</g>
<!-- C_engineering_supplies -->
<g id="engineering_supplies" class="node"><title>C_engineering_supplies</title>
<a xlink:href="cargos.html#engineering_supplies" xlink:title="Engineering Supplies" target="_top">
<ellipse fill="none" stroke="black" cx="2138" cy="-284.982" rx="111.876" ry="18"/>
<text text-anchor="middle" x="2138" y="-280.882" font-family="sans-serif" font-size="14.00">Engineering Supplies</text>
</a>
</g>
<!-- C_food -->
<g id="food" class="node"><title>C_food</title>
<a xlink:href="cargos.html#food" xlink:title="Food" target="_top">
<ellipse fill="none" stroke="black" cx="2138" cy="-338.982" rx="34.0492" ry="18"/>
<text text-anchor="middle" x="2138" y="-334.882" font-family="sans-serif" font-size="14.00">Food</text>
</a>
</g>
<!-- I_general_store -->
<g id="general_store" class="node"><title>I_general_store</title>
<a xlink:href="industries.html#general_store" xlink:title="General Store" target="_top">
<polygon fill="none" stroke="black" points="2408,-144.982 2286,-144.982 2286,-108.982 2408,-108.982 2408,-144.982"/>
<text text-anchor="start" x="2298.5" y="-123.215" font-family="sans-serif" font-size="14.00">General Store</text>
</a>
</g>
<!-- C_food&#45;&gt;I_general_store -->
<g id="edge20" class="edge"><title>C_food&#45;&gt;I_general_store</title>
<a xlink:title="Food &#45;&gt; General Store">
<path fill="none" stroke="black" d="M2172.03,-338.029C2196.04,-335.752 2227.76,-329.322 2250,-311.982 2301.7,-271.674 2328.75,-196.05 2340.19,-155.081"/>
<polygon fill="black" stroke="black" points="2343.62,-155.781 2342.82,-145.216 2336.86,-153.973 2343.62,-155.781"/>
</a>
</g>
<!-- I_petrol_pump -->
<g id="petrol_pump" class="node"><title>I_petrol_pump</title>
<a xlink:href="industries.html#petrol_pump" xlink:title="Petrol Station" target="_top">
<polygon fill="none" stroke="black" points="2407,-356.982 2287,-356.982 2287,-320.982 2407,-320.982 2407,-356.982"/>
<text text-anchor="start" x="2299.5" y="-335.215" font-family="sans-serif" font-size="14.00">Petrol Station</text>
</a>
</g>
<!-- C_food&#45;&gt;I_petrol_pump -->
<g id="edge22" class="edge"><title>C_food&#45;&gt;I_petrol_pump</title>
<a xlink:title="Food &#45;&gt; Petrol Station">
<path fill="none" stroke="black" d="M2172.04,-338.982C2200.15,-338.982 2240.99,-338.982 2276.15,-338.982"/>
<polygon fill="black" stroke="black" points="2276.37,-342.482 2286.37,-338.982 2276.37,-335.482 2276.37,-342.482"/>
</a>
</g>
<!-- C_goods&#45;&gt;I_general_store -->
<g id="edge24" class="edge"><title>C_goods&#45;&gt;I_general_store</title>
<a xlink:title="Goods &#45;&gt; General Store">
<path fill="none" stroke="black" d="M1800.35,-114.896C1899.38,-117.085 2151.16,-122.652 2275.41,-125.399"/>
<polygon fill="black" stroke="black" points="2275.51,-128.902 2285.58,-125.624 2275.66,-121.903 2275.51,-128.902"/>
</a>
</g>
<!-- C_goods&#45;&gt;I_petrol_pump -->
<g id="edge26" class="edge"><title>C_goods&#45;&gt;I_petrol_pump</title>
<a xlink:title="Goods &#45;&gt; Petrol Station">
<path fill="none" stroke="black" d="M1797.01,-120.901C1912.07,-141.852 2248.79,-203.213 2250,-203.982 2290.92,-229.896 2319.88,-279.857 2334.97,-311.196"/>
<polygon fill="black" stroke="black" points="2331.99,-313.076 2339.38,-320.662 2338.33,-310.12 2331.99,-313.076"/>
</a>
</g>
<!-- I_supply_yard -->
<g id="supply_yard" class="node"><title>I_supply_yard</title>
<a xlink:href="industries.html#supply_yard" xlink:title="Supply Yard" target="_top">
<polygon fill="none" stroke="black" points="1977,-289.982 1871,-289.982 1871,-253.982 1977,-253.982 1977,-289.982"/>
<text text-anchor="start" x="1883.5" y="-268.215" font-family="sans-serif" font-size="14.00">Supply Yard</text>
</a>
</g>
<!-- C_goods&#45;&gt;I_supply_yard -->
<g id="edge28" class="edge"><title>C_goods&#45;&gt;I_supply_yard</title>
<a xlink:title="Goods &#45;&gt; Supply Yard">
<path fill="none" stroke="black" d="M1792.44,-124.66C1802.53,-128.811 1813.24,-134.222 1822,-140.982 1859.69,-170.053 1891.19,-216.126 1908.81,-245.171"/>
<polygon fill="black" stroke="black" points="1905.92,-247.151 1914.04,-253.959 1911.94,-243.575 1905.92,-247.151"/>
</a>
</g>
<!-- I_supply_yard&#45;&gt;C_engineering_supplies -->
<g id="edge104" class="edge"><title>I_supply_yard&#45;&gt;C_engineering_supplies</title>
<a xlink:title="Supply Yard &#45;&gt; Engineering Supplies">
<path fill="none" stroke="black" d="M1977.17,-275.212C1991.09,-276.057 2006.64,-277.002 2022.44,-277.962"/>
<polygon fill="black" stroke="black" points="2022.65,-281.481 2032.85,-278.594 2023.08,-274.494 2022.65,-281.481"/>
</a>
</g>
<!-- I_supply_yard&#45;&gt;C_farm_supplies -->
<g id="edge106" class="edge"><title>I_supply_yard&#45;&gt;C_farm_supplies</title>
<a xlink:title="Supply Yard &#45;&gt; Farm Supplies">
<path fill="none" stroke="black" d="M1977.17,-261.794C2004.64,-256.531 2038.51,-250.042 2068.08,-244.378"/>
<polygon fill="black" stroke="black" points="2068.76,-247.811 2077.92,-242.492 2067.44,-240.936 2068.76,-247.811"/>
</a>
</g>
<!-- C_metal&#45;&gt;I_vehicle_factory -->
<g id="edge30" class="edge"><title>C_metal&#45;&gt;I_vehicle_factory</title>
<a xlink:title="Metal &#45;&gt; Vehicle Factory">
<path fill="none" stroke="black" d="M1491.78,-246.989C1500.65,-245.786 1510.45,-244.456 1520.37,-243.109"/>
<polygon fill="black" stroke="black" points="1520.87,-246.574 1530.31,-241.761 1519.93,-239.638 1520.87,-246.574"/>
</a>
</g>
<!-- C_oil -->
<g id="oil" class="node"><title>C_oil</title>
<a xlink:href="cargos.html#oil" xlink:title="Oil" target="_top">
<ellipse fill="none" stroke="black" cx="281" cy="-313.982" rx="27" ry="18"/>
<text text-anchor="middle" x="281" y="-309.882" font-family="sans-serif" font-size="14.00">Oil</text>
</a>
</g>
<!-- I_oil_refinery -->
<g id="oil_refinery" class="node"><title>I_oil_refinery</title>
<a xlink:href="industries.html#oil_refinery" xlink:title="Oil Refinery" target="_top">
<polygon fill="none" stroke="black" points="525,-331.982 419,-331.982 419,-295.982 525,-295.982 525,-331.982"/>
<text text-anchor="start" x="431.5" y="-310.215" font-family="sans-serif" font-size="14.00">Oil Refinery</text>
</a>
</g>
<!-- C_oil&#45;&gt;I_oil_refinery -->
<g id="edge32" class="edge"><title>C_oil&#45;&gt;I_oil_refinery</title>
<a xlink:title="Oil &#45;&gt; Oil Refinery">
<path fill="none" stroke="black" d="M308.366,-313.982C334.353,-313.982 374.386,-313.982 408.35,-313.982"/>
<polygon fill="black" stroke="black" points="408.673,-317.482 418.673,-313.982 408.673,-310.482 408.673,-317.482"/>
</a>
</g>
<!-- I_oil_refinery&#45;&gt;C_chemicals -->
<g id="edge74" class="edge"><title>I_oil_refinery&#45;&gt;C_chemicals</title>
<a xlink:title="Oil Refinery &#45;&gt; Chemicals">
<path fill="none" stroke="black" d="M525.234,-296.964C591.622,-276.497 708.948,-242.801 812,-225.982 884.365,-214.171 968.226,-209.332 1025.96,-207.351"/>
<polygon fill="black" stroke="black" points="1026.19,-210.846 1036.07,-207.025 1025.96,-203.85 1026.19,-210.846"/>
</a>
</g>
<!-- C_petrol -->
<g id="petrol" class="node"><title>C_petrol</title>
<a xlink:href="cargos.html#petrol" xlink:title="Petroleum Fuels" target="_top">
<ellipse fill="none" stroke="black" cx="687" cy="-406.982" rx="87.7515" ry="18"/>
<text text-anchor="middle" x="687" y="-402.882" font-family="sans-serif" font-size="14.00">Petroleum Fuels</text>
</a>
</g>
<!-- I_oil_refinery&#45;&gt;C_petrol -->
<g id="edge76" class="edge"><title>I_oil_refinery&#45;&gt;C_petrol</title>
<a xlink:title="Oil Refinery &#45;&gt; Petroleum Fuels">
<path fill="none" stroke="black" d="M513.709,-332.023C549.846,-347.654 602.099,-370.257 639.767,-386.55"/>
<polygon fill="black" stroke="black" points="638.443,-389.791 649.01,-390.549 641.222,-383.366 638.443,-389.791"/>
</a>
</g>
<!-- I_port -->
<g id="port" class="node"><title>I_port</title>
<a xlink:href="industries.html#port" xlink:title="Port" target="_top">
<polygon fill="none" stroke="black" points="1951,-411.982 1897,-411.982 1897,-375.982 1951,-375.982 1951,-411.982"/>
<text text-anchor="start" x="1909.5" y="-390.215" font-family="sans-serif" font-size="14.00">Port</text>
</a>
</g>
<!-- C_paper&#45;&gt;I_port -->
<g id="edge34" class="edge"><title>C_paper&#45;&gt;I_port</title>
<a xlink:title="Paper &#45;&gt; Port">
<path fill="none" stroke="black" d="M1494.18,-390.316C1583.15,-391.075 1799.47,-392.919 1886.66,-393.663"/>
<polygon fill="black" stroke="black" points="1886.85,-397.165 1896.88,-393.75 1886.91,-390.165 1886.85,-397.165"/>
</a>
</g>
<!-- I_port&#45;&gt;C_food -->
<g id="edge90" class="edge"><title>I_port&#45;&gt;C_food</title>
<a xlink:title="Port &#45;&gt; Food">
<path fill="none" stroke="black" d="M1951.1,-387.016C1988.07,-377.516 2054.58,-360.42 2097.48,-349.394"/>
<polygon fill="black" stroke="black" points="2098.51,-352.746 2107.32,-346.867 2096.76,-345.966 2098.51,-352.746"/>
</a>
</g>
<!-- C_rubber -->
<g id="rubber" class="node"><title>C_rubber</title>
<a xlink:href="cargos.html#rubber" xlink:title="Rubber" target="_top">
<ellipse fill="none" stroke="black" cx="2138" cy="-430.982" rx="45.1673" ry="18"/>
<text text-anchor="middle" x="2138" y="-426.882" font-family="sans-serif" font-size="14.00">Rubber</text>
</a>
</g>
<!-- I_port&#45;&gt;C_rubber -->
<g id="edge92" class="edge"><title>I_port&#45;&gt;C_rubber</title>
<a xlink:title="Port &#45;&gt; Rubber">
<path fill="none" stroke="black" d="M1951.1,-398.668C1985.05,-404.536 2043.91,-414.714 2086.53,-422.082"/>
<polygon fill="black" stroke="black" points="2085.99,-425.541 2096.44,-423.796 2087.18,-418.644 2085.99,-425.541"/>
</a>
</g>
<!-- C_petrol&#45;&gt;I_petrol_pump -->
<g id="edge38" class="edge"><title>C_petrol&#45;&gt;I_petrol_pump</title>
<a xlink:title="Petroleum Fuels &#45;&gt; Petrol Station">
<path fill="none" stroke="black" d="M713.577,-424.425C738.083,-439.608 776.007,-460.874 812,-471.982 933.471,-509.468 968.876,-505.982 1096,-505.982 1096,-505.982 1096,-505.982 1455,-505.982 1695.76,-505.982 1759.95,-491.986 1990,-420.982 2006.91,-415.763 2009.12,-409.288 2026,-403.982 2122.33,-373.696 2151.45,-387.994 2250,-365.982 2258.71,-364.037 2267.8,-361.794 2276.77,-359.45"/>
<polygon fill="black" stroke="black" points="2277.68,-362.83 2286.44,-356.875 2275.88,-356.066 2277.68,-362.83"/>
</a>
</g>
<!-- C_petrol&#45;&gt;I_supply_yard -->
<g id="edge40" class="edge"><title>C_petrol&#45;&gt;I_supply_yard</title>
<a xlink:title="Petroleum Fuels &#45;&gt; Supply Yard">
<path fill="none" stroke="black" d="M726.539,-423.183C750.783,-432.378 782.693,-443.179 812,-448.982 936.095,-473.553 969.496,-467.982 1096,-467.982 1096,-467.982 1096,-467.982 1455,-467.982 1580.93,-467.982 1578.98,-365.517 1696,-318.982 1749.53,-297.693 1814.14,-285.54 1860.89,-278.949"/>
<polygon fill="black" stroke="black" points="1861.44,-282.406 1870.88,-277.587 1860.5,-275.47 1861.44,-282.406"/>
</a>
</g>
<!-- I_bulk_terminal -->
<g id="bulk_terminal" class="node"><title>I_bulk_terminal</title>
<a xlink:href="industries.html#bulk_terminal" xlink:title="Bulk Terminal" target="_top">
<polygon fill="none" stroke="black" points="967,-372.482 837,-372.482 837,-321.482 967,-321.482 967,-372.482"/>
<text text-anchor="start" x="855.5" y="-353.215" font-family="sans-serif" font-size="14.00">Bulk Terminal</text>
<text text-anchor="start" x="849.5" y="-332.715" font-family="sans-serif" font-size="14.00">[Farm Supplies]</text>
</a>
</g>
<!-- C_petrol&#45;&gt;I_bulk_terminal -->
<g id="edge36" class="edge"><title>C_petrol&#45;&gt;I_bulk_terminal</title>
<a xlink:title="Petroleum Fuels &#45;&gt; Bulk Terminal">
<path fill="none" stroke="black" d="M739.32,-392.381C765.563,-385.057 797.826,-376.053 826.682,-368.001"/>
<polygon fill="black" stroke="black" points="827.632,-371.369 836.323,-365.31 825.75,-364.627 827.632,-371.369"/>
</a>
</g>
<!-- I_bulk_terminal&#45;&gt;C_bauxite -->
<g id="edge62" class="edge"><title>I_bulk_terminal&#45;&gt;C_bauxite</title>
<a xlink:title="Bulk Terminal &#45;&gt; Bauxite">
<path fill="none" stroke="black" d="M967.68,-335.809C991.81,-331.705 1018.84,-327.107 1041.84,-323.194"/>
<polygon fill="black" stroke="black" points="1042.49,-326.633 1051.77,-321.506 1041.32,-319.732 1042.49,-326.633"/>
</a>
</g>
<!-- I_bulk_terminal&#45;&gt;C_clay -->
<g id="edge60" class="edge"><title>I_bulk_terminal&#45;&gt;C_clay</title>
<a xlink:title="Bulk Terminal &#45;&gt; Clay">
<path fill="none" stroke="black" d="M967.68,-354.091C996.18,-357.176 1028.72,-360.699 1053.9,-363.425"/>
<polygon fill="black" stroke="black" points="1053.54,-366.906 1063.86,-364.503 1054.3,-359.947 1053.54,-366.906"/>
</a>
</g>
<!-- C_pyrite_ore -->
<g id="pyrite_ore" class="node"><title>C_pyrite_ore</title>
<a xlink:href="cargos.html#pyrite_ore" xlink:title="Pyrite Ore" target="_top">
<ellipse fill="none" stroke="black" cx="687" cy="-160.982" rx="61.1496" ry="18"/>
<text text-anchor="middle" x="687" y="-156.882" font-family="sans-serif" font-size="14.00">Pyrite Ore</text>
</a>
</g>
<!-- I_pyrite_smelter -->
<g id="pyrite_smelter" class="node"><title>I_pyrite_smelter</title>
<a xlink:href="industries.html#pyrite_smelter" xlink:title="Pyrite Smelter" target="_top">
<polygon fill="none" stroke="black" points="964,-178.982 840,-178.982 840,-142.982 964,-142.982 964,-178.982"/>
<text text-anchor="start" x="852.5" y="-157.215" font-family="sans-serif" font-size="14.00">Pyrite Smelter</text>
</a>
</g>
<!-- C_pyrite_ore&#45;&gt;I_pyrite_smelter -->
<g id="edge42" class="edge"><title>C_pyrite_ore&#45;&gt;I_pyrite_smelter</title>
<a xlink:title="Pyrite Ore &#45;&gt; Pyrite Smelter">
<path fill="none" stroke="black" d="M748.035,-160.982C773.243,-160.982 802.672,-160.982 829.009,-160.982"/>
<polygon fill="black" stroke="black" points="829.317,-164.482 839.316,-160.982 829.316,-157.482 829.317,-164.482"/>
</a>
</g>
<!-- I_pyrite_smelter&#45;&gt;C_chemicals -->
<g id="edge96" class="edge"><title>I_pyrite_smelter&#45;&gt;C_chemicals</title>
<a xlink:title="Pyrite Smelter &#45;&gt; Chemicals">
<path fill="none" stroke="black" d="M964.718,-175.53C988.344,-181.01 1015.08,-187.212 1038.24,-192.583"/>
<polygon fill="black" stroke="black" points="1037.73,-196.057 1048.26,-194.907 1039.31,-189.238 1037.73,-196.057"/>
</a>
</g>
<!-- I_pyrite_smelter&#45;&gt;C_metal -->
<g id="edge98" class="edge"><title>I_pyrite_smelter&#45;&gt;C_metal</title>
<a xlink:title="Pyrite Smelter &#45;&gt; Metal">
<path fill="none" stroke="black" d="M964.551,-162.169C1017.85,-163.921 1096.34,-168.258 1164,-178.982 1254.08,-193.259 1357.07,-222.158 1413.17,-238.996"/>
<polygon fill="black" stroke="black" points="1412.5,-242.45 1423.09,-241.994 1414.53,-235.75 1412.5,-242.45"/>
</a>
</g>
<!-- C_rubber&#45;&gt;I_tyre_plant -->
<g id="edge44" class="edge"><title>C_rubber&#45;&gt;I_tyre_plant</title>
<a xlink:title="Rubber &#45;&gt; Tyre Plant">
<path fill="none" stroke="black" d="M2183.09,-430.982C2214.2,-430.982 2255.81,-430.982 2289.33,-430.982"/>
<polygon fill="black" stroke="black" points="2289.45,-434.482 2299.45,-430.982 2289.45,-427.482 2289.45,-434.482"/>
</a>
</g>
<!-- C_sand -->
<g id="sand" class="node"><title>C_sand</title>
<a xlink:href="cargos.html#sand" xlink:title="Sand" target="_top">
<ellipse fill="none" stroke="black" cx="1455" cy="-79.9815" rx="34.9399" ry="18"/>
<text text-anchor="middle" x="1455" y="-75.8815" font-family="sans-serif" font-size="14.00">Sand</text>
</a>
</g>
<!-- C_sand&#45;&gt;I_glass_works -->
<g id="edge46" class="edge"><title>C_sand&#45;&gt;I_glass_works</title>
<a xlink:title="Sand &#45;&gt; Glass Works">
<path fill="none" stroke="black" d="M1489.61,-84.6781C1501.79,-86.3318 1515.92,-88.2489 1529.79,-90.1317"/>
<polygon fill="black" stroke="black" points="1529.44,-93.6158 1539.82,-91.4925 1530.38,-86.6794 1529.44,-93.6158"/>
</a>
</g>
<!-- C_scrap_metal -->
<g id="scrap_metal" class="node"><title>C_scrap_metal</title>
<a xlink:href="cargos.html#scrap_metal" xlink:title="Scrap Metal" target="_top">
<ellipse fill="none" stroke="black" cx="1096" cy="-259.982" rx="68.0985" ry="18"/>
<text text-anchor="middle" x="1096" y="-255.882" font-family="sans-serif" font-size="14.00">Scrap Metal</text>
</a>
</g>
<!-- C_scrap_metal&#45;&gt;I_aluminium_plant -->
<g id="edge48" class="edge"><title>C_scrap_metal&#45;&gt;I_aluminium_plant</title>
<a xlink:title="Scrap Metal &#45;&gt; Aluminium Plant">
<path fill="none" stroke="black" d="M1137.14,-274.403C1163.84,-283.76 1199.1,-296.119 1229.03,-306.609"/>
<polygon fill="black" stroke="black" points="1227.94,-309.938 1238.54,-309.943 1230.26,-303.332 1227.94,-309.938"/>
</a>
</g>
<!-- C_vehicle_parts&#45;&gt;I_vehicle_factory -->
<g id="edge50" class="edge"><title>C_vehicle_parts&#45;&gt;I_vehicle_factory</title>
<a xlink:title="Vehicle Parts &#45;&gt; Vehicle Factory">
<path fill="none" stroke="black" d="M2469.86,-139.787C2450.8,-144.924 2428.49,-150.376 2408,-153.982 2138.63,-201.375 1813.67,-222.197 1669.79,-229.585"/>
<polygon fill="black" stroke="black" points="1669.56,-226.092 1659.75,-230.094 1669.91,-233.083 1669.56,-226.092"/>
</a>
</g>
<!-- C_vehicles&#45;&gt;I_supply_yard -->
<g id="edge54" class="edge"><title>C_vehicles&#45;&gt;I_supply_yard</title>
<a xlink:title="Vehicles &#45;&gt; Supply Yard">
<path fill="none" stroke="black" d="M1788.7,-331.36C1808.26,-321.859 1834.5,-309.356 1858,-298.982 1861.65,-297.368 1865.44,-295.733 1869.25,-294.106"/>
<polygon fill="black" stroke="black" points="1870.91,-297.205 1878.77,-290.099 1868.2,-290.754 1870.91,-297.205"/>
</a>
</g>
<!-- C_vehicles&#45;&gt;I_port -->
<g id="edge52" class="edge"><title>C_vehicles&#45;&gt;I_port</title>
<a xlink:title="Vehicles &#45;&gt; Port">
<path fill="none" stroke="black" d="M1798.1,-357.357C1825.06,-365.199 1860.66,-375.554 1887.12,-383.253"/>
<polygon fill="black" stroke="black" points="1886.2,-386.63 1896.78,-386.062 1888.15,-379.908 1886.2,-386.63"/>
</a>
</g>
<!-- C_wood -->
<g id="wood" class="node"><title>C_wood</title>
<a xlink:href="cargos.html#wood" xlink:title="Wood" target="_top">
<ellipse fill="none" stroke="black" cx="1096" cy="-421.982" rx="38.9134" ry="18"/>
<text text-anchor="middle" x="1096" y="-417.882" font-family="sans-serif" font-size="14.00">Wood</text>
</a>
</g>
<!-- C_wood&#45;&gt;I_paper_mill -->
<g id="edge56" class="edge"><title>C_wood&#45;&gt;I_paper_mill</title>
<a xlink:title="Wood &#45;&gt; Paper Mill">
<path fill="none" stroke="black" d="M1132.49,-415.022C1161.04,-409.577 1201.23,-401.912 1233.87,-395.688"/>
<polygon fill="black" stroke="black" points="1234.56,-399.118 1243.73,-393.806 1233.25,-392.242 1234.56,-399.118"/>
</a>
</g>
<!-- I_basic_farm -->
<g id="basic_farm" class="node"><title>I_basic_farm</title>
<a xlink:href="industries.html#basic_farm" xlink:title="Farm" target="_top">
<polygon fill="none" stroke="black" points="1989,-358.482 1859,-358.482 1859,-307.482 1989,-307.482 1989,-358.482"/>
<text text-anchor="start" x="1907.5" y="-339.215" font-family="sans-serif" font-size="14.00">Farm</text>
<text text-anchor="start" x="1871.5" y="-318.715" font-family="sans-serif" font-size="14.00">[Farm Supplies]</text>
</a>
</g>
<!-- I_basic_farm&#45;&gt;C_food -->
<g id="edge64" class="edge"><title>I_basic_farm&#45;&gt;C_food</title>
<a xlink:title="Farm &#45;&gt; Food">
<path fill="none" stroke="black" d="M1989.66,-334.822C2023.4,-335.768 2063.62,-336.896 2093.67,-337.739"/>
<polygon fill="black" stroke="black" points="2093.75,-341.242 2103.84,-338.024 2093.94,-334.245 2093.75,-341.242"/>
</a>
</g>
<!-- I_forest -->
<g id="forest" class="node"><title>I_forest</title>
<a xlink:href="industries.html#forest" xlink:title="Forest" target="_top">
<polygon fill="none" stroke="black" points="967,-440.482 837,-440.482 837,-389.482 967,-389.482 967,-440.482"/>
<text text-anchor="start" x="881" y="-421.215" font-family="sans-serif" font-size="14.00">Forest</text>
<text text-anchor="start" x="849.5" y="-400.715" font-family="sans-serif" font-size="14.00">[Farm Supplies]</text>
</a>
</g>
<!-- I_forest&#45;&gt;C_wood -->
<g id="edge68" class="edge"><title>I_forest&#45;&gt;C_wood</title>
<a xlink:title="Forest &#45;&gt; Wood">
<path fill="none" stroke="black" d="M967.68,-417.351C993.533,-418.284 1022.71,-419.337 1046.71,-420.203"/>
<polygon fill="black" stroke="black" points="1046.87,-423.711 1056.99,-420.574 1047.12,-416.716 1046.87,-423.711"/>
</a>
</g>
<!-- I_oil_rig -->
<g id="oil_rig" class="node"><title>I_oil_rig</title>
<a xlink:href="industries.html#oil_rig" xlink:title="Oil Rig" target="_top">
<polygon fill="none" stroke="black" points="180,-278.482 8.52651e-14,-278.482 0,-227.482 180,-227.482 180,-278.482"/>
<text text-anchor="start" x="67" y="-259.215" font-family="sans-serif" font-size="14.00">Oil Rig</text>
<text text-anchor="start" x="12.5" y="-238.715" font-family="sans-serif" font-size="14.00">[Engineering Supplies]</text>
</a>
</g>
<!-- I_oil_rig&#45;&gt;C_oil -->
<g id="edge78" class="edge"><title>I_oil_rig&#45;&gt;C_oil</title>
<a xlink:title="Oil Rig &#45;&gt; Oil">
<path fill="none" stroke="black" d="M168.514,-278.057C195.694,-286.737 224.771,-296.024 246.552,-302.98"/>
<polygon fill="black" stroke="black" points="245.724,-306.39 256.315,-306.098 247.854,-299.721 245.724,-306.39"/>
</a>
</g>
<!-- CI_oil_rig_passengers -->
<g id="passengers" class="node"><title>CI_oil_rig_passengers</title>
<a xlink:href="cargos.html#passengers" xlink:title="Passengers" target="_top">
<ellipse fill="none" stroke="black" cx="281" cy="-252.982" rx="64.1231" ry="18"/>
<text text-anchor="middle" x="281" y="-248.882" font-family="sans-serif" font-size="14.00">Passengers</text>
</a>
</g>
<!-- I_oil_rig&#45;&gt;CI_oil_rig_passengers -->
<g id="edge80" class="edge"><title>I_oil_rig&#45;&gt;CI_oil_rig_passengers</title>
<a xlink:title="Oil Rig &#45;&gt; Passengers">
<path fill="none" stroke="black" d="M180.187,-252.982C188.839,-252.982 197.549,-252.982 206.033,-252.982"/>
<polygon fill="black" stroke="black" points="206.25,-256.482 216.25,-252.982 206.25,-249.482 206.25,-256.482"/>
</a>
</g>
<!-- I_oil_wells -->
<g id="oil_wells" class="node"><title>I_oil_wells</title>
<a xlink:href="industries.html#oil_wells" xlink:title="Oil Wells" target="_top">
<polygon fill="none" stroke="black" points="180,-346.482 8.52651e-14,-346.482 0,-295.482 180,-295.482 180,-346.482"/>
<text text-anchor="start" x="59.5" y="-327.215" font-family="sans-serif" font-size="14.00">Oil Wells</text>
<text text-anchor="start" x="12.5" y="-306.715" font-family="sans-serif" font-size="14.00">[Engineering Supplies]</text>
</a>
</g>
<!-- I_oil_wells&#45;&gt;C_oil -->
<g id="edge82" class="edge"><title>I_oil_wells&#45;&gt;C_oil</title>
<a xlink:title="Oil Wells &#45;&gt; Oil">
<path fill="none" stroke="black" d="M180.187,-317.676C202.633,-316.854 225.472,-316.017 243.723,-315.348"/>
<polygon fill="black" stroke="black" points="244.036,-318.839 253.901,-314.975 243.78,-311.843 244.036,-318.839"/>
</a>
</g>
<!-- I_pyrite_mine -->
<g id="pyrite_mine" class="node"><title>I_pyrite_mine</title>
<a xlink:href="industries.html#pyrite_mine" xlink:title="Pyrite Mine" target="_top">
<polygon fill="none" stroke="black" points="562,-186.482 382,-186.482 382,-135.482 562,-135.482 562,-186.482"/>
<text text-anchor="start" x="432.5" y="-167.215" font-family="sans-serif" font-size="14.00">Pyrite Mine</text>
<text text-anchor="start" x="394.5" y="-146.715" font-family="sans-serif" font-size="14.00">[Engineering Supplies]</text>
</a>
</g>
<!-- I_pyrite_mine&#45;&gt;C_pyrite_ore -->
<g id="edge94" class="edge"><title>I_pyrite_mine&#45;&gt;C_pyrite_ore</title>
<a xlink:title="Pyrite Mine &#45;&gt; Pyrite Ore">
<path fill="none" stroke="black" d="M562.245,-160.982C580.041,-160.982 598.484,-160.982 615.556,-160.982"/>
<polygon fill="black" stroke="black" points="615.99,-164.482 625.99,-160.982 615.99,-157.482 615.99,-164.482"/>
</a>
</g>
<!-- I_quarry -->
<g id="quarry" class="node"><title>I_quarry</title>
<a xlink:href="industries.html#quarry" xlink:title="Quarry" target="_top">
<polygon fill="none" stroke="black" points="1380,-102.482 1200,-102.482 1200,-51.4815 1380,-51.4815 1380,-102.482"/>
<text text-anchor="start" x="1265.5" y="-83.2148" font-family="sans-serif" font-size="14.00">Quarry</text>
<text text-anchor="start" x="1212.5" y="-62.7148" font-family="sans-serif" font-size="14.00">[Engineering Supplies]</text>
</a>
</g>
<!-- I_quarry&#45;&gt;C_sand -->
<g id="edge100" class="edge"><title>I_quarry&#45;&gt;C_sand</title>
<a xlink:title="Quarry &#45;&gt; Sand">
<path fill="none" stroke="black" d="M1380.22,-78.622C1390.17,-78.8029 1399.97,-78.981 1409.03,-79.1458"/>
<polygon fill="black" stroke="black" points="1409.24,-82.6499 1419.3,-79.3324 1409.36,-75.6511 1409.24,-82.6499"/>
</a>
</g>
<!-- I_junk_yard -->
<g id="junk_yard" class="node"><title>I_junk_yard</title>
<a xlink:href="industries.html#junk_yard" xlink:title="Scrap Yard" target="_top">
<polygon fill="none" stroke="black" points="992,-285.482 812,-285.482 812,-234.482 992,-234.482 992,-285.482"/>
<text text-anchor="start" x="865.5" y="-266.215" font-family="sans-serif" font-size="14.00">Scrap Yard</text>
<text text-anchor="start" x="824.5" y="-245.715" font-family="sans-serif" font-size="14.00">[Engineering Supplies]</text>
</a>
</g>
<!-- I_junk_yard&#45;&gt;C_scrap_metal -->
<g id="edge102" class="edge"><title>I_junk_yard&#45;&gt;C_scrap_metal</title>
<a xlink:title="Scrap Yard &#45;&gt; Scrap Metal">
<path fill="none" stroke="black" d="M992.185,-259.982C1000.7,-259.982 1009.28,-259.982 1017.67,-259.982"/>
<polygon fill="black" stroke="black" points="1017.79,-263.482 1027.79,-259.982 1017.79,-256.482 1017.79,-263.482"/>
</a>
</g>
</g>
</svg>
