<?xml version="1.0" encoding="UTF-8" standalone="no"?>
<?xml-stylesheet href="cargoflow_styles.css" type="text/css"?>
<!DOCTYPE svg PUBLIC "-//W3C//DTD SVG 1.1//EN"
 "http://www.w3.org/Graphics/SVG/1.1/DTD/svg11.dtd">
<!-- Generated by graphviz version 2.26.3 (20100126.1600)
 -->
<!-- Title: temperate_basic Pages: 1 -->
<svg width="2016pt" height="534pt"
 viewBox="0.00 0.00 2016.00 534.00" xmlns="http://www.w3.org/2000/svg" xmlns:xlink="http://www.w3.org/1999/xlink">
<g id="graph1" class="graph" transform="scale(1 1) rotate(0) translate(4 530)">
<title>temperate_basic</title>
<a xlink:title="Temperate Basic">
<polygon fill="white" stroke="white" points="-4,5 -4,-530 2013,-530 2013,5 -4,5"/>
</a>
<!-- C_alcohol -->
<g id="alcohol" class="node"><title>C_alcohol</title>
<a xlink:href="cargos.html#alcohol" xlink:title="Alcohol" target="_top">
<ellipse fill="none" stroke="black" cx="656" cy="-86" rx="45.8622" ry="18"/>
<text text-anchor="middle" x="656" y="-81.9" font-family="sans-serif" font-size="14.00">Alcohol</text>
</a>
</g>
<!-- I_general_store -->
<g id="general_store" class="node"><title>I_general_store</title>
<a xlink:href="industries.html#general_store" xlink:title="General Store" target="_top">
<polygon fill="none" stroke="black" points="1748,-215 1626,-215 1626,-179 1748,-179 1748,-215"/>
<text text-anchor="start" x="1638.5" y="-193.233" font-family="sans-serif" font-size="14.00">General Store</text>
</a>
</g>
<!-- C_alcohol&#45;&gt;I_general_store -->
<g id="edge2" class="edge"><title>C_alcohol&#45;&gt;I_general_store</title>
<a xlink:title="Alcohol &#45;&gt; General Store">
<path fill="none" stroke="black" d="M701.329,-89.5738C775.165,-95.0776 926.025,-105 1054,-105 1054,-105 1054,-105 1237,-105 1377.7,-105 1538.23,-148.707 1624.41,-175.87"/>
<polygon fill="black" stroke="black" points="1623.44,-179.236 1634.03,-178.934 1625.57,-172.566 1623.44,-179.236"/>
</a>
</g>
<!-- I_hotel -->
<g id="hotel" class="node"><title>I_hotel</title>
<a xlink:href="industries.html#hotel" xlink:title="Hotel" target="_top">
<polygon fill="none" stroke="black" points="881,-169 819,-169 819,-133 881,-133 881,-169"/>
<text text-anchor="start" x="831.5" y="-147.233" font-family="sans-serif" font-size="14.00">Hotel</text>
</a>
</g>
<!-- C_alcohol&#45;&gt;I_hotel -->
<g id="edge4" class="edge"><title>C_alcohol&#45;&gt;I_hotel</title>
<a xlink:title="Alcohol &#45;&gt; Hotel">
<path fill="none" stroke="black" d="M691.132,-97.771C724.325,-108.892 774.107,-125.572 809.077,-137.289"/>
<polygon fill="black" stroke="black" points="808.376,-140.745 818.97,-140.603 810.6,-134.108 808.376,-140.745"/>
</a>
</g>
<!-- I_port -->
<g id="port" class="node"><title>I_port</title>
<a xlink:href="industries.html#port" xlink:title="Port" target="_top">
<polygon fill="none" stroke="black" points="1714,-123 1660,-123 1660,-87 1714,-87 1714,-123"/>
<text text-anchor="start" x="1672.5" y="-101.233" font-family="sans-serif" font-size="14.00">Port</text>
</a>
</g>
<!-- C_alcohol&#45;&gt;I_port -->
<g id="edge6" class="edge"><title>C_alcohol&#45;&gt;I_port</title>
<a xlink:title="Alcohol &#45;&gt; Port">
<path fill="none" stroke="black" d="M701.329,-82.4262C775.165,-76.9224 926.025,-67 1054,-67 1054,-67 1054,-67 1237,-67 1394.25,-67 1433.63,-74.4232 1590,-91 1609.8,-93.0991 1631.77,-96.2048 1649.79,-98.9581"/>
<polygon fill="black" stroke="black" points="1649.47,-102.451 1659.89,-100.528 1650.55,-95.5342 1649.47,-102.451"/>
</a>
</g>
<!-- CI_hotel_passengers -->
<g id="passengers" class="node"><title>CI_hotel_passengers</title>
<a xlink:href="cargos.html#passengers" xlink:title="Passengers" target="_top">
<ellipse fill="none" stroke="black" cx="1054" cy="-151" rx="64.1231" ry="18"/>
<text text-anchor="middle" x="1054" y="-146.9" font-family="sans-serif" font-size="14.00">Passengers</text>
</a>
</g>
<!-- I_hotel&#45;&gt;CI_hotel_passengers -->
<g id="edge68" class="edge"><title>I_hotel&#45;&gt;CI_hotel_passengers</title>
<a xlink:title="Hotel &#45;&gt; Passengers">
<path fill="none" stroke="black" d="M881.428,-145.964C908.486,-144.351 948.541,-143.877 983.251,-144.54"/>
<polygon fill="black" stroke="black" points="983.279,-148.041 993.356,-144.769 983.439,-141.043 983.279,-148.041"/>
</a>
</g>
<!-- C_engineering_supplies -->
<g id="engineering_supplies" class="node"><title>C_engineering_supplies</title>
<a xlink:href="cargos.html#engineering_supplies" xlink:title="Engineering Supplies" target="_top">
<ellipse fill="none" stroke="black" cx="1896" cy="-105" rx="111.876" ry="18"/>
<text text-anchor="middle" x="1896" y="-100.9" font-family="sans-serif" font-size="14.00">Engineering Supplies</text>
</a>
</g>
<!-- I_port&#45;&gt;C_engineering_supplies -->
<g id="edge82" class="edge"><title>I_port&#45;&gt;C_engineering_supplies</title>
<a xlink:title="Port &#45;&gt; Engineering Supplies">
<path fill="none" stroke="black" d="M1714.32,-105C1730.23,-105 1751.52,-105 1773.92,-105"/>
<polygon fill="black" stroke="black" points="1773.92,-108.5 1783.92,-105 1773.92,-101.5 1773.92,-108.5"/>
</a>
</g>
<!-- C_chemicals -->
<g id="chemicals" class="node"><title>C_chemicals</title>
<a xlink:href="cargos.html#chemicals" xlink:title="Chemicals" target="_top">
<ellipse fill="none" stroke="black" cx="1054" cy="-297" rx="59.7599" ry="18"/>
<text text-anchor="middle" x="1054" y="-292.9" font-family="sans-serif" font-size="14.00">Chemicals</text>
</a>
</g>
<!-- I_glass_works -->
<g id="glass_works" class="node"><title>I_glass_works</title>
<a xlink:href="industries.html#glass_works" xlink:title="Glass Works" target="_top">
<polygon fill="none" stroke="black" points="1292,-301 1182,-301 1182,-265 1292,-265 1292,-301"/>
<text text-anchor="start" x="1194.5" y="-279.233" font-family="sans-serif" font-size="14.00">Glass Works</text>
</a>
</g>
<!-- C_chemicals&#45;&gt;I_glass_works -->
<g id="edge8" class="edge"><title>C_chemicals&#45;&gt;I_glass_works</title>
<a xlink:title="Chemicals &#45;&gt; Glass Works">
<path fill="none" stroke="black" d="M1112.15,-292.551C1131.14,-291.099 1152.34,-289.477 1171.8,-287.988"/>
<polygon fill="black" stroke="black" points="1172.1,-291.475 1181.8,-287.223 1171.57,-284.496 1172.1,-291.475"/>
</a>
</g>
<!-- I_metal_workshop -->
<g id="metal_workshop" class="node"><title>I_metal_workshop</title>
<a xlink:href="industries.html#metal_workshop" xlink:title="Metal Workshop" target="_top">
<polygon fill="none" stroke="black" points="1305,-355 1169,-355 1169,-319 1305,-319 1305,-355"/>
<text text-anchor="start" x="1181.5" y="-333.233" font-family="sans-serif" font-size="14.00">Metal Workshop</text>
</a>
</g>
<!-- C_chemicals&#45;&gt;I_metal_workshop -->
<g id="edge10" class="edge"><title>C_chemicals&#45;&gt;I_metal_workshop</title>
<a xlink:title="Chemicals &#45;&gt; Metal Workshop">
<path fill="none" stroke="black" d="M1102.56,-307.614C1119.69,-311.359 1139.42,-315.672 1158.4,-319.819"/>
<polygon fill="black" stroke="black" points="1157.72,-323.253 1168.23,-321.969 1159.21,-316.414 1157.72,-323.253"/>
</a>
</g>
<!-- C_goods -->
<g id="goods" class="node"><title>C_goods</title>
<a xlink:href="cargos.html#goods" xlink:title="Goods" target="_top">
<ellipse fill="none" stroke="black" cx="1466" cy="-310" rx="40.9981" ry="18"/>
<text text-anchor="middle" x="1466" y="-305.9" font-family="sans-serif" font-size="14.00">Goods</text>
</a>
</g>
<!-- I_glass_works&#45;&gt;C_goods -->
<g id="edge64" class="edge"><title>I_glass_works&#45;&gt;C_goods</title>
<a xlink:title="Glass Works &#45;&gt; Goods">
<path fill="none" stroke="black" d="M1292.14,-289.502C1330.01,-293.966 1379.84,-299.842 1416.45,-304.157"/>
<polygon fill="black" stroke="black" points="1416.06,-307.636 1426.4,-305.331 1416.88,-300.684 1416.06,-307.636"/>
</a>
</g>
<!-- C_manufacturing_supplies -->
<g id="manufacturing_supplies" class="node"><title>C_manufacturing_supplies</title>
<a xlink:href="cargos.html#manufacturing_supplies" xlink:title="Manufacturing Supplies" target="_top">
<ellipse fill="none" stroke="black" cx="1466" cy="-256" rx="123.188" ry="18"/>
<text text-anchor="middle" x="1466" y="-251.9" font-family="sans-serif" font-size="14.00">Manufacturing Supplies</text>
</a>
</g>
<!-- I_glass_works&#45;&gt;C_manufacturing_supplies -->
<g id="edge66" class="edge"><title>I_glass_works&#45;&gt;C_manufacturing_supplies</title>
<a xlink:title="Glass Works &#45;&gt; Manufacturing Supplies">
<path fill="none" stroke="black" d="M1292.14,-276.498C1312.52,-274.095 1336.37,-271.284 1359.76,-268.526"/>
<polygon fill="black" stroke="black" points="1360.22,-271.996 1369.74,-267.349 1359.4,-265.044 1360.22,-271.996"/>
</a>
</g>
<!-- I_metal_workshop&#45;&gt;C_goods -->
<g id="edge74" class="edge"><title>I_metal_workshop&#45;&gt;C_goods</title>
<a xlink:title="Metal Workshop &#45;&gt; Goods">
<path fill="none" stroke="black" d="M1305.71,-328.899C1341.25,-324.708 1383.85,-319.686 1416.19,-315.873"/>
<polygon fill="black" stroke="black" points="1416.79,-319.327 1426.31,-314.68 1415.97,-312.375 1416.79,-319.327"/>
</a>
</g>
<!-- I_metal_workshop&#45;&gt;C_manufacturing_supplies -->
<g id="edge76" class="edge"><title>I_metal_workshop&#45;&gt;C_manufacturing_supplies</title>
<a xlink:title="Metal Workshop &#45;&gt; Manufacturing Supplies">
<path fill="none" stroke="black" d="M1287.85,-318.93C1294.08,-316.185 1300.27,-313.193 1306,-310 1323.47,-300.267 1323.81,-291.318 1342,-283 1351.41,-278.695 1361.55,-275.06 1371.82,-271.995"/>
<polygon fill="black" stroke="black" points="1373.01,-275.297 1381.7,-269.228 1371.12,-268.556 1373.01,-275.297"/>
</a>
</g>
<!-- C_clay -->
<g id="clay" class="node"><title>C_clay</title>
<a xlink:href="cargos.html#clay" xlink:title="Clay" target="_top">
<ellipse fill="none" stroke="black" cx="656" cy="-256" rx="32.157" ry="18"/>
<text text-anchor="middle" x="656" y="-251.9" font-family="sans-serif" font-size="14.00">Clay</text>
</a>
</g>
<!-- I_bulk_terminal -->
<g id="bulk_terminal" class="node"><title>I_bulk_terminal</title>
<a xlink:href="industries.html#bulk_terminal" xlink:title="Bulk Terminal" target="_top">
<polygon fill="none" stroke="black" points="909,-267 791,-267 791,-231 909,-231 909,-267"/>
<text text-anchor="start" x="803.5" y="-245.233" font-family="sans-serif" font-size="14.00">Bulk Terminal</text>
</a>
</g>
<!-- C_clay&#45;&gt;I_bulk_terminal -->
<g id="edge12" class="edge"><title>C_clay&#45;&gt;I_bulk_terminal</title>
<a xlink:title="Clay &#45;&gt; Bulk Terminal">
<path fill="none" stroke="black" d="M688.471,-254.828C713.485,-253.926 748.978,-252.645 780.324,-251.514"/>
<polygon fill="black" stroke="black" points="780.471,-255.011 790.338,-251.153 780.218,-248.016 780.471,-255.011"/>
</a>
</g>
<!-- I_bulk_terminal&#45;&gt;C_chemicals -->
<g id="edge44" class="edge"><title>I_bulk_terminal&#45;&gt;C_chemicals</title>
<a xlink:title="Bulk Terminal &#45;&gt; Chemicals">
<path fill="none" stroke="black" d="M909.554,-263.013C937.101,-269.494 969.675,-277.159 996.911,-283.567"/>
<polygon fill="black" stroke="black" points="996.149,-286.983 1006.68,-285.867 997.752,-280.17 996.149,-286.983"/>
</a>
</g>
<!-- C_farm_supplies -->
<g id="farm_supplies" class="node"><title>C_farm_supplies</title>
<a xlink:href="cargos.html#farm_supplies" xlink:title="Farm Supplies" target="_top">
<ellipse fill="none" stroke="black" cx="1054" cy="-243" rx="77.8268" ry="18"/>
<text text-anchor="middle" x="1054" y="-238.9" font-family="sans-serif" font-size="14.00">Farm Supplies</text>
</a>
</g>
<!-- I_bulk_terminal&#45;&gt;C_farm_supplies -->
<g id="edge46" class="edge"><title>I_bulk_terminal&#45;&gt;C_farm_supplies</title>
<a xlink:title="Bulk Terminal &#45;&gt; Farm Supplies">
<path fill="none" stroke="black" d="M909.554,-247.248C927.298,-246.727 947.129,-246.143 966.274,-245.58"/>
<polygon fill="black" stroke="black" points="966.622,-249.072 976.515,-245.279 966.416,-242.075 966.622,-249.072"/>
</a>
</g>
<!-- C_coal -->
<g id="coal" class="node"><title>C_coal</title>
<a xlink:href="cargos.html#coal" xlink:title="Coal" target="_top">
<ellipse fill="none" stroke="black" cx="656" cy="-493" rx="32.157" ry="18"/>
<text text-anchor="middle" x="656" y="-488.9" font-family="sans-serif" font-size="14.00">Coal</text>
</a>
</g>
<!-- I_steel_mill -->
<g id="steel_mill" class="node"><title>I_steel_mill</title>
<a xlink:href="industries.html#steel_mill" xlink:title="Steel Mill" target="_top">
<polygon fill="none" stroke="black" points="894,-438 806,-438 806,-402 894,-402 894,-438"/>
<text text-anchor="start" x="818.5" y="-416.233" font-family="sans-serif" font-size="14.00">Steel Mill</text>
</a>
</g>
<!-- C_coal&#45;&gt;I_steel_mill -->
<g id="edge14" class="edge"><title>C_coal&#45;&gt;I_steel_mill</title>
<a xlink:title="Coal &#45;&gt; Steel Mill">
<path fill="none" stroke="black" d="M682.975,-482.85C712.029,-471.917 759.03,-454.231 795.783,-440.401"/>
<polygon fill="black" stroke="black" points="797.244,-443.591 805.371,-436.793 794.779,-437.04 797.244,-443.591"/>
</a>
</g>
<!-- C_metal -->
<g id="metal" class="node"><title>C_metal</title>
<a xlink:href="cargos.html#metal" xlink:title="Metal" target="_top">
<ellipse fill="none" stroke="black" cx="1054" cy="-412" rx="38.2185" ry="18"/>
<text text-anchor="middle" x="1054" y="-407.9" font-family="sans-serif" font-size="14.00">Metal</text>
</a>
</g>
<!-- I_steel_mill&#45;&gt;C_metal -->
<g id="edge86" class="edge"><title>I_steel_mill&#45;&gt;C_metal</title>
<a xlink:title="Steel Mill &#45;&gt; Metal">
<path fill="none" stroke="black" d="M894.517,-418.254C927.453,-416.963 972.261,-415.205 1006,-413.882"/>
<polygon fill="black" stroke="black" points="1006.23,-417.376 1016.09,-413.487 1005.96,-410.381 1006.23,-417.376"/>
</a>
</g>
<!-- C_fish -->
<g id="fish" class="node"><title>C_fish</title>
<a xlink:href="cargos.html#fish" xlink:title="Fish" target="_top">
<ellipse fill="none" stroke="black" cx="261" cy="-229" rx="30.0736" ry="18"/>
<text text-anchor="middle" x="261" y="-224.9" font-family="sans-serif" font-size="14.00">Fish</text>
</a>
</g>
<!-- I_fishing_harbour -->
<g id="fishing_harbour" class="node"><title>I_fishing_harbour</title>
<a xlink:href="industries.html#fishing_harbour" xlink:title="Fishing Harbour" target="_top">
<polygon fill="none" stroke="black" points="551,-254.5 355,-254.5 355,-203.5 551,-203.5 551,-254.5"/>
<text text-anchor="start" x="399" y="-235.233" font-family="sans-serif" font-size="14.00">Fishing Harbour</text>
<text text-anchor="start" x="367.5" y="-214.733" font-family="sans-serif" font-size="14.00">[Manufacturing Supplies]</text>
</a>
</g>
<!-- C_fish&#45;&gt;I_fishing_harbour -->
<g id="edge16" class="edge"><title>C_fish&#45;&gt;I_fishing_harbour</title>
<a xlink:title="Fish &#45;&gt; Fishing Harbour">
<path fill="none" stroke="black" d="M291.848,-229C306.472,-229 324.914,-229 344.056,-229"/>
<polygon fill="black" stroke="black" points="344.113,-232.5 354.113,-229 344.113,-225.5 344.113,-232.5"/>
</a>
</g>
<!-- C_food -->
<g id="food" class="node"><title>C_food</title>
<a xlink:href="cargos.html#food" xlink:title="Food" target="_top">
<ellipse fill="none" stroke="black" cx="656" cy="-174" rx="34.0492" ry="18"/>
<text text-anchor="middle" x="656" y="-169.9" font-family="sans-serif" font-size="14.00">Food</text>
</a>
</g>
<!-- I_fishing_harbour&#45;&gt;C_food -->
<g id="edge62" class="edge"><title>I_fishing_harbour&#45;&gt;C_food</title>
<a xlink:title="Fishing Harbour &#45;&gt; Food">
<path fill="none" stroke="black" d="M545.293,-203.995C570.022,-197.294 595.487,-190.395 615.749,-184.905"/>
<polygon fill="black" stroke="black" points="616.809,-188.245 625.545,-182.251 614.978,-181.488 616.809,-188.245"/>
</a>
</g>
<!-- C_food&#45;&gt;I_general_store -->
<g id="edge20" class="edge"><title>C_food&#45;&gt;I_general_store</title>
<a xlink:title="Food &#45;&gt; General Store">
<path fill="none" stroke="black" d="M689.508,-177.247C757.933,-183.587 918.69,-197 1054,-197 1054,-197 1054,-197 1237,-197 1370.77,-197 1526.9,-197 1615.64,-197"/>
<polygon fill="black" stroke="black" points="1615.86,-200.5 1625.86,-197 1615.86,-193.5 1615.86,-200.5"/>
</a>
</g>
<!-- C_food&#45;&gt;I_hotel -->
<g id="edge22" class="edge"><title>C_food&#45;&gt;I_hotel</title>
<a xlink:title="Food &#45;&gt; Hotel">
<path fill="none" stroke="black" d="M689.35,-170.046C722.381,-166.13 773.044,-160.124 808.624,-155.905"/>
<polygon fill="black" stroke="black" points="809.17,-159.365 818.688,-154.712 808.346,-152.414 809.17,-159.365"/>
</a>
</g>
<!-- C_food&#45;&gt;I_bulk_terminal -->
<g id="edge18" class="edge"><title>C_food&#45;&gt;I_bulk_terminal</title>
<a xlink:title="Food &#45;&gt; Bulk Terminal">
<path fill="none" stroke="black" d="M683.795,-184.746C712.36,-195.789 757.631,-213.29 793.717,-227.241"/>
<polygon fill="black" stroke="black" points="792.563,-230.547 803.152,-230.889 795.087,-224.018 792.563,-230.547"/>
</a>
</g>
<!-- C_fruits -->
<g id="fruits" class="node"><title>C_fruits</title>
<a xlink:href="cargos.html#fruits" xlink:title="Fruit" target="_top">
<ellipse fill="none" stroke="black" cx="261" cy="-32" rx="34.0492" ry="18"/>
<text text-anchor="middle" x="261" y="-27.9" font-family="sans-serif" font-size="14.00">Fruit</text>
</a>
</g>
<!-- I_brewery -->
<g id="brewery" class="node"><title>I_brewery</title>
<a xlink:href="industries.html#brewery" xlink:title="Cider Mill" target="_top">
<polygon fill="none" stroke="black" points="551,-50.5 355,-50.5 355,0.5 551,0.5 551,-50.5"/>
<text text-anchor="start" x="421.5" y="-31.2333" font-family="sans-serif" font-size="14.00">Cider Mill</text>
<text text-anchor="start" x="367.5" y="-10.7333" font-family="sans-serif" font-size="14.00">[Manufacturing Supplies]</text>
</a>
</g>
<!-- C_fruits&#45;&gt;I_brewery -->
<g id="edge24" class="edge"><title>C_fruits&#45;&gt;I_brewery</title>
<a xlink:title="Fruit &#45;&gt; Cider Mill">
<path fill="none" stroke="black" d="M295.326,-30.7485C309.302,-30.239 326.302,-29.6192 343.9,-28.9776"/>
<polygon fill="black" stroke="black" points="344.447,-32.4601 354.313,-28.598 344.192,-25.4647 344.447,-32.4601"/>
</a>
</g>
<!-- I_brewery&#45;&gt;C_alcohol -->
<g id="edge42" class="edge"><title>I_brewery&#45;&gt;C_alcohol</title>
<a xlink:title="Cider Mill &#45;&gt; Alcohol">
<path fill="none" stroke="black" d="M536.447,-50.0751C561.482,-57.5981 588.032,-65.5761 609.736,-72.0981"/>
<polygon fill="black" stroke="black" points="608.761,-75.4594 619.345,-74.9854 610.775,-68.7556 608.761,-75.4594"/>
</a>
</g>
<!-- C_goods&#45;&gt;I_general_store -->
<g id="edge26" class="edge"><title>C_goods&#45;&gt;I_general_store</title>
<a xlink:title="Goods &#45;&gt; General Store">
<path fill="none" stroke="black" d="M1506.27,-306.479C1531.42,-303.037 1563.87,-296.268 1590,-283 1619.28,-268.133 1646.69,-242.278 1664.85,-222.79"/>
<polygon fill="black" stroke="black" points="1667.67,-224.893 1671.81,-215.142 1662.49,-220.181 1667.67,-224.893"/>
</a>
</g>
<!-- C_goods&#45;&gt;I_port -->
<g id="edge28" class="edge"><title>C_goods&#45;&gt;I_port</title>
<a xlink:title="Goods &#45;&gt; Port">
<path fill="none" stroke="black" d="M1507,-311.092C1533.73,-309.621 1567.68,-303.317 1590,-283 1628.98,-247.522 1599.31,-215.45 1626,-170 1634.62,-155.332 1647.08,-141.276 1658.5,-130.011"/>
<polygon fill="black" stroke="black" points="1660.99,-132.473 1665.8,-123.033 1656.15,-127.412 1660.99,-132.473"/>
</a>
</g>
<!-- C_iron_ore -->
<g id="iron_ore" class="node"><title>C_iron_ore</title>
<a xlink:href="cargos.html#iron_ore" xlink:title="Iron Ore" target="_top">
<ellipse fill="none" stroke="black" cx="656" cy="-429" rx="50.9221" ry="18"/>
<text text-anchor="middle" x="656" y="-424.9" font-family="sans-serif" font-size="14.00">Iron Ore</text>
</a>
</g>
<!-- C_iron_ore&#45;&gt;I_steel_mill -->
<g id="edge30" class="edge"><title>C_iron_ore&#45;&gt;I_steel_mill</title>
<a xlink:title="Iron Ore &#45;&gt; Steel Mill">
<path fill="none" stroke="black" d="M707.225,-426.624C734.3,-425.368 767.55,-423.825 795.148,-422.545"/>
<polygon fill="black" stroke="black" points="795.597,-426.028 805.424,-422.068 795.273,-419.035 795.597,-426.028"/>
</a>
</g>
<!-- C_livestock -->
<g id="livestock" class="node"><title>C_livestock</title>
<a xlink:href="cargos.html#livestock" xlink:title="Livestock" target="_top">
<ellipse fill="none" stroke="black" cx="261" cy="-93" rx="55.7874" ry="18"/>
<text text-anchor="middle" x="261" y="-88.9" font-family="sans-serif" font-size="14.00">Livestock</text>
</a>
</g>
<!-- I_stockyard -->
<g id="stockyard" class="node"><title>I_stockyard</title>
<a xlink:href="industries.html#stockyard" xlink:title="Stockyard" target="_top">
<polygon fill="none" stroke="black" points="551,-118.5 355,-118.5 355,-67.5 551,-67.5 551,-118.5"/>
<text text-anchor="start" x="419" y="-99.2333" font-family="sans-serif" font-size="14.00">Stockyard</text>
<text text-anchor="start" x="367.5" y="-78.7333" font-family="sans-serif" font-size="14.00">[Manufacturing Supplies]</text>
</a>
</g>
<!-- C_livestock&#45;&gt;I_stockyard -->
<g id="edge32" class="edge"><title>C_livestock&#45;&gt;I_stockyard</title>
<a xlink:title="Livestock &#45;&gt; Stockyard">
<path fill="none" stroke="black" d="M317.568,-93C326.097,-93 335.13,-93 344.32,-93"/>
<polygon fill="black" stroke="black" points="344.337,-96.5001 354.337,-93 344.337,-89.5001 344.337,-96.5001"/>
</a>
</g>
<!-- I_stockyard&#45;&gt;C_food -->
<g id="edge88" class="edge"><title>I_stockyard&#45;&gt;C_food</title>
<a xlink:title="Stockyard &#45;&gt; Food">
<path fill="none" stroke="black" d="M528.406,-118.072C536.41,-120.979 544.398,-123.985 552,-127 575.531,-136.334 601.479,-148.058 621.57,-157.462"/>
<polygon fill="black" stroke="black" points="620.104,-160.64 630.642,-161.736 623.088,-154.308 620.104,-160.64"/>
</a>
</g>
<!-- C_metal&#45;&gt;I_metal_workshop -->
<g id="edge34" class="edge"><title>C_metal&#45;&gt;I_metal_workshop</title>
<a xlink:title="Metal &#45;&gt; Metal Workshop">
<path fill="none" stroke="black" d="M1083,-400.116C1109.87,-389.101 1150.53,-372.438 1183.32,-358.999"/>
<polygon fill="black" stroke="black" points="1184.86,-362.152 1192.78,-355.121 1182.2,-355.675 1184.86,-362.152"/>
</a>
</g>
<!-- C_milk -->
<g id="milk" class="node"><title>C_milk</title>
<a xlink:href="cargos.html#milk" xlink:title="Milk" target="_top">
<ellipse fill="none" stroke="black" cx="261" cy="-161" rx="30.0736" ry="18"/>
<text text-anchor="middle" x="261" y="-156.9" font-family="sans-serif" font-size="14.00">Milk</text>
</a>
</g>
<!-- I_dairy -->
<g id="dairy" class="node"><title>I_dairy</title>
<a xlink:href="industries.html#dairy" xlink:title="Dairy" target="_top">
<polygon fill="none" stroke="black" points="551,-186.5 355,-186.5 355,-135.5 551,-135.5 551,-186.5"/>
<text text-anchor="start" x="434.5" y="-167.233" font-family="sans-serif" font-size="14.00">Dairy</text>
<text text-anchor="start" x="367.5" y="-146.733" font-family="sans-serif" font-size="14.00">[Manufacturing Supplies]</text>
</a>
</g>
<!-- C_milk&#45;&gt;I_dairy -->
<g id="edge36" class="edge"><title>C_milk&#45;&gt;I_dairy</title>
<a xlink:title="Milk &#45;&gt; Dairy">
<path fill="none" stroke="black" d="M291.848,-161C306.472,-161 324.914,-161 344.056,-161"/>
<polygon fill="black" stroke="black" points="344.113,-164.5 354.113,-161 344.113,-157.5 344.113,-164.5"/>
</a>
</g>
<!-- I_dairy&#45;&gt;C_food -->
<g id="edge52" class="edge"><title>I_dairy&#45;&gt;C_food</title>
<a xlink:title="Dairy &#45;&gt; Food">
<path fill="none" stroke="black" d="M551.527,-167.31C572.807,-168.672 594.262,-170.046 612.145,-171.192"/>
<polygon fill="black" stroke="black" points="612.03,-174.691 622.233,-171.838 612.477,-167.706 612.03,-174.691"/>
</a>
</g>
<!-- C_sand -->
<g id="sand" class="node"><title>C_sand</title>
<a xlink:href="cargos.html#sand" xlink:title="Sand" target="_top">
<ellipse fill="none" stroke="black" cx="1054" cy="-351" rx="34.9399" ry="18"/>
<text text-anchor="middle" x="1054" y="-346.9" font-family="sans-serif" font-size="14.00">Sand</text>
</a>
</g>
<!-- C_sand&#45;&gt;I_glass_works -->
<g id="edge38" class="edge"><title>C_sand&#45;&gt;I_glass_works</title>
<a xlink:title="Sand &#45;&gt; Glass Works">
<path fill="none" stroke="black" d="M1083.73,-341.014C1098.32,-336.035 1116.13,-329.842 1132,-324 1134.74,-322.993 1157.68,-314.037 1181.43,-304.752"/>
<polygon fill="black" stroke="black" points="1182.84,-307.957 1190.88,-301.055 1180.29,-301.438 1182.84,-307.957"/>
</a>
</g>
<!-- C_scrap_metal -->
<g id="scrap_metal" class="node"><title>C_scrap_metal</title>
<a xlink:href="cargos.html#scrap_metal" xlink:title="Scrap Metal" target="_top">
<ellipse fill="none" stroke="black" cx="656" cy="-368" rx="68.0985" ry="18"/>
<text text-anchor="middle" x="656" y="-363.9" font-family="sans-serif" font-size="14.00">Scrap Metal</text>
</a>
</g>
<!-- C_scrap_metal&#45;&gt;I_steel_mill -->
<g id="edge40" class="edge"><title>C_scrap_metal&#45;&gt;I_steel_mill</title>
<a xlink:title="Scrap Metal &#45;&gt; Steel Mill">
<path fill="none" stroke="black" d="M703.955,-380.854C731.657,-388.279 766.602,-397.646 795.363,-405.355"/>
<polygon fill="black" stroke="black" points="794.691,-408.798 805.257,-408.007 796.504,-402.037 794.691,-408.798"/>
</a>
</g>
<!-- I_clay_pit -->
<g id="clay_pit" class="node"><title>I_clay_pit</title>
<a xlink:href="industries.html#clay_pit" xlink:title="Clay Pit" target="_top">
<polygon fill="none" stroke="black" points="543,-322.5 363,-322.5 363,-271.5 543,-271.5 543,-322.5"/>
<text text-anchor="start" x="426" y="-303.233" font-family="sans-serif" font-size="14.00">Clay Pit</text>
<text text-anchor="start" x="375.5" y="-282.733" font-family="sans-serif" font-size="14.00">[Engineering Supplies]</text>
</a>
</g>
<!-- I_clay_pit&#45;&gt;C_clay -->
<g id="edge48" class="edge"><title>I_clay_pit&#45;&gt;C_clay</title>
<a xlink:title="Clay Pit &#45;&gt; Clay">
<path fill="none" stroke="black" d="M543.221,-278.778C568.404,-273.692 594.525,-268.416 615.279,-264.224"/>
<polygon fill="black" stroke="black" points="616.199,-267.609 625.308,-262.199 614.813,-260.748 616.199,-267.609"/>
</a>
</g>
<!-- I_coal_mine -->
<g id="coal_mine" class="node"><title>I_coal_mine</title>
<a xlink:href="industries.html#coal_mine" xlink:title="Coal Mine" target="_top">
<polygon fill="none" stroke="black" points="543,-526.5 363,-526.5 363,-475.5 543,-475.5 543,-526.5"/>
<text text-anchor="start" x="419" y="-507.233" font-family="sans-serif" font-size="14.00">Coal Mine</text>
<text text-anchor="start" x="375.5" y="-486.733" font-family="sans-serif" font-size="14.00">[Engineering Supplies]</text>
</a>
</g>
<!-- I_coal_mine&#45;&gt;C_coal -->
<g id="edge50" class="edge"><title>I_coal_mine&#45;&gt;C_coal</title>
<a xlink:title="Coal Mine &#45;&gt; Coal">
<path fill="none" stroke="black" d="M543.221,-497.444C567.568,-496.485 592.791,-495.491 613.194,-494.687"/>
<polygon fill="black" stroke="black" points="613.539,-498.176 623.393,-494.285 613.263,-491.182 613.539,-498.176"/>
</a>
</g>
<!-- I_dairy_farm -->
<g id="dairy_farm" class="node"><title>I_dairy_farm</title>
<a xlink:href="industries.html#dairy_farm" xlink:title="Dairy Farm" target="_top">
<polygon fill="none" stroke="black" points="149,-171.5 19,-171.5 19,-120.5 149,-120.5 149,-171.5"/>
<text text-anchor="start" x="46.5" y="-152.233" font-family="sans-serif" font-size="14.00">Dairy Farm</text>
<text text-anchor="start" x="31.5" y="-131.733" font-family="sans-serif" font-size="14.00">[Farm Supplies]</text>
</a>
</g>
<!-- I_dairy_farm&#45;&gt;C_livestock -->
<g id="edge54" class="edge"><title>I_dairy_farm&#45;&gt;C_livestock</title>
<a xlink:title="Dairy Farm &#45;&gt; Livestock">
<path fill="none" stroke="black" d="M149.657,-126.34C169.505,-120.397 190.998,-113.961 209.759,-108.343"/>
<polygon fill="black" stroke="black" points="211.009,-111.623 219.584,-105.401 209.001,-104.917 211.009,-111.623"/>
</a>
</g>
<!-- I_dairy_farm&#45;&gt;C_milk -->
<g id="edge56" class="edge"><title>I_dairy_farm&#45;&gt;C_milk</title>
<a xlink:title="Dairy Farm &#45;&gt; Milk">
<path fill="none" stroke="black" d="M149.657,-151.564C173.391,-153.576 199.478,-155.786 220.432,-157.562"/>
<polygon fill="black" stroke="black" points="220.317,-161.065 230.577,-158.422 220.908,-154.09 220.317,-161.065"/>
</a>
</g>
<!-- I_dredging_site -->
<g id="dredging_site" class="node"><title>I_dredging_site</title>
<a xlink:href="industries.html#dredging_site" xlink:title="Dredging Site" target="_top">
<polygon fill="none" stroke="black" points="940,-376.5 760,-376.5 760,-325.5 940,-325.5 940,-376.5"/>
<text text-anchor="start" x="802.5" y="-357.233" font-family="sans-serif" font-size="14.00">Dredging Site</text>
<text text-anchor="start" x="772.5" y="-336.733" font-family="sans-serif" font-size="14.00">[Engineering Supplies]</text>
</a>
</g>
<!-- I_dredging_site&#45;&gt;C_sand -->
<g id="edge58" class="edge"><title>I_dredging_site&#45;&gt;C_sand</title>
<a xlink:title="Dredging Site &#45;&gt; Sand">
<path fill="none" stroke="black" d="M940.071,-351C963.612,-351 988.013,-351 1008.16,-351"/>
<polygon fill="black" stroke="black" points="1008.29,-354.5 1018.29,-351 1008.29,-347.5 1008.29,-354.5"/>
</a>
</g>
<!-- I_fishing_grounds -->
<g id="fishing_grounds" class="node"><title>I_fishing_grounds</title>
<a xlink:href="industries.html#fishing_grounds" xlink:title="Fishing Grounds" target="_top">
<polygon fill="none" stroke="black" points="152,-247 16,-247 16,-211 152,-211 152,-247"/>
<text text-anchor="start" x="28.5" y="-225.233" font-family="sans-serif" font-size="14.00">Fishing Grounds</text>
</a>
</g>
<!-- I_fishing_grounds&#45;&gt;C_fish -->
<g id="edge60" class="edge"><title>I_fishing_grounds&#45;&gt;C_fish</title>
<a xlink:title="Fishing Grounds &#45;&gt; Fish">
<path fill="none" stroke="black" d="M152.686,-229C175.525,-229 200.22,-229 220.254,-229"/>
<polygon fill="black" stroke="black" points="220.272,-232.5 230.272,-229 220.272,-225.5 220.272,-232.5"/>
</a>
</g>
<!-- CI_hotel_passengers&#45;&gt;I_hotel -->
<g id="edge70" class="edge"><title>CI_hotel_passengers&#45;&gt;I_hotel</title>
<a xlink:title="Passengers &#45;&gt; Hotel">
<path fill="none" stroke="black" d="M993.356,-157.231C960.598,-158.099 920.989,-157.878 891.714,-156.568"/>
<polygon fill="black" stroke="black" points="891.595,-153.057 881.428,-156.036 891.234,-160.048 891.595,-153.057"/>
</a>
</g>
<!-- I_iron_ore_mine -->
<g id="iron_ore_mine" class="node"><title>I_iron_ore_mine</title>
<a xlink:href="industries.html#iron_ore_mine" xlink:title="Iron Ore Mine" target="_top">
<polygon fill="none" stroke="black" points="543,-458.5 363,-458.5 363,-407.5 543,-407.5 543,-458.5"/>
<text text-anchor="start" x="405" y="-439.233" font-family="sans-serif" font-size="14.00">Iron Ore Mine</text>
<text text-anchor="start" x="375.5" y="-418.733" font-family="sans-serif" font-size="14.00">[Engineering Supplies]</text>
</a>
</g>
<!-- I_iron_ore_mine&#45;&gt;C_iron_ore -->
<g id="edge72" class="edge"><title>I_iron_ore_mine&#45;&gt;C_iron_ore</title>
<a xlink:title="Iron Ore Mine &#45;&gt; Iron Ore">
<path fill="none" stroke="black" d="M543.221,-431.222C560.42,-430.883 578.056,-430.536 594.122,-430.219"/>
<polygon fill="black" stroke="black" points="594.503,-433.713 604.432,-430.016 594.365,-426.714 594.503,-433.713"/>
</a>
</g>
<!-- I_orchard_piggery -->
<g id="orchard_piggery" class="node"><title>I_orchard_piggery</title>
<a xlink:href="industries.html#orchard_piggery" xlink:title="Orchard and Piggery" target="_top">
<polygon fill="none" stroke="black" points="167,-88.5 1,-88.5 1,-37.5 167,-37.5 167,-88.5"/>
<text text-anchor="start" x="13.5" y="-69.2333" font-family="sans-serif" font-size="14.00">Orchard and Piggery</text>
<text text-anchor="start" x="31.5" y="-48.7333" font-family="sans-serif" font-size="14.00">[Farm Supplies]</text>
</a>
</g>
<!-- I_orchard_piggery&#45;&gt;C_fruits -->
<g id="edge78" class="edge"><title>I_orchard_piggery&#45;&gt;C_fruits</title>
<a xlink:title="Orchard and Piggery &#45;&gt; Fruit">
<path fill="none" stroke="black" d="M167.576,-48.3624C185.176,-45.2799 203.036,-42.1519 218.361,-39.4678"/>
<polygon fill="black" stroke="black" points="219.285,-42.8593 228.531,-37.6866 218.078,-35.9643 219.285,-42.8593"/>
</a>
</g>
<!-- I_orchard_piggery&#45;&gt;C_livestock -->
<g id="edge80" class="edge"><title>I_orchard_piggery&#45;&gt;C_livestock</title>
<a xlink:title="Orchard and Piggery &#45;&gt; Livestock">
<path fill="none" stroke="black" d="M167.576,-77.1654C178.836,-79.0739 190.203,-81.0005 200.944,-82.821"/>
<polygon fill="black" stroke="black" points="200.582,-86.3095 211.026,-84.5299 201.752,-79.408 200.582,-86.3095"/>
</a>
</g>
<!-- I_junk_yard -->
<g id="junk_yard" class="node"><title>I_junk_yard</title>
<a xlink:href="industries.html#junk_yard" xlink:title="Scrap Yard" target="_top">
<polygon fill="none" stroke="black" points="543,-390.5 363,-390.5 363,-339.5 543,-339.5 543,-390.5"/>
<text text-anchor="start" x="416.5" y="-371.233" font-family="sans-serif" font-size="14.00">Scrap Yard</text>
<text text-anchor="start" x="375.5" y="-350.733" font-family="sans-serif" font-size="14.00">[Engineering Supplies]</text>
</a>
</g>
<!-- I_junk_yard&#45;&gt;C_scrap_metal -->
<g id="edge84" class="edge"><title>I_junk_yard&#45;&gt;C_scrap_metal</title>
<a xlink:title="Scrap Yard &#45;&gt; Scrap Metal">
<path fill="none" stroke="black" d="M543.221,-366.333C554.733,-366.503 566.442,-366.676 577.744,-366.844"/>
<polygon fill="black" stroke="black" points="577.941,-370.347 587.992,-366.995 578.044,-363.347 577.941,-370.347"/>
</a>
</g>
</g>
</svg>
