<?xml version="1.0" encoding="UTF-8" standalone="no"?>
<?xml-stylesheet href="static/css/cargoflow_styles.css" type="text/css"?>
<!DOCTYPE svg PUBLIC "-//W3C//DTD SVG 1.1//EN"
 "http://www.w3.org/Graphics/SVG/1.1/DTD/svg11.dtd">
<!-- Generated by graphviz version 2.44.1 (20200629.0846)
 -->
<!-- Title: temperate_basic Pages: 1 -->
<svg width="1297pt" height="774pt"
 viewBox="0.00 0.00 1296.86 773.50" xmlns="http://www.w3.org/2000/svg" xmlns:xlink="http://www.w3.org/1999/xlink">
<g id="page0,1_graph0" class="graph" transform="scale(1 1) rotate(0) translate(4 769.5)">
<title>temperate_basic</title>
<g id="a_page0,1_graph0"><a xlink:title="Temperate Basic">
<polygon fill="white" stroke="transparent" points="-4,4 -4,-769.5 1292.86,-769.5 1292.86,4 -4,4"/>
</a>
</g>
<!-- C_alcohol -->
<g id="alcohol" class="node">
<title>C_alcohol</title>
<g id="a_alcohol"><a xlink:href="cargos.html#alcohol" xlink:title="Alcohol" target="_top">
<ellipse fill="none" stroke="black" cx="558.74" cy="-491" rx="39.79" ry="18"/>
<text text-anchor="middle" x="558.74" y="-487.3" font-family="sans-serif" font-size="14.00">Alcohol</text>
</a>
</g>
</g>
<!-- C_chemicals -->
<g id="chemicals" class="node">
<title>C_chemicals</title>
<g id="a_chemicals"><a xlink:href="cargos.html#chemicals" xlink:title="Chemicals" target="_top">
<ellipse fill="none" stroke="black" cx="934.17" cy="-256" rx="51.99" ry="18"/>
<text text-anchor="middle" x="934.17" y="-252.3" font-family="sans-serif" font-size="14.00">Chemicals</text>
</a>
</g>
</g>
<!-- I_glass_works -->
<g id="glass_works" class="node">
<title>I_glass_works</title>
<g id="a_glass_works"><a xlink:href="industries.html#glass_works" xlink:title="Glass Works" target="_top">
<polygon fill="none" stroke="black" points="1172.26,-274 1070.26,-274 1070.26,-238 1172.26,-238 1172.26,-274"/>
<text text-anchor="start" x="1082.26" y="-251.8" font-family="sans-serif" font-size="14.00">Glass Works</text>
</a>
</g>
</g>
<!-- C_chemicals&#45;&gt;I_glass_works -->
<g id="edge1" class="edge">
<title>C_chemicals&#45;&gt;I_glass_works</title>
<g id="a_edge1"><a xlink:title="Chemicals &#45;&gt; Glass Works">
<path fill="none" stroke="black" d="M986.24,-256C1008.98,-256 1035.94,-256 1059.69,-256"/>
<polygon fill="black" stroke="black" points="1060,-259.5 1070,-256 1060,-252.5 1060,-259.5"/>
</a>
</g>
</g>
<!-- I_metal_workshop -->
<g id="metal_workshop" class="node">
<title>I_metal_workshop</title>
<g id="a_metal_workshop"><a xlink:href="industries.html#metal_workshop" xlink:title="Metal Workshop" target="_top">
<polygon fill="none" stroke="black" points="1182.76,-104 1059.76,-104 1059.76,-68 1182.76,-68 1182.76,-104"/>
<text text-anchor="start" x="1072.26" y="-81.8" font-family="sans-serif" font-size="14.00">Metal Workshop</text>
</a>
</g>
</g>
<!-- C_chemicals&#45;&gt;I_metal_workshop -->
<g id="edge2" class="edge">
<title>C_chemicals&#45;&gt;I_metal_workshop</title>
<g id="a_edge2"><a xlink:title="Chemicals &#45;&gt; Metal Workshop">
<path fill="none" stroke="black" d="M980.96,-247.69C996.9,-243.18 1014.18,-236.33 1027.76,-226 1066.68,-196.41 1094.33,-145.44 1108.76,-113.85"/>
<polygon fill="black" stroke="black" points="1112.13,-114.88 1112.97,-104.32 1105.72,-112.05 1112.13,-114.88"/>
</a>
</g>
</g>
<!-- C_goods -->
<g id="goods" class="node">
<title>C_goods</title>
<g id="a_goods"><a xlink:href="cargos.html#goods" xlink:title="Goods" target="_top">
<ellipse fill="none" stroke="black" cx="1251.81" cy="-141" rx="37.09" ry="18"/>
<text text-anchor="middle" x="1251.81" y="-137.3" font-family="sans-serif" font-size="14.00">Goods</text>
</a>
</g>
</g>
<!-- I_glass_works&#45;&gt;C_goods -->
<g id="edge25" class="edge">
<title>I_glass_works&#45;&gt;C_goods</title>
<g id="a_edge25"><a xlink:title="Glass Works &#45;&gt; Goods">
<path fill="none" stroke="black" d="M1142.63,-237.78C1165.02,-217.75 1201.03,-185.54 1225.28,-163.84"/>
<polygon fill="black" stroke="black" points="1227.9,-166.19 1233.02,-156.91 1223.24,-160.97 1227.9,-166.19"/>
</a>
</g>
</g>
<!-- I_metal_workshop&#45;&gt;C_goods -->
<g id="edge27" class="edge">
<title>I_metal_workshop&#45;&gt;C_goods</title>
<g id="a_edge27"><a xlink:title="Metal Workshop &#45;&gt; Goods">
<path fill="none" stroke="black" d="M1164.36,-104.01C1180.36,-110.86 1198.46,-118.6 1213.95,-125.23"/>
<polygon fill="black" stroke="black" points="1212.64,-128.48 1223.22,-129.19 1215.4,-122.04 1212.64,-128.48"/>
</a>
</g>
</g>
<!-- C_coal -->
<g id="coal" class="node">
<title>C_coal</title>
<g id="a_coal"><a xlink:href="cargos.html#coal" xlink:title="Coal" target="_top">
<ellipse fill="none" stroke="black" cx="558.74" cy="-146" rx="28.7" ry="18"/>
<text text-anchor="middle" x="558.74" y="-142.3" font-family="sans-serif" font-size="14.00">Coal</text>
</a>
</g>
</g>
<!-- I_blast_furnace -->
<g id="blast_furnace" class="node">
<title>I_blast_furnace</title>
<g id="a_blast_furnace"><a xlink:href="industries.html#blast_furnace" xlink:title="Blast Furnace" target="_top">
<polygon fill="none" stroke="black" points="782.58,-104 674.58,-104 674.58,-68 782.58,-68 782.58,-104"/>
<text text-anchor="start" x="686.58" y="-81.8" font-family="sans-serif" font-size="14.00">Blast Furnace</text>
</a>
</g>
</g>
<!-- C_coal&#45;&gt;I_blast_furnace -->
<g id="edge3" class="edge">
<title>C_coal&#45;&gt;I_blast_furnace</title>
<g id="a_edge3"><a xlink:title="Coal &#45;&gt; Blast Furnace">
<path fill="none" stroke="black" d="M584.14,-137.28C605.95,-129.48 638.81,-117.73 667.58,-107.45"/>
<polygon fill="black" stroke="black" points="668.92,-110.69 677.16,-104.03 666.56,-104.1 668.92,-110.69"/>
</a>
</g>
</g>
<!-- C_steel -->
<g id="steel" class="node">
<title>C_steel</title>
<g id="a_steel"><a xlink:href="cargos.html#steel" xlink:title="Steel" target="_top">
<ellipse fill="none" stroke="black" cx="934.17" cy="-86" rx="30.59" ry="18"/>
<text text-anchor="middle" x="934.17" y="-82.3" font-family="sans-serif" font-size="14.00">Steel</text>
</a>
</g>
</g>
<!-- I_blast_furnace&#45;&gt;C_steel -->
<g id="edge15" class="edge">
<title>I_blast_furnace&#45;&gt;C_steel</title>
<g id="a_edge15"><a xlink:title="Blast Furnace &#45;&gt; Steel">
<path fill="none" stroke="black" d="M782.81,-86C817.42,-86 861.82,-86 893.38,-86"/>
<polygon fill="black" stroke="black" points="893.56,-89.5 903.55,-86 893.55,-82.5 893.56,-89.5"/>
</a>
</g>
</g>
<!-- C_fish -->
<g id="fish" class="node">
<title>C_fish</title>
<g id="a_fish"><a xlink:href="cargos.html#fish" xlink:title="Fish" target="_top">
<ellipse fill="none" stroke="black" cx="229.45" cy="-311" rx="27.1" ry="18"/>
<text text-anchor="middle" x="229.45" y="-307.3" font-family="sans-serif" font-size="14.00">Fish</text>
</a>
</g>
</g>
<!-- I_fishing_harbour -->
<g id="fishing_harbour" class="node">
<title>I_fishing_harbour</title>
<g id="a_fishing_harbour"><a xlink:href="industries.html#fishing_harbour" xlink:title="Fishing Harbour" target="_top">
<polygon fill="none" stroke="black" points="449.39,-329 328.39,-329 328.39,-293 449.39,-293 449.39,-329"/>
<text text-anchor="start" x="340.89" y="-306.8" font-family="sans-serif" font-size="14.00">Fishing Harbour</text>
</a>
</g>
</g>
<!-- C_fish&#45;&gt;I_fishing_harbour -->
<g id="edge4" class="edge">
<title>C_fish&#45;&gt;I_fishing_harbour</title>
<g id="a_edge4"><a xlink:title="Fish &#45;&gt; Fishing Harbour">
<path fill="none" stroke="black" d="M256.8,-311C273.58,-311 296.16,-311 317.85,-311"/>
<polygon fill="black" stroke="black" points="318.07,-314.5 328.07,-311 318.07,-307.5 318.07,-314.5"/>
</a>
</g>
</g>
<!-- C_food -->
<g id="food" class="node">
<title>C_food</title>
<g id="a_food"><a xlink:href="cargos.html#food" xlink:title="Food" target="_top">
<ellipse fill="none" stroke="black" cx="558.74" cy="-313" rx="30.59" ry="18"/>
<text text-anchor="middle" x="558.74" y="-309.3" font-family="sans-serif" font-size="14.00">Food</text>
</a>
</g>
</g>
<!-- I_fishing_harbour&#45;&gt;C_food -->
<g id="edge24" class="edge">
<title>I_fishing_harbour&#45;&gt;C_food</title>
<g id="a_edge24"><a xlink:title="Fishing Harbour &#45;&gt; Food">
<path fill="none" stroke="black" d="M449.54,-311.71C472.17,-311.98 497.37,-312.28 517.76,-312.52"/>
<polygon fill="black" stroke="black" points="517.9,-316.03 527.94,-312.64 517.98,-309.03 517.9,-316.03"/>
</a>
</g>
</g>
<!-- I_port -->
<g id="port" class="node">
<title>I_port</title>
<g id="a_port"><a xlink:href="industries.html#port" xlink:title="Port" target="_top">
<polygon fill="none" stroke="black" points="755.58,-273 701.58,-273 701.58,-237 755.58,-237 755.58,-273"/>
<text text-anchor="start" x="716.58" y="-250.8" font-family="sans-serif" font-size="14.00">Port</text>
</a>
</g>
</g>
<!-- C_food&#45;&gt;I_port -->
<g id="edge5" class="edge">
<title>C_food&#45;&gt;I_port</title>
<g id="a_edge5"><a xlink:title="Food &#45;&gt; Port">
<path fill="none" stroke="black" d="M585.59,-304.06C613.97,-294.26 659.72,-278.45 691.6,-267.43"/>
<polygon fill="black" stroke="black" points="693.11,-270.62 701.42,-264.04 690.82,-264 693.11,-270.62"/>
</a>
</g>
</g>
<!-- I_port&#45;&gt;C_chemicals -->
<g id="edge30" class="edge">
<title>I_port&#45;&gt;C_chemicals</title>
<g id="a_edge30"><a xlink:title="Port &#45;&gt; Chemicals">
<path fill="none" stroke="black" d="M755.78,-255.13C784.96,-255.27 833.13,-255.51 871.92,-255.7"/>
<polygon fill="black" stroke="black" points="872.05,-259.2 882.07,-255.75 872.09,-252.2 872.05,-259.2"/>
</a>
</g>
</g>
<!-- C_engineering_supplies_port -->
<g id="engineering_supplies" class="node">
<title>C_engineering_supplies_port</title>
<g id="a_engineering_supplies"><a xlink:href="cargos.html#engineering_supplies" xlink:title="Engineering Supplies" target="_top">
<ellipse fill="none" stroke="black" cx="934.17" cy="-316" rx="93.68" ry="18"/>
<text text-anchor="middle" x="934.17" y="-312.3" font-family="sans-serif" font-size="14.00">Engineering Supplies</text>
</a>
</g>
</g>
<!-- I_port&#45;&gt;C_engineering_supplies_port -->
<g id="edge31" class="edge">
<title>I_port&#45;&gt;C_engineering_supplies_port</title>
<g id="a_edge31"><a xlink:title="Port &#45;&gt; Engineering Supplies">
<path fill="none" stroke="black" d="M755.78,-262.85C785.28,-271.69 834.2,-286.35 873.2,-298.03"/>
<polygon fill="black" stroke="black" points="872.3,-301.41 882.88,-300.93 874.31,-294.71 872.3,-301.41"/>
</a>
</g>
</g>
<!-- C_farm_supplies_port -->
<g id="farm_supplies" class="node">
<title>C_farm_supplies_port</title>
<g id="a_farm_supplies"><a xlink:href="cargos.html#farm_supplies" xlink:title="Farm Supplies" target="_top">
<ellipse fill="none" stroke="black" cx="934.17" cy="-196" rx="67.69" ry="18"/>
<text text-anchor="middle" x="934.17" y="-192.3" font-family="sans-serif" font-size="14.00">Farm Supplies</text>
</a>
</g>
</g>
<!-- I_port&#45;&gt;C_farm_supplies_port -->
<g id="edge32" class="edge">
<title>I_port&#45;&gt;C_farm_supplies_port</title>
<g id="a_edge32"><a xlink:title="Port &#45;&gt; Farm Supplies">
<path fill="none" stroke="black" d="M755.78,-247.41C786.47,-238.51 838.17,-223.53 877.86,-212.03"/>
<polygon fill="black" stroke="black" points="879.04,-215.33 887.67,-209.19 877.09,-208.61 879.04,-215.33"/>
</a>
</g>
</g>
<!-- C_fruits -->
<g id="fruits" class="node">
<title>C_fruits</title>
<g id="a_fruits"><a xlink:href="cargos.html#fruits" xlink:title="Fruit" target="_top">
<ellipse fill="none" stroke="black" cx="229.45" cy="-491" rx="28.7" ry="18"/>
<text text-anchor="middle" x="229.45" y="-487.3" font-family="sans-serif" font-size="14.00">Fruit</text>
</a>
</g>
</g>
<!-- I_brewery -->
<g id="brewery" class="node">
<title>I_brewery</title>
<g id="a_brewery"><a xlink:href="industries.html#brewery" xlink:title="Cider Mill" target="_top">
<polygon fill="none" stroke="black" points="429.89,-509 347.89,-509 347.89,-473 429.89,-473 429.89,-509"/>
<text text-anchor="start" x="359.89" y="-486.8" font-family="sans-serif" font-size="14.00">Cider Mill</text>
</a>
</g>
</g>
<!-- C_fruits&#45;&gt;I_brewery -->
<g id="edge6" class="edge">
<title>C_fruits&#45;&gt;I_brewery</title>
<g id="a_edge6"><a xlink:title="Fruit &#45;&gt; Cider Mill">
<path fill="none" stroke="black" d="M258.23,-491C280.13,-491 311.25,-491 337.51,-491"/>
<polygon fill="black" stroke="black" points="337.68,-494.5 347.68,-491 337.68,-487.5 337.68,-494.5"/>
</a>
</g>
</g>
<!-- I_brewery&#45;&gt;C_alcohol -->
<g id="edge16" class="edge">
<title>I_brewery&#45;&gt;C_alcohol</title>
<g id="a_edge16"><a xlink:title="Cider Mill &#45;&gt; Alcohol">
<path fill="none" stroke="black" d="M430.09,-491C453.79,-491 483.94,-491 508.99,-491"/>
<polygon fill="black" stroke="black" points="509.02,-494.5 519.02,-491 509.02,-487.5 509.02,-494.5"/>
</a>
</g>
</g>
<!-- C_goods&#45;&gt;I_port -->
<g id="edge7" class="edge">
<title>C_goods&#45;&gt;I_port</title>
<g id="a_edge7"><a xlink:title="Goods &#45;&gt; Port">
<path fill="none" stroke="black" d="M1215.83,-136.24C1143.08,-127.8 971.38,-115.51 840.58,-166 805.69,-179.47 773.25,-208.14 752.56,-229.31"/>
<polygon fill="black" stroke="black" points="749.85,-227.08 745.48,-236.74 754.92,-231.91 749.85,-227.08"/>
</a>
</g>
</g>
<!-- C_iron_ore -->
<g id="iron_ore" class="node">
<title>C_iron_ore</title>
<g id="a_iron_ore"><a xlink:href="cargos.html#iron_ore" xlink:title="Iron Ore" target="_top">
<ellipse fill="none" stroke="black" cx="558.74" cy="-86" rx="43.59" ry="18"/>
<text text-anchor="middle" x="558.74" y="-82.3" font-family="sans-serif" font-size="14.00">Iron Ore</text>
</a>
</g>
</g>
<!-- C_iron_ore&#45;&gt;I_blast_furnace -->
<g id="edge8" class="edge">
<title>C_iron_ore&#45;&gt;I_blast_furnace</title>
<g id="a_edge8"><a xlink:title="Iron Ore &#45;&gt; Blast Furnace">
<path fill="none" stroke="black" d="M602.53,-86C621.22,-86 643.53,-86 664.1,-86"/>
<polygon fill="black" stroke="black" points="664.35,-89.5 674.35,-86 664.35,-82.5 664.35,-89.5"/>
</a>
</g>
</g>
<!-- C_kaolin -->
<g id="kaolin" class="node">
<title>C_kaolin</title>
<g id="a_kaolin"><a xlink:href="cargos.html#kaolin" xlink:title="Kaolin" target="_top">
<ellipse fill="none" stroke="black" cx="558.74" cy="-253" rx="35.19" ry="18"/>
<text text-anchor="middle" x="558.74" y="-249.3" font-family="sans-serif" font-size="14.00">Kaolin</text>
</a>
</g>
</g>
<!-- C_kaolin&#45;&gt;I_port -->
<g id="edge9" class="edge">
<title>C_kaolin&#45;&gt;I_port</title>
<g id="a_edge9"><a xlink:title="Kaolin &#45;&gt; Port">
<path fill="none" stroke="black" d="M594.11,-253.41C622.47,-253.75 662.59,-254.23 691.43,-254.57"/>
<polygon fill="black" stroke="black" points="691.46,-258.07 701.5,-254.69 691.54,-251.07 691.46,-258.07"/>
</a>
</g>
</g>
<!-- C_livestock -->
<g id="livestock" class="node">
<title>C_livestock</title>
<g id="a_livestock"><a xlink:href="cargos.html#livestock" xlink:title="Livestock" target="_top">
<ellipse fill="none" stroke="black" cx="229.45" cy="-431" rx="47.39" ry="18"/>
<text text-anchor="middle" x="229.45" y="-427.3" font-family="sans-serif" font-size="14.00">Livestock</text>
</a>
</g>
</g>
<!-- I_stockyard -->
<g id="stockyard" class="node">
<title>I_stockyard</title>
<g id="a_stockyard"><a xlink:href="industries.html#stockyard" xlink:title="Stockyard" target="_top">
<polygon fill="none" stroke="black" points="431.39,-449 346.39,-449 346.39,-413 431.39,-413 431.39,-449"/>
<text text-anchor="start" x="358.89" y="-426.8" font-family="sans-serif" font-size="14.00">Stockyard</text>
</a>
</g>
</g>
<!-- C_livestock&#45;&gt;I_stockyard -->
<g id="edge10" class="edge">
<title>C_livestock&#45;&gt;I_stockyard</title>
<g id="a_edge10"><a xlink:title="Livestock &#45;&gt; Stockyard">
<path fill="none" stroke="black" d="M277.26,-431C295.77,-431 317.11,-431 336.08,-431"/>
<polygon fill="black" stroke="black" points="336.34,-434.5 346.34,-431 336.34,-427.5 336.34,-434.5"/>
</a>
</g>
</g>
<!-- I_stockyard&#45;&gt;C_food -->
<g id="edge34" class="edge">
<title>I_stockyard&#45;&gt;C_food</title>
<g id="a_edge34"><a xlink:title="Stockyard &#45;&gt; Food">
<path fill="none" stroke="black" d="M431.64,-418.83C444.15,-414.23 457.54,-408.3 468.89,-401 496.05,-383.53 521.64,-356.65 538.32,-337.19"/>
<polygon fill="black" stroke="black" points="541.15,-339.27 544.9,-329.36 535.79,-334.77 541.15,-339.27"/>
</a>
</g>
</g>
<!-- C_milk -->
<g id="milk" class="node">
<title>C_milk</title>
<g id="a_milk"><a xlink:href="cargos.html#milk" xlink:title="Milk" target="_top">
<ellipse fill="none" stroke="black" cx="229.45" cy="-371" rx="27" ry="18"/>
<text text-anchor="middle" x="229.45" y="-367.3" font-family="sans-serif" font-size="14.00">Milk</text>
</a>
</g>
</g>
<!-- I_dairy -->
<g id="dairy" class="node">
<title>I_dairy</title>
<g id="a_dairy"><a xlink:href="industries.html#dairy" xlink:title="Dairy" target="_top">
<polygon fill="none" stroke="black" points="416.89,-389 360.89,-389 360.89,-353 416.89,-353 416.89,-389"/>
<text text-anchor="start" x="372.89" y="-366.8" font-family="sans-serif" font-size="14.00">Dairy</text>
</a>
</g>
</g>
<!-- C_milk&#45;&gt;I_dairy -->
<g id="edge11" class="edge">
<title>C_milk&#45;&gt;I_dairy</title>
<g id="a_edge11"><a xlink:title="Milk &#45;&gt; Dairy">
<path fill="none" stroke="black" d="M256.8,-371C282.45,-371 321.68,-371 350.54,-371"/>
<polygon fill="black" stroke="black" points="350.66,-374.5 360.66,-371 350.66,-367.5 350.66,-374.5"/>
</a>
</g>
</g>
<!-- I_dairy&#45;&gt;C_food -->
<g id="edge19" class="edge">
<title>I_dairy&#45;&gt;C_food</title>
<g id="a_edge19"><a xlink:title="Dairy &#45;&gt; Food">
<path fill="none" stroke="black" d="M417.23,-361.55C445.9,-351.65 491.05,-336.04 522.4,-325.21"/>
<polygon fill="black" stroke="black" points="523.75,-328.45 532.06,-321.87 521.47,-321.83 523.75,-328.45"/>
</a>
</g>
</g>
<!-- C_sand -->
<g id="sand" class="node">
<title>C_sand</title>
<g id="a_sand"><a xlink:href="cargos.html#sand" xlink:title="Sand" target="_top">
<ellipse fill="none" stroke="black" cx="934.17" cy="-376" rx="31.4" ry="18"/>
<text text-anchor="middle" x="934.17" y="-372.3" font-family="sans-serif" font-size="14.00">Sand</text>
</a>
</g>
</g>
<!-- C_sand&#45;&gt;I_glass_works -->
<g id="edge12" class="edge">
<title>C_sand&#45;&gt;I_glass_works</title>
<g id="a_edge12"><a xlink:title="Sand &#45;&gt; Glass Works">
<path fill="none" stroke="black" d="M964.16,-370.23C983.18,-365.59 1008.08,-357.86 1027.76,-346 1055.93,-329.02 1082.21,-301.93 1099.5,-281.9"/>
<polygon fill="black" stroke="black" points="1102.34,-283.96 1106.12,-274.07 1096.99,-279.44 1102.34,-283.96"/>
</a>
</g>
</g>
<!-- C_scrap_metal -->
<g id="scrap_metal" class="node">
<title>C_scrap_metal</title>
<g id="a_scrap_metal"><a xlink:href="cargos.html#scrap_metal" xlink:title="Scrap Metal" target="_top">
<ellipse fill="none" stroke="black" cx="558.74" cy="-26" rx="57.69" ry="18"/>
<text text-anchor="middle" x="558.74" y="-22.3" font-family="sans-serif" font-size="14.00">Scrap Metal</text>
</a>
</g>
</g>
<!-- C_scrap_metal&#45;&gt;I_blast_furnace -->
<g id="edge13" class="edge">
<title>C_scrap_metal&#45;&gt;I_blast_furnace</title>
<g id="a_edge13"><a xlink:title="Scrap Metal &#45;&gt; Blast Furnace">
<path fill="none" stroke="black" d="M597.4,-39.47C618.05,-46.84 644.12,-56.16 667.5,-64.52"/>
<polygon fill="black" stroke="black" points="666.39,-67.84 676.99,-67.91 668.75,-61.25 666.39,-67.84"/>
</a>
</g>
</g>
<!-- C_steel&#45;&gt;I_metal_workshop -->
<g id="edge14" class="edge">
<title>C_steel&#45;&gt;I_metal_workshop</title>
<g id="a_edge14"><a xlink:title="Steel &#45;&gt; Metal Workshop">
<path fill="none" stroke="black" d="M964.91,-86C987.67,-86 1020.03,-86 1049.33,-86"/>
<polygon fill="black" stroke="black" points="1049.54,-89.5 1059.54,-86 1049.54,-82.5 1049.54,-89.5"/>
</a>
</g>
</g>
<!-- I_clay_pit -->
<g id="clay_pit" class="node">
<title>I_clay_pit</title>
<g id="a_clay_pit"><a xlink:href="industries.html#clay_pit" xlink:title="Clay Pit" target="_top">
<polygon fill="none" stroke="black" points="468.89,-269 308.89,-269 308.89,-217 468.89,-217 468.89,-269"/>
<text text-anchor="start" x="365.39" y="-249.8" font-family="sans-serif" font-size="14.00">Clay Pit</text>
<text text-anchor="start" x="320.89" y="-228.8" font-family="sans-serif" font-size="14.00">[Engineering Supplies]</text>
</a>
</g>
</g>
<!-- I_clay_pit&#45;&gt;C_kaolin -->
<g id="edge17" class="edge">
<title>I_clay_pit&#45;&gt;C_kaolin</title>
<g id="a_edge17"><a xlink:title="Clay Pit &#45;&gt; Kaolin">
<path fill="none" stroke="black" d="M468.9,-247.71C484.21,-248.62 499.74,-249.54 513.45,-250.36"/>
<polygon fill="black" stroke="black" points="513.34,-253.86 523.53,-250.96 513.76,-246.87 513.34,-253.86"/>
</a>
</g>
</g>
<!-- I_coal_mine -->
<g id="coal_mine" class="node">
<title>I_coal_mine</title>
<g id="a_coal_mine"><a xlink:href="industries.html#coal_mine" xlink:title="Coal Mine" target="_top">
<polygon fill="none" stroke="black" points="468.89,-188 308.89,-188 308.89,-136 468.89,-136 468.89,-188"/>
<text text-anchor="start" x="357.89" y="-168.8" font-family="sans-serif" font-size="14.00">Coal Mine</text>
<text text-anchor="start" x="320.89" y="-147.8" font-family="sans-serif" font-size="14.00">[Engineering Supplies]</text>
</a>
</g>
</g>
<!-- I_coal_mine&#45;&gt;C_coal -->
<g id="edge18" class="edge">
<title>I_coal_mine&#45;&gt;C_coal</title>
<g id="a_edge18"><a xlink:title="Coal Mine &#45;&gt; Coal">
<path fill="none" stroke="black" d="M468.9,-154.47C486.86,-152.76 505.12,-151.02 520.38,-149.56"/>
<polygon fill="black" stroke="black" points="520.8,-153.04 530.42,-148.6 520.14,-146.07 520.8,-153.04"/>
</a>
</g>
</g>
<!-- I_dairy_farm -->
<g id="dairy_farm" class="node">
<title>I_dairy_farm</title>
<g id="a_dairy_farm"><a xlink:href="industries.html#dairy_farm" xlink:title="Dairy Farm" target="_top">
<polygon fill="none" stroke="black" points="135,-423 15,-423 15,-371 135,-371 135,-423"/>
<text text-anchor="start" x="41" y="-403.8" font-family="sans-serif" font-size="14.00">Dairy Farm</text>
<text text-anchor="start" x="27" y="-382.8" font-family="sans-serif" font-size="14.00">[Farm Supplies]</text>
</a>
</g>
</g>
<!-- I_dairy_farm&#45;&gt;C_livestock -->
<g id="edge20" class="edge">
<title>I_dairy_farm&#45;&gt;C_livestock</title>
<g id="a_edge20"><a xlink:title="Dairy Farm &#45;&gt; Livestock">
<path fill="none" stroke="black" d="M135.38,-410.24C149.64,-413.42 164.73,-416.79 178.51,-419.86"/>
<polygon fill="black" stroke="black" points="177.76,-423.28 188.29,-422.04 179.29,-416.45 177.76,-423.28"/>
</a>
</g>
</g>
<!-- I_dairy_farm&#45;&gt;C_milk -->
<g id="edge21" class="edge">
<title>I_dairy_farm&#45;&gt;C_milk</title>
<g id="a_edge21"><a xlink:title="Dairy Farm &#45;&gt; Milk">
<path fill="none" stroke="black" d="M135.38,-386.87C154.76,-383.57 175.68,-380 192.76,-377.09"/>
<polygon fill="black" stroke="black" points="193.59,-380.5 202.85,-375.36 192.41,-373.6 193.59,-380.5"/>
</a>
</g>
</g>
<!-- I_dredging_site -->
<g id="dredging_site" class="node">
<title>I_dredging_site</title>
<g id="a_dredging_site"><a xlink:href="industries.html#dredging_site" xlink:title="Dredging Site" target="_top">
<polygon fill="none" stroke="black" points="808.58,-402 648.58,-402 648.58,-350 808.58,-350 808.58,-402"/>
<text text-anchor="start" x="687.58" y="-382.8" font-family="sans-serif" font-size="14.00">Dredging Site</text>
<text text-anchor="start" x="660.58" y="-361.8" font-family="sans-serif" font-size="14.00">[Engineering Supplies]</text>
</a>
</g>
</g>
<!-- I_dredging_site&#45;&gt;C_sand -->
<g id="edge22" class="edge">
<title>I_dredging_site&#45;&gt;C_sand</title>
<g id="a_edge22"><a xlink:title="Dredging Site &#45;&gt; Sand">
<path fill="none" stroke="black" d="M808.59,-376C837.31,-376 868.58,-376 892.61,-376"/>
<polygon fill="black" stroke="black" points="892.77,-379.5 902.77,-376 892.77,-372.5 892.77,-379.5"/>
</a>
</g>
</g>
<!-- I_fishing_grounds -->
<g id="fishing_grounds" class="node">
<title>I_fishing_grounds</title>
<g id="a_fishing_grounds"><a xlink:href="industries.html#fishing_grounds" xlink:title="Fishing Grounds" target="_top">
<polygon fill="none" stroke="black" points="137,-329 13,-329 13,-293 137,-293 137,-329"/>
<text text-anchor="start" x="25" y="-306.8" font-family="sans-serif" font-size="14.00">Fishing Grounds</text>
</a>
</g>
</g>
<!-- I_fishing_grounds&#45;&gt;C_fish -->
<g id="edge23" class="edge">
<title>I_fishing_grounds&#45;&gt;C_fish</title>
<g id="a_edge23"><a xlink:title="Fishing Grounds &#45;&gt; Fish">
<path fill="none" stroke="black" d="M137.13,-311C155.61,-311 175.33,-311 191.69,-311"/>
<polygon fill="black" stroke="black" points="191.91,-314.5 201.91,-311 191.91,-307.5 191.91,-314.5"/>
</a>
</g>
</g>
<!-- I_general_store -->
<g id="general_store" class="node">
<title>I_general_store</title>
<g id="a_general_store"><a xlink:href="industries.html#general_store" xlink:title="General Store" target="_top">
<polygon fill="none" stroke="black" points="129.5,-626 20.5,-626 20.5,-532 129.5,-532 129.5,-626"/>
<text text-anchor="start" x="33" y="-606.8" font-family="sans-serif" font-size="14.00">General Store</text>
<text text-anchor="start" x="49.5" y="-585.8" font-family="sans-serif" font-size="14.00">[Alcohol]</text>
<text text-anchor="start" x="56" y="-564.8" font-family="sans-serif" font-size="14.00">[Food]</text>
<text text-anchor="start" x="51" y="-543.8" font-family="sans-serif" font-size="14.00">[Goods]</text>
</a>
</g>
</g>
<!-- I_hotel -->
<g id="hotel" class="node">
<title>I_hotel</title>
<g id="a_hotel"><a xlink:href="industries.html#hotel" xlink:title="Hotel" target="_top">
<polygon fill="none" stroke="black" points="126.5,-765.5 23.5,-765.5 23.5,-650.5 126.5,-650.5 126.5,-765.5"/>
<text text-anchor="start" x="59.5" y="-745.8" font-family="sans-serif" font-size="14.00">Hotel</text>
<text text-anchor="start" x="49.5" y="-724.8" font-family="sans-serif" font-size="14.00">[Alcohol]</text>
<text text-anchor="start" x="56" y="-703.8" font-family="sans-serif" font-size="14.00">[Food]</text>
<text text-anchor="start" x="36" y="-682.8" font-family="sans-serif" font-size="14.00">[Passengers]</text>
<text text-anchor="start" x="36" y="-661.8" font-family="sans-serif" font-size="14.00">[Passengers]</text>
</a>
</g>
</g>
<!-- I_iron_ore_mine -->
<g id="iron_ore_mine" class="node">
<title>I_iron_ore_mine</title>
<g id="a_iron_ore_mine"><a xlink:href="industries.html#iron_ore_mine" xlink:title="Iron Ore Mine" target="_top">
<polygon fill="none" stroke="black" points="468.89,-112 308.89,-112 308.89,-60 468.89,-60 468.89,-112"/>
<text text-anchor="start" x="346.39" y="-92.8" font-family="sans-serif" font-size="14.00">Iron Ore Mine</text>
<text text-anchor="start" x="320.89" y="-71.8" font-family="sans-serif" font-size="14.00">[Engineering Supplies]</text>
</a>
</g>
</g>
<!-- I_iron_ore_mine&#45;&gt;C_iron_ore -->
<g id="edge26" class="edge">
<title>I_iron_ore_mine&#45;&gt;C_iron_ore</title>
<g id="a_edge26"><a xlink:title="Iron Ore Mine &#45;&gt; Iron Ore">
<path fill="none" stroke="black" d="M468.9,-86C481.01,-86 493.25,-86 504.62,-86"/>
<polygon fill="black" stroke="black" points="504.79,-89.5 514.79,-86 504.79,-82.5 504.79,-89.5"/>
</a>
</g>
</g>
<!-- I_orchard_piggery -->
<g id="orchard_piggery" class="node">
<title>I_orchard_piggery</title>
<g id="a_orchard_piggery"><a xlink:href="industries.html#orchard_piggery" xlink:title="Orchard and Piggery" target="_top">
<polygon fill="none" stroke="black" points="150,-508 0,-508 0,-456 150,-456 150,-508"/>
<text text-anchor="start" x="12" y="-488.8" font-family="sans-serif" font-size="14.00">Orchard and Piggery</text>
<text text-anchor="start" x="27" y="-467.8" font-family="sans-serif" font-size="14.00">[Farm Supplies]</text>
</a>
</g>
</g>
<!-- I_orchard_piggery&#45;&gt;C_fruits -->
<g id="edge28" class="edge">
<title>I_orchard_piggery&#45;&gt;C_fruits</title>
<g id="a_edge28"><a xlink:title="Orchard and Piggery &#45;&gt; Fruit">
<path fill="none" stroke="black" d="M150.44,-486.39C164.35,-487.22 178.34,-488.04 190.56,-488.76"/>
<polygon fill="black" stroke="black" points="190.6,-492.27 200.79,-489.37 191.01,-485.28 190.6,-492.27"/>
</a>
</g>
</g>
<!-- I_orchard_piggery&#45;&gt;C_livestock -->
<g id="edge29" class="edge">
<title>I_orchard_piggery&#45;&gt;C_livestock</title>
<g id="a_edge29"><a xlink:title="Orchard and Piggery &#45;&gt; Livestock">
<path fill="none" stroke="black" d="M150.44,-457.1C161.78,-453.3 173.17,-449.49 183.61,-446"/>
<polygon fill="black" stroke="black" points="184.93,-449.25 193.3,-442.76 182.7,-442.61 184.93,-449.25"/>
</a>
</g>
</g>
<!-- I_junk_yard -->
<g id="junk_yard" class="node">
<title>I_junk_yard</title>
<g id="a_junk_yard"><a xlink:href="industries.html#junk_yard" xlink:title="Scrap Yard" target="_top">
<polygon fill="none" stroke="black" points="434.89,-36 342.89,-36 342.89,0 434.89,0 434.89,-36"/>
<text text-anchor="start" x="354.89" y="-13.8" font-family="sans-serif" font-size="14.00">Scrap Yard</text>
</a>
</g>
</g>
<!-- I_junk_yard&#45;&gt;C_scrap_metal -->
<g id="edge33" class="edge">
<title>I_junk_yard&#45;&gt;C_scrap_metal</title>
<g id="a_edge33"><a xlink:title="Scrap Yard &#45;&gt; Scrap Metal">
<path fill="none" stroke="black" d="M435.31,-20.16C452.59,-20.99 472.66,-21.94 491.48,-22.84"/>
<polygon fill="black" stroke="black" points="491.33,-26.34 501.48,-23.32 491.66,-19.35 491.33,-26.34"/>
</a>
</g>
</g>
</g>
</svg>
