<?xml version="1.0" encoding="UTF-8" standalone="no"?>
<?xml-stylesheet href="static/css/cargoflow_styles.css" type="text/css"?>
<!DOCTYPE svg PUBLIC "-//W3C//DTD SVG 1.1//EN"
 "http://www.w3.org/Graphics/SVG/1.1/DTD/svg11.dtd">
<!-- Generated by graphviz version 2.44.1 (20200629.0846)
 -->
<!-- Title: temperate_basic Pages: 1 -->
<svg width="2155pt" height="2515pt"
 viewBox="0.00 0.00 2155.00 2515.00" xmlns="http://www.w3.org/2000/svg" xmlns:xlink="http://www.w3.org/1999/xlink">
<g id="page0,1_graph0" class="graph" transform="scale(1 1) rotate(0) translate(4 2511)">
<title>temperate_basic</title>
<g id="a_page0,1_graph0"><a xlink:title="Temperate Basic">
<polygon fill="white" stroke="transparent" points="-4,4 -4,-2511 2151,-2511 2151,4 -4,4"/>
</a>
</g>
<g id="clust2" class="cluster">
<title>cluster_town_industries</title>
<g id="a_clust2"><a xlink:title="Temperate Basic">
<polygon fill="#e0eeee" stroke="#e0eeee" stroke-width="5" points="1805,-1707 1805,-2499 2139,-2499 2139,-1707 1805,-1707"/>
</a>
</g>
</g>
<!-- I_port -->
<g id="port" class="node">
<title>I_port</title>
<g id="a_port"><a xlink:href="industries.html#port" xlink:title="Port" target="_top">
<polygon fill="white" stroke="transparent" points="1821,-1234 1821,-1502 2123,-1502 2123,-1234 1821,-1234"/>
<polygon fill="none" stroke="#c1cdcd" points="1821,-1335 1821,-1502 2123,-1502 2123,-1335 1821,-1335"/>
<image xlink:href="static/img/industries/port.png" width="300px" height="165px" preserveAspectRatio="xMinYMin meet" x="1822" y="-1501"/>
<polygon fill="none" stroke="#c1cdcd" points="1821,-1234 1821,-1335 2123,-1335 2123,-1234 1821,-1234"/>
<polygon fill="ghostwhite" stroke="transparent" points="1822,-1235 1822,-1334 2122,-1334 2122,-1235 1822,-1235"/>
<text text-anchor="start" x="1942.5" y="-1303.4" font-family="sans-serif" font-size="32.00">Port</text>
<text text-anchor="start" x="1831.5" y="-1273" font-family="sans-serif" font-size="20.00">Produces Engineering Supplies</text>
<text text-anchor="start" x="1862" y="-1246" font-family="sans-serif" font-size="20.00">Produces Farm Supplies</text>
</a>
</g>
</g>
<!-- C_chemicals -->
<g id="chemicals" class="node">
<title>C_chemicals</title>
<g id="a_chemicals"><a xlink:href="cargos.html#chemicals" xlink:title="Chemicals" target="_top">
<polygon fill="#602c03" stroke="#602c03" points="1185,-1606.5 1019,-1606.5 1019,-1563.5 1185,-1563.5 1185,-1606.5"/>
<text text-anchor="middle" x="1102" y="-1576.9" font-family="sans-serif" font-size="32.00" fill="white">Chemicals</text>
</a>
</g>
</g>
<!-- I_port&#45;&gt;C_chemicals -->
<g id="edge33" class="edge">
<title>I_port&#45;&gt;C_chemicals</title>
<g id="a_edge33"><a xlink:title="Port &#45;&gt; Chemicals">
<path fill="none" stroke="#602c03" stroke-width="5" d="M1812.97,-1407.06C1666.45,-1443.35 1442.42,-1498.99 1248,-1548 1227.59,-1553.14 1205.59,-1558.74 1185.03,-1563.98"/>
</a>
</g>
</g>
<!-- T_town_industries -->
<g id="node2" class="node">
<title>T_town_industries</title>
<text text-anchor="middle" x="1972" y="-2460.9" font-family="sans-serif" font-size="32.00">Town Industries</text>
</g>
<!-- I_general_store -->
<g id="general_store" class="node">
<title>I_general_store</title>
<g id="a_general_store"><a xlink:href="industries.html#general_store" xlink:title="General Store" target="_top">
<polygon fill="white" stroke="transparent" points="1821,-2085.5 1821,-2380.5 2123,-2380.5 2123,-2085.5 1821,-2085.5"/>
<polygon fill="none" stroke="#c1cdcd" points="1821,-2213 1821,-2380 2123,-2380 2123,-2213 1821,-2213"/>
<image xlink:href="static/img/industries/general_store.png" width="300px" height="165px" preserveAspectRatio="xMinYMin meet" x="1822" y="-2379"/>
<polygon fill="none" stroke="#c1cdcd" points="1821,-2085 1821,-2213 2123,-2213 2123,-2085 1821,-2085"/>
<polygon fill="ghostwhite" stroke="transparent" points="1822,-2086 1822,-2212 2122,-2212 2122,-2086 1822,-2086"/>
<text text-anchor="start" x="1872" y="-2181.4" font-family="sans-serif" font-size="32.00">General Store</text>
<text text-anchor="start" x="1896.5" y="-2151" font-family="sans-serif" font-size="20.00">Requires Alcohol</text>
<text text-anchor="start" x="1906" y="-2124" font-family="sans-serif" font-size="20.00">Requires Food</text>
<text text-anchor="start" x="1899.5" y="-2097" font-family="sans-serif" font-size="20.00">Requires Goods</text>
</a>
</g>
</g>
<!-- I_hotel -->
<g id="hotel" class="node">
<title>I_hotel</title>
<g id="a_hotel"><a xlink:href="industries.html#hotel" xlink:title="Hotel" target="_top">
<polygon fill="white" stroke="transparent" points="1821,-1719.5 1821,-2014.5 2123,-2014.5 2123,-1719.5 1821,-1719.5"/>
<polygon fill="none" stroke="#c1cdcd" points="1821,-1847 1821,-2014 2123,-2014 2123,-1847 1821,-1847"/>
<image xlink:href="static/img/industries/hotel.png" width="300px" height="165px" preserveAspectRatio="xMinYMin meet" x="1822" y="-2013"/>
<polygon fill="none" stroke="#c1cdcd" points="1821,-1719 1821,-1847 2123,-1847 2123,-1719 1821,-1719"/>
<polygon fill="ghostwhite" stroke="transparent" points="1822,-1720 1822,-1846 2122,-1846 2122,-1720 1822,-1720"/>
<text text-anchor="start" x="1934" y="-1815.4" font-family="sans-serif" font-size="32.00">Hotel</text>
<text text-anchor="start" x="1896.5" y="-1785" font-family="sans-serif" font-size="20.00">Requires Alcohol</text>
<text text-anchor="start" x="1906" y="-1758" font-family="sans-serif" font-size="20.00">Requires Food</text>
<text text-anchor="start" x="1876" y="-1731" font-family="sans-serif" font-size="20.00">Requires Passengers</text>
</a>
</g>
</g>
<!-- C_alcohol -->
<g id="alcohol" class="node">
<title>C_alcohol</title>
<g id="a_alcohol"><a xlink:href="cargos.html#alcohol" xlink:title="Alcohol" target="_top">
<polygon fill="#a80000" stroke="#a80000" points="1750,-132.5 1629,-132.5 1629,-89.5 1750,-89.5 1750,-132.5"/>
<text text-anchor="middle" x="1689.5" y="-102.9" font-family="sans-serif" font-size="32.00" fill="white">Alcohol</text>
</a>
</g>
</g>
<!-- T_towns_alcohol -->
<g id="node6" class="node">
<title>T_towns_alcohol</title>
<polygon fill="none" stroke="#a80000" stroke-width="5" stroke-dasharray="5,2" points="2041.5,-152.5 1902.5,-152.5 1902.5,-69.5 2041.5,-69.5 2041.5,-152.5"/>
<text text-anchor="middle" x="1972" y="-102.9" font-family="sans-serif" font-size="32.00" fill="#a80000">Towns</text>
</g>
<!-- C_alcohol&#45;&gt;T_towns_alcohol -->
<g id="edge1" class="edge">
<title>C_alcohol&#45;&gt;T_towns_alcohol</title>
<path fill="none" stroke="#a80000" stroke-width="5" stroke-dasharray="5,2" d="M1750.33,-111C1788.72,-111 1839.25,-111 1882.27,-111"/>
<polygon fill="#a80000" stroke="#a80000" stroke-width="5" points="1882.38,-119.75 1902.38,-111 1882.38,-102.25 1882.38,-119.75"/>
</g>
<!-- I_glass_works -->
<g id="glass_works" class="node">
<title>I_glass_works</title>
<g id="a_glass_works"><a xlink:href="industries.html#glass_works" xlink:title="Glass Works" target="_top">
<polygon fill="white" stroke="transparent" points="1256,-1584 1256,-1798 1558,-1798 1558,-1584 1256,-1584"/>
<polygon fill="none" stroke="#c1cdcd" points="1256,-1631 1256,-1798 1558,-1798 1558,-1631 1256,-1631"/>
<image xlink:href="static/img/industries/glass_works.png" width="300px" height="165px" preserveAspectRatio="xMinYMin meet" x="1257" y="-1797"/>
<polygon fill="none" stroke="#c1cdcd" points="1256,-1584 1256,-1631 1558,-1631 1558,-1584 1256,-1584"/>
<polygon fill="ghostwhite" stroke="transparent" points="1257,-1585 1257,-1630 1557,-1630 1557,-1585 1257,-1585"/>
<text text-anchor="start" x="1317" y="-1599.4" font-family="sans-serif" font-size="32.00">Glass Works</text>
</a>
</g>
</g>
<!-- C_chemicals&#45;&gt;I_glass_works -->
<g id="edge2" class="edge">
<title>C_chemicals&#45;&gt;I_glass_works</title>
<g id="a_edge2"><a xlink:title="Chemicals &#45;&gt; Glass Works">
<path fill="none" stroke="#602c03" stroke-width="5" d="M1164.68,-1606.58C1183.84,-1613.28 1205.99,-1621.03 1228.95,-1629.06"/>
<polygon fill="#602c03" stroke="#602c03" stroke-width="5" points="1226.17,-1637.36 1247.94,-1635.7 1231.95,-1620.84 1226.17,-1637.36"/>
</a>
</g>
</g>
<!-- I_metal_workshop -->
<g id="metal_workshop" class="node">
<title>I_metal_workshop</title>
<g id="a_metal_workshop"><a xlink:href="industries.html#metal_workshop" xlink:title="Metal Workshop" target="_top">
<polygon fill="white" stroke="transparent" points="1256,-1869 1256,-2083 1558,-2083 1558,-1869 1256,-1869"/>
<polygon fill="none" stroke="#c1cdcd" points="1256,-1916 1256,-2083 1558,-2083 1558,-1916 1256,-1916"/>
<image xlink:href="static/img/industries/metal_workshop.png" width="300px" height="165px" preserveAspectRatio="xMinYMin meet" x="1257" y="-2082"/>
<polygon fill="none" stroke="#c1cdcd" points="1256,-1869 1256,-1916 1558,-1916 1558,-1869 1256,-1869"/>
<polygon fill="ghostwhite" stroke="transparent" points="1257,-1870 1257,-1915 1557,-1915 1557,-1870 1257,-1870"/>
<text text-anchor="start" x="1291" y="-1884.4" font-family="sans-serif" font-size="32.00">Metal Workshop</text>
</a>
</g>
</g>
<!-- C_chemicals&#45;&gt;I_metal_workshop -->
<g id="edge3" class="edge">
<title>C_chemicals&#45;&gt;I_metal_workshop</title>
<g id="a_edge3"><a xlink:title="Chemicals &#45;&gt; Metal Workshop">
<path fill="none" stroke="#602c03" stroke-width="5" d="M1148.31,-1606.62C1161.68,-1614.85 1175.31,-1625.35 1185,-1638 1240.67,-1710.62 1198.25,-1757.21 1248,-1834 1251.2,-1838.93 1254.61,-1843.8 1258.19,-1848.6"/>
<polygon fill="#602c03" stroke="#602c03" stroke-width="5" points="1251.67,-1854.45 1271,-1864.59 1265.33,-1843.51 1251.67,-1854.45"/>
</a>
</g>
</g>
<!-- C_goods -->
<g id="goods" class="node">
<title>C_goods</title>
<g id="a_goods"><a xlink:href="cargos.html#goods" xlink:title="Goods" target="_top">
<polygon fill="#a84b60" stroke="#a84b60" points="1745,-1627.5 1634,-1627.5 1634,-1584.5 1745,-1584.5 1745,-1627.5"/>
<text text-anchor="middle" x="1689.5" y="-1597.9" font-family="sans-serif" font-size="32.00" fill="white">Goods</text>
</a>
</g>
</g>
<!-- I_glass_works&#45;&gt;C_goods -->
<g id="edge28" class="edge">
<title>I_glass_works&#45;&gt;C_goods</title>
<g id="a_edge28"><a xlink:title="Glass Works &#45;&gt; Goods">
<path fill="none" stroke="#a84b60" stroke-width="5" d="M1566.28,-1643.03C1590.52,-1635.69 1614.02,-1628.57 1633.83,-1622.57"/>
</a>
</g>
</g>
<!-- I_metal_workshop&#45;&gt;C_goods -->
<g id="edge30" class="edge">
<title>I_metal_workshop&#45;&gt;C_goods</title>
<g id="a_edge30"><a xlink:title="Metal Workshop &#45;&gt; Goods">
<path fill="none" stroke="#a84b60" stroke-width="5" d="M1539.33,-1864.77C1548.78,-1854.75 1557.8,-1844.44 1566,-1834 1619.85,-1765.45 1662.43,-1669.86 1679.9,-1627.58"/>
</a>
</g>
</g>
<!-- C_coal -->
<g id="coal" class="node">
<title>C_coal</title>
<g id="a_coal"><a xlink:href="cargos.html#coal" xlink:title="Coal" target="_top">
<polygon fill="#a86052" stroke="#a86052" points="516.5,-2110.5 433.5,-2110.5 433.5,-2067.5 516.5,-2067.5 516.5,-2110.5"/>
<text text-anchor="middle" x="475" y="-2080.9" font-family="sans-serif" font-size="32.00" fill="white">Coal</text>
</a>
</g>
</g>
<!-- I_blast_furnace -->
<g id="blast_furnace" class="node">
<title>I_blast_furnace</title>
<g id="a_blast_furnace"><a xlink:href="industries.html#blast_furnace" xlink:title="Steel Mill" target="_top">
<polygon fill="white" stroke="transparent" points="643,-1876 643,-2090 945,-2090 945,-1876 643,-1876"/>
<polygon fill="none" stroke="#c1cdcd" points="643,-1923 643,-2090 945,-2090 945,-1923 643,-1923"/>
<image xlink:href="static/img/industries/blast_furnace.png" width="300px" height="165px" preserveAspectRatio="xMinYMin meet" x="644" y="-2089"/>
<polygon fill="none" stroke="#c1cdcd" points="643,-1876 643,-1923 945,-1923 945,-1876 643,-1876"/>
<polygon fill="ghostwhite" stroke="transparent" points="644,-1877 644,-1922 944,-1922 944,-1877 644,-1877"/>
<text text-anchor="start" x="729" y="-1891.4" font-family="sans-serif" font-size="32.00">Steel Mill</text>
</a>
</g>
</g>
<!-- C_coal&#45;&gt;I_blast_furnace -->
<g id="edge4" class="edge">
<title>C_coal&#45;&gt;I_blast_furnace</title>
<g id="a_edge4"><a xlink:title="Coal &#45;&gt; Steel Mill">
<path fill="none" stroke="#a86052" stroke-width="5" d="M516.79,-2075.36C542.84,-2066.65 578.6,-2054.69 615.76,-2042.27"/>
<polygon fill="#a86052" stroke="#a86052" stroke-width="5" points="618.78,-2050.48 634.97,-2035.84 613.23,-2033.89 618.78,-2050.48"/>
</a>
</g>
</g>
<!-- C_steel -->
<g id="steel" class="node">
<title>C_steel</title>
<g id="a_steel"><a xlink:href="cargos.html#steel" xlink:title="Steel" target="_top">
<polygon fill="#7d70a8" stroke="#7d70a8" points="1146.5,-1997.5 1057.5,-1997.5 1057.5,-1954.5 1146.5,-1954.5 1146.5,-1997.5"/>
<text text-anchor="middle" x="1102" y="-1967.9" font-family="sans-serif" font-size="32.00" fill="white">Steel</text>
</a>
</g>
</g>
<!-- I_blast_furnace&#45;&gt;C_steel -->
<g id="edge18" class="edge">
<title>I_blast_furnace&#45;&gt;C_steel</title>
<g id="a_edge18"><a xlink:title="Steel Mill &#45;&gt; Steel">
<path fill="none" stroke="#7d70a8" stroke-width="5" d="M953.38,-1979.38C991.73,-1978.5 1029.63,-1977.63 1057.43,-1977"/>
</a>
</g>
</g>
<!-- C_fish -->
<g id="fish" class="node">
<title>C_fish</title>
<g id="a_fish"><a xlink:href="cargos.html#fish" xlink:title="Fish" target="_top">
<polygon fill="#5d45a8" stroke="#5d45a8" points="1140.5,-987.5 1063.5,-987.5 1063.5,-944.5 1140.5,-944.5 1140.5,-987.5"/>
<text text-anchor="middle" x="1102" y="-957.9" font-family="sans-serif" font-size="32.00" fill="white">Fish</text>
</a>
</g>
</g>
<!-- I_fishing_harbour -->
<g id="fishing_harbour" class="node">
<title>I_fishing_harbour</title>
<g id="a_fishing_harbour"><a xlink:href="industries.html#fishing_harbour" xlink:title="Fishing Harbour" target="_top">
<polygon fill="white" stroke="transparent" points="1256,-859 1256,-1073 1558,-1073 1558,-859 1256,-859"/>
<polygon fill="none" stroke="#c1cdcd" points="1256,-906 1256,-1073 1558,-1073 1558,-906 1256,-906"/>
<image xlink:href="static/img/industries/fishing_harbour.png" width="300px" height="165px" preserveAspectRatio="xMinYMin meet" x="1257" y="-1072"/>
<polygon fill="none" stroke="#c1cdcd" points="1256,-859 1256,-906 1558,-906 1558,-859 1256,-859"/>
<polygon fill="ghostwhite" stroke="transparent" points="1257,-860 1257,-905 1557,-905 1557,-860 1257,-860"/>
<text text-anchor="start" x="1292.5" y="-874.4" font-family="sans-serif" font-size="32.00">Fishing Harbour</text>
</a>
</g>
</g>
<!-- C_fish&#45;&gt;I_fishing_harbour -->
<g id="edge5" class="edge">
<title>C_fish&#45;&gt;I_fishing_harbour</title>
<g id="a_edge5"><a xlink:title="Fish &#45;&gt; Fishing Harbour">
<path fill="none" stroke="#5d45a8" stroke-width="5" d="M1140.76,-966C1163.73,-966 1194.91,-966 1227.83,-966"/>
<polygon fill="#5d45a8" stroke="#5d45a8" stroke-width="5" points="1227.93,-974.75 1247.93,-966 1227.93,-957.25 1227.93,-974.75"/>
</a>
</g>
</g>
<!-- C_food -->
<g id="food" class="node">
<title>C_food</title>
<g id="a_food"><a xlink:href="cargos.html#food" xlink:title="Food" target="_top">
<polygon fill="#a84800" stroke="#a84800" points="1734.5,-1066.5 1644.5,-1066.5 1644.5,-1023.5 1734.5,-1023.5 1734.5,-1066.5"/>
<text text-anchor="middle" x="1689.5" y="-1036.9" font-family="sans-serif" font-size="32.00" fill="white">Food</text>
</a>
</g>
</g>
<!-- I_fishing_harbour&#45;&gt;C_food -->
<g id="edge27" class="edge">
<title>I_fishing_harbour&#45;&gt;C_food</title>
<g id="a_edge27"><a xlink:title="Fishing Harbour &#45;&gt; Food">
<path fill="none" stroke="#a84800" stroke-width="5" d="M1566.28,-1010.58C1594.99,-1018.66 1622.67,-1026.46 1644.41,-1032.58"/>
</a>
</g>
</g>
<!-- C_food&#45;&gt;I_port -->
<g id="edge6" class="edge">
<title>C_food&#45;&gt;I_port</title>
<g id="a_edge6"><a xlink:title="Food &#45;&gt; Port">
<path fill="none" stroke="#a84800" stroke-width="5" d="M1709.34,-1066.69C1736.06,-1097.47 1787.32,-1156.49 1837.44,-1214.2"/>
<polygon fill="#a84800" stroke="#a84800" stroke-width="5" points="1831.11,-1220.26 1850.83,-1229.62 1844.32,-1208.78 1831.11,-1220.26"/>
</a>
</g>
</g>
<!-- T_towns_food -->
<g id="node15" class="node">
<title>T_towns_food</title>
<polygon fill="none" stroke="#a84800" stroke-width="5" stroke-dasharray="5,2" points="2041.5,-1086.5 1902.5,-1086.5 1902.5,-1003.5 2041.5,-1003.5 2041.5,-1086.5"/>
<text text-anchor="middle" x="1972" y="-1036.9" font-family="sans-serif" font-size="32.00" fill="#a84800">Towns</text>
</g>
<!-- C_food&#45;&gt;T_towns_food -->
<g id="edge7" class="edge">
<title>C_food&#45;&gt;T_towns_food</title>
<path fill="none" stroke="#a84800" stroke-width="5" stroke-dasharray="5,2" d="M1734.64,-1045C1774.08,-1045 1833.05,-1045 1882.23,-1045"/>
<polygon fill="#a84800" stroke="#a84800" stroke-width="5" points="1882.27,-1053.75 1902.27,-1045 1882.27,-1036.25 1882.27,-1053.75"/>
</g>
<!-- C_fruits -->
<g id="fruits" class="node">
<title>C_fruits</title>
<g id="a_fruits"><a xlink:href="cargos.html#fruits" xlink:title="Fruit" target="_top">
<polygon fill="#a88000" stroke="#a88000" points="1142,-261.5 1062,-261.5 1062,-218.5 1142,-218.5 1142,-261.5"/>
<text text-anchor="middle" x="1102" y="-231.9" font-family="sans-serif" font-size="32.00" fill="white">Fruit</text>
</a>
</g>
</g>
<!-- I_brewery -->
<g id="brewery" class="node">
<title>I_brewery</title>
<g id="a_brewery"><a xlink:href="industries.html#brewery" xlink:title="Cider Mill" target="_top">
<polygon fill="white" stroke="transparent" points="1256,-4 1256,-218 1558,-218 1558,-4 1256,-4"/>
<polygon fill="none" stroke="#c1cdcd" points="1256,-51 1256,-218 1558,-218 1558,-51 1256,-51"/>
<image xlink:href="static/img/industries/brewery.png" width="300px" height="165px" preserveAspectRatio="xMinYMin meet" x="1257" y="-217"/>
<polygon fill="none" stroke="#c1cdcd" points="1256,-4 1256,-51 1558,-51 1558,-4 1256,-4"/>
<polygon fill="ghostwhite" stroke="transparent" points="1257,-5 1257,-50 1557,-50 1557,-5 1257,-5"/>
<text text-anchor="start" x="1340.5" y="-19.4" font-family="sans-serif" font-size="32.00">Cider Mill</text>
</a>
</g>
</g>
<!-- C_fruits&#45;&gt;I_brewery -->
<g id="edge8" class="edge">
<title>C_fruits&#45;&gt;I_brewery</title>
<g id="a_edge8"><a xlink:title="Fruit &#45;&gt; Cider Mill">
<path fill="none" stroke="#a88000" stroke-width="5" d="M1142.3,-223.27C1165.36,-213.45 1196.32,-200.27 1228.9,-186.4"/>
<polygon fill="#a88000" stroke="#a88000" stroke-width="5" points="1232.7,-194.29 1247.68,-178.4 1225.85,-178.19 1232.7,-194.29"/>
</a>
</g>
</g>
<!-- I_brewery&#45;&gt;C_alcohol -->
<g id="edge19" class="edge">
<title>I_brewery&#45;&gt;C_alcohol</title>
<g id="a_edge19"><a xlink:title="Cider Mill &#45;&gt; Alcohol">
<path fill="none" stroke="#a80000" stroke-width="5" d="M1566.28,-111C1588.53,-111 1610.16,-111 1628.88,-111"/>
</a>
</g>
</g>
<!-- C_goods&#45;&gt;I_port -->
<g id="edge9" class="edge">
<title>C_goods&#45;&gt;I_port</title>
<g id="a_edge9"><a xlink:title="Goods &#45;&gt; Port">
<path fill="none" stroke="#a84b60" stroke-width="5" d="M1715.89,-1584.46C1735.8,-1567.57 1765.43,-1542.42 1797.53,-1515.19"/>
<polygon fill="#a84b60" stroke="#a84b60" stroke-width="5" points="1803.35,-1521.73 1812.94,-1502.11 1792.03,-1508.38 1803.35,-1521.73"/>
</a>
</g>
</g>
<!-- T_towns_goods -->
<g id="node19" class="node">
<title>T_towns_goods</title>
<polygon fill="none" stroke="#a84b60" stroke-width="5" stroke-dasharray="5,2" points="2041.5,-1652.5 1902.5,-1652.5 1902.5,-1569.5 2041.5,-1569.5 2041.5,-1652.5"/>
<text text-anchor="middle" x="1972" y="-1602.9" font-family="sans-serif" font-size="32.00" fill="#a84b60">Towns</text>
</g>
<!-- C_goods&#45;&gt;T_towns_goods -->
<g id="edge10" class="edge">
<title>C_goods&#45;&gt;T_towns_goods</title>
<path fill="none" stroke="#a84b60" stroke-width="5" stroke-dasharray="5,2" d="M1745.25,-1606.98C1784.24,-1607.67 1837.48,-1608.62 1882.47,-1609.42"/>
<polygon fill="#a84b60" stroke="#a84b60" stroke-width="5" points="1882.33,-1618.17 1902.48,-1609.78 1882.64,-1600.67 1882.33,-1618.17"/>
</g>
<!-- C_iron_ore -->
<g id="iron_ore" class="node">
<title>C_iron_ore</title>
<g id="a_iron_ore"><a xlink:href="cargos.html#iron_ore" xlink:title="Iron Ore" target="_top">
<polygon fill="#74581c" stroke="#74581c" points="542,-2004.5 408,-2004.5 408,-1961.5 542,-1961.5 542,-2004.5"/>
<text text-anchor="middle" x="475" y="-1974.9" font-family="sans-serif" font-size="32.00" fill="white">Iron Ore</text>
</a>
</g>
</g>
<!-- C_iron_ore&#45;&gt;I_blast_furnace -->
<g id="edge11" class="edge">
<title>C_iron_ore&#45;&gt;I_blast_furnace</title>
<g id="a_edge11"><a xlink:title="Iron Ore &#45;&gt; Steel Mill">
<path fill="none" stroke="#74581c" stroke-width="5" d="M542.07,-1983C563.65,-1983 588.75,-1983 614.56,-1983"/>
<polygon fill="#74581c" stroke="#74581c" stroke-width="5" points="614.88,-1991.75 634.88,-1983 614.88,-1974.25 614.88,-1991.75"/>
</a>
</g>
</g>
<!-- C_kaolin -->
<g id="kaolin" class="node">
<title>C_kaolin</title>
<g id="a_kaolin"><a xlink:href="cargos.html#kaolin" xlink:title="Kaolin" target="_top">
<polygon fill="#882034" stroke="#882034" points="1742,-1389.5 1637,-1389.5 1637,-1346.5 1742,-1346.5 1742,-1389.5"/>
<text text-anchor="middle" x="1689.5" y="-1359.9" font-family="sans-serif" font-size="32.00" fill="white">Kaolin</text>
</a>
</g>
</g>
<!-- C_kaolin&#45;&gt;I_port -->
<g id="edge12" class="edge">
<title>C_kaolin&#45;&gt;I_port</title>
<g id="a_edge12"><a xlink:title="Kaolin &#45;&gt; Port">
<path fill="none" stroke="#882034" stroke-width="5" d="M1742.27,-1368C1757.27,-1368 1774.55,-1368 1792.75,-1368"/>
<polygon fill="#882034" stroke="#882034" stroke-width="5" points="1792.8,-1376.75 1812.8,-1368 1792.8,-1359.25 1792.8,-1376.75"/>
</a>
</g>
</g>
<!-- C_livestock -->
<g id="livestock" class="node">
<title>C_livestock</title>
<g id="a_livestock"><a xlink:href="cargos.html#livestock" xlink:title="Livestock" target="_top">
<polygon fill="#004ca8" stroke="#004ca8" points="1176.5,-417.5 1027.5,-417.5 1027.5,-374.5 1176.5,-374.5 1176.5,-417.5"/>
<text text-anchor="middle" x="1102" y="-387.9" font-family="sans-serif" font-size="32.00" fill="white">Livestock</text>
</a>
</g>
</g>
<!-- I_stockyard -->
<g id="stockyard" class="node">
<title>I_stockyard</title>
<g id="a_stockyard"><a xlink:href="industries.html#stockyard" xlink:title="Stockyard" target="_top">
<polygon fill="white" stroke="transparent" points="1256,-289 1256,-503 1558,-503 1558,-289 1256,-289"/>
<polygon fill="none" stroke="#c1cdcd" points="1256,-336 1256,-503 1558,-503 1558,-336 1256,-336"/>
<image xlink:href="static/img/industries/stockyard.png" width="300px" height="165px" preserveAspectRatio="xMinYMin meet" x="1257" y="-502"/>
<polygon fill="none" stroke="#c1cdcd" points="1256,-289 1256,-336 1558,-336 1558,-289 1256,-289"/>
<polygon fill="ghostwhite" stroke="transparent" points="1257,-290 1257,-335 1557,-335 1557,-290 1257,-290"/>
<text text-anchor="start" x="1336" y="-304.4" font-family="sans-serif" font-size="32.00">Stockyard</text>
</a>
</g>
</g>
<!-- C_livestock&#45;&gt;I_stockyard -->
<g id="edge13" class="edge">
<title>C_livestock&#45;&gt;I_stockyard</title>
<g id="a_edge13"><a xlink:title="Livestock &#45;&gt; Stockyard">
<path fill="none" stroke="#004ca8" stroke-width="5" d="M1176.73,-396C1192.6,-396 1210.03,-396 1227.97,-396"/>
<polygon fill="#004ca8" stroke="#004ca8" stroke-width="5" points="1227.99,-404.75 1247.99,-396 1227.99,-387.25 1227.99,-404.75"/>
</a>
</g>
</g>
<!-- I_stockyard&#45;&gt;C_food -->
<g id="edge35" class="edge">
<title>I_stockyard&#45;&gt;C_food</title>
<g id="a_edge35"><a xlink:title="Stockyard &#45;&gt; Food">
<path fill="none" stroke="#a84800" stroke-width="5" d="M1544.25,-507.3C1552.29,-517.12 1559.67,-527.39 1566,-538 1665.86,-705.39 1684.4,-949.73 1687.77,-1023.27"/>
</a>
</g>
</g>
<!-- C_milk -->
<g id="milk" class="node">
<title>C_milk</title>
<g id="a_milk"><a xlink:href="cargos.html#milk" xlink:title="Milk" target="_top">
<polygon fill="#505050" stroke="#505050" points="1138.5,-573.5 1065.5,-573.5 1065.5,-530.5 1138.5,-530.5 1138.5,-573.5"/>
<text text-anchor="middle" x="1102" y="-543.9" font-family="sans-serif" font-size="32.00" fill="white">Milk</text>
</a>
</g>
</g>
<!-- I_dairy -->
<g id="dairy" class="node">
<title>I_dairy</title>
<g id="a_dairy"><a xlink:href="industries.html#dairy" xlink:title="Dairy" target="_top">
<polygon fill="white" stroke="transparent" points="1256,-574 1256,-788 1558,-788 1558,-574 1256,-574"/>
<polygon fill="none" stroke="#c1cdcd" points="1256,-621 1256,-788 1558,-788 1558,-621 1256,-621"/>
<image xlink:href="static/img/industries/dairy.png" width="300px" height="165px" preserveAspectRatio="xMinYMin meet" x="1257" y="-787"/>
<polygon fill="none" stroke="#c1cdcd" points="1256,-574 1256,-621 1558,-621 1558,-574 1256,-574"/>
<polygon fill="ghostwhite" stroke="transparent" points="1257,-575 1257,-620 1557,-620 1557,-575 1257,-575"/>
<text text-anchor="start" x="1369.5" y="-589.4" font-family="sans-serif" font-size="32.00">Dairy</text>
</a>
</g>
</g>
<!-- C_milk&#45;&gt;I_dairy -->
<g id="edge14" class="edge">
<title>C_milk&#45;&gt;I_dairy</title>
<g id="a_edge14"><a xlink:title="Milk &#45;&gt; Dairy">
<path fill="none" stroke="#505050" stroke-width="5" d="M1138.65,-567.18C1162.12,-577.17 1194.79,-591.08 1229.26,-605.75"/>
<polygon fill="#505050" stroke="#505050" stroke-width="5" points="1226.14,-613.94 1247.97,-613.72 1233,-597.84 1226.14,-613.94"/>
</a>
</g>
</g>
<!-- I_dairy&#45;&gt;C_food -->
<g id="edge22" class="edge">
<title>I_dairy&#45;&gt;C_food</title>
<g id="a_edge22"><a xlink:title="Dairy &#45;&gt; Food">
<path fill="none" stroke="#a84800" stroke-width="5" d="M1539.2,-792.33C1548.68,-802.33 1557.74,-812.61 1566,-823 1618.85,-889.52 1661.64,-981.92 1679.5,-1023.37"/>
</a>
</g>
</g>
<!-- C_sand -->
<g id="sand" class="node">
<title>C_sand</title>
<g id="a_sand"><a xlink:href="cargos.html#sand" xlink:title="Sand" target="_top">
<polygon fill="#468fa8" stroke="#468fa8" points="1148,-1712.5 1056,-1712.5 1056,-1669.5 1148,-1669.5 1148,-1712.5"/>
<text text-anchor="middle" x="1102" y="-1682.9" font-family="sans-serif" font-size="32.00" fill="white">Sand</text>
</a>
</g>
</g>
<!-- C_sand&#45;&gt;I_glass_works -->
<g id="edge15" class="edge">
<title>C_sand&#45;&gt;I_glass_works</title>
<g id="a_edge15"><a xlink:title="Sand &#45;&gt; Glass Works">
<path fill="none" stroke="#468fa8" stroke-width="5" d="M1148.03,-1691C1170.11,-1691 1198.28,-1691 1227.85,-1691"/>
<polygon fill="#468fa8" stroke="#468fa8" stroke-width="5" points="1227.95,-1699.75 1247.95,-1691 1227.95,-1682.25 1227.95,-1699.75"/>
</a>
</g>
</g>
<!-- C_scrap_metal -->
<g id="scrap_metal" class="node">
<title>C_scrap_metal</title>
<g id="a_scrap_metal"><a xlink:href="cargos.html#scrap_metal" xlink:title="Scrap Metal" target="_top">
<polygon fill="#a85050" stroke="#a85050" points="569,-1898.5 381,-1898.5 381,-1855.5 569,-1855.5 569,-1898.5"/>
<text text-anchor="middle" x="475" y="-1868.9" font-family="sans-serif" font-size="32.00" fill="white">Scrap Metal</text>
</a>
</g>
</g>
<!-- C_scrap_metal&#45;&gt;I_blast_furnace -->
<g id="edge16" class="edge">
<title>C_scrap_metal&#45;&gt;I_blast_furnace</title>
<g id="a_edge16"><a xlink:title="Scrap Metal &#45;&gt; Steel Mill">
<path fill="none" stroke="#a85050" stroke-width="5" d="M540.53,-1898.58C562.78,-1906.02 588.9,-1914.75 615.74,-1923.73"/>
<polygon fill="#a85050" stroke="#a85050" stroke-width="5" points="613.14,-1932.08 634.88,-1930.13 618.69,-1915.49 613.14,-1932.08"/>
</a>
</g>
</g>
<!-- C_steel&#45;&gt;I_metal_workshop -->
<g id="edge17" class="edge">
<title>C_steel&#45;&gt;I_metal_workshop</title>
<g id="a_edge17"><a xlink:title="Steel &#45;&gt; Metal Workshop">
<path fill="none" stroke="#7d70a8" stroke-width="5" d="M1146.74,-1976C1168.88,-1976 1197.39,-1976 1227.37,-1976"/>
<polygon fill="#7d70a8" stroke="#7d70a8" stroke-width="5" points="1227.76,-1984.75 1247.76,-1976 1227.76,-1967.25 1227.76,-1984.75"/>
</a>
</g>
</g>
<!-- I_clay_pit -->
<g id="clay_pit" class="node">
<title>I_clay_pit</title>
<g id="a_clay_pit"><a xlink:href="industries.html#clay_pit" xlink:title="Clay Pit" target="_top">
<polygon fill="white" stroke="transparent" points="1256,-1144.5 1256,-1385.5 1558,-1385.5 1558,-1144.5 1256,-1144.5"/>
<polygon fill="none" stroke="#c1cdcd" points="1256,-1218 1256,-1385 1558,-1385 1558,-1218 1256,-1218"/>
<image xlink:href="static/img/industries/clay_pit.png" width="300px" height="165px" preserveAspectRatio="xMinYMin meet" x="1257" y="-1384"/>
<polygon fill="none" stroke="#c1cdcd" points="1256,-1144 1256,-1218 1558,-1218 1558,-1144 1256,-1144"/>
<polygon fill="ghostwhite" stroke="transparent" points="1257,-1145 1257,-1217 1557,-1217 1557,-1145 1257,-1145"/>
<text text-anchor="start" x="1352" y="-1186.4" font-family="sans-serif" font-size="32.00">Clay Pit</text>
<text text-anchor="start" x="1268.5" y="-1156" font-family="sans-serif" font-size="20.00">Requires Engineering Supplies</text>
</a>
</g>
</g>
<!-- I_clay_pit&#45;&gt;C_kaolin -->
<g id="edge20" class="edge">
<title>I_clay_pit&#45;&gt;C_kaolin</title>
<g id="a_edge20"><a xlink:title="Clay Pit &#45;&gt; Kaolin">
<path fill="none" stroke="#882034" stroke-width="5" d="M1566.28,-1323.12C1591.76,-1332.48 1616.43,-1341.53 1636.85,-1349.03"/>
</a>
</g>
</g>
<!-- I_coal_mine -->
<g id="coal_mine" class="node">
<title>I_coal_mine</title>
<g id="a_coal_mine"><a xlink:href="industries.html#coal_mine" xlink:title="Coal Mine" target="_top">
<polygon fill="white" stroke="transparent" points="8,-2174.5 8,-2415.5 310,-2415.5 310,-2174.5 8,-2174.5"/>
<polygon fill="none" stroke="#c1cdcd" points="8,-2248 8,-2415 310,-2415 310,-2248 8,-2248"/>
<image xlink:href="static/img/industries/coal_mine.png" width="300px" height="165px" preserveAspectRatio="xMinYMin meet" x="9" y="-2414"/>
<polygon fill="none" stroke="#c1cdcd" points="8,-2174 8,-2248 310,-2248 310,-2174 8,-2174"/>
<polygon fill="ghostwhite" stroke="transparent" points="9,-2175 9,-2247 309,-2247 309,-2175 9,-2175"/>
<text text-anchor="start" x="86.5" y="-2216.4" font-family="sans-serif" font-size="32.00">Coal Mine</text>
<text text-anchor="start" x="20.5" y="-2186" font-family="sans-serif" font-size="20.00">Requires Engineering Supplies</text>
</a>
</g>
</g>
<!-- I_coal_mine&#45;&gt;C_coal -->
<g id="edge21" class="edge">
<title>I_coal_mine&#45;&gt;C_coal</title>
<g id="a_edge21"><a xlink:title="Coal Mine &#45;&gt; Coal">
<path fill="none" stroke="#a86052" stroke-width="5" d="M318.38,-2191.09C364.87,-2160.6 411.19,-2130.2 441.05,-2110.61"/>
</a>
</g>
</g>
<!-- I_dairy_farm -->
<g id="dairy_farm" class="node">
<title>I_dairy_farm</title>
<g id="a_dairy_farm"><a xlink:href="industries.html#dairy_farm" xlink:title="Dairy Farm" target="_top">
<polygon fill="white" stroke="transparent" points="643,-431.5 643,-672.5 945,-672.5 945,-431.5 643,-431.5"/>
<polygon fill="none" stroke="#c1cdcd" points="643,-505 643,-672 945,-672 945,-505 643,-505"/>
<image xlink:href="static/img/industries/dairy_farm.png" width="300px" height="165px" preserveAspectRatio="xMinYMin meet" x="644" y="-671"/>
<polygon fill="none" stroke="#c1cdcd" points="643,-431 643,-505 945,-505 945,-431 643,-431"/>
<polygon fill="ghostwhite" stroke="transparent" points="644,-432 644,-504 944,-504 944,-432 644,-432"/>
<text text-anchor="start" x="714.5" y="-473.4" font-family="sans-serif" font-size="32.00">Dairy Farm</text>
<text text-anchor="start" x="686.5" y="-443" font-family="sans-serif" font-size="20.00">Requires Farm Supplies</text>
</a>
</g>
</g>
<!-- I_dairy_farm&#45;&gt;C_livestock -->
<g id="edge23" class="edge">
<title>I_dairy_farm&#45;&gt;C_livestock</title>
<g id="a_edge23"><a xlink:title="Dairy Farm &#45;&gt; Livestock">
<path fill="none" stroke="#004ca8" stroke-width="5" d="M953.38,-471.26C992.32,-451.41 1030.79,-431.79 1058.69,-417.57"/>
</a>
</g>
</g>
<!-- I_dairy_farm&#45;&gt;C_milk -->
<g id="edge24" class="edge">
<title>I_dairy_farm&#45;&gt;C_milk</title>
<g id="a_edge24"><a xlink:title="Dairy Farm &#45;&gt; Milk">
<path fill="none" stroke="#505050" stroke-width="5" d="M953.38,-552C995.52,-552 1037.12,-552 1065.37,-552"/>
</a>
</g>
</g>
<!-- I_dredging_site -->
<g id="dredging_site" class="node">
<title>I_dredging_site</title>
<g id="a_dredging_site"><a xlink:href="industries.html#dredging_site" xlink:title="Dredging Site" target="_top">
<polygon fill="white" stroke="transparent" points="643,-1563.5 643,-1804.5 945,-1804.5 945,-1563.5 643,-1563.5"/>
<polygon fill="none" stroke="#c1cdcd" points="643,-1637 643,-1804 945,-1804 945,-1637 643,-1637"/>
<image xlink:href="static/img/industries/dredging_site.png" width="300px" height="165px" preserveAspectRatio="xMinYMin meet" x="644" y="-1803"/>
<polygon fill="none" stroke="#c1cdcd" points="643,-1563 643,-1637 945,-1637 945,-1563 643,-1563"/>
<polygon fill="ghostwhite" stroke="transparent" points="644,-1564 644,-1636 944,-1636 944,-1564 644,-1564"/>
<text text-anchor="start" x="696.5" y="-1605.4" font-family="sans-serif" font-size="32.00">Dredging Site</text>
<text text-anchor="start" x="655.5" y="-1575" font-family="sans-serif" font-size="20.00">Requires Engineering Supplies</text>
</a>
</g>
</g>
<!-- I_dredging_site&#45;&gt;C_sand -->
<g id="edge25" class="edge">
<title>I_dredging_site&#45;&gt;C_sand</title>
<g id="a_edge25"><a xlink:title="Dredging Site &#45;&gt; Sand">
<path fill="none" stroke="#468fa8" stroke-width="5" d="M953.38,-1687.62C991,-1688.48 1028.19,-1689.33 1055.83,-1689.97"/>
</a>
</g>
</g>
<!-- I_fishing_grounds -->
<g id="fishing_grounds" class="node">
<title>I_fishing_grounds</title>
<g id="a_fishing_grounds"><a xlink:href="industries.html#fishing_grounds" xlink:title="Fishing Grounds" target="_top">
<polygon fill="white" stroke="transparent" points="643,-859 643,-1073 945,-1073 945,-859 643,-859"/>
<polygon fill="none" stroke="#c1cdcd" points="643,-906 643,-1073 945,-1073 945,-906 643,-906"/>
<image xlink:href="static/img/industries/fishing_grounds.png" width="300px" height="165px" preserveAspectRatio="xMinYMin meet" x="644" y="-1072"/>
<polygon fill="none" stroke="#c1cdcd" points="643,-859 643,-906 945,-906 945,-859 643,-859"/>
<polygon fill="ghostwhite" stroke="transparent" points="644,-860 644,-905 944,-905 944,-860 644,-860"/>
<text text-anchor="start" x="676.5" y="-874.4" font-family="sans-serif" font-size="32.00">Fishing Grounds</text>
</a>
</g>
</g>
<!-- I_fishing_grounds&#45;&gt;C_fish -->
<g id="edge26" class="edge">
<title>I_fishing_grounds&#45;&gt;C_fish</title>
<g id="a_edge26"><a xlink:title="Fishing Grounds &#45;&gt; Fish">
<path fill="none" stroke="#5d45a8" stroke-width="5" d="M953.38,-966C994.5,-966 1035.11,-966 1063.29,-966"/>
</a>
</g>
</g>
<!-- I_iron_ore_mine -->
<g id="iron_ore_mine" class="node">
<title>I_iron_ore_mine</title>
<g id="a_iron_ore_mine"><a xlink:href="industries.html#iron_ore_mine" xlink:title="Iron Ore Mine" target="_top">
<polygon fill="white" stroke="transparent" points="8,-1862.5 8,-2103.5 310,-2103.5 310,-1862.5 8,-1862.5"/>
<polygon fill="none" stroke="#c1cdcd" points="8,-1936 8,-2103 310,-2103 310,-1936 8,-1936"/>
<image xlink:href="static/img/industries/iron_ore_mine.png" width="300px" height="165px" preserveAspectRatio="xMinYMin meet" x="9" y="-2102"/>
<polygon fill="none" stroke="#c1cdcd" points="8,-1862 8,-1936 310,-1936 310,-1862 8,-1862"/>
<polygon fill="ghostwhite" stroke="transparent" points="9,-1863 9,-1935 309,-1935 309,-1863 9,-1863"/>
<text text-anchor="start" x="60.5" y="-1904.4" font-family="sans-serif" font-size="32.00">Iron Ore Mine</text>
<text text-anchor="start" x="20.5" y="-1874" font-family="sans-serif" font-size="20.00">Requires Engineering Supplies</text>
</a>
</g>
</g>
<!-- I_iron_ore_mine&#45;&gt;C_iron_ore -->
<g id="edge29" class="edge">
<title>I_iron_ore_mine&#45;&gt;C_iron_ore</title>
<g id="a_edge29"><a xlink:title="Iron Ore Mine &#45;&gt; Iron Ore">
<path fill="none" stroke="#74581c" stroke-width="5" d="M318.38,-1983C349.93,-1983 381.41,-1983 407.71,-1983"/>
</a>
</g>
</g>
<!-- I_orchard_piggery -->
<g id="orchard_piggery" class="node">
<title>I_orchard_piggery</title>
<g id="a_orchard_piggery"><a xlink:href="industries.html#orchard_piggery" xlink:title="Orchard and Piggery" target="_top">
<polygon fill="white" stroke="transparent" points="640,-119.5 640,-360.5 948,-360.5 948,-119.5 640,-119.5"/>
<polygon fill="none" stroke="#c1cdcd" points="640,-193 640,-360 948,-360 948,-193 640,-193"/>
<image xlink:href="static/img/industries/orchard_piggery.png" width="306px" height="165px" preserveAspectRatio="xMinYMin meet" x="641" y="-359"/>
<polygon fill="none" stroke="#c1cdcd" points="640,-119 640,-193 948,-193 948,-119 640,-119"/>
<polygon fill="ghostwhite" stroke="transparent" points="641,-120 641,-192 947,-192 947,-120 641,-120"/>
<text text-anchor="start" x="646" y="-161.4" font-family="sans-serif" font-size="32.00">Orchard and Piggery</text>
<text text-anchor="start" x="686.5" y="-131" font-family="sans-serif" font-size="20.00">Requires Farm Supplies</text>
</a>
</g>
</g>
<!-- I_orchard_piggery&#45;&gt;C_fruits -->
<g id="edge31" class="edge">
<title>I_orchard_piggery&#45;&gt;C_fruits</title>
<g id="a_edge31"><a xlink:title="Orchard and Piggery &#45;&gt; Fruit">
<path fill="none" stroke="#a88000" stroke-width="5" d="M956.07,-240C995.52,-240 1034.25,-240 1061.74,-240"/>
</a>
</g>
</g>
<!-- I_orchard_piggery&#45;&gt;C_livestock -->
<g id="edge32" class="edge">
<title>I_orchard_piggery&#45;&gt;C_livestock</title>
<g id="a_edge32"><a xlink:title="Orchard and Piggery &#45;&gt; Livestock">
<path fill="none" stroke="#004ca8" stroke-width="5" d="M956.07,-322.11C994.08,-341.49 1031.42,-360.53 1058.68,-374.43"/>
</a>
</g>
</g>
<!-- I_junk_yard -->
<g id="junk_yard" class="node">
<title>I_junk_yard</title>
<g id="a_junk_yard"><a xlink:href="industries.html#junk_yard" xlink:title="Scrap Yard" target="_top">
<polygon fill="white" stroke="transparent" points="8,-1577 8,-1791 310,-1791 310,-1577 8,-1577"/>
<polygon fill="none" stroke="#c1cdcd" points="8,-1624 8,-1791 310,-1791 310,-1624 8,-1624"/>
<image xlink:href="static/img/industries/junk_yard.png" width="300px" height="165px" preserveAspectRatio="xMinYMin meet" x="9" y="-1790"/>
<polygon fill="none" stroke="#c1cdcd" points="8,-1577 8,-1624 310,-1624 310,-1577 8,-1577"/>
<polygon fill="ghostwhite" stroke="transparent" points="9,-1578 9,-1623 309,-1623 309,-1578 9,-1578"/>
<text text-anchor="start" x="80.5" y="-1592.4" font-family="sans-serif" font-size="32.00">Scrap Yard</text>
</a>
</g>
</g>
<!-- I_junk_yard&#45;&gt;C_scrap_metal -->
<g id="edge34" class="edge">
<title>I_junk_yard&#45;&gt;C_scrap_metal</title>
<g id="a_edge34"><a xlink:title="Scrap Yard &#45;&gt; Scrap Metal">
<path fill="none" stroke="#a85050" stroke-width="5" d="M318.38,-1781.35C363.8,-1809.27 409.07,-1837.09 438.97,-1855.47"/>
</a>
</g>
</g>
</g>
</svg>
