<?xml version="1.0" encoding="UTF-8" standalone="no"?>
<?xml-stylesheet href="static/css/cargoflow_styles.css" type="text/css"?>
<!DOCTYPE svg PUBLIC "-//W3C//DTD SVG 1.1//EN"
 "http://www.w3.org/Graphics/SVG/1.1/DTD/svg11.dtd">
<!-- Generated by graphviz version 2.44.1 (20200629.0846)
 -->
<!-- Title: arctic_basic Pages: 1 -->
<svg width="2881pt" height="2565pt"
 viewBox="0.00 0.00 2881.00 2565.00" xmlns="http://www.w3.org/2000/svg" xmlns:xlink="http://www.w3.org/1999/xlink">
<g id="graph0" class="graph" transform="scale(1 1) rotate(0) translate(4 2561)">
<title>arctic_basic</title>
<g id="a_graph0"><a xlink:title="Arctic Basic">
<polygon fill="white" stroke="transparent" points="-4,4 -4,-2561 2877,-2561 2877,4 -4,4"/>
</a>
</g>
<g id="clust2" class="cluster">
<title>cluster_town_industries</title>
<g id="a_clust2"><a xlink:title="Arctic Basic">
<polygon fill="#e0eeee" stroke="#e0eeee" stroke-width="5" points="1210,-370.5 1210,-1081.5 1544,-1081.5 1544,-370.5 1210,-370.5"/>
</a>
</g>
</g>
<!-- T_towns_food -->
<g id="node1" class="node">
<title>T_towns_food</title>
<polygon fill="none" stroke="#a84800" stroke-width="5" stroke-dasharray="5,2" points="1446.5,-315 1307.5,-315 1307.5,-232 1446.5,-232 1446.5,-315"/>
<text text-anchor="middle" x="1377" y="-265.4" font-family="sans-serif" font-size="32.00" fill="#a84800">Towns</text>
</g>
<!-- T_town_industries -->
<g id="node2" class="node">
<title>T_town_industries</title>
<text text-anchor="middle" x="1377" y="-1043.4" font-family="sans-serif" font-size="32.00">Town Industries</text>
</g>
<!-- I_general_store -->
<g id="general_store" class="node">
<title>I_general_store</title>
<g id="a_general_store"><a xlink:href="industries.html#general_store" xlink:title="General Store" target="_top">
<polygon fill="white" stroke="transparent" points="1226,-722 1226,-963 1528,-963 1528,-722 1226,-722"/>
<polygon fill="none" stroke="#c1cdcd" points="1226,-795.5 1226,-962.5 1528,-962.5 1528,-795.5 1226,-795.5"/>
<image xlink:href="static/img/industries/general_store.png" width="300px" height="165px" preserveAspectRatio="xMinYMin meet" x="1227" y="-961.5"/>
<polygon fill="none" stroke="#c1cdcd" points="1226,-721.5 1226,-795.5 1528,-795.5 1528,-721.5 1226,-721.5"/>
<polygon fill="ghostwhite" stroke="transparent" points="1227,-722.5 1227,-794.5 1527,-794.5 1527,-722.5 1227,-722.5"/>
<text text-anchor="start" x="1277" y="-763.9" font-family="sans-serif" font-size="32.00">General Store</text>
<text text-anchor="start" x="1311" y="-733.5" font-family="sans-serif" font-size="20.00">Requires Food</text>
</a>
</g>
</g>
<!-- I_hotel -->
<g id="hotel" class="node">
<title>I_hotel</title>
<g id="a_hotel"><a xlink:href="industries.html#hotel" xlink:title="Hotel" target="_top">
<polygon fill="white" stroke="transparent" points="1226,-382.5 1226,-650.5 1528,-650.5 1528,-382.5 1226,-382.5"/>
<polygon fill="none" stroke="#c1cdcd" points="1226,-483.5 1226,-650.5 1528,-650.5 1528,-483.5 1226,-483.5"/>
<image xlink:href="static/img/industries/hotel.png" width="300px" height="165px" preserveAspectRatio="xMinYMin meet" x="1227" y="-649.5"/>
<polygon fill="none" stroke="#c1cdcd" points="1226,-382.5 1226,-483.5 1528,-483.5 1528,-382.5 1226,-382.5"/>
<polygon fill="ghostwhite" stroke="transparent" points="1227,-383.5 1227,-482.5 1527,-482.5 1527,-383.5 1227,-383.5"/>
<text text-anchor="start" x="1339" y="-451.9" font-family="sans-serif" font-size="32.00">Hotel</text>
<text text-anchor="start" x="1311" y="-421.5" font-family="sans-serif" font-size="20.00">Requires Food</text>
<text text-anchor="start" x="1281" y="-394.5" font-family="sans-serif" font-size="20.00">Requires Passengers</text>
</a>
</g>
</g>
<!-- C_ammonia -->
<g id="ammonia" class="node">
<title>C_ammonia</title>
<g id="a_ammonia"><a xlink:href="cargos.html#ammonia" xlink:title="Ammonia" target="_top">
<polygon fill="#a80000" stroke="#a80000" points="1146,-1542 994,-1542 994,-1499 1146,-1499 1146,-1542"/>
<text text-anchor="middle" x="1070" y="-1512.4" font-family="sans-serif" font-size="32.00" fill="white">Ammonia</text>
</a>
</g>
</g>
<!-- I_chemical_plant -->
<g id="chemical_plant" class="node">
<title>I_chemical_plant</title>
<g id="a_chemical_plant"><a xlink:href="industries.html#chemical_plant" xlink:title="Chemical Plant" target="_top">
<polygon fill="white" stroke="transparent" points="1226,-1521.5 1226,-1735.5 1528,-1735.5 1528,-1521.5 1226,-1521.5"/>
<polygon fill="none" stroke="#c1cdcd" points="1226,-1568.5 1226,-1735.5 1528,-1735.5 1528,-1568.5 1226,-1568.5"/>
<image xlink:href="static/img/industries/chemical_plant.png" width="300px" height="165px" preserveAspectRatio="xMinYMin meet" x="1227" y="-1734.5"/>
<polygon fill="none" stroke="#c1cdcd" points="1226,-1521.5 1226,-1568.5 1528,-1568.5 1528,-1521.5 1226,-1521.5"/>
<polygon fill="ghostwhite" stroke="transparent" points="1227,-1522.5 1227,-1567.5 1527,-1567.5 1527,-1522.5 1227,-1522.5"/>
<text text-anchor="start" x="1269" y="-1536.9" font-family="sans-serif" font-size="32.00">Chemical Plant</text>
</a>
</g>
</g>
<!-- C_ammonia&#45;&gt;I_chemical_plant -->
<g id="edge1" class="edge">
<title>C_ammonia&#45;&gt;I_chemical_plant</title>
<g id="a_edge1"><a xlink:title="Ammonia &#45;&gt; Chemical Plant">
<path fill="none" stroke="#a80000" stroke-width="5" d="M1131.99,-1542.1C1151.84,-1549.12 1174.97,-1557.32 1198.94,-1565.8"/>
<polygon fill="#a80000" stroke="#a80000" stroke-width="5" points="1196.06,-1574.07 1217.83,-1572.49 1201.9,-1557.57 1196.06,-1574.07"/>
</a>
</g>
</g>
<!-- C_explosives -->
<g id="explosives" class="node">
<title>C_explosives</title>
<g id="a_explosives"><a xlink:href="cargos.html#explosives" xlink:title="Explosives" target="_top">
<polygon fill="#a86052" stroke="#a86052" points="1767,-1805 1599,-1805 1599,-1762 1767,-1762 1767,-1805"/>
<text text-anchor="middle" x="1683" y="-1775.4" font-family="sans-serif" font-size="32.00" fill="white">Explosives</text>
</a>
</g>
</g>
<!-- I_chemical_plant&#45;&gt;C_explosives -->
<g id="edge19" class="edge">
<title>I_chemical_plant&#45;&gt;C_explosives</title>
<g id="a_edge19"><a xlink:title="Chemical Plant &#45;&gt; Explosives">
<path fill="none" stroke="#a86052" stroke-width="5" d="M1536.23,-1709.18C1574.46,-1728.67 1612.17,-1747.9 1639.65,-1761.91"/>
</a>
</g>
</g>
<!-- C_fertiliser -->
<g id="fertiliser" class="node">
<title>C_fertiliser</title>
<g id="a_fertiliser"><a xlink:href="cargos.html#fertiliser" xlink:title="Fertiliser" target="_top">
<polygon fill="#347084" stroke="#347084" points="1752,-1561 1614,-1561 1614,-1518 1752,-1518 1752,-1561"/>
<text text-anchor="middle" x="1683" y="-1531.4" font-family="sans-serif" font-size="32.00" fill="white">Fertiliser</text>
</a>
</g>
</g>
<!-- I_chemical_plant&#45;&gt;C_fertiliser -->
<g id="edge20" class="edge">
<title>I_chemical_plant&#45;&gt;C_fertiliser</title>
<g id="a_edge20"><a xlink:title="Chemical Plant &#45;&gt; Fertiliser">
<path fill="none" stroke="#347084" stroke-width="5" d="M1536.23,-1582.18C1563.5,-1574.19 1590.5,-1566.29 1613.71,-1559.49"/>
</a>
</g>
</g>
<!-- I_wharf -->
<g id="wharf" class="node">
<title>I_wharf</title>
<g id="a_wharf"><a xlink:href="industries.html#wharf" xlink:title="Wharf" target="_top">
<polygon fill="white" stroke="transparent" points="1838,-1755.5 1838,-2023.5 2140,-2023.5 2140,-1755.5 1838,-1755.5"/>
<polygon fill="none" stroke="#c1cdcd" points="1838,-1856.5 1838,-2023.5 2140,-2023.5 2140,-1856.5 1838,-1856.5"/>
<image xlink:href="static/img/industries/wharf.png" width="300px" height="165px" preserveAspectRatio="xMinYMin meet" x="1839" y="-2022.5"/>
<polygon fill="none" stroke="#c1cdcd" points="1838,-1755.5 1838,-1856.5 2140,-1856.5 2140,-1755.5 1838,-1755.5"/>
<polygon fill="ghostwhite" stroke="transparent" points="1839,-1756.5 1839,-1855.5 2139,-1855.5 2139,-1756.5 1839,-1756.5"/>
<text text-anchor="start" x="1946" y="-1824.9" font-family="sans-serif" font-size="32.00">Wharf</text>
<text text-anchor="start" x="1848.5" y="-1794.5" font-family="sans-serif" font-size="20.00">Produces Engineering Supplies</text>
<text text-anchor="start" x="1879" y="-1767.5" font-family="sans-serif" font-size="20.00">Produces Farm Supplies</text>
</a>
</g>
</g>
<!-- C_explosives&#45;&gt;I_wharf -->
<g id="edge2" class="edge">
<title>C_explosives&#45;&gt;I_wharf</title>
<g id="a_edge2"><a xlink:title="Explosives &#45;&gt; Wharf">
<path fill="none" stroke="#a86052" stroke-width="5" d="M1745.89,-1805.08C1765.17,-1811.8 1787.49,-1819.59 1810.61,-1827.65"/>
<polygon fill="#a86052" stroke="#a86052" stroke-width="5" points="1807.97,-1835.99 1829.73,-1834.31 1813.73,-1819.47 1807.97,-1835.99"/>
</a>
</g>
</g>
<!-- C_potash -->
<g id="potash" class="node">
<title>C_potash</title>
<g id="a_potash"><a xlink:href="cargos.html#potash" xlink:title="Potash" target="_top">
<polygon fill="#468fa8" stroke="#468fa8" points="2327,-1678 2211,-1678 2211,-1635 2327,-1635 2327,-1678"/>
<text text-anchor="middle" x="2269" y="-1648.4" font-family="sans-serif" font-size="32.00" fill="white">Potash</text>
</a>
</g>
</g>
<!-- I_wharf&#45;&gt;C_potash -->
<g id="edge35" class="edge">
<title>I_wharf&#45;&gt;C_potash</title>
<g id="a_edge35"><a xlink:title="Wharf &#45;&gt; Potash">
<path fill="none" stroke="#468fa8" stroke-width="5" d="M2148.09,-1757C2184.76,-1726.27 2219.62,-1697.04 2242.21,-1678.11"/>
</a>
</g>
</g>
<!-- I_port -->
<g id="port" class="node">
<title>I_port</title>
<g id="a_port"><a xlink:href="industries.html#port" xlink:title="Port" target="_top">
<polygon fill="white" stroke="transparent" points="1838,-1288.5 1838,-1556.5 2140,-1556.5 2140,-1288.5 1838,-1288.5"/>
<polygon fill="none" stroke="#c1cdcd" points="1838,-1389.5 1838,-1556.5 2140,-1556.5 2140,-1389.5 1838,-1389.5"/>
<image xlink:href="static/img/industries/port.png" width="300px" height="165px" preserveAspectRatio="xMinYMin meet" x="1839" y="-1555.5"/>
<polygon fill="none" stroke="#c1cdcd" points="1838,-1288.5 1838,-1389.5 2140,-1389.5 2140,-1288.5 1838,-1288.5"/>
<polygon fill="ghostwhite" stroke="transparent" points="1839,-1289.5 1839,-1388.5 2139,-1388.5 2139,-1289.5 1839,-1289.5"/>
<text text-anchor="start" x="1959.5" y="-1357.9" font-family="sans-serif" font-size="32.00">Port</text>
<text text-anchor="start" x="1848.5" y="-1327.5" font-family="sans-serif" font-size="20.00">Produces Engineering Supplies</text>
<text text-anchor="start" x="1879" y="-1300.5" font-family="sans-serif" font-size="20.00">Produces Farm Supplies</text>
</a>
</g>
</g>
<!-- C_fertiliser&#45;&gt;I_port -->
<g id="edge3" class="edge">
<title>C_fertiliser&#45;&gt;I_port</title>
<g id="a_edge3"><a xlink:title="Fertiliser &#45;&gt; Port">
<path fill="none" stroke="#347084" stroke-width="5" d="M1740.11,-1517.9C1760.75,-1509.96 1785.38,-1500.48 1810.98,-1490.63"/>
<polygon fill="#347084" stroke="#347084" stroke-width="5" points="1814.22,-1498.76 1829.75,-1483.41 1807.94,-1482.43 1814.22,-1498.76"/>
</a>
</g>
</g>
<!-- I_port&#45;&gt;C_ammonia -->
<g id="edge29" class="edge">
<title>I_port&#45;&gt;C_ammonia</title>
<g id="a_edge29"><a xlink:title="Port &#45;&gt; Ammonia">
<path fill="none" stroke="#a80000" stroke-width="5" d="M1829.91,-1428.19C1672.09,-1435.59 1423.03,-1451.91 1210,-1486.5 1189.16,-1489.88 1166.83,-1494.77 1146.3,-1499.79"/>
</a>
</g>
</g>
<!-- C_kaolin -->
<g id="kaolin" class="node">
<title>C_kaolin</title>
<g id="a_kaolin"><a xlink:href="cargos.html#kaolin" xlink:title="Kaolin" target="_top">
<polygon fill="#5d45a8" stroke="#5d45a8" points="2321.5,-1444 2216.5,-1444 2216.5,-1401 2321.5,-1401 2321.5,-1444"/>
<text text-anchor="middle" x="2269" y="-1414.4" font-family="sans-serif" font-size="32.00" fill="white">Kaolin</text>
</a>
</g>
</g>
<!-- I_port&#45;&gt;C_kaolin -->
<g id="edge30" class="edge">
<title>I_port&#45;&gt;C_kaolin</title>
<g id="a_edge30"><a xlink:title="Port &#45;&gt; Kaolin">
<path fill="none" stroke="#5d45a8" stroke-width="5" d="M2148.09,-1422.5C2172.66,-1422.5 2196.42,-1422.5 2216.22,-1422.5"/>
</a>
</g>
</g>
<!-- C_fish -->
<g id="fish" class="node">
<title>C_fish</title>
<g id="a_fish"><a xlink:href="cargos.html#fish" xlink:title="Fish" target="_top">
<polygon fill="#a89a28" stroke="#a89a28" points="499.5,-445 422.5,-445 422.5,-402 499.5,-402 499.5,-445"/>
<text text-anchor="middle" x="461" y="-415.4" font-family="sans-serif" font-size="32.00" fill="white">Fish</text>
</a>
</g>
</g>
<!-- I_fishing_harbour -->
<g id="fishing_harbour" class="node">
<title>I_fishing_harbour</title>
<g id="a_fishing_harbour"><a xlink:href="industries.html#fishing_harbour" xlink:title="Fishing Harbour" target="_top">
<polygon fill="white" stroke="transparent" points="612,-316.5 612,-530.5 914,-530.5 914,-316.5 612,-316.5"/>
<polygon fill="none" stroke="#c1cdcd" points="612,-363.5 612,-530.5 914,-530.5 914,-363.5 612,-363.5"/>
<image xlink:href="static/img/industries/fishing_harbour.png" width="300px" height="165px" preserveAspectRatio="xMinYMin meet" x="613" y="-529.5"/>
<polygon fill="none" stroke="#c1cdcd" points="612,-316.5 612,-363.5 914,-363.5 914,-316.5 612,-316.5"/>
<polygon fill="ghostwhite" stroke="transparent" points="613,-317.5 613,-362.5 913,-362.5 913,-317.5 613,-317.5"/>
<text text-anchor="start" x="648.5" y="-331.9" font-family="sans-serif" font-size="32.00">Fishing Harbour</text>
</a>
</g>
</g>
<!-- C_fish&#45;&gt;I_fishing_harbour -->
<g id="edge4" class="edge">
<title>C_fish&#45;&gt;I_fishing_harbour</title>
<g id="a_edge4"><a xlink:title="Fish &#45;&gt; Fishing Harbour">
<path fill="none" stroke="#a89a28" stroke-width="5" d="M499.69,-423.5C521.87,-423.5 551.72,-423.5 583.33,-423.5"/>
<polygon fill="#a89a28" stroke="#a89a28" stroke-width="5" points="583.74,-432.25 603.74,-423.5 583.74,-414.75 583.74,-432.25"/>
</a>
</g>
</g>
<!-- C_food -->
<g id="food" class="node">
<title>C_food</title>
<g id="a_food"><a xlink:href="cargos.html#food" xlink:title="Food" target="_top">
<polygon fill="#a84800" stroke="#a84800" points="1115,-295 1025,-295 1025,-252 1115,-252 1115,-295"/>
<text text-anchor="middle" x="1070" y="-265.4" font-family="sans-serif" font-size="32.00" fill="white">Food</text>
</a>
</g>
</g>
<!-- I_fishing_harbour&#45;&gt;C_food -->
<g id="edge23" class="edge">
<title>I_fishing_harbour&#45;&gt;C_food</title>
<g id="a_edge23"><a xlink:title="Fishing Harbour &#45;&gt; Food">
<path fill="none" stroke="#a84800" stroke-width="5" d="M922.31,-345.64C960.17,-327.03 997.55,-308.64 1025.1,-295.09"/>
</a>
</g>
</g>
<!-- C_food&#45;&gt;T_towns_food -->
<g id="edge5" class="edge">
<title>C_food&#45;&gt;T_towns_food</title>
<path fill="none" stroke="#a84800" stroke-width="5" stroke-dasharray="5,2" d="M1115.02,-273.5C1159.91,-273.5 1230.79,-273.5 1287.36,-273.5"/>
<polygon fill="#a84800" stroke="#a84800" stroke-width="5" points="1287.48,-282.25 1307.48,-273.5 1287.48,-264.75 1287.48,-282.25"/>
</g>
<!-- I_paper_mill -->
<g id="paper_mill" class="node">
<title>I_paper_mill</title>
<g id="a_paper_mill"><a xlink:href="industries.html#paper_mill" xlink:title="Paper Mill" target="_top">
<polygon fill="white" stroke="transparent" points="2398,-1226.5 2398,-1440.5 2700,-1440.5 2700,-1226.5 2398,-1226.5"/>
<polygon fill="none" stroke="#c1cdcd" points="2398,-1273.5 2398,-1440.5 2700,-1440.5 2700,-1273.5 2398,-1273.5"/>
<image xlink:href="static/img/industries/paper_mill.png" width="300px" height="165px" preserveAspectRatio="xMinYMin meet" x="2399" y="-1439.5"/>
<polygon fill="none" stroke="#c1cdcd" points="2398,-1226.5 2398,-1273.5 2700,-1273.5 2700,-1226.5 2398,-1226.5"/>
<polygon fill="ghostwhite" stroke="transparent" points="2399,-1227.5 2399,-1272.5 2699,-1272.5 2699,-1227.5 2399,-1227.5"/>
<text text-anchor="start" x="2478" y="-1241.9" font-family="sans-serif" font-size="32.00">Paper Mill</text>
</a>
</g>
</g>
<!-- C_kaolin&#45;&gt;I_paper_mill -->
<g id="edge6" class="edge">
<title>C_kaolin&#45;&gt;I_paper_mill</title>
<g id="a_edge6"><a xlink:title="Kaolin &#45;&gt; Paper Mill">
<path fill="none" stroke="#5d45a8" stroke-width="5" d="M2321.64,-1405.97C2336.24,-1401.29 2353.02,-1395.92 2370.68,-1390.27"/>
<polygon fill="#5d45a8" stroke="#5d45a8" stroke-width="5" points="2373.37,-1398.59 2389.75,-1384.16 2368.04,-1381.93 2373.37,-1398.59"/>
</a>
</g>
</g>
<!-- C_paper -->
<g id="paper" class="node">
<title>C_paper</title>
<g id="a_paper"><a xlink:href="cargos.html#paper" xlink:title="Paper" target="_top">
<polygon fill="#882034" stroke="#882034" points="2873,-1561 2771,-1561 2771,-1518 2873,-1518 2873,-1561"/>
<text text-anchor="middle" x="2822" y="-1531.4" font-family="sans-serif" font-size="32.00" fill="white">Paper</text>
</a>
</g>
</g>
<!-- I_paper_mill&#45;&gt;C_paper -->
<g id="edge26" class="edge">
<title>I_paper_mill&#45;&gt;C_paper</title>
<g id="a_edge26"><a xlink:title="Paper Mill &#45;&gt; Paper">
<path fill="none" stroke="#882034" stroke-width="5" d="M2696.21,-1444.64C2732.96,-1472.57 2768.65,-1499.71 2792.38,-1517.75"/>
</a>
</g>
</g>
<!-- C_logs -->
<g id="logs" class="node">
<title>C_logs</title>
<g id="a_logs"><a xlink:href="cargos.html#logs" xlink:title="Logs" target="_top">
<polygon fill="#a88000" stroke="#a88000" points="1113,-2454 1027,-2454 1027,-2411 1113,-2411 1113,-2454"/>
<text text-anchor="middle" x="1070" y="-2424.4" font-family="sans-serif" font-size="32.00" fill="white">Logs</text>
</a>
</g>
</g>
<!-- C_logs&#45;&gt;I_paper_mill -->
<g id="edge7" class="edge">
<title>C_logs&#45;&gt;I_paper_mill</title>
<g id="a_edge7"><a xlink:title="Logs &#45;&gt; Paper Mill">
<path fill="none" stroke="#a88000" stroke-width="5" d="M1113.22,-2432.5C1212.45,-2432.5 1468.26,-2432.5 1682,-2432.5 1682,-2432.5 1682,-2432.5 1990,-2432.5 2419.56,-2432.5 2518.55,-1756.72 2541.27,-1465"/>
<polygon fill="#a88000" stroke="#a88000" stroke-width="5" points="2550.03,-1465.26 2542.78,-1444.67 2532.57,-1463.97 2550.03,-1465.26"/>
</a>
</g>
</g>
<!-- I_sawmill -->
<g id="sawmill" class="node">
<title>I_sawmill</title>
<g id="a_sawmill"><a xlink:href="industries.html#sawmill" xlink:title="Sawmill" target="_top">
<polygon fill="white" stroke="transparent" points="1226,-1806.5 1226,-2020.5 1528,-2020.5 1528,-1806.5 1226,-1806.5"/>
<polygon fill="none" stroke="#c1cdcd" points="1226,-1853.5 1226,-2020.5 1528,-2020.5 1528,-1853.5 1226,-1853.5"/>
<image xlink:href="static/img/industries/sawmill.png" width="300px" height="165px" preserveAspectRatio="xMinYMin meet" x="1227" y="-2019.5"/>
<polygon fill="none" stroke="#c1cdcd" points="1226,-1806.5 1226,-1853.5 1528,-1853.5 1528,-1806.5 1226,-1806.5"/>
<polygon fill="ghostwhite" stroke="transparent" points="1227,-1807.5 1227,-1852.5 1527,-1852.5 1527,-1807.5 1227,-1807.5"/>
<text text-anchor="start" x="1322" y="-1821.9" font-family="sans-serif" font-size="32.00">Sawmill</text>
</a>
</g>
</g>
<!-- C_logs&#45;&gt;I_sawmill -->
<g id="edge8" class="edge">
<title>C_logs&#45;&gt;I_sawmill</title>
<g id="a_edge8"><a xlink:title="Logs &#45;&gt; Sawmill">
<path fill="none" stroke="#a88000" stroke-width="5" d="M1075.03,-2410.78C1087.09,-2350.15 1127.24,-2175.69 1210,-2056.5 1213.8,-2051.03 1217.85,-2045.64 1222.11,-2040.35"/>
<polygon fill="#a88000" stroke="#a88000" stroke-width="5" points="1229.09,-2045.65 1235.44,-2024.76 1215.79,-2034.27 1229.09,-2045.65"/>
</a>
</g>
</g>
<!-- C_lumber -->
<g id="lumber" class="node">
<title>C_lumber</title>
<g id="a_lumber"><a xlink:href="cargos.html#lumber" xlink:title="Timber" target="_top">
<polygon fill="#74581c" stroke="#74581c" points="1741,-1911 1625,-1911 1625,-1868 1741,-1868 1741,-1911"/>
<text text-anchor="middle" x="1683" y="-1881.4" font-family="sans-serif" font-size="32.00" fill="white">Timber</text>
</a>
</g>
</g>
<!-- I_sawmill&#45;&gt;C_lumber -->
<g id="edge34" class="edge">
<title>I_sawmill&#45;&gt;C_lumber</title>
<g id="a_edge34"><a xlink:title="Sawmill &#45;&gt; Timber">
<path fill="none" stroke="#74581c" stroke-width="5" d="M1536.23,-1901.01C1567.97,-1898.5 1599.35,-1896.03 1624.81,-1894.01"/>
</a>
</g>
</g>
<!-- C_paper&#45;&gt;I_port -->
<g id="edge9" class="edge">
<title>C_paper&#45;&gt;I_port</title>
<g id="a_edge9"><a xlink:title="Paper &#45;&gt; Port">
<path fill="none" stroke="#882034" stroke-width="5" d="M2770.88,-1536.47C2666.26,-1529.66 2417.23,-1510.89 2211,-1475.5 2196.96,-1473.09 2182.49,-1470.31 2167.99,-1467.3"/>
<polygon fill="#882034" stroke="#882034" stroke-width="5" points="2169.61,-1458.7 2148.23,-1463.09 2165.96,-1475.82 2169.61,-1458.7"/>
</a>
</g>
</g>
<!-- C_peat -->
<g id="peat" class="node">
<title>C_peat</title>
<g id="a_peat"><a xlink:href="cargos.html#peat" xlink:title="Peat" target="_top">
<polygon fill="#004ca8" stroke="#004ca8" points="1724.5,-2017 1641.5,-2017 1641.5,-1974 1724.5,-1974 1724.5,-2017"/>
<text text-anchor="middle" x="1683" y="-1987.4" font-family="sans-serif" font-size="32.00" fill="white">Peat</text>
</a>
</g>
</g>
<!-- C_peat&#45;&gt;I_wharf -->
<g id="edge11" class="edge">
<title>C_peat&#45;&gt;I_wharf</title>
<g id="a_edge11"><a xlink:title="Peat &#45;&gt; Wharf">
<path fill="none" stroke="#004ca8" stroke-width="5" d="M1724.68,-1981.31C1747.81,-1973.25 1778.55,-1962.53 1810.85,-1951.27"/>
<polygon fill="#004ca8" stroke="#004ca8" stroke-width="5" points="1813.99,-1959.44 1830,-1944.59 1808.23,-1942.92 1813.99,-1959.44"/>
</a>
</g>
</g>
<!-- I_power_plant -->
<g id="power_plant" class="node">
<title>I_power_plant</title>
<g id="a_power_plant"><a xlink:href="industries.html#power_plant" xlink:title="Power Plant" target="_top">
<polygon fill="white" stroke="transparent" points="1838,-2094.5 1838,-2308.5 2140,-2308.5 2140,-2094.5 1838,-2094.5"/>
<polygon fill="none" stroke="#c1cdcd" points="1838,-2141.5 1838,-2308.5 2140,-2308.5 2140,-2141.5 1838,-2141.5"/>
<image xlink:href="static/img/industries/power_plant.png" width="300px" height="165px" preserveAspectRatio="xMinYMin meet" x="1839" y="-2307.5"/>
<polygon fill="none" stroke="#c1cdcd" points="1838,-2094.5 1838,-2141.5 2140,-2141.5 2140,-2094.5 1838,-2094.5"/>
<polygon fill="ghostwhite" stroke="transparent" points="1839,-2095.5 1839,-2140.5 2139,-2140.5 2139,-2095.5 1839,-2095.5"/>
<text text-anchor="start" x="1902.5" y="-2109.9" font-family="sans-serif" font-size="32.00">Power Plant</text>
</a>
</g>
</g>
<!-- C_peat&#45;&gt;I_power_plant -->
<g id="edge10" class="edge">
<title>C_peat&#45;&gt;I_power_plant</title>
<g id="a_edge10"><a xlink:title="Peat &#45;&gt; Power Plant">
<path fill="none" stroke="#004ca8" stroke-width="5" d="M1715.96,-2017.16C1740.26,-2033.62 1775.8,-2057.71 1813.22,-2083.07"/>
<polygon fill="#004ca8" stroke="#004ca8" stroke-width="5" points="1808.47,-2090.41 1829.93,-2094.39 1818.28,-2075.93 1808.47,-2090.41"/>
</a>
</g>
</g>
<!-- C_phosphate -->
<g id="phosphate" class="node">
<title>C_phosphate</title>
<g id="a_phosphate"><a xlink:href="cargos.html#phosphate" xlink:title="Phosphate" target="_top">
<polygon fill="#505050" stroke="#505050" points="1155,-1650 985,-1650 985,-1607 1155,-1607 1155,-1650"/>
<text text-anchor="middle" x="1070" y="-1620.4" font-family="sans-serif" font-size="32.00" fill="white">Phosphate</text>
</a>
</g>
</g>
<!-- C_phosphate&#45;&gt;I_chemical_plant -->
<g id="edge12" class="edge">
<title>C_phosphate&#45;&gt;I_chemical_plant</title>
<g id="a_edge12"><a xlink:title="Phosphate &#45;&gt; Chemical Plant">
<path fill="none" stroke="#505050" stroke-width="5" d="M1155.15,-1628.5C1168.61,-1628.5 1182.96,-1628.5 1197.64,-1628.5"/>
<polygon fill="#505050" stroke="#505050" stroke-width="5" points="1197.81,-1637.25 1217.81,-1628.5 1197.81,-1619.75 1197.81,-1637.25"/>
</a>
</g>
</g>
<!-- C_potash&#45;&gt;I_chemical_plant -->
<g id="edge13" class="edge">
<title>C_potash&#45;&gt;I_chemical_plant</title>
<g id="a_edge13"><a xlink:title="Potash &#45;&gt; Chemical Plant">
<path fill="none" stroke="#468fa8" stroke-width="5" d="M2210.98,-1654.71C2081.31,-1650.63 1759.86,-1640.51 1556.32,-1634.11"/>
<polygon fill="#468fa8" stroke="#468fa8" stroke-width="5" points="1556.35,-1625.36 1536.09,-1633.47 1555.8,-1642.85 1556.35,-1625.36"/>
</a>
</g>
</g>
<!-- C_pyrite_ore -->
<g id="pyrite_ore" class="node">
<title>C_pyrite_ore</title>
<g id="a_pyrite_ore"><a xlink:href="cargos.html#pyrite_ore" xlink:title="Pyrite Ore" target="_top">
<polygon fill="#a85050" stroke="#a85050" points="541,-1334 381,-1334 381,-1291 541,-1291 541,-1334"/>
<text text-anchor="middle" x="461" y="-1304.4" font-family="sans-serif" font-size="32.00" fill="white">Pyrite Ore</text>
</a>
</g>
</g>
<!-- I_pyrite_smelter -->
<g id="pyrite_smelter" class="node">
<title>I_pyrite_smelter</title>
<g id="a_pyrite_smelter"><a xlink:href="industries.html#pyrite_smelter" xlink:title="Pyrite Smelter" target="_top">
<polygon fill="white" stroke="transparent" points="612,-1205.5 612,-1419.5 914,-1419.5 914,-1205.5 612,-1205.5"/>
<polygon fill="none" stroke="#c1cdcd" points="612,-1252.5 612,-1419.5 914,-1419.5 914,-1252.5 612,-1252.5"/>
<image xlink:href="static/img/industries/pyrite_smelter.png" width="300px" height="165px" preserveAspectRatio="xMinYMin meet" x="613" y="-1418.5"/>
<polygon fill="none" stroke="#c1cdcd" points="612,-1205.5 612,-1252.5 914,-1252.5 914,-1205.5 612,-1205.5"/>
<polygon fill="ghostwhite" stroke="transparent" points="613,-1206.5 613,-1251.5 913,-1251.5 913,-1206.5 613,-1206.5"/>
<text text-anchor="start" x="662.5" y="-1220.9" font-family="sans-serif" font-size="32.00">Pyrite Smelter</text>
</a>
</g>
</g>
<!-- C_pyrite_ore&#45;&gt;I_pyrite_smelter -->
<g id="edge14" class="edge">
<title>C_pyrite_ore&#45;&gt;I_pyrite_smelter</title>
<g id="a_edge14"><a xlink:title="Pyrite Ore &#45;&gt; Pyrite Smelter">
<path fill="none" stroke="#a85050" stroke-width="5" d="M541.21,-1312.5C554.58,-1312.5 568.92,-1312.5 583.64,-1312.5"/>
<polygon fill="#a85050" stroke="#a85050" stroke-width="5" points="583.89,-1321.25 603.89,-1312.5 583.89,-1303.75 583.89,-1321.25"/>
</a>
</g>
</g>
<!-- C_sulphur -->
<g id="sulphur" class="node">
<title>C_sulphur</title>
<g id="a_sulphur"><a xlink:href="cargos.html#sulphur" xlink:title="Sulphur" target="_top">
<polygon fill="#7d70a8" stroke="#7d70a8" points="1133.5,-1434 1006.5,-1434 1006.5,-1391 1133.5,-1391 1133.5,-1434"/>
<text text-anchor="middle" x="1070" y="-1404.4" font-family="sans-serif" font-size="32.00" fill="white">Sulphur</text>
</a>
</g>
</g>
<!-- I_pyrite_smelter&#45;&gt;C_sulphur -->
<g id="edge32" class="edge">
<title>I_pyrite_smelter&#45;&gt;C_sulphur</title>
<g id="a_edge32"><a xlink:title="Pyrite Smelter &#45;&gt; Sulphur">
<path fill="none" stroke="#7d70a8" stroke-width="5" d="M922.31,-1364.4C952.19,-1374.2 981.77,-1383.9 1006.46,-1391.99"/>
</a>
</g>
</g>
<!-- C_zinc -->
<g id="zinc" class="node">
<title>C_zinc</title>
<g id="a_zinc"><a xlink:href="cargos.html#zinc" xlink:title="Zinc" target="_top">
<polygon fill="#a8926d" stroke="#a8926d" points="1721.5,-1327 1644.5,-1327 1644.5,-1284 1721.5,-1284 1721.5,-1327"/>
<text text-anchor="middle" x="1683" y="-1297.4" font-family="sans-serif" font-size="32.00" fill="white">Zinc</text>
</a>
</g>
</g>
<!-- I_pyrite_smelter&#45;&gt;C_zinc -->
<g id="edge33" class="edge">
<title>I_pyrite_smelter&#45;&gt;C_zinc</title>
<g id="a_edge33"><a xlink:title="Pyrite Smelter &#45;&gt; Zinc">
<path fill="none" stroke="#a8926d" stroke-width="5" d="M922.07,-1311.29C1141.02,-1309.63 1523.32,-1306.71 1644.22,-1305.79"/>
</a>
</g>
</g>
<!-- C_sulphur&#45;&gt;I_chemical_plant -->
<g id="edge15" class="edge">
<title>C_sulphur&#45;&gt;I_chemical_plant</title>
<g id="a_edge15"><a xlink:title="Sulphur &#45;&gt; Chemical Plant">
<path fill="none" stroke="#7d70a8" stroke-width="5" d="M1104.77,-1434.07C1120.21,-1444.06 1138.65,-1456.2 1155,-1467.5 1172.73,-1479.75 1191.12,-1492.72 1209.39,-1505.77"/>
<polygon fill="#7d70a8" stroke="#7d70a8" stroke-width="5" points="1204.39,-1512.95 1225.74,-1517.5 1214.59,-1498.73 1204.39,-1512.95"/>
</a>
</g>
</g>
<!-- C_sulphur&#45;&gt;I_paper_mill -->
<g id="edge16" class="edge">
<title>C_sulphur&#45;&gt;I_paper_mill</title>
<g id="a_edge16"><a xlink:title="Sulphur &#45;&gt; Paper Mill">
<path fill="none" stroke="#7d70a8" stroke-width="5" d="M1101.08,-1390.85C1187.1,-1331.13 1443.28,-1168.5 1682,-1168.5 1682,-1168.5 1682,-1168.5 1990,-1168.5 2121.41,-1168.5 2263.35,-1211.1 2371.19,-1253.01"/>
<polygon fill="#7d70a8" stroke="#7d70a8" stroke-width="5" points="2368.07,-1261.19 2389.89,-1260.41 2374.51,-1244.92 2368.07,-1261.19"/>
</a>
</g>
</g>
<!-- C_lumber&#45;&gt;I_wharf -->
<g id="edge17" class="edge">
<title>C_lumber&#45;&gt;I_wharf</title>
<g id="a_edge17"><a xlink:title="Timber &#45;&gt; Wharf">
<path fill="none" stroke="#74581c" stroke-width="5" d="M1741.18,-1889.5C1761.17,-1889.5 1784.79,-1889.5 1809.38,-1889.5"/>
<polygon fill="#74581c" stroke="#74581c" stroke-width="5" points="1809.73,-1898.25 1829.73,-1889.5 1809.73,-1880.75 1809.73,-1898.25"/>
</a>
</g>
</g>
<!-- C_zinc&#45;&gt;I_port -->
<g id="edge18" class="edge">
<title>C_zinc&#45;&gt;I_port</title>
<g id="a_edge18"><a xlink:title="Zinc &#45;&gt; Port">
<path fill="none" stroke="#a8926d" stroke-width="5" d="M1721.58,-1319.96C1745.04,-1328.99 1777.12,-1341.34 1810.91,-1354.34"/>
<polygon fill="#a8926d" stroke="#a8926d" stroke-width="5" points="1808,-1362.6 1829.81,-1361.62 1814.29,-1346.27 1808,-1362.6"/>
</a>
</g>
</g>
<!-- I_fish_farm -->
<g id="fish_farm" class="node">
<title>I_fish_farm</title>
<g id="a_fish_farm"><a xlink:href="industries.html#fish_farm" xlink:title="Fish Farm" target="_top">
<polygon fill="white" stroke="transparent" points="8,-453 8,-694 310,-694 310,-453 8,-453"/>
<polygon fill="none" stroke="#c1cdcd" points="8,-526.5 8,-693.5 310,-693.5 310,-526.5 8,-526.5"/>
<image xlink:href="static/img/industries/fish_farm.png" width="300px" height="165px" preserveAspectRatio="xMinYMin meet" x="9" y="-692.5"/>
<polygon fill="none" stroke="#c1cdcd" points="8,-452.5 8,-526.5 310,-526.5 310,-452.5 8,-452.5"/>
<polygon fill="ghostwhite" stroke="transparent" points="9,-453.5 9,-525.5 309,-525.5 309,-453.5 9,-453.5"/>
<text text-anchor="start" x="86.5" y="-494.9" font-family="sans-serif" font-size="32.00">Fish Farm</text>
<text text-anchor="start" x="51.5" y="-464.5" font-family="sans-serif" font-size="20.00">Requires Farm Supplies</text>
</a>
</g>
</g>
<!-- I_fish_farm&#45;&gt;C_fish -->
<g id="edge21" class="edge">
<title>I_fish_farm&#45;&gt;C_fish</title>
<g id="a_edge21"><a xlink:title="Fish Farm &#45;&gt; Fish">
<path fill="none" stroke="#a89a28" stroke-width="5" d="M318.35,-494.33C357.22,-474.89 395.35,-455.83 422.24,-442.38"/>
</a>
</g>
</g>
<!-- I_fishing_grounds -->
<g id="fishing_grounds" class="node">
<title>I_fishing_grounds</title>
<g id="a_fishing_grounds"><a xlink:href="industries.html#fishing_grounds" xlink:title="Fishing Grounds" target="_top">
<polygon fill="white" stroke="transparent" points="8,-167.5 8,-381.5 310,-381.5 310,-167.5 8,-167.5"/>
<polygon fill="none" stroke="#c1cdcd" points="8,-214.5 8,-381.5 310,-381.5 310,-214.5 8,-214.5"/>
<image xlink:href="static/img/industries/fishing_grounds.png" width="300px" height="165px" preserveAspectRatio="xMinYMin meet" x="9" y="-380.5"/>
<polygon fill="none" stroke="#c1cdcd" points="8,-167.5 8,-214.5 310,-214.5 310,-167.5 8,-167.5"/>
<polygon fill="ghostwhite" stroke="transparent" points="9,-168.5 9,-213.5 309,-213.5 309,-168.5 9,-168.5"/>
<text text-anchor="start" x="41.5" y="-182.9" font-family="sans-serif" font-size="32.00">Fishing Grounds</text>
</a>
</g>
</g>
<!-- I_fishing_grounds&#45;&gt;C_fish -->
<g id="edge22" class="edge">
<title>I_fishing_grounds&#45;&gt;C_fish</title>
<g id="a_edge22"><a xlink:title="Fishing Grounds &#45;&gt; Fish">
<path fill="none" stroke="#a89a28" stroke-width="5" d="M318.35,-353.15C357.22,-372.45 395.35,-391.39 422.24,-404.74"/>
</a>
</g>
</g>
<!-- I_forest -->
<g id="forest" class="node">
<title>I_forest</title>
<g id="a_forest"><a xlink:href="industries.html#forest" xlink:title="Forest" target="_top">
<polygon fill="white" stroke="transparent" points="612,-2312 612,-2553 914,-2553 914,-2312 612,-2312"/>
<polygon fill="none" stroke="#c1cdcd" points="612,-2385.5 612,-2552.5 914,-2552.5 914,-2385.5 612,-2385.5"/>
<image xlink:href="static/img/industries/forest.png" width="300px" height="165px" preserveAspectRatio="xMinYMin meet" x="613" y="-2551.5"/>
<polygon fill="none" stroke="#c1cdcd" points="612,-2311.5 612,-2385.5 914,-2385.5 914,-2311.5 612,-2311.5"/>
<polygon fill="ghostwhite" stroke="transparent" points="613,-2312.5 613,-2384.5 913,-2384.5 913,-2312.5 613,-2312.5"/>
<text text-anchor="start" x="717.5" y="-2353.9" font-family="sans-serif" font-size="32.00">Forest</text>
<text text-anchor="start" x="655.5" y="-2323.5" font-family="sans-serif" font-size="20.00">Requires Farm Supplies</text>
</a>
</g>
</g>
<!-- I_forest&#45;&gt;C_logs -->
<g id="edge24" class="edge">
<title>I_forest&#45;&gt;C_logs</title>
<g id="a_edge24"><a xlink:title="Forest &#45;&gt; Logs">
<path fill="none" stroke="#a88000" stroke-width="5" d="M922.31,-2432.5C961.04,-2432.5 999.26,-2432.5 1026.98,-2432.5"/>
</a>
</g>
</g>
<!-- I_herding_coop -->
<g id="herding_coop" class="node">
<title>I_herding_coop</title>
<g id="a_herding_coop"><a xlink:href="industries.html#herding_coop" xlink:title="Herding Co&#45;op" target="_top">
<polygon fill="white" stroke="transparent" points="612,-4 612,-245 914,-245 914,-4 612,-4"/>
<polygon fill="none" stroke="#c1cdcd" points="612,-77.5 612,-244.5 914,-244.5 914,-77.5 612,-77.5"/>
<image xlink:href="static/img/industries/herding_coop.png" width="300px" height="165px" preserveAspectRatio="xMinYMin meet" x="613" y="-243.5"/>
<polygon fill="none" stroke="#c1cdcd" points="612,-3.5 612,-77.5 914,-77.5 914,-3.5 612,-3.5"/>
<polygon fill="ghostwhite" stroke="transparent" points="613,-4.5 613,-76.5 913,-76.5 913,-4.5 613,-4.5"/>
<text text-anchor="start" x="658" y="-45.9" font-family="sans-serif" font-size="32.00">Herding Co&#45;op</text>
<text text-anchor="start" x="655.5" y="-15.5" font-family="sans-serif" font-size="20.00">Requires Farm Supplies</text>
</a>
</g>
</g>
<!-- I_herding_coop&#45;&gt;C_food -->
<g id="edge25" class="edge">
<title>I_herding_coop&#45;&gt;C_food</title>
<g id="a_edge25"><a xlink:title="Herding Co&#45;op &#45;&gt; Food">
<path fill="none" stroke="#a84800" stroke-width="5" d="M922.31,-201.84C960.02,-220.26 997.26,-238.45 1024.78,-251.9"/>
</a>
</g>
</g>
<!-- I_peatlands -->
<g id="peatlands" class="node">
<title>I_peatlands</title>
<g id="a_peatlands"><a xlink:href="industries.html#peatlands" xlink:title="Peatlands" target="_top">
<polygon fill="white" stroke="transparent" points="1226,-2092 1226,-2333 1528,-2333 1528,-2092 1226,-2092"/>
<polygon fill="none" stroke="#c1cdcd" points="1226,-2165.5 1226,-2332.5 1528,-2332.5 1528,-2165.5 1226,-2165.5"/>
<image xlink:href="static/img/industries/peatlands.png" width="300px" height="165px" preserveAspectRatio="xMinYMin meet" x="1227" y="-2331.5"/>
<polygon fill="none" stroke="#c1cdcd" points="1226,-2091.5 1226,-2165.5 1528,-2165.5 1528,-2091.5 1226,-2091.5"/>
<polygon fill="ghostwhite" stroke="transparent" points="1227,-2092.5 1227,-2164.5 1527,-2164.5 1527,-2092.5 1227,-2092.5"/>
<text text-anchor="start" x="1305.5" y="-2133.9" font-family="sans-serif" font-size="32.00">Peatlands</text>
<text text-anchor="start" x="1238.5" y="-2103.5" font-family="sans-serif" font-size="20.00">Requires Engineering Supplies</text>
</a>
</g>
</g>
<!-- I_peatlands&#45;&gt;C_peat -->
<g id="edge27" class="edge">
<title>I_peatlands&#45;&gt;C_peat</title>
<g id="a_edge27"><a xlink:title="Peatlands &#45;&gt; Peat">
<path fill="none" stroke="#004ca8" stroke-width="5" d="M1536.23,-2099.55C1580.38,-2068.04 1623.82,-2037.03 1651.64,-2017.17"/>
</a>
</g>
</g>
<!-- I_phosphate_mine -->
<g id="phosphate_mine" class="node">
<title>I_phosphate_mine</title>
<g id="a_phosphate_mine"><a xlink:href="industries.html#phosphate_mine" xlink:title="Phosphate Mine" target="_top">
<polygon fill="white" stroke="transparent" points="612,-1508 612,-1749 914,-1749 914,-1508 612,-1508"/>
<polygon fill="none" stroke="#c1cdcd" points="612,-1581.5 612,-1748.5 914,-1748.5 914,-1581.5 612,-1581.5"/>
<image xlink:href="static/img/industries/phosphate_mine.png" width="300px" height="165px" preserveAspectRatio="xMinYMin meet" x="613" y="-1747.5"/>
<polygon fill="none" stroke="#c1cdcd" points="612,-1507.5 612,-1581.5 914,-1581.5 914,-1507.5 612,-1507.5"/>
<polygon fill="ghostwhite" stroke="transparent" points="613,-1508.5 613,-1580.5 913,-1580.5 913,-1508.5 613,-1508.5"/>
<text text-anchor="start" x="646.5" y="-1549.9" font-family="sans-serif" font-size="32.00">Phosphate Mine</text>
<text text-anchor="start" x="624.5" y="-1519.5" font-family="sans-serif" font-size="20.00">Requires Engineering Supplies</text>
</a>
</g>
</g>
<!-- I_phosphate_mine&#45;&gt;C_phosphate -->
<g id="edge28" class="edge">
<title>I_phosphate_mine&#45;&gt;C_phosphate</title>
<g id="a_edge28"><a xlink:title="Phosphate Mine &#45;&gt; Phosphate">
<path fill="none" stroke="#505050" stroke-width="5" d="M922.31,-1628.5C943.92,-1628.5 965.38,-1628.5 984.94,-1628.5"/>
</a>
</g>
</g>
<!-- I_pyrite_mine -->
<g id="pyrite_mine" class="node">
<title>I_pyrite_mine</title>
<g id="a_pyrite_mine"><a xlink:href="industries.html#pyrite_mine" xlink:title="Pyrite Mine" target="_top">
<polygon fill="white" stroke="transparent" points="8,-1192 8,-1433 310,-1433 310,-1192 8,-1192"/>
<polygon fill="none" stroke="#c1cdcd" points="8,-1265.5 8,-1432.5 310,-1432.5 310,-1265.5 8,-1265.5"/>
<image xlink:href="static/img/industries/pyrite_mine.png" width="300px" height="165px" preserveAspectRatio="xMinYMin meet" x="9" y="-1431.5"/>
<polygon fill="none" stroke="#c1cdcd" points="8,-1191.5 8,-1265.5 310,-1265.5 310,-1191.5 8,-1191.5"/>
<polygon fill="ghostwhite" stroke="transparent" points="9,-1192.5 9,-1264.5 309,-1264.5 309,-1192.5 9,-1192.5"/>
<text text-anchor="start" x="79" y="-1233.9" font-family="sans-serif" font-size="32.00">Pyrite Mine</text>
<text text-anchor="start" x="20.5" y="-1203.5" font-family="sans-serif" font-size="20.00">Requires Engineering Supplies</text>
</a>
</g>
</g>
<!-- I_pyrite_mine&#45;&gt;C_pyrite_ore -->
<g id="edge31" class="edge">
<title>I_pyrite_mine&#45;&gt;C_pyrite_ore</title>
<g id="a_edge31"><a xlink:title="Pyrite Mine &#45;&gt; Pyrite Ore">
<path fill="none" stroke="#a85050" stroke-width="5" d="M318.35,-1312.5C340.04,-1312.5 361.5,-1312.5 380.9,-1312.5"/>
</a>
</g>
</g>
</g>
</svg>
