<?xml version="1.0" encoding="UTF-8" standalone="no"?>
<?xml-stylesheet href="static/css/cargoflow_styles.css" type="text/css"?>
<!DOCTYPE svg PUBLIC "-//W3C//DTD SVG 1.1//EN"
 "http://www.w3.org/Graphics/SVG/1.1/DTD/svg11.dtd">
<!-- Generated by graphviz version 2.40.1 (20161225.0304)
 -->
<!-- Title: arctic_basic Pages: 1 -->
<svg width="1499pt" height="928pt"
 viewBox="0.00 0.00 1499.15 928.00" xmlns="http://www.w3.org/2000/svg" xmlns:xlink="http://www.w3.org/1999/xlink">
<g id="graph0" class="graph" transform="scale(1 1) rotate(0) translate(4 924)">
<title>arctic_basic</title>
<g id="a_graph0"><a xlink:title="Arctic Basic">
<polygon fill="#ffffff" stroke="transparent" points="-4,4 -4,-924 1495.1497,-924 1495.1497,4 -4,4"/>
</a>
</g>
<!-- C_ammonia -->
<g id="ammonia" class="node">
<title>C_ammonia</title>
<g id="a_ammonia"><a xlink:href="cargos.html#ammonia" xlink:title="Ammonia" target="_top">
<ellipse fill="none" stroke="#000000" cx="576.2161" cy="-165" rx="47.4168" ry="18"/>
<text text-anchor="middle" x="576.2161" y="-160.8" font-family="sans-serif" font-size="14.00" fill="#000000">Ammonia</text>
</a>
</g>
</g>
<!-- I_chemical_plant -->
<g id="chemical_plant" class="node">
<title>I_chemical_plant</title>
<g id="a_chemical_plant"><a xlink:href="industries.html#chemical_plant" xlink:title="Chemical Plant" target="_top">
<polygon fill="none" stroke="#000000" points="801.61,-266 683.61,-266 683.61,-230 801.61,-230 801.61,-266"/>
<text text-anchor="start" x="695.5343" y="-243.8" font-family="sans-serif" font-size="14.00" fill="#000000">Chemical Plant</text>
</a>
</g>
</g>
<!-- C_ammonia&#45;&gt;I_chemical_plant -->
<g id="edge1" class="edge">
<title>C_ammonia&#45;&gt;I_chemical_plant</title>
<g id="a_edge1"><a xlink:title="Ammonia &#45;&gt; Chemical Plant">
<path fill="none" stroke="#000000" d="M605.1997,-179.4575C630.5732,-192.1142 667.8628,-210.7149 697.1962,-225.3469"/>
<polygon fill="#000000" stroke="#000000" points="695.9045,-228.6137 706.4153,-229.9455 699.0291,-222.3498 695.9045,-228.6137"/>
</a>
</g>
</g>
<!-- C_explosives -->
<g id="explosives" class="node">
<title>C_explosives</title>
<g id="a_explosives"><a xlink:href="cargos.html#explosives" xlink:title="Explosives" target="_top">
<ellipse fill="none" stroke="#000000" cx="908.9867" cy="-303" rx="52.2537" ry="18"/>
<text text-anchor="middle" x="908.9867" y="-298.8" font-family="sans-serif" font-size="14.00" fill="#000000">Explosives</text>
</a>
</g>
</g>
<!-- I_chemical_plant&#45;&gt;C_explosives -->
<g id="edge17" class="edge">
<title>I_chemical_plant&#45;&gt;C_explosives</title>
<g id="a_edge17"><a xlink:title="Chemical Plant &#45;&gt; Explosives">
<path fill="none" stroke="#000000" d="M797.088,-266.0091C817.9375,-272.9014 841.5294,-280.7003 861.6576,-287.3542"/>
<polygon fill="#000000" stroke="#000000" points="860.64,-290.704 871.2333,-290.5196 862.8372,-284.0577 860.64,-290.704"/>
</a>
</g>
</g>
<!-- C_fertiliser -->
<g id="fertiliser" class="node">
<title>C_fertiliser</title>
<g id="a_fertiliser"><a xlink:href="cargos.html#fertiliser" xlink:title="Fertiliser" target="_top">
<ellipse fill="none" stroke="#000000" cx="908.9867" cy="-193" rx="44.0164" ry="18"/>
<text text-anchor="middle" x="908.9867" y="-188.8" font-family="sans-serif" font-size="14.00" fill="#000000">Fertiliser</text>
</a>
</g>
</g>
<!-- I_chemical_plant&#45;&gt;C_fertiliser -->
<g id="edge18" class="edge">
<title>I_chemical_plant&#45;&gt;C_fertiliser</title>
<g id="a_edge18"><a xlink:title="Chemical Plant &#45;&gt; Fertiliser">
<path fill="none" stroke="#000000" d="M797.088,-229.9909C819.014,-222.7427 843.973,-214.4919 864.7469,-207.6246"/>
<polygon fill="#000000" stroke="#000000" points="865.8772,-210.9373 874.2733,-204.4754 863.6801,-204.291 865.8772,-210.9373"/>
</a>
</g>
</g>
<!-- I_wharf -->
<g id="wharf" class="node">
<title>I_wharf</title>
<g id="a_wharf"><a xlink:href="industries.html#wharf" xlink:title="Wharf" target="_top">
<polygon fill="none" stroke="#000000" points="1054.3634,-354 993.3634,-354 993.3634,-318 1054.3634,-318 1054.3634,-354"/>
<text text-anchor="start" x="1005.6945" y="-331.8" font-family="sans-serif" font-size="14.00" fill="#000000">Wharf</text>
</a>
</g>
</g>
<!-- C_explosives&#45;&gt;I_wharf -->
<g id="edge2" class="edge">
<title>C_explosives&#45;&gt;I_wharf</title>
<g id="a_edge2"><a xlink:title="Explosives &#45;&gt; Wharf">
<path fill="none" stroke="#000000" d="M949.4879,-314.6346C960.4674,-317.7886 972.3537,-321.2031 983.3347,-324.3575"/>
<polygon fill="#000000" stroke="#000000" points="982.5351,-327.7693 993.1128,-327.1664 984.4678,-321.0414 982.5351,-327.7693"/>
</a>
</g>
</g>
<!-- C_potash -->
<g id="potash" class="node">
<title>C_potash</title>
<g id="a_potash"><a xlink:href="cargos.html#potash" xlink:title="Potash" target="_top">
<ellipse fill="none" stroke="#000000" cx="1180.0513" cy="-248" rx="37.7785" ry="18"/>
<text text-anchor="middle" x="1180.0513" y="-243.8" font-family="sans-serif" font-size="14.00" fill="#000000">Potash</text>
</a>
</g>
</g>
<!-- I_wharf&#45;&gt;C_potash -->
<g id="edge35" class="edge">
<title>I_wharf&#45;&gt;C_potash</title>
<g id="a_edge35"><a xlink:title="Wharf &#45;&gt; Potash">
<path fill="none" stroke="#000000" d="M1039.4601,-317.7796C1051.214,-305.0584 1068.3439,-288.5334 1086.3634,-278 1101.382,-269.2208 1119.2814,-262.6785 1135.3914,-257.9828"/>
<polygon fill="#000000" stroke="#000000" points="1136.4382,-261.3249 1145.1492,-255.2942 1134.5787,-254.5763 1136.4382,-261.3249"/>
</a>
</g>
</g>
<!-- C_engineering_supplies_wharf -->
<g id="engineering_supplies" class="node">
<title>C_engineering_supplies_wharf</title>
<g id="a_engineering_supplies"><a xlink:href="cargos.html#engineering_supplies" xlink:title="Engineering Supplies" target="_top">
<ellipse fill="none" stroke="#000000" cx="1180.0513" cy="-308" rx="93.8763" ry="18"/>
<text text-anchor="middle" x="1180.0513" y="-303.8" font-family="sans-serif" font-size="14.00" fill="#000000">Engineering Supplies</text>
</a>
</g>
</g>
<!-- I_wharf&#45;&gt;C_engineering_supplies_wharf -->
<g id="edge36" class="edge">
<title>I_wharf&#45;&gt;C_engineering_supplies_wharf</title>
<g id="a_edge36"><a xlink:title="Wharf &#45;&gt; Engineering Supplies">
<path fill="none" stroke="#000000" d="M1054.7211,-330.4681C1068.194,-328.0528 1084.6714,-325.0989 1101.1943,-322.1368"/>
<polygon fill="#000000" stroke="#000000" points="1102.2361,-325.5059 1111.4616,-320.2962 1101.0009,-318.6157 1102.2361,-325.5059"/>
</a>
</g>
</g>
<!-- C_farm_supplies_wharf -->
<g id="farm_supplies" class="node">
<title>C_farm_supplies_wharf</title>
<g id="a_farm_supplies"><a xlink:href="cargos.html#farm_supplies" xlink:title="Farm Supplies" target="_top">
<ellipse fill="none" stroke="#000000" cx="1180.0513" cy="-368" rx="67.2376" ry="18"/>
<text text-anchor="middle" x="1180.0513" y="-363.8" font-family="sans-serif" font-size="14.00" fill="#000000">Farm Supplies</text>
</a>
</g>
</g>
<!-- I_wharf&#45;&gt;C_farm_supplies_wharf -->
<g id="edge37" class="edge">
<title>I_wharf&#45;&gt;C_farm_supplies_wharf</title>
<g id="a_edge37"><a xlink:title="Wharf &#45;&gt; Farm Supplies">
<path fill="none" stroke="#000000" d="M1054.7211,-342.3222C1072.3731,-345.9387 1095.1826,-350.612 1116.4947,-354.9784"/>
<polygon fill="#000000" stroke="#000000" points="1115.9823,-358.4461 1126.4813,-357.0245 1117.3873,-351.5885 1115.9823,-358.4461"/>
</a>
</g>
</g>
<!-- I_port -->
<g id="port" class="node">
<title>I_port</title>
<g id="a_port"><a xlink:href="industries.html#port" xlink:title="Port" target="_top">
<polygon fill="none" stroke="#000000" points="1050.8634,-146 996.8634,-146 996.8634,-110 1050.8634,-110 1050.8634,-146"/>
<text text-anchor="start" x="1011.5255" y="-123.8" font-family="sans-serif" font-size="14.00" fill="#000000">Port</text>
</a>
</g>
</g>
<!-- C_fertiliser&#45;&gt;I_port -->
<g id="edge3" class="edge">
<title>C_fertiliser&#45;&gt;I_port</title>
<g id="a_edge3"><a xlink:title="Fertiliser &#45;&gt; Port">
<path fill="none" stroke="#000000" d="M935.054,-178.2505C950.5816,-169.4646 970.5215,-158.1821 987.5718,-148.5346"/>
<polygon fill="#000000" stroke="#000000" points="989.7209,-151.3402 996.7006,-143.3694 986.2736,-145.2478 989.7209,-151.3402"/>
</a>
</g>
</g>
<!-- I_port&#45;&gt;C_ammonia -->
<g id="edge27" class="edge">
<title>I_port&#45;&gt;C_ammonia</title>
<g id="a_edge27"><a xlink:title="Port &#45;&gt; Ammonia">
<path fill="none" stroke="#000000" d="M996.6814,-130.2467C925.1242,-136.1612 730.3678,-152.2587 633.09,-160.2991"/>
<polygon fill="#000000" stroke="#000000" points="632.533,-156.8331 622.8554,-161.1451 633.1097,-163.8093 632.533,-156.8331"/>
</a>
</g>
</g>
<!-- C_kaolin -->
<g id="kaolin" class="node">
<title>C_kaolin</title>
<g id="a_kaolin"><a xlink:href="cargos.html#kaolin" xlink:title="Kaolin" target="_top">
<ellipse fill="none" stroke="#000000" cx="1180.0513" cy="-188" rx="34.8806" ry="18"/>
<text text-anchor="middle" x="1180.0513" y="-183.8" font-family="sans-serif" font-size="14.00" fill="#000000">Kaolin</text>
</a>
</g>
</g>
<!-- I_port&#45;&gt;C_kaolin -->
<g id="edge28" class="edge">
<title>I_port&#45;&gt;C_kaolin</title>
<g id="a_edge28"><a xlink:title="Port &#45;&gt; Kaolin">
<path fill="none" stroke="#000000" d="M1050.8813,-141.9708C1061.7564,-147.3289 1074.5093,-153.2831 1086.3634,-158 1103.447,-164.7978 1122.7307,-171.1837 1139.3428,-176.3018"/>
<polygon fill="#000000" stroke="#000000" points="1138.7122,-179.7678 1149.2974,-179.3172 1140.7415,-173.0684 1138.7122,-179.7678"/>
</a>
</g>
</g>
<!-- C_engineering_supplies_port -->
<g id="engineering_supplies" class="node">
<title>C_engineering_supplies_port</title>
<g id="a_engineering_supplies"><a xlink:href="cargos.html#engineering_supplies" xlink:title="Engineering Supplies" target="_top">
<ellipse fill="none" stroke="#000000" cx="1180.0513" cy="-18" rx="93.8763" ry="18"/>
<text text-anchor="middle" x="1180.0513" y="-13.8" font-family="sans-serif" font-size="14.00" fill="#000000">Engineering Supplies</text>
</a>
</g>
</g>
<!-- I_port&#45;&gt;C_engineering_supplies_port -->
<g id="edge29" class="edge">
<title>I_port&#45;&gt;C_engineering_supplies_port</title>
<g id="a_edge29"><a xlink:title="Port &#45;&gt; Engineering Supplies">
<path fill="none" stroke="#000000" d="M1035.2365,-109.9064C1046.4525,-93.3564 1064.9845,-69.2031 1086.3634,-54 1095.8088,-47.2831 1106.6707,-41.6263 1117.5754,-36.9322"/>
<polygon fill="#000000" stroke="#000000" points="1119.1852,-40.0563 1127.1348,-33.0525 1116.5526,-33.5701 1119.1852,-40.0563"/>
</a>
</g>
</g>
<!-- C_farm_supplies_port -->
<g id="farm_supplies" class="node">
<title>C_farm_supplies_port</title>
<g id="a_farm_supplies"><a xlink:href="cargos.html#farm_supplies" xlink:title="Farm Supplies" target="_top">
<ellipse fill="none" stroke="#000000" cx="1180.0513" cy="-128" rx="67.2376" ry="18"/>
<text text-anchor="middle" x="1180.0513" y="-123.8" font-family="sans-serif" font-size="14.00" fill="#000000">Farm Supplies</text>
</a>
</g>
</g>
<!-- I_port&#45;&gt;C_farm_supplies_port -->
<g id="edge30" class="edge">
<title>I_port&#45;&gt;C_farm_supplies_port</title>
<g id="a_edge30"><a xlink:title="Port &#45;&gt; Farm Supplies">
<path fill="none" stroke="#000000" d="M1051.0693,-128C1065.59,-128 1084.2682,-128 1102.8769,-128"/>
<polygon fill="#000000" stroke="#000000" points="1102.8788,-131.5001 1112.8788,-128 1102.8788,-124.5001 1102.8788,-131.5001"/>
</a>
</g>
</g>
<!-- C_fish -->
<g id="fish" class="node">
<title>C_fish</title>
<g id="a_fish"><a xlink:href="cargos.html#fish" xlink:title="Fish" target="_top">
<ellipse fill="none" stroke="#000000" cx="245.9111" cy="-600" rx="27" ry="18"/>
<text text-anchor="middle" x="245.9111" y="-595.8" font-family="sans-serif" font-size="14.00" fill="#000000">Fish</text>
</a>
</g>
</g>
<!-- I_fishing_harbour -->
<g id="fishing_harbour" class="node">
<title>I_fishing_harbour</title>
<g id="a_fishing_harbour"><a xlink:href="industries.html#fishing_harbour" xlink:title="Fishing Harbour" target="_top">
<polygon fill="none" stroke="#000000" points="471.3221,-618 348.3221,-618 348.3221,-582 471.3221,-582 471.3221,-618"/>
<text text-anchor="start" x="360.5223" y="-595.8" font-family="sans-serif" font-size="14.00" fill="#000000">Fishing Harbour</text>
</a>
</g>
</g>
<!-- C_fish&#45;&gt;I_fishing_harbour -->
<g id="edge4" class="edge">
<title>C_fish&#45;&gt;I_fishing_harbour</title>
<g id="a_edge4"><a xlink:title="Fish &#45;&gt; Fishing Harbour">
<path fill="none" stroke="#000000" d="M272.9776,-600C290.7992,-600 315.0296,-600 338.1505,-600"/>
<polygon fill="#000000" stroke="#000000" points="338.3177,-603.5001 348.3177,-600 338.3177,-596.5001 338.3177,-603.5001"/>
</a>
</g>
</g>
<!-- C_food -->
<g id="food" class="node">
<title>C_food</title>
<g id="a_food"><a xlink:href="cargos.html#food" xlink:title="Food" target="_top">
<ellipse fill="none" stroke="#000000" cx="576.2161" cy="-633" rx="30.0292" ry="18"/>
<text text-anchor="middle" x="576.2161" y="-628.8" font-family="sans-serif" font-size="14.00" fill="#000000">Food</text>
</a>
</g>
</g>
<!-- I_fishing_harbour&#45;&gt;C_food -->
<g id="edge21" class="edge">
<title>I_fishing_harbour&#45;&gt;C_food</title>
<g id="a_edge21"><a xlink:title="Fishing Harbour &#45;&gt; Food">
<path fill="none" stroke="#000000" d="M471.7811,-612.288C493.7113,-616.6373 517.7515,-621.4051 537.2329,-625.2687"/>
<polygon fill="#000000" stroke="#000000" points="536.7664,-628.7443 547.2562,-627.2566 538.1282,-621.878 536.7664,-628.7443"/>
</a>
</g>
</g>
<!-- I_paper_mill -->
<g id="paper_mill" class="node">
<title>I_paper_mill</title>
<g id="a_paper_mill"><a xlink:href="industries.html#paper_mill" xlink:title="Paper Mill" target="_top">
<polygon fill="none" stroke="#000000" points="1391.7393,-441 1305.7393,-441 1305.7393,-405 1391.7393,-405 1391.7393,-441"/>
<text text-anchor="start" x="1317.6187" y="-418.8" font-family="sans-serif" font-size="14.00" fill="#000000">Paper Mill</text>
</a>
</g>
</g>
<!-- C_kaolin&#45;&gt;I_paper_mill -->
<g id="edge5" class="edge">
<title>C_kaolin&#45;&gt;I_paper_mill</title>
<g id="a_edge5"><a xlink:title="Kaolin &#45;&gt; Paper Mill">
<path fill="none" stroke="#000000" d="M1214.1574,-191.4742C1233.8132,-195.1283 1257.7225,-202.6243 1273.7393,-218 1323.9997,-266.249 1340.7514,-350.921 1346.2018,-394.8203"/>
<polygon fill="#000000" stroke="#000000" points="1342.7293,-395.2614 1347.3319,-404.8042 1349.6849,-394.474 1342.7293,-395.2614"/>
</a>
</g>
</g>
<!-- C_paper -->
<g id="paper" class="node">
<title>C_paper</title>
<g id="a_paper"><a xlink:href="cargos.html#paper" xlink:title="Paper" target="_top">
<ellipse fill="none" stroke="#000000" cx="1457.4445" cy="-73" rx="33.9117" ry="18"/>
<text text-anchor="middle" x="1457.4445" y="-68.8" font-family="sans-serif" font-size="14.00" fill="#000000">Paper</text>
</a>
</g>
</g>
<!-- I_paper_mill&#45;&gt;C_paper -->
<g id="edge24" class="edge">
<title>I_paper_mill&#45;&gt;C_paper</title>
<g id="a_edge24"><a xlink:title="Paper Mill &#45;&gt; Paper">
<path fill="none" stroke="#000000" d="M1354.4307,-404.6753C1372.2982,-347.147 1427.3564,-169.8752 1448.7848,-100.8817"/>
<polygon fill="#000000" stroke="#000000" points="1452.1858,-101.7315 1451.8094,-91.1433 1445.5008,-99.6552 1452.1858,-101.7315"/>
</a>
</g>
</g>
<!-- C_paper&#45;&gt;I_port -->
<g id="edge6" class="edge">
<title>C_paper&#45;&gt;I_port</title>
<g id="a_edge6"><a xlink:title="Paper &#45;&gt; Port">
<path fill="none" stroke="#000000" d="M1423.7513,-71.0666C1357.7562,-68.192 1207.3461,-66.1533 1086.3634,-98 1077.5683,-100.3152 1068.5201,-103.8773 1060.1344,-107.7486"/>
<polygon fill="#000000" stroke="#000000" points="1058.4536,-104.6741 1050.997,-112.2007 1061.5197,-110.9669 1058.4536,-104.6741"/>
</a>
</g>
</g>
<!-- C_peat -->
<g id="peat" class="node">
<title>C_peat</title>
<g id="a_peat"><a xlink:href="cargos.html#peat" xlink:title="Peat" target="_top">
<ellipse fill="none" stroke="#000000" cx="908.9867" cy="-363" rx="28.0994" ry="18"/>
<text text-anchor="middle" x="908.9867" y="-358.8" font-family="sans-serif" font-size="14.00" fill="#000000">Peat</text>
</a>
</g>
</g>
<!-- C_peat&#45;&gt;I_wharf -->
<g id="edge7" class="edge">
<title>C_peat&#45;&gt;I_wharf</title>
<g id="a_edge7"><a xlink:title="Peat &#45;&gt; Wharf">
<path fill="none" stroke="#000000" d="M935.6305,-356.7378C949.7669,-353.4152 967.4366,-349.2623 983.2428,-345.5472"/>
<polygon fill="#000000" stroke="#000000" points="984.3709,-348.8776 993.3048,-343.1823 982.7693,-342.0632 984.3709,-348.8776"/>
</a>
</g>
</g>
<!-- C_phosphate -->
<g id="phosphate" class="node">
<title>C_phosphate</title>
<g id="a_phosphate"><a xlink:href="cargos.html#phosphate" xlink:title="Phosphate" target="_top">
<ellipse fill="none" stroke="#000000" cx="576.2161" cy="-248" rx="52.2881" ry="18"/>
<text text-anchor="middle" x="576.2161" y="-243.8" font-family="sans-serif" font-size="14.00" fill="#000000">Phosphate</text>
</a>
</g>
</g>
<!-- C_phosphate&#45;&gt;I_chemical_plant -->
<g id="edge8" class="edge">
<title>C_phosphate&#45;&gt;I_chemical_plant</title>
<g id="a_edge8"><a xlink:title="Phosphate &#45;&gt; Chemical Plant">
<path fill="none" stroke="#000000" d="M628.8642,-248C642.9435,-248 658.3784,-248 673.2113,-248"/>
<polygon fill="#000000" stroke="#000000" points="673.36,-251.5001 683.36,-248 673.3599,-244.5001 673.36,-251.5001"/>
</a>
</g>
</g>
<!-- C_potash&#45;&gt;I_chemical_plant -->
<g id="edge9" class="edge">
<title>C_potash&#45;&gt;I_chemical_plant</title>
<g id="a_edge9"><a xlink:title="Potash &#45;&gt; Chemical Plant">
<path fill="none" stroke="#000000" d="M1142.2926,-248C1068.8678,-248 905.8631,-248 812.2836,-248"/>
<polygon fill="#000000" stroke="#000000" points="812.0606,-244.5001 802.0606,-248 812.0605,-251.5001 812.0606,-244.5001"/>
</a>
</g>
</g>
<!-- C_pyrite_ore -->
<g id="pyrite_ore" class="node">
<title>C_pyrite_ore</title>
<g id="a_pyrite_ore"><a xlink:href="cargos.html#pyrite_ore" xlink:title="Pyrite Ore" target="_top">
<ellipse fill="none" stroke="#000000" cx="245.9111" cy="-308" rx="49.8223" ry="18"/>
<text text-anchor="middle" x="245.9111" y="-303.8" font-family="sans-serif" font-size="14.00" fill="#000000">Pyrite Ore</text>
</a>
</g>
</g>
<!-- I_pyrite_smelter -->
<g id="pyrite_smelter" class="node">
<title>I_pyrite_smelter</title>
<g id="a_pyrite_smelter"><a xlink:href="industries.html#pyrite_smelter" xlink:title="Pyrite Smelter" target="_top">
<polygon fill="none" stroke="#000000" points="465.3221,-326 354.3221,-326 354.3221,-290 465.3221,-290 465.3221,-326"/>
<text text-anchor="start" x="366.367" y="-303.8" font-family="sans-serif" font-size="14.00" fill="#000000">Pyrite Smelter</text>
</a>
</g>
</g>
<!-- C_pyrite_ore&#45;&gt;I_pyrite_smelter -->
<g id="edge10" class="edge">
<title>C_pyrite_ore&#45;&gt;I_pyrite_smelter</title>
<g id="a_edge10"><a xlink:title="Pyrite Ore &#45;&gt; Pyrite Smelter">
<path fill="none" stroke="#000000" d="M295.9804,-308C311.0402,-308 327.8019,-308 343.732,-308"/>
<polygon fill="#000000" stroke="#000000" points="344.0541,-311.5001 354.0541,-308 344.0541,-304.5001 344.0541,-311.5001"/>
</a>
</g>
</g>
<!-- C_sulphur -->
<g id="sulphur" class="node">
<title>C_sulphur</title>
<g id="a_sulphur"><a xlink:href="cargos.html#sulphur" xlink:title="Sulphur" target="_top">
<ellipse fill="none" stroke="#000000" cx="576.2161" cy="-308" rx="40.6767" ry="18"/>
<text text-anchor="middle" x="576.2161" y="-303.8" font-family="sans-serif" font-size="14.00" fill="#000000">Sulphur</text>
</a>
</g>
</g>
<!-- I_pyrite_smelter&#45;&gt;C_sulphur -->
<g id="edge32" class="edge">
<title>I_pyrite_smelter&#45;&gt;C_sulphur</title>
<g id="a_edge32"><a xlink:title="Pyrite Smelter &#45;&gt; Sulphur">
<path fill="none" stroke="#000000" d="M465.6918,-308C484.9696,-308 506.4496,-308 525.3092,-308"/>
<polygon fill="#000000" stroke="#000000" points="525.4866,-311.5001 535.4866,-308 525.4865,-304.5001 525.4866,-311.5001"/>
</a>
</g>
</g>
<!-- C_zinc -->
<g id="zinc" class="node">
<title>C_zinc</title>
<g id="a_zinc"><a xlink:href="cargos.html#zinc" xlink:title="Zinc" target="_top">
<ellipse fill="none" stroke="#000000" cx="908.9867" cy="-83" rx="27" ry="18"/>
<text text-anchor="middle" x="908.9867" y="-78.8" font-family="sans-serif" font-size="14.00" fill="#000000">Zinc</text>
</a>
</g>
</g>
<!-- I_pyrite_smelter&#45;&gt;C_zinc -->
<g id="edge33" class="edge">
<title>I_pyrite_smelter&#45;&gt;C_zinc</title>
<g id="a_edge33"><a xlink:title="Pyrite Smelter &#45;&gt; Zinc">
<path fill="none" stroke="#000000" d="M465.6998,-296.1352C475.5225,-291.8344 484.8243,-285.9768 491.8221,-278 534.7715,-229.0415 475.834,-179.031 523.8221,-135 621.8782,-45.0296 797.4528,-62.8233 872.906,-75.7366"/>
<polygon fill="#000000" stroke="#000000" points="872.4105,-79.2034 882.8698,-77.5146 873.6402,-72.3122 872.4105,-79.2034"/>
</a>
</g>
</g>
<!-- C_sulphur&#45;&gt;I_chemical_plant -->
<g id="edge11" class="edge">
<title>C_sulphur&#45;&gt;I_chemical_plant</title>
<g id="a_edge11"><a xlink:title="Sulphur &#45;&gt; Chemical Plant">
<path fill="none" stroke="#000000" d="M607.9052,-296.5732C629.0587,-288.9455 657.5364,-278.6767 682.8588,-269.5457"/>
<polygon fill="#000000" stroke="#000000" points="684.1676,-272.7944 692.3875,-266.1097 681.7931,-266.2094 684.1676,-272.7944"/>
</a>
</g>
</g>
<!-- C_sulphur&#45;&gt;I_paper_mill -->
<g id="edge12" class="edge">
<title>C_sulphur&#45;&gt;I_paper_mill</title>
<g id="a_edge12"><a xlink:title="Sulphur &#45;&gt; Paper Mill">
<path fill="none" stroke="#000000" d="M586.8435,-325.4393C600.8372,-346.6622 627.5798,-381.6795 660.61,-398 760.0777,-447.1479 798.0393,-423 908.9867,-423 908.9867,-423 908.9867,-423 1023.8634,-423 1119.499,-423 1230.9707,-423 1295.3449,-423"/>
<polygon fill="#000000" stroke="#000000" points="1295.6474,-426.5001 1305.6473,-423 1295.6473,-419.5001 1295.6474,-426.5001"/>
</a>
</g>
</g>
<!-- C_lumber -->
<g id="lumber" class="node">
<title>C_lumber</title>
<g id="a_lumber"><a xlink:href="cargos.html#lumber" xlink:title="Timber" target="_top">
<ellipse fill="none" stroke="#000000" cx="908.9867" cy="-478" rx="37.0969" ry="18"/>
<text text-anchor="middle" x="908.9867" y="-473.8" font-family="sans-serif" font-size="14.00" fill="#000000">Timber</text>
</a>
</g>
</g>
<!-- C_lumber&#45;&gt;I_wharf -->
<g id="edge13" class="edge">
<title>C_lumber&#45;&gt;I_wharf</title>
<g id="a_edge13"><a xlink:title="Timber &#45;&gt; Wharf">
<path fill="none" stroke="#000000" d="M922.6157,-461.1531C942.4138,-436.6805 979.3086,-391.0746 1002.6725,-362.1942"/>
<polygon fill="#000000" stroke="#000000" points="1005.598,-364.1428 1009.1665,-354.167 1000.1559,-359.7402 1005.598,-364.1428"/>
</a>
</g>
</g>
<!-- C_wood -->
<g id="wood" class="node">
<title>C_wood</title>
<g id="a_wood"><a xlink:href="cargos.html#wood" xlink:title="Wood" target="_top">
<ellipse fill="none" stroke="#000000" cx="576.2161" cy="-533" rx="33.1065" ry="18"/>
<text text-anchor="middle" x="576.2161" y="-528.8" font-family="sans-serif" font-size="14.00" fill="#000000">Wood</text>
</a>
</g>
</g>
<!-- C_wood&#45;&gt;I_paper_mill -->
<g id="edge14" class="edge">
<title>C_wood&#45;&gt;I_paper_mill</title>
<g id="a_edge14"><a xlink:title="Wood &#45;&gt; Paper Mill">
<path fill="none" stroke="#000000" d="M609.2784,-533C669.0834,-533 799.2186,-533 908.9867,-533 908.9867,-533 908.9867,-533 1023.8634,-533 1131.2581,-533 1248.5757,-478.405 1308.533,-446.1392"/>
<polygon fill="#000000" stroke="#000000" points="1310.5503,-449.0257 1317.653,-441.1643 1307.1981,-442.8806 1310.5503,-449.0257"/>
</a>
</g>
</g>
<!-- I_sawmill -->
<g id="sawmill" class="node">
<title>I_sawmill</title>
<g id="a_sawmill"><a xlink:href="industries.html#sawmill" xlink:title="Sawmill" target="_top">
<polygon fill="none" stroke="#000000" points="778.61,-496 706.61,-496 706.61,-460 778.61,-460 778.61,-496"/>
<text text-anchor="start" x="718.4963" y="-473.8" font-family="sans-serif" font-size="14.00" fill="#000000">Sawmill</text>
</a>
</g>
</g>
<!-- C_wood&#45;&gt;I_sawmill -->
<g id="edge15" class="edge">
<title>C_wood&#45;&gt;I_sawmill</title>
<g id="a_edge15"><a xlink:title="Wood &#45;&gt; Sawmill">
<path fill="none" stroke="#000000" d="M604.8202,-523.5452C630.1152,-515.1841 667.4646,-502.8386 696.8992,-493.1093"/>
<polygon fill="#000000" stroke="#000000" points="698.1528,-496.3813 706.5491,-489.9196 695.9558,-489.7349 698.1528,-496.3813"/>
</a>
</g>
</g>
<!-- I_sawmill&#45;&gt;C_lumber -->
<g id="edge34" class="edge">
<title>I_sawmill&#45;&gt;C_lumber</title>
<g id="a_edge34"><a xlink:title="Sawmill &#45;&gt; Timber">
<path fill="none" stroke="#000000" d="M778.7113,-478C802.926,-478 835.0775,-478 861.3807,-478"/>
<polygon fill="#000000" stroke="#000000" points="861.5141,-481.5001 871.5141,-478 861.514,-474.5001 861.5141,-481.5001"/>
</a>
</g>
</g>
<!-- C_zinc&#45;&gt;I_port -->
<g id="edge16" class="edge">
<title>C_zinc&#45;&gt;I_port</title>
<g id="a_edge16"><a xlink:title="Zinc &#45;&gt; Port">
<path fill="none" stroke="#000000" d="M932.5109,-92.215C948.2404,-98.3766 969.2564,-106.6091 987.1652,-113.6244"/>
<polygon fill="#000000" stroke="#000000" points="986.1538,-116.9871 996.7415,-117.3757 988.707,-110.4694 986.1538,-116.9871"/>
</a>
</g>
</g>
<!-- I_fish_farm -->
<g id="fish_farm" class="node">
<title>I_fish_farm</title>
<g id="a_fish_farm"><a xlink:href="industries.html#fish_farm" xlink:title="Fish Farm" target="_top">
<polygon fill="none" stroke="#000000" points="143,-658 21,-658 21,-608 143,-608 143,-658"/>
<text text-anchor="start" x="50.5" y="-638.8" font-family="sans-serif" font-size="14.00" fill="#000000">Fish Farm</text>
<text text-anchor="start" x="32.9829" y="-618.8" font-family="sans-serif" font-size="14.00" fill="#000000">[Farm Supplies]</text>
</a>
</g>
</g>
<!-- I_fish_farm&#45;&gt;C_fish -->
<g id="edge19" class="edge">
<title>I_fish_farm&#45;&gt;C_fish</title>
<g id="a_edge19"><a xlink:title="Fish Farm &#45;&gt; Fish">
<path fill="none" stroke="#000000" d="M143.0344,-620.712C165.5633,-616.1763 190.3526,-611.1855 209.9517,-607.2396"/>
<polygon fill="#000000" stroke="#000000" points="210.8603,-610.627 219.9728,-605.2221 209.4787,-603.7647 210.8603,-610.627"/>
</a>
</g>
</g>
<!-- I_fishing_grounds -->
<g id="fishing_grounds" class="node">
<title>I_fishing_grounds</title>
<g id="a_fishing_grounds"><a xlink:href="industries.html#fishing_grounds" xlink:title="Fishing Grounds" target="_top">
<polygon fill="none" stroke="#000000" points="145,-584 19,-584 19,-548 145,-548 145,-584"/>
<text text-anchor="start" x="30.6416" y="-561.8" font-family="sans-serif" font-size="14.00" fill="#000000">Fishing Grounds</text>
</a>
</g>
</g>
<!-- I_fishing_grounds&#45;&gt;C_fish -->
<g id="edge20" class="edge">
<title>I_fishing_grounds&#45;&gt;C_fish</title>
<g id="a_edge20"><a xlink:title="Fishing Grounds &#45;&gt; Fish">
<path fill="none" stroke="#000000" d="M145.3723,-579.1453C167.2634,-583.6862 191.0219,-588.6144 209.944,-592.5394"/>
<polygon fill="#000000" stroke="#000000" points="209.4138,-596.0038 219.9162,-594.6079 210.8356,-589.1497 209.4138,-596.0038"/>
</a>
</g>
</g>
<!-- I_forest -->
<g id="forest" class="node">
<title>I_forest</title>
<g id="a_forest"><a xlink:href="industries.html#forest" xlink:title="Forest" target="_top">
<polygon fill="none" stroke="#000000" points="470.8221,-558 348.8221,-558 348.8221,-508 470.8221,-508 470.8221,-558"/>
<text text-anchor="start" x="389.9842" y="-538.8" font-family="sans-serif" font-size="14.00" fill="#000000">Forest</text>
<text text-anchor="start" x="360.805" y="-518.8" font-family="sans-serif" font-size="14.00" fill="#000000">[Farm Supplies]</text>
</a>
</g>
</g>
<!-- I_forest&#45;&gt;C_wood -->
<g id="edge22" class="edge">
<title>I_forest&#45;&gt;C_wood</title>
<g id="a_edge22"><a xlink:title="Forest &#45;&gt; Wood">
<path fill="none" stroke="#000000" d="M470.8362,-533C491.3401,-533 513.7832,-533 532.6686,-533"/>
<polygon fill="#000000" stroke="#000000" points="532.7596,-536.5001 542.7595,-533 532.7595,-529.5001 532.7596,-536.5001"/>
</a>
</g>
</g>
<!-- I_general_store -->
<g id="general_store" class="node">
<title>I_general_store</title>
<g id="a_general_store"><a xlink:href="industries.html#general_store" xlink:title="General Store" target="_top">
<polygon fill="none" stroke="#000000" points="137.5,-732 26.5,-732 26.5,-682 137.5,-682 137.5,-732"/>
<text text-anchor="start" x="38.9209" y="-712.8" font-family="sans-serif" font-size="14.00" fill="#000000">General Store</text>
<text text-anchor="start" x="62.6553" y="-692.8" font-family="sans-serif" font-size="14.00" fill="#000000">[Food]</text>
</a>
</g>
</g>
<!-- I_herding_coop -->
<g id="herding_coop" class="node">
<title>I_herding_coop</title>
<g id="a_herding_coop"><a xlink:href="industries.html#herding_coop" xlink:title="Herding Co&#45;op" target="_top">
<polygon fill="none" stroke="#000000" points="470.8221,-692 348.8221,-692 348.8221,-642 470.8221,-642 470.8221,-692"/>
<text text-anchor="start" x="364.2982" y="-672.8" font-family="sans-serif" font-size="14.00" fill="#000000">Herding Co&#45;op</text>
<text text-anchor="start" x="360.805" y="-652.8" font-family="sans-serif" font-size="14.00" fill="#000000">[Farm Supplies]</text>
</a>
</g>
</g>
<!-- I_herding_coop&#45;&gt;C_food -->
<g id="edge23" class="edge">
<title>I_herding_coop&#45;&gt;C_food</title>
<g id="a_edge23"><a xlink:title="Herding Co&#45;op &#45;&gt; Food">
<path fill="none" stroke="#000000" d="M470.8362,-654.5327C493.1096,-649.9815 517.6714,-644.9627 537.4751,-640.9161"/>
<polygon fill="#000000" stroke="#000000" points="538.2633,-644.3275 547.3601,-638.8963 536.8619,-637.4692 538.2633,-644.3275"/>
</a>
</g>
</g>
<!-- I_hotel -->
<g id="hotel" class="node">
<title>I_hotel</title>
<g id="a_hotel"><a xlink:href="industries.html#hotel" xlink:title="Hotel" target="_top">
<polygon fill="none" stroke="#000000" points="134.5,-846 29.5,-846 29.5,-756 134.5,-756 134.5,-846"/>
<text text-anchor="start" x="66.1587" y="-826.8" font-family="sans-serif" font-size="14.00" fill="#000000">Hotel</text>
<text text-anchor="start" x="62.6553" y="-806.8" font-family="sans-serif" font-size="14.00" fill="#000000">[Food]</text>
<text text-anchor="start" x="41.645" y="-786.8" font-family="sans-serif" font-size="14.00" fill="#000000">[Passengers]</text>
<text text-anchor="start" x="41.645" y="-766.8" font-family="sans-serif" font-size="14.00" fill="#000000">[Passengers]</text>
</a>
</g>
</g>
<!-- I_peatlands -->
<g id="peatlands" class="node">
<title>I_peatlands</title>
<g id="a_peatlands"><a xlink:href="industries.html#peatlands" xlink:title="Peatlands" target="_top">
<polygon fill="none" stroke="#000000" points="824.61,-386 660.61,-386 660.61,-336 824.61,-336 824.61,-386"/>
<text text-anchor="start" x="711.4757" y="-366.8" font-family="sans-serif" font-size="14.00" fill="#000000">Peatlands</text>
<text text-anchor="start" x="672.5622" y="-346.8" font-family="sans-serif" font-size="14.00" fill="#000000">[Engineering Supplies]</text>
</a>
</g>
</g>
<!-- I_peatlands&#45;&gt;C_peat -->
<g id="edge25" class="edge">
<title>I_peatlands&#45;&gt;C_peat</title>
<g id="a_edge25"><a xlink:title="Peatlands &#45;&gt; Peat">
<path fill="none" stroke="#000000" d="M824.8235,-361.9883C840.5857,-362.1778 856.3946,-362.3678 869.9862,-362.5312"/>
<polygon fill="#000000" stroke="#000000" points="870.3264,-366.0354 880.3678,-362.656 870.4106,-359.0359 870.3264,-366.0354"/>
</a>
</g>
</g>
<!-- I_phosphate_mine -->
<g id="phosphate_mine" class="node">
<title>I_phosphate_mine</title>
<g id="a_phosphate_mine"><a xlink:href="industries.html#phosphate_mine" xlink:title="Phosphate Mine" target="_top">
<polygon fill="none" stroke="#000000" points="491.8221,-266 327.8221,-266 327.8221,-216 491.8221,-216 491.8221,-266"/>
<text text-anchor="start" x="359.2328" y="-246.8" font-family="sans-serif" font-size="14.00" fill="#000000">Phosphate Mine</text>
<text text-anchor="start" x="339.7743" y="-226.8" font-family="sans-serif" font-size="14.00" fill="#000000">[Engineering Supplies]</text>
</a>
</g>
</g>
<!-- I_phosphate_mine&#45;&gt;C_phosphate -->
<g id="edge26" class="edge">
<title>I_phosphate_mine&#45;&gt;C_phosphate</title>
<g id="a_edge26"><a xlink:title="Phosphate Mine &#45;&gt; Phosphate">
<path fill="none" stroke="#000000" d="M492.0441,-244.459C499.3056,-244.7645 506.5769,-245.0704 513.6369,-245.3674"/>
<polygon fill="#000000" stroke="#000000" points="513.6652,-248.8716 523.8035,-245.7951 513.9595,-241.8777 513.6652,-248.8716"/>
</a>
</g>
</g>
<!-- I_power_plant -->
<g id="power_plant" class="node">
<title>I_power_plant</title>
<g id="a_power_plant"><a xlink:href="industries.html#power_plant" xlink:title="Power Plant" target="_top">
<polygon fill="none" stroke="#000000" points="131.5,-920 32.5,-920 32.5,-870 131.5,-870 131.5,-920"/>
<text text-anchor="start" x="44.7588" y="-900.8" font-family="sans-serif" font-size="14.00" fill="#000000">Power Plant</text>
<text text-anchor="start" x="64.2104" y="-880.8" font-family="sans-serif" font-size="14.00" fill="#000000">[Peat]</text>
</a>
</g>
</g>
<!-- I_pyrite_mine -->
<g id="pyrite_mine" class="node">
<title>I_pyrite_mine</title>
<g id="a_pyrite_mine"><a xlink:href="industries.html#pyrite_mine" xlink:title="Pyrite Mine" target="_top">
<polygon fill="none" stroke="#000000" points="164,-333 0,-333 0,-283 164,-283 164,-333"/>
<text text-anchor="start" x="46.9897" y="-313.8" font-family="sans-serif" font-size="14.00" fill="#000000">Pyrite Mine</text>
<text text-anchor="start" x="11.9521" y="-293.8" font-family="sans-serif" font-size="14.00" fill="#000000">[Engineering Supplies]</text>
</a>
</g>
</g>
<!-- I_pyrite_mine&#45;&gt;C_pyrite_ore -->
<g id="edge31" class="edge">
<title>I_pyrite_mine&#45;&gt;C_pyrite_ore</title>
<g id="a_edge31"><a xlink:title="Pyrite Mine &#45;&gt; Pyrite Ore">
<path fill="none" stroke="#000000" d="M164.4357,-308C171.4462,-308 178.452,-308 185.2478,-308"/>
<polygon fill="#000000" stroke="#000000" points="185.7249,-311.5001 195.7248,-308 185.7248,-304.5001 185.7249,-311.5001"/>
</a>
</g>
</g>
</g>
</svg>
