<?xml version="1.0" encoding="UTF-8" standalone="no"?>
<?xml-stylesheet href="static/css/cargoflow_styles.css" type="text/css"?>
<!DOCTYPE svg PUBLIC "-//W3C//DTD SVG 1.1//EN"
 "http://www.w3.org/Graphics/SVG/1.1/DTD/svg11.dtd">
<!-- Generated by graphviz version 2.26.3 (20100126.1600)
 -->
<!-- Title: arctic_basic Pages: 1 -->
<svg width="2140pt" height="623pt"
 viewBox="0.00 0.00 2140.00 623.00" xmlns="http://www.w3.org/2000/svg" xmlns:xlink="http://www.w3.org/1999/xlink">
<g id="graph1" class="graph" transform="scale(1 1) rotate(0) translate(4 619)">
<title>arctic_basic</title>
<a xlink:title="Arctic Basic">
<polygon fill="white" stroke="white" points="-4,5 -4,-619 2137,-619 2137,5 -4,5"/>
</a>
<!-- C_alcohol -->
<g id="alcohol" class="node"><title>C_alcohol</title>
<a xlink:href="cargos.html#alcohol" xlink:title="Alcohol" target="_top">
<ellipse fill="none" stroke="black" cx="1644" cy="-482" rx="45.8622" ry="18"/>
<text text-anchor="middle" x="1644" y="-477.9" font-family="sans-serif" font-size="14.00">Alcohol</text>
</a>
</g>
<!-- I_general_store -->
<g id="general_store" class="node"><title>I_general_store</title>
<a xlink:href="industries.html#general_store" xlink:title="General Store" target="_top">
<polygon fill="none" stroke="black" points="1876,-500 1754,-500 1754,-464 1876,-464 1876,-500"/>
<text text-anchor="start" x="1766.5" y="-478.233" font-family="sans-serif" font-size="14.00">General Store</text>
</a>
</g>
<!-- C_alcohol&#45;&gt;I_general_store -->
<g id="edge2" class="edge"><title>C_alcohol&#45;&gt;I_general_store</title>
<a xlink:title="Alcohol &#45;&gt; General Store">
<path fill="none" stroke="black" d="M1690.28,-482C1706.72,-482 1725.64,-482 1743.7,-482"/>
<polygon fill="black" stroke="black" points="1743.9,-485.5 1753.9,-482 1743.9,-478.5 1743.9,-485.5"/>
</a>
</g>
<!-- I_hotel -->
<g id="hotel" class="node"><title>I_hotel</title>
<a xlink:href="industries.html#hotel" xlink:title="Hotel" target="_top">
<polygon fill="none" stroke="black" points="1846,-440 1784,-440 1784,-404 1846,-404 1846,-440"/>
<text text-anchor="start" x="1796.5" y="-418.233" font-family="sans-serif" font-size="14.00">Hotel</text>
</a>
</g>
<!-- C_alcohol&#45;&gt;I_hotel -->
<g id="edge4" class="edge"><title>C_alcohol&#45;&gt;I_hotel</title>
<a xlink:title="Alcohol &#45;&gt; Hotel">
<path fill="none" stroke="black" d="M1678.6,-469.858C1706.31,-460.136 1745.23,-446.481 1774.41,-436.244"/>
<polygon fill="black" stroke="black" points="1775.62,-439.527 1783.9,-432.913 1773.3,-432.922 1775.62,-439.527"/>
</a>
</g>
<!-- CI_hotel_passengers -->
<g id="passengers" class="node"><title>CI_hotel_passengers</title>
<a xlink:href="cargos.html#passengers" xlink:title="Passengers" target="_top">
<ellipse fill="none" stroke="black" cx="2020" cy="-422" rx="64.1231" ry="18"/>
<text text-anchor="middle" x="2020" y="-417.9" font-family="sans-serif" font-size="14.00">Passengers</text>
</a>
</g>
<!-- I_hotel&#45;&gt;CI_hotel_passengers -->
<g id="edge64" class="edge"><title>I_hotel&#45;&gt;CI_hotel_passengers</title>
<a xlink:title="Hotel &#45;&gt; Passengers">
<path fill="none" stroke="black" d="M1846.14,-415.321C1874.17,-413.075 1916.34,-412.459 1952.14,-413.473"/>
<polygon fill="black" stroke="black" points="1952.42,-416.984 1962.53,-413.821 1952.65,-409.988 1952.42,-416.984"/>
</a>
</g>
<!-- C_engineering_supplies -->
<g id="engineering_supplies" class="node"><title>C_engineering_supplies</title>
<a xlink:href="cargos.html#engineering_supplies" xlink:title="Engineering Supplies" target="_top">
<ellipse fill="none" stroke="black" cx="2020" cy="-46" rx="111.876" ry="18"/>
<text text-anchor="middle" x="2020" y="-41.9" font-family="sans-serif" font-size="14.00">Engineering Supplies</text>
</a>
</g>
<!-- C_explosives -->
<g id="explosives" class="node"><title>C_explosives</title>
<a xlink:href="cargos.html#explosives" xlink:title="Explosives" target="_top">
<ellipse fill="none" stroke="black" cx="1307" cy="-537" rx="61.1496" ry="18"/>
<text text-anchor="middle" x="1307" y="-532.9" font-family="sans-serif" font-size="14.00">Explosives</text>
</a>
</g>
<!-- I_trading_post -->
<g id="trading_post" class="node"><title>I_trading_post</title>
<a xlink:href="industries.html#trading_post" xlink:title="Trading Post" target="_top">
<polygon fill="none" stroke="black" points="1522,-560 1412,-560 1412,-524 1522,-524 1522,-560"/>
<text text-anchor="start" x="1424.5" y="-538.233" font-family="sans-serif" font-size="14.00">Trading Post</text>
</a>
</g>
<!-- C_explosives&#45;&gt;I_trading_post -->
<g id="edge6" class="edge"><title>C_explosives&#45;&gt;I_trading_post</title>
<a xlink:title="Explosives &#45;&gt; Trading Post">
<path fill="none" stroke="black" d="M1367.95,-538.905C1379.03,-539.251 1390.64,-539.614 1401.85,-539.964"/>
<polygon fill="black" stroke="black" points="1401.89,-543.467 1412,-540.281 1402.11,-536.47 1401.89,-543.467"/>
</a>
</g>
<!-- I_trading_post&#45;&gt;C_alcohol -->
<g id="edge84" class="edge"><title>I_trading_post&#45;&gt;C_alcohol</title>
<a xlink:title="Trading Post &#45;&gt; Alcohol">
<path fill="none" stroke="black" d="M1520.11,-523.998C1545.43,-515.412 1575.39,-505.257 1599.51,-497.083"/>
<polygon fill="black" stroke="black" points="1600.76,-500.352 1609.11,-493.827 1598.52,-493.722 1600.76,-500.352"/>
</a>
</g>
<!-- C_farm_supplies -->
<g id="farm_supplies" class="node"><title>C_farm_supplies</title>
<a xlink:href="cargos.html#farm_supplies" xlink:title="Farm Supplies" target="_top">
<ellipse fill="none" stroke="black" cx="1644" cy="-542" rx="77.8268" ry="18"/>
<text text-anchor="middle" x="1644" y="-537.9" font-family="sans-serif" font-size="14.00">Farm Supplies</text>
</a>
</g>
<!-- I_trading_post&#45;&gt;C_farm_supplies -->
<g id="edge86" class="edge"><title>I_trading_post&#45;&gt;C_farm_supplies</title>
<a xlink:title="Trading Post &#45;&gt; Farm Supplies">
<path fill="none" stroke="black" d="M1522.03,-542C1532.79,-542 1544.31,-542 1555.83,-542"/>
<polygon fill="black" stroke="black" points="1555.93,-545.5 1565.93,-542 1555.93,-538.5 1555.93,-545.5"/>
</a>
</g>
<!-- C_fertiliser -->
<g id="fertiliser" class="node"><title>C_fertiliser</title>
<a xlink:href="cargos.html#fertiliser" xlink:title="Fertiliser" target="_top">
<ellipse fill="none" stroke="black" cx="948" cy="-250" rx="53.0059" ry="18"/>
<text text-anchor="middle" x="948" y="-245.9" font-family="sans-serif" font-size="14.00">Fertiliser</text>
</a>
</g>
<!-- I_bulk_terminal -->
<g id="bulk_terminal" class="node"><title>I_bulk_terminal</title>
<a xlink:href="industries.html#bulk_terminal" xlink:title="Bulk Terminal" target="_top">
<polygon fill="none" stroke="black" points="1183,-281 1065,-281 1065,-245 1183,-245 1183,-281"/>
<text text-anchor="start" x="1077.5" y="-259.233" font-family="sans-serif" font-size="14.00">Bulk Terminal</text>
</a>
</g>
<!-- C_fertiliser&#45;&gt;I_bulk_terminal -->
<g id="edge8" class="edge"><title>C_fertiliser&#45;&gt;I_bulk_terminal</title>
<a xlink:title="Fertiliser &#45;&gt; Bulk Terminal">
<path fill="none" stroke="black" d="M1000.33,-253.865C1017.26,-255.116 1036.32,-256.524 1054.31,-257.852"/>
<polygon fill="black" stroke="black" points="1054.23,-261.356 1064.46,-258.602 1054.75,-254.375 1054.23,-261.356"/>
</a>
</g>
<!-- C_food -->
<g id="food" class="node"><title>C_food</title>
<a xlink:href="cargos.html#food" xlink:title="Food" target="_top">
<ellipse fill="none" stroke="black" cx="1644" cy="-422" rx="34.0492" ry="18"/>
<text text-anchor="middle" x="1644" y="-417.9" font-family="sans-serif" font-size="14.00">Food</text>
</a>
</g>
<!-- I_bulk_terminal&#45;&gt;C_food -->
<g id="edge46" class="edge"><title>I_bulk_terminal&#45;&gt;C_food</title>
<a xlink:title="Bulk Terminal &#45;&gt; Food">
<path fill="none" stroke="black" d="M1183.7,-266.502C1282.05,-273.017 1473.32,-289.034 1534,-318 1571.98,-336.128 1605.48,-372.265 1625.25,-396.791"/>
<polygon fill="black" stroke="black" points="1622.72,-399.238 1631.65,-404.934 1628.22,-394.91 1622.72,-399.238"/>
</a>
</g>
<!-- C_kaolin -->
<g id="kaolin" class="node"><title>C_kaolin</title>
<a xlink:href="cargos.html#kaolin" xlink:title="Kaolin" target="_top">
<ellipse fill="none" stroke="black" cx="1307" cy="-238" rx="40.9981" ry="18"/>
<text text-anchor="middle" x="1307" y="-233.9" font-family="sans-serif" font-size="14.00">Kaolin</text>
</a>
</g>
<!-- I_bulk_terminal&#45;&gt;C_kaolin -->
<g id="edge48" class="edge"><title>I_bulk_terminal&#45;&gt;C_kaolin</title>
<a xlink:title="Bulk Terminal &#45;&gt; Kaolin">
<path fill="none" stroke="black" d="M1183.67,-254.849C1207.55,-251.587 1234.73,-247.873 1257.49,-244.764"/>
<polygon fill="black" stroke="black" points="1258.17,-248.203 1267.6,-243.382 1257.22,-241.268 1258.17,-248.203"/>
</a>
</g>
<!-- C_fish -->
<g id="fish" class="node"><title>C_fish</title>
<a xlink:href="cargos.html#fish" xlink:title="Fish" target="_top">
<ellipse fill="none" stroke="black" cx="1307" cy="-348" rx="30.0736" ry="18"/>
<text text-anchor="middle" x="1307" y="-343.9" font-family="sans-serif" font-size="14.00">Fish</text>
</a>
</g>
<!-- I_fishing_harbour -->
<g id="fishing_harbour" class="node"><title>I_fishing_harbour</title>
<a xlink:href="industries.html#fishing_harbour" xlink:title="Fishing Harbour" target="_top">
<polygon fill="none" stroke="black" points="1534,-366 1400,-366 1400,-330 1534,-330 1534,-366"/>
<text text-anchor="start" x="1412.5" y="-344.233" font-family="sans-serif" font-size="14.00">Fishing Harbour</text>
</a>
</g>
<!-- C_fish&#45;&gt;I_fishing_harbour -->
<g id="edge10" class="edge"><title>C_fish&#45;&gt;I_fishing_harbour</title>
<a xlink:title="Fish &#45;&gt; Fishing Harbour">
<path fill="none" stroke="black" d="M1337.85,-348C1352.71,-348 1371.27,-348 1389.65,-348"/>
<polygon fill="black" stroke="black" points="1389.81,-351.5 1399.81,-348 1389.81,-344.5 1389.81,-351.5"/>
</a>
</g>
<!-- I_fishing_harbour&#45;&gt;C_food -->
<g id="edge56" class="edge"><title>I_fishing_harbour&#45;&gt;C_food</title>
<a xlink:title="Fishing Harbour &#45;&gt; Food">
<path fill="none" stroke="black" d="M1510.3,-366.102C1540.14,-378.58 1579.37,-394.978 1607.6,-406.782"/>
<polygon fill="black" stroke="black" points="1606.52,-410.123 1617.09,-410.752 1609.22,-403.665 1606.52,-410.123"/>
</a>
</g>
<!-- C_food&#45;&gt;I_general_store -->
<g id="edge12" class="edge"><title>C_food&#45;&gt;I_general_store</title>
<a xlink:title="Food &#45;&gt; General Store">
<path fill="none" stroke="black" d="M1672.62,-432.043C1694.73,-439.802 1726.14,-450.82 1753.83,-460.536"/>
<polygon fill="black" stroke="black" points="1752.85,-463.902 1763.44,-463.91 1755.17,-457.297 1752.85,-463.902"/>
</a>
</g>
<!-- C_food&#45;&gt;I_hotel -->
<g id="edge14" class="edge"><title>C_food&#45;&gt;I_hotel</title>
<a xlink:title="Food &#45;&gt; Hotel">
<path fill="none" stroke="black" d="M1678.19,-422C1705.62,-422 1744.23,-422 1773.45,-422"/>
<polygon fill="black" stroke="black" points="1773.74,-425.5 1783.74,-422 1773.74,-418.5 1773.74,-425.5"/>
</a>
</g>
<!-- C_goods -->
<g id="goods" class="node"><title>C_goods</title>
<a xlink:href="cargos.html#goods" xlink:title="Goods" target="_top">
<ellipse fill="none" stroke="black" cx="1307" cy="-597" rx="40.9981" ry="18"/>
<text text-anchor="middle" x="1307" y="-592.9" font-family="sans-serif" font-size="14.00">Goods</text>
</a>
</g>
<!-- C_goods&#45;&gt;I_general_store -->
<g id="edge16" class="edge"><title>C_goods&#45;&gt;I_general_store</title>
<a xlink:title="Goods &#45;&gt; General Store">
<path fill="none" stroke="black" d="M1345.68,-603.236C1421.59,-613.678 1593.84,-628.405 1722,-572 1753.05,-558.337 1779.82,-529.492 1796.56,-508.121"/>
<polygon fill="black" stroke="black" points="1799.42,-510.139 1802.68,-500.059 1793.85,-505.905 1799.42,-510.139"/>
</a>
</g>
<!-- C_goods&#45;&gt;I_trading_post -->
<g id="edge18" class="edge"><title>C_goods&#45;&gt;I_trading_post</title>
<a xlink:title="Goods &#45;&gt; Trading Post">
<path fill="none" stroke="black" d="M1339.38,-585.87C1358.23,-579.388 1382.64,-570.999 1405.05,-563.295"/>
<polygon fill="black" stroke="black" points="1406.19,-566.603 1414.51,-560.042 1403.92,-559.983 1406.19,-566.603"/>
</a>
</g>
<!-- I_paper_mill -->
<g id="paper_mill" class="node"><title>I_paper_mill</title>
<a xlink:href="industries.html#paper_mill" xlink:title="Paper Mill" target="_top">
<polygon fill="none" stroke="black" points="1513,-201 1421,-201 1421,-165 1513,-165 1513,-201"/>
<text text-anchor="start" x="1433.5" y="-179.233" font-family="sans-serif" font-size="14.00">Paper Mill</text>
</a>
</g>
<!-- C_kaolin&#45;&gt;I_paper_mill -->
<g id="edge20" class="edge"><title>C_kaolin&#45;&gt;I_paper_mill</title>
<a xlink:title="Kaolin &#45;&gt; Paper Mill">
<path fill="none" stroke="black" d="M1339.38,-226.87C1359.92,-219.807 1387.06,-210.48 1411.02,-202.242"/>
<polygon fill="black" stroke="black" points="1412.4,-205.469 1420.72,-198.908 1410.13,-198.849 1412.4,-205.469"/>
</a>
</g>
<!-- C_paper -->
<g id="paper" class="node"><title>C_paper</title>
<a xlink:href="cargos.html#paper" xlink:title="Paper" target="_top">
<ellipse fill="none" stroke="black" cx="1644" cy="-73" rx="38.9134" ry="18"/>
<text text-anchor="middle" x="1644" y="-68.9" font-family="sans-serif" font-size="14.00">Paper</text>
</a>
</g>
<!-- I_paper_mill&#45;&gt;C_paper -->
<g id="edge68" class="edge"><title>I_paper_mill&#45;&gt;C_paper</title>
<a xlink:title="Paper Mill &#45;&gt; Paper">
<path fill="none" stroke="black" d="M1496.23,-164.836C1528.09,-145.035 1578.92,-113.445 1611.88,-92.9625"/>
<polygon fill="black" stroke="black" points="1614.02,-95.7502 1620.67,-87.499 1610.33,-89.8047 1614.02,-95.7502"/>
</a>
</g>
<!-- I_port -->
<g id="port" class="node"><title>I_port</title>
<a xlink:href="industries.html#port" xlink:title="Port" target="_top">
<polygon fill="none" stroke="black" points="1842,-64 1788,-64 1788,-28 1842,-28 1842,-64"/>
<text text-anchor="start" x="1800.5" y="-42.2333" font-family="sans-serif" font-size="14.00">Port</text>
</a>
</g>
<!-- C_paper&#45;&gt;I_port -->
<g id="edge22" class="edge"><title>C_paper&#45;&gt;I_port</title>
<a xlink:title="Paper &#45;&gt; Port">
<path fill="none" stroke="black" d="M1681.1,-67.1414C1709.71,-62.6245 1749.1,-56.4058 1777.74,-51.8828"/>
<polygon fill="black" stroke="black" points="1778.44,-55.3163 1787.77,-50.2994 1777.35,-48.402 1778.44,-55.3163"/>
</a>
</g>
<!-- I_port&#45;&gt;C_engineering_supplies -->
<g id="edge74" class="edge"><title>I_port&#45;&gt;C_engineering_supplies</title>
<a xlink:title="Port &#45;&gt; Engineering Supplies">
<path fill="none" stroke="black" d="M1842.22,-46C1857.1,-46 1876.71,-46 1897.45,-46"/>
<polygon fill="black" stroke="black" points="1897.7,-49.5001 1907.7,-46 1897.7,-42.5001 1897.7,-49.5001"/>
</a>
</g>
<!-- C_peat -->
<g id="peat" class="node"><title>C_peat</title>
<a xlink:href="cargos.html#peat" xlink:title="Peat" target="_top">
<ellipse fill="none" stroke="black" cx="1307" cy="-477" rx="32.157" ry="18"/>
<text text-anchor="middle" x="1307" y="-472.9" font-family="sans-serif" font-size="14.00">Peat</text>
</a>
</g>
<!-- C_peat&#45;&gt;I_trading_post -->
<g id="edge26" class="edge"><title>C_peat&#45;&gt;I_trading_post</title>
<a xlink:title="Peat &#45;&gt; Trading Post">
<path fill="none" stroke="black" d="M1333.42,-487.733C1355.02,-496.507 1386.25,-509.197 1413.09,-520.1"/>
<polygon fill="black" stroke="black" points="1411.8,-523.351 1422.38,-523.872 1414.43,-516.866 1411.8,-523.351"/>
</a>
</g>
<!-- I_power_plant -->
<g id="power_plant" class="node"><title>I_power_plant</title>
<a xlink:href="industries.html#power_plant" xlink:title="Power Plant" target="_top">
<polygon fill="none" stroke="black" points="1522,-500 1412,-500 1412,-464 1522,-464 1522,-500"/>
<text text-anchor="start" x="1424.5" y="-478.233" font-family="sans-serif" font-size="14.00">Power Plant</text>
</a>
</g>
<!-- C_peat&#45;&gt;I_power_plant -->
<g id="edge24" class="edge"><title>C_peat&#45;&gt;I_power_plant</title>
<a xlink:title="Peat &#45;&gt; Power Plant">
<path fill="none" stroke="black" d="M1339.76,-478.024C1357.68,-478.584 1380.52,-479.298 1401.89,-479.965"/>
<polygon fill="black" stroke="black" points="1401.81,-483.464 1411.91,-480.278 1402.02,-476.468 1401.81,-483.464"/>
</a>
</g>
<!-- C_phosphate -->
<g id="phosphate" class="node"><title>C_phosphate</title>
<a xlink:href="cargos.html#phosphate" xlink:title="Phosphate" target="_top">
<ellipse fill="none" stroke="black" cx="640" cy="-133" rx="61.8445" ry="18"/>
<text text-anchor="middle" x="640" y="-128.9" font-family="sans-serif" font-size="14.00">Phosphate</text>
</a>
</g>
<!-- I_chemical_plant -->
<g id="chemical_plant" class="node"><title>I_chemical_plant</title>
<a xlink:href="industries.html#chemical_plant" xlink:title="Chemical Plant" target="_top">
<polygon fill="none" stroke="black" points="862,-146 734,-146 734,-110 862,-110 862,-146"/>
<text text-anchor="start" x="746.5" y="-124.233" font-family="sans-serif" font-size="14.00">Chemical Plant</text>
</a>
</g>
<!-- C_phosphate&#45;&gt;I_chemical_plant -->
<g id="edge28" class="edge"><title>C_phosphate&#45;&gt;I_chemical_plant</title>
<a xlink:title="Phosphate &#45;&gt; Chemical Plant">
<path fill="none" stroke="black" d="M701.992,-131.038C709.102,-130.813 716.406,-130.582 723.656,-130.353"/>
<polygon fill="black" stroke="black" points="723.962,-133.845 733.847,-130.03 723.741,-126.848 723.962,-133.845"/>
</a>
</g>
<!-- I_chemical_plant&#45;&gt;C_explosives -->
<g id="edge50" class="edge"><title>I_chemical_plant&#45;&gt;C_explosives</title>
<a xlink:title="Chemical Plant &#45;&gt; Explosives">
<path fill="none" stroke="black" d="M806.347,-146.001C832.088,-199.472 915.704,-358.632 1034,-439 1099.86,-483.741 1188.5,-510.598 1246.66,-524.596"/>
<polygon fill="black" stroke="black" points="1245.9,-528.013 1256.44,-526.897 1247.5,-521.199 1245.9,-528.013"/>
</a>
</g>
<!-- I_chemical_plant&#45;&gt;C_fertiliser -->
<g id="edge52" class="edge"><title>I_chemical_plant&#45;&gt;C_fertiliser</title>
<a xlink:title="Chemical Plant &#45;&gt; Fertiliser">
<path fill="none" stroke="black" d="M820.133,-146.002C846.39,-167.357 890.236,-203.019 919.137,-226.524"/>
<polygon fill="black" stroke="black" points="917.26,-229.51 927.227,-233.105 921.677,-224.079 917.26,-229.51"/>
</a>
</g>
<!-- C_pyrite_ore -->
<g id="pyrite_ore" class="node"><title>C_pyrite_ore</title>
<a xlink:href="cargos.html#pyrite_ore" xlink:title="Pyrite Ore" target="_top">
<ellipse fill="none" stroke="black" cx="273" cy="-42" rx="61.1496" ry="18"/>
<text text-anchor="middle" x="273" y="-37.9" font-family="sans-serif" font-size="14.00">Pyrite Ore</text>
</a>
</g>
<!-- I_pyrite_smelter -->
<g id="pyrite_smelter" class="node"><title>I_pyrite_smelter</title>
<a xlink:href="industries.html#pyrite_smelter" xlink:title="Pyrite Smelter" target="_top">
<polygon fill="none" stroke="black" points="518,-60 394,-60 394,-24 518,-24 518,-60"/>
<text text-anchor="start" x="406.5" y="-38.2333" font-family="sans-serif" font-size="14.00">Pyrite Smelter</text>
</a>
</g>
<!-- C_pyrite_ore&#45;&gt;I_pyrite_smelter -->
<g id="edge30" class="edge"><title>C_pyrite_ore&#45;&gt;I_pyrite_smelter</title>
<a xlink:title="Pyrite Ore &#45;&gt; Pyrite Smelter">
<path fill="none" stroke="black" d="M334.191,-42C349.937,-42 367.034,-42 383.302,-42"/>
<polygon fill="black" stroke="black" points="383.304,-45.5001 393.304,-42 383.304,-38.5001 383.304,-45.5001"/>
</a>
</g>
<!-- C_sulphur -->
<g id="sulphur" class="node"><title>C_sulphur</title>
<a xlink:href="cargos.html#sulphur" xlink:title="Sulphur" target="_top">
<ellipse fill="none" stroke="black" cx="640" cy="-73" rx="48.8383" ry="18"/>
<text text-anchor="middle" x="640" y="-68.9" font-family="sans-serif" font-size="14.00">Sulphur</text>
</a>
</g>
<!-- I_pyrite_smelter&#45;&gt;C_sulphur -->
<g id="edge78" class="edge"><title>I_pyrite_smelter&#45;&gt;C_sulphur</title>
<a xlink:title="Pyrite Smelter &#45;&gt; Sulphur">
<path fill="none" stroke="black" d="M518.551,-52.5384C540.128,-56.1738 564.122,-60.2161 585.046,-63.7414"/>
<polygon fill="black" stroke="black" points="584.604,-67.2163 595.047,-65.4264 585.767,-60.3136 584.604,-67.2163"/>
</a>
</g>
<!-- C_zinc -->
<g id="zinc" class="node"><title>C_zinc</title>
<a xlink:href="cargos.html#zinc" xlink:title="Zinc" target="_top">
<ellipse fill="none" stroke="black" cx="798" cy="-18" rx="31.9646" ry="18"/>
<text text-anchor="middle" x="798" y="-13.9" font-family="sans-serif" font-size="14.00">Zinc</text>
</a>
</g>
<!-- I_pyrite_smelter&#45;&gt;C_zinc -->
<g id="edge80" class="edge"><title>I_pyrite_smelter&#45;&gt;C_zinc</title>
<a xlink:title="Pyrite Smelter &#45;&gt; Zinc">
<path fill="none" stroke="black" d="M518.728,-37.598C587.674,-32.7597 696.511,-25.122 755.907,-20.9539"/>
<polygon fill="black" stroke="black" points="756.321,-24.4336 766.051,-20.242 755.831,-17.4507 756.321,-24.4336"/>
</a>
</g>
<!-- C_sulphur&#45;&gt;I_paper_mill -->
<g id="edge34" class="edge"><title>C_sulphur&#45;&gt;I_paper_mill</title>
<a xlink:title="Sulphur &#45;&gt; Paper Mill">
<path fill="none" stroke="black" d="M689.61,-73C750.48,-73 856.83,-73 948,-73 948,-73 948,-73 1124,-73 1237.02,-73 1361.4,-127.82 1424.78,-160.06"/>
<polygon fill="black" stroke="black" points="1423.56,-163.366 1434.05,-164.836 1426.77,-157.144 1423.56,-163.366"/>
</a>
</g>
<!-- C_sulphur&#45;&gt;I_chemical_plant -->
<g id="edge32" class="edge"><title>C_sulphur&#45;&gt;I_chemical_plant</title>
<a xlink:title="Sulphur &#45;&gt; Chemical Plant">
<path fill="none" stroke="black" d="M675.853,-85.4804C693.773,-91.7186 715.967,-99.4444 736.501,-106.592"/>
<polygon fill="black" stroke="black" points="735.513,-109.954 746.108,-109.936 737.814,-103.343 735.513,-109.954"/>
</a>
</g>
<!-- C_lumber -->
<g id="lumber" class="node"><title>C_lumber</title>
<a xlink:href="cargos.html#lumber" xlink:title="Timber" target="_top">
<ellipse fill="none" stroke="black" cx="948" cy="-519" rx="43.9728" ry="18"/>
<text text-anchor="middle" x="948" y="-514.9" font-family="sans-serif" font-size="14.00">Timber</text>
</a>
</g>
<!-- C_lumber&#45;&gt;I_bulk_terminal -->
<g id="edge36" class="edge"><title>C_lumber&#45;&gt;I_bulk_terminal</title>
<a xlink:title="Timber &#45;&gt; Bulk Terminal">
<path fill="none" stroke="black" d="M950.692,-500.805C957.528,-460.566 979.076,-363.003 1034,-305 1041.19,-297.41 1050.02,-291.059 1059.31,-285.786"/>
<polygon fill="black" stroke="black" points="1061.09,-288.803 1068.32,-281.056 1057.84,-282.605 1061.09,-288.803"/>
</a>
</g>
<!-- I_furniture_factory -->
<g id="furniture_factory" class="node"><title>I_furniture_factory</title>
<a xlink:href="industries.html#furniture_factory" xlink:title="Furniture Factory" target="_top">
<polygon fill="none" stroke="black" points="1196,-576 1052,-576 1052,-540 1196,-540 1196,-576"/>
<text text-anchor="start" x="1064.5" y="-554.233" font-family="sans-serif" font-size="14.00">Furniture Factory</text>
</a>
</g>
<!-- C_lumber&#45;&gt;I_furniture_factory -->
<g id="edge38" class="edge"><title>C_lumber&#45;&gt;I_furniture_factory</title>
<a xlink:title="Timber &#45;&gt; Furniture Factory">
<path fill="none" stroke="black" d="M987.06,-527.655C1003.19,-531.229 1022.53,-535.515 1041.53,-539.724"/>
<polygon fill="black" stroke="black" points="1040.89,-543.168 1051.41,-541.915 1042.4,-536.334 1040.89,-543.168"/>
</a>
</g>
<!-- I_furniture_factory&#45;&gt;C_goods -->
<g id="edge60" class="edge"><title>I_furniture_factory&#45;&gt;C_goods</title>
<a xlink:title="Furniture Factory &#45;&gt; Goods">
<path fill="none" stroke="black" d="M1196.59,-573.47C1217.91,-578.013 1240.65,-582.861 1259.93,-586.968"/>
<polygon fill="black" stroke="black" points="1259.45,-590.444 1269.96,-589.105 1260.9,-583.598 1259.45,-590.444"/>
</a>
</g>
<!-- C_wood -->
<g id="wood" class="node"><title>C_wood</title>
<a xlink:href="cargos.html#wood" xlink:title="Wood" target="_top">
<ellipse fill="none" stroke="black" cx="640" cy="-193" rx="38.9134" ry="18"/>
<text text-anchor="middle" x="640" y="-188.9" font-family="sans-serif" font-size="14.00">Wood</text>
</a>
</g>
<!-- C_wood&#45;&gt;I_paper_mill -->
<g id="edge40" class="edge"><title>C_wood&#45;&gt;I_paper_mill</title>
<a xlink:title="Wood &#45;&gt; Paper Mill">
<path fill="none" stroke="black" d="M678.883,-190.928C737.293,-187.999 851.164,-183 948,-183 948,-183 948,-183 1124,-183 1225.1,-183 1342.97,-183 1410.9,-183"/>
<polygon fill="black" stroke="black" points="1410.95,-186.5 1420.95,-183 1410.95,-179.5 1410.95,-186.5"/>
</a>
</g>
<!-- I_sawmill -->
<g id="sawmill" class="node"><title>I_sawmill</title>
<a xlink:href="industries.html#sawmill" xlink:title="Sawmill" target="_top">
<polygon fill="none" stroke="black" points="838,-396 758,-396 758,-360 838,-360 838,-396"/>
<text text-anchor="start" x="770.5" y="-374.233" font-family="sans-serif" font-size="14.00">Sawmill</text>
</a>
</g>
<!-- C_wood&#45;&gt;I_sawmill -->
<g id="edge42" class="edge"><title>C_wood&#45;&gt;I_sawmill</title>
<a xlink:title="Wood &#45;&gt; Sawmill">
<path fill="none" stroke="black" d="M654.581,-210.073C682.397,-242.642 743.18,-313.812 775.975,-352.211"/>
<polygon fill="black" stroke="black" points="773.371,-354.551 782.526,-359.882 778.694,-350.005 773.371,-354.551"/>
</a>
</g>
<!-- I_sawmill&#45;&gt;C_lumber -->
<g id="edge82" class="edge"><title>I_sawmill&#45;&gt;C_lumber</title>
<a xlink:title="Sawmill &#45;&gt; Timber">
<path fill="none" stroke="black" d="M812.433,-396.331C830.254,-418.328 862.131,-455.659 894,-483 900.253,-488.365 907.34,-493.602 914.274,-498.347"/>
<polygon fill="black" stroke="black" points="912.633,-501.458 922.901,-504.066 916.5,-495.624 912.633,-501.458"/>
</a>
</g>
<!-- C_zinc&#45;&gt;I_port -->
<g id="edge44" class="edge"><title>C_zinc&#45;&gt;I_port</title>
<a xlink:title="Zinc &#45;&gt; Port">
<path fill="none" stroke="black" d="M830.39,-18C888.978,-18 1016.47,-18 1124,-18 1124,-18 1124,-18 1467,-18 1580.68,-18 1714.58,-33.0298 1778.06,-41.0661"/>
<polygon fill="black" stroke="black" points="1777.62,-44.5391 1787.99,-42.3395 1778.51,-37.5959 1777.62,-44.5391"/>
</a>
</g>
<!-- I_fishing_grounds -->
<g id="fishing_grounds" class="node"><title>I_fishing_grounds</title>
<a xlink:href="industries.html#fishing_grounds" xlink:title="Fishing Grounds" target="_top">
<polygon fill="none" stroke="black" points="1192,-353 1056,-353 1056,-317 1192,-317 1192,-353"/>
<text text-anchor="start" x="1068.5" y="-331.233" font-family="sans-serif" font-size="14.00">Fishing Grounds</text>
</a>
</g>
<!-- I_fishing_grounds&#45;&gt;C_fish -->
<g id="edge54" class="edge"><title>I_fishing_grounds&#45;&gt;C_fish</title>
<a xlink:title="Fishing Grounds &#45;&gt; Fish">
<path fill="none" stroke="black" d="M1192.66,-339.878C1217.42,-341.636 1244.55,-343.564 1266.17,-345.1"/>
<polygon fill="black" stroke="black" points="1266.09,-348.602 1276.31,-345.82 1266.58,-341.62 1266.09,-348.602"/>
</a>
</g>
<!-- I_forest -->
<g id="forest" class="node"><title>I_forest</title>
<a xlink:href="industries.html#forest" xlink:title="Forest" target="_top">
<polygon fill="none" stroke="black" points="521,-225.5 391,-225.5 391,-174.5 521,-174.5 521,-225.5"/>
<text text-anchor="start" x="435" y="-206.233" font-family="sans-serif" font-size="14.00">Forest</text>
<text text-anchor="start" x="403.5" y="-185.733" font-family="sans-serif" font-size="14.00">[Farm Supplies]</text>
</a>
</g>
<!-- I_forest&#45;&gt;C_wood -->
<g id="edge58" class="edge"><title>I_forest&#45;&gt;C_wood</title>
<a xlink:title="Forest &#45;&gt; Wood">
<path fill="none" stroke="black" d="M521.649,-197.502C544.443,-196.635 569.595,-195.678 590.828,-194.871"/>
<polygon fill="black" stroke="black" points="591.05,-198.365 600.909,-194.487 590.783,-191.37 591.05,-198.365"/>
</a>
</g>
<!-- I_herding_coop -->
<g id="herding_coop" class="node"><title>I_herding_coop</title>
<a xlink:href="industries.html#herding_coop" xlink:title="Herding Co&#45;op" target="_top">
<polygon fill="none" stroke="black" points="1532,-440.5 1402,-440.5 1402,-389.5 1532,-389.5 1532,-440.5"/>
<text text-anchor="start" x="1418" y="-421.233" font-family="sans-serif" font-size="14.00">Herding Co&#45;op</text>
<text text-anchor="start" x="1414.5" y="-400.733" font-family="sans-serif" font-size="14.00">[Farm Supplies]</text>
</a>
</g>
<!-- I_herding_coop&#45;&gt;C_food -->
<g id="edge62" class="edge"><title>I_herding_coop&#45;&gt;C_food</title>
<a xlink:title="Herding Co&#45;op &#45;&gt; Food">
<path fill="none" stroke="black" d="M1532.66,-417.597C1554.94,-418.478 1579.3,-419.441 1599.54,-420.242"/>
<polygon fill="black" stroke="black" points="1599.58,-423.746 1609.71,-420.644 1599.86,-416.751 1599.58,-423.746"/>
</a>
</g>
<!-- CI_hotel_passengers&#45;&gt;I_hotel -->
<g id="edge66" class="edge"><title>CI_hotel_passengers&#45;&gt;I_hotel</title>
<a xlink:title="Passengers &#45;&gt; Hotel">
<path fill="none" stroke="black" d="M1962.53,-430.179C1928.79,-431.492 1886.92,-431.23 1856.42,-429.394"/>
<polygon fill="black" stroke="black" points="1856.35,-425.881 1846.14,-428.679 1855.87,-432.864 1856.35,-425.881"/>
</a>
</g>
<!-- I_peatlands -->
<g id="peatlands" class="node"><title>I_peatlands</title>
<a xlink:href="industries.html#peatlands" xlink:title="Peatlands" target="_top">
<polygon fill="none" stroke="black" points="1214,-427.5 1034,-427.5 1034,-376.5 1214,-376.5 1214,-427.5"/>
<text text-anchor="start" x="1090.5" y="-408.233" font-family="sans-serif" font-size="14.00">Peatlands</text>
<text text-anchor="start" x="1046.5" y="-387.733" font-family="sans-serif" font-size="14.00">[Engineering Supplies]</text>
</a>
</g>
<!-- I_peatlands&#45;&gt;C_peat -->
<g id="edge70" class="edge"><title>I_peatlands&#45;&gt;C_peat</title>
<a xlink:title="Peatlands &#45;&gt; Peat">
<path fill="none" stroke="black" d="M1185.19,-427.078C1213.81,-438.807 1246.89,-452.364 1271.35,-462.388"/>
<polygon fill="black" stroke="black" points="1270.02,-465.627 1280.6,-466.181 1272.68,-459.15 1270.02,-465.627"/>
</a>
</g>
<!-- I_phosphate_mine -->
<g id="phosphate_mine" class="node"><title>I_phosphate_mine</title>
<a xlink:href="industries.html#phosphate_mine" xlink:title="Phosphate Mine" target="_top">
<polygon fill="none" stroke="black" points="546,-151.5 366,-151.5 366,-100.5 546,-100.5 546,-151.5"/>
<text text-anchor="start" x="400.5" y="-132.233" font-family="sans-serif" font-size="14.00">Phosphate Mine</text>
<text text-anchor="start" x="378.5" y="-111.733" font-family="sans-serif" font-size="14.00">[Engineering Supplies]</text>
</a>
</g>
<!-- I_phosphate_mine&#45;&gt;C_phosphate -->
<g id="edge72" class="edge"><title>I_phosphate_mine&#45;&gt;C_phosphate</title>
<a xlink:title="Phosphate Mine &#45;&gt; Phosphate">
<path fill="none" stroke="black" d="M546.113,-129.428C553.54,-129.711 560.983,-129.994 568.249,-130.27"/>
<polygon fill="black" stroke="black" points="568.257,-133.773 578.383,-130.656 568.523,-126.778 568.257,-133.773"/>
</a>
</g>
<!-- I_pyrite_mine -->
<g id="pyrite_mine" class="node"><title>I_pyrite_mine</title>
<a xlink:href="industries.html#pyrite_mine" xlink:title="Pyrite Mine" target="_top">
<polygon fill="none" stroke="black" points="180,-67.5 8.52651e-14,-67.5 0,-16.5 180,-16.5 180,-67.5"/>
<text text-anchor="start" x="50.5" y="-48.2333" font-family="sans-serif" font-size="14.00">Pyrite Mine</text>
<text text-anchor="start" x="12.5" y="-27.7333" font-family="sans-serif" font-size="14.00">[Engineering Supplies]</text>
</a>
</g>
<!-- I_pyrite_mine&#45;&gt;C_pyrite_ore -->
<g id="edge76" class="edge"><title>I_pyrite_mine&#45;&gt;C_pyrite_ore</title>
<a xlink:title="Pyrite Mine &#45;&gt; Pyrite Ore">
<path fill="none" stroke="black" d="M180.16,-42C187.373,-42 194.597,-42 201.654,-42"/>
<polygon fill="black" stroke="black" points="201.851,-45.5001 211.85,-42 201.85,-38.5001 201.851,-45.5001"/>
</a>
</g>
</g>
</svg>
