<?xml version="1.0" encoding="UTF-8" standalone="no"?>
<?xml-stylesheet href="static/css/cargoflow_styles.css" type="text/css"?>
<!DOCTYPE svg PUBLIC "-//W3C//DTD SVG 1.1//EN"
 "http://www.w3.org/Graphics/SVG/1.1/DTD/svg11.dtd">
<!-- Generated by graphviz version 2.44.1 (20200629.0846)
 -->
<!-- Title: arctic_basic Pages: 1 -->
<svg width="1490pt" height="939pt"
 viewBox="0.00 0.00 1490.05 939.00" xmlns="http://www.w3.org/2000/svg" xmlns:xlink="http://www.w3.org/1999/xlink">
<g id="graph0" class="graph" transform="scale(1 1) rotate(0) translate(4 935)">
<title>arctic_basic</title>
<g id="a_graph0"><a xlink:title="Arctic Basic">
<polygon fill="white" stroke="transparent" points="-4,4 -4,-935 1486.05,-935 1486.05,4 -4,4"/>
</a>
</g>
<!-- C_ammonia -->
<g id="ammonia" class="node">
<title>C_ammonia</title>
<g id="a_ammonia"><a xlink:href="cargos.html#ammonia" xlink:title="Ammonia" target="_top">
<ellipse fill="none" stroke="black" cx="570.04" cy="-165" rx="48.99" ry="18"/>
<text text-anchor="middle" x="570.04" y="-161.3" font-family="sans-serif" font-size="14.00">Ammonia</text>
</a>
</g>
</g>
<!-- I_chemical_plant -->
<g id="chemical_plant" class="node">
<title>I_chemical_plant</title>
<g id="a_chemical_plant"><a xlink:href="industries.html#chemical_plant" xlink:title="Chemical Plant" target="_top">
<polygon fill="none" stroke="black" points="792.68,-266 676.68,-266 676.68,-230 792.68,-230 792.68,-266"/>
<text text-anchor="start" x="688.68" y="-243.8" font-family="sans-serif" font-size="14.00">Chemical Plant</text>
</a>
</g>
</g>
<!-- C_ammonia&#45;&gt;I_chemical_plant -->
<g id="edge1" class="edge">
<title>C_ammonia&#45;&gt;I_chemical_plant</title>
<g id="a_edge1"><a xlink:title="Ammonia &#45;&gt; Chemical Plant">
<path fill="none" stroke="black" d="M599.37,-179.46C624.17,-192.11 660.62,-210.71 689.29,-225.35"/>
<polygon fill="black" stroke="black" points="687.8,-228.52 698.3,-229.95 690.99,-222.28 687.8,-228.52"/>
</a>
</g>
</g>
<!-- C_explosives -->
<g id="explosives" class="node">
<title>C_explosives</title>
<g id="a_explosives"><a xlink:href="cargos.html#explosives" xlink:title="Explosives" target="_top">
<ellipse fill="none" stroke="black" cx="899.33" cy="-303" rx="52.79" ry="18"/>
<text text-anchor="middle" x="899.33" y="-299.3" font-family="sans-serif" font-size="14.00">Explosives</text>
</a>
</g>
</g>
<!-- I_chemical_plant&#45;&gt;C_explosives -->
<g id="edge17" class="edge">
<title>I_chemical_plant&#45;&gt;C_explosives</title>
<g id="a_edge17"><a xlink:title="Chemical Plant &#45;&gt; Explosives">
<path fill="none" stroke="black" d="M788.94,-266.01C809.15,-272.84 831.99,-280.57 851.56,-287.19"/>
<polygon fill="black" stroke="black" points="850.57,-290.55 861.17,-290.43 852.82,-283.92 850.57,-290.55"/>
</a>
</g>
</g>
<!-- C_fertiliser -->
<g id="fertiliser" class="node">
<title>C_fertiliser</title>
<g id="a_fertiliser"><a xlink:href="cargos.html#fertiliser" xlink:title="Fertiliser" target="_top">
<ellipse fill="none" stroke="black" cx="899.33" cy="-193" rx="44.39" ry="18"/>
<text text-anchor="middle" x="899.33" y="-189.3" font-family="sans-serif" font-size="14.00">Fertiliser</text>
</a>
</g>
</g>
<!-- I_chemical_plant&#45;&gt;C_fertiliser -->
<g id="edge18" class="edge">
<title>I_chemical_plant&#45;&gt;C_fertiliser</title>
<g id="a_edge18"><a xlink:title="Chemical Plant &#45;&gt; Fertiliser">
<path fill="none" stroke="black" d="M788.94,-229.99C810.43,-222.72 834.91,-214.44 855.26,-207.56"/>
<polygon fill="black" stroke="black" points="856.53,-210.83 864.88,-204.31 854.29,-204.2 856.53,-210.83"/>
</a>
</g>
</g>
<!-- I_wharf -->
<g id="wharf" class="node">
<title>I_wharf</title>
<g id="a_wharf"><a xlink:href="industries.html#wharf" xlink:title="Wharf" target="_top">
<polygon fill="none" stroke="black" points="1044.97,-354 983.97,-354 983.97,-318 1044.97,-318 1044.97,-354"/>
<text text-anchor="start" x="996.47" y="-331.8" font-family="sans-serif" font-size="14.00">Wharf</text>
</a>
</g>
</g>
<!-- C_explosives&#45;&gt;I_wharf -->
<g id="edge2" class="edge">
<title>C_explosives&#45;&gt;I_wharf</title>
<g id="a_edge2"><a xlink:title="Explosives &#45;&gt; Wharf">
<path fill="none" stroke="black" d="M939.9,-314.54C950.93,-317.76 962.9,-321.25 973.93,-324.47"/>
<polygon fill="black" stroke="black" points="973.15,-327.89 983.73,-327.33 975.11,-321.17 973.15,-327.89"/>
</a>
</g>
</g>
<!-- C_potash -->
<g id="potash" class="node">
<title>C_potash</title>
<g id="a_potash"><a xlink:href="cargos.html#potash" xlink:title="Potash" target="_top">
<ellipse fill="none" stroke="black" cx="1170.56" cy="-248" rx="38.19" ry="18"/>
<text text-anchor="middle" x="1170.56" y="-244.3" font-family="sans-serif" font-size="14.00">Potash</text>
</a>
</g>
</g>
<!-- I_wharf&#45;&gt;C_potash -->
<g id="edge35" class="edge">
<title>I_wharf&#45;&gt;C_potash</title>
<g id="a_edge35"><a xlink:title="Wharf &#45;&gt; Potash">
<path fill="none" stroke="black" d="M1030.77,-317.79C1042.32,-305.07 1059.17,-288.55 1076.97,-278 1091.78,-269.23 1109.46,-262.69 1125.39,-257.99"/>
<polygon fill="black" stroke="black" points="1126.34,-261.36 1135.04,-255.3 1124.46,-254.62 1126.34,-261.36"/>
</a>
</g>
</g>
<!-- C_engineering_supplies_wharf -->
<g id="engineering_supplies" class="node">
<title>C_engineering_supplies_wharf</title>
<g id="a_engineering_supplies"><a xlink:href="cargos.html#engineering_supplies" xlink:title="Engineering Supplies" target="_top">
<ellipse fill="none" stroke="black" cx="1170.56" cy="-308" rx="93.68" ry="18"/>
<text text-anchor="middle" x="1170.56" y="-304.3" font-family="sans-serif" font-size="14.00">Engineering Supplies</text>
</a>
</g>
</g>
<!-- I_wharf&#45;&gt;C_engineering_supplies_wharf -->
<g id="edge36" class="edge">
<title>I_wharf&#45;&gt;C_engineering_supplies_wharf</title>
<g id="a_edge36"><a xlink:title="Wharf &#45;&gt; Engineering Supplies">
<path fill="none" stroke="black" d="M1045.18,-330.6C1058.58,-328.17 1075.1,-325.17 1091.67,-322.15"/>
<polygon fill="black" stroke="black" points="1092.75,-325.52 1101.96,-320.28 1091.5,-318.63 1092.75,-325.52"/>
</a>
</g>
</g>
<!-- C_farm_supplies_wharf -->
<g id="farm_supplies" class="node">
<title>C_farm_supplies_wharf</title>
<g id="a_farm_supplies"><a xlink:href="cargos.html#farm_supplies" xlink:title="Farm Supplies" target="_top">
<ellipse fill="none" stroke="black" cx="1170.56" cy="-368" rx="67.69" ry="18"/>
<text text-anchor="middle" x="1170.56" y="-364.3" font-family="sans-serif" font-size="14.00">Farm Supplies</text>
</a>
</g>
</g>
<!-- I_wharf&#45;&gt;C_farm_supplies_wharf -->
<g id="edge37" class="edge">
<title>I_wharf&#45;&gt;C_farm_supplies_wharf</title>
<g id="a_edge37"><a xlink:title="Wharf &#45;&gt; Farm Supplies">
<path fill="none" stroke="black" d="M1045.18,-342.17C1062.7,-345.81 1085.54,-350.55 1106.87,-354.98"/>
<polygon fill="black" stroke="black" points="1106.35,-358.45 1116.86,-357.05 1107.78,-351.59 1106.35,-358.45"/>
</a>
</g>
</g>
<!-- I_port -->
<g id="port" class="node">
<title>I_port</title>
<g id="a_port"><a xlink:href="industries.html#port" xlink:title="Port" target="_top">
<polygon fill="none" stroke="black" points="1041.47,-146 987.47,-146 987.47,-110 1041.47,-110 1041.47,-146"/>
<text text-anchor="start" x="1002.47" y="-123.8" font-family="sans-serif" font-size="14.00">Port</text>
</a>
</g>
</g>
<!-- C_fertiliser&#45;&gt;I_port -->
<g id="edge3" class="edge">
<title>C_fertiliser&#45;&gt;I_port</title>
<g id="a_edge3"><a xlink:title="Fertiliser &#45;&gt; Port">
<path fill="none" stroke="black" d="M925.72,-178.41C941.22,-169.51 961.27,-157.99 978.29,-148.21"/>
<polygon fill="black" stroke="black" points="980.45,-151.01 987.38,-142.99 976.97,-144.94 980.45,-151.01"/>
</a>
</g>
</g>
<!-- I_port&#45;&gt;C_ammonia -->
<g id="edge27" class="edge">
<title>I_port&#45;&gt;C_ammonia</title>
<g id="a_edge27"><a xlink:title="Port &#45;&gt; Ammonia">
<path fill="none" stroke="black" d="M987.25,-130.19C917.28,-136.04 724.89,-152.13 628.15,-160.22"/>
<polygon fill="black" stroke="black" points="627.64,-156.75 617.97,-161.08 628.22,-163.73 627.64,-156.75"/>
</a>
</g>
</g>
<!-- C_kaolin -->
<g id="kaolin" class="node">
<title>C_kaolin</title>
<g id="a_kaolin"><a xlink:href="cargos.html#kaolin" xlink:title="Kaolin" target="_top">
<ellipse fill="none" stroke="black" cx="1170.56" cy="-188" rx="35.19" ry="18"/>
<text text-anchor="middle" x="1170.56" y="-184.3" font-family="sans-serif" font-size="14.00">Kaolin</text>
</a>
</g>
</g>
<!-- I_port&#45;&gt;C_kaolin -->
<g id="edge28" class="edge">
<title>I_port&#45;&gt;C_kaolin</title>
<g id="a_edge28"><a xlink:title="Port &#45;&gt; Kaolin">
<path fill="none" stroke="black" d="M1041.74,-141.82C1052.51,-147.22 1065.18,-153.24 1076.97,-158 1093.97,-164.86 1113.19,-171.29 1129.7,-176.43"/>
<polygon fill="black" stroke="black" points="1128.99,-179.87 1139.58,-179.45 1131.04,-173.18 1128.99,-179.87"/>
</a>
</g>
</g>
<!-- C_engineering_supplies_port -->
<g id="engineering_supplies" class="node">
<title>C_engineering_supplies_port</title>
<g id="a_engineering_supplies"><a xlink:href="cargos.html#engineering_supplies" xlink:title="Engineering Supplies" target="_top">
<ellipse fill="none" stroke="black" cx="1170.56" cy="-18" rx="93.68" ry="18"/>
<text text-anchor="middle" x="1170.56" y="-14.3" font-family="sans-serif" font-size="14.00">Engineering Supplies</text>
</a>
</g>
</g>
<!-- I_port&#45;&gt;C_engineering_supplies_port -->
<g id="edge29" class="edge">
<title>I_port&#45;&gt;C_engineering_supplies_port</title>
<g id="a_edge29"><a xlink:title="Port &#45;&gt; Engineering Supplies">
<path fill="none" stroke="black" d="M1026.61,-109.92C1037.61,-93.38 1055.83,-69.23 1076.97,-54 1086.39,-47.22 1097.25,-41.51 1108.15,-36.79"/>
<polygon fill="black" stroke="black" points="1109.77,-39.91 1117.7,-32.89 1107.12,-33.43 1109.77,-39.91"/>
</a>
</g>
</g>
<!-- C_farm_supplies_port -->
<g id="farm_supplies" class="node">
<title>C_farm_supplies_port</title>
<g id="a_farm_supplies"><a xlink:href="cargos.html#farm_supplies" xlink:title="Farm Supplies" target="_top">
<ellipse fill="none" stroke="black" cx="1170.56" cy="-128" rx="67.69" ry="18"/>
<text text-anchor="middle" x="1170.56" y="-124.3" font-family="sans-serif" font-size="14.00">Farm Supplies</text>
</a>
</g>
</g>
<!-- I_port&#45;&gt;C_farm_supplies_port -->
<g id="edge30" class="edge">
<title>I_port&#45;&gt;C_farm_supplies_port</title>
<g id="a_edge30"><a xlink:title="Port &#45;&gt; Farm Supplies">
<path fill="none" stroke="black" d="M1041.61,-128C1055.81,-128 1074.19,-128 1092.56,-128"/>
<polygon fill="black" stroke="black" points="1092.74,-131.5 1102.74,-128 1092.74,-124.5 1092.74,-131.5"/>
</a>
</g>
</g>
<!-- C_fish -->
<g id="fish" class="node">
<title>C_fish</title>
<g id="a_fish"><a xlink:href="cargos.html#fish" xlink:title="Fish" target="_top">
<ellipse fill="none" stroke="black" cx="242.7" cy="-601" rx="27.1" ry="18"/>
<text text-anchor="middle" x="242.7" y="-597.3" font-family="sans-serif" font-size="14.00">Fish</text>
</a>
</g>
</g>
<!-- I_fishing_harbour -->
<g id="fishing_harbour" class="node">
<title>I_fishing_harbour</title>
<g id="a_fishing_harbour"><a xlink:href="industries.html#fishing_harbour" xlink:title="Fishing Harbour" target="_top">
<polygon fill="none" stroke="black" points="465.89,-619 344.89,-619 344.89,-583 465.89,-583 465.89,-619"/>
<text text-anchor="start" x="357.39" y="-596.8" font-family="sans-serif" font-size="14.00">Fishing Harbour</text>
</a>
</g>
</g>
<!-- C_fish&#45;&gt;I_fishing_harbour -->
<g id="edge4" class="edge">
<title>C_fish&#45;&gt;I_fishing_harbour</title>
<g id="a_edge4"><a xlink:title="Fish &#45;&gt; Fishing Harbour">
<path fill="none" stroke="black" d="M270.23,-601C287.86,-601 311.88,-601 334.73,-601"/>
<polygon fill="black" stroke="black" points="334.77,-604.5 344.77,-601 334.77,-597.5 334.77,-604.5"/>
</a>
</g>
</g>
<!-- C_food -->
<g id="food" class="node">
<title>C_food</title>
<g id="a_food"><a xlink:href="cargos.html#food" xlink:title="Food" target="_top">
<ellipse fill="none" stroke="black" cx="570.04" cy="-635" rx="30.59" ry="18"/>
<text text-anchor="middle" x="570.04" y="-631.3" font-family="sans-serif" font-size="14.00">Food</text>
</a>
</g>
</g>
<!-- I_fishing_harbour&#45;&gt;C_food -->
<g id="edge21" class="edge">
<title>I_fishing_harbour&#45;&gt;C_food</title>
<g id="a_edge21"><a xlink:title="Fishing Harbour &#45;&gt; Food">
<path fill="none" stroke="black" d="M466.03,-613.47C487.7,-618 511.59,-622.99 530.9,-627.03"/>
<polygon fill="black" stroke="black" points="530.33,-630.48 540.83,-629.1 531.76,-623.63 530.33,-630.48"/>
</a>
</g>
</g>
<!-- I_paper_mill -->
<g id="paper_mill" class="node">
<title>I_paper_mill</title>
<g id="a_paper_mill"><a xlink:href="industries.html#paper_mill" xlink:title="Paper Mill" target="_top">
<polygon fill="none" stroke="black" points="1381.16,-441 1296.16,-441 1296.16,-405 1381.16,-405 1381.16,-441"/>
<text text-anchor="start" x="1308.66" y="-418.8" font-family="sans-serif" font-size="14.00">Paper Mill</text>
</a>
</g>
</g>
<!-- C_kaolin&#45;&gt;I_paper_mill -->
<g id="edge5" class="edge">
<title>C_kaolin&#45;&gt;I_paper_mill</title>
<g id="a_edge5"><a xlink:title="Kaolin &#45;&gt; Paper Mill">
<path fill="none" stroke="black" d="M1205.31,-191.54C1224.75,-195.21 1248.38,-202.71 1264.16,-218 1314.06,-266.38 1330.19,-351 1335.32,-394.85"/>
<polygon fill="black" stroke="black" points="1331.85,-395.25 1336.38,-404.83 1338.81,-394.51 1331.85,-395.25"/>
</a>
</g>
</g>
<!-- C_paper -->
<g id="paper" class="node">
<title>C_paper</title>
<g id="a_paper"><a xlink:href="cargos.html#paper" xlink:title="Paper" target="_top">
<ellipse fill="none" stroke="black" cx="1447.6" cy="-73" rx="34.39" ry="18"/>
<text text-anchor="middle" x="1447.6" y="-69.3" font-family="sans-serif" font-size="14.00">Paper</text>
</a>
</g>
</g>
<!-- I_paper_mill&#45;&gt;C_paper -->
<g id="edge24" class="edge">
<title>I_paper_mill&#45;&gt;C_paper</title>
<g id="a_edge24"><a xlink:title="Paper Mill &#45;&gt; Paper">
<path fill="none" stroke="black" d="M1345.26,-404.68C1362.87,-347.01 1417.25,-169.05 1438.23,-100.4"/>
<polygon fill="black" stroke="black" points="1441.61,-101.31 1441.19,-90.73 1434.92,-99.27 1441.61,-101.31"/>
</a>
</g>
</g>
<!-- C_paper&#45;&gt;I_port -->
<g id="edge6" class="edge">
<title>C_paper&#45;&gt;I_port</title>
<g id="a_edge6"><a xlink:title="Paper &#45;&gt; Port">
<path fill="none" stroke="black" d="M1413.28,-71.03C1347.64,-68.07 1197.53,-65.84 1076.97,-98 1068.13,-100.36 1059.04,-104.01 1050.66,-107.97"/>
<polygon fill="black" stroke="black" points="1048.93,-104.92 1041.54,-112.51 1052.05,-111.19 1048.93,-104.92"/>
</a>
</g>
</g>
<!-- C_peat -->
<g id="peat" class="node">
<title>C_peat</title>
<g id="a_peat"><a xlink:href="cargos.html#peat" xlink:title="Peat" target="_top">
<ellipse fill="none" stroke="black" cx="899.33" cy="-363" rx="28.7" ry="18"/>
<text text-anchor="middle" x="899.33" y="-359.3" font-family="sans-serif" font-size="14.00">Peat</text>
</a>
</g>
</g>
<!-- C_peat&#45;&gt;I_wharf -->
<g id="edge7" class="edge">
<title>C_peat&#45;&gt;I_wharf</title>
<g id="a_edge7"><a xlink:title="Peat &#45;&gt; Wharf">
<path fill="none" stroke="black" d="M926.28,-356.81C940.31,-353.46 957.92,-349.26 973.64,-345.51"/>
<polygon fill="black" stroke="black" points="974.72,-348.85 983.64,-343.12 973.1,-342.04 974.72,-348.85"/>
</a>
</g>
</g>
<!-- C_phosphate -->
<g id="phosphate" class="node">
<title>C_phosphate</title>
<g id="a_phosphate"><a xlink:href="cargos.html#phosphate" xlink:title="Phosphate" target="_top">
<ellipse fill="none" stroke="black" cx="570.04" cy="-248" rx="52.79" ry="18"/>
<text text-anchor="middle" x="570.04" y="-244.3" font-family="sans-serif" font-size="14.00">Phosphate</text>
</a>
</g>
</g>
<!-- C_phosphate&#45;&gt;I_chemical_plant -->
<g id="edge8" class="edge">
<title>C_phosphate&#45;&gt;I_chemical_plant</title>
<g id="a_edge8"><a xlink:title="Phosphate &#45;&gt; Chemical Plant">
<path fill="none" stroke="black" d="M622.95,-248C636.71,-248 651.77,-248 666.24,-248"/>
<polygon fill="black" stroke="black" points="666.63,-251.5 676.63,-248 666.63,-244.5 666.63,-251.5"/>
</a>
</g>
</g>
<!-- C_potash&#45;&gt;I_chemical_plant -->
<g id="edge9" class="edge">
<title>C_potash&#45;&gt;I_chemical_plant</title>
<g id="a_edge9"><a xlink:title="Potash &#45;&gt; Chemical Plant">
<path fill="none" stroke="black" d="M1132.05,-248C1058.71,-248 895.42,-248 802.94,-248"/>
<polygon fill="black" stroke="black" points="802.85,-244.5 792.85,-248 802.85,-251.5 802.85,-244.5"/>
</a>
</g>
</g>
<!-- C_pyrite_ore -->
<g id="pyrite_ore" class="node">
<title>C_pyrite_ore</title>
<g id="a_pyrite_ore"><a xlink:href="cargos.html#pyrite_ore" xlink:title="Pyrite Ore" target="_top">
<ellipse fill="none" stroke="black" cx="242.7" cy="-308" rx="50.89" ry="18"/>
<text text-anchor="middle" x="242.7" y="-304.3" font-family="sans-serif" font-size="14.00">Pyrite Ore</text>
</a>
</g>
</g>
<!-- I_pyrite_smelter -->
<g id="pyrite_smelter" class="node">
<title>I_pyrite_smelter</title>
<g id="a_pyrite_smelter"><a xlink:href="industries.html#pyrite_smelter" xlink:title="Pyrite Smelter" target="_top">
<polygon fill="none" stroke="black" points="460.39,-326 350.39,-326 350.39,-290 460.39,-290 460.39,-326"/>
<text text-anchor="start" x="362.39" y="-303.8" font-family="sans-serif" font-size="14.00">Pyrite Smelter</text>
</a>
</g>
</g>
<!-- C_pyrite_ore&#45;&gt;I_pyrite_smelter -->
<g id="edge10" class="edge">
<title>C_pyrite_ore&#45;&gt;I_pyrite_smelter</title>
<g id="a_edge10"><a xlink:title="Pyrite Ore &#45;&gt; Pyrite Smelter">
<path fill="none" stroke="black" d="M293.66,-308C308.4,-308 324.73,-308 340.23,-308"/>
<polygon fill="black" stroke="black" points="340.27,-311.5 350.27,-308 340.27,-304.5 340.27,-311.5"/>
</a>
</g>
</g>
<!-- C_sulphur -->
<g id="sulphur" class="node">
<title>C_sulphur</title>
<g id="a_sulphur"><a xlink:href="cargos.html#sulphur" xlink:title="Sulphur" target="_top">
<ellipse fill="none" stroke="black" cx="570.04" cy="-308" rx="40.89" ry="18"/>
<text text-anchor="middle" x="570.04" y="-304.3" font-family="sans-serif" font-size="14.00">Sulphur</text>
</a>
</g>
</g>
<!-- I_pyrite_smelter&#45;&gt;C_sulphur -->
<g id="edge32" class="edge">
<title>I_pyrite_smelter&#45;&gt;C_sulphur</title>
<g id="a_edge32"><a xlink:title="Pyrite Smelter &#45;&gt; Sulphur">
<path fill="none" stroke="black" d="M460.55,-308C479.33,-308 500.3,-308 518.75,-308"/>
<polygon fill="black" stroke="black" points="519,-311.5 529,-308 519,-304.5 519,-311.5"/>
</a>
</g>
</g>
<!-- C_zinc -->
<g id="zinc" class="node">
<title>C_zinc</title>
<g id="a_zinc"><a xlink:href="cargos.html#zinc" xlink:title="Zinc" target="_top">
<ellipse fill="none" stroke="black" cx="899.33" cy="-83" rx="27.1" ry="18"/>
<text text-anchor="middle" x="899.33" y="-79.3" font-family="sans-serif" font-size="14.00">Zinc</text>
</a>
</g>
</g>
<!-- I_pyrite_smelter&#45;&gt;C_zinc -->
<g id="edge33" class="edge">
<title>I_pyrite_smelter&#45;&gt;C_zinc</title>
<g id="a_edge33"><a xlink:title="Pyrite Smelter &#45;&gt; Zinc">
<path fill="none" stroke="black" d="M460.66,-295.61C469.97,-291.36 478.76,-285.65 485.39,-278 528.04,-228.78 469.44,-179.07 517.39,-135 614.36,-45.9 788.13,-63.25 862.72,-75.89"/>
<polygon fill="black" stroke="black" points="862.53,-79.41 872.98,-77.71 863.75,-72.52 862.53,-79.41"/>
</a>
</g>
</g>
<!-- C_sulphur&#45;&gt;I_chemical_plant -->
<g id="edge11" class="edge">
<title>C_sulphur&#45;&gt;I_chemical_plant</title>
<g id="a_edge11"><a xlink:title="Sulphur &#45;&gt; Chemical Plant">
<path fill="none" stroke="black" d="M602.01,-296.57C622.6,-288.98 650.28,-278.77 674.95,-269.67"/>
<polygon fill="black" stroke="black" points="676.42,-272.85 684.59,-266.11 674,-266.29 676.42,-272.85"/>
</a>
</g>
</g>
<!-- C_sulphur&#45;&gt;I_paper_mill -->
<g id="edge12" class="edge">
<title>C_sulphur&#45;&gt;I_paper_mill</title>
<g id="a_edge12"><a xlink:title="Sulphur &#45;&gt; Paper Mill">
<path fill="none" stroke="black" d="M581.54,-325.43C595.37,-346.64 621.84,-381.64 654.68,-398 752.12,-446.53 789.47,-423 898.33,-423 898.33,-423 898.33,-423 1015.47,-423 1110.85,-423 1222.1,-423 1285.77,-423"/>
<polygon fill="black" stroke="black" points="1285.95,-426.5 1295.95,-423 1285.95,-419.5 1285.95,-426.5"/>
</a>
</g>
</g>
<!-- C_lumber -->
<g id="lumber" class="node">
<title>C_lumber</title>
<g id="a_lumber"><a xlink:href="cargos.html#lumber" xlink:title="Timber" target="_top">
<ellipse fill="none" stroke="black" cx="899.33" cy="-478" rx="38.19" ry="18"/>
<text text-anchor="middle" x="899.33" y="-474.3" font-family="sans-serif" font-size="14.00">Timber</text>
</a>
</g>
</g>
<!-- C_lumber&#45;&gt;I_wharf -->
<g id="edge13" class="edge">
<title>C_lumber&#45;&gt;I_wharf</title>
<g id="a_edge13"><a xlink:title="Timber &#45;&gt; Wharf">
<path fill="none" stroke="black" d="M913.75,-461.15C933.25,-436.68 969.59,-391.07 992.6,-362.19"/>
<polygon fill="black" stroke="black" points="995.5,-364.17 999,-354.17 990.03,-359.81 995.5,-364.17"/>
</a>
</g>
</g>
<!-- C_wood -->
<g id="wood" class="node">
<title>C_wood</title>
<g id="a_wood"><a xlink:href="cargos.html#wood" xlink:title="Wood" target="_top">
<ellipse fill="none" stroke="black" cx="570.04" cy="-533" rx="33.6" ry="18"/>
<text text-anchor="middle" x="570.04" y="-529.3" font-family="sans-serif" font-size="14.00">Wood</text>
</a>
</g>
</g>
<!-- C_wood&#45;&gt;I_paper_mill -->
<g id="edge14" class="edge">
<title>C_wood&#45;&gt;I_paper_mill</title>
<g id="a_edge14"><a xlink:title="Wood &#45;&gt; Paper Mill">
<path fill="none" stroke="black" d="M604.02,-533C663.05,-533 790.65,-533 898.33,-533 898.33,-533 898.33,-533 1015.47,-533 1122.07,-533 1238.38,-478.41 1297.81,-446.14"/>
<polygon fill="black" stroke="black" points="1299.77,-449.05 1306.85,-441.16 1296.4,-442.92 1299.77,-449.05"/>
</a>
</g>
</g>
<!-- I_sawmill -->
<g id="sawmill" class="node">
<title>I_sawmill</title>
<g id="a_sawmill"><a xlink:href="industries.html#sawmill" xlink:title="Sawmill" target="_top">
<polygon fill="none" stroke="black" points="770.68,-496 698.68,-496 698.68,-460 770.68,-460 770.68,-496"/>
<text text-anchor="start" x="710.68" y="-473.8" font-family="sans-serif" font-size="14.00">Sawmill</text>
</a>
</g>
</g>
<!-- C_wood&#45;&gt;I_sawmill -->
<g id="edge15" class="edge">
<title>C_wood&#45;&gt;I_sawmill</title>
<g id="a_edge15"><a xlink:title="Wood &#45;&gt; Sawmill">
<path fill="none" stroke="black" d="M599,-523.55C623.61,-515.22 659.91,-502.95 688.62,-493.24"/>
<polygon fill="black" stroke="black" points="690.08,-496.44 698.43,-489.92 687.84,-489.81 690.08,-496.44"/>
</a>
</g>
</g>
<!-- I_sawmill&#45;&gt;C_lumber -->
<g id="edge34" class="edge">
<title>I_sawmill&#45;&gt;C_lumber</title>
<g id="a_edge34"><a xlink:title="Sawmill &#45;&gt; Timber">
<path fill="none" stroke="black" d="M770.97,-478C794.29,-478 825.14,-478 850.64,-478"/>
<polygon fill="black" stroke="black" points="850.84,-481.5 860.84,-478 850.84,-474.5 850.84,-481.5"/>
</a>
</g>
</g>
<!-- C_zinc&#45;&gt;I_port -->
<g id="edge16" class="edge">
<title>C_zinc&#45;&gt;I_port</title>
<g id="a_edge16"><a xlink:title="Zinc &#45;&gt; Port">
<path fill="none" stroke="black" d="M923.22,-92.11C938.91,-98.35 960.04,-106.75 977.91,-113.86"/>
<polygon fill="black" stroke="black" points="976.86,-117.2 987.44,-117.65 979.44,-110.7 976.86,-117.2"/>
</a>
</g>
</g>
<!-- I_fish_farm -->
<g id="fish_farm" class="node">
<title>I_fish_farm</title>
<g id="a_fish_farm"><a xlink:href="industries.html#fish_farm" xlink:title="Fish Farm" target="_top">
<polygon fill="none" stroke="black" points="140,-661 20,-661 20,-609 140,-609 140,-661"/>
<text text-anchor="start" x="49" y="-641.8" font-family="sans-serif" font-size="14.00">Fish Farm</text>
<text text-anchor="start" x="32" y="-620.8" font-family="sans-serif" font-size="14.00">[Farm Supplies]</text>
</a>
</g>
</g>
<!-- I_fish_farm&#45;&gt;C_fish -->
<g id="edge19" class="edge">
<title>I_fish_farm&#45;&gt;C_fish</title>
<g id="a_edge19"><a xlink:title="Fish Farm &#45;&gt; Fish">
<path fill="none" stroke="black" d="M140.38,-622.44C162.66,-617.72 187.26,-612.52 206.63,-608.42"/>
<polygon fill="black" stroke="black" points="207.47,-611.82 216.53,-606.32 206.02,-604.97 207.47,-611.82"/>
</a>
</g>
</g>
<!-- I_fishing_grounds -->
<g id="fishing_grounds" class="node">
<title>I_fishing_grounds</title>
<g id="a_fishing_grounds"><a xlink:href="industries.html#fishing_grounds" xlink:title="Fishing Grounds" target="_top">
<polygon fill="none" stroke="black" points="142,-585 18,-585 18,-549 142,-549 142,-585"/>
<text text-anchor="start" x="30" y="-562.8" font-family="sans-serif" font-size="14.00">Fishing Grounds</text>
</a>
</g>
</g>
<!-- I_fishing_grounds&#45;&gt;C_fish -->
<g id="edge20" class="edge">
<title>I_fishing_grounds&#45;&gt;C_fish</title>
<g id="a_edge20"><a xlink:title="Fishing Grounds &#45;&gt; Fish">
<path fill="none" stroke="black" d="M142.21,-579.95C163.91,-584.54 187.59,-589.55 206.41,-593.53"/>
<polygon fill="black" stroke="black" points="205.8,-596.98 216.31,-595.63 207.25,-590.14 205.8,-596.98"/>
</a>
</g>
</g>
<!-- I_forest -->
<g id="forest" class="node">
<title>I_forest</title>
<g id="a_forest"><a xlink:href="industries.html#forest" xlink:title="Forest" target="_top">
<polygon fill="none" stroke="black" points="465.39,-559 345.39,-559 345.39,-507 465.39,-507 465.39,-559"/>
<text text-anchor="start" x="385.89" y="-539.8" font-family="sans-serif" font-size="14.00">Forest</text>
<text text-anchor="start" x="357.39" y="-518.8" font-family="sans-serif" font-size="14.00">[Farm Supplies]</text>
</a>
</g>
</g>
<!-- I_forest&#45;&gt;C_wood -->
<g id="edge22" class="edge">
<title>I_forest&#45;&gt;C_wood</title>
<g id="a_edge22"><a xlink:title="Forest &#45;&gt; Wood">
<path fill="none" stroke="black" d="M465.57,-533C485.56,-533 507.47,-533 525.97,-533"/>
<polygon fill="black" stroke="black" points="526.14,-536.5 536.14,-533 526.14,-529.5 526.14,-536.5"/>
</a>
</g>
</g>
<!-- I_general_store -->
<g id="general_store" class="node">
<title>I_general_store</title>
<g id="a_general_store"><a xlink:href="industries.html#general_store" xlink:title="General Store" target="_top">
<polygon fill="none" stroke="black" points="134.5,-737 25.5,-737 25.5,-685 134.5,-685 134.5,-737"/>
<text text-anchor="start" x="38" y="-717.8" font-family="sans-serif" font-size="14.00">General Store</text>
<text text-anchor="start" x="61" y="-696.8" font-family="sans-serif" font-size="14.00">[Food]</text>
</a>
</g>
</g>
<!-- I_herding_coop -->
<g id="herding_coop" class="node">
<title>I_herding_coop</title>
<g id="a_herding_coop"><a xlink:href="industries.html#herding_coop" xlink:title="Herding Co&#45;op" target="_top">
<polygon fill="none" stroke="black" points="465.39,-695 345.39,-695 345.39,-643 465.39,-643 465.39,-695"/>
<text text-anchor="start" x="361.39" y="-675.8" font-family="sans-serif" font-size="14.00">Herding Co&#45;op</text>
<text text-anchor="start" x="357.39" y="-654.8" font-family="sans-serif" font-size="14.00">[Farm Supplies]</text>
</a>
</g>
</g>
<!-- I_herding_coop&#45;&gt;C_food -->
<g id="edge23" class="edge">
<title>I_herding_coop&#45;&gt;C_food</title>
<g id="a_edge23"><a xlink:title="Herding Co&#45;op &#45;&gt; Food">
<path fill="none" stroke="black" d="M465.57,-656.63C487.44,-652.06 511.61,-647 531.09,-642.93"/>
<polygon fill="black" stroke="black" points="532.03,-646.31 541.1,-640.84 530.6,-639.46 532.03,-646.31"/>
</a>
</g>
</g>
<!-- I_hotel -->
<g id="hotel" class="node">
<title>I_hotel</title>
<g id="a_hotel"><a xlink:href="industries.html#hotel" xlink:title="Hotel" target="_top">
<polygon fill="none" stroke="black" points="131.5,-855 28.5,-855 28.5,-761 131.5,-761 131.5,-855"/>
<text text-anchor="start" x="64.5" y="-835.8" font-family="sans-serif" font-size="14.00">Hotel</text>
<text text-anchor="start" x="61" y="-814.8" font-family="sans-serif" font-size="14.00">[Food]</text>
<text text-anchor="start" x="41" y="-793.8" font-family="sans-serif" font-size="14.00">[Passengers]</text>
<text text-anchor="start" x="41" y="-772.8" font-family="sans-serif" font-size="14.00">[Passengers]</text>
</a>
</g>
</g>
<!-- I_peatlands -->
<g id="peatlands" class="node">
<title>I_peatlands</title>
<g id="a_peatlands"><a xlink:href="industries.html#peatlands" xlink:title="Peatlands" target="_top">
<polygon fill="none" stroke="black" points="814.68,-386 654.68,-386 654.68,-334 814.68,-334 814.68,-386"/>
<text text-anchor="start" x="704.18" y="-366.8" font-family="sans-serif" font-size="14.00">Peatlands</text>
<text text-anchor="start" x="666.68" y="-345.8" font-family="sans-serif" font-size="14.00">[Engineering Supplies]</text>
</a>
</g>
</g>
<!-- I_peatlands&#45;&gt;C_peat -->
<g id="edge25" class="edge">
<title>I_peatlands&#45;&gt;C_peat</title>
<g id="a_edge25"><a xlink:title="Peatlands &#45;&gt; Peat">
<path fill="none" stroke="black" d="M815.1,-361.46C830.88,-361.76 846.75,-362.05 860.35,-362.3"/>
<polygon fill="black" stroke="black" points="860.65,-365.81 870.71,-362.49 860.78,-358.81 860.65,-365.81"/>
</a>
</g>
</g>
<!-- I_phosphate_mine -->
<g id="phosphate_mine" class="node">
<title>I_phosphate_mine</title>
<g id="a_phosphate_mine"><a xlink:href="industries.html#phosphate_mine" xlink:title="Phosphate Mine" target="_top">
<polygon fill="none" stroke="black" points="485.39,-266 325.39,-266 325.39,-214 485.39,-214 485.39,-266"/>
<text text-anchor="start" x="355.89" y="-246.8" font-family="sans-serif" font-size="14.00">Phosphate Mine</text>
<text text-anchor="start" x="337.39" y="-225.8" font-family="sans-serif" font-size="14.00">[Engineering Supplies]</text>
</a>
</g>
</g>
<!-- I_phosphate_mine&#45;&gt;C_phosphate -->
<g id="edge26" class="edge">
<title>I_phosphate_mine&#45;&gt;C_phosphate</title>
<g id="a_edge26"><a xlink:title="Phosphate Mine &#45;&gt; Phosphate">
<path fill="none" stroke="black" d="M485.81,-243.91C493.07,-244.26 500.35,-244.62 507.42,-244.97"/>
<polygon fill="black" stroke="black" points="507.44,-248.47 517.6,-245.47 507.78,-241.48 507.44,-248.47"/>
</a>
</g>
</g>
<!-- I_power_plant -->
<g id="power_plant" class="node">
<title>I_power_plant</title>
<g id="a_power_plant"><a xlink:href="industries.html#power_plant" xlink:title="Power Plant" target="_top">
<polygon fill="none" stroke="black" points="128.5,-931 31.5,-931 31.5,-879 128.5,-879 128.5,-931"/>
<text text-anchor="start" x="44" y="-911.8" font-family="sans-serif" font-size="14.00">Power Plant</text>
<text text-anchor="start" x="62.5" y="-890.8" font-family="sans-serif" font-size="14.00">[Peat]</text>
</a>
</g>
</g>
<!-- I_pyrite_mine -->
<g id="pyrite_mine" class="node">
<title>I_pyrite_mine</title>
<g id="a_pyrite_mine"><a xlink:href="industries.html#pyrite_mine" xlink:title="Pyrite Mine" target="_top">
<polygon fill="none" stroke="black" points="160,-334 0,-334 0,-282 160,-282 160,-334"/>
<text text-anchor="start" x="45.5" y="-314.8" font-family="sans-serif" font-size="14.00">Pyrite Mine</text>
<text text-anchor="start" x="12" y="-293.8" font-family="sans-serif" font-size="14.00">[Engineering Supplies]</text>
</a>
</g>
</g>
<!-- I_pyrite_mine&#45;&gt;C_pyrite_ore -->
<g id="edge31" class="edge">
<title>I_pyrite_mine&#45;&gt;C_pyrite_ore</title>
<g id="a_edge31"><a xlink:title="Pyrite Mine &#45;&gt; Pyrite Ore">
<path fill="none" stroke="black" d="M160.41,-308C167.63,-308 174.87,-308 181.88,-308"/>
<polygon fill="black" stroke="black" points="181.96,-311.5 191.96,-308 181.96,-304.5 181.96,-311.5"/>
</a>
</g>
</g>
</g>
</svg>
