<?xml version="1.0" encoding="UTF-8" standalone="no"?>
<?xml-stylesheet href="static/css/cargoflow_styles.css" type="text/css"?>
<!DOCTYPE svg PUBLIC "-//W3C//DTD SVG 1.1//EN"
 "http://www.w3.org/Graphics/SVG/1.1/DTD/svg11.dtd">
<!-- Generated by graphviz version 10.0.1 (20240210.2158)
 -->
<!-- Title: temperate_basic Pages: 1 -->
<svg width="2305pt" height="2086pt"
 viewBox="0.00 0.00 2304.50 2086.25" xmlns="http://www.w3.org/2000/svg" xmlns:xlink="http://www.w3.org/1999/xlink">
<g id="page0,1_graph0" class="graph" transform="scale(1 1) rotate(0) translate(4 2082.25)">
<title>temperate_basic</title>
<g id="a_page0,1_graph0"><a xlink:title="Temperate Basic">
<polygon fill="white" stroke="none" points="-4,4 -4,-2082.25 2300.5,-2082.25 2300.5,4 -4,4"/>
</a>
</g>
<!-- I_port -->
<g id="port" class="node">
<title>I_port</title>
<g id="a_port"><a xlink:href="industries.html#port" xlink:title="Port" target="_top">
<polygon fill="white" stroke="none" points="1986.5,-1340 1986.5,-1603.25 2288.5,-1603.25 2288.5,-1340 1986.5,-1340"/>
<polygon fill="none" stroke="#c1cdcd" points="1986.5,-1436.25 1986.5,-1603.25 2288.5,-1603.25 2288.5,-1436.25 1986.5,-1436.25"/>
<image xlink:href="static/img/industries/port.png" width="300px" height="165px" preserveAspectRatio="xMinYMin meet" x="1987.5" y="-1602.25"/>
<polygon fill="none" stroke="#c1cdcd" points="1986.5,-1340 1986.5,-1436.25 2288.5,-1436.25 2288.5,-1340 1986.5,-1340"/>
<polygon fill="ghostwhite" stroke="none" points="1987.5,-1341 1987.5,-1435.25 2287.5,-1435.25 2287.5,-1341 1987.5,-1341"/>
<text text-anchor="start" x="2108.25" y="-1399.85" font-family="sans-serif" font-size="32.00">Port</text>
<text text-anchor="start" x="1997.25" y="-1374" font-family="sans-serif" font-size="20.00">Produces Engineering Supplies</text>
<text text-anchor="start" x="2028" y="-1348" font-family="sans-serif" font-size="20.00">Produces Farm Supplies</text>
</a>
</g>
</g>
<!-- C_chemicals -->
<g id="chemicals" class="node">
<title>C_chemicals</title>
<g id="a_chemicals"><a xlink:href="cargos.html#chemicals" xlink:title="&lt;TABLE&gt;" target="_top">
<polygon fill="#a80000" stroke="#a80000" points="1201.25,-1776.75 1024,-1776.75 1024,-1724.5 1201.25,-1724.5 1201.25,-1776.75"/>
<polygon fill="none" stroke="#a80000" points="1035,-1731.5 1035,-1769.75 1190.25,-1769.75 1190.25,-1731.5 1035,-1731.5"/>
<text text-anchor="start" x="1038" y="-1736.35" font-family="sans-serif" font-size="32.00" fill="white">Chemicals</text>
<polygon fill="none" stroke="#a80000" points="1032,-1728.5 1032,-1772.75 1193.25,-1772.75 1193.25,-1728.5 1032,-1728.5"/>
</a>
</g>
</g>
<!-- I_port&#45;&gt;C_chemicals -->
<g id="edge29" class="edge">
<title>I_port&#45;&gt;C_chemicals</title>
<g id="a_edge29"><a xlink:title="Port &#45;&gt; Chemicals">
<path fill="none" stroke="#a80000" stroke-width="5" d="M1978.63,-1591.47C1958.09,-1603.64 1936.78,-1614.76 1915.5,-1623.62 1670.88,-1725.51 1353.09,-1746.24 1201.52,-1750.07"/>
</a>
</g>
</g>
<!-- C_alcohol -->
<g id="alcohol" class="node">
<title>C_alcohol</title>
<g id="a_alcohol"><a xlink:href="cargos.html#alcohol" xlink:title="&lt;TABLE&gt;" target="_top">
<polygon fill="#5582a8" stroke="#5582a8" points="1915.5,-176 1645.25,-176 1645.25,-43.25 1915.5,-43.25 1915.5,-176"/>
<polygon fill="none" stroke="#5582a8" points="1656.25,-130.75 1656.25,-169 1904.5,-169 1904.5,-130.75 1656.25,-130.75"/>
<text text-anchor="start" x="1728.25" y="-135.6" font-family="sans-serif" font-size="32.00" fill="white">Alcohol</text>
<polygon fill="white" stroke="none" points="1656.25,-90.5 1656.25,-128.75 1904.5,-128.75 1904.5,-90.5 1656.25,-90.5"/>
<polygon fill="none" stroke="#5582a8" points="1656.25,-90.5 1656.25,-128.75 1904.5,-128.75 1904.5,-90.5 1656.25,-90.5"/>
<text text-anchor="start" x="1659.25" y="-95.35" font-family="sans-serif" font-size="32.00">To General Store</text>
<polygon fill="white" stroke="none" points="1656.25,-50.25 1656.25,-88.5 1904.5,-88.5 1904.5,-50.25 1656.25,-50.25"/>
<polygon fill="none" stroke="#5582a8" points="1656.25,-50.25 1656.25,-88.5 1904.5,-88.5 1904.5,-50.25 1656.25,-50.25"/>
<text text-anchor="start" x="1721.5" y="-55.1" font-family="sans-serif" font-size="32.00">To Hotel</text>
<polygon fill="none" stroke="#5582a8" points="1653.25,-47.25 1653.25,-172 1907.5,-172 1907.5,-47.25 1653.25,-47.25"/>
</a>
</g>
</g>
<!-- I_glass_works -->
<g id="glass_works" class="node">
<title>I_glass_works</title>
<g id="a_glass_works"><a xlink:href="industries.html#glass_works" xlink:title="Glass Works" target="_top">
<polygon fill="white" stroke="none" points="1272.25,-1850 1272.25,-2061.25 1574.25,-2061.25 1574.25,-1850 1272.25,-1850"/>
<polygon fill="none" stroke="#c1cdcd" points="1272.25,-1894.25 1272.25,-2061.25 1574.25,-2061.25 1574.25,-1894.25 1272.25,-1894.25"/>
<image xlink:href="static/img/industries/glass_works.png" width="300px" height="165px" preserveAspectRatio="xMinYMin meet" x="1273.25" y="-2060.25"/>
<polygon fill="none" stroke="#c1cdcd" points="1272.25,-1850 1272.25,-1894.25 1574.25,-1894.25 1574.25,-1850 1272.25,-1850"/>
<polygon fill="ghostwhite" stroke="none" points="1273.25,-1851 1273.25,-1893.25 1573.25,-1893.25 1573.25,-1851 1273.25,-1851"/>
<text text-anchor="start" x="1333.62" y="-1857.85" font-family="sans-serif" font-size="32.00">Glass Works</text>
</a>
</g>
</g>
<!-- C_chemicals&#45;&gt;I_glass_works -->
<g id="edge1" class="edge">
<title>C_chemicals&#45;&gt;I_glass_works</title>
<g id="a_edge1"><a xlink:title="Chemicals &#45;&gt; Glass Works">
<path fill="none" stroke="#a80000" stroke-width="5" d="M1153.66,-1777.22C1177.38,-1792.98 1209.31,-1814.18 1242.86,-1836.47"/>
<polygon fill="#a80000" stroke="#a80000" stroke-width="5" points="1237.79,-1843.6 1259.29,-1847.38 1247.47,-1829.03 1237.79,-1843.6"/>
</a>
</g>
</g>
<!-- I_metal_fabricator -->
<g id="metal_fabricator" class="node">
<title>I_metal_fabricator</title>
<g id="a_metal_fabricator"><a xlink:href="industries.html#metal_fabricator" xlink:title="Metal Fabricator" target="_top">
<polygon fill="white" stroke="none" points="1272.25,-1440 1272.25,-1651.25 1574.25,-1651.25 1574.25,-1440 1272.25,-1440"/>
<polygon fill="none" stroke="#c1cdcd" points="1272.25,-1484.25 1272.25,-1651.25 1574.25,-1651.25 1574.25,-1484.25 1272.25,-1484.25"/>
<image xlink:href="static/img/industries/metal_fabricator.png" width="300px" height="165px" preserveAspectRatio="xMinYMin meet" x="1273.25" y="-1650.25"/>
<polygon fill="none" stroke="#c1cdcd" points="1272.25,-1440 1272.25,-1484.25 1574.25,-1484.25 1574.25,-1440 1272.25,-1440"/>
<polygon fill="ghostwhite" stroke="none" points="1273.25,-1441 1273.25,-1483.25 1573.25,-1483.25 1573.25,-1441 1273.25,-1441"/>
<text text-anchor="start" x="1307.38" y="-1447.85" font-family="sans-serif" font-size="32.00">Metal Fabricator</text>
</a>
</g>
</g>
<!-- C_chemicals&#45;&gt;I_metal_fabricator -->
<g id="edge2" class="edge">
<title>C_chemicals&#45;&gt;I_metal_fabricator</title>
<g id="a_edge2"><a xlink:title="Chemicals &#45;&gt; Metal Fabricator">
<path fill="none" stroke="#a80000" stroke-width="5" d="M1153.66,-1724.03C1177.38,-1708.27 1209.31,-1687.07 1242.86,-1664.78"/>
<polygon fill="#a80000" stroke="#a80000" stroke-width="5" points="1247.47,-1672.22 1259.29,-1653.87 1237.79,-1657.65 1247.47,-1672.22"/>
</a>
</g>
</g>
<!-- C_goods -->
<g id="goods" class="node">
<title>C_goods</title>
<g id="a_goods"><a xlink:href="cargos.html#goods" xlink:title="&lt;TABLE&gt;" target="_top">
<polygon fill="#a89a28" stroke="#a89a28" points="1915.5,-1591.88 1645.25,-1591.88 1645.25,-1499.38 1915.5,-1499.38 1915.5,-1591.88"/>
<polygon fill="none" stroke="#a89a28" points="1656.25,-1546.62 1656.25,-1584.88 1904.5,-1584.88 1904.5,-1546.62 1656.25,-1546.62"/>
<text text-anchor="start" x="1733.12" y="-1551.47" font-family="sans-serif" font-size="32.00" fill="white">Goods</text>
<polygon fill="white" stroke="none" points="1656.25,-1506.38 1656.25,-1544.62 1904.5,-1544.62 1904.5,-1506.38 1656.25,-1506.38"/>
<polygon fill="none" stroke="#a89a28" points="1656.25,-1506.38 1656.25,-1544.62 1904.5,-1544.62 1904.5,-1506.38 1656.25,-1506.38"/>
<text text-anchor="start" x="1659.25" y="-1511.22" font-family="sans-serif" font-size="32.00">To General Store</text>
<polygon fill="none" stroke="#a89a28" points="1653.25,-1503.38 1653.25,-1587.88 1907.5,-1587.88 1907.5,-1503.38 1653.25,-1503.38"/>
</a>
</g>
</g>
<!-- I_glass_works&#45;&gt;C_goods -->
<g id="edge24" class="edge">
<title>I_glass_works&#45;&gt;C_goods</title>
<g id="a_edge24"><a xlink:title="Glass Works &#45;&gt; Goods">
<path fill="none" stroke="#a89a28" stroke-width="5" d="M1519.18,-1846.02C1590.99,-1763.12 1686.01,-1653.42 1739.08,-1592.14"/>
</a>
</g>
</g>
<!-- I_metal_fabricator&#45;&gt;C_goods -->
<g id="edge26" class="edge">
<title>I_metal_fabricator&#45;&gt;C_goods</title>
<g id="a_edge26"><a xlink:title="Metal Fabricator &#45;&gt; Goods">
<path fill="none" stroke="#a89a28" stroke-width="5" d="M1582.08,-1545.62C1603.01,-1545.62 1624.32,-1545.62 1644.81,-1545.62"/>
</a>
</g>
</g>
<!-- C_kaolin -->
<g id="kaolin" class="node">
<title>C_kaolin</title>
<g id="a_kaolin"><a xlink:href="cargos.html#kaolin" xlink:title="&lt;TABLE&gt;" target="_top">
<polygon fill="#74581c" stroke="#74581c" points="1872.75,-1350.75 1688,-1350.75 1688,-1298.5 1872.75,-1298.5 1872.75,-1350.75"/>
<polygon fill="none" stroke="#74581c" points="1699,-1305.5 1699,-1343.75 1861.75,-1343.75 1861.75,-1305.5 1699,-1305.5"/>
<text text-anchor="start" x="1702" y="-1310.35" font-family="sans-serif" font-size="32.00" fill="white">China Clay</text>
<polygon fill="none" stroke="#74581c" points="1696,-1302.5 1696,-1346.75 1864.75,-1346.75 1864.75,-1302.5 1696,-1302.5"/>
</a>
</g>
</g>
<!-- C_kaolin&#45;&gt;I_port -->
<g id="edge3" class="edge">
<title>C_kaolin&#45;&gt;I_port</title>
<g id="a_edge3"><a xlink:title="China Clay &#45;&gt; Port">
<path fill="none" stroke="#74581c" stroke-width="5" d="M1845.69,-1351.25C1876.63,-1364.05 1915.45,-1380.12 1954.55,-1396.31"/>
<polygon fill="#74581c" stroke="#74581c" stroke-width="5" points="1950.94,-1404.29 1972.77,-1403.85 1957.64,-1388.12 1950.94,-1404.29"/>
</a>
</g>
</g>
<!-- C_coal -->
<g id="coal" class="node">
<title>C_coal</title>
<g id="a_coal"><a xlink:href="cargos.html#coal" xlink:title="&lt;TABLE&gt;" target="_top">
<polygon fill="#a8a8a8" stroke="#a8a8a8" points="527.5,-1782.75 433.5,-1782.75 433.5,-1730.5 527.5,-1730.5 527.5,-1782.75"/>
<polygon fill="none" stroke="#a8a8a8" points="444.5,-1737.5 444.5,-1775.75 516.5,-1775.75 516.5,-1737.5 444.5,-1737.5"/>
<text text-anchor="start" x="447.5" y="-1742.35" font-family="sans-serif" font-size="32.00" fill="white">Coal</text>
<polygon fill="none" stroke="#a8a8a8" points="441.5,-1734.5 441.5,-1778.75 519.5,-1778.75 519.5,-1734.5 441.5,-1734.5"/>
</a>
</g>
</g>
<!-- I_integrated_steel_mill -->
<g id="integrated_steel_mill" class="node">
<title>I_integrated_steel_mill</title>
<g id="a_integrated_steel_mill"><a xlink:href="industries.html#integrated_steel_mill" xlink:title="Steel Mill" target="_top">
<polygon fill="white" stroke="none" points="651,-1440 651,-1651.25 953,-1651.25 953,-1440 651,-1440"/>
<polygon fill="none" stroke="#c1cdcd" points="651,-1484.25 651,-1651.25 953,-1651.25 953,-1484.25 651,-1484.25"/>
<image xlink:href="static/img/industries/integrated_steel_mill.png" width="300px" height="165px" preserveAspectRatio="xMinYMin meet" x="652" y="-1650.25"/>
<polygon fill="none" stroke="#c1cdcd" points="651,-1440 651,-1484.25 953,-1484.25 953,-1440 651,-1440"/>
<polygon fill="ghostwhite" stroke="none" points="652,-1441 652,-1483.25 952,-1483.25 952,-1441 652,-1441"/>
<text text-anchor="start" x="737.5" y="-1447.85" font-family="sans-serif" font-size="32.00">Steel Mill</text>
</a>
</g>
</g>
<!-- C_coal&#45;&gt;I_integrated_steel_mill -->
<g id="edge4" class="edge">
<title>C_coal&#45;&gt;I_integrated_steel_mill</title>
<g id="a_edge4"><a xlink:title="Coal &#45;&gt; Steel Mill">
<path fill="none" stroke="#a8a8a8" stroke-width="5" d="M521.64,-1730.12C547.69,-1712.91 583.67,-1689.15 621.15,-1664.4"/>
<polygon fill="#a8a8a8" stroke="#a8a8a8" stroke-width="5" points="625.94,-1671.72 637.8,-1653.4 616.29,-1657.12 625.94,-1671.72"/>
</a>
</g>
</g>
<!-- C_steel -->
<g id="steel" class="node">
<title>C_steel</title>
<g id="a_steel"><a xlink:href="cargos.html#steel" xlink:title="&lt;TABLE&gt;" target="_top">
<polygon fill="#7d70a8" stroke="#7d70a8" points="1163,-1571.75 1062.25,-1571.75 1062.25,-1519.5 1163,-1519.5 1163,-1571.75"/>
<polygon fill="none" stroke="#7d70a8" points="1073.25,-1526.5 1073.25,-1564.75 1152,-1564.75 1152,-1526.5 1073.25,-1526.5"/>
<text text-anchor="start" x="1076.25" y="-1531.35" font-family="sans-serif" font-size="32.00" fill="white">Steel</text>
<polygon fill="none" stroke="#7d70a8" points="1070.25,-1523.5 1070.25,-1567.75 1155,-1567.75 1155,-1523.5 1070.25,-1523.5"/>
</a>
</g>
</g>
<!-- I_integrated_steel_mill&#45;&gt;C_steel -->
<g id="edge31" class="edge">
<title>I_integrated_steel_mill&#45;&gt;C_steel</title>
<g id="a_edge31"><a xlink:title="Steel Mill &#45;&gt; Steel">
<path fill="none" stroke="#7d70a8" stroke-width="5" d="M960.93,-1545.62C997.71,-1545.62 1034.21,-1545.62 1062.08,-1545.62"/>
</a>
</g>
</g>
<!-- C_fish -->
<g id="fish" class="node">
<title>C_fish</title>
<g id="a_fish"><a xlink:href="cargos.html#fish" xlink:title="&lt;TABLE&gt;" target="_top">
<polygon fill="#a84b60" stroke="#a84b60" points="1156.62,-981.75 1068.62,-981.75 1068.62,-929.5 1156.62,-929.5 1156.62,-981.75"/>
<polygon fill="none" stroke="#a84b60" points="1079.62,-936.5 1079.62,-974.75 1145.62,-974.75 1145.62,-936.5 1079.62,-936.5"/>
<text text-anchor="start" x="1082.62" y="-941.35" font-family="sans-serif" font-size="32.00" fill="white">Fish</text>
<polygon fill="none" stroke="#a84b60" points="1076.62,-933.5 1076.62,-977.75 1148.62,-977.75 1148.62,-933.5 1076.62,-933.5"/>
</a>
</g>
</g>
<!-- I_fishing_harbour -->
<g id="fishing_harbour" class="node">
<title>I_fishing_harbour</title>
<g id="a_fishing_harbour"><a xlink:href="industries.html#fishing_harbour" xlink:title="Fishing Harbour" target="_top">
<polygon fill="white" stroke="none" points="1272.25,-850 1272.25,-1061.25 1574.25,-1061.25 1574.25,-850 1272.25,-850"/>
<polygon fill="none" stroke="#c1cdcd" points="1272.25,-894.25 1272.25,-1061.25 1574.25,-1061.25 1574.25,-894.25 1272.25,-894.25"/>
<image xlink:href="static/img/industries/fishing_harbour.png" width="300px" height="165px" preserveAspectRatio="xMinYMin meet" x="1273.25" y="-1060.25"/>
<polygon fill="none" stroke="#c1cdcd" points="1272.25,-850 1272.25,-894.25 1574.25,-894.25 1574.25,-850 1272.25,-850"/>
<polygon fill="ghostwhite" stroke="none" points="1273.25,-851 1273.25,-893.25 1573.25,-893.25 1573.25,-851 1273.25,-851"/>
<text text-anchor="start" x="1309.25" y="-857.85" font-family="sans-serif" font-size="32.00">Fishing Harbour</text>
</a>
</g>
</g>
<!-- C_fish&#45;&gt;I_fishing_harbour -->
<g id="edge5" class="edge">
<title>C_fish&#45;&gt;I_fishing_harbour</title>
<g id="a_edge5"><a xlink:title="Fish &#45;&gt; Fishing Harbour">
<path fill="none" stroke="#a84b60" stroke-width="5" d="M1156.86,-955.62C1179.16,-955.62 1208.03,-955.62 1238.49,-955.62"/>
<polygon fill="#a84b60" stroke="#a84b60" stroke-width="5" points="1238.1,-964.38 1258.1,-955.63 1238.1,-946.88 1238.1,-964.38"/>
</a>
</g>
</g>
<!-- C_food -->
<g id="food" class="node">
<title>C_food</title>
<g id="a_food"><a xlink:href="cargos.html#food" xlink:title="&lt;TABLE&gt;" target="_top">
<polygon fill="#a88000" stroke="#a88000" points="1915.5,-881 1645.25,-881 1645.25,-748.25 1915.5,-748.25 1915.5,-881"/>
<polygon fill="none" stroke="#a88000" points="1656.25,-835.75 1656.25,-874 1904.5,-874 1904.5,-835.75 1656.25,-835.75"/>
<text text-anchor="start" x="1743.62" y="-840.6" font-family="sans-serif" font-size="32.00" fill="white">Food</text>
<polygon fill="white" stroke="none" points="1656.25,-795.5 1656.25,-833.75 1904.5,-833.75 1904.5,-795.5 1656.25,-795.5"/>
<polygon fill="none" stroke="#a88000" points="1656.25,-795.5 1656.25,-833.75 1904.5,-833.75 1904.5,-795.5 1656.25,-795.5"/>
<text text-anchor="start" x="1659.25" y="-800.35" font-family="sans-serif" font-size="32.00">To General Store</text>
<polygon fill="white" stroke="none" points="1656.25,-755.25 1656.25,-793.5 1904.5,-793.5 1904.5,-755.25 1656.25,-755.25"/>
<polygon fill="none" stroke="#a88000" points="1656.25,-755.25 1656.25,-793.5 1904.5,-793.5 1904.5,-755.25 1656.25,-755.25"/>
<text text-anchor="start" x="1721.5" y="-760.1" font-family="sans-serif" font-size="32.00">To Hotel</text>
<polygon fill="none" stroke="#a88000" points="1653.25,-752.25 1653.25,-877 1907.5,-877 1907.5,-752.25 1653.25,-752.25"/>
</a>
</g>
</g>
<!-- I_fishing_harbour&#45;&gt;C_food -->
<g id="edge23" class="edge">
<title>I_fishing_harbour&#45;&gt;C_food</title>
<g id="a_edge23"><a xlink:title="Fishing Harbour &#45;&gt; Food">
<path fill="none" stroke="#a88000" stroke-width="5" d="M1582.08,-892.96C1603.01,-884.65 1624.32,-876.19 1644.81,-868.05"/>
</a>
</g>
</g>
<!-- C_food&#45;&gt;I_port -->
<g id="edge6" class="edge">
<title>C_food&#45;&gt;I_port</title>
<g id="a_edge6"><a xlink:title="Food &#45;&gt; Port">
<path fill="none" stroke="#a88000" stroke-width="5" d="M1817.38,-881.24C1871.74,-981.8 1976.31,-1175.27 2050.94,-1313.33"/>
<polygon fill="#a88000" stroke="#a88000" stroke-width="5" points="2043.17,-1317.36 2060.37,-1330.79 2058.56,-1309.03 2043.17,-1317.36"/>
</a>
</g>
</g>
<!-- C_fruits -->
<g id="fruits" class="node">
<title>C_fruits</title>
<g id="a_fruits"><a xlink:href="cargos.html#fruits" xlink:title="&lt;TABLE&gt;" target="_top">
<polygon fill="#347084" stroke="#347084" points="1158.5,-219.75 1066.75,-219.75 1066.75,-167.5 1158.5,-167.5 1158.5,-219.75"/>
<polygon fill="none" stroke="#347084" points="1077.75,-174.5 1077.75,-212.75 1147.5,-212.75 1147.5,-174.5 1077.75,-174.5"/>
<text text-anchor="start" x="1080.75" y="-179.35" font-family="sans-serif" font-size="32.00" fill="white">Fruit</text>
<polygon fill="none" stroke="#347084" points="1074.75,-171.5 1074.75,-215.75 1150.5,-215.75 1150.5,-171.5 1074.75,-171.5"/>
</a>
</g>
</g>
<!-- I_cider_mill -->
<g id="cider_mill" class="node">
<title>I_cider_mill</title>
<g id="a_cider_mill"><a xlink:href="industries.html#cider_mill" xlink:title="Cider Mill" target="_top">
<polygon fill="white" stroke="none" points="1272.25,-4 1272.25,-215.25 1574.25,-215.25 1574.25,-4 1272.25,-4"/>
<polygon fill="none" stroke="#c1cdcd" points="1272.25,-48.25 1272.25,-215.25 1574.25,-215.25 1574.25,-48.25 1272.25,-48.25"/>
<image xlink:href="static/img/industries/cider_mill.png" width="300px" height="165px" preserveAspectRatio="xMinYMin meet" x="1273.25" y="-214.25"/>
<polygon fill="none" stroke="#c1cdcd" points="1272.25,-4 1272.25,-48.25 1574.25,-48.25 1574.25,-4 1272.25,-4"/>
<polygon fill="ghostwhite" stroke="none" points="1273.25,-5 1273.25,-47.25 1573.25,-47.25 1573.25,-5 1273.25,-5"/>
<text text-anchor="start" x="1356.88" y="-11.85" font-family="sans-serif" font-size="32.00">Cider Mill</text>
</a>
</g>
</g>
<!-- C_fruits&#45;&gt;I_cider_mill -->
<g id="edge7" class="edge">
<title>C_fruits&#45;&gt;I_cider_mill</title>
<g id="a_edge7"><a xlink:title="Fruit &#45;&gt; Cider Mill">
<path fill="none" stroke="#347084" stroke-width="5" d="M1158.83,-181.32C1181,-175.29 1209.33,-167.58 1239.14,-159.46"/>
<polygon fill="#347084" stroke="#347084" stroke-width="5" points="1241.41,-167.91 1258.41,-154.22 1236.81,-151.03 1241.41,-167.91"/>
</a>
</g>
</g>
<!-- I_cider_mill&#45;&gt;C_alcohol -->
<g id="edge15" class="edge">
<title>I_cider_mill&#45;&gt;C_alcohol</title>
<g id="a_edge15"><a xlink:title="Cider Mill &#45;&gt; Alcohol">
<path fill="none" stroke="#5582a8" stroke-width="5" d="M1582.08,-109.62C1603.01,-109.62 1624.32,-109.62 1644.81,-109.62"/>
</a>
</g>
</g>
<!-- C_goods&#45;&gt;I_port -->
<g id="edge8" class="edge">
<title>C_goods&#45;&gt;I_port</title>
<g id="a_edge8"><a xlink:title="Goods &#45;&gt; Port">
<path fill="none" stroke="#a89a28" stroke-width="5" d="M1915.89,-1517.6C1928.07,-1515.06 1940.53,-1512.46 1953.04,-1509.85"/>
<polygon fill="#a89a28" stroke="#a89a28" stroke-width="5" points="1954.79,-1518.43 1972.58,-1505.78 1951.22,-1501.3 1954.79,-1518.43"/>
</a>
</g>
</g>
<!-- C_iron_ore -->
<g id="iron_ore" class="node">
<title>C_iron_ore</title>
<g id="a_iron_ore"><a xlink:href="cargos.html#iron_ore" xlink:title="&lt;TABLE&gt;" target="_top">
<polygon fill="#5d45a8" stroke="#5d45a8" points="553.38,-1571.75 407.62,-1571.75 407.62,-1519.5 553.38,-1519.5 553.38,-1571.75"/>
<polygon fill="none" stroke="#5d45a8" points="418.62,-1526.5 418.62,-1564.75 542.38,-1564.75 542.38,-1526.5 418.62,-1526.5"/>
<text text-anchor="start" x="421.62" y="-1531.35" font-family="sans-serif" font-size="32.00" fill="white">Iron Ore</text>
<polygon fill="none" stroke="#5d45a8" points="415.62,-1523.5 415.62,-1567.75 545.38,-1567.75 545.38,-1523.5 415.62,-1523.5"/>
</a>
</g>
</g>
<!-- C_iron_ore&#45;&gt;I_integrated_steel_mill -->
<g id="edge9" class="edge">
<title>C_iron_ore&#45;&gt;I_integrated_steel_mill</title>
<g id="a_edge9"><a xlink:title="Iron Ore &#45;&gt; Steel Mill">
<path fill="none" stroke="#5d45a8" stroke-width="5" d="M553.6,-1545.62C572.89,-1545.62 594.64,-1545.62 617.04,-1545.62"/>
<polygon fill="#5d45a8" stroke="#5d45a8" stroke-width="5" points="616.79,-1554.38 636.79,-1545.63 616.79,-1536.88 616.79,-1554.38"/>
</a>
</g>
</g>
<!-- C_livestock -->
<g id="livestock" class="node">
<title>C_livestock</title>
<g id="a_livestock"><a xlink:href="cargos.html#livestock" xlink:title="&lt;TABLE&gt;" target="_top">
<polygon fill="#a84800" stroke="#a84800" points="1193,-417.75 1032.25,-417.75 1032.25,-365.5 1193,-365.5 1193,-417.75"/>
<polygon fill="none" stroke="#a84800" points="1043.25,-372.5 1043.25,-410.75 1182,-410.75 1182,-372.5 1043.25,-372.5"/>
<text text-anchor="start" x="1046.25" y="-377.35" font-family="sans-serif" font-size="32.00" fill="white">Livestock</text>
<polygon fill="none" stroke="#a84800" points="1040.25,-369.5 1040.25,-413.75 1185,-413.75 1185,-369.5 1040.25,-369.5"/>
</a>
</g>
</g>
<!-- I_stockyard -->
<g id="stockyard" class="node">
<title>I_stockyard</title>
<g id="a_stockyard"><a xlink:href="industries.html#stockyard" xlink:title="Stockyard" target="_top">
<polygon fill="white" stroke="none" points="1272.25,-286 1272.25,-497.25 1574.25,-497.25 1574.25,-286 1272.25,-286"/>
<polygon fill="none" stroke="#c1cdcd" points="1272.25,-330.25 1272.25,-497.25 1574.25,-497.25 1574.25,-330.25 1272.25,-330.25"/>
<image xlink:href="static/img/industries/stockyard.png" width="300px" height="165px" preserveAspectRatio="xMinYMin meet" x="1273.25" y="-496.25"/>
<polygon fill="none" stroke="#c1cdcd" points="1272.25,-286 1272.25,-330.25 1574.25,-330.25 1574.25,-286 1272.25,-286"/>
<polygon fill="ghostwhite" stroke="none" points="1273.25,-287 1273.25,-329.25 1573.25,-329.25 1573.25,-287 1273.25,-287"/>
<text text-anchor="start" x="1352.38" y="-293.85" font-family="sans-serif" font-size="32.00">Stockyard</text>
</a>
</g>
</g>
<!-- C_livestock&#45;&gt;I_stockyard -->
<g id="edge10" class="edge">
<title>C_livestock&#45;&gt;I_stockyard</title>
<g id="a_edge10"><a xlink:title="Livestock &#45;&gt; Stockyard">
<path fill="none" stroke="#a84800" stroke-width="5" d="M1193.1,-391.62C1207.35,-391.62 1222.72,-391.62 1238.51,-391.62"/>
<polygon fill="#a84800" stroke="#a84800" stroke-width="5" points="1238.23,-400.38 1258.23,-391.63 1238.23,-382.88 1238.23,-400.38"/>
</a>
</g>
</g>
<!-- I_stockyard&#45;&gt;C_food -->
<g id="edge32" class="edge">
<title>I_stockyard&#45;&gt;C_food</title>
<g id="a_edge32"><a xlink:title="Stockyard &#45;&gt; Food">
<path fill="none" stroke="#a88000" stroke-width="5" d="M1552.25,-501.1C1562.71,-511.45 1572.85,-522.04 1582.25,-532.62 1643.03,-601.08 1701.68,-688.63 1738.97,-747.89"/>
</a>
</g>
</g>
<!-- C_milk -->
<g id="milk" class="node">
<title>C_milk</title>
<g id="a_milk"><a xlink:href="cargos.html#milk" xlink:title="&lt;TABLE&gt;" target="_top">
<polygon fill="#004ca8" stroke="#004ca8" points="1154.75,-693.75 1070.5,-693.75 1070.5,-641.5 1154.75,-641.5 1154.75,-693.75"/>
<polygon fill="none" stroke="#004ca8" points="1081.5,-648.5 1081.5,-686.75 1143.75,-686.75 1143.75,-648.5 1081.5,-648.5"/>
<text text-anchor="start" x="1084.5" y="-653.35" font-family="sans-serif" font-size="32.00" fill="white">Milk</text>
<polygon fill="none" stroke="#004ca8" points="1078.5,-645.5 1078.5,-689.75 1146.75,-689.75 1146.75,-645.5 1078.5,-645.5"/>
</a>
</g>
</g>
<!-- I_dairy -->
<g id="dairy" class="node">
<title>I_dairy</title>
<g id="a_dairy"><a xlink:href="industries.html#dairy" xlink:title="Dairy" target="_top">
<polygon fill="white" stroke="none" points="1272.25,-568 1272.25,-779.25 1574.25,-779.25 1574.25,-568 1272.25,-568"/>
<polygon fill="none" stroke="#c1cdcd" points="1272.25,-612.25 1272.25,-779.25 1574.25,-779.25 1574.25,-612.25 1272.25,-612.25"/>
<image xlink:href="static/img/industries/dairy.png" width="300px" height="165px" preserveAspectRatio="xMinYMin meet" x="1273.25" y="-778.25"/>
<polygon fill="none" stroke="#c1cdcd" points="1272.25,-568 1272.25,-612.25 1574.25,-612.25 1574.25,-568 1272.25,-568"/>
<polygon fill="ghostwhite" stroke="none" points="1273.25,-569 1273.25,-611.25 1573.25,-611.25 1573.25,-569 1273.25,-569"/>
<text text-anchor="start" x="1386.12" y="-575.85" font-family="sans-serif" font-size="32.00">Dairy</text>
</a>
</g>
</g>
<!-- C_milk&#45;&gt;I_dairy -->
<g id="edge11" class="edge">
<title>C_milk&#45;&gt;I_dairy</title>
<g id="a_edge11"><a xlink:title="Milk &#45;&gt; Dairy">
<path fill="none" stroke="#004ca8" stroke-width="5" d="M1155.25,-668.43C1177.79,-668.87 1207.39,-669.45 1238.65,-670.06"/>
<polygon fill="#004ca8" stroke="#004ca8" stroke-width="5" points="1238.17,-678.8 1258.34,-670.44 1238.51,-661.3 1238.17,-678.8"/>
</a>
</g>
</g>
<!-- I_dairy&#45;&gt;C_food -->
<g id="edge18" class="edge">
<title>I_dairy&#45;&gt;C_food</title>
<g id="a_edge18"><a xlink:title="Dairy &#45;&gt; Food">
<path fill="none" stroke="#a88000" stroke-width="5" d="M1582.08,-736.29C1603.01,-744.6 1624.32,-753.06 1644.81,-761.2"/>
</a>
</g>
</g>
<!-- C_sand -->
<g id="sand" class="node">
<title>C_sand</title>
<g id="a_sand"><a xlink:href="cargos.html#sand" xlink:title="&lt;TABLE&gt;" target="_top">
<polygon fill="#468fa8" stroke="#468fa8" points="1164.12,-1981.75 1061.12,-1981.75 1061.12,-1929.5 1164.12,-1929.5 1164.12,-1981.75"/>
<polygon fill="none" stroke="#468fa8" points="1072.12,-1936.5 1072.12,-1974.75 1153.12,-1974.75 1153.12,-1936.5 1072.12,-1936.5"/>
<text text-anchor="start" x="1075.12" y="-1941.35" font-family="sans-serif" font-size="32.00" fill="white">Sand</text>
<polygon fill="none" stroke="#468fa8" points="1069.12,-1933.5 1069.12,-1977.75 1156.12,-1977.75 1156.12,-1933.5 1069.12,-1933.5"/>
</a>
</g>
</g>
<!-- C_sand&#45;&gt;I_glass_works -->
<g id="edge12" class="edge">
<title>C_sand&#45;&gt;I_glass_works</title>
<g id="a_edge12"><a xlink:title="Sand &#45;&gt; Glass Works">
<path fill="none" stroke="#468fa8" stroke-width="5" d="M1164.59,-1955.62C1185.61,-1955.62 1211.36,-1955.62 1238.37,-1955.62"/>
<polygon fill="#468fa8" stroke="#468fa8" stroke-width="5" points="1238.3,-1964.38 1258.3,-1955.63 1238.3,-1946.88 1238.3,-1964.38"/>
</a>
</g>
</g>
<!-- C_scrap_metal -->
<g id="scrap_metal" class="node">
<title>C_scrap_metal</title>
<g id="a_scrap_metal"><a xlink:href="cargos.html#scrap_metal" xlink:title="&lt;TABLE&gt;" target="_top">
<polygon fill="#a85050" stroke="#a85050" points="580,-1366.75 381,-1366.75 381,-1314.5 580,-1314.5 580,-1366.75"/>
<polygon fill="none" stroke="#a85050" points="392,-1321.5 392,-1359.75 569,-1359.75 569,-1321.5 392,-1321.5"/>
<text text-anchor="start" x="395" y="-1326.35" font-family="sans-serif" font-size="32.00" fill="white">Scrap Metal</text>
<polygon fill="none" stroke="#a85050" points="389,-1318.5 389,-1362.75 572,-1362.75 572,-1318.5 389,-1318.5"/>
</a>
</g>
</g>
<!-- C_scrap_metal&#45;&gt;I_integrated_steel_mill -->
<g id="edge13" class="edge">
<title>C_scrap_metal&#45;&gt;I_integrated_steel_mill</title>
<g id="a_edge13"><a xlink:title="Scrap Metal &#45;&gt; Steel Mill">
<path fill="none" stroke="#a85050" stroke-width="5" d="M522.94,-1367.22C548.91,-1383.88 584.37,-1406.63 621.28,-1430.31"/>
<polygon fill="#a85050" stroke="#a85050" stroke-width="5" points="616.31,-1437.52 637.87,-1440.95 625.76,-1422.79 616.31,-1437.52"/>
</a>
</g>
</g>
<!-- C_steel&#45;&gt;I_metal_fabricator -->
<g id="edge14" class="edge">
<title>C_steel&#45;&gt;I_metal_fabricator</title>
<g id="a_edge14"><a xlink:title="Steel &#45;&gt; Metal Fabricator">
<path fill="none" stroke="#7d70a8" stroke-width="5" d="M1163.21,-1545.62C1184.43,-1545.62 1210.66,-1545.62 1238.19,-1545.62"/>
<polygon fill="#7d70a8" stroke="#7d70a8" stroke-width="5" points="1238.07,-1554.38 1258.07,-1545.63 1238.07,-1536.88 1238.07,-1554.38"/>
</a>
</g>
</g>
<!-- I_clay_pit -->
<g id="clay_pit" class="node">
<title>I_clay_pit</title>
<g id="a_clay_pit"><a xlink:href="industries.html#clay_pit" xlink:title="Clay Pit" target="_top">
<polygon fill="white" stroke="none" points="1272.25,-1132 1272.25,-1369.25 1574.25,-1369.25 1574.25,-1132 1272.25,-1132"/>
<polygon fill="none" stroke="#c1cdcd" points="1272.25,-1202.25 1272.25,-1369.25 1574.25,-1369.25 1574.25,-1202.25 1272.25,-1202.25"/>
<image xlink:href="static/img/industries/clay_pit.png" width="300px" height="165px" preserveAspectRatio="xMinYMin meet" x="1273.25" y="-1368.25"/>
<polygon fill="none" stroke="#c1cdcd" points="1272.25,-1132 1272.25,-1202.25 1574.25,-1202.25 1574.25,-1132 1272.25,-1132"/>
<polygon fill="ghostwhite" stroke="none" points="1273.25,-1133 1273.25,-1201.25 1573.25,-1201.25 1573.25,-1133 1273.25,-1133"/>
<text text-anchor="start" x="1368.5" y="-1165.85" font-family="sans-serif" font-size="32.00">Clay Pit</text>
<text text-anchor="start" x="1285.25" y="-1140" font-family="sans-serif" font-size="20.00">Requires Engineering Supplies</text>
</a>
</g>
</g>
<!-- I_clay_pit&#45;&gt;C_kaolin -->
<g id="edge16" class="edge">
<title>I_clay_pit&#45;&gt;C_kaolin</title>
<g id="a_edge16"><a xlink:title="Clay Pit &#45;&gt; China Clay">
<path fill="none" stroke="#74581c" stroke-width="5" d="M1582.08,-1283.51C1618.2,-1291.04 1655.43,-1298.8 1687.68,-1305.52"/>
</a>
</g>
</g>
<!-- I_coal_mine -->
<g id="coal_mine" class="node">
<title>I_coal_mine</title>
<g id="a_coal_mine"><a xlink:href="industries.html#coal_mine" xlink:title="Coal Mine" target="_top">
<polygon fill="white" stroke="none" points="8,-1735 8,-1972.25 310,-1972.25 310,-1735 8,-1735"/>
<polygon fill="none" stroke="#c1cdcd" points="8,-1805.25 8,-1972.25 310,-1972.25 310,-1805.25 8,-1805.25"/>
<image xlink:href="static/img/industries/coal_mine.png" width="300px" height="165px" preserveAspectRatio="xMinYMin meet" x="9" y="-1971.25"/>
<polygon fill="none" stroke="#c1cdcd" points="8,-1735 8,-1805.25 310,-1805.25 310,-1735 8,-1735"/>
<polygon fill="ghostwhite" stroke="none" points="9,-1736 9,-1804.25 309,-1804.25 309,-1736 9,-1736"/>
<text text-anchor="start" x="86.62" y="-1768.85" font-family="sans-serif" font-size="32.00">Coal Mine</text>
<text text-anchor="start" x="21" y="-1743" font-family="sans-serif" font-size="20.00">Requires Engineering Supplies</text>
</a>
</g>
</g>
<!-- I_coal_mine&#45;&gt;C_coal -->
<g id="edge17" class="edge">
<title>I_coal_mine&#45;&gt;C_coal</title>
<g id="a_edge17"><a xlink:title="Coal Mine &#45;&gt; Coal">
<path fill="none" stroke="#a8a8a8" stroke-width="5" d="M317.88,-1805.69C360.01,-1792.9 402.32,-1780.06 433.07,-1770.72"/>
</a>
</g>
</g>
<!-- I_dairy_farm -->
<g id="dairy_farm" class="node">
<title>I_dairy_farm</title>
<g id="a_dairy_farm"><a xlink:href="industries.html#dairy_farm" xlink:title="Dairy Farm" target="_top">
<polygon fill="white" stroke="none" points="651,-523 651,-760.25 953,-760.25 953,-523 651,-523"/>
<polygon fill="none" stroke="#c1cdcd" points="651,-593.25 651,-760.25 953,-760.25 953,-593.25 651,-593.25"/>
<image xlink:href="static/img/industries/dairy_farm.png" width="300px" height="165px" preserveAspectRatio="xMinYMin meet" x="652" y="-759.25"/>
<polygon fill="none" stroke="#c1cdcd" points="651,-523 651,-593.25 953,-593.25 953,-523 651,-523"/>
<polygon fill="ghostwhite" stroke="none" points="652,-524 652,-592.25 952,-592.25 952,-524 652,-524"/>
<text text-anchor="start" x="722.88" y="-556.85" font-family="sans-serif" font-size="32.00">Dairy Farm</text>
<text text-anchor="start" x="694.75" y="-531" font-family="sans-serif" font-size="20.00">Requires Farm Supplies</text>
</a>
</g>
</g>
<!-- I_dairy_farm&#45;&gt;C_livestock -->
<g id="edge19" class="edge">
<title>I_dairy_farm&#45;&gt;C_livestock</title>
<g id="a_edge19"><a xlink:title="Dairy Farm &#45;&gt; Livestock">
<path fill="none" stroke="#a84800" stroke-width="5" d="M954.15,-519.19C1001.19,-481.08 1048.62,-442.66 1078.95,-418.09"/>
</a>
</g>
</g>
<!-- I_dairy_farm&#45;&gt;C_milk -->
<g id="edge20" class="edge">
<title>I_dairy_farm&#45;&gt;C_milk</title>
<g id="a_edge20"><a xlink:title="Dairy Farm &#45;&gt; Milk">
<path fill="none" stroke="#004ca8" stroke-width="5" d="M960.93,-654.93C1001.42,-658.34 1041.57,-661.72 1070.24,-664.14"/>
</a>
</g>
</g>
<!-- I_dredging_site -->
<g id="dredging_site" class="node">
<title>I_dredging_site</title>
<g id="a_dredging_site"><a xlink:href="industries.html#dredging_site" xlink:title="Dredging Site" target="_top">
<polygon fill="white" stroke="none" points="651,-1837 651,-2074.25 953,-2074.25 953,-1837 651,-1837"/>
<polygon fill="none" stroke="#c1cdcd" points="651,-1907.25 651,-2074.25 953,-2074.25 953,-1907.25 651,-1907.25"/>
<image xlink:href="static/img/industries/dredging_site.png" width="300px" height="165px" preserveAspectRatio="xMinYMin meet" x="652" y="-2073.25"/>
<polygon fill="none" stroke="#c1cdcd" points="651,-1837 651,-1907.25 953,-1907.25 953,-1837 651,-1837"/>
<polygon fill="ghostwhite" stroke="none" points="652,-1838 652,-1906.25 952,-1906.25 952,-1838 652,-1838"/>
<text text-anchor="start" x="704.88" y="-1870.85" font-family="sans-serif" font-size="32.00">Dredging Site</text>
<text text-anchor="start" x="664" y="-1845" font-family="sans-serif" font-size="20.00">Requires Engineering Supplies</text>
</a>
</g>
</g>
<!-- I_dredging_site&#45;&gt;C_sand -->
<g id="edge21" class="edge">
<title>I_dredging_site&#45;&gt;C_sand</title>
<g id="a_edge21"><a xlink:title="Dredging Site &#45;&gt; Sand">
<path fill="none" stroke="#468fa8" stroke-width="5" d="M960.93,-1955.62C997.12,-1955.62 1033.04,-1955.62 1060.73,-1955.62"/>
</a>
</g>
</g>
<!-- I_fishing_grounds -->
<g id="fishing_grounds" class="node">
<title>I_fishing_grounds</title>
<g id="a_fishing_grounds"><a xlink:href="industries.html#fishing_grounds" xlink:title="Fishing Grounds" target="_top">
<polygon fill="white" stroke="none" points="651,-850 651,-1061.25 953,-1061.25 953,-850 651,-850"/>
<polygon fill="none" stroke="#c1cdcd" points="651,-894.25 651,-1061.25 953,-1061.25 953,-894.25 651,-894.25"/>
<image xlink:href="static/img/industries/fishing_grounds.png" width="300px" height="165px" preserveAspectRatio="xMinYMin meet" x="652" y="-1060.25"/>
<polygon fill="none" stroke="#c1cdcd" points="651,-850 651,-894.25 953,-894.25 953,-850 651,-850"/>
<polygon fill="ghostwhite" stroke="none" points="652,-851 652,-893.25 952,-893.25 952,-851 652,-851"/>
<text text-anchor="start" x="684.62" y="-857.85" font-family="sans-serif" font-size="32.00">Fishing Grounds</text>
</a>
</g>
</g>
<!-- I_fishing_grounds&#45;&gt;C_fish -->
<g id="edge22" class="edge">
<title>I_fishing_grounds&#45;&gt;C_fish</title>
<g id="a_edge22"><a xlink:title="Fishing Grounds &#45;&gt; Fish">
<path fill="none" stroke="#a84b60" stroke-width="5" d="M960.93,-955.62C1000.53,-955.62 1039.81,-955.62 1068.33,-955.62"/>
</a>
</g>
</g>
<!-- I_iron_ore_mine -->
<g id="iron_ore_mine" class="node">
<title>I_iron_ore_mine</title>
<g id="a_iron_ore_mine"><a xlink:href="industries.html#iron_ore_mine" xlink:title="Iron Ore Mine" target="_top">
<polygon fill="white" stroke="none" points="8,-1427 8,-1664.25 310,-1664.25 310,-1427 8,-1427"/>
<polygon fill="none" stroke="#c1cdcd" points="8,-1497.25 8,-1664.25 310,-1664.25 310,-1497.25 8,-1497.25"/>
<image xlink:href="static/img/industries/iron_ore_mine.png" width="300px" height="165px" preserveAspectRatio="xMinYMin meet" x="9" y="-1663.25"/>
<polygon fill="none" stroke="#c1cdcd" points="8,-1427 8,-1497.25 310,-1497.25 310,-1427 8,-1427"/>
<polygon fill="ghostwhite" stroke="none" points="9,-1428 9,-1496.25 309,-1496.25 309,-1428 9,-1428"/>
<text text-anchor="start" x="60.75" y="-1460.85" font-family="sans-serif" font-size="32.00">Iron Ore Mine</text>
<text text-anchor="start" x="21" y="-1435" font-family="sans-serif" font-size="20.00">Requires Engineering Supplies</text>
</a>
</g>
</g>
<!-- I_iron_ore_mine&#45;&gt;C_iron_ore -->
<g id="edge25" class="edge">
<title>I_iron_ore_mine&#45;&gt;C_iron_ore</title>
<g id="a_edge25"><a xlink:title="Iron Ore Mine &#45;&gt; Iron Ore">
<path fill="none" stroke="#5d45a8" stroke-width="5" d="M317.88,-1545.62C349.16,-1545.62 380.55,-1545.62 407.22,-1545.62"/>
</a>
</g>
</g>
<!-- I_orchard_piggery -->
<g id="orchard_piggery" class="node">
<title>I_orchard_piggery</title>
<g id="a_orchard_piggery"><a xlink:href="industries.html#orchard_piggery" xlink:title="Orchard &amp; Piggery" target="_top">
<polygon fill="white" stroke="none" points="651,-177 651,-414.25 953,-414.25 953,-177 651,-177"/>
<polygon fill="none" stroke="#c1cdcd" points="651,-247.25 651,-414.25 953,-414.25 953,-247.25 651,-247.25"/>
<image xlink:href="static/img/industries/orchard_piggery.png" width="300px" height="165px" preserveAspectRatio="xMinYMin meet" x="652" y="-413.25"/>
<polygon fill="none" stroke="#c1cdcd" points="651,-177 651,-247.25 953,-247.25 953,-177 651,-177"/>
<polygon fill="ghostwhite" stroke="none" points="652,-178 652,-246.25 952,-246.25 952,-178 652,-178"/>
<text text-anchor="start" x="670.75" y="-210.85" font-family="sans-serif" font-size="32.00">Orchard &amp; Piggery</text>
<text text-anchor="start" x="694.75" y="-185" font-family="sans-serif" font-size="20.00">Requires Farm Supplies</text>
</a>
</g>
</g>
<!-- I_orchard_piggery&#45;&gt;C_fruits -->
<g id="edge27" class="edge">
<title>I_orchard_piggery&#45;&gt;C_fruits</title>
<g id="a_edge27"><a xlink:title="Orchard &amp; Piggery &#45;&gt; Fruit">
<path fill="none" stroke="#347084" stroke-width="5" d="M960.93,-243.43C999.64,-230.64 1038.04,-217.94 1066.39,-208.57"/>
</a>
</g>
</g>
<!-- I_orchard_piggery&#45;&gt;C_livestock -->
<g id="edge28" class="edge">
<title>I_orchard_piggery&#45;&gt;C_livestock</title>
<g id="a_edge28"><a xlink:title="Orchard &amp; Piggery &#45;&gt; Livestock">
<path fill="none" stroke="#a84800" stroke-width="5" d="M960.93,-344.75C985.55,-352.41 1010.04,-360.03 1031.91,-366.83"/>
</a>
</g>
</g>
<!-- I_scrap_yard -->
<g id="scrap_yard" class="node">
<title>I_scrap_yard</title>
<g id="a_scrap_yard"><a xlink:href="industries.html#scrap_yard" xlink:title="Scrap Yard" target="_top">
<polygon fill="white" stroke="none" points="8,-1145 8,-1356.25 310,-1356.25 310,-1145 8,-1145"/>
<polygon fill="none" stroke="#c1cdcd" points="8,-1189.25 8,-1356.25 310,-1356.25 310,-1189.25 8,-1189.25"/>
<image xlink:href="static/img/industries/scrap_yard.png" width="300px" height="165px" preserveAspectRatio="xMinYMin meet" x="9" y="-1355.25"/>
<polygon fill="none" stroke="#c1cdcd" points="8,-1145 8,-1189.25 310,-1189.25 310,-1145 8,-1145"/>
<polygon fill="ghostwhite" stroke="none" points="9,-1146 9,-1188.25 309,-1188.25 309,-1146 9,-1146"/>
<text text-anchor="start" x="80.62" y="-1152.85" font-family="sans-serif" font-size="32.00">Scrap Yard</text>
</a>
</g>
</g>
<!-- I_scrap_yard&#45;&gt;C_scrap_metal -->
<g id="edge30" class="edge">
<title>I_scrap_yard&#45;&gt;C_scrap_metal</title>
<g id="a_edge30"><a xlink:title="Scrap Yard &#45;&gt; Scrap Metal">
<path fill="none" stroke="#a85050" stroke-width="5" d="M317.88,-1295.1C340.83,-1301.56 363.84,-1308.04 385,-1314"/>
</a>
</g>
</g>
</g>
</svg>
