<?xml version="1.0" encoding="UTF-8" standalone="no"?>
<?xml-stylesheet href="static/css/cargoflow_styles.css" type="text/css"?>
<!DOCTYPE svg PUBLIC "-//W3C//DTD SVG 1.1//EN"
 "http://www.w3.org/Graphics/SVG/1.1/DTD/svg11.dtd">
<!-- Generated by graphviz version 10.0.1 (20240210.2158)
 -->
<!-- Title: tropic_basic Pages: 1 -->
<svg width="2698pt" height="2002pt"
 viewBox="0.00 0.00 2697.75 2002.25" xmlns="http://www.w3.org/2000/svg" xmlns:xlink="http://www.w3.org/1999/xlink">
<g id="page0,1_graph0" class="graph" transform="scale(1 1) rotate(0) translate(4 1998.25)">
<title>tropic_basic</title>
<g id="a_page0,1_graph0"><a xlink:title="Tropic Basic">
<polygon fill="white" stroke="none" points="-4,4 -4,-1998.25 2693.75,-1998.25 2693.75,4 -4,4"/>
</a>
</g>
<g id="clust4" class="cluster">
<title>cluster_BASIC_TROPIC_0</title>
<g id="a_clust4"><a xlink:title="Tropic Basic">
<polygon fill="none" stroke="white" points="1009.5,-403.62 1009.5,-586.62 1221.5,-586.62 1221.5,-403.62 1009.5,-403.62"/>
</a>
</g>
</g>
<g id="clust5" class="cluster">
<title>cluster_BASIC_TROPIC_1</title>
<g id="a_clust5"><a xlink:title="Tropic Basic">
<polygon fill="none" stroke="white" points="384.25,-155.62 384.25,-338.62 538.5,-338.62 538.5,-155.62 384.25,-155.62"/>
</a>
</g>
</g>
<g id="clust6" class="cluster">
<title>cluster_BASIC_TROPIC_2</title>
<g id="a_clust6"><a xlink:title="Tropic Basic">
<polygon fill="none" stroke="white" points="394,-1394.62 394,-1577.62 528.75,-1577.62 528.75,-1394.62 394,-1394.62"/>
</a>
</g>
</g>
<g id="clust7" class="cluster">
<title>cluster_BASIC_TROPIC_3</title>
<g id="a_clust7"><a xlink:title="Tropic Basic">
<polygon fill="none" stroke="white" points="1673.38,-593.62 1673.38,-1088.62 1959.62,-1088.62 1959.62,-593.62 1673.38,-593.62"/>
</a>
</g>
</g>
<!-- I_arable_farm -->
<g id="arable_farm" class="node">
<title>I_arable_farm</title>
<g id="a_arable_farm"><a xlink:href="industries.html#arable_farm" xlink:title="Arable Farm" target="_top">
<polygon fill="white" stroke="none" points="8,-1634 8,-1871.25 310,-1871.25 310,-1634 8,-1634"/>
<polygon fill="none" stroke="#c1cdcd" points="8,-1704.25 8,-1871.25 310,-1871.25 310,-1704.25 8,-1704.25"/>
<image xlink:href="static/img/industries/arable_farm.png" width="300px" height="165px" preserveAspectRatio="xMinYMin meet" x="9" y="-1870.25"/>
<polygon fill="none" stroke="#c1cdcd" points="8,-1634 8,-1704.25 310,-1704.25 310,-1634 8,-1634"/>
<polygon fill="ghostwhite" stroke="none" points="9,-1635 9,-1703.25 309,-1703.25 309,-1635 9,-1635"/>
<text text-anchor="start" x="70.88" y="-1667.85" font-family="sans-serif" font-size="32.00">Arable Farm</text>
<text text-anchor="start" x="51.75" y="-1642" font-family="sans-serif" font-size="20.00">Requires Farm Supplies</text>
</a>
</g>
</g>
<!-- C_beans -->
<g id="beans" class="node">
<title>C_beans</title>
<g id="a_beans"><a xlink:href="cargos.html#beans" xlink:title="&lt;TABLE&gt;" target="_top">
<polygon fill="#602c03" stroke="#602c03" points="520.75,-1569.75 402,-1569.75 402,-1517.5 520.75,-1517.5 520.75,-1569.75"/>
<polygon fill="none" stroke="#602c03" points="413,-1524.5 413,-1562.75 509.75,-1562.75 509.75,-1524.5 413,-1524.5"/>
<text text-anchor="start" x="416" y="-1529.35" font-family="sans-serif" font-size="32.00" fill="white">Beans</text>
<polygon fill="none" stroke="#602c03" points="410,-1521.5 410,-1565.75 512.75,-1565.75 512.75,-1521.5 410,-1521.5"/>
</a>
</g>
</g>
<!-- I_arable_farm&#45;&gt;C_beans -->
<g id="edge16" class="edge">
<title>I_arable_farm&#45;&gt;C_beans</title>
<g id="a_edge16"><a xlink:title="Arable Farm &#45;&gt; Beans">
<path fill="none" stroke="#602c03" stroke-width="5" d="M317.66,-1642.92C356.76,-1615.72 395.17,-1588.99 422.28,-1570.13"/>
</a>
</g>
</g>
<!-- C_grain -->
<g id="grain" class="node">
<title>C_grain</title>
<g id="a_grain"><a xlink:href="cargos.html#grain" xlink:title="&lt;TABLE&gt;" target="_top">
<polygon fill="#505050" stroke="#505050" points="514.38,-1792.75 408.38,-1792.75 408.38,-1740.5 514.38,-1740.5 514.38,-1792.75"/>
<polygon fill="none" stroke="#505050" points="419.38,-1747.5 419.38,-1785.75 503.38,-1785.75 503.38,-1747.5 419.38,-1747.5"/>
<text text-anchor="start" x="422.38" y="-1752.35" font-family="sans-serif" font-size="32.00" fill="white">Grain</text>
<polygon fill="none" stroke="#505050" points="416.38,-1744.5 416.38,-1788.75 506.38,-1788.75 506.38,-1744.5 416.38,-1744.5"/>
</a>
</g>
</g>
<!-- I_arable_farm&#45;&gt;C_grain -->
<g id="edge17" class="edge">
<title>I_arable_farm&#45;&gt;C_grain</title>
<g id="a_edge17"><a xlink:title="Arable Farm &#45;&gt; Grain">
<path fill="none" stroke="#505050" stroke-width="5" d="M317.66,-1759.97C350.38,-1761.5 382.63,-1763 408.17,-1764.19"/>
</a>
</g>
</g>
<!-- I_coffee_estate -->
<g id="coffee_estate" class="node">
<title>I_coffee_estate</title>
<g id="a_coffee_estate"><a xlink:href="industries.html#coffee_estate" xlink:title="Coffee Estate" target="_top">
<polygon fill="white" stroke="none" points="8,-1297 8,-1534.25 310,-1534.25 310,-1297 8,-1297"/>
<polygon fill="none" stroke="#c1cdcd" points="8,-1367.25 8,-1534.25 310,-1534.25 310,-1367.25 8,-1367.25"/>
<image xlink:href="static/img/industries/coffee_estate.png" width="300px" height="165px" preserveAspectRatio="xMinYMin meet" x="9" y="-1533.25"/>
<polygon fill="none" stroke="#c1cdcd" points="8,-1297 8,-1367.25 310,-1367.25 310,-1297 8,-1297"/>
<polygon fill="ghostwhite" stroke="none" points="9,-1298 9,-1366.25 309,-1366.25 309,-1298 9,-1298"/>
<text text-anchor="start" x="62.25" y="-1330.85" font-family="sans-serif" font-size="32.00">Coffee Estate</text>
<text text-anchor="start" x="51.75" y="-1305" font-family="sans-serif" font-size="20.00">Requires Farm Supplies</text>
</a>
</g>
</g>
<!-- C_fruits -->
<g id="fruits" class="node">
<title>C_fruits</title>
<g id="a_fruits"><a xlink:href="cargos.html#fruits" xlink:title="&lt;TABLE&gt;" target="_top">
<polygon fill="#004ca8" stroke="#004ca8" points="507.25,-1454.75 415.5,-1454.75 415.5,-1402.5 507.25,-1402.5 507.25,-1454.75"/>
<polygon fill="none" stroke="#004ca8" points="426.5,-1409.5 426.5,-1447.75 496.25,-1447.75 496.25,-1409.5 426.5,-1409.5"/>
<text text-anchor="start" x="429.5" y="-1414.35" font-family="sans-serif" font-size="32.00" fill="white">Fruit</text>
<polygon fill="none" stroke="#004ca8" points="423.5,-1406.5 423.5,-1450.75 499.25,-1450.75 499.25,-1406.5 423.5,-1406.5"/>
</a>
</g>
</g>
<!-- I_coffee_estate&#45;&gt;C_fruits -->
<g id="edge20" class="edge">
<title>I_coffee_estate&#45;&gt;C_fruits</title>
<g id="a_edge20"><a xlink:title="Coffee Estate &#45;&gt; Fruit">
<path fill="none" stroke="#004ca8" stroke-width="5" d="M317.66,-1422.45C353.5,-1424 388.77,-1425.53 415.28,-1426.67"/>
</a>
</g>
</g>
<!-- C_coffee -->
<g id="coffee" class="node">
<title>C_coffee</title>
<g id="a_coffee"><a xlink:href="cargos.html#coffee" xlink:title="&lt;TABLE&gt;" target="_top">
<polygon fill="#347084" stroke="#347084" points="1877.38,-1080.75 1755.62,-1080.75 1755.62,-1028.5 1877.38,-1028.5 1877.38,-1080.75"/>
<polygon fill="none" stroke="#347084" points="1766.62,-1035.5 1766.62,-1073.75 1866.38,-1073.75 1866.38,-1035.5 1766.62,-1035.5"/>
<text text-anchor="start" x="1769.62" y="-1040.35" font-family="sans-serif" font-size="32.00" fill="white">Coffee</text>
<polygon fill="none" stroke="#347084" points="1763.62,-1032.5 1763.62,-1076.75 1869.38,-1076.75 1869.38,-1032.5 1763.62,-1032.5"/>
</a>
</g>
</g>
<!-- I_coffee_estate&#45;&gt;C_coffee -->
<g id="edge19" class="edge">
<title>I_coffee_estate&#45;&gt;C_coffee</title>
<g id="a_edge19"><a xlink:title="Coffee Estate &#45;&gt; Coffee">
<path fill="none" stroke="#347084" stroke-width="5" d="M317.93,-1372.55C442.15,-1342.45 620.13,-1307.62 778.62,-1307.62 778.62,-1307.62 778.62,-1307.62 1116.5,-1307.62 1380.42,-1307.62 1668.74,-1146.18 1774.06,-1081.22"/>
</a>
</g>
</g>
<!-- I_nitrate_mine -->
<g id="nitrate_mine" class="node">
<title>I_nitrate_mine</title>
<g id="a_nitrate_mine"><a xlink:href="industries.html#nitrate_mine" xlink:title="Nitrate Mine" target="_top">
<polygon fill="white" stroke="none" points="8,-4 8,-267.25 310,-267.25 310,-4 8,-4"/>
<polygon fill="none" stroke="#c1cdcd" points="8,-100.25 8,-267.25 310,-267.25 310,-100.25 8,-100.25"/>
<image xlink:href="static/img/industries/nitrate_mine.png" width="300px" height="165px" preserveAspectRatio="xMinYMin meet" x="9" y="-266.25"/>
<polygon fill="none" stroke="#c1cdcd" points="8,-4 8,-100.25 310,-100.25 310,-4 8,-4"/>
<polygon fill="ghostwhite" stroke="none" points="9,-5 9,-99.25 309,-99.25 309,-5 9,-5"/>
<text text-anchor="start" x="72.38" y="-63.85" font-family="sans-serif" font-size="32.00">Nitrate Mine</text>
<text text-anchor="start" x="21" y="-38" font-family="sans-serif" font-size="20.00">Requires Engineering Supplies</text>
<text text-anchor="start" x="49.5" y="-12" font-family="sans-serif" font-size="20.00">Produces Farm Supplies</text>
</a>
</g>
</g>
<!-- C_nitrates -->
<g id="nitrates" class="node">
<title>C_nitrates</title>
<g id="a_nitrates"><a xlink:href="cargos.html#nitrates" xlink:title="&lt;TABLE&gt;" target="_top">
<polygon fill="#a85050" stroke="#a85050" points="530.5,-215.75 392.25,-215.75 392.25,-163.5 530.5,-163.5 530.5,-215.75"/>
<polygon fill="none" stroke="#a85050" points="403.25,-170.5 403.25,-208.75 519.5,-208.75 519.5,-170.5 403.25,-170.5"/>
<text text-anchor="start" x="406.25" y="-175.35" font-family="sans-serif" font-size="32.00" fill="white">Nitrates</text>
<polygon fill="none" stroke="#a85050" points="400.25,-167.5 400.25,-211.75 522.5,-211.75 522.5,-167.5 400.25,-167.5"/>
</a>
</g>
</g>
<!-- I_nitrate_mine&#45;&gt;C_nitrates -->
<g id="edge27" class="edge">
<title>I_nitrate_mine&#45;&gt;C_nitrates</title>
<g id="a_edge27"><a xlink:title="Nitrate Mine &#45;&gt; Nitrates">
<path fill="none" stroke="#a85050" stroke-width="5" d="M317.66,-163.97C343.73,-168.65 369.49,-173.29 391.8,-177.3"/>
</a>
</g>
</g>
<!-- I_ranch -->
<g id="ranch" class="node">
<title>I_ranch</title>
<g id="a_ranch"><a xlink:href="industries.html#ranch" xlink:title="Ranch" target="_top">
<polygon fill="white" stroke="none" points="8,-666 8,-903.25 310,-903.25 310,-666 8,-666"/>
<polygon fill="none" stroke="#c1cdcd" points="8,-736.25 8,-903.25 310,-903.25 310,-736.25 8,-736.25"/>
<image xlink:href="static/img/industries/ranch.png" width="300px" height="165px" preserveAspectRatio="xMinYMin meet" x="9" y="-902.25"/>
<polygon fill="none" stroke="#c1cdcd" points="8,-666 8,-736.25 310,-736.25 310,-666 8,-666"/>
<polygon fill="ghostwhite" stroke="none" points="9,-667 9,-735.25 309,-735.25 309,-667 9,-667"/>
<text text-anchor="start" x="112.5" y="-699.85" font-family="sans-serif" font-size="32.00">Ranch</text>
<text text-anchor="start" x="51.75" y="-674" font-family="sans-serif" font-size="20.00">Requires Farm Supplies</text>
</a>
</g>
</g>
<!-- C_wool -->
<g id="wool" class="node">
<title>C_wool</title>
<g id="a_wool"><a xlink:href="cargos.html#wool" xlink:title="&lt;TABLE&gt;" target="_top">
<polygon fill="#a8926d" stroke="#a8926d" points="1866.5,-768.75 1766.5,-768.75 1766.5,-716.5 1866.5,-716.5 1866.5,-768.75"/>
<polygon fill="none" stroke="#a8926d" points="1777.5,-723.5 1777.5,-761.75 1855.5,-761.75 1855.5,-723.5 1777.5,-723.5"/>
<text text-anchor="start" x="1780.5" y="-728.35" font-family="sans-serif" font-size="32.00" fill="white">Wool</text>
<polygon fill="none" stroke="#a8926d" points="1774.5,-720.5 1774.5,-764.75 1858.5,-764.75 1858.5,-720.5 1774.5,-720.5"/>
</a>
</g>
</g>
<!-- I_ranch&#45;&gt;C_wool -->
<g id="edge31" class="edge">
<title>I_ranch&#45;&gt;C_wool</title>
<g id="a_edge31"><a xlink:title="Ranch &#45;&gt; Wool">
<path fill="none" stroke="#a8926d" stroke-width="5" d="M317.94,-779.08C442.93,-775.17 621.91,-770.62 778.62,-770.62 778.62,-770.62 778.62,-770.62 1116.5,-770.62 1360.62,-770.62 1652.31,-753.36 1766.37,-745.95"/>
</a>
</g>
</g>
<!-- C_livestock -->
<g id="livestock" class="node">
<title>C_livestock</title>
<g id="a_livestock"><a xlink:href="cargos.html#livestock" xlink:title="&lt;TABLE&gt;" target="_top">
<polygon fill="#468fa8" stroke="#468fa8" points="541.75,-1086.75 381,-1086.75 381,-1034.5 541.75,-1034.5 541.75,-1086.75"/>
<polygon fill="none" stroke="#468fa8" points="392,-1041.5 392,-1079.75 530.75,-1079.75 530.75,-1041.5 392,-1041.5"/>
<text text-anchor="start" x="395" y="-1046.35" font-family="sans-serif" font-size="32.00" fill="white">Livestock</text>
<polygon fill="none" stroke="#468fa8" points="389,-1038.5 389,-1082.75 533.75,-1082.75 533.75,-1038.5 389,-1038.5"/>
</a>
</g>
</g>
<!-- I_ranch&#45;&gt;C_livestock -->
<g id="edge30" class="edge">
<title>I_ranch&#45;&gt;C_livestock</title>
<g id="a_edge30"><a xlink:title="Ranch &#45;&gt; Livestock">
<path fill="none" stroke="#468fa8" stroke-width="5" d="M293.06,-906.89C344.85,-954.47 399.38,-1004.58 431.61,-1034.2"/>
</a>
</g>
</g>
<!-- I_flour_mill -->
<g id="flour_mill" class="node">
<title>I_flour_mill</title>
<g id="a_flour_mill"><a xlink:href="industries.html#flour_mill" xlink:title="Flour Mill" target="_top">
<polygon fill="white" stroke="none" points="628.62,-1689 628.62,-1900.25 930.62,-1900.25 930.62,-1689 628.62,-1689"/>
<polygon fill="none" stroke="#c1cdcd" points="628.62,-1733.25 628.62,-1900.25 930.62,-1900.25 930.62,-1733.25 628.62,-1733.25"/>
<image xlink:href="static/img/industries/flour_mill.png" width="300px" height="165px" preserveAspectRatio="xMinYMin meet" x="629.625" y="-1899.25"/>
<polygon fill="none" stroke="#c1cdcd" points="628.62,-1689 628.62,-1733.25 930.62,-1733.25 930.62,-1689 628.62,-1689"/>
<polygon fill="ghostwhite" stroke="none" points="629.62,-1690 629.62,-1732.25 929.62,-1732.25 929.62,-1690 629.62,-1690"/>
<text text-anchor="start" x="715.12" y="-1696.85" font-family="sans-serif" font-size="32.00">Flour Mill</text>
</a>
</g>
</g>
<!-- C_food -->
<g id="food" class="node">
<title>C_food</title>
<g id="a_food"><a xlink:href="cargos.html#food" xlink:title="&lt;TABLE&gt;" target="_top">
<polygon fill="#a84800" stroke="#a84800" points="2332.62,-1513 2062.38,-1513 2062.38,-1380.25 2332.62,-1380.25 2332.62,-1513"/>
<polygon fill="none" stroke="#a84800" points="2073.38,-1467.75 2073.38,-1506 2321.62,-1506 2321.62,-1467.75 2073.38,-1467.75"/>
<text text-anchor="start" x="2160.75" y="-1472.6" font-family="sans-serif" font-size="32.00" fill="white">Food</text>
<polygon fill="white" stroke="none" points="2073.38,-1427.5 2073.38,-1465.75 2321.62,-1465.75 2321.62,-1427.5 2073.38,-1427.5"/>
<polygon fill="none" stroke="#a84800" points="2073.38,-1427.5 2073.38,-1465.75 2321.62,-1465.75 2321.62,-1427.5 2073.38,-1427.5"/>
<text text-anchor="start" x="2076.38" y="-1432.35" font-family="sans-serif" font-size="32.00">To General Store</text>
<polygon fill="white" stroke="none" points="2073.38,-1387.25 2073.38,-1425.5 2321.62,-1425.5 2321.62,-1387.25 2073.38,-1387.25"/>
<polygon fill="none" stroke="#a84800" points="2073.38,-1387.25 2073.38,-1425.5 2321.62,-1425.5 2321.62,-1387.25 2073.38,-1387.25"/>
<text text-anchor="start" x="2138.62" y="-1392.1" font-family="sans-serif" font-size="32.00">To Hotel</text>
<polygon fill="none" stroke="#a84800" points="2070.38,-1384.25 2070.38,-1509 2324.62,-1509 2324.62,-1384.25 2070.38,-1384.25"/>
</a>
</g>
</g>
<!-- I_flour_mill&#45;&gt;C_food -->
<g id="edge25" class="edge">
<title>I_flour_mill&#45;&gt;C_food</title>
<g id="a_edge25"><a xlink:title="Flour Mill &#45;&gt; Food">
<path fill="none" stroke="#a84800" stroke-width="5" d="M938.29,-1759.72C1167.46,-1708.39 1605.65,-1608.07 1975.5,-1510.62 2003.6,-1503.22 2033.58,-1494.86 2062.1,-1486.68"/>
</a>
</g>
</g>
<!-- I_food_processor -->
<g id="food_processor" class="node">
<title>I_food_processor</title>
<g id="a_food_processor"><a xlink:href="industries.html#food_processor" xlink:title="Food Processing Plant" target="_top">
<polygon fill="white" stroke="none" points="612.75,-1407 612.75,-1618.25 946.5,-1618.25 946.5,-1407 612.75,-1407"/>
<polygon fill="none" stroke="#c1cdcd" points="612.75,-1451.25 612.75,-1618.25 946.5,-1618.25 946.5,-1451.25 612.75,-1451.25"/>
<image xlink:href="static/img/industries/food_processor.png" width="331.75px" height="165px" preserveAspectRatio="xMinYMin meet" x="613.75" y="-1617.25"/>
<polygon fill="none" stroke="#c1cdcd" points="612.75,-1407 612.75,-1451.25 946.5,-1451.25 946.5,-1407 612.75,-1407"/>
<polygon fill="ghostwhite" stroke="none" points="613.75,-1408 613.75,-1450.25 945.5,-1450.25 945.5,-1408 613.75,-1408"/>
<text text-anchor="start" x="618.75" y="-1414.85" font-family="sans-serif" font-size="32.00">Food Processing Plant</text>
</a>
</g>
</g>
<!-- I_food_processor&#45;&gt;C_food -->
<g id="edge26" class="edge">
<title>I_food_processor&#45;&gt;C_food</title>
<g id="a_edge26"><a xlink:title="Food Processing Plant &#45;&gt; Food">
<path fill="none" stroke="#a84800" stroke-width="5" d="M954.24,-1504.53C1240.2,-1491.2 1804.24,-1464.91 2062.12,-1452.89"/>
</a>
</g>
</g>
<!-- I_stockyard -->
<g id="stockyard" class="node">
<title>I_stockyard</title>
<g id="a_stockyard"><a xlink:href="industries.html#stockyard" xlink:title="Stockyard" target="_top">
<polygon fill="white" stroke="none" points="628.62,-997 628.62,-1208.25 930.62,-1208.25 930.62,-997 628.62,-997"/>
<polygon fill="none" stroke="#c1cdcd" points="628.62,-1041.25 628.62,-1208.25 930.62,-1208.25 930.62,-1041.25 628.62,-1041.25"/>
<image xlink:href="static/img/industries/stockyard.png" width="300px" height="165px" preserveAspectRatio="xMinYMin meet" x="629.625" y="-1207.25"/>
<polygon fill="none" stroke="#c1cdcd" points="628.62,-997 628.62,-1041.25 930.62,-1041.25 930.62,-997 628.62,-997"/>
<polygon fill="ghostwhite" stroke="none" points="629.62,-998 629.62,-1040.25 929.62,-1040.25 929.62,-998 629.62,-998"/>
<text text-anchor="start" x="708.75" y="-1004.85" font-family="sans-serif" font-size="32.00">Stockyard</text>
</a>
</g>
</g>
<!-- I_stockyard&#45;&gt;C_food -->
<g id="edge32" class="edge">
<title>I_stockyard&#45;&gt;C_food</title>
<g id="a_edge32"><a xlink:title="Stockyard &#45;&gt; Food">
<path fill="none" stroke="#a84800" stroke-width="5" d="M938.58,-1141C1219.04,-1209.14 1799.13,-1350.08 2061.91,-1413.92"/>
</a>
</g>
</g>
<!-- C_fish -->
<g id="fish" class="node">
<title>C_fish</title>
<g id="a_fish"><a xlink:href="cargos.html#fish" xlink:title="&lt;TABLE&gt;" target="_top">
<polygon fill="#882034" stroke="#882034" points="2241.5,-1910.75 2153.5,-1910.75 2153.5,-1858.5 2241.5,-1858.5 2241.5,-1910.75"/>
<polygon fill="none" stroke="#882034" points="2164.5,-1865.5 2164.5,-1903.75 2230.5,-1903.75 2230.5,-1865.5 2164.5,-1865.5"/>
<text text-anchor="start" x="2167.5" y="-1870.35" font-family="sans-serif" font-size="32.00" fill="white">Fish</text>
<polygon fill="none" stroke="#882034" points="2161.5,-1862.5 2161.5,-1906.75 2233.5,-1906.75 2233.5,-1862.5 2161.5,-1862.5"/>
</a>
</g>
</g>
<!-- I_fishing_harbour -->
<g id="fishing_harbour" class="node">
<title>I_fishing_harbour</title>
<g id="a_fishing_harbour"><a xlink:href="industries.html#fishing_harbour" xlink:title="Fishing Harbour" target="_top">
<polygon fill="white" stroke="none" points="2046.5,-1580 2046.5,-1791.25 2348.5,-1791.25 2348.5,-1580 2046.5,-1580"/>
<polygon fill="none" stroke="#c1cdcd" points="2046.5,-1624.25 2046.5,-1791.25 2348.5,-1791.25 2348.5,-1624.25 2046.5,-1624.25"/>
<image xlink:href="static/img/industries/fishing_harbour.png" width="300px" height="165px" preserveAspectRatio="xMinYMin meet" x="2047.5" y="-1790.25"/>
<polygon fill="none" stroke="#c1cdcd" points="2046.5,-1580 2046.5,-1624.25 2348.5,-1624.25 2348.5,-1580 2046.5,-1580"/>
<polygon fill="ghostwhite" stroke="none" points="2047.5,-1581 2047.5,-1623.25 2347.5,-1623.25 2347.5,-1581 2047.5,-1581"/>
<text text-anchor="start" x="2083.5" y="-1587.85" font-family="sans-serif" font-size="32.00">Fishing Harbour</text>
</a>
</g>
</g>
<!-- C_fish&#45;&gt;I_fishing_harbour -->
<g id="edge8" class="edge">
<title>C_fish&#45;&gt;I_fishing_harbour</title>
<g id="a_edge8"><a xlink:title="Fish &#45;&gt; Fishing Harbour">
<path fill="none" stroke="#882034" stroke-width="5" d="M2197.5,-1858.09C2197.5,-1845.81 2197.5,-1833.53 2197.5,-1821.26"/>
<polygon fill="#882034" stroke="#882034" stroke-width="5" points="2206.25,-1821.47 2197.5,-1801.47 2188.75,-1821.47 2206.25,-1821.47"/>
</a>
</g>
</g>
<!-- I_port -->
<g id="port" class="node">
<title>I_port</title>
<g id="a_port"><a xlink:href="industries.html#port" xlink:title="Port" target="_top">
<polygon fill="white" stroke="none" points="2046.5,-689 2046.5,-952.25 2348.5,-952.25 2348.5,-689 2046.5,-689"/>
<polygon fill="none" stroke="#c1cdcd" points="2046.5,-785.25 2046.5,-952.25 2348.5,-952.25 2348.5,-785.25 2046.5,-785.25"/>
<image xlink:href="static/img/industries/port.png" width="300px" height="165px" preserveAspectRatio="xMinYMin meet" x="2047.5" y="-951.25"/>
<polygon fill="none" stroke="#c1cdcd" points="2046.5,-689 2046.5,-785.25 2348.5,-785.25 2348.5,-689 2046.5,-689"/>
<polygon fill="ghostwhite" stroke="none" points="2047.5,-690 2047.5,-784.25 2347.5,-784.25 2347.5,-690 2047.5,-690"/>
<text text-anchor="start" x="2168.25" y="-748.85" font-family="sans-serif" font-size="32.00">Port</text>
<text text-anchor="start" x="2057.25" y="-723" font-family="sans-serif" font-size="20.00">Produces Engineering Supplies</text>
<text text-anchor="start" x="2088" y="-697" font-family="sans-serif" font-size="20.00">Produces Farm Supplies</text>
</a>
</g>
</g>
<!-- C_food&#45;&gt;I_port -->
<g id="edge9" class="edge">
<title>C_food&#45;&gt;I_port</title>
<g id="a_edge9"><a xlink:title="Food &#45;&gt; Port">
<path fill="none" stroke="#a84800" stroke-width="5" d="M2197.5,-1380.03C2197.5,-1247.39 2197.5,-1114.76 2197.5,-982.12"/>
<polygon fill="#a84800" stroke="#a84800" stroke-width="5" points="2206.25,-982.27 2197.5,-962.27 2188.75,-982.27 2206.25,-982.27"/>
</a>
</g>
</g>
<!-- I_fishing_harbour&#45;&gt;C_food -->
<g id="edge24" class="edge">
<title>I_fishing_harbour&#45;&gt;C_food</title>
<g id="a_edge24"><a xlink:title="Fishing Harbour &#45;&gt; Food">
<path fill="none" stroke="#a84800" stroke-width="5" d="M2197.5,-1576.29C2197.5,-1555.32 2197.5,-1534.35 2197.5,-1513.38"/>
</a>
</g>
</g>
<!-- C_goods -->
<g id="goods" class="node">
<title>C_goods</title>
<g id="a_goods"><a xlink:href="cargos.html#goods" xlink:title="&lt;TABLE&gt;" target="_top">
<polygon fill="#a84b60" stroke="#a84b60" points="2689.75,-866.88 2419.5,-866.88 2419.5,-774.38 2689.75,-774.38 2689.75,-866.88"/>
<polygon fill="none" stroke="#a84b60" points="2430.5,-821.62 2430.5,-859.88 2678.75,-859.88 2678.75,-821.62 2430.5,-821.62"/>
<text text-anchor="start" x="2507.38" y="-826.48" font-family="sans-serif" font-size="32.00" fill="white">Goods</text>
<polygon fill="white" stroke="none" points="2430.5,-781.38 2430.5,-819.62 2678.75,-819.62 2678.75,-781.38 2430.5,-781.38"/>
<polygon fill="none" stroke="#a84b60" points="2430.5,-781.38 2430.5,-819.62 2678.75,-819.62 2678.75,-781.38 2430.5,-781.38"/>
<text text-anchor="start" x="2433.5" y="-786.23" font-family="sans-serif" font-size="32.00">To General Store</text>
<polygon fill="none" stroke="#a84b60" points="2427.5,-778.38 2427.5,-862.88 2681.75,-862.88 2681.75,-778.38 2427.5,-778.38"/>
</a>
</g>
</g>
<!-- I_port&#45;&gt;C_goods -->
<g id="edge29" class="edge">
<title>I_port&#45;&gt;C_goods</title>
<g id="a_edge29"><a xlink:title="Port &#45;&gt; Goods">
<path fill="none" stroke="#a84b60" stroke-width="5" d="M2356.33,-820.62C2377.26,-820.62 2398.57,-820.62 2419.06,-820.62"/>
</a>
</g>
</g>
<!-- C_chemicals -->
<g id="chemicals" class="node">
<title>C_chemicals</title>
<g id="a_chemicals"><a xlink:href="cargos.html#chemicals" xlink:title="&lt;TABLE&gt;" target="_top">
<polygon fill="#a86052" stroke="#a86052" points="1204.12,-463.75 1026.88,-463.75 1026.88,-411.5 1204.12,-411.5 1204.12,-463.75"/>
<polygon fill="none" stroke="#a86052" points="1037.88,-418.5 1037.88,-456.75 1193.12,-456.75 1193.12,-418.5 1037.88,-418.5"/>
<text text-anchor="start" x="1040.88" y="-423.35" font-family="sans-serif" font-size="32.00" fill="white">Chemicals</text>
<polygon fill="none" stroke="#a86052" points="1034.88,-415.5 1034.88,-459.75 1196.12,-459.75 1196.12,-415.5 1034.88,-415.5"/>
</a>
</g>
</g>
<!-- C_chemicals&#45;&gt;I_port -->
<g id="edge4" class="edge">
<title>C_chemicals&#45;&gt;I_port</title>
<g id="a_edge4"><a xlink:title="Chemicals &#45;&gt; Port">
<path fill="none" stroke="#a86052" stroke-width="5" d="M1204.23,-423.9C1300.82,-411.4 1460.24,-398.52 1594.5,-424.62 1773.78,-459.49 1825.53,-474.38 1975.5,-578.62 2010.78,-603.15 2044.47,-634.25 2074.44,-665.93"/>
<polygon fill="#a86052" stroke="#a86052" stroke-width="5" points="2067.92,-671.76 2087.9,-680.55 2080.79,-659.91 2067.92,-671.76"/>
</a>
</g>
</g>
<!-- I_copper_smelter -->
<g id="copper_smelter" class="node">
<title>I_copper_smelter</title>
<g id="a_copper_smelter"><a xlink:href="industries.html#copper_smelter" xlink:title="Copper Smelter" target="_top">
<polygon fill="white" stroke="none" points="1284.5,-460 1284.5,-671.25 1586.5,-671.25 1586.5,-460 1284.5,-460"/>
<polygon fill="none" stroke="#c1cdcd" points="1284.5,-504.25 1284.5,-671.25 1586.5,-671.25 1586.5,-504.25 1284.5,-504.25"/>
<image xlink:href="static/img/industries/copper_smelter.png" width="300px" height="165px" preserveAspectRatio="xMinYMin meet" x="1285.5" y="-670.25"/>
<polygon fill="none" stroke="#c1cdcd" points="1284.5,-460 1284.5,-504.25 1586.5,-504.25 1586.5,-460 1284.5,-460"/>
<polygon fill="ghostwhite" stroke="none" points="1285.5,-461 1285.5,-503.25 1585.5,-503.25 1585.5,-461 1285.5,-461"/>
<text text-anchor="start" x="1323" y="-467.85" font-family="sans-serif" font-size="32.00">Copper Smelter</text>
</a>
</g>
</g>
<!-- C_chemicals&#45;&gt;I_copper_smelter -->
<g id="edge3" class="edge">
<title>C_chemicals&#45;&gt;I_copper_smelter</title>
<g id="a_edge3"><a xlink:title="Chemicals &#45;&gt; Copper Smelter">
<path fill="none" stroke="#a86052" stroke-width="5" d="M1182.39,-464.15C1203.28,-472.55 1227.47,-482.29 1252.44,-492.34"/>
<polygon fill="#a86052" stroke="#a86052" stroke-width="5" points="1248.93,-500.36 1270.75,-499.71 1255.47,-484.13 1248.93,-500.36"/>
</a>
</g>
</g>
<!-- C_copper_ore -->
<g id="copper_ore" class="node">
<title>C_copper_ore</title>
<g id="a_copper_ore"><a xlink:href="cargos.html#copper_ore" xlink:title="&lt;TABLE&gt;" target="_top">
<polygon fill="#5d45a8" stroke="#5d45a8" points="1213.5,-578.75 1017.5,-578.75 1017.5,-526.5 1213.5,-526.5 1213.5,-578.75"/>
<polygon fill="none" stroke="#5d45a8" points="1028.5,-533.5 1028.5,-571.75 1202.5,-571.75 1202.5,-533.5 1028.5,-533.5"/>
<text text-anchor="start" x="1031.5" y="-538.35" font-family="sans-serif" font-size="32.00" fill="white">Copper Ore</text>
<polygon fill="none" stroke="#5d45a8" points="1025.5,-530.5 1025.5,-574.75 1205.5,-574.75 1205.5,-530.5 1025.5,-530.5"/>
</a>
</g>
</g>
<!-- C_copper_ore&#45;&gt;I_copper_smelter -->
<g id="edge7" class="edge">
<title>C_copper_ore&#45;&gt;I_copper_smelter</title>
<g id="a_edge7"><a xlink:title="Copper Ore &#45;&gt; Copper Smelter">
<path fill="none" stroke="#5d45a8" stroke-width="5" d="M1213.64,-556.6C1225.51,-557.08 1237.93,-557.59 1250.57,-558.11"/>
<polygon fill="#5d45a8" stroke="#5d45a8" stroke-width="5" points="1250.13,-566.85 1270.47,-558.92 1250.85,-549.36 1250.13,-566.85"/>
</a>
</g>
</g>
<!-- I_chemical_plant -->
<g id="chemical_plant" class="node">
<title>I_chemical_plant</title>
<g id="a_chemical_plant"><a xlink:href="industries.html#chemical_plant" xlink:title="Chemical Plant" target="_top">
<polygon fill="white" stroke="none" points="628.62,-152 628.62,-363.25 930.62,-363.25 930.62,-152 628.62,-152"/>
<polygon fill="none" stroke="#c1cdcd" points="628.62,-196.25 628.62,-363.25 930.62,-363.25 930.62,-196.25 628.62,-196.25"/>
<image xlink:href="static/img/industries/chemical_plant.png" width="300px" height="165px" preserveAspectRatio="xMinYMin meet" x="629.625" y="-362.25"/>
<polygon fill="none" stroke="#c1cdcd" points="628.62,-152 628.62,-196.25 930.62,-196.25 930.62,-152 628.62,-152"/>
<polygon fill="ghostwhite" stroke="none" points="629.62,-153 629.62,-195.25 929.62,-195.25 929.62,-153 629.62,-153"/>
<text text-anchor="start" x="672" y="-159.85" font-family="sans-serif" font-size="32.00">Chemical Plant</text>
</a>
</g>
</g>
<!-- C_nitrates&#45;&gt;I_chemical_plant -->
<g id="edge13" class="edge">
<title>C_nitrates&#45;&gt;I_chemical_plant</title>
<g id="a_edge13"><a xlink:title="Nitrates &#45;&gt; Chemical Plant">
<path fill="none" stroke="#a85050" stroke-width="5" d="M531,-204.38C550.44,-208.56 572.57,-213.32 595.42,-218.23"/>
<polygon fill="#a85050" stroke="#a85050" stroke-width="5" points="593.41,-226.75 614.81,-222.4 597.09,-209.64 593.41,-226.75"/>
</a>
</g>
</g>
<!-- C_oil -->
<g id="oil" class="node">
<title>C_oil</title>
<g id="a_oil"><a xlink:href="cargos.html#oil" xlink:title="&lt;TABLE&gt;" target="_top">
<polygon fill="#7d70a8" stroke="#7d70a8" points="494.5,-330.75 428.25,-330.75 428.25,-278.5 494.5,-278.5 494.5,-330.75"/>
<polygon fill="none" stroke="#7d70a8" points="439.25,-285.5 439.25,-323.75 483.5,-323.75 483.5,-285.5 439.25,-285.5"/>
<text text-anchor="start" x="442.25" y="-290.35" font-family="sans-serif" font-size="32.00" fill="white">Oil</text>
<polygon fill="none" stroke="#7d70a8" points="436.25,-282.5 436.25,-326.75 486.5,-326.75 486.5,-282.5 436.25,-282.5"/>
</a>
</g>
</g>
<!-- C_oil&#45;&gt;I_chemical_plant -->
<g id="edge14" class="edge">
<title>C_oil&#45;&gt;I_chemical_plant</title>
<g id="a_edge14"><a xlink:title="Oil &#45;&gt; Chemical Plant">
<path fill="none" stroke="#7d70a8" stroke-width="5" d="M494.73,-299.82C519.6,-296.12 556.14,-290.69 594.78,-284.95"/>
<polygon fill="#7d70a8" stroke="#7d70a8" stroke-width="5" points="596.06,-293.6 614.55,-282.01 593.48,-276.29 596.06,-293.6"/>
</a>
</g>
</g>
<!-- C_beans&#45;&gt;I_food_processor -->
<g id="edge2" class="edge">
<title>C_beans&#45;&gt;I_food_processor</title>
<g id="a_edge2"><a xlink:title="Beans &#45;&gt; Food Processing Plant">
<path fill="none" stroke="#602c03" stroke-width="5" d="M521.12,-1537.87C538.33,-1536.18 558.17,-1534.23 579.06,-1532.19"/>
<polygon fill="#602c03" stroke="#602c03" stroke-width="5" points="579.68,-1540.92 598.74,-1530.26 577.98,-1523.5 579.68,-1540.92"/>
</a>
</g>
</g>
<!-- C_fruits&#45;&gt;I_food_processor -->
<g id="edge10" class="edge">
<title>C_fruits&#45;&gt;I_food_processor</title>
<g id="a_edge10"><a xlink:title="Fruit &#45;&gt; Food Processing Plant">
<path fill="none" stroke="#004ca8" stroke-width="5" d="M507.69,-1440.66C527.82,-1446.01 553.05,-1452.71 579.97,-1459.86"/>
<polygon fill="#004ca8" stroke="#004ca8" stroke-width="5" points="577.45,-1468.24 599.03,-1464.92 581.94,-1451.33 577.45,-1468.24"/>
</a>
</g>
</g>
<!-- C_alcohol -->
<g id="alcohol" class="node">
<title>C_alcohol</title>
<g id="a_alcohol"><a xlink:href="cargos.html#alcohol" xlink:title="&lt;TABLE&gt;" target="_top">
<polygon fill="#a80000" stroke="#a80000" points="1951.62,-965 1681.38,-965 1681.38,-832.25 1951.62,-832.25 1951.62,-965"/>
<polygon fill="none" stroke="#a80000" points="1692.38,-919.75 1692.38,-958 1940.62,-958 1940.62,-919.75 1692.38,-919.75"/>
<text text-anchor="start" x="1764.38" y="-924.6" font-family="sans-serif" font-size="32.00" fill="white">Alcohol</text>
<polygon fill="white" stroke="none" points="1692.38,-879.5 1692.38,-917.75 1940.62,-917.75 1940.62,-879.5 1692.38,-879.5"/>
<polygon fill="none" stroke="#a80000" points="1692.38,-879.5 1692.38,-917.75 1940.62,-917.75 1940.62,-879.5 1692.38,-879.5"/>
<text text-anchor="start" x="1695.38" y="-884.35" font-family="sans-serif" font-size="32.00">To General Store</text>
<polygon fill="white" stroke="none" points="1692.38,-839.25 1692.38,-877.5 1940.62,-877.5 1940.62,-839.25 1692.38,-839.25"/>
<polygon fill="none" stroke="#a80000" points="1692.38,-839.25 1692.38,-877.5 1940.62,-877.5 1940.62,-839.25 1692.38,-839.25"/>
<text text-anchor="start" x="1757.62" y="-844.1" font-family="sans-serif" font-size="32.00">To Hotel</text>
<polygon fill="none" stroke="#a80000" points="1689.38,-836.25 1689.38,-961 1943.62,-961 1943.62,-836.25 1689.38,-836.25"/>
</a>
</g>
</g>
<!-- C_alcohol&#45;&gt;I_port -->
<g id="edge1" class="edge">
<title>C_alcohol&#45;&gt;I_port</title>
<g id="a_edge1"><a xlink:title="Alcohol &#45;&gt; Port">
<path fill="none" stroke="#a80000" stroke-width="5" d="M1951.92,-870.96C1971.79,-866.87 1992.54,-862.6 2013.19,-858.35"/>
<polygon fill="#a80000" stroke="#a80000" stroke-width="5" points="2014.8,-866.95 2032.63,-854.35 2011.28,-849.81 2014.8,-866.95"/>
</a>
</g>
</g>
<!-- C_coffee&#45;&gt;I_port -->
<g id="edge5" class="edge">
<title>C_coffee&#45;&gt;I_port</title>
<g id="a_edge5"><a xlink:title="Coffee &#45;&gt; Port">
<path fill="none" stroke="#347084" stroke-width="5" d="M1877.64,-1037.58C1908,-1027.74 1944.81,-1013.88 1975.5,-996.62 1989.46,-988.78 2003.45,-980.07 2017.24,-970.85"/>
<polygon fill="#347084" stroke="#347084" stroke-width="5" points="2022.12,-978.11 2033.59,-959.53 2012.16,-963.72 2022.12,-978.11"/>
</a>
</g>
</g>
<!-- C_copper -->
<g id="copper" class="node">
<title>C_copper</title>
<g id="a_copper"><a xlink:href="cargos.html#copper" xlink:title="&lt;TABLE&gt;" target="_top">
<polygon fill="#a89a28" stroke="#a89a28" points="1883.38,-653.75 1749.62,-653.75 1749.62,-601.5 1883.38,-601.5 1883.38,-653.75"/>
<polygon fill="none" stroke="#a89a28" points="1760.62,-608.5 1760.62,-646.75 1872.38,-646.75 1872.38,-608.5 1760.62,-608.5"/>
<text text-anchor="start" x="1763.62" y="-613.35" font-family="sans-serif" font-size="32.00" fill="white">Copper</text>
<polygon fill="none" stroke="#a89a28" points="1757.62,-605.5 1757.62,-649.75 1875.38,-649.75 1875.38,-605.5 1757.62,-605.5"/>
</a>
</g>
</g>
<!-- C_copper&#45;&gt;I_port -->
<g id="edge6" class="edge">
<title>C_copper&#45;&gt;I_port</title>
<g id="a_edge6"><a xlink:title="Copper &#45;&gt; Port">
<path fill="none" stroke="#a89a28" stroke-width="5" d="M1883.69,-648.12C1912.46,-657.88 1946.21,-670.51 1975.5,-684.62 1988.89,-691.08 2002.5,-698.12 2016.05,-705.51"/>
<polygon fill="#a89a28" stroke="#a89a28" stroke-width="5" points="2011.58,-713.03 2033.3,-715.15 2020.12,-697.76 2011.58,-713.03"/>
</a>
</g>
</g>
<!-- C_wool&#45;&gt;I_port -->
<g id="edge15" class="edge">
<title>C_wool&#45;&gt;I_port</title>
<g id="a_edge15"><a xlink:title="Wool &#45;&gt; Port">
<path fill="none" stroke="#a8926d" stroke-width="5" d="M1866.66,-752.74C1904.44,-760.52 1959.15,-771.78 2013.19,-782.9"/>
<polygon fill="#a8926d" stroke="#a8926d" stroke-width="5" points="2011.28,-791.44 2032.63,-786.9 2014.81,-774.3 2011.28,-791.44"/>
</a>
</g>
</g>
<!-- I_copper_smelter&#45;&gt;C_copper -->
<g id="edge22" class="edge">
<title>I_copper_smelter&#45;&gt;C_copper</title>
<g id="a_edge22"><a xlink:title="Copper Smelter &#45;&gt; Copper">
<path fill="none" stroke="#a89a28" stroke-width="5" d="M1594.49,-591.47C1648.72,-600.34 1706.49,-609.79 1749.36,-616.81"/>
</a>
</g>
</g>
<!-- C_grain&#45;&gt;I_flour_mill -->
<g id="edge11" class="edge">
<title>C_grain&#45;&gt;I_flour_mill</title>
<g id="a_edge11"><a xlink:title="Grain &#45;&gt; Flour Mill">
<path fill="none" stroke="#505050" stroke-width="5" d="M514.6,-1771.25C537.33,-1773.26 565.46,-1775.75 594.8,-1778.35"/>
<polygon fill="#505050" stroke="#505050" stroke-width="5" points="593.89,-1787.05 614.58,-1780.1 595.43,-1769.62 593.89,-1787.05"/>
</a>
</g>
</g>
<!-- C_livestock&#45;&gt;I_stockyard -->
<g id="edge12" class="edge">
<title>C_livestock&#45;&gt;I_stockyard</title>
<g id="a_edge12"><a xlink:title="Livestock &#45;&gt; Stockyard">
<path fill="none" stroke="#468fa8" stroke-width="5" d="M542.18,-1071.22C558.63,-1073.41 576.59,-1075.79 595.02,-1078.24"/>
<polygon fill="#468fa8" stroke="#468fa8" stroke-width="5" points="593.66,-1086.89 614.64,-1080.85 595.97,-1069.54 593.66,-1086.89"/>
</a>
</g>
</g>
<!-- I_chemical_plant&#45;&gt;C_chemicals -->
<g id="edge18" class="edge">
<title>I_chemical_plant&#45;&gt;C_chemicals</title>
<g id="a_edge18"><a xlink:title="Chemical Plant &#45;&gt; Chemicals">
<path fill="none" stroke="#a86052" stroke-width="5" d="M938.27,-342.62C984.37,-367.47 1031.41,-392.83 1065.28,-411.09"/>
</a>
</g>
</g>
<!-- I_copper_mine -->
<g id="copper_mine" class="node">
<title>I_copper_mine</title>
<g id="a_copper_mine"><a xlink:href="industries.html#copper_mine" xlink:title="Copper Mine" target="_top">
<polygon fill="white" stroke="none" points="628.62,-434 628.62,-671.25 930.62,-671.25 930.62,-434 628.62,-434"/>
<polygon fill="none" stroke="#c1cdcd" points="628.62,-504.25 628.62,-671.25 930.62,-671.25 930.62,-504.25 628.62,-504.25"/>
<image xlink:href="static/img/industries/copper_mine.png" width="300px" height="165px" preserveAspectRatio="xMinYMin meet" x="629.625" y="-670.25"/>
<polygon fill="none" stroke="#c1cdcd" points="628.62,-434 628.62,-504.25 930.62,-504.25 930.62,-434 628.62,-434"/>
<polygon fill="ghostwhite" stroke="none" points="629.62,-435 629.62,-503.25 929.62,-503.25 929.62,-435 629.62,-435"/>
<text text-anchor="start" x="687.38" y="-467.85" font-family="sans-serif" font-size="32.00">Copper Mine</text>
<text text-anchor="start" x="641.62" y="-442" font-family="sans-serif" font-size="20.00">Requires Engineering Supplies</text>
</a>
</g>
</g>
<!-- I_copper_mine&#45;&gt;C_copper_ore -->
<g id="edge21" class="edge">
<title>I_copper_mine&#45;&gt;C_copper_ore</title>
<g id="a_edge21"><a xlink:title="Copper Mine &#45;&gt; Copper Ore">
<path fill="none" stroke="#5d45a8" stroke-width="5" d="M938.27,-552.62C965.29,-552.62 992.63,-552.62 1017.45,-552.62"/>
</a>
</g>
</g>
<!-- I_fishing_grounds -->
<g id="fishing_grounds" class="node">
<title>I_fishing_grounds</title>
<g id="a_fishing_grounds"><a xlink:href="industries.html#fishing_grounds" xlink:title="Fishing Grounds" target="_top">
<polygon fill="white" stroke="none" points="1665.5,-1779 1665.5,-1990.25 1967.5,-1990.25 1967.5,-1779 1665.5,-1779"/>
<polygon fill="none" stroke="#c1cdcd" points="1665.5,-1823.25 1665.5,-1990.25 1967.5,-1990.25 1967.5,-1823.25 1665.5,-1823.25"/>
<image xlink:href="static/img/industries/fishing_grounds.png" width="300px" height="165px" preserveAspectRatio="xMinYMin meet" x="1666.5" y="-1989.25"/>
<polygon fill="none" stroke="#c1cdcd" points="1665.5,-1779 1665.5,-1823.25 1967.5,-1823.25 1967.5,-1779 1665.5,-1779"/>
<polygon fill="ghostwhite" stroke="none" points="1666.5,-1780 1666.5,-1822.25 1966.5,-1822.25 1966.5,-1780 1666.5,-1780"/>
<text text-anchor="start" x="1699.12" y="-1786.85" font-family="sans-serif" font-size="32.00">Fishing Grounds</text>
</a>
</g>
</g>
<!-- I_fishing_grounds&#45;&gt;C_fish -->
<g id="edge23" class="edge">
<title>I_fishing_grounds&#45;&gt;C_fish</title>
<g id="a_edge23"><a xlink:title="Fishing Grounds &#45;&gt; Fish">
<path fill="none" stroke="#882034" stroke-width="5" d="M1975.49,-1884.62C2040.08,-1884.62 2109.69,-1884.62 2153.17,-1884.62"/>
</a>
</g>
</g>
<!-- I_oil_wells -->
<g id="oil_wells" class="node">
<title>I_oil_wells</title>
<g id="a_oil_wells"><a xlink:href="industries.html#oil_wells" xlink:title="Oil Wells" target="_top">
<polygon fill="white" stroke="none" points="8,-338 8,-575.25 310,-575.25 310,-338 8,-338"/>
<polygon fill="none" stroke="#c1cdcd" points="8,-408.25 8,-575.25 310,-575.25 310,-408.25 8,-408.25"/>
<image xlink:href="static/img/industries/oil_wells.png" width="300px" height="165px" preserveAspectRatio="xMinYMin meet" x="9" y="-574.25"/>
<polygon fill="none" stroke="#c1cdcd" points="8,-338 8,-408.25 310,-408.25 310,-338 8,-338"/>
<polygon fill="ghostwhite" stroke="none" points="9,-339 9,-407.25 309,-407.25 309,-339 9,-339"/>
<text text-anchor="start" x="97.12" y="-371.85" font-family="sans-serif" font-size="32.00">Oil Wells</text>
<text text-anchor="start" x="21" y="-346" font-family="sans-serif" font-size="20.00">Requires Engineering Supplies</text>
</a>
</g>
</g>
<!-- I_oil_wells&#45;&gt;C_oil -->
<g id="edge28" class="edge">
<title>I_oil_wells&#45;&gt;C_oil</title>
<g id="a_edge28"><a xlink:title="Oil Wells &#45;&gt; Oil">
<path fill="none" stroke="#7d70a8" stroke-width="5" d="M317.66,-376.84C359.59,-355.63 400.74,-334.8 427.99,-321.01"/>
</a>
</g>
</g>
<!-- I_vineyard -->
<g id="vineyard" class="node">
<title>I_vineyard</title>
<g id="a_vineyard"><a xlink:href="industries.html#vineyard" xlink:title="Vineyard" target="_top">
<polygon fill="white" stroke="none" points="8,-984 8,-1221.25 310,-1221.25 310,-984 8,-984"/>
<polygon fill="none" stroke="#c1cdcd" points="8,-1054.25 8,-1221.25 310,-1221.25 310,-1054.25 8,-1054.25"/>
<image xlink:href="static/img/industries/vineyard.png" width="300px" height="165px" preserveAspectRatio="xMinYMin meet" x="9" y="-1220.25"/>
<polygon fill="none" stroke="#c1cdcd" points="8,-984 8,-1054.25 310,-1054.25 310,-984 8,-984"/>
<polygon fill="ghostwhite" stroke="none" points="9,-985 9,-1053.25 309,-1053.25 309,-985 9,-985"/>
<text text-anchor="start" x="96" y="-1017.85" font-family="sans-serif" font-size="32.00">Vineyard</text>
<text text-anchor="start" x="51.75" y="-992" font-family="sans-serif" font-size="20.00">Requires Farm Supplies</text>
</a>
</g>
</g>
<!-- I_vineyard&#45;&gt;C_fruits -->
<g id="edge34" class="edge">
<title>I_vineyard&#45;&gt;C_fruits</title>
<g id="a_edge34"><a xlink:title="Vineyard &#45;&gt; Fruit">
<path fill="none" stroke="#004ca8" stroke-width="5" d="M283.43,-1224.98C295.24,-1237.24 306.93,-1249.6 318,-1261.62 362.39,-1309.84 411.4,-1368.65 438.78,-1402.06"/>
</a>
</g>
</g>
<!-- I_vineyard&#45;&gt;C_alcohol -->
<g id="edge33" class="edge">
<title>I_vineyard&#45;&gt;C_alcohol</title>
<g id="a_edge33"><a xlink:title="Vineyard &#45;&gt; Alcohol">
<path fill="none" stroke="#a80000" stroke-width="5" d="M317.74,-1019.39C440.02,-962.6 615.56,-897.62 778.62,-897.62 778.62,-897.62 778.62,-897.62 1116.5,-897.62 1312.94,-897.62 1540.44,-898.02 1681.17,-898.32"/>
</a>
</g>
</g>
</g>
</svg>
