<?xml version="1.0" encoding="UTF-8" standalone="no"?>
<?xml-stylesheet href="static/css/cargoflow_styles.css" type="text/css"?>
<!DOCTYPE svg PUBLIC "-//W3C//DTD SVG 1.1//EN"
 "http://www.w3.org/Graphics/SVG/1.1/DTD/svg11.dtd">
<!-- Generated by graphviz version 2.44.1 (20200629.0846)
 -->
<!-- Title: arctic_basic Pages: 1 -->
<svg width="2891pt" height="2684pt"
 viewBox="0.00 0.00 2891.00 2684.00" xmlns="http://www.w3.org/2000/svg" xmlns:xlink="http://www.w3.org/1999/xlink">
<g id="graph0" class="graph" transform="scale(1 1) rotate(0) translate(4 2680)">
<title>arctic_basic</title>
<g id="a_graph0"><a xlink:title="Arctic Basic">
<polygon fill="white" stroke="transparent" points="-4,4 -4,-2680 2887,-2680 2887,4 -4,4"/>
</a>
</g>
<g id="clust2" class="cluster">
<title>cluster_town_industries</title>
<g id="a_clust2"><a xlink:title="Arctic Basic">
<polygon fill="#e0eeee" stroke="#c1cdcd" points="1210,-369.5 1210,-1313.5 1554,-1313.5 1554,-369.5 1210,-369.5"/>
</a>
</g>
</g>
<!-- T_towns_food -->
<g id="node1" class="node">
<title>T_towns_food</title>
<polygon fill="none" stroke="orange" stroke-width="5" points="1451.5,-315 1312.5,-315 1312.5,-232 1451.5,-232 1451.5,-315"/>
<text text-anchor="middle" x="1382" y="-265.4" font-family="sans-serif" font-size="32.00" fill="orange">Towns</text>
</g>
<!-- T_town_industries -->
<g id="node2" class="node">
<title>T_town_industries</title>
<text text-anchor="middle" x="1382" y="-1275.4" font-family="sans-serif" font-size="32.00">Town Industries</text>
</g>
<!-- I_general_store -->
<g id="general_store" class="node">
<title>I_general_store</title>
<g id="a_general_store"><a xlink:href="industries.html#general_store" xlink:title="General Store" target="_top">
<polygon fill="none" stroke="#c1cdcd" points="1226,-977.5 1226,-1194.5 1538,-1194.5 1538,-977.5 1226,-977.5"/>
<polygon fill="ghostwhite" stroke="transparent" points="1227,-978.5 1227,-1193.5 1537,-1193.5 1537,-978.5 1227,-978.5"/>
<image xlink:href="static/img/industries/general_store.png" width="300px" height="165px" preserveAspectRatio="xMinYMin meet" x="1232" y="-1188.5"/>
<text text-anchor="start" x="1339.5" y="-1007.3" font-family="sans-serif" font-size="14.00">General Store</text>
<text text-anchor="start" x="1337.5" y="-987.3" font-family="sans-serif" font-size="14.00">Requires Food</text>
</a>
</g>
</g>
<!-- I_hotel -->
<g id="hotel" class="node">
<title>I_hotel</title>
<g id="a_hotel"><a xlink:href="industries.html#hotel" xlink:title="Hotel" target="_top">
<polygon fill="none" stroke="#c1cdcd" points="1226,-669.5 1226,-906.5 1538,-906.5 1538,-669.5 1226,-669.5"/>
<polygon fill="ghostwhite" stroke="transparent" points="1227,-670.5 1227,-905.5 1537,-905.5 1537,-670.5 1227,-670.5"/>
<image xlink:href="static/img/industries/hotel.png" width="300px" height="165px" preserveAspectRatio="xMinYMin meet" x="1232" y="-900.5"/>
<text text-anchor="start" x="1366" y="-719.3" font-family="sans-serif" font-size="14.00">Hotel</text>
<text text-anchor="start" x="1337.5" y="-699.3" font-family="sans-serif" font-size="14.00">Requires Food</text>
<text text-anchor="start" x="1317" y="-679.3" font-family="sans-serif" font-size="14.00">Requires Passengers</text>
</a>
</g>
</g>
<!-- I_power_plant -->
<g id="power_plant" class="node">
<title>I_power_plant</title>
<g id="a_power_plant"><a xlink:href="industries.html#power_plant" xlink:title="Power Plant" target="_top">
<polygon fill="none" stroke="#c1cdcd" points="1226,-381.5 1226,-598.5 1538,-598.5 1538,-381.5 1226,-381.5"/>
<polygon fill="ghostwhite" stroke="transparent" points="1227,-382.5 1227,-597.5 1537,-597.5 1537,-382.5 1227,-382.5"/>
<image xlink:href="static/img/industries/power_plant.png" width="300px" height="165px" preserveAspectRatio="xMinYMin meet" x="1232" y="-592.5"/>
<text text-anchor="start" x="1345.5" y="-411.3" font-family="sans-serif" font-size="14.00">Power Plant</text>
<text text-anchor="start" x="1339" y="-391.3" font-family="sans-serif" font-size="14.00">Requires Peat</text>
</a>
</g>
</g>
<!-- C_ammonia -->
<g id="ammonia" class="node">
<title>C_ammonia</title>
<g id="a_ammonia"><a xlink:href="cargos.html#ammonia" xlink:title="Ammonia" target="_top">
<polygon fill="#a80000" stroke="#a80000" points="1146,-2509 994,-2509 994,-2466 1146,-2466 1146,-2509"/>
<text text-anchor="middle" x="1070" y="-2479.4" font-family="sans-serif" font-size="32.00" fill="white">Ammonia</text>
</a>
</g>
</g>
<!-- I_chemical_plant -->
<g id="chemical_plant" class="node">
<title>I_chemical_plant</title>
<g id="a_chemical_plant"><a xlink:href="industries.html#chemical_plant" xlink:title="Chemical Plant" target="_top">
<polygon fill="none" stroke="#c1cdcd" points="1231,-2271.5 1231,-2438.5 1533,-2438.5 1533,-2271.5 1231,-2271.5"/>
<image xlink:href="static/img/industries/chemical_plant.png" width="300px" height="165px" preserveAspectRatio="xMinYMin meet" x="1232" y="-2437.5"/>
<polygon fill="none" stroke="#c1cdcd" points="1231,-2224.5 1231,-2271.5 1533,-2271.5 1533,-2224.5 1231,-2224.5"/>
<polygon fill="ghostwhite" stroke="transparent" points="1232,-2225.5 1232,-2270.5 1532,-2270.5 1532,-2225.5 1232,-2225.5"/>
<text text-anchor="start" x="1274" y="-2239.9" font-family="sans-serif" font-size="32.00">Chemical Plant</text>
</a>
</g>
</g>
<!-- C_ammonia&#45;&gt;I_chemical_plant -->
<g id="edge1" class="edge">
<title>C_ammonia&#45;&gt;I_chemical_plant</title>
<g id="a_edge1"><a xlink:title="Ammonia &#45;&gt; Chemical Plant">
<path fill="none" stroke="#a80000" stroke-width="5" d="M1113.78,-2465.97C1138.32,-2453.62 1170.95,-2437.2 1204.95,-2420.09"/>
<polygon fill="#a80000" stroke="#a80000" stroke-width="5" points="1208.89,-2427.9 1222.83,-2411.1 1201.03,-2412.27 1208.89,-2427.9"/>
</a>
</g>
</g>
<!-- C_explosives -->
<g id="explosives" class="node">
<title>C_explosives</title>
<g id="a_explosives"><a xlink:href="cargos.html#explosives" xlink:title="Explosives" target="_top">
<polygon fill="#a86052" stroke="#a86052" points="1777,-2198 1609,-2198 1609,-2155 1777,-2155 1777,-2198"/>
<text text-anchor="middle" x="1693" y="-2168.4" font-family="sans-serif" font-size="32.00" fill="white">Explosives</text>
</a>
</g>
</g>
<!-- I_chemical_plant&#45;&gt;C_explosives -->
<g id="edge18" class="edge">
<title>I_chemical_plant&#45;&gt;C_explosives</title>
<g id="a_edge18"><a xlink:title="Chemical Plant &#45;&gt; Explosives">
<path fill="none" stroke="#a86052" stroke-width="5" d="M1541.12,-2252.18C1580.91,-2232.22 1620.39,-2212.42 1648.97,-2198.08"/>
</a>
</g>
</g>
<!-- C_fertiliser -->
<g id="fertiliser" class="node">
<title>C_fertiliser</title>
<g id="a_fertiliser"><a xlink:href="cargos.html#fertiliser" xlink:title="Fertiliser" target="_top">
<polygon fill="#347084" stroke="#347084" points="1762,-2442 1624,-2442 1624,-2399 1762,-2399 1762,-2442"/>
<text text-anchor="middle" x="1693" y="-2412.4" font-family="sans-serif" font-size="32.00" fill="white">Fertiliser</text>
</a>
</g>
</g>
<!-- I_chemical_plant&#45;&gt;C_fertiliser -->
<g id="edge19" class="edge">
<title>I_chemical_plant&#45;&gt;C_fertiliser</title>
<g id="a_edge19"><a xlink:title="Chemical Plant &#45;&gt; Fertiliser">
<path fill="none" stroke="#347084" stroke-width="5" d="M1541.12,-2377.04C1570.22,-2385.43 1599.16,-2393.76 1623.78,-2400.85"/>
</a>
</g>
</g>
<!-- I_wharf -->
<g id="wharf" class="node">
<title>I_wharf</title>
<g id="a_wharf"><a xlink:href="industries.html#wharf" xlink:title="Wharf" target="_top">
<polygon fill="none" stroke="#c1cdcd" points="1848,-2037.5 1848,-2204.5 2150,-2204.5 2150,-2037.5 1848,-2037.5"/>
<image xlink:href="static/img/industries/wharf.png" width="300px" height="165px" preserveAspectRatio="xMinYMin meet" x="1849" y="-2203.5"/>
<polygon fill="none" stroke="#c1cdcd" points="1848,-1936.5 1848,-2037.5 2150,-2037.5 2150,-1936.5 1848,-1936.5"/>
<polygon fill="ghostwhite" stroke="transparent" points="1849,-1937.5 1849,-2036.5 2149,-2036.5 2149,-1937.5 1849,-1937.5"/>
<text text-anchor="start" x="1956" y="-2005.9" font-family="sans-serif" font-size="32.00">Wharf</text>
<text text-anchor="start" x="1858.5" y="-1975.5" font-family="sans-serif" font-size="20.00">Produces Engineering Supplies</text>
<text text-anchor="start" x="1889" y="-1948.5" font-family="sans-serif" font-size="20.00">Produces Farm Supplies</text>
</a>
</g>
</g>
<!-- C_explosives&#45;&gt;I_wharf -->
<g id="edge2" class="edge">
<title>C_explosives&#45;&gt;I_wharf</title>
<g id="a_edge2"><a xlink:title="Explosives &#45;&gt; Wharf">
<path fill="none" stroke="#a86052" stroke-width="5" d="M1755.89,-2154.92C1775.17,-2148.2 1797.49,-2140.41 1820.61,-2132.35"/>
<polygon fill="#a86052" stroke="#a86052" stroke-width="5" points="1823.73,-2140.53 1839.73,-2125.69 1817.97,-2124.01 1823.73,-2140.53"/>
</a>
</g>
</g>
<!-- C_potash -->
<g id="potash" class="node">
<title>C_potash</title>
<g id="a_potash"><a xlink:href="cargos.html#potash" xlink:title="Potash" target="_top">
<polygon fill="#505050" stroke="#505050" points="2337,-2325 2221,-2325 2221,-2282 2337,-2282 2337,-2325"/>
<text text-anchor="middle" x="2279" y="-2295.4" font-family="sans-serif" font-size="32.00" fill="white">Potash</text>
</a>
</g>
</g>
<!-- I_wharf&#45;&gt;C_potash -->
<g id="edge34" class="edge">
<title>I_wharf&#45;&gt;C_potash</title>
<g id="a_edge34"><a xlink:title="Wharf &#45;&gt; Potash">
<path fill="none" stroke="#505050" stroke-width="5" d="M2158.09,-2203C2194.76,-2233.73 2229.62,-2262.96 2252.21,-2281.89"/>
</a>
</g>
</g>
<!-- I_port -->
<g id="port" class="node">
<title>I_port</title>
<g id="a_port"><a xlink:href="industries.html#port" xlink:title="Port" target="_top">
<polygon fill="none" stroke="#c1cdcd" points="1848,-2503.5 1848,-2670.5 2150,-2670.5 2150,-2503.5 1848,-2503.5"/>
<image xlink:href="static/img/industries/port.png" width="300px" height="165px" preserveAspectRatio="xMinYMin meet" x="1849" y="-2669.5"/>
<polygon fill="none" stroke="#c1cdcd" points="1848,-2402.5 1848,-2503.5 2150,-2503.5 2150,-2402.5 1848,-2402.5"/>
<polygon fill="ghostwhite" stroke="transparent" points="1849,-2403.5 1849,-2502.5 2149,-2502.5 2149,-2403.5 1849,-2403.5"/>
<text text-anchor="start" x="1969.5" y="-2471.9" font-family="sans-serif" font-size="32.00">Port</text>
<text text-anchor="start" x="1858.5" y="-2441.5" font-family="sans-serif" font-size="20.00">Produces Engineering Supplies</text>
<text text-anchor="start" x="1889" y="-2414.5" font-family="sans-serif" font-size="20.00">Produces Farm Supplies</text>
</a>
</g>
</g>
<!-- C_fertiliser&#45;&gt;I_port -->
<g id="edge3" class="edge">
<title>C_fertiliser&#45;&gt;I_port</title>
<g id="a_edge3"><a xlink:title="Fertiliser &#45;&gt; Port">
<path fill="none" stroke="#347084" stroke-width="5" d="M1750.47,-2442.05C1770.96,-2449.86 1795.34,-2459.17 1820.68,-2468.84"/>
<polygon fill="#347084" stroke="#347084" stroke-width="5" points="1817.93,-2477.16 1839.74,-2476.11 1824.17,-2460.81 1817.93,-2477.16"/>
</a>
</g>
</g>
<!-- I_port&#45;&gt;C_ammonia -->
<g id="edge28" class="edge">
<title>I_port&#45;&gt;C_ammonia</title>
<g id="a_edge28"><a xlink:title="Port &#45;&gt; Ammonia">
<path fill="none" stroke="#a80000" stroke-width="5" d="M1839.68,-2528.13C1637.69,-2517.45 1296.5,-2499.42 1146.08,-2491.47"/>
</a>
</g>
</g>
<!-- C_kaolin -->
<g id="kaolin" class="node">
<title>C_kaolin</title>
<g id="a_kaolin"><a xlink:href="cargos.html#kaolin" xlink:title="Kaolin" target="_top">
<polygon fill="#5d45a8" stroke="#5d45a8" points="2331.5,-2441 2226.5,-2441 2226.5,-2398 2331.5,-2398 2331.5,-2441"/>
<text text-anchor="middle" x="2279" y="-2411.4" font-family="sans-serif" font-size="32.00" fill="white">Kaolin</text>
</a>
</g>
</g>
<!-- I_port&#45;&gt;C_kaolin -->
<g id="edge29" class="edge">
<title>I_port&#45;&gt;C_kaolin</title>
<g id="a_edge29"><a xlink:title="Port &#45;&gt; Kaolin">
<path fill="none" stroke="#5d45a8" stroke-width="5" d="M2158.09,-2469.97C2182.9,-2459.52 2206.89,-2449.43 2226.8,-2441.05"/>
</a>
</g>
</g>
<!-- C_fish -->
<g id="fish" class="node">
<title>C_fish</title>
<g id="a_fish"><a xlink:href="cargos.html#fish" xlink:title="Fish" target="_top">
<polygon fill="#a89a28" stroke="#a89a28" points="499.5,-445 422.5,-445 422.5,-402 499.5,-402 499.5,-445"/>
<text text-anchor="middle" x="461" y="-415.4" font-family="sans-serif" font-size="32.00" fill="white">Fish</text>
</a>
</g>
</g>
<!-- I_fishing_harbour -->
<g id="fishing_harbour" class="node">
<title>I_fishing_harbour</title>
<g id="a_fishing_harbour"><a xlink:href="industries.html#fishing_harbour" xlink:title="Fishing Harbour" target="_top">
<polygon fill="none" stroke="#c1cdcd" points="612,-363.5 612,-530.5 914,-530.5 914,-363.5 612,-363.5"/>
<image xlink:href="static/img/industries/fishing_harbour.png" width="300px" height="165px" preserveAspectRatio="xMinYMin meet" x="613" y="-529.5"/>
<polygon fill="none" stroke="#c1cdcd" points="612,-316.5 612,-363.5 914,-363.5 914,-316.5 612,-316.5"/>
<polygon fill="ghostwhite" stroke="transparent" points="613,-317.5 613,-362.5 913,-362.5 913,-317.5 613,-317.5"/>
<text text-anchor="start" x="648.5" y="-331.9" font-family="sans-serif" font-size="32.00">Fishing Harbour</text>
</a>
</g>
</g>
<!-- C_fish&#45;&gt;I_fishing_harbour -->
<g id="edge4" class="edge">
<title>C_fish&#45;&gt;I_fishing_harbour</title>
<g id="a_edge4"><a xlink:title="Fish &#45;&gt; Fishing Harbour">
<path fill="none" stroke="#a89a28" stroke-width="5" d="M499.69,-423.5C521.87,-423.5 551.72,-423.5 583.33,-423.5"/>
<polygon fill="#a89a28" stroke="#a89a28" stroke-width="5" points="583.74,-432.25 603.74,-423.5 583.74,-414.75 583.74,-432.25"/>
</a>
</g>
</g>
<!-- C_food -->
<g id="food" class="node">
<title>C_food</title>
<g id="a_food"><a xlink:href="cargos.html#food" xlink:title="Food" target="_top">
<polygon fill="#a84800" stroke="#a84800" points="1115,-295 1025,-295 1025,-252 1115,-252 1115,-295"/>
<text text-anchor="middle" x="1070" y="-265.4" font-family="sans-serif" font-size="32.00" fill="white">Food</text>
</a>
</g>
</g>
<!-- I_fishing_harbour&#45;&gt;C_food -->
<g id="edge22" class="edge">
<title>I_fishing_harbour&#45;&gt;C_food</title>
<g id="a_edge22"><a xlink:title="Fishing Harbour &#45;&gt; Food">
<path fill="none" stroke="#a84800" stroke-width="5" d="M922.31,-345.64C960.17,-327.03 997.55,-308.64 1025.1,-295.09"/>
</a>
</g>
</g>
<!-- C_food&#45;&gt;T_towns_food -->
<g id="edge5" class="edge">
<title>C_food&#45;&gt;T_towns_food</title>
<path fill="none" stroke="orange" stroke-width="5" d="M1115.09,-273.5C1160.97,-273.5 1234.07,-273.5 1292.03,-273.5"/>
<polygon fill="orange" stroke="orange" stroke-width="5" points="1292.22,-282.25 1312.22,-273.5 1292.22,-264.75 1292.22,-282.25"/>
</g>
<!-- I_paper_mill -->
<g id="paper_mill" class="node">
<title>I_paper_mill</title>
<g id="a_paper_mill"><a xlink:href="industries.html#paper_mill" xlink:title="Paper Mill" target="_top">
<polygon fill="none" stroke="#c1cdcd" points="2408,-1752.5 2408,-1919.5 2710,-1919.5 2710,-1752.5 2408,-1752.5"/>
<image xlink:href="static/img/industries/paper_mill.png" width="300px" height="165px" preserveAspectRatio="xMinYMin meet" x="2409" y="-1918.5"/>
<polygon fill="none" stroke="#c1cdcd" points="2408,-1705.5 2408,-1752.5 2710,-1752.5 2710,-1705.5 2408,-1705.5"/>
<polygon fill="ghostwhite" stroke="transparent" points="2409,-1706.5 2409,-1751.5 2709,-1751.5 2709,-1706.5 2409,-1706.5"/>
<text text-anchor="start" x="2488" y="-1720.9" font-family="sans-serif" font-size="32.00">Paper Mill</text>
</a>
</g>
</g>
<!-- C_kaolin&#45;&gt;I_paper_mill -->
<g id="edge6" class="edge">
<title>C_kaolin&#45;&gt;I_paper_mill</title>
<g id="a_edge6"><a xlink:title="Kaolin &#45;&gt; Paper Mill">
<path fill="none" stroke="#5d45a8" stroke-width="5" d="M2303.2,-2397.74C2314.48,-2386.27 2327.59,-2371.49 2337,-2356.5 2419.63,-2224.9 2482.21,-2057.15 2519.32,-1942.95"/>
<polygon fill="#5d45a8" stroke="#5d45a8" stroke-width="5" points="2527.73,-1945.41 2525.51,-1923.69 2511.06,-1940.06 2527.73,-1945.41"/>
</a>
</g>
</g>
<!-- C_paper -->
<g id="paper" class="node">
<title>C_paper</title>
<g id="a_paper"><a xlink:href="cargos.html#paper" xlink:title="Paper" target="_top">
<polygon fill="#74581c" stroke="#74581c" points="2883,-2558 2781,-2558 2781,-2515 2883,-2515 2883,-2558"/>
<text text-anchor="middle" x="2832" y="-2528.4" font-family="sans-serif" font-size="32.00" fill="white">Paper</text>
</a>
</g>
</g>
<!-- I_paper_mill&#45;&gt;C_paper -->
<g id="edge25" class="edge">
<title>I_paper_mill&#45;&gt;C_paper</title>
<g id="a_edge25"><a xlink:title="Paper Mill &#45;&gt; Paper">
<path fill="none" stroke="#74581c" stroke-width="5" d="M2601.6,-1923.64C2667.11,-2098.65 2790.22,-2427.54 2822.88,-2514.8"/>
</a>
</g>
</g>
<!-- C_paper&#45;&gt;I_port -->
<g id="edge7" class="edge">
<title>C_paper&#45;&gt;I_port</title>
<g id="a_edge7"><a xlink:title="Paper &#45;&gt; Port">
<path fill="none" stroke="#74581c" stroke-width="5" d="M2780.57,-2536.5C2663.87,-2536.5 2370.51,-2536.5 2178.54,-2536.5"/>
<polygon fill="#74581c" stroke="#74581c" stroke-width="5" points="2178.26,-2527.75 2158.26,-2536.5 2178.26,-2545.25 2178.26,-2527.75"/>
</a>
</g>
</g>
<!-- C_peat -->
<g id="peat" class="node">
<title>C_peat</title>
<g id="a_peat"><a xlink:href="cargos.html#peat" xlink:title="Peat" target="_top">
<polygon fill="#882034" stroke="#882034" points="1734.5,-2092 1651.5,-2092 1651.5,-2049 1734.5,-2049 1734.5,-2092"/>
<text text-anchor="middle" x="1693" y="-2062.4" font-family="sans-serif" font-size="32.00" fill="white">Peat</text>
</a>
</g>
</g>
<!-- C_peat&#45;&gt;I_wharf -->
<g id="edge8" class="edge">
<title>C_peat&#45;&gt;I_wharf</title>
<g id="a_edge8"><a xlink:title="Peat &#45;&gt; Wharf">
<path fill="none" stroke="#882034" stroke-width="5" d="M1734.68,-2070.5C1757.59,-2070.5 1787.98,-2070.5 1819.94,-2070.5"/>
<polygon fill="#882034" stroke="#882034" stroke-width="5" points="1820,-2079.25 1840,-2070.5 1820,-2061.75 1820,-2079.25"/>
</a>
</g>
</g>
<!-- C_phosphate -->
<g id="phosphate" class="node">
<title>C_phosphate</title>
<g id="a_phosphate"><a xlink:href="cargos.html#phosphate" xlink:title="Phosphate" target="_top">
<polygon fill="#004ca8" stroke="#004ca8" points="1155,-2353 985,-2353 985,-2310 1155,-2310 1155,-2353"/>
<text text-anchor="middle" x="1070" y="-2323.4" font-family="sans-serif" font-size="32.00" fill="white">Phosphate</text>
</a>
</g>
</g>
<!-- C_phosphate&#45;&gt;I_chemical_plant -->
<g id="edge9" class="edge">
<title>C_phosphate&#45;&gt;I_chemical_plant</title>
<g id="a_edge9"><a xlink:title="Phosphate &#45;&gt; Chemical Plant">
<path fill="none" stroke="#004ca8" stroke-width="5" d="M1155.3,-2331.5C1170.21,-2331.5 1186.24,-2331.5 1202.62,-2331.5"/>
<polygon fill="#004ca8" stroke="#004ca8" stroke-width="5" points="1202.73,-2340.25 1222.73,-2331.5 1202.73,-2322.75 1202.73,-2340.25"/>
</a>
</g>
</g>
<!-- C_potash&#45;&gt;I_chemical_plant -->
<g id="edge10" class="edge">
<title>C_potash&#45;&gt;I_chemical_plant</title>
<g id="a_edge10"><a xlink:title="Potash &#45;&gt; Chemical Plant">
<path fill="none" stroke="#505050" stroke-width="5" d="M2220.55,-2305.3C2089.85,-2309.39 1765.79,-2319.52 1561.23,-2325.92"/>
<polygon fill="#505050" stroke="#505050" stroke-width="5" points="1560.92,-2317.18 1541.2,-2326.55 1561.47,-2334.67 1560.92,-2317.18"/>
</a>
</g>
</g>
<!-- C_pyrite_ore -->
<g id="pyrite_ore" class="node">
<title>C_pyrite_ore</title>
<g id="a_pyrite_ore"><a xlink:href="cargos.html#pyrite_ore" xlink:title="Pyrite Ore" target="_top">
<polygon fill="#468fa8" stroke="#468fa8" points="541,-2247 381,-2247 381,-2204 541,-2204 541,-2247"/>
<text text-anchor="middle" x="461" y="-2217.4" font-family="sans-serif" font-size="32.00" fill="white">Pyrite Ore</text>
</a>
</g>
</g>
<!-- I_pyrite_smelter -->
<g id="pyrite_smelter" class="node">
<title>I_pyrite_smelter</title>
<g id="a_pyrite_smelter"><a xlink:href="industries.html#pyrite_smelter" xlink:title="Pyrite Smelter" target="_top">
<polygon fill="none" stroke="#c1cdcd" points="612,-2165.5 612,-2332.5 914,-2332.5 914,-2165.5 612,-2165.5"/>
<image xlink:href="static/img/industries/pyrite_smelter.png" width="300px" height="165px" preserveAspectRatio="xMinYMin meet" x="613" y="-2331.5"/>
<polygon fill="none" stroke="#c1cdcd" points="612,-2118.5 612,-2165.5 914,-2165.5 914,-2118.5 612,-2118.5"/>
<polygon fill="ghostwhite" stroke="transparent" points="613,-2119.5 613,-2164.5 913,-2164.5 913,-2119.5 613,-2119.5"/>
<text text-anchor="start" x="662.5" y="-2133.9" font-family="sans-serif" font-size="32.00">Pyrite Smelter</text>
</a>
</g>
</g>
<!-- C_pyrite_ore&#45;&gt;I_pyrite_smelter -->
<g id="edge11" class="edge">
<title>C_pyrite_ore&#45;&gt;I_pyrite_smelter</title>
<g id="a_edge11"><a xlink:title="Pyrite Ore &#45;&gt; Pyrite Smelter">
<path fill="none" stroke="#468fa8" stroke-width="5" d="M541.21,-2225.5C554.58,-2225.5 568.92,-2225.5 583.64,-2225.5"/>
<polygon fill="#468fa8" stroke="#468fa8" stroke-width="5" points="583.89,-2234.25 603.89,-2225.5 583.89,-2216.75 583.89,-2234.25"/>
</a>
</g>
</g>
<!-- C_sulphur -->
<g id="sulphur" class="node">
<title>C_sulphur</title>
<g id="a_sulphur"><a xlink:href="cargos.html#sulphur" xlink:title="Sulphur" target="_top">
<polygon fill="#a85050" stroke="#a85050" points="1133.5,-2247 1006.5,-2247 1006.5,-2204 1133.5,-2204 1133.5,-2247"/>
<text text-anchor="middle" x="1070" y="-2217.4" font-family="sans-serif" font-size="32.00" fill="white">Sulphur</text>
</a>
</g>
</g>
<!-- I_pyrite_smelter&#45;&gt;C_sulphur -->
<g id="edge31" class="edge">
<title>I_pyrite_smelter&#45;&gt;C_sulphur</title>
<g id="a_edge31"><a xlink:title="Pyrite Smelter &#45;&gt; Sulphur">
<path fill="none" stroke="#a85050" stroke-width="5" d="M922.31,-2225.5C952.19,-2225.5 981.77,-2225.5 1006.46,-2225.5"/>
</a>
</g>
</g>
<!-- C_zinc -->
<g id="zinc" class="node">
<title>C_zinc</title>
<g id="a_zinc"><a xlink:href="cargos.html#zinc" xlink:title="Zinc" target="_top">
<polygon fill="#a8926d" stroke="#a8926d" points="1731.5,-2676 1654.5,-2676 1654.5,-2633 1731.5,-2633 1731.5,-2676"/>
<text text-anchor="middle" x="1693" y="-2646.4" font-family="sans-serif" font-size="32.00" fill="white">Zinc</text>
</a>
</g>
</g>
<!-- I_pyrite_smelter&#45;&gt;C_zinc -->
<g id="edge32" class="edge">
<title>I_pyrite_smelter&#45;&gt;C_zinc</title>
<g id="a_edge32"><a xlink:title="Pyrite Smelter &#45;&gt; Zinc">
<path fill="none" stroke="#a8926d" stroke-width="5" d="M897.39,-2336.77C906.31,-2346.99 914.66,-2357.61 922,-2368.5 967.51,-2436 922.2,-2488.69 985,-2540.5 1188.08,-2708.03 1538.92,-2676.41 1654.13,-2660.48"/>
</a>
</g>
</g>
<!-- C_sulphur&#45;&gt;I_chemical_plant -->
<g id="edge12" class="edge">
<title>C_sulphur&#45;&gt;I_chemical_plant</title>
<g id="a_edge12"><a xlink:title="Sulphur &#45;&gt; Chemical Plant">
<path fill="none" stroke="#a85050" stroke-width="5" d="M1133.73,-2246.95C1154.46,-2254.04 1178.64,-2262.31 1203.62,-2270.85"/>
<polygon fill="#a85050" stroke="#a85050" stroke-width="5" points="1201.07,-2279.22 1222.83,-2277.42 1206.74,-2262.67 1201.07,-2279.22"/>
</a>
</g>
</g>
<!-- C_sulphur&#45;&gt;I_paper_mill -->
<g id="edge13" class="edge">
<title>C_sulphur&#45;&gt;I_paper_mill</title>
<g id="a_edge13"><a xlink:title="Sulphur &#45;&gt; Paper Mill">
<path fill="none" stroke="#a85050" stroke-width="5" d="M1072.39,-2203.9C1077.64,-2141.6 1101.96,-1960.68 1210,-1876.5 1380.47,-1743.68 1475.9,-1812.5 1692,-1812.5 1692,-1812.5 1692,-1812.5 2000,-1812.5 2126.99,-1812.5 2270.25,-1812.5 2379.8,-1812.5"/>
<polygon fill="#a85050" stroke="#a85050" stroke-width="5" points="2379.86,-1821.25 2399.86,-1812.5 2379.86,-1803.75 2379.86,-1821.25"/>
</a>
</g>
</g>
<!-- C_lumber -->
<g id="lumber" class="node">
<title>C_lumber</title>
<g id="a_lumber"><a xlink:href="cargos.html#lumber" xlink:title="Timber" target="_top">
<polygon fill="#a88000" stroke="#a88000" points="1751,-1717 1635,-1717 1635,-1674 1751,-1674 1751,-1717"/>
<text text-anchor="middle" x="1693" y="-1687.4" font-family="sans-serif" font-size="32.00" fill="white">Timber</text>
</a>
</g>
</g>
<!-- C_lumber&#45;&gt;I_wharf -->
<g id="edge14" class="edge">
<title>C_lumber&#45;&gt;I_wharf</title>
<g id="a_edge14"><a xlink:title="Timber &#45;&gt; Wharf">
<path fill="none" stroke="#a88000" stroke-width="5" d="M1711.44,-1717.01C1742.77,-1755.67 1811.15,-1840.01 1873.25,-1916.62"/>
<polygon fill="#a88000" stroke="#a88000" stroke-width="5" points="1866.59,-1922.29 1885.98,-1932.32 1880.18,-1911.27 1866.59,-1922.29"/>
</a>
</g>
</g>
<!-- C_wood -->
<g id="wood" class="node">
<title>C_wood</title>
<g id="a_wood"><a xlink:href="cargos.html#wood" xlink:title="Wood" target="_top">
<polygon fill="#7d70a8" stroke="#7d70a8" points="1120,-1422 1020,-1422 1020,-1379 1120,-1379 1120,-1422"/>
<text text-anchor="middle" x="1070" y="-1392.4" font-family="sans-serif" font-size="32.00" fill="white">Wood</text>
</a>
</g>
</g>
<!-- C_wood&#45;&gt;I_paper_mill -->
<g id="edge15" class="edge">
<title>C_wood&#45;&gt;I_paper_mill</title>
<g id="a_edge15"><a xlink:title="Wood &#45;&gt; Paper Mill">
<path fill="none" stroke="#7d70a8" stroke-width="5" d="M1120.11,-1400.5C1225.07,-1400.5 1479.07,-1400.5 1692,-1400.5 1692,-1400.5 1692,-1400.5 2000,-1400.5 2194.53,-1400.5 2365.75,-1564.56 2465.61,-1685.62"/>
<polygon fill="#7d70a8" stroke="#7d70a8" stroke-width="5" points="2458.93,-1691.27 2478.33,-1701.28 2472.51,-1680.24 2458.93,-1691.27"/>
</a>
</g>
</g>
<!-- I_sawmill -->
<g id="sawmill" class="node">
<title>I_sawmill</title>
<g id="a_sawmill"><a xlink:href="industries.html#sawmill" xlink:title="Sawmill" target="_top">
<polygon fill="none" stroke="#c1cdcd" points="1231,-1546.5 1231,-1713.5 1533,-1713.5 1533,-1546.5 1231,-1546.5"/>
<image xlink:href="static/img/industries/sawmill.png" width="300px" height="165px" preserveAspectRatio="xMinYMin meet" x="1232" y="-1712.5"/>
<polygon fill="none" stroke="#c1cdcd" points="1231,-1499.5 1231,-1546.5 1533,-1546.5 1533,-1499.5 1231,-1499.5"/>
<polygon fill="ghostwhite" stroke="transparent" points="1232,-1500.5 1232,-1545.5 1532,-1545.5 1532,-1500.5 1232,-1500.5"/>
<text text-anchor="start" x="1327" y="-1514.9" font-family="sans-serif" font-size="32.00">Sawmill</text>
</a>
</g>
</g>
<!-- C_wood&#45;&gt;I_sawmill -->
<g id="edge16" class="edge">
<title>C_wood&#45;&gt;I_sawmill</title>
<g id="a_edge16"><a xlink:title="Wood &#45;&gt; Sawmill">
<path fill="none" stroke="#7d70a8" stroke-width="5" d="M1103.59,-1422.16C1129.03,-1439.06 1166.54,-1463.99 1205.81,-1490.08"/>
<polygon fill="#7d70a8" stroke="#7d70a8" stroke-width="5" points="1201.21,-1497.53 1222.71,-1501.32 1210.9,-1482.96 1201.21,-1497.53"/>
</a>
</g>
</g>
<!-- I_sawmill&#45;&gt;C_lumber -->
<g id="edge33" class="edge">
<title>I_sawmill&#45;&gt;C_lumber</title>
<g id="a_edge33"><a xlink:title="Sawmill &#45;&gt; Timber">
<path fill="none" stroke="#a88000" stroke-width="5" d="M1541.12,-1652.04C1574.68,-1661.71 1608.01,-1671.31 1634.77,-1679.02"/>
</a>
</g>
</g>
<!-- C_zinc&#45;&gt;I_port -->
<g id="edge17" class="edge">
<title>C_zinc&#45;&gt;I_port</title>
<g id="a_edge17"><a xlink:title="Zinc &#45;&gt; Port">
<path fill="none" stroke="#a8926d" stroke-width="5" d="M1731.58,-2639.91C1755.04,-2630.81 1787.12,-2618.35 1820.91,-2605.24"/>
<polygon fill="#a8926d" stroke="#a8926d" stroke-width="5" points="1824.33,-2613.3 1839.81,-2597.9 1818,-2596.98 1824.33,-2613.3"/>
</a>
</g>
</g>
<!-- I_fish_farm -->
<g id="fish_farm" class="node">
<title>I_fish_farm</title>
<g id="a_fish_farm"><a xlink:href="industries.html#fish_farm" xlink:title="Fish Farm" target="_top">
<polygon fill="none" stroke="#c1cdcd" points="8,-526.5 8,-693.5 310,-693.5 310,-526.5 8,-526.5"/>
<image xlink:href="static/img/industries/fish_farm.png" width="300px" height="165px" preserveAspectRatio="xMinYMin meet" x="9" y="-692.5"/>
<polygon fill="none" stroke="#c1cdcd" points="8,-452.5 8,-526.5 310,-526.5 310,-452.5 8,-452.5"/>
<polygon fill="ghostwhite" stroke="transparent" points="9,-453.5 9,-525.5 309,-525.5 309,-453.5 9,-453.5"/>
<text text-anchor="start" x="86.5" y="-494.9" font-family="sans-serif" font-size="32.00">Fish Farm</text>
<text text-anchor="start" x="51.5" y="-464.5" font-family="sans-serif" font-size="20.00">Requires Farm Supplies</text>
</a>
</g>
</g>
<!-- I_fish_farm&#45;&gt;C_fish -->
<g id="edge20" class="edge">
<title>I_fish_farm&#45;&gt;C_fish</title>
<g id="a_edge20"><a xlink:title="Fish Farm &#45;&gt; Fish">
<path fill="none" stroke="#a89a28" stroke-width="5" d="M318.35,-494.33C357.22,-474.89 395.35,-455.83 422.24,-442.38"/>
</a>
</g>
</g>
<!-- I_fishing_grounds -->
<g id="fishing_grounds" class="node">
<title>I_fishing_grounds</title>
<g id="a_fishing_grounds"><a xlink:href="industries.html#fishing_grounds" xlink:title="Fishing Grounds" target="_top">
<polygon fill="none" stroke="#c1cdcd" points="8,-214.5 8,-381.5 310,-381.5 310,-214.5 8,-214.5"/>
<image xlink:href="static/img/industries/fishing_grounds.png" width="300px" height="165px" preserveAspectRatio="xMinYMin meet" x="9" y="-380.5"/>
<polygon fill="none" stroke="#c1cdcd" points="8,-167.5 8,-214.5 310,-214.5 310,-167.5 8,-167.5"/>
<polygon fill="ghostwhite" stroke="transparent" points="9,-168.5 9,-213.5 309,-213.5 309,-168.5 9,-168.5"/>
<text text-anchor="start" x="41.5" y="-182.9" font-family="sans-serif" font-size="32.00">Fishing Grounds</text>
</a>
</g>
</g>
<!-- I_fishing_grounds&#45;&gt;C_fish -->
<g id="edge21" class="edge">
<title>I_fishing_grounds&#45;&gt;C_fish</title>
<g id="a_edge21"><a xlink:title="Fishing Grounds &#45;&gt; Fish">
<path fill="none" stroke="#a89a28" stroke-width="5" d="M318.35,-353.15C357.22,-372.45 395.35,-391.39 422.24,-404.74"/>
</a>
</g>
</g>
<!-- I_forest -->
<g id="forest" class="node">
<title>I_forest</title>
<g id="a_forest"><a xlink:href="industries.html#forest" xlink:title="Forest" target="_top">
<polygon fill="none" stroke="#c1cdcd" points="612,-1353.5 612,-1520.5 914,-1520.5 914,-1353.5 612,-1353.5"/>
<image xlink:href="static/img/industries/forest.png" width="300px" height="165px" preserveAspectRatio="xMinYMin meet" x="613" y="-1519.5"/>
<polygon fill="none" stroke="#c1cdcd" points="612,-1279.5 612,-1353.5 914,-1353.5 914,-1279.5 612,-1279.5"/>
<polygon fill="ghostwhite" stroke="transparent" points="613,-1280.5 613,-1352.5 913,-1352.5 913,-1280.5 613,-1280.5"/>
<text text-anchor="start" x="717.5" y="-1321.9" font-family="sans-serif" font-size="32.00">Forest</text>
<text text-anchor="start" x="655.5" y="-1291.5" font-family="sans-serif" font-size="20.00">Requires Farm Supplies</text>
</a>
</g>
</g>
<!-- I_forest&#45;&gt;C_wood -->
<g id="edge23" class="edge">
<title>I_forest&#45;&gt;C_wood</title>
<g id="a_edge23"><a xlink:title="Forest &#45;&gt; Wood">
<path fill="none" stroke="#7d70a8" stroke-width="5" d="M922.31,-1400.5C957.84,-1400.5 992.96,-1400.5 1019.92,-1400.5"/>
</a>
</g>
</g>
<!-- I_herding_coop -->
<g id="herding_coop" class="node">
<title>I_herding_coop</title>
<g id="a_herding_coop"><a xlink:href="industries.html#herding_coop" xlink:title="Herding Co&#45;op" target="_top">
<polygon fill="none" stroke="#c1cdcd" points="612,-77.5 612,-244.5 914,-244.5 914,-77.5 612,-77.5"/>
<image xlink:href="static/img/industries/herding_coop.png" width="300px" height="165px" preserveAspectRatio="xMinYMin meet" x="613" y="-243.5"/>
<polygon fill="none" stroke="#c1cdcd" points="612,-3.5 612,-77.5 914,-77.5 914,-3.5 612,-3.5"/>
<polygon fill="ghostwhite" stroke="transparent" points="613,-4.5 613,-76.5 913,-76.5 913,-4.5 613,-4.5"/>
<text text-anchor="start" x="658" y="-45.9" font-family="sans-serif" font-size="32.00">Herding Co&#45;op</text>
<text text-anchor="start" x="655.5" y="-15.5" font-family="sans-serif" font-size="20.00">Requires Farm Supplies</text>
</a>
</g>
</g>
<!-- I_herding_coop&#45;&gt;C_food -->
<g id="edge24" class="edge">
<title>I_herding_coop&#45;&gt;C_food</title>
<g id="a_edge24"><a xlink:title="Herding Co&#45;op &#45;&gt; Food">
<path fill="none" stroke="#a84800" stroke-width="5" d="M922.31,-201.84C960.02,-220.26 997.26,-238.45 1024.78,-251.9"/>
</a>
</g>
</g>
<!-- I_peatlands -->
<g id="peatlands" class="node">
<title>I_peatlands</title>
<g id="a_peatlands"><a xlink:href="industries.html#peatlands" xlink:title="Peatlands" target="_top">
<polygon fill="none" stroke="#c1cdcd" points="1231,-1985.5 1231,-2152.5 1533,-2152.5 1533,-1985.5 1231,-1985.5"/>
<image xlink:href="static/img/industries/peatlands.png" width="300px" height="165px" preserveAspectRatio="xMinYMin meet" x="1232" y="-2151.5"/>
<polygon fill="none" stroke="#c1cdcd" points="1231,-1911.5 1231,-1985.5 1533,-1985.5 1533,-1911.5 1231,-1911.5"/>
<polygon fill="ghostwhite" stroke="transparent" points="1232,-1912.5 1232,-1984.5 1532,-1984.5 1532,-1912.5 1232,-1912.5"/>
<text text-anchor="start" x="1310.5" y="-1953.9" font-family="sans-serif" font-size="32.00">Peatlands</text>
<text text-anchor="start" x="1243.5" y="-1923.5" font-family="sans-serif" font-size="20.00">Requires Engineering Supplies</text>
</a>
</g>
</g>
<!-- I_peatlands&#45;&gt;C_peat -->
<g id="edge26" class="edge">
<title>I_peatlands&#45;&gt;C_peat</title>
<g id="a_edge26"><a xlink:title="Peatlands &#45;&gt; Peat">
<path fill="none" stroke="#882034" stroke-width="5" d="M1541.12,-2051.95C1581.95,-2056.97 1622.45,-2061.95 1651.19,-2065.48"/>
</a>
</g>
</g>
<!-- I_phosphate_mine -->
<g id="phosphate_mine" class="node">
<title>I_phosphate_mine</title>
<g id="a_phosphate_mine"><a xlink:href="industries.html#phosphate_mine" xlink:title="Phosphate Mine" target="_top">
<polygon fill="none" stroke="#c1cdcd" points="612,-2477.5 612,-2644.5 914,-2644.5 914,-2477.5 612,-2477.5"/>
<image xlink:href="static/img/industries/phosphate_mine.png" width="300px" height="165px" preserveAspectRatio="xMinYMin meet" x="613" y="-2643.5"/>
<polygon fill="none" stroke="#c1cdcd" points="612,-2403.5 612,-2477.5 914,-2477.5 914,-2403.5 612,-2403.5"/>
<polygon fill="ghostwhite" stroke="transparent" points="613,-2404.5 613,-2476.5 913,-2476.5 913,-2404.5 613,-2404.5"/>
<text text-anchor="start" x="646.5" y="-2445.9" font-family="sans-serif" font-size="32.00">Phosphate Mine</text>
<text text-anchor="start" x="624.5" y="-2415.5" font-family="sans-serif" font-size="20.00">Requires Engineering Supplies</text>
</a>
</g>
</g>
<!-- I_phosphate_mine&#45;&gt;C_phosphate -->
<g id="edge27" class="edge">
<title>I_phosphate_mine&#45;&gt;C_phosphate</title>
<g id="a_edge27"><a xlink:title="Phosphate Mine &#45;&gt; Phosphate">
<path fill="none" stroke="#004ca8" stroke-width="5" d="M922.31,-2424.33C964.81,-2397.43 1006.7,-2370.92 1034.77,-2353.16"/>
</a>
</g>
</g>
<!-- I_pyrite_mine -->
<g id="pyrite_mine" class="node">
<title>I_pyrite_mine</title>
<g id="a_pyrite_mine"><a xlink:href="industries.html#pyrite_mine" xlink:title="Pyrite Mine" target="_top">
<polygon fill="none" stroke="#c1cdcd" points="8,-2178.5 8,-2345.5 310,-2345.5 310,-2178.5 8,-2178.5"/>
<image xlink:href="static/img/industries/pyrite_mine.png" width="300px" height="165px" preserveAspectRatio="xMinYMin meet" x="9" y="-2344.5"/>
<polygon fill="none" stroke="#c1cdcd" points="8,-2104.5 8,-2178.5 310,-2178.5 310,-2104.5 8,-2104.5"/>
<polygon fill="ghostwhite" stroke="transparent" points="9,-2105.5 9,-2177.5 309,-2177.5 309,-2105.5 9,-2105.5"/>
<text text-anchor="start" x="79" y="-2146.9" font-family="sans-serif" font-size="32.00">Pyrite Mine</text>
<text text-anchor="start" x="20.5" y="-2116.5" font-family="sans-serif" font-size="20.00">Requires Engineering Supplies</text>
</a>
</g>
</g>
<!-- I_pyrite_mine&#45;&gt;C_pyrite_ore -->
<g id="edge30" class="edge">
<title>I_pyrite_mine&#45;&gt;C_pyrite_ore</title>
<g id="a_edge30"><a xlink:title="Pyrite Mine &#45;&gt; Pyrite Ore">
<path fill="none" stroke="#468fa8" stroke-width="5" d="M318.35,-2225.5C340.04,-2225.5 361.5,-2225.5 380.9,-2225.5"/>
</a>
</g>
</g>
</g>
</svg>
