<?xml version="1.0" encoding="UTF-8" standalone="no"?>
<?xml-stylesheet href="static/css/cargoflow_styles.css" type="text/css"?>
<!DOCTYPE svg PUBLIC "-//W3C//DTD SVG 1.1//EN"
 "http://www.w3.org/Graphics/SVG/1.1/DTD/svg11.dtd">
<!-- Generated by graphviz version 2.44.1 (20200629.0846)
 -->
<!-- Title: temperate_basic Pages: 1 -->
<svg width="2165pt" height="2098pt"
 viewBox="0.00 0.00 2165.00 2098.24" xmlns="http://www.w3.org/2000/svg" xmlns:xlink="http://www.w3.org/1999/xlink">
<g id="page0,1_graph0" class="graph" transform="scale(1 1) rotate(0) translate(4 2094.24)">
<title>temperate_basic</title>
<g id="a_page0,1_graph0"><a xlink:title="Temperate Basic">
<polygon fill="white" stroke="transparent" points="-4,4 -4,-2094.24 2161,-2094.24 2161,4 -4,4"/>
</a>
</g>
<g id="clust2" class="cluster">
<title>cluster_town_industries</title>
<g id="a_clust2"><a xlink:title="Temperate Basic">
<polygon fill="#e0eeee" stroke="#c1cdcd" points="1805,-1366.24 1805,-2082.24 2149,-2082.24 2149,-1366.24 1805,-1366.24"/>
</a>
</g>
</g>
<!-- I_port -->
<g id="port" class="node">
<title>I_port</title>
<g id="a_port"><a xlink:href="industries.html#port" xlink:title="Port" target="_top">
<polygon fill="none" stroke="#c1cdcd" points="1826,-419.24 1826,-586.24 2128,-586.24 2128,-419.24 1826,-419.24"/>
<image xlink:href="static/img/industries/port.png" width="300px" height="165px" preserveAspectRatio="xMinYMin meet" x="1827" y="-585.244"/>
<polygon fill="none" stroke="#c1cdcd" points="1826,-318.24 1826,-419.24 2128,-419.24 2128,-318.24 1826,-318.24"/>
<polygon fill="ghostwhite" stroke="transparent" points="1827,-319.24 1827,-418.24 2127,-418.24 2127,-319.24 1827,-319.24"/>
<text text-anchor="start" x="1947.5" y="-387.64" font-family="sans-serif" font-size="32.00">Port</text>
<text text-anchor="start" x="1836.5" y="-357.24" font-family="sans-serif" font-size="20.00">Produces Engineering Supplies</text>
<text text-anchor="start" x="1867" y="-330.24" font-family="sans-serif" font-size="20.00">Produces Farm Supplies</text>
</a>
</g>
</g>
<!-- C_chemicals -->
<g id="chemicals" class="node">
<title>C_chemicals</title>
<g id="a_chemicals"><a xlink:href="cargos.html#chemicals" xlink:title="Chemicals" target="_top">
<polygon fill="#602c03" stroke="#602c03" points="1185,-420.74 1019,-420.74 1019,-377.74 1185,-377.74 1185,-420.74"/>
<text text-anchor="middle" x="1102" y="-391.14" font-family="sans-serif" font-size="32.00" fill="white">Chemicals</text>
</a>
</g>
</g>
<!-- I_port&#45;&gt;C_chemicals -->
<g id="edge31" class="edge">
<title>I_port&#45;&gt;C_chemicals</title>
<g id="a_edge31"><a xlink:title="Port &#45;&gt; Chemicals">
<path fill="none" stroke="#602c03" stroke-width="5" d="M1880.9,-313.94C1807.28,-219.95 1696.12,-103.39 1566,-50.24 1435.16,3.2 1365.56,28.21 1248,-50.24 1133.12,-126.91 1109.13,-313.46 1104.23,-377.35"/>
</a>
</g>
</g>
<!-- T_town_industries -->
<g id="node2" class="node">
<title>T_town_industries</title>
<text text-anchor="middle" x="1977" y="-2044.14" font-family="sans-serif" font-size="32.00">Town Industries</text>
</g>
<!-- I_general_store -->
<g id="general_store" class="node">
<title>I_general_store</title>
<g id="a_general_store"><a xlink:href="industries.html#general_store" xlink:title="General Store" target="_top">
<polygon fill="none" stroke="#c1cdcd" points="1821,-1706.24 1821,-1963.24 2133,-1963.24 2133,-1706.24 1821,-1706.24"/>
<polygon fill="ghostwhite" stroke="transparent" points="1822,-1707.24 1822,-1962.24 2132,-1962.24 2132,-1707.24 1822,-1707.24"/>
<image xlink:href="static/img/industries/general_store.png" width="300px" height="165px" preserveAspectRatio="xMinYMin meet" x="1827" y="-1957.24"/>
<text text-anchor="start" x="1934.5" y="-1776.04" font-family="sans-serif" font-size="14.00">General Store</text>
<text text-anchor="start" x="1925.5" y="-1756.04" font-family="sans-serif" font-size="14.00">Requires Alcohol</text>
<text text-anchor="start" x="1932.5" y="-1736.04" font-family="sans-serif" font-size="14.00">Requires Food</text>
<text text-anchor="start" x="1927.5" y="-1716.04" font-family="sans-serif" font-size="14.00">Requires Goods</text>
</a>
</g>
</g>
<!-- I_hotel -->
<g id="hotel" class="node">
<title>I_hotel</title>
<g id="a_hotel"><a xlink:href="industries.html#hotel" xlink:title="Hotel" target="_top">
<polygon fill="none" stroke="#c1cdcd" points="1821,-1378.24 1821,-1635.24 2133,-1635.24 2133,-1378.24 1821,-1378.24"/>
<polygon fill="ghostwhite" stroke="transparent" points="1822,-1379.24 1822,-1634.24 2132,-1634.24 2132,-1379.24 1822,-1379.24"/>
<image xlink:href="static/img/industries/hotel.png" width="300px" height="165px" preserveAspectRatio="xMinYMin meet" x="1827" y="-1629.24"/>
<text text-anchor="start" x="1961" y="-1448.04" font-family="sans-serif" font-size="14.00">Hotel</text>
<text text-anchor="start" x="1925.5" y="-1428.04" font-family="sans-serif" font-size="14.00">Requires Alcohol</text>
<text text-anchor="start" x="1932.5" y="-1408.04" font-family="sans-serif" font-size="14.00">Requires Food</text>
<text text-anchor="start" x="1912" y="-1388.04" font-family="sans-serif" font-size="14.00">Requires Passengers</text>
</a>
</g>
</g>
<!-- C_alcohol -->
<g id="alcohol" class="node">
<title>C_alcohol</title>
<g id="a_alcohol"><a xlink:href="cargos.html#alcohol" xlink:title="Alcohol" target="_top">
<polygon fill="#a80000" stroke="#a80000" points="1750,-1096.74 1629,-1096.74 1629,-1053.74 1750,-1053.74 1750,-1096.74"/>
<text text-anchor="middle" x="1689.5" y="-1067.14" font-family="sans-serif" font-size="32.00" fill="white">Alcohol</text>
</a>
</g>
</g>
<!-- I_glass_works -->
<g id="glass_works" class="node">
<title>I_glass_works</title>
<g id="a_glass_works"><a xlink:href="industries.html#glass_works" xlink:title="Glass Works" target="_top">
<polygon fill="none" stroke="#c1cdcd" points="1256,-730.24 1256,-897.24 1558,-897.24 1558,-730.24 1256,-730.24"/>
<image xlink:href="static/img/industries/glass_works.png" width="300px" height="165px" preserveAspectRatio="xMinYMin meet" x="1257" y="-896.244"/>
<polygon fill="none" stroke="#c1cdcd" points="1256,-683.24 1256,-730.24 1558,-730.24 1558,-683.24 1256,-683.24"/>
<polygon fill="ghostwhite" stroke="transparent" points="1257,-684.24 1257,-729.24 1557,-729.24 1557,-684.24 1257,-684.24"/>
<text text-anchor="start" x="1317" y="-698.64" font-family="sans-serif" font-size="32.00">Glass Works</text>
</a>
</g>
</g>
<!-- C_chemicals&#45;&gt;I_glass_works -->
<g id="edge1" class="edge">
<title>C_chemicals&#45;&gt;I_glass_works</title>
<g id="a_edge1"><a xlink:title="Chemicals &#45;&gt; Glass Works">
<path fill="none" stroke="#602c03" stroke-width="5" d="M1148.29,-420.87C1161.66,-429.1 1175.3,-439.61 1185,-452.24 1240.46,-524.49 1198.56,-570.76 1248,-647.24 1251.4,-652.51 1255.05,-657.71 1258.89,-662.82"/>
<polygon fill="#602c03" stroke="#602c03" stroke-width="5" points="1252.42,-668.74 1271.77,-678.85 1266.06,-657.77 1252.42,-668.74"/>
</a>
</g>
</g>
<!-- I_metal_workshop -->
<g id="metal_workshop" class="node">
<title>I_metal_workshop</title>
<g id="a_metal_workshop"><a xlink:href="industries.html#metal_workshop" xlink:title="Metal Workshop" target="_top">
<polygon fill="none" stroke="#c1cdcd" points="1256,-445.24 1256,-612.24 1558,-612.24 1558,-445.24 1256,-445.24"/>
<image xlink:href="static/img/industries/metal_workshop.png" width="300px" height="165px" preserveAspectRatio="xMinYMin meet" x="1257" y="-611.244"/>
<polygon fill="none" stroke="#c1cdcd" points="1256,-398.24 1256,-445.24 1558,-445.24 1558,-398.24 1256,-398.24"/>
<polygon fill="ghostwhite" stroke="transparent" points="1257,-399.24 1257,-444.24 1557,-444.24 1557,-399.24 1257,-399.24"/>
<text text-anchor="start" x="1291" y="-413.64" font-family="sans-serif" font-size="32.00">Metal Workshop</text>
</a>
</g>
</g>
<!-- C_chemicals&#45;&gt;I_metal_workshop -->
<g id="edge2" class="edge">
<title>C_chemicals&#45;&gt;I_metal_workshop</title>
<g id="a_edge2"><a xlink:title="Chemicals &#45;&gt; Metal Workshop">
<path fill="none" stroke="#602c03" stroke-width="5" d="M1164.68,-420.82C1183.84,-427.52 1205.99,-435.27 1228.95,-443.31"/>
<polygon fill="#602c03" stroke="#602c03" stroke-width="5" points="1226.17,-451.6 1247.94,-449.95 1231.95,-435.08 1226.17,-451.6"/>
</a>
</g>
</g>
<!-- C_goods -->
<g id="goods" class="node">
<title>C_goods</title>
<g id="a_goods"><a xlink:href="cargos.html#goods" xlink:title="Goods" target="_top">
<polygon fill="#a84b60" stroke="#a84b60" points="1745,-526.74 1634,-526.74 1634,-483.74 1745,-483.74 1745,-526.74"/>
<text text-anchor="middle" x="1689.5" y="-497.14" font-family="sans-serif" font-size="32.00" fill="white">Goods</text>
</a>
</g>
</g>
<!-- I_glass_works&#45;&gt;C_goods -->
<g id="edge26" class="edge">
<title>I_glass_works&#45;&gt;C_goods</title>
<g id="a_edge26"><a xlink:title="Glass Works &#45;&gt; Goods">
<path fill="none" stroke="#a84b60" stroke-width="5" d="M1533.55,-679.24C1544.7,-668.6 1555.66,-657.83 1566,-647.24 1605.58,-606.71 1647.95,-555.68 1671.03,-527.14"/>
</a>
</g>
</g>
<!-- I_metal_workshop&#45;&gt;C_goods -->
<g id="edge28" class="edge">
<title>I_metal_workshop&#45;&gt;C_goods</title>
<g id="a_edge28"><a xlink:title="Metal Workshop &#45;&gt; Goods">
<path fill="none" stroke="#a84b60" stroke-width="5" d="M1566.28,-505.24C1590.52,-505.24 1614.02,-505.24 1633.83,-505.24"/>
</a>
</g>
</g>
<!-- C_coal -->
<g id="coal" class="node">
<title>C_coal</title>
<g id="a_coal"><a xlink:href="cargos.html#coal" xlink:title="Coal" target="_top">
<polygon fill="#a86052" stroke="#a86052" points="516.5,-625.74 433.5,-625.74 433.5,-582.74 516.5,-582.74 516.5,-625.74"/>
<text text-anchor="middle" x="475" y="-596.14" font-family="sans-serif" font-size="32.00" fill="white">Coal</text>
</a>
</g>
</g>
<!-- I_blast_furnace -->
<g id="blast_furnace" class="node">
<title>I_blast_furnace</title>
<g id="a_blast_furnace"><a xlink:href="industries.html#blast_furnace" xlink:title="Steel Mill" target="_top">
<polygon fill="none" stroke="#c1cdcd" points="643,-438.24 643,-605.24 945,-605.24 945,-438.24 643,-438.24"/>
<image xlink:href="static/img/industries/blast_furnace.png" width="300px" height="165px" preserveAspectRatio="xMinYMin meet" x="644" y="-604.244"/>
<polygon fill="none" stroke="#c1cdcd" points="643,-391.24 643,-438.24 945,-438.24 945,-391.24 643,-391.24"/>
<polygon fill="ghostwhite" stroke="transparent" points="644,-392.24 644,-437.24 944,-437.24 944,-392.24 644,-392.24"/>
<text text-anchor="start" x="729" y="-406.64" font-family="sans-serif" font-size="32.00">Steel Mill</text>
</a>
</g>
</g>
<!-- C_coal&#45;&gt;I_blast_furnace -->
<g id="edge3" class="edge">
<title>C_coal&#45;&gt;I_blast_furnace</title>
<g id="a_edge3"><a xlink:title="Coal &#45;&gt; Steel Mill">
<path fill="none" stroke="#a86052" stroke-width="5" d="M516.79,-590.6C542.84,-581.89 578.6,-569.93 615.76,-557.51"/>
<polygon fill="#a86052" stroke="#a86052" stroke-width="5" points="618.78,-565.73 634.97,-551.09 613.23,-549.13 618.78,-565.73"/>
</a>
</g>
</g>
<!-- C_steel -->
<g id="steel" class="node">
<title>C_steel</title>
<g id="a_steel"><a xlink:href="cargos.html#steel" xlink:title="Steel" target="_top">
<polygon fill="#7d70a8" stroke="#7d70a8" points="1146.5,-526.74 1057.5,-526.74 1057.5,-483.74 1146.5,-483.74 1146.5,-526.74"/>
<text text-anchor="middle" x="1102" y="-497.14" font-family="sans-serif" font-size="32.00" fill="white">Steel</text>
</a>
</g>
</g>
<!-- I_blast_furnace&#45;&gt;C_steel -->
<g id="edge16" class="edge">
<title>I_blast_furnace&#45;&gt;C_steel</title>
<g id="a_edge16"><a xlink:title="Steel Mill &#45;&gt; Steel">
<path fill="none" stroke="#7d70a8" stroke-width="5" d="M953.38,-501.87C991.73,-502.74 1029.63,-503.61 1057.43,-504.25"/>
</a>
</g>
</g>
<!-- C_fish -->
<g id="fish" class="node">
<title>C_fish</title>
<g id="a_fish"><a xlink:href="cargos.html#fish" xlink:title="Fish" target="_top">
<polygon fill="#5d45a8" stroke="#5d45a8" points="1140.5,-1951.74 1063.5,-1951.74 1063.5,-1908.74 1140.5,-1908.74 1140.5,-1951.74"/>
<text text-anchor="middle" x="1102" y="-1922.14" font-family="sans-serif" font-size="32.00" fill="white">Fish</text>
</a>
</g>
</g>
<!-- I_fishing_harbour -->
<g id="fishing_harbour" class="node">
<title>I_fishing_harbour</title>
<g id="a_fishing_harbour"><a xlink:href="industries.html#fishing_harbour" xlink:title="Fishing Harbour" target="_top">
<polygon fill="none" stroke="#c1cdcd" points="1256,-1870.24 1256,-2037.24 1558,-2037.24 1558,-1870.24 1256,-1870.24"/>
<image xlink:href="static/img/industries/fishing_harbour.png" width="300px" height="165px" preserveAspectRatio="xMinYMin meet" x="1257" y="-2036.24"/>
<polygon fill="none" stroke="#c1cdcd" points="1256,-1823.24 1256,-1870.24 1558,-1870.24 1558,-1823.24 1256,-1823.24"/>
<polygon fill="ghostwhite" stroke="transparent" points="1257,-1824.24 1257,-1869.24 1557,-1869.24 1557,-1824.24 1257,-1824.24"/>
<text text-anchor="start" x="1292.5" y="-1838.64" font-family="sans-serif" font-size="32.00">Fishing Harbour</text>
</a>
</g>
</g>
<!-- C_fish&#45;&gt;I_fishing_harbour -->
<g id="edge4" class="edge">
<title>C_fish&#45;&gt;I_fishing_harbour</title>
<g id="a_edge4"><a xlink:title="Fish &#45;&gt; Fishing Harbour">
<path fill="none" stroke="#5d45a8" stroke-width="5" d="M1140.76,-1930.24C1163.73,-1930.24 1194.91,-1930.24 1227.83,-1930.24"/>
<polygon fill="#5d45a8" stroke="#5d45a8" stroke-width="5" points="1227.93,-1938.99 1247.93,-1930.24 1227.93,-1921.49 1227.93,-1938.99"/>
</a>
</g>
</g>
<!-- C_food -->
<g id="food" class="node">
<title>C_food</title>
<g id="a_food"><a xlink:href="cargos.html#food" xlink:title="Food" target="_top">
<polygon fill="#a84800" stroke="#a84800" points="1734.5,-1291.74 1644.5,-1291.74 1644.5,-1248.74 1734.5,-1248.74 1734.5,-1291.74"/>
<text text-anchor="middle" x="1689.5" y="-1262.14" font-family="sans-serif" font-size="32.00" fill="white">Food</text>
</a>
</g>
</g>
<!-- I_fishing_harbour&#45;&gt;C_food -->
<g id="edge25" class="edge">
<title>I_fishing_harbour&#45;&gt;C_food</title>
<g id="a_edge25"><a xlink:title="Fishing Harbour &#45;&gt; Food">
<path fill="none" stroke="#a84800" stroke-width="5" d="M1544.31,-1818.98C1552.34,-1809.15 1559.7,-1798.87 1566,-1788.24 1667.73,-1616.77 1685,-1366.41 1687.91,-1291.92"/>
</a>
</g>
</g>
<!-- C_food&#45;&gt;I_port -->
<g id="edge5" class="edge">
<title>C_food&#45;&gt;I_port</title>
<g id="a_edge5"><a xlink:title="Food &#45;&gt; Port">
<path fill="none" stroke="#a84800" stroke-width="5" d="M1700.29,-1248.31C1712.52,-1220.59 1733.82,-1171.28 1750,-1128.24 1816.08,-952.53 1883.21,-747.69 1926.93,-609.94"/>
<polygon fill="#a84800" stroke="#a84800" stroke-width="5" points="1935.38,-612.24 1933.08,-590.53 1918.7,-606.96 1935.38,-612.24"/>
</a>
</g>
</g>
<!-- T_towns_food -->
<g id="node14" class="node">
<title>T_towns_food</title>
<polygon fill="none" stroke="orange" stroke-width="5" points="2046.5,-1311.74 1907.5,-1311.74 1907.5,-1228.74 2046.5,-1228.74 2046.5,-1311.74"/>
<text text-anchor="middle" x="1977" y="-1262.14" font-family="sans-serif" font-size="32.00" fill="orange">Towns</text>
</g>
<!-- C_food&#45;&gt;T_towns_food -->
<g id="edge6" class="edge">
<title>C_food&#45;&gt;T_towns_food</title>
<path fill="none" stroke="orange" stroke-width="5" d="M1734.8,-1270.24C1775.34,-1270.24 1836.53,-1270.24 1887.14,-1270.24"/>
<polygon fill="orange" stroke="orange" stroke-width="5" points="1887.37,-1278.99 1907.37,-1270.24 1887.37,-1261.49 1887.37,-1278.99"/>
</g>
<!-- C_fruits -->
<g id="fruits" class="node">
<title>C_fruits</title>
<g id="a_fruits"><a xlink:href="cargos.html#fruits" xlink:title="Fruit" target="_top">
<polygon fill="#a88000" stroke="#a88000" points="1142,-1225.74 1062,-1225.74 1062,-1182.74 1142,-1182.74 1142,-1225.74"/>
<text text-anchor="middle" x="1102" y="-1196.14" font-family="sans-serif" font-size="32.00" fill="white">Fruit</text>
</a>
</g>
</g>
<!-- I_brewery -->
<g id="brewery" class="node">
<title>I_brewery</title>
<g id="a_brewery"><a xlink:href="industries.html#brewery" xlink:title="Cider Mill" target="_top">
<polygon fill="none" stroke="#c1cdcd" points="1256,-1015.24 1256,-1182.24 1558,-1182.24 1558,-1015.24 1256,-1015.24"/>
<image xlink:href="static/img/industries/brewery.png" width="300px" height="165px" preserveAspectRatio="xMinYMin meet" x="1257" y="-1181.24"/>
<polygon fill="none" stroke="#c1cdcd" points="1256,-968.24 1256,-1015.24 1558,-1015.24 1558,-968.24 1256,-968.24"/>
<polygon fill="ghostwhite" stroke="transparent" points="1257,-969.24 1257,-1014.24 1557,-1014.24 1557,-969.24 1257,-969.24"/>
<text text-anchor="start" x="1340.5" y="-983.64" font-family="sans-serif" font-size="32.00">Cider Mill</text>
</a>
</g>
</g>
<!-- C_fruits&#45;&gt;I_brewery -->
<g id="edge7" class="edge">
<title>C_fruits&#45;&gt;I_brewery</title>
<g id="a_edge7"><a xlink:title="Fruit &#45;&gt; Cider Mill">
<path fill="none" stroke="#a88000" stroke-width="5" d="M1142.3,-1187.51C1165.36,-1177.69 1196.32,-1164.51 1228.9,-1150.64"/>
<polygon fill="#a88000" stroke="#a88000" stroke-width="5" points="1232.7,-1158.53 1247.68,-1142.65 1225.85,-1142.43 1232.7,-1158.53"/>
</a>
</g>
</g>
<!-- I_brewery&#45;&gt;C_alcohol -->
<g id="edge17" class="edge">
<title>I_brewery&#45;&gt;C_alcohol</title>
<g id="a_edge17"><a xlink:title="Cider Mill &#45;&gt; Alcohol">
<path fill="none" stroke="#a80000" stroke-width="5" d="M1566.28,-1075.24C1588.53,-1075.24 1610.16,-1075.24 1628.88,-1075.24"/>
</a>
</g>
</g>
<!-- C_goods&#45;&gt;I_port -->
<g id="edge8" class="edge">
<title>C_goods&#45;&gt;I_port</title>
<g id="a_edge8"><a xlink:title="Goods &#45;&gt; Port">
<path fill="none" stroke="#a84b60" stroke-width="5" d="M1745.21,-495.09C1760.89,-492.18 1778.9,-488.83 1797.79,-485.33"/>
<polygon fill="#a84b60" stroke="#a84b60" stroke-width="5" points="1799.67,-493.88 1817.74,-481.62 1796.48,-476.67 1799.67,-493.88"/>
</a>
</g>
</g>
<!-- C_iron_ore -->
<g id="iron_ore" class="node">
<title>C_iron_ore</title>
<g id="a_iron_ore"><a xlink:href="cargos.html#iron_ore" xlink:title="Iron Ore" target="_top">
<polygon fill="#74581c" stroke="#74581c" points="542,-519.74 408,-519.74 408,-476.74 542,-476.74 542,-519.74"/>
<text text-anchor="middle" x="475" y="-490.14" font-family="sans-serif" font-size="32.00" fill="white">Iron Ore</text>
</a>
</g>
</g>
<!-- C_iron_ore&#45;&gt;I_blast_furnace -->
<g id="edge9" class="edge">
<title>C_iron_ore&#45;&gt;I_blast_furnace</title>
<g id="a_edge9"><a xlink:title="Iron Ore &#45;&gt; Steel Mill">
<path fill="none" stroke="#74581c" stroke-width="5" d="M542.07,-498.24C563.65,-498.24 588.75,-498.24 614.56,-498.24"/>
<polygon fill="#74581c" stroke="#74581c" stroke-width="5" points="614.88,-506.99 634.88,-498.24 614.88,-489.49 614.88,-506.99"/>
</a>
</g>
</g>
<!-- C_kaolin -->
<g id="kaolin" class="node">
<title>C_kaolin</title>
<g id="a_kaolin"><a xlink:href="cargos.html#kaolin" xlink:title="Kaolin" target="_top">
<polygon fill="#882034" stroke="#882034" points="1742,-420.74 1637,-420.74 1637,-377.74 1742,-377.74 1742,-420.74"/>
<text text-anchor="middle" x="1689.5" y="-391.14" font-family="sans-serif" font-size="32.00" fill="white">Kaolin</text>
</a>
</g>
</g>
<!-- C_kaolin&#45;&gt;I_port -->
<g id="edge10" class="edge">
<title>C_kaolin&#45;&gt;I_port</title>
<g id="a_edge10"><a xlink:title="Kaolin &#45;&gt; Port">
<path fill="none" stroke="#882034" stroke-width="5" d="M1742.2,-408.84C1758.7,-411.91 1777.99,-415.49 1798.28,-419.25"/>
<polygon fill="#882034" stroke="#882034" stroke-width="5" points="1796.72,-427.86 1817.98,-422.91 1799.91,-410.66 1796.72,-427.86"/>
</a>
</g>
</g>
<!-- C_livestock -->
<g id="livestock" class="node">
<title>C_livestock</title>
<g id="a_livestock"><a xlink:href="cargos.html#livestock" xlink:title="Livestock" target="_top">
<polygon fill="#004ca8" stroke="#004ca8" points="1176.5,-1381.74 1027.5,-1381.74 1027.5,-1338.74 1176.5,-1338.74 1176.5,-1381.74"/>
<text text-anchor="middle" x="1102" y="-1352.14" font-family="sans-serif" font-size="32.00" fill="white">Livestock</text>
</a>
</g>
</g>
<!-- I_stockyard -->
<g id="stockyard" class="node">
<title>I_stockyard</title>
<g id="a_stockyard"><a xlink:href="industries.html#stockyard" xlink:title="Stockyard" target="_top">
<polygon fill="none" stroke="#c1cdcd" points="1256,-1300.24 1256,-1467.24 1558,-1467.24 1558,-1300.24 1256,-1300.24"/>
<image xlink:href="static/img/industries/stockyard.png" width="300px" height="165px" preserveAspectRatio="xMinYMin meet" x="1257" y="-1466.24"/>
<polygon fill="none" stroke="#c1cdcd" points="1256,-1253.24 1256,-1300.24 1558,-1300.24 1558,-1253.24 1256,-1253.24"/>
<polygon fill="ghostwhite" stroke="transparent" points="1257,-1254.24 1257,-1299.24 1557,-1299.24 1557,-1254.24 1257,-1254.24"/>
<text text-anchor="start" x="1336" y="-1268.64" font-family="sans-serif" font-size="32.00">Stockyard</text>
</a>
</g>
</g>
<!-- C_livestock&#45;&gt;I_stockyard -->
<g id="edge11" class="edge">
<title>C_livestock&#45;&gt;I_stockyard</title>
<g id="a_edge11"><a xlink:title="Livestock &#45;&gt; Stockyard">
<path fill="none" stroke="#004ca8" stroke-width="5" d="M1176.73,-1360.24C1192.6,-1360.24 1210.03,-1360.24 1227.97,-1360.24"/>
<polygon fill="#004ca8" stroke="#004ca8" stroke-width="5" points="1227.99,-1368.99 1247.99,-1360.24 1227.99,-1351.49 1227.99,-1368.99"/>
</a>
</g>
</g>
<!-- I_stockyard&#45;&gt;C_food -->
<g id="edge33" class="edge">
<title>I_stockyard&#45;&gt;C_food</title>
<g id="a_edge33"><a xlink:title="Stockyard &#45;&gt; Food">
<path fill="none" stroke="#a84800" stroke-width="5" d="M1566.28,-1309.46C1594.99,-1300.25 1622.67,-1291.37 1644.41,-1284.39"/>
</a>
</g>
</g>
<!-- C_milk -->
<g id="milk" class="node">
<title>C_milk</title>
<g id="a_milk"><a xlink:href="cargos.html#milk" xlink:title="Milk" target="_top">
<polygon fill="#505050" stroke="#505050" points="1138.5,-1537.74 1065.5,-1537.74 1065.5,-1494.74 1138.5,-1494.74 1138.5,-1537.74"/>
<text text-anchor="middle" x="1102" y="-1508.14" font-family="sans-serif" font-size="32.00" fill="white">Milk</text>
</a>
</g>
</g>
<!-- I_dairy -->
<g id="dairy" class="node">
<title>I_dairy</title>
<g id="a_dairy"><a xlink:href="industries.html#dairy" xlink:title="Dairy" target="_top">
<polygon fill="none" stroke="#c1cdcd" points="1256,-1585.24 1256,-1752.24 1558,-1752.24 1558,-1585.24 1256,-1585.24"/>
<image xlink:href="static/img/industries/dairy.png" width="300px" height="165px" preserveAspectRatio="xMinYMin meet" x="1257" y="-1751.24"/>
<polygon fill="none" stroke="#c1cdcd" points="1256,-1538.24 1256,-1585.24 1558,-1585.24 1558,-1538.24 1256,-1538.24"/>
<polygon fill="ghostwhite" stroke="transparent" points="1257,-1539.24 1257,-1584.24 1557,-1584.24 1557,-1539.24 1257,-1539.24"/>
<text text-anchor="start" x="1369.5" y="-1553.64" font-family="sans-serif" font-size="32.00">Dairy</text>
</a>
</g>
</g>
<!-- C_milk&#45;&gt;I_dairy -->
<g id="edge12" class="edge">
<title>C_milk&#45;&gt;I_dairy</title>
<g id="a_edge12"><a xlink:title="Milk &#45;&gt; Dairy">
<path fill="none" stroke="#505050" stroke-width="5" d="M1138.65,-1531.42C1162.12,-1541.41 1194.79,-1555.32 1229.26,-1570"/>
<polygon fill="#505050" stroke="#505050" stroke-width="5" points="1226.14,-1578.18 1247.97,-1577.97 1233,-1562.08 1226.14,-1578.18"/>
</a>
</g>
</g>
<!-- I_dairy&#45;&gt;C_food -->
<g id="edge20" class="edge">
<title>I_dairy&#45;&gt;C_food</title>
<g id="a_edge20"><a xlink:title="Dairy &#45;&gt; Food">
<path fill="none" stroke="#a84800" stroke-width="5" d="M1539.44,-1534.09C1548.86,-1524.06 1557.85,-1513.72 1566,-1503.24 1620.59,-1433.1 1662.94,-1335.04 1680.14,-1291.98"/>
</a>
</g>
</g>
<!-- C_sand -->
<g id="sand" class="node">
<title>C_sand</title>
<g id="a_sand"><a xlink:href="cargos.html#sand" xlink:title="Sand" target="_top">
<polygon fill="#468fa8" stroke="#468fa8" points="1148,-811.74 1056,-811.74 1056,-768.74 1148,-768.74 1148,-811.74"/>
<text text-anchor="middle" x="1102" y="-782.14" font-family="sans-serif" font-size="32.00" fill="white">Sand</text>
</a>
</g>
</g>
<!-- C_sand&#45;&gt;I_glass_works -->
<g id="edge13" class="edge">
<title>C_sand&#45;&gt;I_glass_works</title>
<g id="a_edge13"><a xlink:title="Sand &#45;&gt; Glass Works">
<path fill="none" stroke="#468fa8" stroke-width="5" d="M1148.03,-790.24C1170.11,-790.24 1198.28,-790.24 1227.85,-790.24"/>
<polygon fill="#468fa8" stroke="#468fa8" stroke-width="5" points="1227.95,-798.99 1247.95,-790.24 1227.95,-781.49 1227.95,-798.99"/>
</a>
</g>
</g>
<!-- C_scrap_metal -->
<g id="scrap_metal" class="node">
<title>C_scrap_metal</title>
<g id="a_scrap_metal"><a xlink:href="cargos.html#scrap_metal" xlink:title="Scrap Metal" target="_top">
<polygon fill="#a85050" stroke="#a85050" points="569,-413.74 381,-413.74 381,-370.74 569,-370.74 569,-413.74"/>
<text text-anchor="middle" x="475" y="-384.14" font-family="sans-serif" font-size="32.00" fill="white">Scrap Metal</text>
</a>
</g>
</g>
<!-- C_scrap_metal&#45;&gt;I_blast_furnace -->
<g id="edge14" class="edge">
<title>C_scrap_metal&#45;&gt;I_blast_furnace</title>
<g id="a_edge14"><a xlink:title="Scrap Metal &#45;&gt; Steel Mill">
<path fill="none" stroke="#a85050" stroke-width="5" d="M540.53,-413.82C562.78,-421.26 588.9,-430 615.74,-438.97"/>
<polygon fill="#a85050" stroke="#a85050" stroke-width="5" points="613.14,-447.33 634.88,-445.37 618.69,-430.73 613.14,-447.33"/>
</a>
</g>
</g>
<!-- C_steel&#45;&gt;I_metal_workshop -->
<g id="edge15" class="edge">
<title>C_steel&#45;&gt;I_metal_workshop</title>
<g id="a_edge15"><a xlink:title="Steel &#45;&gt; Metal Workshop">
<path fill="none" stroke="#7d70a8" stroke-width="5" d="M1146.74,-505.24C1168.88,-505.24 1197.39,-505.24 1227.37,-505.24"/>
<polygon fill="#7d70a8" stroke="#7d70a8" stroke-width="5" points="1227.76,-513.99 1247.76,-505.24 1227.76,-496.49 1227.76,-513.99"/>
</a>
</g>
</g>
<!-- I_clay_pit -->
<g id="clay_pit" class="node">
<title>I_clay_pit</title>
<g id="a_clay_pit"><a xlink:href="industries.html#clay_pit" xlink:title="Clay Pit" target="_top">
<polygon fill="none" stroke="#c1cdcd" points="1256,-159.24 1256,-326.24 1558,-326.24 1558,-159.24 1256,-159.24"/>
<image xlink:href="static/img/industries/clay_pit.png" width="300px" height="165px" preserveAspectRatio="xMinYMin meet" x="1257" y="-325.244"/>
<polygon fill="none" stroke="#c1cdcd" points="1256,-85.24 1256,-159.24 1558,-159.24 1558,-85.24 1256,-85.24"/>
<polygon fill="ghostwhite" stroke="transparent" points="1257,-86.24 1257,-158.24 1557,-158.24 1557,-86.24 1257,-86.24"/>
<text text-anchor="start" x="1352" y="-127.64" font-family="sans-serif" font-size="32.00">Clay Pit</text>
<text text-anchor="start" x="1268.5" y="-97.24" font-family="sans-serif" font-size="20.00">Requires Engineering Supplies</text>
</a>
</g>
</g>
<!-- I_clay_pit&#45;&gt;C_kaolin -->
<g id="edge18" class="edge">
<title>I_clay_pit&#45;&gt;C_kaolin</title>
<g id="a_edge18"><a xlink:title="Clay Pit &#45;&gt; Kaolin">
<path fill="none" stroke="#882034" stroke-width="5" d="M1566.28,-315.15C1600.83,-338.92 1633.89,-361.67 1656.9,-377.5"/>
</a>
</g>
</g>
<!-- I_coal_mine -->
<g id="coal_mine" class="node">
<title>I_coal_mine</title>
<g id="a_coal_mine"><a xlink:href="industries.html#coal_mine" xlink:title="Coal Mine" target="_top">
<polygon fill="none" stroke="#c1cdcd" points="8,-763.24 8,-930.24 310,-930.24 310,-763.24 8,-763.24"/>
<image xlink:href="static/img/industries/coal_mine.png" width="300px" height="165px" preserveAspectRatio="xMinYMin meet" x="9" y="-929.244"/>
<polygon fill="none" stroke="#c1cdcd" points="8,-689.24 8,-763.24 310,-763.24 310,-689.24 8,-689.24"/>
<polygon fill="ghostwhite" stroke="transparent" points="9,-690.24 9,-762.24 309,-762.24 309,-690.24 9,-690.24"/>
<text text-anchor="start" x="86.5" y="-731.64" font-family="sans-serif" font-size="32.00">Coal Mine</text>
<text text-anchor="start" x="20.5" y="-701.24" font-family="sans-serif" font-size="20.00">Requires Engineering Supplies</text>
</a>
</g>
</g>
<!-- I_coal_mine&#45;&gt;C_coal -->
<g id="edge19" class="edge">
<title>I_coal_mine&#45;&gt;C_coal</title>
<g id="a_edge19"><a xlink:title="Coal Mine &#45;&gt; Coal">
<path fill="none" stroke="#a86052" stroke-width="5" d="M318.38,-706.34C364.87,-675.84 411.19,-645.45 441.05,-625.86"/>
</a>
</g>
</g>
<!-- I_dairy_farm -->
<g id="dairy_farm" class="node">
<title>I_dairy_farm</title>
<g id="a_dairy_farm"><a xlink:href="industries.html#dairy_farm" xlink:title="Dairy Farm" target="_top">
<polygon fill="none" stroke="#c1cdcd" points="643,-1469.24 643,-1636.24 945,-1636.24 945,-1469.24 643,-1469.24"/>
<image xlink:href="static/img/industries/dairy_farm.png" width="300px" height="165px" preserveAspectRatio="xMinYMin meet" x="644" y="-1635.24"/>
<polygon fill="none" stroke="#c1cdcd" points="643,-1395.24 643,-1469.24 945,-1469.24 945,-1395.24 643,-1395.24"/>
<polygon fill="ghostwhite" stroke="transparent" points="644,-1396.24 644,-1468.24 944,-1468.24 944,-1396.24 644,-1396.24"/>
<text text-anchor="start" x="714.5" y="-1437.64" font-family="sans-serif" font-size="32.00">Dairy Farm</text>
<text text-anchor="start" x="686.5" y="-1407.24" font-family="sans-serif" font-size="20.00">Requires Farm Supplies</text>
</a>
</g>
</g>
<!-- I_dairy_farm&#45;&gt;C_livestock -->
<g id="edge21" class="edge">
<title>I_dairy_farm&#45;&gt;C_livestock</title>
<g id="a_edge21"><a xlink:title="Dairy Farm &#45;&gt; Livestock">
<path fill="none" stroke="#004ca8" stroke-width="5" d="M953.38,-1435.5C992.32,-1415.65 1030.79,-1396.04 1058.69,-1381.81"/>
</a>
</g>
</g>
<!-- I_dairy_farm&#45;&gt;C_milk -->
<g id="edge22" class="edge">
<title>I_dairy_farm&#45;&gt;C_milk</title>
<g id="a_edge22"><a xlink:title="Dairy Farm &#45;&gt; Milk">
<path fill="none" stroke="#505050" stroke-width="5" d="M953.38,-1516.24C995.52,-1516.24 1037.12,-1516.24 1065.37,-1516.24"/>
</a>
</g>
</g>
<!-- I_dredging_site -->
<g id="dredging_site" class="node">
<title>I_dredging_site</title>
<g id="a_dredging_site"><a xlink:href="industries.html#dredging_site" xlink:title="Dredging Site" target="_top">
<polygon fill="none" stroke="#c1cdcd" points="643,-750.24 643,-917.24 945,-917.24 945,-750.24 643,-750.24"/>
<image xlink:href="static/img/industries/dredging_site.png" width="300px" height="165px" preserveAspectRatio="xMinYMin meet" x="644" y="-916.244"/>
<polygon fill="none" stroke="#c1cdcd" points="643,-676.24 643,-750.24 945,-750.24 945,-676.24 643,-676.24"/>
<polygon fill="ghostwhite" stroke="transparent" points="644,-677.24 644,-749.24 944,-749.24 944,-677.24 644,-677.24"/>
<text text-anchor="start" x="696.5" y="-718.64" font-family="sans-serif" font-size="32.00">Dredging Site</text>
<text text-anchor="start" x="655.5" y="-688.24" font-family="sans-serif" font-size="20.00">Requires Engineering Supplies</text>
</a>
</g>
</g>
<!-- I_dredging_site&#45;&gt;C_sand -->
<g id="edge23" class="edge">
<title>I_dredging_site&#45;&gt;C_sand</title>
<g id="a_edge23"><a xlink:title="Dredging Site &#45;&gt; Sand">
<path fill="none" stroke="#468fa8" stroke-width="5" d="M953.38,-793.62C991,-792.76 1028.19,-791.91 1055.83,-791.28"/>
</a>
</g>
</g>
<!-- I_fishing_grounds -->
<g id="fishing_grounds" class="node">
<title>I_fishing_grounds</title>
<g id="a_fishing_grounds"><a xlink:href="industries.html#fishing_grounds" xlink:title="Fishing Grounds" target="_top">
<polygon fill="none" stroke="#c1cdcd" points="643,-1870.24 643,-2037.24 945,-2037.24 945,-1870.24 643,-1870.24"/>
<image xlink:href="static/img/industries/fishing_grounds.png" width="300px" height="165px" preserveAspectRatio="xMinYMin meet" x="644" y="-2036.24"/>
<polygon fill="none" stroke="#c1cdcd" points="643,-1823.24 643,-1870.24 945,-1870.24 945,-1823.24 643,-1823.24"/>
<polygon fill="ghostwhite" stroke="transparent" points="644,-1824.24 644,-1869.24 944,-1869.24 944,-1824.24 644,-1824.24"/>
<text text-anchor="start" x="676.5" y="-1838.64" font-family="sans-serif" font-size="32.00">Fishing Grounds</text>
</a>
</g>
</g>
<!-- I_fishing_grounds&#45;&gt;C_fish -->
<g id="edge24" class="edge">
<title>I_fishing_grounds&#45;&gt;C_fish</title>
<g id="a_edge24"><a xlink:title="Fishing Grounds &#45;&gt; Fish">
<path fill="none" stroke="#5d45a8" stroke-width="5" d="M953.38,-1930.24C994.5,-1930.24 1035.11,-1930.24 1063.29,-1930.24"/>
</a>
</g>
</g>
<!-- I_iron_ore_mine -->
<g id="iron_ore_mine" class="node">
<title>I_iron_ore_mine</title>
<g id="a_iron_ore_mine"><a xlink:href="industries.html#iron_ore_mine" xlink:title="Iron Ore Mine" target="_top">
<polygon fill="none" stroke="#c1cdcd" points="8,-451.24 8,-618.24 310,-618.24 310,-451.24 8,-451.24"/>
<image xlink:href="static/img/industries/iron_ore_mine.png" width="300px" height="165px" preserveAspectRatio="xMinYMin meet" x="9" y="-617.244"/>
<polygon fill="none" stroke="#c1cdcd" points="8,-377.24 8,-451.24 310,-451.24 310,-377.24 8,-377.24"/>
<polygon fill="ghostwhite" stroke="transparent" points="9,-378.24 9,-450.24 309,-450.24 309,-378.24 9,-378.24"/>
<text text-anchor="start" x="60.5" y="-419.64" font-family="sans-serif" font-size="32.00">Iron Ore Mine</text>
<text text-anchor="start" x="20.5" y="-389.24" font-family="sans-serif" font-size="20.00">Requires Engineering Supplies</text>
</a>
</g>
</g>
<!-- I_iron_ore_mine&#45;&gt;C_iron_ore -->
<g id="edge27" class="edge">
<title>I_iron_ore_mine&#45;&gt;C_iron_ore</title>
<g id="a_edge27"><a xlink:title="Iron Ore Mine &#45;&gt; Iron Ore">
<path fill="none" stroke="#74581c" stroke-width="5" d="M318.38,-498.24C349.93,-498.24 381.41,-498.24 407.71,-498.24"/>
</a>
</g>
</g>
<!-- I_orchard_piggery -->
<g id="orchard_piggery" class="node">
<title>I_orchard_piggery</title>
<g id="a_orchard_piggery"><a xlink:href="industries.html#orchard_piggery" xlink:title="Orchard and Piggery" target="_top">
<polygon fill="none" stroke="#c1cdcd" points="640,-1157.24 640,-1324.24 948,-1324.24 948,-1157.24 640,-1157.24"/>
<image xlink:href="static/img/industries/orchard_piggery.png" width="306px" height="165px" preserveAspectRatio="xMinYMin meet" x="641" y="-1323.24"/>
<polygon fill="none" stroke="#c1cdcd" points="640,-1083.24 640,-1157.24 948,-1157.24 948,-1083.24 640,-1083.24"/>
<polygon fill="ghostwhite" stroke="transparent" points="641,-1084.24 641,-1156.24 947,-1156.24 947,-1084.24 641,-1084.24"/>
<text text-anchor="start" x="646" y="-1125.64" font-family="sans-serif" font-size="32.00">Orchard and Piggery</text>
<text text-anchor="start" x="686.5" y="-1095.24" font-family="sans-serif" font-size="20.00">Requires Farm Supplies</text>
</a>
</g>
</g>
<!-- I_orchard_piggery&#45;&gt;C_fruits -->
<g id="edge29" class="edge">
<title>I_orchard_piggery&#45;&gt;C_fruits</title>
<g id="a_edge29"><a xlink:title="Orchard and Piggery &#45;&gt; Fruit">
<path fill="none" stroke="#a88000" stroke-width="5" d="M956.07,-1204.24C995.52,-1204.24 1034.25,-1204.24 1061.74,-1204.24"/>
</a>
</g>
</g>
<!-- I_orchard_piggery&#45;&gt;C_livestock -->
<g id="edge30" class="edge">
<title>I_orchard_piggery&#45;&gt;C_livestock</title>
<g id="a_edge30"><a xlink:title="Orchard and Piggery &#45;&gt; Livestock">
<path fill="none" stroke="#004ca8" stroke-width="5" d="M956.07,-1286.36C994.08,-1305.73 1031.42,-1324.77 1058.68,-1338.67"/>
</a>
</g>
</g>
<!-- I_junk_yard -->
<g id="junk_yard" class="node">
<title>I_junk_yard</title>
<g id="a_junk_yard"><a xlink:href="industries.html#junk_yard" xlink:title="Scrap Yard" target="_top">
<polygon fill="none" stroke="#c1cdcd" points="8,-139.24 8,-306.24 310,-306.24 310,-139.24 8,-139.24"/>
<image xlink:href="static/img/industries/junk_yard.png" width="300px" height="165px" preserveAspectRatio="xMinYMin meet" x="9" y="-305.244"/>
<polygon fill="none" stroke="#c1cdcd" points="8,-92.24 8,-139.24 310,-139.24 310,-92.24 8,-92.24"/>
<polygon fill="ghostwhite" stroke="transparent" points="9,-93.24 9,-138.24 309,-138.24 309,-93.24 9,-93.24"/>
<text text-anchor="start" x="80.5" y="-107.64" font-family="sans-serif" font-size="32.00">Scrap Yard</text>
</a>
</g>
</g>
<!-- I_junk_yard&#45;&gt;C_scrap_metal -->
<g id="edge32" class="edge">
<title>I_junk_yard&#45;&gt;C_scrap_metal</title>
<g id="a_edge32"><a xlink:title="Scrap Yard &#45;&gt; Scrap Metal">
<path fill="none" stroke="#a85050" stroke-width="5" d="M318.38,-296.59C363.8,-324.51 409.07,-352.33 438.97,-370.71"/>
</a>
</g>
</g>
</g>
</svg>
