<?xml version="1.0" encoding="UTF-8" standalone="no"?>
<?xml-stylesheet href="static/css/cargoflow_styles.css" type="text/css"?>
<!DOCTYPE svg PUBLIC "-//W3C//DTD SVG 1.1//EN"
 "http://www.w3.org/Graphics/SVG/1.1/DTD/svg11.dtd">
<!-- Generated by graphviz version 2.44.1 (20200629.0846)
 -->
<!-- Title: tropic_basic Pages: 1 -->
<svg width="2765pt" height="1862pt"
 viewBox="0.00 0.00 2765.00 1861.50" xmlns="http://www.w3.org/2000/svg" xmlns:xlink="http://www.w3.org/1999/xlink">
<g id="page0,1_graph0" class="graph" transform="scale(1 1) rotate(0) translate(4 1857.5)">
<title>tropic_basic</title>
<g id="a_page0,1_graph0"><a xlink:title="Tropic Basic">
<polygon fill="white" stroke="transparent" points="-4,4 -4,-1857.5 2761,-1857.5 2761,4 -4,4"/>
</a>
</g>
<g id="clust5" class="cluster">
<title>cluster_town_industries</title>
<g id="a_clust5"><a xlink:title="Tropic Basic">
<polygon fill="#e0eeee" stroke="#c1cdcd" points="2405,-1019 2405,-1735 2749,-1735 2749,-1019 2405,-1019"/>
</a>
</g>
</g>
<g id="clust6" class="cluster">
<title>cluster_elephant</title>
<g id="a_clust6"><a xlink:title="Tropic Basic">
<polygon fill="none" stroke="white" points="8,-8 8,-613 1596,-613 1596,-8 8,-8"/>
</a>
</g>
</g>
<g id="clust7" class="cluster">
<title>cluster_omega</title>
<g id="a_clust7"><a xlink:title="Tropic Basic">
<polygon fill="none" stroke="white" points="400,-151 400,-317 543,-317 543,-151 400,-151"/>
</a>
</g>
</g>
<g id="clust8" class="cluster">
<title>cluster_zebra</title>
<g id="a_clust8"><a xlink:title="Tropic Basic">
<polygon fill="none" stroke="white" points="410,-1387 410,-1553 533,-1553 533,-1387 410,-1387"/>
</a>
</g>
</g>
<g id="clust9" class="cluster">
<title>cluster_rabbit</title>
<g id="a_clust9"><a xlink:title="Tropic Basic">
<polygon fill="none" stroke="white" points="1741,-564 1741,-942 1879,-942 1879,-564 1741,-564"/>
</a>
</g>
</g>
<!-- I_arable_farm -->
<g id="arable_farm" class="node">
<title>I_arable_farm</title>
<g id="a_arable_farm"><a xlink:href="industries.html#arable_farm" xlink:title="Arable Farm" target="_top">
<polygon fill="none" stroke="#c1cdcd" points="24,-1682 24,-1849 326,-1849 326,-1682 24,-1682"/>
<image xlink:href="static/img/industries/arable_farm.png" width="300px" height="165px" preserveAspectRatio="xMinYMin meet" x="25" y="-1848"/>
<polygon fill="none" stroke="#c1cdcd" points="24,-1608 24,-1682 326,-1682 326,-1608 24,-1608"/>
<polygon fill="ghostwhite" stroke="transparent" points="25,-1609 25,-1681 325,-1681 325,-1609 25,-1609"/>
<text text-anchor="start" x="86.5" y="-1650.4" font-family="sans-serif" font-size="32.00">Arable Farm</text>
<text text-anchor="start" x="67.5" y="-1620" font-family="sans-serif" font-size="20.00">Requires Farm Supplies</text>
</a>
</g>
</g>
<!-- C_beans -->
<g id="beans" class="node">
<title>C_beans</title>
<g id="a_beans"><a xlink:href="cargos.html#beans" xlink:title="Beans" target="_top">
<polygon fill="#602c03" stroke="#602c03" points="525,-1544.5 418,-1544.5 418,-1501.5 525,-1501.5 525,-1544.5"/>
<text text-anchor="middle" x="471.5" y="-1514.9" font-family="sans-serif" font-size="32.00" fill="white">Beans</text>
</a>
</g>
</g>
<!-- I_arable_farm&#45;&gt;C_beans -->
<g id="edge17" class="edge">
<title>I_arable_farm&#45;&gt;C_beans</title>
<g id="a_edge17"><a xlink:title="Arable Farm &#45;&gt; Beans">
<path fill="none" stroke="#602c03" stroke-width="5" d="M334.03,-1618.46C374.42,-1590.21 413.72,-1562.72 439.69,-1544.55"/>
</a>
</g>
</g>
<!-- C_grain -->
<g id="grain" class="node">
<title>C_grain</title>
<g id="a_grain"><a xlink:href="cargos.html#grain" xlink:title="Grain" target="_top">
<polygon fill="#505050" stroke="#505050" points="519,-1750.5 424,-1750.5 424,-1707.5 519,-1707.5 519,-1750.5"/>
<text text-anchor="middle" x="471.5" y="-1720.9" font-family="sans-serif" font-size="32.00" fill="white">Grain</text>
</a>
</g>
</g>
<!-- I_arable_farm&#45;&gt;C_grain -->
<g id="edge18" class="edge">
<title>I_arable_farm&#45;&gt;C_grain</title>
<g id="a_edge18"><a xlink:title="Arable Farm &#45;&gt; Grain">
<path fill="none" stroke="#505050" stroke-width="5" d="M334.03,-1729C366.91,-1729 399.08,-1729 423.91,-1729"/>
</a>
</g>
</g>
<!-- I_coffee_estate -->
<g id="coffee_estate" class="node">
<title>I_coffee_estate</title>
<g id="a_coffee_estate"><a xlink:href="industries.html#coffee_estate" xlink:title="Coffee Estate" target="_top">
<polygon fill="none" stroke="#c1cdcd" points="24,-1058 24,-1225 326,-1225 326,-1058 24,-1058"/>
<image xlink:href="static/img/industries/coffee_estate.png" width="300px" height="165px" preserveAspectRatio="xMinYMin meet" x="25" y="-1224"/>
<polygon fill="none" stroke="#c1cdcd" points="24,-984 24,-1058 326,-1058 326,-984 24,-984"/>
<polygon fill="ghostwhite" stroke="transparent" points="25,-985 25,-1057 325,-1057 325,-985 25,-985"/>
<text text-anchor="start" x="78" y="-1026.4" font-family="sans-serif" font-size="32.00">Coffee Estate</text>
<text text-anchor="start" x="67.5" y="-996" font-family="sans-serif" font-size="20.00">Requires Farm Supplies</text>
</a>
</g>
</g>
<!-- C_fruits -->
<g id="fruits" class="node">
<title>C_fruits</title>
<g id="a_fruits"><a xlink:href="cargos.html#fruits" xlink:title="Fruit" target="_top">
<polygon fill="#004ca8" stroke="#004ca8" points="511.5,-1438.5 431.5,-1438.5 431.5,-1395.5 511.5,-1395.5 511.5,-1438.5"/>
<text text-anchor="middle" x="471.5" y="-1408.9" font-family="sans-serif" font-size="32.00" fill="white">Fruit</text>
</a>
</g>
</g>
<!-- I_coffee_estate&#45;&gt;C_fruits -->
<g id="edge21" class="edge">
<title>I_coffee_estate&#45;&gt;C_fruits</title>
<g id="a_edge21"><a xlink:title="Coffee Estate &#45;&gt; Fruit">
<path fill="none" stroke="#004ca8" stroke-width="5" d="M304.01,-1229.8C314.25,-1240.26 324.35,-1250.76 334,-1261 377.91,-1307.64 426.75,-1364.84 452.44,-1395.37"/>
</a>
</g>
</g>
<!-- C_coffee -->
<g id="coffee" class="node">
<title>C_coffee</title>
<g id="a_coffee"><a xlink:href="cargos.html#coffee" xlink:title="Coffee" target="_top">
<polygon fill="#347084" stroke="#347084" points="1865,-827.5 1755,-827.5 1755,-784.5 1865,-784.5 1865,-827.5"/>
<text text-anchor="middle" x="1810" y="-797.9" font-family="sans-serif" font-size="32.00" fill="white">Coffee</text>
</a>
</g>
</g>
<!-- I_coffee_estate&#45;&gt;C_coffee -->
<g id="edge20" class="edge">
<title>I_coffee_estate&#45;&gt;C_coffee</title>
<g id="a_edge20"><a xlink:title="Coffee Estate &#45;&gt; Coffee">
<path fill="none" stroke="#347084" stroke-width="5" d="M303.31,-980.25C350.56,-934.22 393.65,-892.69 397,-891 552.29,-812.74 609.1,-827 783,-827 783,-827 783,-827 1115.5,-827 1353.7,-827 1637.71,-814.47 1754.62,-808.77"/>
</a>
</g>
</g>
<!-- I_nitrate_mine -->
<g id="nitrate_mine" class="node">
<title>I_nitrate_mine</title>
<g id="a_nitrate_mine"><a xlink:href="industries.html#nitrate_mine" xlink:title="Nitrate Mine" target="_top">
<polygon fill="none" stroke="#c1cdcd" points="24,-434 24,-601 326,-601 326,-434 24,-434"/>
<image xlink:href="static/img/industries/nitrate_mine.png" width="300px" height="165px" preserveAspectRatio="xMinYMin meet" x="25" y="-600"/>
<polygon fill="none" stroke="#c1cdcd" points="24,-333 24,-434 326,-434 326,-333 24,-333"/>
<polygon fill="ghostwhite" stroke="transparent" points="25,-334 25,-433 325,-433 325,-334 25,-334"/>
<text text-anchor="start" x="88" y="-402.4" font-family="sans-serif" font-size="32.00">Nitrate Mine</text>
<text text-anchor="start" x="36.5" y="-372" font-family="sans-serif" font-size="20.00">Requires Engineering Supplies</text>
<text text-anchor="start" x="65" y="-345" font-family="sans-serif" font-size="20.00">Produces Farm Supplies</text>
</a>
</g>
</g>
<!-- C_nitrates -->
<g id="nitrates" class="node">
<title>C_nitrates</title>
<g id="a_nitrates"><a xlink:href="cargos.html#nitrates" xlink:title="Nitrates" target="_top">
<polygon fill="#a85050" stroke="#a85050" points="535,-308.5 408,-308.5 408,-265.5 535,-265.5 535,-308.5"/>
<text text-anchor="middle" x="471.5" y="-278.9" font-family="sans-serif" font-size="32.00" fill="white">Nitrates</text>
</a>
</g>
</g>
<!-- I_nitrate_mine&#45;&gt;C_nitrates -->
<g id="edge28" class="edge">
<title>I_nitrate_mine&#45;&gt;C_nitrates</title>
<g id="a_edge28"><a xlink:title="Nitrate Mine &#45;&gt; Nitrates">
<path fill="none" stroke="#a85050" stroke-width="5" d="M334.03,-370.41C372.1,-347.14 409.2,-324.47 435.09,-308.64"/>
</a>
</g>
</g>
<!-- I_ranch -->
<g id="ranch" class="node">
<title>I_ranch</title>
<g id="a_ranch"><a xlink:href="industries.html#ranch" xlink:title="Ranch" target="_top">
<polygon fill="none" stroke="#c1cdcd" points="24,-746 24,-913 326,-913 326,-746 24,-746"/>
<image xlink:href="static/img/industries/ranch.png" width="300px" height="165px" preserveAspectRatio="xMinYMin meet" x="25" y="-912"/>
<polygon fill="none" stroke="#c1cdcd" points="24,-672 24,-746 326,-746 326,-672 24,-672"/>
<polygon fill="ghostwhite" stroke="transparent" points="25,-673 25,-745 325,-745 325,-673 25,-673"/>
<text text-anchor="start" x="128" y="-714.4" font-family="sans-serif" font-size="32.00">Ranch</text>
<text text-anchor="start" x="67.5" y="-684" font-family="sans-serif" font-size="20.00">Requires Farm Supplies</text>
</a>
</g>
</g>
<!-- C_wool -->
<g id="wool" class="node">
<title>C_wool</title>
<g id="a_wool"><a xlink:href="cargos.html#wool" xlink:title="Wool" target="_top">
<polygon fill="#a8926d" stroke="#a8926d" points="1854.5,-721.5 1765.5,-721.5 1765.5,-678.5 1854.5,-678.5 1854.5,-721.5"/>
<text text-anchor="middle" x="1810" y="-691.9" font-family="sans-serif" font-size="32.00" fill="white">Wool</text>
</a>
</g>
</g>
<!-- I_ranch&#45;&gt;C_wool -->
<g id="edge32" class="edge">
<title>I_ranch&#45;&gt;C_wool</title>
<g id="a_edge32"><a xlink:title="Ranch &#45;&gt; Wool">
<path fill="none" stroke="#a8926d" stroke-width="5" d="M334.1,-755.31C456.01,-729.53 629.21,-700 783,-700 783,-700 783,-700 1115.5,-700 1361.11,-700 1655.66,-700 1765.19,-700"/>
</a>
</g>
</g>
<!-- C_livestock -->
<g id="livestock" class="node">
<title>C_livestock</title>
<g id="a_livestock"><a xlink:href="cargos.html#livestock" xlink:title="Livestock" target="_top">
<polygon fill="#468fa8" stroke="#468fa8" points="546,-965.5 397,-965.5 397,-922.5 546,-922.5 546,-965.5"/>
<text text-anchor="middle" x="471.5" y="-935.9" font-family="sans-serif" font-size="32.00" fill="white">Livestock</text>
</a>
</g>
</g>
<!-- I_ranch&#45;&gt;C_livestock -->
<g id="edge31" class="edge">
<title>I_ranch&#45;&gt;C_livestock</title>
<g id="a_edge31"><a xlink:title="Ranch &#45;&gt; Livestock">
<path fill="none" stroke="#468fa8" stroke-width="5" d="M334.03,-874.03C368.96,-891.94 403.08,-909.43 428.46,-922.45"/>
</a>
</g>
</g>
<!-- I_flour_mill -->
<g id="flour_mill" class="node">
<title>I_flour_mill</title>
<g id="a_flour_mill"><a xlink:href="industries.html#flour_mill" xlink:title="Flour Mill" target="_top">
<polygon fill="none" stroke="#c1cdcd" points="633,-1670 633,-1837 935,-1837 935,-1670 633,-1670"/>
<image xlink:href="static/img/industries/flour_mill.png" width="300px" height="165px" preserveAspectRatio="xMinYMin meet" x="634" y="-1836"/>
<polygon fill="none" stroke="#c1cdcd" points="633,-1623 633,-1670 935,-1670 935,-1623 633,-1623"/>
<polygon fill="ghostwhite" stroke="transparent" points="634,-1624 634,-1669 934,-1669 934,-1624 634,-1624"/>
<text text-anchor="start" x="719" y="-1638.4" font-family="sans-serif" font-size="32.00">Flour Mill</text>
</a>
</g>
</g>
<!-- C_food -->
<g id="food" class="node">
<title>C_food</title>
<g id="a_food"><a xlink:href="cargos.html#food" xlink:title="Food" target="_top">
<polygon fill="#a84800" stroke="#a84800" points="2236,-944.5 2146,-944.5 2146,-901.5 2236,-901.5 2236,-944.5"/>
<text text-anchor="middle" x="2191" y="-914.9" font-family="sans-serif" font-size="32.00" fill="white">Food</text>
</a>
</g>
</g>
<!-- I_flour_mill&#45;&gt;C_food -->
<g id="edge26" class="edge">
<title>I_flour_mill&#45;&gt;C_food</title>
<g id="a_edge26"><a xlink:title="Flour Mill &#45;&gt; Food">
<path fill="none" stroke="#a84800" stroke-width="5" d="M943.11,-1690.96C1184.15,-1625.49 1649.2,-1475.25 1969,-1222 2072.23,-1140.25 2151.28,-998.92 2179.13,-944.88"/>
</a>
</g>
</g>
<!-- I_food_processor -->
<g id="food_processor" class="node">
<title>I_food_processor</title>
<g id="a_food_processor"><a xlink:href="industries.html#food_processor" xlink:title="Food Processing Plant" target="_top">
<polygon fill="none" stroke="#c1cdcd" points="617,-1385 617,-1552 951,-1552 951,-1385 617,-1385"/>
<image xlink:href="static/img/industries/food_processor.png" width="332px" height="165px" preserveAspectRatio="xMinYMin meet" x="618" y="-1551"/>
<polygon fill="none" stroke="#c1cdcd" points="617,-1338 617,-1385 951,-1385 951,-1338 617,-1338"/>
<polygon fill="ghostwhite" stroke="transparent" points="618,-1339 618,-1384 950,-1384 950,-1339 618,-1339"/>
<text text-anchor="start" x="623" y="-1353.4" font-family="sans-serif" font-size="32.00">Food Processing Plant</text>
</a>
</g>
</g>
<!-- I_food_processor&#45;&gt;C_food -->
<g id="edge27" class="edge">
<title>I_food_processor&#45;&gt;C_food</title>
<g id="a_edge27"><a xlink:title="Food Processing Plant &#45;&gt; Food">
<path fill="none" stroke="#a84800" stroke-width="5" d="M959.27,-1428.89C1126.96,-1409.24 1385.4,-1367.94 1596,-1286 1833.09,-1193.75 2081.89,-1007.78 2162.85,-944.58"/>
</a>
</g>
</g>
<!-- I_stockyard -->
<g id="stockyard" class="node">
<title>I_stockyard</title>
<g id="a_stockyard"><a xlink:href="industries.html#stockyard" xlink:title="Stockyard" target="_top">
<polygon fill="none" stroke="#c1cdcd" points="633,-973 633,-1140 935,-1140 935,-973 633,-973"/>
<image xlink:href="static/img/industries/stockyard.png" width="300px" height="165px" preserveAspectRatio="xMinYMin meet" x="634" y="-1139"/>
<polygon fill="none" stroke="#c1cdcd" points="633,-926 633,-973 935,-973 935,-926 633,-926"/>
<polygon fill="ghostwhite" stroke="transparent" points="634,-927 634,-972 934,-972 934,-927 634,-927"/>
<text text-anchor="start" x="713" y="-941.4" font-family="sans-serif" font-size="32.00">Stockyard</text>
</a>
</g>
</g>
<!-- I_stockyard&#45;&gt;C_food -->
<g id="edge33" class="edge">
<title>I_stockyard&#45;&gt;C_food</title>
<g id="a_edge33"><a xlink:title="Stockyard &#45;&gt; Food">
<path fill="none" stroke="#a84800" stroke-width="5" d="M943.38,-1027.29C1170.85,-1018.09 1602.97,-996.82 1969,-957 2030.55,-950.3 2101.2,-938.75 2145.71,-931"/>
</a>
</g>
</g>
<!-- C_fish -->
<g id="fish" class="node">
<title>C_fish</title>
<g id="a_fish"><a xlink:href="cargos.html#fish" xlink:title="Fish" target="_top">
<polygon fill="#882034" stroke="#882034" points="2229.5,-1624.5 2152.5,-1624.5 2152.5,-1581.5 2229.5,-1581.5 2229.5,-1624.5"/>
<text text-anchor="middle" x="2191" y="-1594.9" font-family="sans-serif" font-size="32.00" fill="white">Fish</text>
</a>
</g>
</g>
<!-- I_fishing_harbour -->
<g id="fishing_harbour" class="node">
<title>I_fishing_harbour</title>
<g id="a_fishing_harbour"><a xlink:href="industries.html#fishing_harbour" xlink:title="Fishing Harbour" target="_top">
<polygon fill="none" stroke="#c1cdcd" points="2040,-1251 2040,-1418 2342,-1418 2342,-1251 2040,-1251"/>
<image xlink:href="static/img/industries/fishing_harbour.png" width="300px" height="165px" preserveAspectRatio="xMinYMin meet" x="2041" y="-1417"/>
<polygon fill="none" stroke="#c1cdcd" points="2040,-1204 2040,-1251 2342,-1251 2342,-1204 2040,-1204"/>
<polygon fill="ghostwhite" stroke="transparent" points="2041,-1205 2041,-1250 2341,-1250 2341,-1205 2041,-1205"/>
<text text-anchor="start" x="2076.5" y="-1219.4" font-family="sans-serif" font-size="32.00">Fishing Harbour</text>
</a>
</g>
</g>
<!-- C_fish&#45;&gt;I_fishing_harbour -->
<g id="edge8" class="edge">
<title>C_fish&#45;&gt;I_fishing_harbour</title>
<g id="a_edge8"><a xlink:title="Fish &#45;&gt; Fishing Harbour">
<path fill="none" stroke="#882034" stroke-width="5" d="M2191,-1581.46C2191,-1535.12 2191,-1488.77 2191,-1442.43"/>
<polygon fill="#882034" stroke="#882034" stroke-width="5" points="2199.75,-1442.21 2191,-1422.21 2182.25,-1442.21 2199.75,-1442.21"/>
</a>
</g>
</g>
<!-- I_port -->
<g id="port" class="node">
<title>I_port</title>
<g id="a_port"><a xlink:href="industries.html#port" xlink:title="Port" target="_top">
<polygon fill="none" stroke="#c1cdcd" points="2040,-667 2040,-834 2342,-834 2342,-667 2040,-667"/>
<image xlink:href="static/img/industries/port.png" width="300px" height="165px" preserveAspectRatio="xMinYMin meet" x="2041" y="-833"/>
<polygon fill="none" stroke="#c1cdcd" points="2040,-566 2040,-667 2342,-667 2342,-566 2040,-566"/>
<polygon fill="ghostwhite" stroke="transparent" points="2041,-567 2041,-666 2341,-666 2341,-567 2041,-567"/>
<text text-anchor="start" x="2161.5" y="-635.4" font-family="sans-serif" font-size="32.00">Port</text>
<text text-anchor="start" x="2050.5" y="-605" font-family="sans-serif" font-size="20.00">Produces Engineering Supplies</text>
<text text-anchor="start" x="2081" y="-578" font-family="sans-serif" font-size="20.00">Produces Farm Supplies</text>
</a>
</g>
</g>
<!-- C_food&#45;&gt;I_port -->
<g id="edge9" class="edge">
<title>C_food&#45;&gt;I_port</title>
<g id="a_edge9"><a xlink:title="Food &#45;&gt; Port">
<path fill="none" stroke="#a84800" stroke-width="5" d="M2191,-901.44C2191,-887.08 2191,-872.72 2191,-858.37"/>
<polygon fill="#a84800" stroke="#a84800" stroke-width="5" points="2199.75,-858.07 2191,-838.07 2182.25,-858.07 2199.75,-858.07"/>
</a>
</g>
</g>
<!-- T_towns_food -->
<g id="node30" class="node">
<title>T_towns_food</title>
<polygon fill="none" stroke="orange" stroke-width="5" points="2646.5,-964.5 2507.5,-964.5 2507.5,-881.5 2646.5,-881.5 2646.5,-964.5"/>
<text text-anchor="middle" x="2577" y="-914.9" font-family="sans-serif" font-size="32.00" fill="orange">Towns</text>
</g>
<!-- C_food&#45;&gt;T_towns_food -->
<g id="edge10" class="edge">
<title>C_food&#45;&gt;T_towns_food</title>
<path fill="none" stroke="orange" stroke-width="5" d="M2236.05,-923C2296.99,-923 2408.4,-923 2487.03,-923"/>
<polygon fill="orange" stroke="orange" stroke-width="5" points="2487.27,-931.75 2507.27,-923 2487.27,-914.25 2487.27,-931.75"/>
</g>
<!-- I_fishing_harbour&#45;&gt;C_food -->
<g id="edge25" class="edge">
<title>I_fishing_harbour&#45;&gt;C_food</title>
<g id="a_edge25"><a xlink:title="Fishing Harbour &#45;&gt; Food">
<path fill="none" stroke="#a84800" stroke-width="5" d="M2191,-1199.72C2191,-1114.68 2191,-1029.64 2191,-944.6"/>
</a>
</g>
</g>
<!-- C_goods -->
<g id="goods" class="node">
<title>C_goods</title>
<g id="a_goods"><a xlink:href="cargos.html#goods" xlink:title="Goods" target="_top">
<polygon fill="#a84b60" stroke="#a84b60" points="2632.5,-721.5 2521.5,-721.5 2521.5,-678.5 2632.5,-678.5 2632.5,-721.5"/>
<text text-anchor="middle" x="2577" y="-691.9" font-family="sans-serif" font-size="32.00" fill="white">Goods</text>
</a>
</g>
</g>
<!-- I_port&#45;&gt;C_goods -->
<g id="edge30" class="edge">
<title>I_port&#45;&gt;C_goods</title>
<g id="a_edge30"><a xlink:title="Port &#45;&gt; Goods">
<path fill="none" stroke="#a84b60" stroke-width="5" d="M2350.13,-700C2410.91,-700 2476.36,-700 2521.08,-700"/>
</a>
</g>
</g>
<!-- T_town_industries -->
<g id="node13" class="node">
<title>T_town_industries</title>
<text text-anchor="middle" x="2577" y="-1696.9" font-family="sans-serif" font-size="32.00">Town Industries</text>
</g>
<!-- I_general_store -->
<g id="general_store" class="node">
<title>I_general_store</title>
<g id="a_general_store"><a xlink:href="industries.html#general_store" xlink:title="General Store" target="_top">
<polygon fill="none" stroke="#c1cdcd" points="2421,-1359 2421,-1616 2733,-1616 2733,-1359 2421,-1359"/>
<polygon fill="ghostwhite" stroke="transparent" points="2422,-1360 2422,-1615 2732,-1615 2732,-1360 2422,-1360"/>
<image xlink:href="static/img/industries/general_store.png" width="300px" height="165px" preserveAspectRatio="xMinYMin meet" x="2427" y="-1610"/>
<text text-anchor="start" x="2534.5" y="-1428.8" font-family="sans-serif" font-size="14.00">General Store</text>
<text text-anchor="start" x="2525.5" y="-1408.8" font-family="sans-serif" font-size="14.00">Requires Alcohol</text>
<text text-anchor="start" x="2532.5" y="-1388.8" font-family="sans-serif" font-size="14.00">Requires Food</text>
<text text-anchor="start" x="2527.5" y="-1368.8" font-family="sans-serif" font-size="14.00">Requires Goods</text>
</a>
</g>
</g>
<!-- I_hotel -->
<g id="hotel" class="node">
<title>I_hotel</title>
<g id="a_hotel"><a xlink:href="industries.html#hotel" xlink:title="Hotel" target="_top">
<polygon fill="none" stroke="#c1cdcd" points="2421,-1031 2421,-1288 2733,-1288 2733,-1031 2421,-1031"/>
<polygon fill="ghostwhite" stroke="transparent" points="2422,-1032 2422,-1287 2732,-1287 2732,-1032 2422,-1032"/>
<image xlink:href="static/img/industries/hotel.png" width="300px" height="165px" preserveAspectRatio="xMinYMin meet" x="2427" y="-1282"/>
<text text-anchor="start" x="2561" y="-1100.8" font-family="sans-serif" font-size="14.00">Hotel</text>
<text text-anchor="start" x="2525.5" y="-1080.8" font-family="sans-serif" font-size="14.00">Requires Alcohol</text>
<text text-anchor="start" x="2532.5" y="-1060.8" font-family="sans-serif" font-size="14.00">Requires Food</text>
<text text-anchor="start" x="2512" y="-1040.8" font-family="sans-serif" font-size="14.00">Requires Passengers</text>
</a>
</g>
</g>
<!-- I_chemical_plant -->
<g id="chemical_plant" class="node">
<title>I_chemical_plant</title>
<g id="a_chemical_plant"><a xlink:href="industries.html#chemical_plant" xlink:title="Chemical Plant" target="_top">
<polygon fill="none" stroke="#c1cdcd" points="633,-121 633,-288 935,-288 935,-121 633,-121"/>
<image xlink:href="static/img/industries/chemical_plant.png" width="300px" height="165px" preserveAspectRatio="xMinYMin meet" x="634" y="-287"/>
<polygon fill="none" stroke="#c1cdcd" points="633,-74 633,-121 935,-121 935,-74 633,-74"/>
<polygon fill="ghostwhite" stroke="transparent" points="634,-75 634,-120 934,-120 934,-75 634,-75"/>
<text text-anchor="start" x="676" y="-89.4" font-family="sans-serif" font-size="32.00">Chemical Plant</text>
</a>
</g>
</g>
<!-- C_nitrates&#45;&gt;I_chemical_plant -->
<g id="edge14" class="edge">
<title>C_nitrates&#45;&gt;I_chemical_plant</title>
<g id="a_edge14"><a xlink:title="Nitrates &#45;&gt; Chemical Plant">
<path fill="none" stroke="#a85050" stroke-width="5" d="M535.33,-265.55C556.26,-258.4 580.72,-250.06 605.96,-241.44"/>
<polygon fill="#a85050" stroke="#a85050" stroke-width="5" points="608.8,-249.72 624.9,-234.97 603.14,-233.15 608.8,-249.72"/>
</a>
</g>
</g>
<!-- C_oil -->
<g id="oil" class="node">
<title>C_oil</title>
<g id="a_oil"><a xlink:href="cargos.html#oil" xlink:title="Oil" target="_top">
<polygon fill="#7d70a8" stroke="#7d70a8" points="499,-202.5 444,-202.5 444,-159.5 499,-159.5 499,-202.5"/>
<text text-anchor="middle" x="471.5" y="-172.9" font-family="sans-serif" font-size="32.00" fill="white">Oil</text>
</a>
</g>
</g>
<!-- C_oil&#45;&gt;I_chemical_plant -->
<g id="edge15" class="edge">
<title>C_oil&#45;&gt;I_chemical_plant</title>
<g id="a_edge15"><a xlink:title="Oil &#45;&gt; Chemical Plant">
<path fill="none" stroke="#7d70a8" stroke-width="5" d="M499.24,-181C524.01,-181 563.18,-181 604.6,-181"/>
<polygon fill="#7d70a8" stroke="#7d70a8" stroke-width="5" points="604.73,-189.75 624.73,-181 604.73,-172.25 604.73,-189.75"/>
</a>
</g>
</g>
<!-- C_chemicals -->
<g id="chemicals" class="node">
<title>C_chemicals</title>
<g id="a_chemicals"><a xlink:href="cargos.html#chemicals" xlink:title="Chemicals" target="_top">
<polygon fill="#a86052" stroke="#a86052" points="1197.5,-309.5 1031.5,-309.5 1031.5,-266.5 1197.5,-266.5 1197.5,-309.5"/>
<text text-anchor="middle" x="1114.5" y="-279.9" font-family="sans-serif" font-size="32.00" fill="white">Chemicals</text>
</a>
</g>
</g>
<!-- C_chemicals&#45;&gt;I_port -->
<g id="edge4" class="edge">
<title>C_chemicals&#45;&gt;I_port</title>
<g id="a_edge4"><a xlink:title="Chemicals &#45;&gt; Port">
<path fill="none" stroke="#a86052" stroke-width="5" d="M1197.77,-289.91C1295.03,-294.18 1460.76,-307.8 1596,-351 1774.79,-408.11 1808.38,-451.91 1969,-549 1983.95,-558.04 1999.28,-567.68 2014.55,-577.55"/>
<polygon fill="#a86052" stroke="#a86052" stroke-width="5" points="2010.21,-585.17 2031.74,-588.77 2019.78,-570.51 2010.21,-585.17"/>
</a>
</g>
</g>
<!-- I_copper_refinery -->
<g id="copper_refinery" class="node">
<title>I_copper_refinery</title>
<g id="a_copper_refinery"><a xlink:href="industries.html#copper_refinery" xlink:title="Copper Smelter" target="_top">
<polygon fill="none" stroke="#c1cdcd" points="1278,-434 1278,-601 1580,-601 1580,-434 1278,-434"/>
<image xlink:href="static/img/industries/copper_refinery.png" width="300px" height="165px" preserveAspectRatio="xMinYMin meet" x="1279" y="-600"/>
<polygon fill="none" stroke="#c1cdcd" points="1278,-387 1278,-434 1580,-434 1580,-387 1278,-387"/>
<polygon fill="ghostwhite" stroke="transparent" points="1279,-388 1279,-433 1579,-433 1579,-388 1279,-388"/>
<text text-anchor="start" x="1316" y="-402.4" font-family="sans-serif" font-size="32.00">Copper Smelter</text>
</a>
</g>
</g>
<!-- C_chemicals&#45;&gt;I_copper_refinery -->
<g id="edge3" class="edge">
<title>C_chemicals&#45;&gt;I_copper_refinery</title>
<g id="a_edge3"><a xlink:title="Chemicals &#45;&gt; Copper Smelter">
<path fill="none" stroke="#a86052" stroke-width="5" d="M1148.35,-309.66C1174.38,-326.82 1212.96,-352.25 1253.2,-378.77"/>
<polygon fill="#a86052" stroke="#a86052" stroke-width="5" points="1248.39,-386.08 1269.9,-389.78 1258.02,-371.47 1248.39,-386.08"/>
</a>
</g>
</g>
<!-- C_copper_ore -->
<g id="copper_ore" class="node">
<title>C_copper_ore</title>
<g id="a_copper_ore"><a xlink:href="cargos.html#copper_ore" xlink:title="Copper Ore" target="_top">
<polygon fill="#5d45a8" stroke="#5d45a8" points="1207,-515.5 1022,-515.5 1022,-472.5 1207,-472.5 1207,-515.5"/>
<text text-anchor="middle" x="1114.5" y="-485.9" font-family="sans-serif" font-size="32.00" fill="white">Copper Ore</text>
</a>
</g>
</g>
<!-- C_copper_ore&#45;&gt;I_copper_refinery -->
<g id="edge7" class="edge">
<title>C_copper_ore&#45;&gt;I_copper_refinery</title>
<g id="a_edge7"><a xlink:title="Copper Ore &#45;&gt; Copper Smelter">
<path fill="none" stroke="#5d45a8" stroke-width="5" d="M1207.15,-494C1220.77,-494 1235.18,-494 1249.86,-494"/>
<polygon fill="#5d45a8" stroke="#5d45a8" stroke-width="5" points="1249.99,-502.75 1269.99,-494 1249.99,-485.25 1249.99,-502.75"/>
</a>
</g>
</g>
<!-- I_chemical_plant&#45;&gt;C_chemicals -->
<g id="edge19" class="edge">
<title>I_chemical_plant&#45;&gt;C_chemicals</title>
<g id="a_edge19"><a xlink:title="Chemical Plant &#45;&gt; Chemicals">
<path fill="none" stroke="#a86052" stroke-width="5" d="M943.48,-232.62C980.06,-244.54 1017.03,-256.58 1047.11,-266.38"/>
</a>
</g>
</g>
<!-- I_copper_mine -->
<g id="copper_mine" class="node">
<title>I_copper_mine</title>
<g id="a_copper_mine"><a xlink:href="industries.html#copper_mine" xlink:title="Copper Mine" target="_top">
<polygon fill="none" stroke="#c1cdcd" points="633,-433 633,-600 935,-600 935,-433 633,-433"/>
<image xlink:href="static/img/industries/copper_mine.png" width="300px" height="165px" preserveAspectRatio="xMinYMin meet" x="634" y="-599"/>
<polygon fill="none" stroke="#c1cdcd" points="633,-359 633,-433 935,-433 935,-359 633,-359"/>
<polygon fill="ghostwhite" stroke="transparent" points="634,-360 634,-432 934,-432 934,-360 634,-360"/>
<text text-anchor="start" x="691.5" y="-401.4" font-family="sans-serif" font-size="32.00">Copper Mine</text>
<text text-anchor="start" x="645.5" y="-371" font-family="sans-serif" font-size="20.00">Requires Engineering Supplies</text>
</a>
</g>
</g>
<!-- I_copper_mine&#45;&gt;C_copper_ore -->
<g id="edge22" class="edge">
<title>I_copper_mine&#45;&gt;C_copper_ore</title>
<g id="a_edge22"><a xlink:title="Copper Mine &#45;&gt; Copper Ore">
<path fill="none" stroke="#5d45a8" stroke-width="5" d="M943.48,-486.75C970.38,-487.9 997.5,-489.06 1021.93,-490.1"/>
</a>
</g>
</g>
<!-- C_copper -->
<g id="copper" class="node">
<title>C_copper</title>
<g id="a_copper"><a xlink:href="cargos.html#copper" xlink:title="Copper" target="_top">
<polygon fill="#a89a28" stroke="#a89a28" points="1871,-615.5 1749,-615.5 1749,-572.5 1871,-572.5 1871,-615.5"/>
<text text-anchor="middle" x="1810" y="-585.9" font-family="sans-serif" font-size="32.00" fill="white">Copper</text>
</a>
</g>
</g>
<!-- I_copper_refinery&#45;&gt;C_copper -->
<g id="edge23" class="edge">
<title>I_copper_refinery&#45;&gt;C_copper</title>
<g id="a_edge23"><a xlink:title="Copper Smelter &#45;&gt; Copper">
<path fill="none" stroke="#a89a28" stroke-width="5" d="M1588.26,-535.76C1644.89,-550.7 1705.35,-566.65 1748.65,-578.08"/>
</a>
</g>
</g>
<!-- I_oil_wells -->
<g id="oil_wells" class="node">
<title>I_oil_wells</title>
<g id="a_oil_wells"><a xlink:href="industries.html#oil_wells" xlink:title="Oil Wells" target="_top">
<polygon fill="none" stroke="#c1cdcd" points="24,-94 24,-261 326,-261 326,-94 24,-94"/>
<image xlink:href="static/img/industries/oil_wells.png" width="300px" height="165px" preserveAspectRatio="xMinYMin meet" x="25" y="-260"/>
<polygon fill="none" stroke="#c1cdcd" points="24,-20 24,-94 326,-94 326,-20 24,-20"/>
<polygon fill="ghostwhite" stroke="transparent" points="25,-21 25,-93 325,-93 325,-21 25,-21"/>
<text text-anchor="start" x="113" y="-62.4" font-family="sans-serif" font-size="32.00">Oil Wells</text>
<text text-anchor="start" x="36.5" y="-32" font-family="sans-serif" font-size="20.00">Requires Engineering Supplies</text>
</a>
</g>
</g>
<!-- I_oil_wells&#45;&gt;C_oil -->
<g id="edge29" class="edge">
<title>I_oil_wells&#45;&gt;C_oil</title>
<g id="a_edge29"><a xlink:title="Oil Wells &#45;&gt; Oil">
<path fill="none" stroke="#7d70a8" stroke-width="5" d="M334.03,-162.46C376.6,-168.25 417.96,-173.86 443.78,-177.37"/>
</a>
</g>
</g>
<!-- C_beans&#45;&gt;I_food_processor -->
<g id="edge2" class="edge">
<title>C_beans&#45;&gt;I_food_processor</title>
<g id="a_edge2"><a xlink:title="Beans &#45;&gt; Food Processing Plant">
<path fill="none" stroke="#602c03" stroke-width="5" d="M525.17,-1509.77C543.78,-1505.09 565.95,-1499.52 589.37,-1493.64"/>
<polygon fill="#602c03" stroke="#602c03" stroke-width="5" points="591.55,-1502.11 608.82,-1488.76 587.29,-1485.14 591.55,-1502.11"/>
</a>
</g>
</g>
<!-- C_fruits&#45;&gt;I_food_processor -->
<g id="edge11" class="edge">
<title>C_fruits&#45;&gt;I_food_processor</title>
<g id="a_edge11"><a xlink:title="Fruit &#45;&gt; Food Processing Plant">
<path fill="none" stroke="#004ca8" stroke-width="5" d="M511.51,-1420.52C532.32,-1422.39 559.65,-1424.86 588.95,-1427.5"/>
<polygon fill="#004ca8" stroke="#004ca8" stroke-width="5" points="588.26,-1436.22 608.97,-1429.31 589.83,-1418.8 588.26,-1436.22"/>
</a>
</g>
</g>
<!-- C_alcohol -->
<g id="alcohol" class="node">
<title>C_alcohol</title>
<g id="a_alcohol"><a xlink:href="cargos.html#alcohol" xlink:title="Alcohol" target="_top">
<polygon fill="#a80000" stroke="#a80000" points="1870.5,-933.5 1749.5,-933.5 1749.5,-890.5 1870.5,-890.5 1870.5,-933.5"/>
<text text-anchor="middle" x="1810" y="-903.9" font-family="sans-serif" font-size="32.00" fill="white">Alcohol</text>
</a>
</g>
</g>
<!-- C_alcohol&#45;&gt;I_port -->
<g id="edge1" class="edge">
<title>C_alcohol&#45;&gt;I_port</title>
<g id="a_edge1"><a xlink:title="Alcohol &#45;&gt; Port">
<path fill="none" stroke="#a80000" stroke-width="5" d="M1870.86,-896.54C1901.15,-887.58 1937.97,-874.9 1969,-859 1984.28,-851.17 1999.67,-842.36 2014.84,-833"/>
<polygon fill="#a80000" stroke="#a80000" stroke-width="5" points="2019.64,-840.32 2031.85,-822.23 2010.27,-825.54 2019.64,-840.32"/>
</a>
</g>
</g>
<!-- C_coffee&#45;&gt;I_port -->
<g id="edge5" class="edge">
<title>C_coffee&#45;&gt;I_port</title>
<g id="a_edge5"><a xlink:title="Coffee &#45;&gt; Port">
<path fill="none" stroke="#347084" stroke-width="5" d="M1865.3,-790.81C1904.13,-779.95 1958.76,-764.67 2012.15,-749.74"/>
<polygon fill="#347084" stroke="#347084" stroke-width="5" points="2014.83,-758.08 2031.74,-744.26 2010.12,-741.22 2014.83,-758.08"/>
</a>
</g>
</g>
<!-- C_copper&#45;&gt;I_port -->
<g id="edge6" class="edge">
<title>C_copper&#45;&gt;I_port</title>
<g id="a_edge6"><a xlink:title="Copper &#45;&gt; Port">
<path fill="none" stroke="#a89a28" stroke-width="5" d="M1871.05,-610.8C1909.46,-621.54 1961.45,-636.08 2012.3,-650.3"/>
<polygon fill="#a89a28" stroke="#a89a28" stroke-width="5" points="2010.09,-658.77 2031.71,-655.73 2014.8,-641.91 2010.09,-658.77"/>
</a>
</g>
</g>
<!-- C_wool&#45;&gt;I_port -->
<g id="edge16" class="edge">
<title>C_wool&#45;&gt;I_port</title>
<g id="a_edge16"><a xlink:title="Wool &#45;&gt; Port">
<path fill="none" stroke="#a8926d" stroke-width="5" d="M1854.85,-700C1893.8,-700 1953.43,-700 2011.65,-700"/>
<polygon fill="#a8926d" stroke="#a8926d" stroke-width="5" points="2011.73,-708.75 2031.73,-700 2011.73,-691.25 2011.73,-708.75"/>
</a>
</g>
</g>
<!-- C_grain&#45;&gt;I_flour_mill -->
<g id="edge12" class="edge">
<title>C_grain&#45;&gt;I_flour_mill</title>
<g id="a_edge12"><a xlink:title="Grain &#45;&gt; Flour Mill">
<path fill="none" stroke="#505050" stroke-width="5" d="M519.32,-1729.15C542.85,-1729.23 573.01,-1729.32 604.48,-1729.43"/>
<polygon fill="#505050" stroke="#505050" stroke-width="5" points="604.72,-1738.18 624.75,-1729.49 604.77,-1720.68 604.72,-1738.18"/>
</a>
</g>
</g>
<!-- C_livestock&#45;&gt;I_stockyard -->
<g id="edge13" class="edge">
<title>C_livestock&#45;&gt;I_stockyard</title>
<g id="a_edge13"><a xlink:title="Livestock &#45;&gt; Stockyard">
<path fill="none" stroke="#468fa8" stroke-width="5" d="M546.08,-965.09C564.35,-970.33 584.71,-976.16 605.63,-982.16"/>
<polygon fill="#468fa8" stroke="#468fa8" stroke-width="5" points="603.31,-990.6 624.95,-987.7 608.13,-973.77 603.31,-990.6"/>
</a>
</g>
</g>
<!-- I_fishing_grounds -->
<g id="fishing_grounds" class="node">
<title>I_fishing_grounds</title>
<g id="a_fishing_grounds"><a xlink:href="industries.html#fishing_grounds" xlink:title="Fishing Grounds" target="_top">
<polygon fill="none" stroke="#c1cdcd" points="1659,-1639 1659,-1806 1961,-1806 1961,-1639 1659,-1639"/>
<image xlink:href="static/img/industries/fishing_grounds.png" width="300px" height="165px" preserveAspectRatio="xMinYMin meet" x="1660" y="-1805"/>
<polygon fill="none" stroke="#c1cdcd" points="1659,-1592 1659,-1639 1961,-1639 1961,-1592 1659,-1592"/>
<polygon fill="ghostwhite" stroke="transparent" points="1660,-1593 1660,-1638 1960,-1638 1960,-1593 1660,-1593"/>
<text text-anchor="start" x="1692.5" y="-1607.4" font-family="sans-serif" font-size="32.00">Fishing Grounds</text>
</a>
</g>
</g>
<!-- I_fishing_grounds&#45;&gt;C_fish -->
<g id="edge24" class="edge">
<title>I_fishing_grounds&#45;&gt;C_fish</title>
<g id="a_edge24"><a xlink:title="Fishing Grounds &#45;&gt; Fish">
<path fill="none" stroke="#882034" stroke-width="5" d="M1969.26,-1658.91C2036.65,-1641.84 2109.46,-1623.4 2152.32,-1612.54"/>
</a>
</g>
</g>
<!-- I_vineyard -->
<g id="vineyard" class="node">
<title>I_vineyard</title>
<g id="a_vineyard"><a xlink:href="industries.html#vineyard" xlink:title="Vineyard" target="_top">
<polygon fill="none" stroke="#c1cdcd" points="24,-1370 24,-1537 326,-1537 326,-1370 24,-1370"/>
<image xlink:href="static/img/industries/vineyard.png" width="300px" height="165px" preserveAspectRatio="xMinYMin meet" x="25" y="-1536"/>
<polygon fill="none" stroke="#c1cdcd" points="24,-1296 24,-1370 326,-1370 326,-1296 24,-1296"/>
<polygon fill="ghostwhite" stroke="transparent" points="25,-1297 25,-1369 325,-1369 325,-1297 25,-1297"/>
<text text-anchor="start" x="111.5" y="-1338.4" font-family="sans-serif" font-size="32.00">Vineyard</text>
<text text-anchor="start" x="67.5" y="-1308" font-family="sans-serif" font-size="20.00">Requires Farm Supplies</text>
</a>
</g>
</g>
<!-- I_vineyard&#45;&gt;C_fruits -->
<g id="edge35" class="edge">
<title>I_vineyard&#45;&gt;C_fruits</title>
<g id="a_edge35"><a xlink:title="Vineyard &#45;&gt; Fruit">
<path fill="none" stroke="#004ca8" stroke-width="5" d="M334.03,-1417C370.32,-1417 405.74,-1417 431.4,-1417"/>
</a>
</g>
</g>
<!-- I_vineyard&#45;&gt;C_alcohol -->
<g id="edge34" class="edge">
<title>I_vineyard&#45;&gt;C_alcohol</title>
<g id="a_edge34"><a xlink:title="Vineyard &#45;&gt; Alcohol">
<path fill="none" stroke="#a80000" stroke-width="5" d="M334.29,-1343.7C454.66,-1294.64 625.82,-1239 783,-1239 783,-1239 783,-1239 1115.5,-1239 1402.69,-1239 1698.38,-1006.74 1784.26,-933.71"/>
</a>
</g>
</g>
</g>
</svg>
