<?xml version="1.0" encoding="UTF-8" standalone="no"?>
<?xml-stylesheet href="static/css/cargoflow_styles.css" type="text/css"?>
<!DOCTYPE svg PUBLIC "-//W3C//DTD SVG 1.1//EN"
 "http://www.w3.org/Graphics/SVG/1.1/DTD/svg11.dtd">
<!-- Generated by graphviz version 7.0.6 (20230106.0513)
 -->
<!-- Title: arctic_basic Pages: 1 -->
<svg width="3087pt" height="1717pt"
 viewBox="0.00 0.00 3087.00 1716.50" xmlns="http://www.w3.org/2000/svg" xmlns:xlink="http://www.w3.org/1999/xlink">
<g id="graph0" class="graph" transform="scale(1 1) rotate(0) translate(4 1712.5)">
<title>arctic_basic</title>
<g id="a_graph0"><a xlink:title="Arctic Basic">
<polygon fill="white" stroke="none" points="-4,4 -4,-1712.5 3083,-1712.5 3083,4 -4,4"/>
</a>
</g>
<!-- C_ammonia -->
<g id="ammonia" class="node">
<title>C_ammonia</title>
<g id="a_ammonia"><a xlink:href="cargos.html#ammonia" xlink:title="&lt;TABLE&gt;" target="_top">
<polygon fill="#a80000" stroke="#a80000" points="1214.5,-275.5 1050.5,-275.5 1050.5,-220.5 1214.5,-220.5 1214.5,-275.5"/>
<polygon fill="none" stroke="#a80000" points="1061.5,-227 1061.5,-268 1203.5,-268 1203.5,-227 1061.5,-227"/>
<text text-anchor="start" x="1064.5" y="-239.4" font-family="sans-serif" font-size="32.00" fill="white">Ammonia</text>
<polygon fill="none" stroke="#a80000" points="1058.5,-224.5 1058.5,-271.5 1206.5,-271.5 1206.5,-224.5 1058.5,-224.5"/>
</a>
</g>
</g>
<!-- I_chemical_plant -->
<g id="chemical_plant" class="node">
<title>I_chemical_plant</title>
<g id="a_chemical_plant"><a xlink:href="industries.html#chemical_plant" xlink:title="Chemical Plant" target="_top">
<polygon fill="white" stroke="none" points="1339,-470 1339,-684 1641,-684 1641,-470 1339,-470"/>
<polygon fill="none" stroke="#c1cdcd" points="1339,-517 1339,-684 1641,-684 1641,-517 1339,-517"/>
<image xlink:href="static/img/industries/chemical_plant.png" width="300px" height="165px" preserveAspectRatio="xMinYMin meet" x="1340" y="-683"/>
<polygon fill="none" stroke="#c1cdcd" points="1339,-470 1339,-517 1641,-517 1641,-470 1339,-470"/>
<polygon fill="ghostwhite" stroke="none" points="1340,-471 1340,-516 1640,-516 1640,-471 1340,-471"/>
<text text-anchor="start" x="1382" y="-485.4" font-family="sans-serif" font-size="32.00">Chemical Plant</text>
</a>
</g>
</g>
<!-- C_ammonia&#45;&gt;I_chemical_plant -->
<g id="edge1" class="edge">
<title>C_ammonia&#45;&gt;I_chemical_plant</title>
<g id="a_edge1"><a xlink:title="Ammonia &#45;&gt; Chemical Plant">
<path fill="none" stroke="#a80000" stroke-width="5" d="M1206.97,-276C1227.78,-285.72 1249.71,-297.81 1268,-312 1316.33,-349.51 1361.27,-399.26 1397.84,-445.52"/>
<polygon fill="#a80000" stroke="#a80000" stroke-width="5" points="1390.8,-450.72 1409.95,-461.19 1404.64,-440.01 1390.8,-450.72"/>
</a>
</g>
</g>
<!-- C_explosives -->
<g id="explosives" class="node">
<title>C_explosives</title>
<g id="a_explosives"><a xlink:href="cargos.html#explosives" xlink:title="&lt;TABLE&gt;" target="_top">
<polygon fill="#a86052" stroke="#a86052" points="1892,-770.5 1712,-770.5 1712,-715.5 1892,-715.5 1892,-770.5"/>
<polygon fill="none" stroke="#a86052" points="1723,-722 1723,-763 1881,-763 1881,-722 1723,-722"/>
<text text-anchor="start" x="1726" y="-734.4" font-family="sans-serif" font-size="32.00" fill="white">Explosives</text>
<polygon fill="none" stroke="#a86052" points="1720,-719.5 1720,-766.5 1884,-766.5 1884,-719.5 1720,-719.5"/>
</a>
</g>
</g>
<!-- I_chemical_plant&#45;&gt;C_explosives -->
<g id="edge18" class="edge">
<title>I_chemical_plant&#45;&gt;C_explosives</title>
<g id="a_edge18"><a xlink:title="Chemical Plant &#45;&gt; Explosives">
<path fill="none" stroke="#a86052" stroke-width="5" d="M1648.72,-661.46C1684.92,-680.84 1720.92,-700.12 1748.82,-715.06"/>
</a>
</g>
</g>
<!-- C_fertiliser -->
<g id="fertiliser" class="node">
<title>C_fertiliser</title>
<g id="a_fertiliser"><a xlink:href="cargos.html#fertiliser" xlink:title="&lt;TABLE&gt;" target="_top">
<polygon fill="#347084" stroke="#347084" points="1877,-521.5 1727,-521.5 1727,-466.5 1877,-466.5 1877,-521.5"/>
<polygon fill="none" stroke="#347084" points="1738,-473 1738,-514 1866,-514 1866,-473 1738,-473"/>
<text text-anchor="start" x="1741" y="-485.4" font-family="sans-serif" font-size="32.00" fill="white">Fertiliser</text>
<polygon fill="none" stroke="#347084" points="1735,-470.5 1735,-517.5 1869,-517.5 1869,-470.5 1735,-470.5"/>
</a>
</g>
</g>
<!-- I_chemical_plant&#45;&gt;C_fertiliser -->
<g id="edge19" class="edge">
<title>I_chemical_plant&#45;&gt;C_fertiliser</title>
<g id="a_edge19"><a xlink:title="Chemical Plant &#45;&gt; Fertiliser">
<path fill="none" stroke="#347084" stroke-width="5" d="M1648.72,-534.77C1675.95,-527.48 1703.06,-520.22 1726.69,-513.89"/>
</a>
</g>
</g>
<!-- C_kaolin -->
<g id="kaolin" class="node">
<title>C_kaolin</title>
<g id="a_kaolin"><a xlink:href="cargos.html#kaolin" xlink:title="&lt;TABLE&gt;" target="_top">
<polygon fill="#5d45a8" stroke="#5d45a8" points="2521,-275.5 2336,-275.5 2336,-220.5 2521,-220.5 2521,-275.5"/>
<polygon fill="none" stroke="#5d45a8" points="2347.5,-227 2347.5,-268 2510.5,-268 2510.5,-227 2347.5,-227"/>
<text text-anchor="start" x="2350.5" y="-239.4" font-family="sans-serif" font-size="32.00" fill="white">China Clay</text>
<polygon fill="none" stroke="#5d45a8" points="2344,-224.5 2344,-271.5 2513,-271.5 2513,-224.5 2344,-224.5"/>
</a>
</g>
</g>
<!-- I_paper_mill -->
<g id="paper_mill" class="node">
<title>I_paper_mill</title>
<g id="a_paper_mill"><a xlink:href="industries.html#paper_mill" xlink:title="Paper Mill" target="_top">
<polygon fill="white" stroke="none" points="2592,-244 2592,-458 2894,-458 2894,-244 2592,-244"/>
<polygon fill="none" stroke="#c1cdcd" points="2592,-291 2592,-458 2894,-458 2894,-291 2592,-291"/>
<image xlink:href="static/img/industries/paper_mill.png" width="300px" height="165px" preserveAspectRatio="xMinYMin meet" x="2593" y="-457"/>
<polygon fill="none" stroke="#c1cdcd" points="2592,-244 2592,-291 2894,-291 2894,-244 2592,-244"/>
<polygon fill="ghostwhite" stroke="none" points="2593,-245 2593,-290 2893,-290 2893,-245 2593,-245"/>
<text text-anchor="start" x="2672" y="-259.4" font-family="sans-serif" font-size="32.00">Paper Mill</text>
</a>
</g>
</g>
<!-- C_kaolin&#45;&gt;I_paper_mill -->
<g id="edge2" class="edge">
<title>C_kaolin&#45;&gt;I_paper_mill</title>
<g id="a_edge2"><a xlink:title="China Clay &#45;&gt; Paper Mill">
<path fill="none" stroke="#5d45a8" stroke-width="5" d="M2514.07,-275.87C2528.36,-280.58 2543.68,-285.63 2559.36,-290.8"/>
<polygon fill="#5d45a8" stroke="#5d45a8" stroke-width="5" points="2556.55,-299.09 2578.28,-297.04 2562.03,-282.47 2556.55,-299.09"/>
</a>
</g>
</g>
<!-- C_paper -->
<g id="paper" class="node">
<title>C_paper</title>
<g id="a_paper"><a xlink:href="cargos.html#paper" xlink:title="&lt;TABLE&gt;" target="_top">
<polygon fill="#882034" stroke="#882034" points="3079,-255.5 2965,-255.5 2965,-200.5 3079,-200.5 3079,-255.5"/>
<polygon fill="none" stroke="#882034" points="2976,-207 2976,-248 3068,-248 3068,-207 2976,-207"/>
<text text-anchor="start" x="2979" y="-219.4" font-family="sans-serif" font-size="32.00" fill="white">Paper</text>
<polygon fill="none" stroke="#882034" points="2973,-204.5 2973,-251.5 3071,-251.5 3071,-204.5 2973,-204.5"/>
</a>
</g>
</g>
<!-- I_paper_mill&#45;&gt;C_paper -->
<g id="edge25" class="edge">
<title>I_paper_mill&#45;&gt;C_paper</title>
<g id="a_edge25"><a xlink:title="Paper Mill &#45;&gt; Paper">
<path fill="none" stroke="#882034" stroke-width="5" d="M2901.92,-280.88C2924.27,-270.95 2945.94,-261.33 2964.53,-253.08"/>
</a>
</g>
</g>
<!-- I_wharf -->
<g id="wharf" class="node">
<title>I_wharf</title>
<g id="a_wharf"><a xlink:href="industries.html#wharf" xlink:title="Wharf" target="_top">
<polygon fill="white" stroke="none" points="1963,-716 1963,-984 2265,-984 2265,-716 1963,-716"/>
<polygon fill="none" stroke="#c1cdcd" points="1963,-817 1963,-984 2265,-984 2265,-817 1963,-817"/>
<image xlink:href="static/img/industries/wharf.png" width="300px" height="165px" preserveAspectRatio="xMinYMin meet" x="1964" y="-983"/>
<polygon fill="none" stroke="#c1cdcd" points="1963,-716 1963,-817 2265,-817 2265,-716 1963,-716"/>
<polygon fill="ghostwhite" stroke="none" points="1964,-717 1964,-816 2264,-816 2264,-717 1964,-717"/>
<text text-anchor="start" x="2071" y="-785.4" font-family="sans-serif" font-size="32.00">Wharf</text>
<text text-anchor="start" x="1973.5" y="-755" font-family="sans-serif" font-size="20.00">Produces Engineering Supplies</text>
<text text-anchor="start" x="2004" y="-728" font-family="sans-serif" font-size="20.00">Produces Farm Supplies</text>
</a>
</g>
</g>
<!-- C_explosives&#45;&gt;I_wharf -->
<g id="edge3" class="edge">
<title>C_explosives&#45;&gt;I_wharf</title>
<g id="a_edge3"><a xlink:title="Explosives &#45;&gt; Wharf">
<path fill="none" stroke="#a86052" stroke-width="5" d="M1884.04,-770.97C1898.64,-776.01 1914.37,-781.44 1930.52,-787.01"/>
<polygon fill="#a86052" stroke="#a86052" stroke-width="5" points="1927.59,-795.26 1949.35,-793.51 1933.3,-778.72 1927.59,-795.26"/>
</a>
</g>
</g>
<!-- C_potash -->
<g id="potash" class="node">
<title>C_potash</title>
<g id="a_potash"><a xlink:href="cargos.html#potash" xlink:title="&lt;TABLE&gt;" target="_top">
<polygon fill="#468fa8" stroke="#468fa8" points="2492.5,-761.5 2364.5,-761.5 2364.5,-706.5 2492.5,-706.5 2492.5,-761.5"/>
<polygon fill="none" stroke="#468fa8" points="2375.5,-713 2375.5,-754 2481.5,-754 2481.5,-713 2375.5,-713"/>
<text text-anchor="start" x="2378.5" y="-725.4" font-family="sans-serif" font-size="32.00" fill="white">Potash</text>
<polygon fill="none" stroke="#468fa8" points="2372.5,-710.5 2372.5,-757.5 2484.5,-757.5 2484.5,-710.5 2372.5,-710.5"/>
</a>
</g>
</g>
<!-- I_wharf&#45;&gt;C_potash -->
<g id="edge34" class="edge">
<title>I_wharf&#45;&gt;C_potash</title>
<g id="a_edge34"><a xlink:title="Wharf &#45;&gt; Potash">
<path fill="none" stroke="#468fa8" stroke-width="5" d="M2272.62,-791.49C2305.08,-779.44 2337.47,-767.42 2364.17,-757.51"/>
</a>
</g>
</g>
<!-- I_port -->
<g id="port" class="node">
<title>I_port</title>
<g id="a_port"><a xlink:href="industries.html#port" xlink:title="Port" target="_top">
<polygon fill="white" stroke="none" points="1963,-4 1963,-272 2265,-272 2265,-4 1963,-4"/>
<polygon fill="none" stroke="#c1cdcd" points="1963,-105 1963,-272 2265,-272 2265,-105 1963,-105"/>
<image xlink:href="static/img/industries/port.png" width="300px" height="165px" preserveAspectRatio="xMinYMin meet" x="1964" y="-271"/>
<polygon fill="none" stroke="#c1cdcd" points="1963,-4 1963,-105 2265,-105 2265,-4 1963,-4"/>
<polygon fill="ghostwhite" stroke="none" points="1964,-5 1964,-104 2264,-104 2264,-5 1964,-5"/>
<text text-anchor="start" x="2084.5" y="-73.4" font-family="sans-serif" font-size="32.00">Port</text>
<text text-anchor="start" x="1973.5" y="-43" font-family="sans-serif" font-size="20.00">Produces Engineering Supplies</text>
<text text-anchor="start" x="2004" y="-16" font-family="sans-serif" font-size="20.00">Produces Farm Supplies</text>
</a>
</g>
</g>
<!-- C_fertiliser&#45;&gt;I_port -->
<g id="edge4" class="edge">
<title>C_fertiliser&#45;&gt;I_port</title>
<g id="a_edge4"><a xlink:title="Fertiliser &#45;&gt; Port">
<path fill="none" stroke="#347084" stroke-width="5" d="M1827.33,-466.07C1859.73,-428.85 1919.58,-360.12 1976.15,-295.16"/>
<polygon fill="#347084" stroke="#347084" stroke-width="5" points="1982.54,-301.14 1989.08,-280.31 1969.34,-289.65 1982.54,-301.14"/>
</a>
</g>
</g>
<!-- I_port&#45;&gt;C_ammonia -->
<g id="edge28" class="edge">
<title>I_port&#45;&gt;C_ammonia</title>
<g id="a_edge28"><a xlink:title="Port &#45;&gt; Ammonia">
<path fill="none" stroke="#a80000" stroke-width="5" d="M1955.06,-165.82C1933.89,-169.15 1912.44,-172.31 1892,-175 1646.24,-207.36 1353.89,-231.46 1214.81,-242.05"/>
</a>
</g>
</g>
<!-- I_port&#45;&gt;C_kaolin -->
<g id="edge29" class="edge">
<title>I_port&#45;&gt;C_kaolin</title>
<g id="a_edge29"><a xlink:title="Port &#45;&gt; China Clay">
<path fill="none" stroke="#5d45a8" stroke-width="5" d="M2272.62,-193.48C2298.87,-202.72 2325.06,-211.94 2348.23,-220.1"/>
</a>
</g>
</g>
<!-- C_fish -->
<g id="fish" class="node">
<title>C_fish</title>
<g id="a_fish"><a xlink:href="cargos.html#fish" xlink:title="&lt;TABLE&gt;" target="_top">
<polygon fill="#a89a28" stroke="#a89a28" points="511.5,-1312.5 422.5,-1312.5 422.5,-1257.5 511.5,-1257.5 511.5,-1312.5"/>
<polygon fill="none" stroke="#a89a28" points="434,-1264 434,-1305 501,-1305 501,-1264 434,-1264"/>
<text text-anchor="start" x="437" y="-1276.4" font-family="sans-serif" font-size="32.00" fill="white">Fish</text>
<polygon fill="none" stroke="#a89a28" points="430.5,-1261.5 430.5,-1308.5 503.5,-1308.5 503.5,-1261.5 430.5,-1261.5"/>
</a>
</g>
</g>
<!-- I_fishing_harbour -->
<g id="fishing_harbour" class="node">
<title>I_fishing_harbour</title>
<g id="a_fishing_harbour"><a xlink:href="industries.html#fishing_harbour" xlink:title="Fishing Harbour" target="_top">
<polygon fill="white" stroke="none" points="624,-1178 624,-1392 926,-1392 926,-1178 624,-1178"/>
<polygon fill="none" stroke="#c1cdcd" points="624,-1225 624,-1392 926,-1392 926,-1225 624,-1225"/>
<image xlink:href="static/img/industries/fishing_harbour.png" width="300px" height="165px" preserveAspectRatio="xMinYMin meet" x="625" y="-1391"/>
<polygon fill="none" stroke="#c1cdcd" points="624,-1178 624,-1225 926,-1225 926,-1178 624,-1178"/>
<polygon fill="ghostwhite" stroke="none" points="625,-1179 625,-1224 925,-1224 925,-1179 625,-1179"/>
<text text-anchor="start" x="660.5" y="-1193.4" font-family="sans-serif" font-size="32.00">Fishing Harbour</text>
</a>
</g>
</g>
<!-- C_fish&#45;&gt;I_fishing_harbour -->
<g id="edge5" class="edge">
<title>C_fish&#45;&gt;I_fishing_harbour</title>
<g id="a_edge5"><a xlink:title="Fish &#45;&gt; Fishing Harbour">
<path fill="none" stroke="#a89a28" stroke-width="5" d="M511.84,-1285C533.44,-1285 561.1,-1285 590.32,-1285"/>
<polygon fill="#a89a28" stroke="#a89a28" stroke-width="5" points="590.04,-1293.75 610.04,-1285 590.04,-1276.25 590.04,-1293.75"/>
</a>
</g>
</g>
<!-- C_food -->
<g id="food" class="node">
<title>C_food</title>
<g id="a_food"><a xlink:href="cargos.html#food" xlink:title="&lt;TABLE&gt;" target="_top">
<polygon fill="#a84800" stroke="#a84800" points="1268,-1504.5 997,-1504.5 997,-1363.5 1268,-1363.5 1268,-1504.5"/>
<polygon fill="none" stroke="#a84800" points="1008.5,-1456 1008.5,-1497 1257.5,-1497 1257.5,-1456 1008.5,-1456"/>
<text text-anchor="start" x="1096" y="-1468.4" font-family="sans-serif" font-size="32.00" fill="white">Food</text>
<polygon fill="white" stroke="none" points="1008.5,-1413 1008.5,-1454 1257.5,-1454 1257.5,-1413 1008.5,-1413"/>
<polygon fill="none" stroke="#a84800" points="1008.5,-1413 1008.5,-1454 1257.5,-1454 1257.5,-1413 1008.5,-1413"/>
<text text-anchor="start" x="1011.5" y="-1425.4" font-family="sans-serif" font-size="32.00">To General Store</text>
<polygon fill="white" stroke="none" points="1008.5,-1370 1008.5,-1411 1257.5,-1411 1257.5,-1370 1008.5,-1370"/>
<polygon fill="none" stroke="#a84800" points="1008.5,-1370 1008.5,-1411 1257.5,-1411 1257.5,-1370 1008.5,-1370"/>
<text text-anchor="start" x="1074" y="-1382.4" font-family="sans-serif" font-size="32.00">To Hotel</text>
<polygon fill="none" stroke="#a84800" points="1005,-1367.5 1005,-1500.5 1260,-1500.5 1260,-1367.5 1005,-1367.5"/>
</a>
</g>
</g>
<!-- I_fishing_harbour&#45;&gt;C_food -->
<g id="edge22" class="edge">
<title>I_fishing_harbour&#45;&gt;C_food</title>
<g id="a_edge22"><a xlink:title="Fishing Harbour &#45;&gt; Food">
<path fill="none" stroke="#a84800" stroke-width="5" d="M934,-1351.22C954.86,-1359.97 976.09,-1368.86 996.52,-1377.43"/>
</a>
</g>
</g>
<!-- C_logs -->
<g id="logs" class="node">
<title>C_logs</title>
<g id="a_logs"><a xlink:href="cargos.html#logs" xlink:title="&lt;TABLE&gt;" target="_top">
<polygon fill="#a88000" stroke="#a88000" points="1181.5,-1013.5 1083.5,-1013.5 1083.5,-958.5 1181.5,-958.5 1181.5,-1013.5"/>
<polygon fill="none" stroke="#a88000" points="1094.5,-965 1094.5,-1006 1170.5,-1006 1170.5,-965 1094.5,-965"/>
<text text-anchor="start" x="1097.5" y="-977.4" font-family="sans-serif" font-size="32.00" fill="white">Logs</text>
<polygon fill="none" stroke="#a88000" points="1091.5,-962.5 1091.5,-1009.5 1173.5,-1009.5 1173.5,-962.5 1091.5,-962.5"/>
</a>
</g>
</g>
<!-- C_logs&#45;&gt;I_paper_mill -->
<g id="edge6" class="edge">
<title>C_logs&#45;&gt;I_paper_mill</title>
<g id="a_edge6"><a xlink:title="Logs &#45;&gt; Paper Mill">
<path fill="none" stroke="#a88000" stroke-width="5" d="M1181.73,-997.89C1291.13,-1023.8 1566.79,-1083 1801,-1083 1801,-1083 1801,-1083 2115,-1083 2425.85,-1083 2615.72,-697.54 2696.51,-486.05"/>
<polygon fill="#a88000" stroke="#a88000" stroke-width="5" points="2704.59,-489.42 2703.41,-467.62 2688.2,-483.28 2704.59,-489.42"/>
</a>
</g>
</g>
<!-- I_sawmill -->
<g id="sawmill" class="node">
<title>I_sawmill</title>
<g id="a_sawmill"><a xlink:href="industries.html#sawmill" xlink:title="Sawmill" target="_top">
<polygon fill="white" stroke="none" points="1339,-765 1339,-979 1641,-979 1641,-765 1339,-765"/>
<polygon fill="none" stroke="#c1cdcd" points="1339,-812 1339,-979 1641,-979 1641,-812 1339,-812"/>
<image xlink:href="static/img/industries/sawmill.png" width="300px" height="165px" preserveAspectRatio="xMinYMin meet" x="1340" y="-978"/>
<polygon fill="none" stroke="#c1cdcd" points="1339,-765 1339,-812 1641,-812 1641,-765 1339,-765"/>
<polygon fill="ghostwhite" stroke="none" points="1340,-766 1340,-811 1640,-811 1640,-766 1340,-766"/>
<text text-anchor="start" x="1435" y="-780.4" font-family="sans-serif" font-size="32.00">Sawmill</text>
</a>
</g>
</g>
<!-- C_logs&#45;&gt;I_sawmill -->
<g id="edge7" class="edge">
<title>C_logs&#45;&gt;I_sawmill</title>
<g id="a_edge7"><a xlink:title="Logs &#45;&gt; Sawmill">
<path fill="none" stroke="#a88000" stroke-width="5" d="M1181.81,-970.51C1214.64,-959.98 1260.34,-945.33 1306.46,-930.54"/>
<polygon fill="#a88000" stroke="#a88000" stroke-width="5" points="1308.99,-938.92 1325.36,-924.48 1303.64,-922.25 1308.99,-938.92"/>
</a>
</g>
</g>
<!-- C_timber -->
<g id="timber" class="node">
<title>C_timber</title>
<g id="a_timber"><a xlink:href="cargos.html#timber" xlink:title="&lt;TABLE&gt;" target="_top">
<polygon fill="#74581c" stroke="#74581c" points="1866,-897.5 1738,-897.5 1738,-842.5 1866,-842.5 1866,-897.5"/>
<polygon fill="none" stroke="#74581c" points="1749,-849 1749,-890 1855,-890 1855,-849 1749,-849"/>
<text text-anchor="start" x="1752" y="-861.4" font-family="sans-serif" font-size="32.00" fill="white">Timber</text>
<polygon fill="none" stroke="#74581c" points="1746,-846.5 1746,-893.5 1858,-893.5 1858,-846.5 1746,-846.5"/>
</a>
</g>
</g>
<!-- I_sawmill&#45;&gt;C_timber -->
<g id="edge33" class="edge">
<title>I_sawmill&#45;&gt;C_timber</title>
<g id="a_edge33"><a xlink:title="Sawmill &#45;&gt; Timber">
<path fill="none" stroke="#74581c" stroke-width="5" d="M1648.72,-870.98C1680.28,-870.78 1711.69,-870.58 1737.72,-870.41"/>
</a>
</g>
</g>
<!-- C_paper&#45;&gt;I_port -->
<g id="edge8" class="edge">
<title>C_paper&#45;&gt;I_port</title>
<g id="a_edge8"><a xlink:title="Paper &#45;&gt; Port">
<path fill="none" stroke="#882034" stroke-width="5" d="M2964.54,-217.59C2944.8,-214.19 2922.47,-210.63 2902,-208 2696.11,-181.58 2458.64,-161.94 2298.86,-150.29"/>
<polygon fill="#882034" stroke="#882034" stroke-width="5" points="2299.72,-141.58 2279.14,-148.87 2298.46,-159.03 2299.72,-141.58"/>
</a>
</g>
</g>
<!-- C_peat -->
<g id="peat" class="node">
<title>C_peat</title>
<g id="a_peat"><a xlink:href="cargos.html#peat" xlink:title="&lt;TABLE&gt;" target="_top">
<polygon fill="#004ca8" stroke="#004ca8" points="1849.5,-1323.5 1754.5,-1323.5 1754.5,-1268.5 1849.5,-1268.5 1849.5,-1323.5"/>
<polygon fill="none" stroke="#004ca8" points="1766,-1275 1766,-1316 1839,-1316 1839,-1275 1766,-1275"/>
<text text-anchor="start" x="1769" y="-1287.4" font-family="sans-serif" font-size="32.00" fill="white">Peat</text>
<polygon fill="none" stroke="#004ca8" points="1762.5,-1272.5 1762.5,-1319.5 1841.5,-1319.5 1841.5,-1272.5 1762.5,-1272.5"/>
</a>
</g>
</g>
<!-- C_peat&#45;&gt;I_wharf -->
<g id="edge10" class="edge">
<title>C_peat&#45;&gt;I_wharf</title>
<g id="a_edge10"><a xlink:title="Peat &#45;&gt; Wharf">
<path fill="none" stroke="#004ca8" stroke-width="5" d="M1822.39,-1268.1C1857.98,-1216.91 1936.13,-1104.46 2002.44,-1009.06"/>
<polygon fill="#004ca8" stroke="#004ca8" stroke-width="5" points="2009.47,-1014.28 2013.7,-992.87 1995.1,-1004.3 2009.47,-1014.28"/>
</a>
</g>
</g>
<!-- I_power_plant -->
<g id="power_plant" class="node">
<title>I_power_plant</title>
<g id="a_power_plant"><a xlink:href="industries.html#power_plant" xlink:title="Power Plant" target="_top">
<polygon fill="white" stroke="none" points="1963,-1189 1963,-1403 2265,-1403 2265,-1189 1963,-1189"/>
<polygon fill="none" stroke="#c1cdcd" points="1963,-1236 1963,-1403 2265,-1403 2265,-1236 1963,-1236"/>
<image xlink:href="static/img/industries/power_plant.png" width="300px" height="165px" preserveAspectRatio="xMinYMin meet" x="1964" y="-1402"/>
<polygon fill="none" stroke="#c1cdcd" points="1963,-1189 1963,-1236 2265,-1236 2265,-1189 1963,-1189"/>
<polygon fill="ghostwhite" stroke="none" points="1964,-1190 1964,-1235 2264,-1235 2264,-1190 1964,-1190"/>
<text text-anchor="start" x="2027.5" y="-1204.4" font-family="sans-serif" font-size="32.00">Power Plant</text>
</a>
</g>
</g>
<!-- C_peat&#45;&gt;I_power_plant -->
<g id="edge9" class="edge">
<title>C_peat&#45;&gt;I_power_plant</title>
<g id="a_edge9"><a xlink:title="Peat &#45;&gt; Power Plant">
<path fill="none" stroke="#004ca8" stroke-width="5" d="M1849.75,-1296C1871.79,-1296 1899.67,-1296 1928.98,-1296"/>
<polygon fill="#004ca8" stroke="#004ca8" stroke-width="5" points="1928.76,-1304.75 1948.76,-1296 1928.76,-1287.25 1928.76,-1304.75"/>
</a>
</g>
</g>
<!-- C_phosphate -->
<g id="phosphate" class="node">
<title>C_phosphate</title>
<g id="a_phosphate"><a xlink:href="cargos.html#phosphate" xlink:title="&lt;TABLE&gt;" target="_top">
<polygon fill="#505050" stroke="#505050" points="1223.5,-604.5 1041.5,-604.5 1041.5,-549.5 1223.5,-549.5 1223.5,-604.5"/>
<polygon fill="none" stroke="#505050" points="1052.5,-556 1052.5,-597 1212.5,-597 1212.5,-556 1052.5,-556"/>
<text text-anchor="start" x="1055.5" y="-568.4" font-family="sans-serif" font-size="32.00" fill="white">Phosphate</text>
<polygon fill="none" stroke="#505050" points="1049.5,-553.5 1049.5,-600.5 1215.5,-600.5 1215.5,-553.5 1049.5,-553.5"/>
</a>
</g>
</g>
<!-- C_phosphate&#45;&gt;I_chemical_plant -->
<g id="edge11" class="edge">
<title>C_phosphate&#45;&gt;I_chemical_plant</title>
<g id="a_edge11"><a xlink:title="Phosphate &#45;&gt; Chemical Plant">
<path fill="none" stroke="#505050" stroke-width="5" d="M1223.67,-577C1248.71,-577 1276.84,-577 1305.18,-577"/>
<polygon fill="#505050" stroke="#505050" stroke-width="5" points="1304.94,-585.75 1324.94,-577 1304.94,-568.25 1304.94,-585.75"/>
</a>
</g>
</g>
<!-- C_potash&#45;&gt;I_chemical_plant -->
<g id="edge12" class="edge">
<title>C_potash&#45;&gt;I_chemical_plant</title>
<g id="a_edge12"><a xlink:title="Potash &#45;&gt; Chemical Plant">
<path fill="none" stroke="#468fa8" stroke-width="5" d="M2364.11,-708.54C2336.51,-698.32 2303.54,-687.27 2273,-680 2071.25,-631.99 1834.53,-604.74 1674.82,-590.49"/>
<polygon fill="#468fa8" stroke="#468fa8" stroke-width="5" points="1675.78,-581.79 1655.09,-588.77 1674.26,-599.22 1675.78,-581.79"/>
</a>
</g>
</g>
<!-- C_pyrite_ore -->
<g id="pyrite_ore" class="node">
<title>C_pyrite_ore</title>
<g id="a_pyrite_ore"><a xlink:href="cargos.html#pyrite_ore" xlink:title="&lt;TABLE&gt;" target="_top">
<polygon fill="#a85050" stroke="#a85050" points="553,-226.5 381,-226.5 381,-171.5 553,-171.5 553,-226.5"/>
<polygon fill="none" stroke="#a85050" points="392,-178 392,-219 542,-219 542,-178 392,-178"/>
<text text-anchor="start" x="395" y="-190.4" font-family="sans-serif" font-size="32.00" fill="white">Pyrite Ore</text>
<polygon fill="none" stroke="#a85050" points="389,-175.5 389,-222.5 545,-222.5 545,-175.5 389,-175.5"/>
</a>
</g>
</g>
<!-- I_pyrite_smelter -->
<g id="pyrite_smelter" class="node">
<title>I_pyrite_smelter</title>
<g id="a_pyrite_smelter"><a xlink:href="industries.html#pyrite_smelter" xlink:title="Pyrite Smelter" target="_top">
<polygon fill="white" stroke="none" points="624,-92 624,-306 926,-306 926,-92 624,-92"/>
<polygon fill="none" stroke="#c1cdcd" points="624,-139 624,-306 926,-306 926,-139 624,-139"/>
<image xlink:href="static/img/industries/pyrite_smelter.png" width="300px" height="165px" preserveAspectRatio="xMinYMin meet" x="625" y="-305"/>
<polygon fill="none" stroke="#c1cdcd" points="624,-92 624,-139 926,-139 926,-92 624,-92"/>
<polygon fill="ghostwhite" stroke="none" points="625,-93 625,-138 925,-138 925,-93 625,-93"/>
<text text-anchor="start" x="674.5" y="-107.4" font-family="sans-serif" font-size="32.00">Pyrite Smelter</text>
</a>
</g>
</g>
<!-- C_pyrite_ore&#45;&gt;I_pyrite_smelter -->
<g id="edge13" class="edge">
<title>C_pyrite_ore&#45;&gt;I_pyrite_smelter</title>
<g id="a_edge13"><a xlink:title="Pyrite Ore &#45;&gt; Pyrite Smelter">
<path fill="none" stroke="#a85050" stroke-width="5" d="M553.24,-199C565.02,-199 577.48,-199 590.23,-199"/>
<polygon fill="#a85050" stroke="#a85050" stroke-width="5" points="590.04,-207.75 610.04,-199 590.04,-190.25 590.04,-207.75"/>
</a>
</g>
</g>
<!-- C_sulphur -->
<g id="sulphur" class="node">
<title>C_sulphur</title>
<g id="a_sulphur"><a xlink:href="cargos.html#sulphur" xlink:title="&lt;TABLE&gt;" target="_top">
<polygon fill="#7d70a8" stroke="#7d70a8" points="1202,-398.5 1063,-398.5 1063,-343.5 1202,-343.5 1202,-398.5"/>
<polygon fill="none" stroke="#7d70a8" points="1074.5,-350 1074.5,-391 1191.5,-391 1191.5,-350 1074.5,-350"/>
<text text-anchor="start" x="1077.5" y="-362.4" font-family="sans-serif" font-size="32.00" fill="white">Sulphur</text>
<polygon fill="none" stroke="#7d70a8" points="1071,-347.5 1071,-394.5 1194,-394.5 1194,-347.5 1071,-347.5"/>
</a>
</g>
</g>
<!-- I_pyrite_smelter&#45;&gt;C_sulphur -->
<g id="edge31" class="edge">
<title>I_pyrite_smelter&#45;&gt;C_sulphur</title>
<g id="a_edge31"><a xlink:title="Pyrite Smelter &#45;&gt; Sulphur">
<path fill="none" stroke="#7d70a8" stroke-width="5" d="M933.75,-276.34C954.99,-286.68 976.52,-297.12 997,-307 1021.69,-318.91 1048.99,-331.93 1072.51,-343.09"/>
</a>
</g>
</g>
<!-- C_zinc -->
<g id="zinc" class="node">
<title>C_zinc</title>
<g id="a_zinc"><a xlink:href="cargos.html#zinc" xlink:title="&lt;TABLE&gt;" target="_top">
<polygon fill="#a8926d" stroke="#a8926d" points="1534.5,-145.5 1445.5,-145.5 1445.5,-90.5 1534.5,-90.5 1534.5,-145.5"/>
<polygon fill="none" stroke="#a8926d" points="1457,-97 1457,-138 1524,-138 1524,-97 1457,-97"/>
<text text-anchor="start" x="1460" y="-109.4" font-family="sans-serif" font-size="32.00" fill="white">Zinc</text>
<polygon fill="none" stroke="#a8926d" points="1453.5,-94.5 1453.5,-141.5 1526.5,-141.5 1526.5,-94.5 1453.5,-94.5"/>
</a>
</g>
</g>
<!-- I_pyrite_smelter&#45;&gt;C_zinc -->
<g id="edge32" class="edge">
<title>I_pyrite_smelter&#45;&gt;C_zinc</title>
<g id="a_edge32"><a xlink:title="Pyrite Smelter &#45;&gt; Zinc">
<path fill="none" stroke="#a8926d" stroke-width="5" d="M933.8,-181.07C1098.28,-162.39 1345.68,-134.28 1445.22,-122.97"/>
</a>
</g>
</g>
<!-- C_sulphur&#45;&gt;I_chemical_plant -->
<g id="edge14" class="edge">
<title>C_sulphur&#45;&gt;I_chemical_plant</title>
<g id="a_edge14"><a xlink:title="Sulphur &#45;&gt; Chemical Plant">
<path fill="none" stroke="#7d70a8" stroke-width="5" d="M1181.81,-399C1215.17,-418.33 1261.81,-445.35 1308.69,-472.52"/>
<polygon fill="#7d70a8" stroke="#7d70a8" stroke-width="5" points="1304.21,-480.03 1325.9,-482.49 1312.98,-464.89 1304.21,-480.03"/>
</a>
</g>
</g>
<!-- C_sulphur&#45;&gt;I_paper_mill -->
<g id="edge15" class="edge">
<title>C_sulphur&#45;&gt;I_paper_mill</title>
<g id="a_edge15"><a xlink:title="Sulphur &#45;&gt; Paper Mill">
<path fill="none" stroke="#7d70a8" stroke-width="5" d="M1202.21,-371C1323.21,-371 1582.27,-371 1801,-371 1801,-371 1801,-371 2115,-371 2264.21,-371 2433.29,-365.27 2558.24,-359.95"/>
<polygon fill="#7d70a8" stroke="#7d70a8" stroke-width="5" points="2558.38,-368.7 2577.98,-359.09 2557.62,-351.22 2558.38,-368.7"/>
</a>
</g>
</g>
<!-- C_timber&#45;&gt;I_wharf -->
<g id="edge16" class="edge">
<title>C_timber&#45;&gt;I_wharf</title>
<g id="a_edge16"><a xlink:title="Timber &#45;&gt; Wharf">
<path fill="none" stroke="#74581c" stroke-width="5" d="M1866.48,-865.9C1885.23,-864.69 1906.77,-863.3 1929.14,-861.86"/>
<polygon fill="#74581c" stroke="#74581c" stroke-width="5" points="1929.53,-870.6 1948.93,-860.59 1928.41,-853.14 1929.53,-870.6"/>
</a>
</g>
</g>
<!-- C_zinc&#45;&gt;I_port -->
<g id="edge17" class="edge">
<title>C_zinc&#45;&gt;I_port</title>
<g id="a_edge17"><a xlink:title="Zinc &#45;&gt; Port">
<path fill="none" stroke="#a8926d" stroke-width="5" d="M1534.74,-119.41C1615.46,-122 1792.13,-127.68 1929.09,-132.09"/>
<polygon fill="#a8926d" stroke="#a8926d" stroke-width="5" points="1928.53,-140.82 1948.8,-132.72 1929.09,-123.33 1928.53,-140.82"/>
</a>
</g>
</g>
<!-- I_fish_farm -->
<g id="fish_farm" class="node">
<title>I_fish_farm</title>
<g id="a_fish_farm"><a xlink:href="industries.html#fish_farm" xlink:title="Fish Farm" target="_top">
<polygon fill="white" stroke="none" points="8,-1314.5 8,-1555.5 310,-1555.5 310,-1314.5 8,-1314.5"/>
<polygon fill="none" stroke="#c1cdcd" points="8,-1388 8,-1555 310,-1555 310,-1388 8,-1388"/>
<image xlink:href="static/img/industries/fish_farm.png" width="300px" height="165px" preserveAspectRatio="xMinYMin meet" x="9" y="-1554"/>
<polygon fill="none" stroke="#c1cdcd" points="8,-1314 8,-1388 310,-1388 310,-1314 8,-1314"/>
<polygon fill="ghostwhite" stroke="none" points="9,-1315 9,-1387 309,-1387 309,-1315 9,-1315"/>
<text text-anchor="start" x="86.5" y="-1356.4" font-family="sans-serif" font-size="32.00">Fish Farm</text>
<text text-anchor="start" x="51.5" y="-1326" font-family="sans-serif" font-size="20.00">Requires Farm Supplies</text>
</a>
</g>
</g>
<!-- I_fish_farm&#45;&gt;C_fish -->
<g id="edge20" class="edge">
<title>I_fish_farm&#45;&gt;C_fish</title>
<g id="a_edge20"><a xlink:title="Fish Farm &#45;&gt; Fish">
<path fill="none" stroke="#a89a28" stroke-width="5" d="M317.93,-1357.58C356.36,-1338.74 394.38,-1320.11 422.27,-1306.44"/>
</a>
</g>
</g>
<!-- I_fishing_grounds -->
<g id="fishing_grounds" class="node">
<title>I_fishing_grounds</title>
<g id="a_fishing_grounds"><a xlink:href="industries.html#fishing_grounds" xlink:title="Fishing Grounds" target="_top">
<polygon fill="white" stroke="none" points="8,-1029 8,-1243 310,-1243 310,-1029 8,-1029"/>
<polygon fill="none" stroke="#c1cdcd" points="8,-1076 8,-1243 310,-1243 310,-1076 8,-1076"/>
<image xlink:href="static/img/industries/fishing_grounds.png" width="300px" height="165px" preserveAspectRatio="xMinYMin meet" x="9" y="-1242"/>
<polygon fill="none" stroke="#c1cdcd" points="8,-1029 8,-1076 310,-1076 310,-1029 8,-1029"/>
<polygon fill="ghostwhite" stroke="none" points="9,-1030 9,-1075 309,-1075 309,-1030 9,-1030"/>
<text text-anchor="start" x="41.5" y="-1044.4" font-family="sans-serif" font-size="32.00">Fishing Grounds</text>
</a>
</g>
</g>
<!-- I_fishing_grounds&#45;&gt;C_fish -->
<g id="edge21" class="edge">
<title>I_fishing_grounds&#45;&gt;C_fish</title>
<g id="a_edge21"><a xlink:title="Fishing Grounds &#45;&gt; Fish">
<path fill="none" stroke="#a89a28" stroke-width="5" d="M317.93,-1212.9C356.36,-1231.62 394.38,-1250.13 422.27,-1263.71"/>
</a>
</g>
</g>
<!-- I_forest -->
<g id="forest" class="node">
<title>I_forest</title>
<g id="a_forest"><a xlink:href="industries.html#forest" xlink:title="Forest" target="_top">
<polygon fill="white" stroke="none" points="624,-865.5 624,-1106.5 926,-1106.5 926,-865.5 624,-865.5"/>
<polygon fill="none" stroke="#c1cdcd" points="624,-939 624,-1106 926,-1106 926,-939 624,-939"/>
<image xlink:href="static/img/industries/forest.png" width="300px" height="165px" preserveAspectRatio="xMinYMin meet" x="625" y="-1105"/>
<polygon fill="none" stroke="#c1cdcd" points="624,-865 624,-939 926,-939 926,-865 624,-865"/>
<polygon fill="ghostwhite" stroke="none" points="625,-866 625,-938 925,-938 925,-866 625,-866"/>
<text text-anchor="start" x="729.5" y="-907.4" font-family="sans-serif" font-size="32.00">Forest</text>
<text text-anchor="start" x="667.5" y="-877" font-family="sans-serif" font-size="20.00">Requires Farm Supplies</text>
</a>
</g>
</g>
<!-- I_forest&#45;&gt;C_logs -->
<g id="edge23" class="edge">
<title>I_forest&#45;&gt;C_logs</title>
<g id="a_edge23"><a xlink:title="Forest &#45;&gt; Logs">
<path fill="none" stroke="#a88000" stroke-width="5" d="M934,-986C987.96,-986 1044.38,-986 1083.04,-986"/>
</a>
</g>
</g>
<!-- I_herding_coop -->
<g id="herding_coop" class="node">
<title>I_herding_coop</title>
<g id="a_herding_coop"><a xlink:href="industries.html#herding_coop" xlink:title="Herding Co&#45;op" target="_top">
<polygon fill="white" stroke="none" points="624,-1463.5 624,-1704.5 926,-1704.5 926,-1463.5 624,-1463.5"/>
<polygon fill="none" stroke="#c1cdcd" points="624,-1537 624,-1704 926,-1704 926,-1537 624,-1537"/>
<image xlink:href="static/img/industries/herding_coop.png" width="300px" height="165px" preserveAspectRatio="xMinYMin meet" x="625" y="-1703"/>
<polygon fill="none" stroke="#c1cdcd" points="624,-1463 624,-1537 926,-1537 926,-1463 624,-1463"/>
<polygon fill="ghostwhite" stroke="none" points="625,-1464 625,-1536 925,-1536 925,-1464 625,-1464"/>
<text text-anchor="start" x="670" y="-1505.4" font-family="sans-serif" font-size="32.00">Herding Co&#45;op</text>
<text text-anchor="start" x="667.5" y="-1475" font-family="sans-serif" font-size="20.00">Requires Farm Supplies</text>
</a>
</g>
</g>
<!-- I_herding_coop&#45;&gt;C_food -->
<g id="edge24" class="edge">
<title>I_herding_coop&#45;&gt;C_food</title>
<g id="a_edge24"><a xlink:title="Herding Co&#45;op &#45;&gt; Food">
<path fill="none" stroke="#a84800" stroke-width="5" d="M934,-1517.33C954.86,-1508.53 976.09,-1499.57 996.52,-1490.95"/>
</a>
</g>
</g>
<!-- I_peatlands -->
<g id="peatlands" class="node">
<title>I_peatlands</title>
<g id="a_peatlands"><a xlink:href="industries.html#peatlands" xlink:title="Peatlands" target="_top">
<polygon fill="white" stroke="none" points="1339,-1182.5 1339,-1423.5 1641,-1423.5 1641,-1182.5 1339,-1182.5"/>
<polygon fill="none" stroke="#c1cdcd" points="1339,-1256 1339,-1423 1641,-1423 1641,-1256 1339,-1256"/>
<image xlink:href="static/img/industries/peatlands.png" width="300px" height="165px" preserveAspectRatio="xMinYMin meet" x="1340" y="-1422"/>
<polygon fill="none" stroke="#c1cdcd" points="1339,-1182 1339,-1256 1641,-1256 1641,-1182 1339,-1182"/>
<polygon fill="ghostwhite" stroke="none" points="1340,-1183 1340,-1255 1640,-1255 1640,-1183 1340,-1183"/>
<text text-anchor="start" x="1418.5" y="-1224.4" font-family="sans-serif" font-size="32.00">Peatlands</text>
<text text-anchor="start" x="1351.5" y="-1194" font-family="sans-serif" font-size="20.00">Requires Engineering Supplies</text>
</a>
</g>
</g>
<!-- I_peatlands&#45;&gt;C_peat -->
<g id="edge26" class="edge">
<title>I_peatlands&#45;&gt;C_peat</title>
<g id="a_edge26"><a xlink:title="Peatlands &#45;&gt; Peat">
<path fill="none" stroke="#004ca8" stroke-width="5" d="M1648.72,-1299.44C1687.31,-1298.57 1725.68,-1297.7 1754.25,-1297.06"/>
</a>
</g>
</g>
<!-- I_phosphate_mine -->
<g id="phosphate_mine" class="node">
<title>I_phosphate_mine</title>
<g id="a_phosphate_mine"><a xlink:href="industries.html#phosphate_mine" xlink:title="Phosphate Mine" target="_top">
<polygon fill="white" stroke="none" points="624,-456.5 624,-697.5 926,-697.5 926,-456.5 624,-456.5"/>
<polygon fill="none" stroke="#c1cdcd" points="624,-530 624,-697 926,-697 926,-530 624,-530"/>
<image xlink:href="static/img/industries/phosphate_mine.png" width="300px" height="165px" preserveAspectRatio="xMinYMin meet" x="625" y="-696"/>
<polygon fill="none" stroke="#c1cdcd" points="624,-456 624,-530 926,-530 926,-456 624,-456"/>
<polygon fill="ghostwhite" stroke="none" points="625,-457 625,-529 925,-529 925,-457 625,-457"/>
<text text-anchor="start" x="658.5" y="-498.4" font-family="sans-serif" font-size="32.00">Phosphate Mine</text>
<text text-anchor="start" x="636.5" y="-468" font-family="sans-serif" font-size="20.00">Requires Engineering Supplies</text>
</a>
</g>
</g>
<!-- I_phosphate_mine&#45;&gt;C_phosphate -->
<g id="edge27" class="edge">
<title>I_phosphate_mine&#45;&gt;C_phosphate</title>
<g id="a_edge27"><a xlink:title="Phosphate Mine &#45;&gt; Phosphate">
<path fill="none" stroke="#505050" stroke-width="5" d="M934,-577C970.71,-577 1008.57,-577 1041.19,-577"/>
</a>
</g>
</g>
<!-- I_pyrite_mine -->
<g id="pyrite_mine" class="node">
<title>I_pyrite_mine</title>
<g id="a_pyrite_mine"><a xlink:href="industries.html#pyrite_mine" xlink:title="Pyrite Mine" target="_top">
<polygon fill="white" stroke="none" points="8,-78.5 8,-319.5 310,-319.5 310,-78.5 8,-78.5"/>
<polygon fill="none" stroke="#c1cdcd" points="8,-152 8,-319 310,-319 310,-152 8,-152"/>
<image xlink:href="static/img/industries/pyrite_mine.png" width="300px" height="165px" preserveAspectRatio="xMinYMin meet" x="9" y="-318"/>
<polygon fill="none" stroke="#c1cdcd" points="8,-78 8,-152 310,-152 310,-78 8,-78"/>
<polygon fill="ghostwhite" stroke="none" points="9,-79 9,-151 309,-151 309,-79 9,-79"/>
<text text-anchor="start" x="79" y="-120.4" font-family="sans-serif" font-size="32.00">Pyrite Mine</text>
<text text-anchor="start" x="20.5" y="-90" font-family="sans-serif" font-size="20.00">Requires Engineering Supplies</text>
</a>
</g>
</g>
<!-- I_pyrite_mine&#45;&gt;C_pyrite_ore -->
<g id="edge30" class="edge">
<title>I_pyrite_mine&#45;&gt;C_pyrite_ore</title>
<g id="a_edge30"><a xlink:title="Pyrite Mine &#45;&gt; Pyrite Ore">
<path fill="none" stroke="#a85050" stroke-width="5" d="M317.93,-199C339.56,-199 361.05,-199 380.69,-199"/>
</a>
</g>
</g>
</g>
</svg>
