<?xml version="1.0" encoding="UTF-8" standalone="no"?>
<?xml-stylesheet href="static/css/cargoflow_styles.css" type="text/css"?>
<!DOCTYPE svg PUBLIC "-//W3C//DTD SVG 1.1//EN"
 "http://www.w3.org/Graphics/SVG/1.1/DTD/svg11.dtd">
<!-- Generated by graphviz version 7.0.6 (20230106.0513)
 -->
<!-- Title: temperate_basic Pages: 1 -->
<svg width="2307pt" height="2495pt"
 viewBox="0.00 0.00 2307.00 2494.50" xmlns="http://www.w3.org/2000/svg" xmlns:xlink="http://www.w3.org/1999/xlink">
<g id="page0,1_graph0" class="graph" transform="scale(1 1) rotate(0) translate(4 2490.5)">
<title>temperate_basic</title>
<g id="a_page0,1_graph0"><a xlink:title="Temperate Basic">
<polygon fill="white" stroke="none" points="-4,4 -4,-2490.5 2303,-2490.5 2303,4 -4,4"/>
</a>
</g>
<!-- I_port -->
<g id="port" class="node">
<title>I_port</title>
<g id="a_port"><a xlink:href="industries.html#port" xlink:title="Port" target="_top">
<polygon fill="white" stroke="none" points="1989,-971 1989,-1239 2291,-1239 2291,-971 1989,-971"/>
<polygon fill="none" stroke="#c1cdcd" points="1989,-1072 1989,-1239 2291,-1239 2291,-1072 1989,-1072"/>
<image xlink:href="static/img/industries/port.png" width="300px" height="165px" preserveAspectRatio="xMinYMin meet" x="1990" y="-1238"/>
<polygon fill="none" stroke="#c1cdcd" points="1989,-971 1989,-1072 2291,-1072 2291,-971 1989,-971"/>
<polygon fill="ghostwhite" stroke="none" points="1990,-972 1990,-1071 2290,-1071 2290,-972 1990,-972"/>
<text text-anchor="start" x="2110.5" y="-1040.4" font-family="sans-serif" font-size="32.00">Port</text>
<text text-anchor="start" x="1999.5" y="-1010" font-family="sans-serif" font-size="20.00">Produces Engineering Supplies</text>
<text text-anchor="start" x="2030" y="-983" font-family="sans-serif" font-size="20.00">Produces Farm Supplies</text>
</a>
</g>
</g>
<!-- C_chemicals -->
<g id="chemicals" class="node">
<title>C_chemicals</title>
<g id="a_chemicals"><a xlink:href="cargos.html#chemicals" xlink:title="&lt;TABLE&gt;" target="_top">
<polygon fill="#602c03" stroke="#602c03" points="1203,-638.5 1025,-638.5 1025,-583.5 1203,-583.5 1203,-638.5"/>
<polygon fill="none" stroke="#602c03" points="1036,-590 1036,-631 1192,-631 1192,-590 1036,-590"/>
<text text-anchor="start" x="1039" y="-602.4" font-family="sans-serif" font-size="32.00" fill="white">Chemicals</text>
<polygon fill="none" stroke="#602c03" points="1033,-587.5 1033,-634.5 1195,-634.5 1195,-587.5 1033,-587.5"/>
</a>
</g>
</g>
<!-- I_port&#45;&gt;C_chemicals -->
<g id="edge32" class="edge">
<title>I_port&#45;&gt;C_chemicals</title>
<g id="a_edge32"><a xlink:title="Port &#45;&gt; Chemicals">
<path fill="none" stroke="#602c03" stroke-width="5" d="M1981.12,-1002.02C1872.3,-933.69 1722.8,-844.97 1584,-780 1455.45,-719.82 1299.13,-667.39 1203.37,-637.48"/>
</a>
</g>
</g>
<!-- C_alcohol -->
<g id="alcohol" class="node">
<title>C_alcohol</title>
<g id="a_alcohol"><a xlink:href="cargos.html#alcohol" xlink:title="&lt;TABLE&gt;" target="_top">
<polygon fill="#a80000" stroke="#a80000" points="1918,-1278.5 1647,-1278.5 1647,-1137.5 1918,-1137.5 1918,-1278.5"/>
<polygon fill="none" stroke="#a80000" points="1658.5,-1230 1658.5,-1271 1907.5,-1271 1907.5,-1230 1658.5,-1230"/>
<text text-anchor="start" x="1730.5" y="-1242.4" font-family="sans-serif" font-size="32.00" fill="white">Alcohol</text>
<polygon fill="white" stroke="none" points="1658.5,-1187 1658.5,-1228 1907.5,-1228 1907.5,-1187 1658.5,-1187"/>
<polygon fill="none" stroke="#a80000" points="1658.5,-1187 1658.5,-1228 1907.5,-1228 1907.5,-1187 1658.5,-1187"/>
<text text-anchor="start" x="1661.5" y="-1199.4" font-family="sans-serif" font-size="32.00">To General Store</text>
<polygon fill="white" stroke="none" points="1658.5,-1144 1658.5,-1185 1907.5,-1185 1907.5,-1144 1658.5,-1144"/>
<polygon fill="none" stroke="#a80000" points="1658.5,-1144 1658.5,-1185 1907.5,-1185 1907.5,-1144 1658.5,-1144"/>
<text text-anchor="start" x="1724" y="-1156.4" font-family="sans-serif" font-size="32.00">To Hotel</text>
<polygon fill="none" stroke="#a80000" points="1655,-1141.5 1655,-1274.5 1910,-1274.5 1910,-1141.5 1655,-1141.5"/>
</a>
</g>
</g>
<!-- I_glass_works -->
<g id="glass_works" class="node">
<title>I_glass_works</title>
<g id="a_glass_works"><a xlink:href="industries.html#glass_works" xlink:title="Glass Works" target="_top">
<polygon fill="white" stroke="none" points="1274,-816 1274,-1030 1576,-1030 1576,-816 1274,-816"/>
<polygon fill="none" stroke="#c1cdcd" points="1274,-863 1274,-1030 1576,-1030 1576,-863 1274,-863"/>
<image xlink:href="static/img/industries/glass_works.png" width="300px" height="165px" preserveAspectRatio="xMinYMin meet" x="1275" y="-1029"/>
<polygon fill="none" stroke="#c1cdcd" points="1274,-816 1274,-863 1576,-863 1576,-816 1274,-816"/>
<polygon fill="ghostwhite" stroke="none" points="1275,-817 1275,-862 1575,-862 1575,-817 1275,-817"/>
<text text-anchor="start" x="1335" y="-831.4" font-family="sans-serif" font-size="32.00">Glass Works</text>
</a>
</g>
</g>
<!-- C_chemicals&#45;&gt;I_glass_works -->
<g id="edge1" class="edge">
<title>C_chemicals&#45;&gt;I_glass_works</title>
<g id="a_edge1"><a xlink:title="Chemicals &#45;&gt; Glass Works">
<path fill="none" stroke="#602c03" stroke-width="5" d="M1142.53,-638.95C1172.77,-669.64 1222.8,-720.38 1266,-764 1275.67,-773.76 1285.68,-783.86 1295.75,-794.01"/>
<polygon fill="#602c03" stroke="#602c03" stroke-width="5" points="1289.19,-799.82 1309.49,-807.85 1301.61,-787.49 1289.19,-799.82"/>
</a>
</g>
</g>
<!-- I_hardware_factory -->
<g id="hardware_factory" class="node">
<title>I_hardware_factory</title>
<g id="a_hardware_factory"><a xlink:href="industries.html#hardware_factory" xlink:title="Hardware Factory" target="_top">
<polygon fill="white" stroke="none" points="1274,-404 1274,-618 1576,-618 1576,-404 1274,-404"/>
<polygon fill="none" stroke="#c1cdcd" points="1274,-451 1274,-618 1576,-618 1576,-451 1274,-451"/>
<image xlink:href="static/img/industries/hardware_factory.png" width="300px" height="165px" preserveAspectRatio="xMinYMin meet" x="1275" y="-617"/>
<polygon fill="none" stroke="#c1cdcd" points="1274,-404 1274,-451 1576,-451 1576,-404 1274,-404"/>
<polygon fill="ghostwhite" stroke="none" points="1275,-405 1275,-450 1575,-450 1575,-405 1275,-405"/>
<text text-anchor="start" x="1297" y="-419.4" font-family="sans-serif" font-size="32.00">Hardware Factory</text>
</a>
</g>
</g>
<!-- C_chemicals&#45;&gt;I_hardware_factory -->
<g id="edge2" class="edge">
<title>C_chemicals&#45;&gt;I_hardware_factory</title>
<g id="a_edge2"><a xlink:title="Chemicals &#45;&gt; Hardware Factory">
<path fill="none" stroke="#602c03" stroke-width="5" d="M1201.48,-583.01C1214.15,-578.91 1227.58,-574.57 1241.31,-570.12"/>
<polygon fill="#602c03" stroke="#602c03" stroke-width="5" points="1244,-578.45 1260.33,-563.97 1238.61,-561.8 1244,-578.45"/>
</a>
</g>
</g>
<!-- I_metal_workshop -->
<g id="metal_workshop" class="node">
<title>I_metal_workshop</title>
<g id="a_metal_workshop"><a xlink:href="industries.html#metal_workshop" xlink:title="Metal Workshop" target="_top">
<polygon fill="white" stroke="none" points="1274,-119 1274,-333 1576,-333 1576,-119 1274,-119"/>
<polygon fill="none" stroke="#c1cdcd" points="1274,-166 1274,-333 1576,-333 1576,-166 1274,-166"/>
<image xlink:href="static/img/industries/metal_workshop.png" width="300px" height="165px" preserveAspectRatio="xMinYMin meet" x="1275" y="-332"/>
<polygon fill="none" stroke="#c1cdcd" points="1274,-119 1274,-166 1576,-166 1576,-119 1274,-119"/>
<polygon fill="ghostwhite" stroke="none" points="1275,-120 1275,-165 1575,-165 1575,-120 1275,-120"/>
<text text-anchor="start" x="1309" y="-134.4" font-family="sans-serif" font-size="32.00">Metal Workshop</text>
</a>
</g>
</g>
<!-- C_chemicals&#45;&gt;I_metal_workshop -->
<g id="edge3" class="edge">
<title>C_chemicals&#45;&gt;I_metal_workshop</title>
<g id="a_edge3"><a xlink:title="Chemicals &#45;&gt; Metal Workshop">
<path fill="none" stroke="#602c03" stroke-width="5" d="M1132.19,-583.29C1171.56,-519.8 1264.99,-369.2 1266,-368 1269.42,-363.91 1272.96,-359.84 1276.6,-355.78"/>
<polygon fill="#602c03" stroke="#602c03" stroke-width="5" points="1282.64,-362.13 1289.92,-341.55 1269.87,-350.17 1282.64,-362.13"/>
</a>
</g>
</g>
<!-- C_goods -->
<g id="goods" class="node">
<title>C_goods</title>
<g id="a_goods"><a xlink:href="cargos.html#goods" xlink:title="&lt;TABLE&gt;" target="_top">
<polygon fill="#a84b60" stroke="#a84b60" points="1918,-591 1647,-591 1647,-493 1918,-493 1918,-591"/>
<polygon fill="none" stroke="#a84b60" points="1658.5,-543 1658.5,-584 1907.5,-584 1907.5,-543 1658.5,-543"/>
<text text-anchor="start" x="1735.5" y="-555.4" font-family="sans-serif" font-size="32.00" fill="white">Goods</text>
<polygon fill="white" stroke="none" points="1658.5,-500 1658.5,-541 1907.5,-541 1907.5,-500 1658.5,-500"/>
<polygon fill="none" stroke="#a84b60" points="1658.5,-500 1658.5,-541 1907.5,-541 1907.5,-500 1658.5,-500"/>
<text text-anchor="start" x="1661.5" y="-512.4" font-family="sans-serif" font-size="32.00">To General Store</text>
<polygon fill="none" stroke="#a84b60" points="1655,-497 1655,-587 1910,-587 1910,-497 1655,-497"/>
</a>
</g>
</g>
<!-- I_glass_works&#45;&gt;C_goods -->
<g id="edge26" class="edge">
<title>I_glass_works&#45;&gt;C_goods</title>
<g id="a_edge26"><a xlink:title="Glass Works &#45;&gt; Goods">
<path fill="none" stroke="#a84b60" stroke-width="5" d="M1529.54,-812.03C1597.8,-738.88 1683.85,-646.66 1735.67,-591.11"/>
</a>
</g>
</g>
<!-- I_hardware_factory&#45;&gt;C_goods -->
<g id="edge27" class="edge">
<title>I_hardware_factory&#45;&gt;C_goods</title>
<g id="a_edge27"><a xlink:title="Hardware Factory &#45;&gt; Goods">
<path fill="none" stroke="#a84b60" stroke-width="5" d="M1584,-524.78C1604.86,-526.6 1626.09,-528.45 1646.52,-530.23"/>
</a>
</g>
</g>
<!-- I_metal_workshop&#45;&gt;C_goods -->
<g id="edge29" class="edge">
<title>I_metal_workshop&#45;&gt;C_goods</title>
<g id="a_edge29"><a xlink:title="Metal Workshop &#45;&gt; Goods">
<path fill="none" stroke="#a84b60" stroke-width="5" d="M1550.84,-336.97C1610.66,-390.14 1679.27,-451.13 1726.01,-492.68"/>
</a>
</g>
</g>
<!-- C_kaolin -->
<g id="kaolin" class="node">
<title>C_kaolin</title>
<g id="a_kaolin"><a xlink:href="cargos.html#kaolin" xlink:title="&lt;TABLE&gt;" target="_top">
<polygon fill="#882034" stroke="#882034" points="1875,-2177.5 1690,-2177.5 1690,-2122.5 1875,-2122.5 1875,-2177.5"/>
<polygon fill="none" stroke="#882034" points="1701.5,-2129 1701.5,-2170 1864.5,-2170 1864.5,-2129 1701.5,-2129"/>
<text text-anchor="start" x="1704.5" y="-2141.4" font-family="sans-serif" font-size="32.00" fill="white">China Clay</text>
<polygon fill="none" stroke="#882034" points="1698,-2126.5 1698,-2173.5 1867,-2173.5 1867,-2126.5 1698,-2126.5"/>
</a>
</g>
</g>
<!-- C_kaolin&#45;&gt;I_port -->
<g id="edge4" class="edge">
<title>C_kaolin&#45;&gt;I_port</title>
<g id="a_edge4"><a xlink:title="China Clay &#45;&gt; Port">
<path fill="none" stroke="#882034" stroke-width="5" d="M1793.01,-2122.05C1833.91,-2001.82 1996.72,-1523.23 2083.64,-1267.73"/>
<polygon fill="#882034" stroke="#882034" stroke-width="5" points="2091.9,-1270.62 2090.06,-1248.87 2075.33,-1264.99 2091.9,-1270.62"/>
</a>
</g>
</g>
<!-- C_coal -->
<g id="coal" class="node">
<title>C_coal</title>
<g id="a_coal"><a xlink:href="cargos.html#coal" xlink:title="&lt;TABLE&gt;" target="_top">
<polygon fill="#a86052" stroke="#a86052" points="528.5,-652.5 433.5,-652.5 433.5,-597.5 528.5,-597.5 528.5,-652.5"/>
<polygon fill="none" stroke="#a86052" points="445,-604 445,-645 518,-645 518,-604 445,-604"/>
<text text-anchor="start" x="448" y="-616.4" font-family="sans-serif" font-size="32.00" fill="white">Coal</text>
<polygon fill="none" stroke="#a86052" points="441.5,-601.5 441.5,-648.5 520.5,-648.5 520.5,-601.5 441.5,-601.5"/>
</a>
</g>
</g>
<!-- I_integrated_steel_mill -->
<g id="integrated_steel_mill" class="node">
<title>I_integrated_steel_mill</title>
<g id="a_integrated_steel_mill"><a xlink:href="industries.html#integrated_steel_mill" xlink:title="Steel Mill" target="_top">
<polygon fill="white" stroke="none" points="652,-303 652,-517 954,-517 954,-303 652,-303"/>
<polygon fill="none" stroke="#c1cdcd" points="652,-350 652,-517 954,-517 954,-350 652,-350"/>
<image xlink:href="static/img/industries/integrated_steel_mill.png" width="300px" height="165px" preserveAspectRatio="xMinYMin meet" x="653" y="-516"/>
<polygon fill="none" stroke="#c1cdcd" points="652,-303 652,-350 954,-350 954,-303 652,-303"/>
<polygon fill="ghostwhite" stroke="none" points="653,-304 653,-349 953,-349 953,-304 653,-304"/>
<text text-anchor="start" x="738" y="-318.4" font-family="sans-serif" font-size="32.00">Steel Mill</text>
</a>
</g>
</g>
<!-- C_coal&#45;&gt;I_integrated_steel_mill -->
<g id="edge5" class="edge">
<title>C_coal&#45;&gt;I_integrated_steel_mill</title>
<g id="a_edge5"><a xlink:title="Coal &#45;&gt; Steel Mill">
<path fill="none" stroke="#a86052" stroke-width="5" d="M523.51,-597.11C549.65,-579.55 585.39,-555.53 622.56,-530.56"/>
<polygon fill="#a86052" stroke="#a86052" stroke-width="5" points="627.33,-537.9 639.05,-519.48 617.57,-523.37 627.33,-537.9"/>
</a>
</g>
</g>
<!-- C_steel -->
<g id="steel" class="node">
<title>C_steel</title>
<g id="a_steel"><a xlink:href="cargos.html#steel" xlink:title="&lt;TABLE&gt;" target="_top">
<polygon fill="#7d70a8" stroke="#7d70a8" points="1164.5,-437.5 1063.5,-437.5 1063.5,-382.5 1164.5,-382.5 1164.5,-437.5"/>
<polygon fill="none" stroke="#7d70a8" points="1075,-389 1075,-430 1154,-430 1154,-389 1075,-389"/>
<text text-anchor="start" x="1078" y="-401.4" font-family="sans-serif" font-size="32.00" fill="white">Steel</text>
<polygon fill="none" stroke="#7d70a8" points="1071.5,-386.5 1071.5,-433.5 1156.5,-433.5 1156.5,-386.5 1071.5,-386.5"/>
</a>
</g>
</g>
<!-- I_integrated_steel_mill&#45;&gt;C_steel -->
<g id="edge34" class="edge">
<title>I_integrated_steel_mill&#45;&gt;C_steel</title>
<g id="a_edge34"><a xlink:title="Steel Mill &#45;&gt; Steel">
<path fill="none" stroke="#7d70a8" stroke-width="5" d="M961.67,-410C998.57,-410 1035.23,-410 1063.22,-410"/>
</a>
</g>
</g>
<!-- C_fish -->
<g id="fish" class="node">
<title>C_fish</title>
<g id="a_fish"><a xlink:href="cargos.html#fish" xlink:title="&lt;TABLE&gt;" target="_top">
<polygon fill="#5d45a8" stroke="#5d45a8" points="1158.5,-2090.5 1069.5,-2090.5 1069.5,-2035.5 1158.5,-2035.5 1158.5,-2090.5"/>
<polygon fill="none" stroke="#5d45a8" points="1081,-2042 1081,-2083 1148,-2083 1148,-2042 1081,-2042"/>
<text text-anchor="start" x="1084" y="-2054.4" font-family="sans-serif" font-size="32.00" fill="white">Fish</text>
<polygon fill="none" stroke="#5d45a8" points="1077.5,-2039.5 1077.5,-2086.5 1150.5,-2086.5 1150.5,-2039.5 1077.5,-2039.5"/>
</a>
</g>
</g>
<!-- I_fishing_harbour -->
<g id="fishing_harbour" class="node">
<title>I_fishing_harbour</title>
<g id="a_fishing_harbour"><a xlink:href="industries.html#fishing_harbour" xlink:title="Fishing Harbour" target="_top">
<polygon fill="white" stroke="none" points="1274,-1956 1274,-2170 1576,-2170 1576,-1956 1274,-1956"/>
<polygon fill="none" stroke="#c1cdcd" points="1274,-2003 1274,-2170 1576,-2170 1576,-2003 1274,-2003"/>
<image xlink:href="static/img/industries/fishing_harbour.png" width="300px" height="165px" preserveAspectRatio="xMinYMin meet" x="1275" y="-2169"/>
<polygon fill="none" stroke="#c1cdcd" points="1274,-1956 1274,-2003 1576,-2003 1576,-1956 1274,-1956"/>
<polygon fill="ghostwhite" stroke="none" points="1275,-1957 1275,-2002 1575,-2002 1575,-1957 1275,-1957"/>
<text text-anchor="start" x="1310.5" y="-1971.4" font-family="sans-serif" font-size="32.00">Fishing Harbour</text>
</a>
</g>
</g>
<!-- C_fish&#45;&gt;I_fishing_harbour -->
<g id="edge6" class="edge">
<title>C_fish&#45;&gt;I_fishing_harbour</title>
<g id="a_edge6"><a xlink:title="Fish &#45;&gt; Fishing Harbour">
<path fill="none" stroke="#5d45a8" stroke-width="5" d="M1158.94,-2063C1181.16,-2063 1209.77,-2063 1239.95,-2063"/>
<polygon fill="#5d45a8" stroke="#5d45a8" stroke-width="5" points="1239.92,-2071.75 1259.92,-2063 1239.92,-2054.25 1239.92,-2071.75"/>
</a>
</g>
</g>
<!-- C_food -->
<g id="food" class="node">
<title>C_food</title>
<g id="a_food"><a xlink:href="cargos.html#food" xlink:title="&lt;TABLE&gt;" target="_top">
<polygon fill="#a84800" stroke="#a84800" points="1918,-1705.5 1647,-1705.5 1647,-1564.5 1918,-1564.5 1918,-1705.5"/>
<polygon fill="none" stroke="#a84800" points="1658.5,-1657 1658.5,-1698 1907.5,-1698 1907.5,-1657 1658.5,-1657"/>
<text text-anchor="start" x="1746" y="-1669.4" font-family="sans-serif" font-size="32.00" fill="white">Food</text>
<polygon fill="white" stroke="none" points="1658.5,-1614 1658.5,-1655 1907.5,-1655 1907.5,-1614 1658.5,-1614"/>
<polygon fill="none" stroke="#a84800" points="1658.5,-1614 1658.5,-1655 1907.5,-1655 1907.5,-1614 1658.5,-1614"/>
<text text-anchor="start" x="1661.5" y="-1626.4" font-family="sans-serif" font-size="32.00">To General Store</text>
<polygon fill="white" stroke="none" points="1658.5,-1571 1658.5,-1612 1907.5,-1612 1907.5,-1571 1658.5,-1571"/>
<polygon fill="none" stroke="#a84800" points="1658.5,-1571 1658.5,-1612 1907.5,-1612 1907.5,-1571 1658.5,-1571"/>
<text text-anchor="start" x="1724" y="-1583.4" font-family="sans-serif" font-size="32.00">To Hotel</text>
<polygon fill="none" stroke="#a84800" points="1655,-1568.5 1655,-1701.5 1910,-1701.5 1910,-1568.5 1655,-1568.5"/>
</a>
</g>
</g>
<!-- I_fishing_harbour&#45;&gt;C_food -->
<g id="edge25" class="edge">
<title>I_fishing_harbour&#45;&gt;C_food</title>
<g id="a_edge25"><a xlink:title="Fishing Harbour &#45;&gt; Food">
<path fill="none" stroke="#a84800" stroke-width="5" d="M1554.45,-1952.35C1564.75,-1942.05 1574.74,-1931.52 1584,-1921 1643.98,-1852.82 1701.7,-1765.96 1739.08,-1705.94"/>
</a>
</g>
</g>
<!-- C_food&#45;&gt;I_port -->
<g id="edge7" class="edge">
<title>C_food&#45;&gt;I_port</title>
<g id="a_edge7"><a xlink:title="Food &#45;&gt; Port">
<path fill="none" stroke="#a84800" stroke-width="5" d="M1831.08,-1564.07C1882.19,-1487.86 1965.1,-1364.25 2032.02,-1264.49"/>
<polygon fill="#a84800" stroke="#a84800" stroke-width="5" points="2039.13,-1269.6 2043,-1248.12 2024.59,-1259.86 2039.13,-1269.6"/>
</a>
</g>
</g>
<!-- C_fruits -->
<g id="fruits" class="node">
<title>C_fruits</title>
<g id="a_fruits"><a xlink:href="cargos.html#fruits" xlink:title="&lt;TABLE&gt;" target="_top">
<polygon fill="#a88000" stroke="#a88000" points="1160,-1276.5 1068,-1276.5 1068,-1221.5 1160,-1221.5 1160,-1276.5"/>
<polygon fill="none" stroke="#a88000" points="1079,-1228 1079,-1269 1149,-1269 1149,-1228 1079,-1228"/>
<text text-anchor="start" x="1082" y="-1240.4" font-family="sans-serif" font-size="32.00" fill="white">Fruit</text>
<polygon fill="none" stroke="#a88000" points="1076,-1225.5 1076,-1272.5 1152,-1272.5 1152,-1225.5 1076,-1225.5"/>
</a>
</g>
</g>
<!-- I_cider_mill -->
<g id="cider_mill" class="node">
<title>I_cider_mill</title>
<g id="a_cider_mill"><a xlink:href="industries.html#cider_mill" xlink:title="Cider Mill" target="_top">
<polygon fill="white" stroke="none" points="1274,-1101 1274,-1315 1576,-1315 1576,-1101 1274,-1101"/>
<polygon fill="none" stroke="#c1cdcd" points="1274,-1148 1274,-1315 1576,-1315 1576,-1148 1274,-1148"/>
<image xlink:href="static/img/industries/cider_mill.png" width="300px" height="165px" preserveAspectRatio="xMinYMin meet" x="1275" y="-1314"/>
<polygon fill="none" stroke="#c1cdcd" points="1274,-1101 1274,-1148 1576,-1148 1576,-1101 1274,-1101"/>
<polygon fill="ghostwhite" stroke="none" points="1275,-1102 1275,-1147 1575,-1147 1575,-1102 1275,-1102"/>
<text text-anchor="start" x="1358.5" y="-1116.4" font-family="sans-serif" font-size="32.00">Cider Mill</text>
</a>
</g>
</g>
<!-- C_fruits&#45;&gt;I_cider_mill -->
<g id="edge8" class="edge">
<title>C_fruits&#45;&gt;I_cider_mill</title>
<g id="a_edge8"><a xlink:title="Fruit &#45;&gt; Cider Mill">
<path fill="none" stroke="#a88000" stroke-width="5" d="M1160.26,-1242.99C1182.41,-1240.06 1210.7,-1236.3 1240.48,-1232.35"/>
<polygon fill="#a88000" stroke="#a88000" stroke-width="5" points="1241.47,-1241.05 1260.14,-1229.74 1239.17,-1223.7 1241.47,-1241.05"/>
</a>
</g>
</g>
<!-- I_cider_mill&#45;&gt;C_alcohol -->
<g id="edge17" class="edge">
<title>I_cider_mill&#45;&gt;C_alcohol</title>
<g id="a_edge17"><a xlink:title="Cider Mill &#45;&gt; Alcohol">
<path fill="none" stroke="#a80000" stroke-width="5" d="M1584,-1208C1604.86,-1208 1626.09,-1208 1646.52,-1208"/>
</a>
</g>
</g>
<!-- C_goods&#45;&gt;I_port -->
<g id="edge9" class="edge">
<title>C_goods&#45;&gt;I_port</title>
<g id="a_edge9"><a xlink:title="Goods &#45;&gt; Port">
<path fill="none" stroke="#a84b60" stroke-width="5" d="M1843.84,-591.36C1868.76,-613.68 1896.73,-641.43 1918,-670 1980.48,-753.9 2034.11,-858.08 2072.89,-943.45"/>
<polygon fill="#a84b60" stroke="#a84b60" stroke-width="5" points="2064.85,-946.91 2081,-961.6 2080.82,-939.77 2064.85,-946.91"/>
</a>
</g>
</g>
<!-- C_iron_ore -->
<g id="iron_ore" class="node">
<title>C_iron_ore</title>
<g id="a_iron_ore"><a xlink:href="cargos.html#iron_ore" xlink:title="&lt;TABLE&gt;" target="_top">
<polygon fill="#74581c" stroke="#74581c" points="554,-437.5 408,-437.5 408,-382.5 554,-382.5 554,-437.5"/>
<polygon fill="none" stroke="#74581c" points="419,-389 419,-430 543,-430 543,-389 419,-389"/>
<text text-anchor="start" x="422" y="-401.4" font-family="sans-serif" font-size="32.00" fill="white">Iron Ore</text>
<polygon fill="none" stroke="#74581c" points="416,-386.5 416,-433.5 546,-433.5 546,-386.5 416,-386.5"/>
</a>
</g>
</g>
<!-- C_iron_ore&#45;&gt;I_integrated_steel_mill -->
<g id="edge10" class="edge">
<title>C_iron_ore&#45;&gt;I_integrated_steel_mill</title>
<g id="a_edge10"><a xlink:title="Iron Ore &#45;&gt; Steel Mill">
<path fill="none" stroke="#74581c" stroke-width="5" d="M554.21,-410C573.6,-410 595.47,-410 617.99,-410"/>
<polygon fill="#74581c" stroke="#74581c" stroke-width="5" points="617.86,-418.75 637.86,-410 617.86,-401.25 617.86,-418.75"/>
</a>
</g>
</g>
<!-- C_livestock -->
<g id="livestock" class="node">
<title>C_livestock</title>
<g id="a_livestock"><a xlink:href="cargos.html#livestock" xlink:title="&lt;TABLE&gt;" target="_top">
<polygon fill="#004ca8" stroke="#004ca8" points="1194.5,-1520.5 1033.5,-1520.5 1033.5,-1465.5 1194.5,-1465.5 1194.5,-1520.5"/>
<polygon fill="none" stroke="#004ca8" points="1045,-1472 1045,-1513 1184,-1513 1184,-1472 1045,-1472"/>
<text text-anchor="start" x="1048" y="-1484.4" font-family="sans-serif" font-size="32.00" fill="white">Livestock</text>
<polygon fill="none" stroke="#004ca8" points="1041.5,-1469.5 1041.5,-1516.5 1186.5,-1516.5 1186.5,-1469.5 1041.5,-1469.5"/>
</a>
</g>
</g>
<!-- I_stockyard -->
<g id="stockyard" class="node">
<title>I_stockyard</title>
<g id="a_stockyard"><a xlink:href="industries.html#stockyard" xlink:title="Stockyard" target="_top">
<polygon fill="white" stroke="none" points="1274,-1386 1274,-1600 1576,-1600 1576,-1386 1274,-1386"/>
<polygon fill="none" stroke="#c1cdcd" points="1274,-1433 1274,-1600 1576,-1600 1576,-1433 1274,-1433"/>
<image xlink:href="static/img/industries/stockyard.png" width="300px" height="165px" preserveAspectRatio="xMinYMin meet" x="1275" y="-1599"/>
<polygon fill="none" stroke="#c1cdcd" points="1274,-1386 1274,-1433 1576,-1433 1576,-1386 1274,-1386"/>
<polygon fill="ghostwhite" stroke="none" points="1275,-1387 1275,-1432 1575,-1432 1575,-1387 1275,-1387"/>
<text text-anchor="start" x="1354" y="-1401.4" font-family="sans-serif" font-size="32.00">Stockyard</text>
</a>
</g>
</g>
<!-- C_livestock&#45;&gt;I_stockyard -->
<g id="edge11" class="edge">
<title>C_livestock&#45;&gt;I_stockyard</title>
<g id="a_edge11"><a xlink:title="Livestock &#45;&gt; Stockyard">
<path fill="none" stroke="#004ca8" stroke-width="5" d="M1194.98,-1493C1209.1,-1493 1224.31,-1493 1239.94,-1493"/>
<polygon fill="#004ca8" stroke="#004ca8" stroke-width="5" points="1239.83,-1501.75 1259.83,-1493 1239.83,-1484.25 1239.83,-1501.75"/>
</a>
</g>
</g>
<!-- I_stockyard&#45;&gt;C_food -->
<g id="edge35" class="edge">
<title>I_stockyard&#45;&gt;C_food</title>
<g id="a_edge35"><a xlink:title="Stockyard &#45;&gt; Food">
<path fill="none" stroke="#a84800" stroke-width="5" d="M1584,-1556.11C1604.86,-1564.44 1626.09,-1572.92 1646.52,-1581.08"/>
</a>
</g>
</g>
<!-- C_milk -->
<g id="milk" class="node">
<title>C_milk</title>
<g id="a_milk"><a xlink:href="cargos.html#milk" xlink:title="&lt;TABLE&gt;" target="_top">
<polygon fill="#505050" stroke="#505050" points="1156.5,-1798.5 1071.5,-1798.5 1071.5,-1743.5 1156.5,-1743.5 1156.5,-1798.5"/>
<polygon fill="none" stroke="#505050" points="1083,-1750 1083,-1791 1146,-1791 1146,-1750 1083,-1750"/>
<text text-anchor="start" x="1086" y="-1762.4" font-family="sans-serif" font-size="32.00" fill="white">Milk</text>
<polygon fill="none" stroke="#505050" points="1079.5,-1747.5 1079.5,-1794.5 1148.5,-1794.5 1148.5,-1747.5 1079.5,-1747.5"/>
</a>
</g>
</g>
<!-- I_dairy -->
<g id="dairy" class="node">
<title>I_dairy</title>
<g id="a_dairy"><a xlink:href="industries.html#dairy" xlink:title="Dairy" target="_top">
<polygon fill="white" stroke="none" points="1274,-1671 1274,-1885 1576,-1885 1576,-1671 1274,-1671"/>
<polygon fill="none" stroke="#c1cdcd" points="1274,-1718 1274,-1885 1576,-1885 1576,-1718 1274,-1718"/>
<image xlink:href="static/img/industries/dairy.png" width="300px" height="165px" preserveAspectRatio="xMinYMin meet" x="1275" y="-1884"/>
<polygon fill="none" stroke="#c1cdcd" points="1274,-1671 1274,-1718 1576,-1718 1576,-1671 1274,-1671"/>
<polygon fill="ghostwhite" stroke="none" points="1275,-1672 1275,-1717 1575,-1717 1575,-1672 1275,-1672"/>
<text text-anchor="start" x="1387.5" y="-1686.4" font-family="sans-serif" font-size="32.00">Dairy</text>
</a>
</g>
</g>
<!-- C_milk&#45;&gt;I_dairy -->
<g id="edge12" class="edge">
<title>C_milk&#45;&gt;I_dairy</title>
<g id="a_edge12"><a xlink:title="Milk &#45;&gt; Dairy">
<path fill="none" stroke="#505050" stroke-width="5" d="M1156.99,-1771.95C1179.54,-1772.46 1209.06,-1773.13 1240.23,-1773.84"/>
<polygon fill="#505050" stroke="#505050" stroke-width="5" points="1239.66,-1782.58 1259.85,-1774.28 1240.05,-1765.08 1239.66,-1782.58"/>
</a>
</g>
</g>
<!-- I_dairy&#45;&gt;C_food -->
<g id="edge20" class="edge">
<title>I_dairy&#45;&gt;C_food</title>
<g id="a_edge20"><a xlink:title="Dairy &#45;&gt; Food">
<path fill="none" stroke="#a84800" stroke-width="5" d="M1584,-1714.45C1604.86,-1706.05 1626.09,-1697.51 1646.52,-1689.3"/>
</a>
</g>
</g>
<!-- C_sand -->
<g id="sand" class="node">
<title>C_sand</title>
<g id="a_sand"><a xlink:href="cargos.html#sand" xlink:title="&lt;TABLE&gt;" target="_top">
<polygon fill="#468fa8" stroke="#468fa8" points="1166,-950.5 1062,-950.5 1062,-895.5 1166,-895.5 1166,-950.5"/>
<polygon fill="none" stroke="#468fa8" points="1073,-902 1073,-943 1155,-943 1155,-902 1073,-902"/>
<text text-anchor="start" x="1076" y="-914.4" font-family="sans-serif" font-size="32.00" fill="white">Sand</text>
<polygon fill="none" stroke="#468fa8" points="1070,-899.5 1070,-946.5 1158,-946.5 1158,-899.5 1070,-899.5"/>
</a>
</g>
</g>
<!-- C_sand&#45;&gt;I_glass_works -->
<g id="edge13" class="edge">
<title>C_sand&#45;&gt;I_glass_works</title>
<g id="a_edge13"><a xlink:title="Sand &#45;&gt; Glass Works">
<path fill="none" stroke="#468fa8" stroke-width="5" d="M1166.37,-923C1187.37,-923 1213.06,-923 1239.98,-923"/>
<polygon fill="#468fa8" stroke="#468fa8" stroke-width="5" points="1239.83,-931.75 1259.83,-923 1239.83,-914.25 1239.83,-931.75"/>
</a>
</g>
</g>
<!-- C_scrap_metal -->
<g id="scrap_metal" class="node">
<title>C_scrap_metal</title>
<g id="a_scrap_metal"><a xlink:href="cargos.html#scrap_metal" xlink:title="&lt;TABLE&gt;" target="_top">
<polygon fill="#a85050" stroke="#a85050" points="581,-229.5 381,-229.5 381,-174.5 581,-174.5 581,-229.5"/>
<polygon fill="none" stroke="#a85050" points="392,-181 392,-222 570,-222 570,-181 392,-181"/>
<text text-anchor="start" x="395" y="-193.4" font-family="sans-serif" font-size="32.00" fill="white">Scrap Metal</text>
<polygon fill="none" stroke="#a85050" points="389,-178.5 389,-225.5 573,-225.5 573,-178.5 389,-178.5"/>
</a>
</g>
</g>
<!-- C_scrap_metal&#45;&gt;I_integrated_steel_mill -->
<g id="edge14" class="edge">
<title>C_scrap_metal&#45;&gt;I_integrated_steel_mill</title>
<g id="a_edge14"><a xlink:title="Scrap Metal &#45;&gt; Steel Mill">
<path fill="none" stroke="#a85050" stroke-width="5" d="M524.82,-229.84C550.82,-246.73 585.94,-269.56 622.44,-293.29"/>
<polygon fill="#a85050" stroke="#a85050" stroke-width="5" points="617.58,-300.56 639.12,-304.13 627.12,-285.89 617.58,-300.56"/>
</a>
</g>
</g>
<!-- C_steel&#45;&gt;I_hardware_factory -->
<g id="edge15" class="edge">
<title>C_steel&#45;&gt;I_hardware_factory</title>
<g id="a_edge15"><a xlink:title="Steel &#45;&gt; Hardware Factory">
<path fill="none" stroke="#7d70a8" stroke-width="5" d="M1164.99,-426.34C1186.59,-433.4 1213.32,-442.14 1241.33,-451.29"/>
<polygon fill="#7d70a8" stroke="#7d70a8" stroke-width="5" points="1238.52,-459.58 1260.25,-457.48 1243.95,-442.94 1238.52,-459.58"/>
</a>
</g>
</g>
<!-- C_steel&#45;&gt;I_metal_workshop -->
<g id="edge16" class="edge">
<title>C_steel&#45;&gt;I_metal_workshop</title>
<g id="a_edge16"><a xlink:title="Steel &#45;&gt; Metal Workshop">
<path fill="none" stroke="#7d70a8" stroke-width="5" d="M1161.93,-382.05C1184.69,-368.5 1213.62,-351.27 1243.91,-333.24"/>
<polygon fill="#7d70a8" stroke="#7d70a8" stroke-width="5" points="1248.07,-340.95 1260.77,-323.2 1239.11,-325.91 1248.07,-340.95"/>
</a>
</g>
</g>
<!-- I_clay_pit -->
<g id="clay_pit" class="node">
<title>I_clay_pit</title>
<g id="a_clay_pit"><a xlink:href="industries.html#clay_pit" xlink:title="Clay Pit" target="_top">
<polygon fill="white" stroke="none" points="1274,-2241.5 1274,-2482.5 1576,-2482.5 1576,-2241.5 1274,-2241.5"/>
<polygon fill="none" stroke="#c1cdcd" points="1274,-2315 1274,-2482 1576,-2482 1576,-2315 1274,-2315"/>
<image xlink:href="static/img/industries/clay_pit.png" width="300px" height="165px" preserveAspectRatio="xMinYMin meet" x="1275" y="-2481"/>
<polygon fill="none" stroke="#c1cdcd" points="1274,-2241 1274,-2315 1576,-2315 1576,-2241 1274,-2241"/>
<polygon fill="ghostwhite" stroke="none" points="1275,-2242 1275,-2314 1575,-2314 1575,-2242 1275,-2242"/>
<text text-anchor="start" x="1370" y="-2283.4" font-family="sans-serif" font-size="32.00">Clay Pit</text>
<text text-anchor="start" x="1286.5" y="-2253" font-family="sans-serif" font-size="20.00">Requires Engineering Supplies</text>
</a>
</g>
</g>
<!-- I_clay_pit&#45;&gt;C_kaolin -->
<g id="edge18" class="edge">
<title>I_clay_pit&#45;&gt;C_kaolin</title>
<g id="a_edge18"><a xlink:title="Clay Pit &#45;&gt; China Clay">
<path fill="none" stroke="#882034" stroke-width="5" d="M1584,-2267.78C1638.7,-2235.16 1695.93,-2201.03 1734.62,-2177.96"/>
</a>
</g>
</g>
<!-- I_coal_mine -->
<g id="coal_mine" class="node">
<title>I_coal_mine</title>
<g id="a_coal_mine"><a xlink:href="industries.html#coal_mine" xlink:title="Coal Mine" target="_top">
<polygon fill="white" stroke="none" points="8,-601.5 8,-842.5 310,-842.5 310,-601.5 8,-601.5"/>
<polygon fill="none" stroke="#c1cdcd" points="8,-675 8,-842 310,-842 310,-675 8,-675"/>
<image xlink:href="static/img/industries/coal_mine.png" width="300px" height="165px" preserveAspectRatio="xMinYMin meet" x="9" y="-841"/>
<polygon fill="none" stroke="#c1cdcd" points="8,-601 8,-675 310,-675 310,-601 8,-601"/>
<polygon fill="ghostwhite" stroke="none" points="9,-602 9,-674 309,-674 309,-602 9,-602"/>
<text text-anchor="start" x="86.5" y="-643.4" font-family="sans-serif" font-size="32.00">Coal Mine</text>
<text text-anchor="start" x="20.5" y="-613" font-family="sans-serif" font-size="20.00">Requires Engineering Supplies</text>
</a>
</g>
</g>
<!-- I_coal_mine&#45;&gt;C_coal -->
<g id="edge19" class="edge">
<title>I_coal_mine&#45;&gt;C_coal</title>
<g id="a_edge19"><a xlink:title="Coal Mine &#45;&gt; Coal">
<path fill="none" stroke="#a86052" stroke-width="5" d="M317.66,-674.21C359.94,-661.39 402.43,-648.51 433.34,-639.14"/>
</a>
</g>
</g>
<!-- I_dairy_farm -->
<g id="dairy_farm" class="node">
<title>I_dairy_farm</title>
<g id="a_dairy_farm"><a xlink:href="industries.html#dairy_farm" xlink:title="Dairy Farm" target="_top">
<polygon fill="white" stroke="none" points="652,-1589.5 652,-1830.5 954,-1830.5 954,-1589.5 652,-1589.5"/>
<polygon fill="none" stroke="#c1cdcd" points="652,-1663 652,-1830 954,-1830 954,-1663 652,-1663"/>
<image xlink:href="static/img/industries/dairy_farm.png" width="300px" height="165px" preserveAspectRatio="xMinYMin meet" x="653" y="-1829"/>
<polygon fill="none" stroke="#c1cdcd" points="652,-1589 652,-1663 954,-1663 954,-1589 652,-1589"/>
<polygon fill="ghostwhite" stroke="none" points="653,-1590 653,-1662 953,-1662 953,-1590 653,-1590"/>
<text text-anchor="start" x="723.5" y="-1631.4" font-family="sans-serif" font-size="32.00">Dairy Farm</text>
<text text-anchor="start" x="695.5" y="-1601" font-family="sans-serif" font-size="20.00">Requires Farm Supplies</text>
</a>
</g>
</g>
<!-- I_dairy_farm&#45;&gt;C_livestock -->
<g id="edge21" class="edge">
<title>I_dairy_farm&#45;&gt;C_livestock</title>
<g id="a_edge21"><a xlink:title="Dairy Farm &#45;&gt; Livestock">
<path fill="none" stroke="#004ca8" stroke-width="5" d="M961.67,-1599.28C1003.18,-1570.12 1044.39,-1541.18 1073.29,-1520.88"/>
</a>
</g>
</g>
<!-- I_dairy_farm&#45;&gt;C_milk -->
<g id="edge22" class="edge">
<title>I_dairy_farm&#45;&gt;C_milk</title>
<g id="a_edge22"><a xlink:title="Dairy Farm &#45;&gt; Milk">
<path fill="none" stroke="#505050" stroke-width="5" d="M961.67,-1741.13C1002.14,-1749.11 1042.32,-1757.05 1071.1,-1762.73"/>
</a>
</g>
</g>
<!-- I_dredging_site -->
<g id="dredging_site" class="node">
<title>I_dredging_site</title>
<g id="a_dredging_site"><a xlink:href="industries.html#dredging_site" xlink:title="Dredging Site" target="_top">
<polygon fill="white" stroke="none" points="652,-802.5 652,-1043.5 954,-1043.5 954,-802.5 652,-802.5"/>
<polygon fill="none" stroke="#c1cdcd" points="652,-876 652,-1043 954,-1043 954,-876 652,-876"/>
<image xlink:href="static/img/industries/dredging_site.png" width="300px" height="165px" preserveAspectRatio="xMinYMin meet" x="653" y="-1042"/>
<polygon fill="none" stroke="#c1cdcd" points="652,-802 652,-876 954,-876 954,-802 652,-802"/>
<polygon fill="ghostwhite" stroke="none" points="653,-803 653,-875 953,-875 953,-803 653,-803"/>
<text text-anchor="start" x="705.5" y="-844.4" font-family="sans-serif" font-size="32.00">Dredging Site</text>
<text text-anchor="start" x="664.5" y="-814" font-family="sans-serif" font-size="20.00">Requires Engineering Supplies</text>
</a>
</g>
</g>
<!-- I_dredging_site&#45;&gt;C_sand -->
<g id="edge23" class="edge">
<title>I_dredging_site&#45;&gt;C_sand</title>
<g id="a_edge23"><a xlink:title="Dredging Site &#45;&gt; Sand">
<path fill="none" stroke="#468fa8" stroke-width="5" d="M961.67,-923C997.82,-923 1033.75,-923 1061.52,-923"/>
</a>
</g>
</g>
<!-- I_fishing_grounds -->
<g id="fishing_grounds" class="node">
<title>I_fishing_grounds</title>
<g id="a_fishing_grounds"><a xlink:href="industries.html#fishing_grounds" xlink:title="Fishing Grounds" target="_top">
<polygon fill="white" stroke="none" points="652,-1956 652,-2170 954,-2170 954,-1956 652,-1956"/>
<polygon fill="none" stroke="#c1cdcd" points="652,-2003 652,-2170 954,-2170 954,-2003 652,-2003"/>
<image xlink:href="static/img/industries/fishing_grounds.png" width="300px" height="165px" preserveAspectRatio="xMinYMin meet" x="653" y="-2169"/>
<polygon fill="none" stroke="#c1cdcd" points="652,-1956 652,-2003 954,-2003 954,-1956 652,-1956"/>
<polygon fill="ghostwhite" stroke="none" points="653,-1957 653,-2002 953,-2002 953,-1957 653,-1957"/>
<text text-anchor="start" x="685.5" y="-1971.4" font-family="sans-serif" font-size="32.00">Fishing Grounds</text>
</a>
</g>
</g>
<!-- I_fishing_grounds&#45;&gt;C_fish -->
<g id="edge24" class="edge">
<title>I_fishing_grounds&#45;&gt;C_fish</title>
<g id="a_edge24"><a xlink:title="Fishing Grounds &#45;&gt; Fish">
<path fill="none" stroke="#5d45a8" stroke-width="5" d="M961.67,-2063C1001.25,-2063 1040.55,-2063 1069.17,-2063"/>
</a>
</g>
</g>
<!-- I_iron_ore_mine -->
<g id="iron_ore_mine" class="node">
<title>I_iron_ore_mine</title>
<g id="a_iron_ore_mine"><a xlink:href="industries.html#iron_ore_mine" xlink:title="Iron Ore Mine" target="_top">
<polygon fill="white" stroke="none" points="8,-289.5 8,-530.5 310,-530.5 310,-289.5 8,-289.5"/>
<polygon fill="none" stroke="#c1cdcd" points="8,-363 8,-530 310,-530 310,-363 8,-363"/>
<image xlink:href="static/img/industries/iron_ore_mine.png" width="300px" height="165px" preserveAspectRatio="xMinYMin meet" x="9" y="-529"/>
<polygon fill="none" stroke="#c1cdcd" points="8,-289 8,-363 310,-363 310,-289 8,-289"/>
<polygon fill="ghostwhite" stroke="none" points="9,-290 9,-362 309,-362 309,-290 9,-290"/>
<text text-anchor="start" x="60.5" y="-331.4" font-family="sans-serif" font-size="32.00">Iron Ore Mine</text>
<text text-anchor="start" x="20.5" y="-301" font-family="sans-serif" font-size="20.00">Requires Engineering Supplies</text>
</a>
</g>
</g>
<!-- I_iron_ore_mine&#45;&gt;C_iron_ore -->
<g id="edge28" class="edge">
<title>I_iron_ore_mine&#45;&gt;C_iron_ore</title>
<g id="a_edge28"><a xlink:title="Iron Ore Mine &#45;&gt; Iron Ore">
<path fill="none" stroke="#74581c" stroke-width="5" d="M317.66,-410C349.21,-410 380.88,-410 407.77,-410"/>
</a>
</g>
</g>
<!-- I_orchard_piggery -->
<g id="orchard_piggery" class="node">
<title>I_orchard_piggery</title>
<g id="a_orchard_piggery"><a xlink:href="industries.html#orchard_piggery" xlink:title="Orchard &amp; Piggery" target="_top">
<polygon fill="white" stroke="none" points="652,-1169.5 652,-1410.5 954,-1410.5 954,-1169.5 652,-1169.5"/>
<polygon fill="none" stroke="#c1cdcd" points="652,-1243 652,-1410 954,-1410 954,-1243 652,-1243"/>
<image xlink:href="static/img/industries/orchard_piggery.png" width="300px" height="165px" preserveAspectRatio="xMinYMin meet" x="653" y="-1409"/>
<polygon fill="none" stroke="#c1cdcd" points="652,-1169 652,-1243 954,-1243 954,-1169 652,-1169"/>
<polygon fill="ghostwhite" stroke="none" points="653,-1170 653,-1242 953,-1242 953,-1170 653,-1170"/>
<text text-anchor="start" x="671.5" y="-1211.4" font-family="sans-serif" font-size="32.00">Orchard &amp; Piggery</text>
<text text-anchor="start" x="695.5" y="-1181" font-family="sans-serif" font-size="20.00">Requires Farm Supplies</text>
</a>
</g>
</g>
<!-- I_orchard_piggery&#45;&gt;C_fruits -->
<g id="edge30" class="edge">
<title>I_orchard_piggery&#45;&gt;C_fruits</title>
<g id="a_edge30"><a xlink:title="Orchard &amp; Piggery &#45;&gt; Fruit">
<path fill="none" stroke="#a88000" stroke-width="5" d="M961.67,-1269.08C1000.5,-1263.93 1039.07,-1258.81 1067.55,-1255.03"/>
</a>
</g>
</g>
<!-- I_orchard_piggery&#45;&gt;C_livestock -->
<g id="edge31" class="edge">
<title>I_orchard_piggery&#45;&gt;C_livestock</title>
<g id="a_edge31"><a xlink:title="Orchard &amp; Piggery &#45;&gt; Livestock">
<path fill="none" stroke="#004ca8" stroke-width="5" d="M961.67,-1393.58C1001.84,-1419.97 1041.73,-1446.18 1070.46,-1465.05"/>
</a>
</g>
</g>
<!-- I_scrap_yard -->
<g id="scrap_yard" class="node">
<title>I_scrap_yard</title>
<g id="a_scrap_yard"><a xlink:href="industries.html#scrap_yard" xlink:title="Scrap Yard" target="_top">
<polygon fill="white" stroke="none" points="8,-4 8,-218 310,-218 310,-4 8,-4"/>
<polygon fill="none" stroke="#c1cdcd" points="8,-51 8,-218 310,-218 310,-51 8,-51"/>
<image xlink:href="static/img/industries/scrap_yard.png" width="300px" height="165px" preserveAspectRatio="xMinYMin meet" x="9" y="-217"/>
<polygon fill="none" stroke="#c1cdcd" points="8,-4 8,-51 310,-51 310,-4 8,-4"/>
<polygon fill="ghostwhite" stroke="none" points="9,-5 9,-50 309,-50 309,-5 9,-5"/>
<text text-anchor="start" x="80.5" y="-19.4" font-family="sans-serif" font-size="32.00">Scrap Yard</text>
</a>
</g>
</g>
<!-- I_scrap_yard&#45;&gt;C_scrap_metal -->
<g id="edge33" class="edge">
<title>I_scrap_yard&#45;&gt;C_scrap_metal</title>
<g id="a_edge33"><a xlink:title="Scrap Yard &#45;&gt; Scrap Metal">
<path fill="none" stroke="#a85050" stroke-width="5" d="M317.66,-155.83C339.59,-162.07 361.57,-168.32 381.97,-174.12"/>
</a>
</g>
</g>
</g>
</svg>
