<?xml version="1.0" encoding="UTF-8" standalone="no"?>
<?xml-stylesheet href="static/css/cargoflow_styles.css" type="text/css"?>
<!DOCTYPE svg PUBLIC "-//W3C//DTD SVG 1.1//EN"
 "http://www.w3.org/Graphics/SVG/1.1/DTD/svg11.dtd">
<!-- Generated by graphviz version 7.0.6 (20230106.0513)
 -->
<!-- Title: tropic_basic Pages: 1 -->
<svg width="2700pt" height="2024pt"
 viewBox="0.00 0.00 2700.00 2024.00" xmlns="http://www.w3.org/2000/svg" xmlns:xlink="http://www.w3.org/1999/xlink">
<g id="page0,1_graph0" class="graph" transform="scale(1 1) rotate(0) translate(4 2020)">
<title>tropic_basic</title>
<g id="a_page0,1_graph0"><a xlink:title="Tropic Basic">
<polygon fill="white" stroke="none" points="-4,4 -4,-2020 2696,-2020 2696,4 -4,4"/>
</a>
</g>
<g id="clust4" class="cluster">
<title>cluster_BASIC_TROPIC_0</title>
<g id="a_clust4"><a xlink:title="Tropic Basic">
<polygon fill="none" stroke="white" points="1010,-408 1010,-598 1223,-598 1223,-408 1010,-408"/>
</a>
</g>
</g>
<g id="clust5" class="cluster">
<title>cluster_BASIC_TROPIC_1</title>
<g id="a_clust5"><a xlink:title="Tropic Basic">
<polygon fill="none" stroke="white" points="384,-158 384,-348 539,-348 539,-158 384,-158"/>
</a>
</g>
</g>
<g id="clust6" class="cluster">
<title>cluster_BASIC_TROPIC_2</title>
<g id="a_clust6"><a xlink:title="Tropic Basic">
<polygon fill="none" stroke="white" points="394,-1408 394,-1598 529,-1598 529,-1408 394,-1408"/>
</a>
</g>
</g>
<g id="clust7" class="cluster">
<title>cluster_BASIC_TROPIC_3</title>
<g id="a_clust7"><a xlink:title="Tropic Basic">
<polygon fill="none" stroke="white" points="1674.5,-594 1674.5,-1106 1961.5,-1106 1961.5,-594 1674.5,-594"/>
</a>
</g>
</g>
<!-- I_arable_farm -->
<g id="arable_farm" class="node">
<title>I_arable_farm</title>
<g id="a_arable_farm"><a xlink:href="industries.html#arable_farm" xlink:title="Arable Farm" target="_top">
<polygon fill="white" stroke="none" points="8,-1651.5 8,-1892.5 310,-1892.5 310,-1651.5 8,-1651.5"/>
<polygon fill="none" stroke="#c1cdcd" points="8,-1725 8,-1892 310,-1892 310,-1725 8,-1725"/>
<image xlink:href="static/img/industries/arable_farm.png" width="300px" height="165px" preserveAspectRatio="xMinYMin meet" x="9" y="-1891"/>
<polygon fill="none" stroke="#c1cdcd" points="8,-1651 8,-1725 310,-1725 310,-1651 8,-1651"/>
<polygon fill="ghostwhite" stroke="none" points="9,-1652 9,-1724 309,-1724 309,-1652 9,-1652"/>
<text text-anchor="start" x="70.5" y="-1693.4" font-family="sans-serif" font-size="32.00">Arable Farm</text>
<text text-anchor="start" x="51.5" y="-1663" font-family="sans-serif" font-size="20.00">Requires Farm Supplies</text>
</a>
</g>
</g>
<!-- C_beans -->
<g id="beans" class="node">
<title>C_beans</title>
<g id="a_beans"><a xlink:href="cargos.html#beans" xlink:title="&lt;TABLE&gt;" target="_top">
<polygon fill="#602c03" stroke="#602c03" points="521,-1589.5 402,-1589.5 402,-1534.5 521,-1534.5 521,-1589.5"/>
<polygon fill="none" stroke="#602c03" points="413.5,-1541 413.5,-1582 510.5,-1582 510.5,-1541 413.5,-1541"/>
<text text-anchor="start" x="416.5" y="-1553.4" font-family="sans-serif" font-size="32.00" fill="white">Beans</text>
<polygon fill="none" stroke="#602c03" points="410,-1538.5 410,-1585.5 513,-1585.5 513,-1538.5 410,-1538.5"/>
</a>
</g>
</g>
<!-- I_arable_farm&#45;&gt;C_beans -->
<g id="edge16" class="edge">
<title>I_arable_farm&#45;&gt;C_beans</title>
<g id="a_edge16"><a xlink:title="Arable Farm &#45;&gt; Beans">
<path fill="none" stroke="#602c03" stroke-width="5" d="M317.73,-1661.77C355.99,-1635.04 393.6,-1608.75 420.61,-1589.88"/>
</a>
</g>
</g>
<!-- C_grain -->
<g id="grain" class="node">
<title>C_grain</title>
<g id="a_grain"><a xlink:href="cargos.html#grain" xlink:title="&lt;TABLE&gt;" target="_top">
<polygon fill="#505050" stroke="#505050" points="515,-1813.5 408,-1813.5 408,-1758.5 515,-1758.5 515,-1813.5"/>
<polygon fill="none" stroke="#505050" points="419.5,-1765 419.5,-1806 504.5,-1806 504.5,-1765 419.5,-1765"/>
<text text-anchor="start" x="422.5" y="-1777.4" font-family="sans-serif" font-size="32.00" fill="white">Grain</text>
<polygon fill="none" stroke="#505050" points="416,-1762.5 416,-1809.5 507,-1809.5 507,-1762.5 416,-1762.5"/>
</a>
</g>
</g>
<!-- I_arable_farm&#45;&gt;C_grain -->
<g id="edge17" class="edge">
<title>I_arable_farm&#45;&gt;C_grain</title>
<g id="a_edge17"><a xlink:title="Arable Farm &#45;&gt; Grain">
<path fill="none" stroke="#505050" stroke-width="5" d="M317.73,-1779.35C350.18,-1780.86 382.16,-1782.35 407.61,-1783.54"/>
</a>
</g>
</g>
<!-- I_coffee_estate -->
<g id="coffee_estate" class="node">
<title>I_coffee_estate</title>
<g id="a_coffee_estate"><a xlink:href="industries.html#coffee_estate" xlink:title="Coffee Estate" target="_top">
<polygon fill="white" stroke="none" points="8,-1311.5 8,-1552.5 310,-1552.5 310,-1311.5 8,-1311.5"/>
<polygon fill="none" stroke="#c1cdcd" points="8,-1385 8,-1552 310,-1552 310,-1385 8,-1385"/>
<image xlink:href="static/img/industries/coffee_estate.png" width="300px" height="165px" preserveAspectRatio="xMinYMin meet" x="9" y="-1551"/>
<polygon fill="none" stroke="#c1cdcd" points="8,-1311 8,-1385 310,-1385 310,-1311 8,-1311"/>
<polygon fill="ghostwhite" stroke="none" points="9,-1312 9,-1384 309,-1384 309,-1312 9,-1312"/>
<text text-anchor="start" x="62" y="-1353.4" font-family="sans-serif" font-size="32.00">Coffee Estate</text>
<text text-anchor="start" x="51.5" y="-1323" font-family="sans-serif" font-size="20.00">Requires Farm Supplies</text>
</a>
</g>
</g>
<!-- C_fruits -->
<g id="fruits" class="node">
<title>C_fruits</title>
<g id="a_fruits"><a xlink:href="cargos.html#fruits" xlink:title="&lt;TABLE&gt;" target="_top">
<polygon fill="#004ca8" stroke="#004ca8" points="507.5,-1471.5 415.5,-1471.5 415.5,-1416.5 507.5,-1416.5 507.5,-1471.5"/>
<polygon fill="none" stroke="#004ca8" points="426.5,-1423 426.5,-1464 496.5,-1464 496.5,-1423 426.5,-1423"/>
<text text-anchor="start" x="429.5" y="-1435.4" font-family="sans-serif" font-size="32.00" fill="white">Fruit</text>
<polygon fill="none" stroke="#004ca8" points="423.5,-1420.5 423.5,-1467.5 499.5,-1467.5 499.5,-1420.5 423.5,-1420.5"/>
</a>
</g>
</g>
<!-- I_coffee_estate&#45;&gt;C_fruits -->
<g id="edge20" class="edge">
<title>I_coffee_estate&#45;&gt;C_fruits</title>
<g id="a_edge20"><a xlink:title="Coffee Estate &#45;&gt; Fruit">
<path fill="none" stroke="#004ca8" stroke-width="5" d="M317.73,-1438.3C353.44,-1439.72 388.58,-1441.13 415.07,-1442.19"/>
</a>
</g>
</g>
<!-- C_coffee -->
<g id="coffee" class="node">
<title>C_coffee</title>
<g id="a_coffee"><a xlink:href="cargos.html#coffee" xlink:title="&lt;TABLE&gt;" target="_top">
<polygon fill="#347084" stroke="#347084" points="1879,-1097.5 1757,-1097.5 1757,-1042.5 1879,-1042.5 1879,-1097.5"/>
<polygon fill="none" stroke="#347084" points="1768,-1049 1768,-1090 1868,-1090 1868,-1049 1768,-1049"/>
<text text-anchor="start" x="1771" y="-1061.4" font-family="sans-serif" font-size="32.00" fill="white">Coffee</text>
<polygon fill="none" stroke="#347084" points="1765,-1046.5 1765,-1093.5 1871,-1093.5 1871,-1046.5 1765,-1046.5"/>
</a>
</g>
</g>
<!-- I_coffee_estate&#45;&gt;C_coffee -->
<g id="edge19" class="edge">
<title>I_coffee_estate&#45;&gt;C_coffee</title>
<g id="a_edge19"><a xlink:title="Coffee Estate &#45;&gt; Coffee">
<path fill="none" stroke="#347084" stroke-width="5" d="M317.95,-1387.73C442.21,-1356.8 620.28,-1321 779,-1321 779,-1321 779,-1321 1117.5,-1321 1379.42,-1321 1665.79,-1163.17 1773.15,-1097.82"/>
</a>
</g>
</g>
<!-- I_nitrate_mine -->
<g id="nitrate_mine" class="node">
<title>I_nitrate_mine</title>
<g id="a_nitrate_mine"><a xlink:href="industries.html#nitrate_mine" xlink:title="Nitrate Mine" target="_top">
<polygon fill="white" stroke="none" points="8,-4 8,-272 310,-272 310,-4 8,-4"/>
<polygon fill="none" stroke="#c1cdcd" points="8,-105 8,-272 310,-272 310,-105 8,-105"/>
<image xlink:href="static/img/industries/nitrate_mine.png" width="300px" height="165px" preserveAspectRatio="xMinYMin meet" x="9" y="-271"/>
<polygon fill="none" stroke="#c1cdcd" points="8,-4 8,-105 310,-105 310,-4 8,-4"/>
<polygon fill="ghostwhite" stroke="none" points="9,-5 9,-104 309,-104 309,-5 9,-5"/>
<text text-anchor="start" x="72" y="-73.4" font-family="sans-serif" font-size="32.00">Nitrate Mine</text>
<text text-anchor="start" x="20.5" y="-43" font-family="sans-serif" font-size="20.00">Requires Engineering Supplies</text>
<text text-anchor="start" x="49" y="-16" font-family="sans-serif" font-size="20.00">Produces Farm Supplies</text>
</a>
</g>
</g>
<!-- C_nitrates -->
<g id="nitrates" class="node">
<title>C_nitrates</title>
<g id="a_nitrates"><a xlink:href="cargos.html#nitrates" xlink:title="&lt;TABLE&gt;" target="_top">
<polygon fill="#a85050" stroke="#a85050" points="531,-221.5 392,-221.5 392,-166.5 531,-166.5 531,-221.5"/>
<polygon fill="none" stroke="#a85050" points="403.5,-173 403.5,-214 520.5,-214 520.5,-173 403.5,-173"/>
<text text-anchor="start" x="406.5" y="-185.4" font-family="sans-serif" font-size="32.00" fill="white">Nitrates</text>
<polygon fill="none" stroke="#a85050" points="400,-170.5 400,-217.5 523,-217.5 523,-170.5 400,-170.5"/>
</a>
</g>
</g>
<!-- I_nitrate_mine&#45;&gt;C_nitrates -->
<g id="edge27" class="edge">
<title>I_nitrate_mine&#45;&gt;C_nitrates</title>
<g id="a_edge27"><a xlink:title="Nitrate Mine &#45;&gt; Nitrates">
<path fill="none" stroke="#a85050" stroke-width="5" d="M317.73,-167.39C343.66,-172.23 369.29,-177 391.53,-181.15"/>
</a>
</g>
</g>
<!-- I_ranch -->
<g id="ranch" class="node">
<title>I_ranch</title>
<g id="a_ranch"><a xlink:href="industries.html#ranch" xlink:title="Ranch" target="_top">
<polygon fill="white" stroke="none" points="8,-673.5 8,-914.5 310,-914.5 310,-673.5 8,-673.5"/>
<polygon fill="none" stroke="#c1cdcd" points="8,-747 8,-914 310,-914 310,-747 8,-747"/>
<image xlink:href="static/img/industries/ranch.png" width="300px" height="165px" preserveAspectRatio="xMinYMin meet" x="9" y="-913"/>
<polygon fill="none" stroke="#c1cdcd" points="8,-673 8,-747 310,-747 310,-673 8,-673"/>
<polygon fill="ghostwhite" stroke="none" points="9,-674 9,-746 309,-746 309,-674 9,-674"/>
<text text-anchor="start" x="112" y="-715.4" font-family="sans-serif" font-size="32.00">Ranch</text>
<text text-anchor="start" x="51.5" y="-685" font-family="sans-serif" font-size="20.00">Requires Farm Supplies</text>
</a>
</g>
</g>
<!-- C_wool -->
<g id="wool" class="node">
<title>C_wool</title>
<g id="a_wool"><a xlink:href="cargos.html#wool" xlink:title="&lt;TABLE&gt;" target="_top">
<polygon fill="#a8926d" stroke="#a8926d" points="1868.5,-775.5 1767.5,-775.5 1767.5,-720.5 1868.5,-720.5 1868.5,-775.5"/>
<polygon fill="none" stroke="#a8926d" points="1779,-727 1779,-768 1858,-768 1858,-727 1779,-727"/>
<text text-anchor="start" x="1782" y="-739.4" font-family="sans-serif" font-size="32.00" fill="white">Wool</text>
<polygon fill="none" stroke="#a8926d" points="1775.5,-724.5 1775.5,-771.5 1860.5,-771.5 1860.5,-724.5 1775.5,-724.5"/>
</a>
</g>
</g>
<!-- I_ranch&#45;&gt;C_wool -->
<g id="edge31" class="edge">
<title>I_ranch&#45;&gt;C_wool</title>
<g id="a_edge31"><a xlink:title="Ranch &#45;&gt; Wool">
<path fill="none" stroke="#a8926d" stroke-width="5" d="M317.72,-789.26C442.81,-785.9 622.07,-782 779,-782 779,-782 779,-782 1117.5,-782 1361.58,-782 1653,-761.09 1767.43,-752.07"/>
</a>
</g>
</g>
<!-- C_livestock -->
<g id="livestock" class="node">
<title>C_livestock</title>
<g id="a_livestock"><a xlink:href="cargos.html#livestock" xlink:title="&lt;TABLE&gt;" target="_top">
<polygon fill="#468fa8" stroke="#468fa8" points="542,-1100.5 381,-1100.5 381,-1045.5 542,-1045.5 542,-1100.5"/>
<polygon fill="none" stroke="#468fa8" points="392.5,-1052 392.5,-1093 531.5,-1093 531.5,-1052 392.5,-1052"/>
<text text-anchor="start" x="395.5" y="-1064.4" font-family="sans-serif" font-size="32.00" fill="white">Livestock</text>
<polygon fill="none" stroke="#468fa8" points="389,-1049.5 389,-1096.5 534,-1096.5 534,-1049.5 389,-1049.5"/>
</a>
</g>
</g>
<!-- I_ranch&#45;&gt;C_livestock -->
<g id="edge30" class="edge">
<title>I_ranch&#45;&gt;C_livestock</title>
<g id="a_edge30"><a xlink:title="Ranch &#45;&gt; Livestock">
<path fill="none" stroke="#468fa8" stroke-width="5" d="M293.99,-918.4C344.86,-965.63 398.24,-1015.19 430.45,-1045.1"/>
</a>
</g>
</g>
<!-- I_flour_mill -->
<g id="flour_mill" class="node">
<title>I_flour_mill</title>
<g id="a_flour_mill"><a xlink:href="industries.html#flour_mill" xlink:title="Flour Mill" target="_top">
<polygon fill="white" stroke="none" points="629,-1705 629,-1919 931,-1919 931,-1705 629,-1705"/>
<polygon fill="none" stroke="#c1cdcd" points="629,-1752 629,-1919 931,-1919 931,-1752 629,-1752"/>
<image xlink:href="static/img/industries/flour_mill.png" width="300px" height="165px" preserveAspectRatio="xMinYMin meet" x="630" y="-1918"/>
<polygon fill="none" stroke="#c1cdcd" points="629,-1705 629,-1752 931,-1752 931,-1705 629,-1705"/>
<polygon fill="ghostwhite" stroke="none" points="630,-1706 630,-1751 930,-1751 930,-1706 630,-1706"/>
<text text-anchor="start" x="715" y="-1720.4" font-family="sans-serif" font-size="32.00">Flour Mill</text>
</a>
</g>
</g>
<!-- C_food -->
<g id="food" class="node">
<title>C_food</title>
<g id="a_food"><a xlink:href="cargos.html#food" xlink:title="&lt;TABLE&gt;" target="_top">
<polygon fill="#a84800" stroke="#a84800" points="2334.5,-1528.5 2063.5,-1528.5 2063.5,-1387.5 2334.5,-1387.5 2334.5,-1528.5"/>
<polygon fill="none" stroke="#a84800" points="2075,-1480 2075,-1521 2324,-1521 2324,-1480 2075,-1480"/>
<text text-anchor="start" x="2162.5" y="-1492.4" font-family="sans-serif" font-size="32.00" fill="white">Food</text>
<polygon fill="white" stroke="none" points="2075,-1437 2075,-1478 2324,-1478 2324,-1437 2075,-1437"/>
<polygon fill="none" stroke="#a84800" points="2075,-1437 2075,-1478 2324,-1478 2324,-1437 2075,-1437"/>
<text text-anchor="start" x="2078" y="-1449.4" font-family="sans-serif" font-size="32.00">To General Store</text>
<polygon fill="white" stroke="none" points="2075,-1394 2075,-1435 2324,-1435 2324,-1394 2075,-1394"/>
<polygon fill="none" stroke="#a84800" points="2075,-1394 2075,-1435 2324,-1435 2324,-1394 2075,-1394"/>
<text text-anchor="start" x="2140.5" y="-1406.4" font-family="sans-serif" font-size="32.00">To Hotel</text>
<polygon fill="none" stroke="#a84800" points="2071.5,-1391.5 2071.5,-1524.5 2326.5,-1524.5 2326.5,-1391.5 2071.5,-1391.5"/>
</a>
</g>
</g>
<!-- I_flour_mill&#45;&gt;C_food -->
<g id="edge25" class="edge">
<title>I_flour_mill&#45;&gt;C_food</title>
<g id="a_edge25"><a xlink:title="Flour Mill &#45;&gt; Food">
<path fill="none" stroke="#a84800" stroke-width="5" d="M938.82,-1776.46C1168.24,-1724.2 1606.86,-1622.09 1977,-1523 2004.91,-1515.53 2034.67,-1507.1 2063.01,-1498.84"/>
</a>
</g>
</g>
<!-- I_food_processor -->
<g id="food_processor" class="node">
<title>I_food_processor</title>
<g id="a_food_processor"><a xlink:href="industries.html#food_processor" xlink:title="Food Processing Plant" target="_top">
<polygon fill="white" stroke="none" points="613,-1420 613,-1634 947,-1634 947,-1420 613,-1420"/>
<polygon fill="none" stroke="#c1cdcd" points="613,-1467 613,-1634 947,-1634 947,-1467 613,-1467"/>
<image xlink:href="static/img/industries/food_processor.png" width="332px" height="165px" preserveAspectRatio="xMinYMin meet" x="614" y="-1633"/>
<polygon fill="none" stroke="#c1cdcd" points="613,-1420 613,-1467 947,-1467 947,-1420 613,-1420"/>
<polygon fill="ghostwhite" stroke="none" points="614,-1421 614,-1466 946,-1466 946,-1421 614,-1421"/>
<text text-anchor="start" x="619" y="-1435.4" font-family="sans-serif" font-size="32.00">Food Processing Plant</text>
</a>
</g>
</g>
<!-- I_food_processor&#45;&gt;C_food -->
<g id="edge26" class="edge">
<title>I_food_processor&#45;&gt;C_food</title>
<g id="a_edge26"><a xlink:title="Food Processing Plant &#45;&gt; Food">
<path fill="none" stroke="#a84800" stroke-width="5" d="M954.75,-1518.54C1240.75,-1504.61 1804.7,-1477.15 2063.01,-1464.57"/>
</a>
</g>
</g>
<!-- I_stockyard -->
<g id="stockyard" class="node">
<title>I_stockyard</title>
<g id="a_stockyard"><a xlink:href="industries.html#stockyard" xlink:title="Stockyard" target="_top">
<polygon fill="white" stroke="none" points="629,-1008 629,-1222 931,-1222 931,-1008 629,-1008"/>
<polygon fill="none" stroke="#c1cdcd" points="629,-1055 629,-1222 931,-1222 931,-1055 629,-1055"/>
<image xlink:href="static/img/industries/stockyard.png" width="300px" height="165px" preserveAspectRatio="xMinYMin meet" x="630" y="-1221"/>
<polygon fill="none" stroke="#c1cdcd" points="629,-1008 629,-1055 931,-1055 931,-1008 629,-1008"/>
<polygon fill="ghostwhite" stroke="none" points="630,-1009 630,-1054 930,-1054 930,-1009 630,-1009"/>
<text text-anchor="start" x="709" y="-1023.4" font-family="sans-serif" font-size="32.00">Stockyard</text>
</a>
</g>
</g>
<!-- I_stockyard&#45;&gt;C_food -->
<g id="edge32" class="edge">
<title>I_stockyard&#45;&gt;C_food</title>
<g id="a_edge32"><a xlink:title="Stockyard &#45;&gt; Food">
<path fill="none" stroke="#a84800" stroke-width="5" d="M938.74,-1153.18C1219.27,-1221.09 1800.09,-1361.68 2063.22,-1425.38"/>
</a>
</g>
</g>
<!-- C_fish -->
<g id="fish" class="node">
<title>C_fish</title>
<g id="a_fish"><a xlink:href="cargos.html#fish" xlink:title="&lt;TABLE&gt;" target="_top">
<polygon fill="#882034" stroke="#882034" points="2243.5,-1932.5 2154.5,-1932.5 2154.5,-1877.5 2243.5,-1877.5 2243.5,-1932.5"/>
<polygon fill="none" stroke="#882034" points="2166,-1884 2166,-1925 2233,-1925 2233,-1884 2166,-1884"/>
<text text-anchor="start" x="2169" y="-1896.4" font-family="sans-serif" font-size="32.00" fill="white">Fish</text>
<polygon fill="none" stroke="#882034" points="2162.5,-1881.5 2162.5,-1928.5 2235.5,-1928.5 2235.5,-1881.5 2162.5,-1881.5"/>
</a>
</g>
</g>
<!-- I_fishing_harbour -->
<g id="fishing_harbour" class="node">
<title>I_fishing_harbour</title>
<g id="a_fishing_harbour"><a xlink:href="industries.html#fishing_harbour" xlink:title="Fishing Harbour" target="_top">
<polygon fill="white" stroke="none" points="2048,-1596 2048,-1810 2350,-1810 2350,-1596 2048,-1596"/>
<polygon fill="none" stroke="#c1cdcd" points="2048,-1643 2048,-1810 2350,-1810 2350,-1643 2048,-1643"/>
<image xlink:href="static/img/industries/fishing_harbour.png" width="300px" height="165px" preserveAspectRatio="xMinYMin meet" x="2049" y="-1809"/>
<polygon fill="none" stroke="#c1cdcd" points="2048,-1596 2048,-1643 2350,-1643 2350,-1596 2048,-1596"/>
<polygon fill="ghostwhite" stroke="none" points="2049,-1597 2049,-1642 2349,-1642 2349,-1597 2049,-1597"/>
<text text-anchor="start" x="2084.5" y="-1611.4" font-family="sans-serif" font-size="32.00">Fishing Harbour</text>
</a>
</g>
</g>
<!-- C_fish&#45;&gt;I_fishing_harbour -->
<g id="edge8" class="edge">
<title>C_fish&#45;&gt;I_fishing_harbour</title>
<g id="a_edge8"><a xlink:title="Fish &#45;&gt; Fishing Harbour">
<path fill="none" stroke="#882034" stroke-width="5" d="M2199,-1877.23C2199,-1864.69 2199,-1852.15 2199,-1839.61"/>
<polygon fill="#882034" stroke="#882034" stroke-width="5" points="2207.75,-1840.1 2199,-1820.1 2190.25,-1840.1 2207.75,-1840.1"/>
</a>
</g>
</g>
<!-- I_port -->
<g id="port" class="node">
<title>I_port</title>
<g id="a_port"><a xlink:href="industries.html#port" xlink:title="Port" target="_top">
<polygon fill="white" stroke="none" points="2048,-695 2048,-963 2350,-963 2350,-695 2048,-695"/>
<polygon fill="none" stroke="#c1cdcd" points="2048,-796 2048,-963 2350,-963 2350,-796 2048,-796"/>
<image xlink:href="static/img/industries/port.png" width="300px" height="165px" preserveAspectRatio="xMinYMin meet" x="2049" y="-962"/>
<polygon fill="none" stroke="#c1cdcd" points="2048,-695 2048,-796 2350,-796 2350,-695 2048,-695"/>
<polygon fill="ghostwhite" stroke="none" points="2049,-696 2049,-795 2349,-795 2349,-696 2049,-696"/>
<text text-anchor="start" x="2169.5" y="-764.4" font-family="sans-serif" font-size="32.00">Port</text>
<text text-anchor="start" x="2058.5" y="-734" font-family="sans-serif" font-size="20.00">Produces Engineering Supplies</text>
<text text-anchor="start" x="2089" y="-707" font-family="sans-serif" font-size="20.00">Produces Farm Supplies</text>
</a>
</g>
</g>
<!-- C_food&#45;&gt;I_port -->
<g id="edge9" class="edge">
<title>C_food&#45;&gt;I_port</title>
<g id="a_edge9"><a xlink:title="Food &#45;&gt; Port">
<path fill="none" stroke="#a84800" stroke-width="5" d="M2199,-1387.02C2199,-1255.6 2199,-1124.17 2199,-992.75"/>
<polygon fill="#a84800" stroke="#a84800" stroke-width="5" points="2207.75,-993.14 2199,-973.14 2190.25,-993.14 2207.75,-993.14"/>
</a>
</g>
</g>
<!-- I_fishing_harbour&#45;&gt;C_food -->
<g id="edge24" class="edge">
<title>I_fishing_harbour&#45;&gt;C_food</title>
<g id="a_edge24"><a xlink:title="Fishing Harbour &#45;&gt; Food">
<path fill="none" stroke="#a84800" stroke-width="5" d="M2199,-1592.1C2199,-1571 2199,-1549.91 2199,-1528.82"/>
</a>
</g>
</g>
<!-- C_goods -->
<g id="goods" class="node">
<title>C_goods</title>
<g id="a_goods"><a xlink:href="cargos.html#goods" xlink:title="&lt;TABLE&gt;" target="_top">
<polygon fill="#a84b60" stroke="#a84b60" points="2692,-878 2421,-878 2421,-780 2692,-780 2692,-878"/>
<polygon fill="none" stroke="#a84b60" points="2432.5,-830 2432.5,-871 2681.5,-871 2681.5,-830 2432.5,-830"/>
<text text-anchor="start" x="2509.5" y="-842.4" font-family="sans-serif" font-size="32.00" fill="white">Goods</text>
<polygon fill="white" stroke="none" points="2432.5,-787 2432.5,-828 2681.5,-828 2681.5,-787 2432.5,-787"/>
<polygon fill="none" stroke="#a84b60" points="2432.5,-787 2432.5,-828 2681.5,-828 2681.5,-787 2432.5,-787"/>
<text text-anchor="start" x="2435.5" y="-799.4" font-family="sans-serif" font-size="32.00">To General Store</text>
<polygon fill="none" stroke="#a84b60" points="2429,-784 2429,-874 2684,-874 2684,-784 2429,-784"/>
</a>
</g>
</g>
<!-- I_port&#45;&gt;C_goods -->
<g id="edge29" class="edge">
<title>I_port&#45;&gt;C_goods</title>
<g id="a_edge29"><a xlink:title="Port &#45;&gt; Goods">
<path fill="none" stroke="#a84b60" stroke-width="5" d="M2358,-829C2378.86,-829 2400.09,-829 2420.52,-829"/>
</a>
</g>
</g>
<!-- C_chemicals -->
<g id="chemicals" class="node">
<title>C_chemicals</title>
<g id="a_chemicals"><a xlink:href="cargos.html#chemicals" xlink:title="&lt;TABLE&gt;" target="_top">
<polygon fill="#a86052" stroke="#a86052" points="1205.5,-471.5 1027.5,-471.5 1027.5,-416.5 1205.5,-416.5 1205.5,-471.5"/>
<polygon fill="none" stroke="#a86052" points="1038.5,-423 1038.5,-464 1194.5,-464 1194.5,-423 1038.5,-423"/>
<text text-anchor="start" x="1041.5" y="-435.4" font-family="sans-serif" font-size="32.00" fill="white">Chemicals</text>
<polygon fill="none" stroke="#a86052" points="1035.5,-420.5 1035.5,-467.5 1197.5,-467.5 1197.5,-420.5 1035.5,-420.5"/>
</a>
</g>
</g>
<!-- C_chemicals&#45;&gt;I_port -->
<g id="edge4" class="edge">
<title>C_chemicals&#45;&gt;I_port</title>
<g id="a_edge4"><a xlink:title="Chemicals &#45;&gt; Port">
<path fill="none" stroke="#a86052" stroke-width="5" d="M1205.75,-436.86C1229.21,-435.26 1254.55,-433.8 1278,-433 1595.19,-422.14 1716.22,-398.12 1977,-579 2014.08,-604.72 2049.05,-637.93 2079.77,-671.7"/>
<polygon fill="#a86052" stroke="#a86052" stroke-width="5" points="2072.93,-677.17 2092.74,-686.36 2086.04,-665.58 2072.93,-677.17"/>
</a>
</g>
</g>
<!-- I_copper_smelter -->
<g id="copper_smelter" class="node">
<title>I_copper_smelter</title>
<g id="a_copper_smelter"><a xlink:href="industries.html#copper_smelter" xlink:title="Copper Smelter" target="_top">
<polygon fill="white" stroke="none" points="1286,-469 1286,-683 1588,-683 1588,-469 1286,-469"/>
<polygon fill="none" stroke="#c1cdcd" points="1286,-516 1286,-683 1588,-683 1588,-516 1286,-516"/>
<image xlink:href="static/img/industries/copper_smelter.png" width="300px" height="165px" preserveAspectRatio="xMinYMin meet" x="1287" y="-682"/>
<polygon fill="none" stroke="#c1cdcd" points="1286,-469 1286,-516 1588,-516 1588,-469 1286,-469"/>
<polygon fill="ghostwhite" stroke="none" points="1287,-470 1287,-515 1587,-515 1587,-470 1287,-470"/>
<text text-anchor="start" x="1324" y="-484.4" font-family="sans-serif" font-size="32.00">Copper Smelter</text>
</a>
</g>
</g>
<!-- C_chemicals&#45;&gt;I_copper_smelter -->
<g id="edge3" class="edge">
<title>C_chemicals&#45;&gt;I_copper_smelter</title>
<g id="a_edge3"><a xlink:title="Chemicals &#45;&gt; Copper Smelter">
<path fill="none" stroke="#a86052" stroke-width="5" d="M1185.05,-471.99C1205.7,-480.55 1229.47,-490.4 1253.97,-500.56"/>
<polygon fill="#a86052" stroke="#a86052" stroke-width="5" points="1250.53,-508.61 1272.36,-508.18 1257.23,-492.44 1250.53,-508.61"/>
</a>
</g>
</g>
<!-- C_copper_ore -->
<g id="copper_ore" class="node">
<title>C_copper_ore</title>
<g id="a_copper_ore"><a xlink:href="cargos.html#copper_ore" xlink:title="&lt;TABLE&gt;" target="_top">
<polygon fill="#5d45a8" stroke="#5d45a8" points="1215,-589.5 1018,-589.5 1018,-534.5 1215,-534.5 1215,-589.5"/>
<polygon fill="none" stroke="#5d45a8" points="1029.5,-541 1029.5,-582 1204.5,-582 1204.5,-541 1029.5,-541"/>
<text text-anchor="start" x="1032.5" y="-553.4" font-family="sans-serif" font-size="32.00" fill="white">Copper Ore</text>
<polygon fill="none" stroke="#5d45a8" points="1026,-538.5 1026,-585.5 1207,-585.5 1207,-538.5 1026,-538.5"/>
</a>
</g>
</g>
<!-- C_copper_ore&#45;&gt;I_copper_smelter -->
<g id="edge7" class="edge">
<title>C_copper_ore&#45;&gt;I_copper_smelter</title>
<g id="a_edge7"><a xlink:title="Copper Ore &#45;&gt; Copper Smelter">
<path fill="none" stroke="#5d45a8" stroke-width="5" d="M1215.23,-566.3C1227.06,-566.82 1239.43,-567.36 1252.01,-567.91"/>
<polygon fill="#5d45a8" stroke="#5d45a8" stroke-width="5" points="1251.43,-576.65 1271.8,-568.78 1252.2,-559.16 1251.43,-576.65"/>
</a>
</g>
</g>
<!-- I_chemical_plant -->
<g id="chemical_plant" class="node">
<title>I_chemical_plant</title>
<g id="a_chemical_plant"><a xlink:href="industries.html#chemical_plant" xlink:title="Chemical Plant" target="_top">
<polygon fill="white" stroke="none" points="629,-156 629,-370 931,-370 931,-156 629,-156"/>
<polygon fill="none" stroke="#c1cdcd" points="629,-203 629,-370 931,-370 931,-203 629,-203"/>
<image xlink:href="static/img/industries/chemical_plant.png" width="300px" height="165px" preserveAspectRatio="xMinYMin meet" x="630" y="-369"/>
<polygon fill="none" stroke="#c1cdcd" points="629,-156 629,-203 931,-203 931,-156 629,-156"/>
<polygon fill="ghostwhite" stroke="none" points="630,-157 630,-202 930,-202 930,-157 630,-157"/>
<text text-anchor="start" x="672" y="-171.4" font-family="sans-serif" font-size="32.00">Chemical Plant</text>
</a>
</g>
</g>
<!-- C_nitrates&#45;&gt;I_chemical_plant -->
<g id="edge13" class="edge">
<title>C_nitrates&#45;&gt;I_chemical_plant</title>
<g id="a_edge13"><a xlink:title="Nitrates &#45;&gt; Chemical Plant">
<path fill="none" stroke="#a85050" stroke-width="5" d="M531.18,-208.97C550.63,-213.21 572.78,-218.04 595.65,-223.03"/>
<polygon fill="#a85050" stroke="#a85050" stroke-width="5" points="593.65,-231.55 615.06,-227.26 597.38,-214.45 593.65,-231.55"/>
</a>
</g>
</g>
<!-- C_oil -->
<g id="oil" class="node">
<title>C_oil</title>
<g id="a_oil"><a xlink:href="cargos.html#oil" xlink:title="&lt;TABLE&gt;" target="_top">
<polygon fill="#7d70a8" stroke="#7d70a8" points="495,-339.5 428,-339.5 428,-284.5 495,-284.5 495,-339.5"/>
<polygon fill="none" stroke="#7d70a8" points="439.5,-291 439.5,-332 484.5,-332 484.5,-291 439.5,-291"/>
<text text-anchor="start" x="442.5" y="-303.4" font-family="sans-serif" font-size="32.00" fill="white">Oil</text>
<polygon fill="none" stroke="#7d70a8" points="436,-288.5 436,-335.5 487,-335.5 487,-288.5 436,-288.5"/>
</a>
</g>
</g>
<!-- C_oil&#45;&gt;I_chemical_plant -->
<g id="edge14" class="edge">
<title>C_oil&#45;&gt;I_chemical_plant</title>
<g id="a_edge14"><a xlink:title="Oil &#45;&gt; Chemical Plant">
<path fill="none" stroke="#7d70a8" stroke-width="5" d="M495.48,-306.89C520.42,-303.03 556.85,-297.39 595.35,-291.43"/>
<polygon fill="#7d70a8" stroke="#7d70a8" stroke-width="5" points="596.59,-300.09 615.01,-288.39 593.91,-282.8 596.59,-300.09"/>
</a>
</g>
</g>
<!-- C_beans&#45;&gt;I_food_processor -->
<g id="edge2" class="edge">
<title>C_beans&#45;&gt;I_food_processor</title>
<g id="a_edge2"><a xlink:title="Beans &#45;&gt; Food Processing Plant">
<path fill="none" stroke="#602c03" stroke-width="5" d="M521.29,-1555.5C538.51,-1553.59 558.37,-1551.4 579.28,-1549.09"/>
<polygon fill="#602c03" stroke="#602c03" stroke-width="5" points="580.06,-1557.8 598.98,-1546.91 578.14,-1540.41 580.06,-1557.8"/>
</a>
</g>
</g>
<!-- C_fruits&#45;&gt;I_food_processor -->
<g id="edge10" class="edge">
<title>C_fruits&#45;&gt;I_food_processor</title>
<g id="a_edge10"><a xlink:title="Fruit &#45;&gt; Food Processing Plant">
<path fill="none" stroke="#004ca8" stroke-width="5" d="M507.85,-1455.89C528,-1461.18 553.25,-1467.8 580.18,-1474.86"/>
<polygon fill="#004ca8" stroke="#004ca8" stroke-width="5" points="577.69,-1483.25 599.26,-1479.86 582.13,-1466.33 577.69,-1483.25"/>
</a>
</g>
</g>
<!-- C_alcohol -->
<g id="alcohol" class="node">
<title>C_alcohol</title>
<g id="a_alcohol"><a xlink:href="cargos.html#alcohol" xlink:title="&lt;TABLE&gt;" target="_top">
<polygon fill="#a80000" stroke="#a80000" points="1953.5,-979.5 1682.5,-979.5 1682.5,-838.5 1953.5,-838.5 1953.5,-979.5"/>
<polygon fill="none" stroke="#a80000" points="1694,-931 1694,-972 1943,-972 1943,-931 1694,-931"/>
<text text-anchor="start" x="1766" y="-943.4" font-family="sans-serif" font-size="32.00" fill="white">Alcohol</text>
<polygon fill="white" stroke="none" points="1694,-888 1694,-929 1943,-929 1943,-888 1694,-888"/>
<polygon fill="none" stroke="#a80000" points="1694,-888 1694,-929 1943,-929 1943,-888 1694,-888"/>
<text text-anchor="start" x="1697" y="-900.4" font-family="sans-serif" font-size="32.00">To General Store</text>
<polygon fill="white" stroke="none" points="1694,-845 1694,-886 1943,-886 1943,-845 1694,-845"/>
<polygon fill="none" stroke="#a80000" points="1694,-845 1694,-886 1943,-886 1943,-845 1694,-845"/>
<text text-anchor="start" x="1759.5" y="-857.4" font-family="sans-serif" font-size="32.00">To Hotel</text>
<polygon fill="none" stroke="#a80000" points="1690.5,-842.5 1690.5,-975.5 1945.5,-975.5 1945.5,-842.5 1690.5,-842.5"/>
</a>
</g>
</g>
<!-- C_alcohol&#45;&gt;I_port -->
<g id="edge1" class="edge">
<title>C_alcohol&#45;&gt;I_port</title>
<g id="a_edge1"><a xlink:title="Alcohol &#45;&gt; Port">
<path fill="none" stroke="#a80000" stroke-width="5" d="M1953.96,-880.51C1973.73,-876.34 1994.37,-871.98 2014.91,-867.65"/>
<polygon fill="#a80000" stroke="#a80000" stroke-width="5" points="2016.45,-876.26 2034.22,-863.57 2012.84,-859.14 2016.45,-876.26"/>
</a>
</g>
</g>
<!-- C_coffee&#45;&gt;I_port -->
<g id="edge5" class="edge">
<title>C_coffee&#45;&gt;I_port</title>
<g id="a_edge5"><a xlink:title="Coffee &#45;&gt; Port">
<path fill="none" stroke="#347084" stroke-width="5" d="M1879.25,-1052.73C1909.64,-1042.73 1946.44,-1028.63 1977,-1011 1992.13,-1002.27 2007.27,-992.51 2022.13,-982.17"/>
<polygon fill="#347084" stroke="#347084" stroke-width="5" points="2027.13,-989.36 2038.24,-970.57 2016.9,-975.16 2027.13,-989.36"/>
</a>
</g>
</g>
<!-- C_copper -->
<g id="copper" class="node">
<title>C_copper</title>
<g id="a_copper"><a xlink:href="cargos.html#copper" xlink:title="&lt;TABLE&gt;" target="_top">
<polygon fill="#a89a28" stroke="#a89a28" points="1885,-657.5 1751,-657.5 1751,-602.5 1885,-602.5 1885,-657.5"/>
<polygon fill="none" stroke="#a89a28" points="1762,-609 1762,-650 1874,-650 1874,-609 1762,-609"/>
<text text-anchor="start" x="1765" y="-621.4" font-family="sans-serif" font-size="32.00" fill="white">Copper</text>
<polygon fill="none" stroke="#a89a28" points="1759,-606.5 1759,-653.5 1877,-653.5 1877,-606.5 1759,-606.5"/>
</a>
</g>
</g>
<!-- C_copper&#45;&gt;I_port -->
<g id="edge6" class="edge">
<title>C_copper&#45;&gt;I_port</title>
<g id="a_edge6"><a xlink:title="Copper &#45;&gt; Port">
<path fill="none" stroke="#a89a28" stroke-width="5" d="M1885.24,-651.29C1914.02,-661.41 1947.76,-674.48 1977,-689 1990.36,-695.63 2003.92,-702.87 2017.42,-710.44"/>
<polygon fill="#a89a28" stroke="#a89a28" stroke-width="5" points="2012.93,-717.95 2034.63,-720.35 2021.66,-702.79 2012.93,-717.95"/>
</a>
</g>
</g>
<!-- C_wool&#45;&gt;I_port -->
<g id="edge15" class="edge">
<title>C_wool&#45;&gt;I_port</title>
<g id="a_edge15"><a xlink:title="Wool &#45;&gt; Port">
<path fill="none" stroke="#a8926d" stroke-width="5" d="M1868.94,-758.67C1906.68,-766.74 1960.99,-778.35 2014.65,-789.81"/>
<polygon fill="#a8926d" stroke="#a8926d" stroke-width="5" points="2012.54,-798.31 2033.93,-793.93 2016.2,-781.2 2012.54,-798.31"/>
</a>
</g>
</g>
<!-- I_copper_smelter&#45;&gt;C_copper -->
<g id="edge22" class="edge">
<title>I_copper_smelter&#45;&gt;C_copper</title>
<g id="a_edge22"><a xlink:title="Copper Smelter &#45;&gt; Copper">
<path fill="none" stroke="#a89a28" stroke-width="5" d="M1595.99,-598.51C1650.22,-606.24 1707.99,-614.47 1750.86,-620.58"/>
</a>
</g>
</g>
<!-- C_grain&#45;&gt;I_flour_mill -->
<g id="edge11" class="edge">
<title>C_grain&#45;&gt;I_flour_mill</title>
<g id="a_edge11"><a xlink:title="Grain &#45;&gt; Flour Mill">
<path fill="none" stroke="#505050" stroke-width="5" d="M515.47,-1790.35C538.2,-1792.22 566.24,-1794.52 595.45,-1796.92"/>
<polygon fill="#505050" stroke="#505050" stroke-width="5" points="594.46,-1805.62 615.11,-1798.54 595.89,-1788.18 594.46,-1805.62"/>
</a>
</g>
</g>
<!-- C_livestock&#45;&gt;I_stockyard -->
<g id="edge12" class="edge">
<title>C_livestock&#45;&gt;I_stockyard</title>
<g id="a_edge12"><a xlink:title="Livestock &#45;&gt; Stockyard">
<path fill="none" stroke="#468fa8" stroke-width="5" d="M542.37,-1083.6C558.83,-1085.78 576.8,-1088.17 595.25,-1090.62"/>
<polygon fill="#468fa8" stroke="#468fa8" stroke-width="5" points="593.92,-1099.27 614.89,-1093.22 596.22,-1081.92 593.92,-1099.27"/>
</a>
</g>
</g>
<!-- I_chemical_plant&#45;&gt;C_chemicals -->
<g id="edge18" class="edge">
<title>I_chemical_plant&#45;&gt;C_chemicals</title>
<g id="a_edge18"><a xlink:title="Chemical Plant &#45;&gt; Chemicals">
<path fill="none" stroke="#a86052" stroke-width="5" d="M938.94,-348.46C984.11,-372.9 1030.18,-397.83 1063.93,-416.1"/>
</a>
</g>
</g>
<!-- I_copper_mine -->
<g id="copper_mine" class="node">
<title>I_copper_mine</title>
<g id="a_copper_mine"><a xlink:href="industries.html#copper_mine" xlink:title="Copper Mine" target="_top">
<polygon fill="white" stroke="none" points="629,-441.5 629,-682.5 931,-682.5 931,-441.5 629,-441.5"/>
<polygon fill="none" stroke="#c1cdcd" points="629,-515 629,-682 931,-682 931,-515 629,-515"/>
<image xlink:href="static/img/industries/copper_mine.png" width="300px" height="165px" preserveAspectRatio="xMinYMin meet" x="630" y="-681"/>
<polygon fill="none" stroke="#c1cdcd" points="629,-441 629,-515 931,-515 931,-441 629,-441"/>
<polygon fill="ghostwhite" stroke="none" points="630,-442 630,-514 930,-514 930,-442 630,-442"/>
<text text-anchor="start" x="687.5" y="-483.4" font-family="sans-serif" font-size="32.00">Copper Mine</text>
<text text-anchor="start" x="641.5" y="-453" font-family="sans-serif" font-size="20.00">Requires Engineering Supplies</text>
</a>
</g>
</g>
<!-- I_copper_mine&#45;&gt;C_copper_ore -->
<g id="edge21" class="edge">
<title>I_copper_mine&#45;&gt;C_copper_ore</title>
<g id="a_edge21"><a xlink:title="Copper Mine &#45;&gt; Copper Ore">
<path fill="none" stroke="#5d45a8" stroke-width="5" d="M938.94,-562C965.84,-562 993.06,-562 1017.8,-562"/>
</a>
</g>
</g>
<!-- I_fishing_grounds -->
<g id="fishing_grounds" class="node">
<title>I_fishing_grounds</title>
<g id="a_fishing_grounds"><a xlink:href="industries.html#fishing_grounds" xlink:title="Fishing Grounds" target="_top">
<polygon fill="white" stroke="none" points="1667,-1798 1667,-2012 1969,-2012 1969,-1798 1667,-1798"/>
<polygon fill="none" stroke="#c1cdcd" points="1667,-1845 1667,-2012 1969,-2012 1969,-1845 1667,-1845"/>
<image xlink:href="static/img/industries/fishing_grounds.png" width="300px" height="165px" preserveAspectRatio="xMinYMin meet" x="1668" y="-2011"/>
<polygon fill="none" stroke="#c1cdcd" points="1667,-1798 1667,-1845 1969,-1845 1969,-1798 1667,-1798"/>
<polygon fill="ghostwhite" stroke="none" points="1668,-1799 1668,-1844 1968,-1844 1968,-1799 1668,-1799"/>
<text text-anchor="start" x="1700.5" y="-1813.4" font-family="sans-serif" font-size="32.00">Fishing Grounds</text>
</a>
</g>
</g>
<!-- I_fishing_grounds&#45;&gt;C_fish -->
<g id="edge23" class="edge">
<title>I_fishing_grounds&#45;&gt;C_fish</title>
<g id="a_edge23"><a xlink:title="Fishing Grounds &#45;&gt; Fish">
<path fill="none" stroke="#882034" stroke-width="5" d="M1976.99,-1905C2041.37,-1905 2110.75,-1905 2154.26,-1905"/>
</a>
</g>
</g>
<!-- I_oil_wells -->
<g id="oil_wells" class="node">
<title>I_oil_wells</title>
<g id="a_oil_wells"><a xlink:href="industries.html#oil_wells" xlink:title="Oil Wells" target="_top">
<polygon fill="white" stroke="none" points="8,-343.5 8,-584.5 310,-584.5 310,-343.5 8,-343.5"/>
<polygon fill="none" stroke="#c1cdcd" points="8,-417 8,-584 310,-584 310,-417 8,-417"/>
<image xlink:href="static/img/industries/oil_wells.png" width="300px" height="165px" preserveAspectRatio="xMinYMin meet" x="9" y="-583"/>
<polygon fill="none" stroke="#c1cdcd" points="8,-343 8,-417 310,-417 310,-343 8,-343"/>
<polygon fill="ghostwhite" stroke="none" points="9,-344 9,-416 309,-416 309,-344 9,-344"/>
<text text-anchor="start" x="97" y="-385.4" font-family="sans-serif" font-size="32.00">Oil Wells</text>
<text text-anchor="start" x="20.5" y="-355" font-family="sans-serif" font-size="20.00">Requires Engineering Supplies</text>
</a>
</g>
</g>
<!-- I_oil_wells&#45;&gt;C_oil -->
<g id="edge28" class="edge">
<title>I_oil_wells&#45;&gt;C_oil</title>
<g id="a_edge28"><a xlink:title="Oil Wells &#45;&gt; Oil">
<path fill="none" stroke="#7d70a8" stroke-width="5" d="M317.73,-384.22C359.39,-363.14 400.28,-342.46 427.55,-328.67"/>
</a>
</g>
</g>
<!-- I_vineyard -->
<g id="vineyard" class="node">
<title>I_vineyard</title>
<g id="a_vineyard"><a xlink:href="industries.html#vineyard" xlink:title="Vineyard" target="_top">
<polygon fill="white" stroke="none" points="8,-994.5 8,-1235.5 310,-1235.5 310,-994.5 8,-994.5"/>
<polygon fill="none" stroke="#c1cdcd" points="8,-1068 8,-1235 310,-1235 310,-1068 8,-1068"/>
<image xlink:href="static/img/industries/vineyard.png" width="300px" height="165px" preserveAspectRatio="xMinYMin meet" x="9" y="-1234"/>
<polygon fill="none" stroke="#c1cdcd" points="8,-994 8,-1068 310,-1068 310,-994 8,-994"/>
<polygon fill="ghostwhite" stroke="none" points="9,-995 9,-1067 309,-1067 309,-995 9,-995"/>
<text text-anchor="start" x="95.5" y="-1036.4" font-family="sans-serif" font-size="32.00">Vineyard</text>
<text text-anchor="start" x="51.5" y="-1006" font-family="sans-serif" font-size="20.00">Requires Farm Supplies</text>
</a>
</g>
</g>
<!-- I_vineyard&#45;&gt;C_fruits -->
<g id="edge34" class="edge">
<title>I_vineyard&#45;&gt;C_fruits</title>
<g id="a_edge34"><a xlink:title="Vineyard &#45;&gt; Fruit">
<path fill="none" stroke="#004ca8" stroke-width="5" d="M283.82,-1239.39C295.49,-1251.65 307.04,-1264 318,-1276 361.83,-1324.03 410.29,-1382.35 437.9,-1416.12"/>
</a>
</g>
</g>
<!-- I_vineyard&#45;&gt;C_alcohol -->
<g id="edge33" class="edge">
<title>I_vineyard&#45;&gt;C_alcohol</title>
<g id="a_edge33"><a xlink:title="Vineyard &#45;&gt; Alcohol">
<path fill="none" stroke="#a80000" stroke-width="5" d="M317.8,-1031.36C440.13,-974.29 615.76,-909 779,-909 779,-909 779,-909 1117.5,-909 1313.93,-909 1541.39,-909 1682.25,-909"/>
</a>
</g>
</g>
</g>
</svg>
