<?xml version="1.0" encoding="UTF-8" standalone="no"?>
<?xml-stylesheet href="static/css/cargoflow_styles.css" type="text/css"?>
<!DOCTYPE svg PUBLIC "-//W3C//DTD SVG 1.1//EN"
 "http://www.w3.org/Graphics/SVG/1.1/DTD/svg11.dtd">
<!-- Generated by graphviz version 2.44.1 (20200629.0846)
 -->
<!-- Title: tropic_basic Pages: 1 -->
<svg width="2913pt" height="2243pt"
 viewBox="0.00 0.00 2913.00 2242.50" xmlns="http://www.w3.org/2000/svg" xmlns:xlink="http://www.w3.org/1999/xlink">
<g id="page0,1_graph0" class="graph" transform="scale(1 1) rotate(0) translate(4 2238.5)">
<title>tropic_basic</title>
<g id="a_page0,1_graph0"><a xlink:title="Tropic Basic">
<polygon fill="white" stroke="transparent" points="-4,4 -4,-2238.5 2909,-2238.5 2909,4 -4,4"/>
</a>
</g>
<g id="clust7" class="cluster">
<title>cluster_BASIC_TROPIC_1</title>
<g id="a_clust7"><a xlink:title="Tropic Basic">
<polygon fill="none" stroke="white" points="384,-314.5 384,-480.5 527,-480.5 527,-314.5 384,-314.5"/>
</a>
</g>
</g>
<g id="clust5" class="cluster">
<title>cluster_town_industries</title>
<g id="a_clust5"><a xlink:title="Tropic Basic">
<polygon fill="#e0eeee" stroke="#e0eeee" stroke-width="5" points="2563,-1434.5 2563,-2226.5 2897,-2226.5 2897,-1434.5 2563,-1434.5"/>
</a>
</g>
</g>
<g id="clust9" class="cluster">
<title>cluster_BASIC_TROPIC_3</title>
<g id="a_clust9"><a xlink:title="Tropic Basic">
<polygon fill="none" stroke="white" points="1725,-823.5 1725,-1201.5 1863,-1201.5 1863,-823.5 1725,-823.5"/>
</a>
</g>
</g>
<g id="clust6" class="cluster">
<title>cluster_BASIC_TROPIC_0</title>
<g id="a_clust6"><a xlink:title="Tropic Basic">
<polygon fill="none" stroke="white" points="998,-517.5 998,-683.5 1199,-683.5 1199,-517.5 998,-517.5"/>
</a>
</g>
</g>
<g id="clust8" class="cluster">
<title>cluster_BASIC_TROPIC_2</title>
<g id="a_clust8"><a xlink:title="Tropic Basic">
<polygon fill="none" stroke="white" points="394,-1585.5 394,-1751.5 517,-1751.5 517,-1585.5 394,-1585.5"/>
</a>
</g>
</g>
<!-- I_arable_farm -->
<g id="arable_farm" class="node">
<title>I_arable_farm</title>
<g id="a_arable_farm"><a xlink:href="industries.html#arable_farm" xlink:title="Arable Farm" target="_top">
<polygon fill="white" stroke="transparent" points="8,-1775 8,-2016 310,-2016 310,-1775 8,-1775"/>
<polygon fill="none" stroke="#c1cdcd" points="8,-1848.5 8,-2015.5 310,-2015.5 310,-1848.5 8,-1848.5"/>
<image xlink:href="static/img/industries/arable_farm.png" width="300px" height="165px" preserveAspectRatio="xMinYMin meet" x="9" y="-2014.5"/>
<polygon fill="none" stroke="#c1cdcd" points="8,-1774.5 8,-1848.5 310,-1848.5 310,-1774.5 8,-1774.5"/>
<polygon fill="ghostwhite" stroke="transparent" points="9,-1775.5 9,-1847.5 309,-1847.5 309,-1775.5 9,-1775.5"/>
<text text-anchor="start" x="70.5" y="-1816.9" font-family="sans-serif" font-size="32.00">Arable Farm</text>
<text text-anchor="start" x="51.5" y="-1786.5" font-family="sans-serif" font-size="20.00">Requires Farm Supplies</text>
</a>
</g>
</g>
<!-- C_beans -->
<g id="beans" class="node">
<title>C_beans</title>
<g id="a_beans"><a xlink:href="cargos.html#beans" xlink:title="Beans" target="_top">
<polygon fill="#602c03" stroke="#602c03" points="509,-1743 402,-1743 402,-1700 509,-1700 509,-1743"/>
<text text-anchor="middle" x="455.5" y="-1713.4" font-family="sans-serif" font-size="32.00" fill="white">Beans</text>
</a>
</g>
</g>
<!-- I_arable_farm&#45;&gt;C_beans -->
<g id="edge19" class="edge">
<title>I_arable_farm&#45;&gt;C_beans</title>
<g id="a_edge19"><a xlink:title="Arable Farm &#45;&gt; Beans">
<path fill="none" stroke="#602c03" stroke-width="5" d="M318.03,-1802.13C355.55,-1779.96 392.14,-1758.35 417.97,-1743.09"/>
</a>
</g>
</g>
<!-- C_grain -->
<g id="grain" class="node">
<title>C_grain</title>
<g id="a_grain"><a xlink:href="cargos.html#grain" xlink:title="Grain" target="_top">
<polygon fill="#505050" stroke="#505050" points="503,-1917 408,-1917 408,-1874 503,-1874 503,-1917"/>
<text text-anchor="middle" x="455.5" y="-1887.4" font-family="sans-serif" font-size="32.00" fill="white">Grain</text>
</a>
</g>
</g>
<!-- I_arable_farm&#45;&gt;C_grain -->
<g id="edge20" class="edge">
<title>I_arable_farm&#45;&gt;C_grain</title>
<g id="a_edge20"><a xlink:title="Arable Farm &#45;&gt; Grain">
<path fill="none" stroke="#505050" stroke-width="5" d="M318.03,-1895.5C350.91,-1895.5 383.08,-1895.5 407.91,-1895.5"/>
</a>
</g>
</g>
<!-- I_coffee_estate -->
<g id="coffee_estate" class="node">
<title>I_coffee_estate</title>
<g id="a_coffee_estate"><a xlink:href="industries.html#coffee_estate" xlink:title="Coffee Estate" target="_top">
<polygon fill="white" stroke="transparent" points="8,-1151 8,-1392 310,-1392 310,-1151 8,-1151"/>
<polygon fill="none" stroke="#c1cdcd" points="8,-1224.5 8,-1391.5 310,-1391.5 310,-1224.5 8,-1224.5"/>
<image xlink:href="static/img/industries/coffee_estate.png" width="300px" height="165px" preserveAspectRatio="xMinYMin meet" x="9" y="-1390.5"/>
<polygon fill="none" stroke="#c1cdcd" points="8,-1150.5 8,-1224.5 310,-1224.5 310,-1150.5 8,-1150.5"/>
<polygon fill="ghostwhite" stroke="transparent" points="9,-1151.5 9,-1223.5 309,-1223.5 309,-1151.5 9,-1151.5"/>
<text text-anchor="start" x="62" y="-1192.9" font-family="sans-serif" font-size="32.00">Coffee Estate</text>
<text text-anchor="start" x="51.5" y="-1162.5" font-family="sans-serif" font-size="20.00">Requires Farm Supplies</text>
</a>
</g>
</g>
<!-- C_fruits -->
<g id="fruits" class="node">
<title>C_fruits</title>
<g id="a_fruits"><a xlink:href="cargos.html#fruits" xlink:title="Fruit" target="_top">
<polygon fill="#004ca8" stroke="#004ca8" points="495.5,-1637 415.5,-1637 415.5,-1594 495.5,-1594 495.5,-1637"/>
<text text-anchor="middle" x="455.5" y="-1607.4" font-family="sans-serif" font-size="32.00" fill="white">Fruit</text>
</a>
</g>
</g>
<!-- I_coffee_estate&#45;&gt;C_fruits -->
<g id="edge23" class="edge">
<title>I_coffee_estate&#45;&gt;C_fruits</title>
<g id="a_edge23"><a xlink:title="Coffee Estate &#45;&gt; Fruit">
<path fill="none" stroke="#004ca8" stroke-width="5" d="M289.88,-1396.23C299.6,-1406.62 309.08,-1417.12 318,-1427.5 366.9,-1484.4 416.8,-1557.86 440.43,-1593.78"/>
</a>
</g>
</g>
<!-- C_coffee -->
<g id="coffee" class="node">
<title>C_coffee</title>
<g id="a_coffee"><a xlink:href="cargos.html#coffee" xlink:title="Coffee" target="_top">
<polygon fill="#347084" stroke="#347084" points="1849,-1087 1739,-1087 1739,-1044 1849,-1044 1849,-1087"/>
<text text-anchor="middle" x="1794" y="-1057.4" font-family="sans-serif" font-size="32.00" fill="white">Coffee</text>
</a>
</g>
</g>
<!-- I_coffee_estate&#45;&gt;C_coffee -->
<g id="edge22" class="edge">
<title>I_coffee_estate&#45;&gt;C_coffee</title>
<g id="a_edge22"><a xlink:title="Coffee Estate &#45;&gt; Coffee">
<path fill="none" stroke="#347084" stroke-width="5" d="M318.23,-1176.71C338.88,-1166.79 360.12,-1157.71 381,-1150.5 545.37,-1093.72 593.1,-1086.5 767,-1086.5 767,-1086.5 767,-1086.5 1099.5,-1086.5 1337.7,-1086.5 1621.71,-1073.97 1738.62,-1068.27"/>
</a>
</g>
</g>
<!-- I_nitrate_mine -->
<g id="nitrate_mine" class="node">
<title>I_nitrate_mine</title>
<g id="a_nitrate_mine"><a xlink:href="industries.html#nitrate_mine" xlink:title="Nitrate Mine" target="_top">
<polygon fill="white" stroke="transparent" points="8,-316.5 8,-584.5 310,-584.5 310,-316.5 8,-316.5"/>
<polygon fill="none" stroke="#c1cdcd" points="8,-417.5 8,-584.5 310,-584.5 310,-417.5 8,-417.5"/>
<image xlink:href="static/img/industries/nitrate_mine.png" width="300px" height="165px" preserveAspectRatio="xMinYMin meet" x="9" y="-583.5"/>
<polygon fill="none" stroke="#c1cdcd" points="8,-316.5 8,-417.5 310,-417.5 310,-316.5 8,-316.5"/>
<polygon fill="ghostwhite" stroke="transparent" points="9,-317.5 9,-416.5 309,-416.5 309,-317.5 9,-317.5"/>
<text text-anchor="start" x="72" y="-385.9" font-family="sans-serif" font-size="32.00">Nitrate Mine</text>
<text text-anchor="start" x="20.5" y="-355.5" font-family="sans-serif" font-size="20.00">Requires Engineering Supplies</text>
<text text-anchor="start" x="49" y="-328.5" font-family="sans-serif" font-size="20.00">Produces Farm Supplies</text>
</a>
</g>
</g>
<!-- C_nitrates -->
<g id="nitrates" class="node">
<title>C_nitrates</title>
<g id="a_nitrates"><a xlink:href="cargos.html#nitrates" xlink:title="Nitrates" target="_top">
<polygon fill="#a85050" stroke="#a85050" points="519,-472 392,-472 392,-429 519,-429 519,-472"/>
<text text-anchor="middle" x="455.5" y="-442.4" font-family="sans-serif" font-size="32.00" fill="white">Nitrates</text>
</a>
</g>
</g>
<!-- I_nitrate_mine&#45;&gt;C_nitrates -->
<g id="edge30" class="edge">
<title>I_nitrate_mine&#45;&gt;C_nitrates</title>
<g id="a_edge30"><a xlink:title="Nitrate Mine &#45;&gt; Nitrates">
<path fill="none" stroke="#a85050" stroke-width="5" d="M318.03,-450.5C344.22,-450.5 369.97,-450.5 391.91,-450.5"/>
</a>
</g>
</g>
<!-- I_ranch -->
<g id="ranch" class="node">
<title>I_ranch</title>
<g id="a_ranch"><a xlink:href="industries.html#ranch" xlink:title="Ranch" target="_top">
<polygon fill="white" stroke="transparent" points="8,-839 8,-1080 310,-1080 310,-839 8,-839"/>
<polygon fill="none" stroke="#c1cdcd" points="8,-912.5 8,-1079.5 310,-1079.5 310,-912.5 8,-912.5"/>
<image xlink:href="static/img/industries/ranch.png" width="300px" height="165px" preserveAspectRatio="xMinYMin meet" x="9" y="-1078.5"/>
<polygon fill="none" stroke="#c1cdcd" points="8,-838.5 8,-912.5 310,-912.5 310,-838.5 8,-838.5"/>
<polygon fill="ghostwhite" stroke="transparent" points="9,-839.5 9,-911.5 309,-911.5 309,-839.5 9,-839.5"/>
<text text-anchor="start" x="112" y="-880.9" font-family="sans-serif" font-size="32.00">Ranch</text>
<text text-anchor="start" x="51.5" y="-850.5" font-family="sans-serif" font-size="20.00">Requires Farm Supplies</text>
</a>
</g>
</g>
<!-- C_wool -->
<g id="wool" class="node">
<title>C_wool</title>
<g id="a_wool"><a xlink:href="cargos.html#wool" xlink:title="Wool" target="_top">
<polygon fill="#a8926d" stroke="#a8926d" points="1838.5,-981 1749.5,-981 1749.5,-938 1838.5,-938 1838.5,-981"/>
<text text-anchor="middle" x="1794" y="-951.4" font-family="sans-serif" font-size="32.00" fill="white">Wool</text>
</a>
</g>
</g>
<!-- I_ranch&#45;&gt;C_wool -->
<g id="edge34" class="edge">
<title>I_ranch&#45;&gt;C_wool</title>
<g id="a_edge34"><a xlink:title="Ranch &#45;&gt; Wool">
<path fill="none" stroke="#a8926d" stroke-width="5" d="M318.16,-959.5C440.66,-959.5 614.59,-959.5 767,-959.5 767,-959.5 767,-959.5 1099.5,-959.5 1345.11,-959.5 1639.66,-959.5 1749.19,-959.5"/>
</a>
</g>
</g>
<!-- C_livestock -->
<g id="livestock" class="node">
<title>C_livestock</title>
<g id="a_livestock"><a xlink:href="cargos.html#livestock" xlink:title="Livestock" target="_top">
<polygon fill="#468fa8" stroke="#468fa8" points="530,-1225 381,-1225 381,-1182 530,-1182 530,-1225"/>
<text text-anchor="middle" x="455.5" y="-1195.4" font-family="sans-serif" font-size="32.00" fill="white">Livestock</text>
</a>
</g>
</g>
<!-- I_ranch&#45;&gt;C_livestock -->
<g id="edge33" class="edge">
<title>I_ranch&#45;&gt;C_livestock</title>
<g id="a_edge33"><a xlink:title="Ranch &#45;&gt; Livestock">
<path fill="none" stroke="#468fa8" stroke-width="5" d="M310.27,-1084C355.93,-1121.83 401.21,-1159.34 428.52,-1181.97"/>
</a>
</g>
</g>
<!-- I_flour_mill -->
<g id="flour_mill" class="node">
<title>I_flour_mill</title>
<g id="a_flour_mill"><a xlink:href="industries.html#flour_mill" xlink:title="Flour Mill" target="_top">
<polygon fill="white" stroke="transparent" points="617,-1882.5 617,-2096.5 919,-2096.5 919,-1882.5 617,-1882.5"/>
<polygon fill="none" stroke="#c1cdcd" points="617,-1929.5 617,-2096.5 919,-2096.5 919,-1929.5 617,-1929.5"/>
<image xlink:href="static/img/industries/flour_mill.png" width="300px" height="165px" preserveAspectRatio="xMinYMin meet" x="618" y="-2095.5"/>
<polygon fill="none" stroke="#c1cdcd" points="617,-1882.5 617,-1929.5 919,-1929.5 919,-1882.5 617,-1882.5"/>
<polygon fill="ghostwhite" stroke="transparent" points="618,-1883.5 618,-1928.5 918,-1928.5 918,-1883.5 618,-1883.5"/>
<text text-anchor="start" x="703" y="-1897.9" font-family="sans-serif" font-size="32.00">Flour Mill</text>
</a>
</g>
</g>
<!-- C_food -->
<g id="food" class="node">
<title>C_food</title>
<g id="a_food"><a xlink:href="cargos.html#food" xlink:title="Food" target="_top">
<polygon fill="#a84800" stroke="#a84800" points="2220,-1331 2130,-1331 2130,-1288 2220,-1288 2220,-1331"/>
<text text-anchor="middle" x="2175" y="-1301.4" font-family="sans-serif" font-size="32.00" fill="white">Food</text>
</a>
</g>
</g>
<!-- I_flour_mill&#45;&gt;C_food -->
<g id="edge28" class="edge">
<title>I_flour_mill&#45;&gt;C_food</title>
<g id="a_edge28"><a xlink:title="Flour Mill &#45;&gt; Food">
<path fill="none" stroke="#a84800" stroke-width="5" d="M927.47,-1945.64C1162.99,-1876.18 1614.02,-1726.43 1953,-1512.5 2037.59,-1459.11 2119.61,-1371.62 2155.33,-1331.21"/>
</a>
</g>
</g>
<!-- I_food_processor -->
<g id="food_processor" class="node">
<title>I_food_processor</title>
<g id="a_food_processor"><a xlink:href="industries.html#food_processor" xlink:title="Food Processing Plant" target="_top">
<polygon fill="white" stroke="transparent" points="601,-1597.5 601,-1811.5 935,-1811.5 935,-1597.5 601,-1597.5"/>
<polygon fill="none" stroke="#c1cdcd" points="601,-1644.5 601,-1811.5 935,-1811.5 935,-1644.5 601,-1644.5"/>
<image xlink:href="static/img/industries/food_processor.png" width="332px" height="165px" preserveAspectRatio="xMinYMin meet" x="602" y="-1810.5"/>
<polygon fill="none" stroke="#c1cdcd" points="601,-1597.5 601,-1644.5 935,-1644.5 935,-1597.5 601,-1597.5"/>
<polygon fill="ghostwhite" stroke="transparent" points="602,-1598.5 602,-1643.5 934,-1643.5 934,-1598.5 602,-1598.5"/>
<text text-anchor="start" x="607" y="-1612.9" font-family="sans-serif" font-size="32.00">Food Processing Plant</text>
</a>
</g>
</g>
<!-- I_food_processor&#45;&gt;C_food -->
<g id="edge29" class="edge">
<title>I_food_processor&#45;&gt;C_food</title>
<g id="a_edge29"><a xlink:title="Food Processing Plant &#45;&gt; Food">
<path fill="none" stroke="#a84800" stroke-width="5" d="M943.06,-1679.22C1107.17,-1653.24 1359.04,-1607.79 1572,-1545.5 1786.41,-1482.79 2031.25,-1374.97 2129.65,-1330.06"/>
</a>
</g>
</g>
<!-- I_stockyard -->
<g id="stockyard" class="node">
<title>I_stockyard</title>
<g id="a_stockyard"><a xlink:href="industries.html#stockyard" xlink:title="Stockyard" target="_top">
<polygon fill="white" stroke="transparent" points="617,-1185.5 617,-1399.5 919,-1399.5 919,-1185.5 617,-1185.5"/>
<polygon fill="none" stroke="#c1cdcd" points="617,-1232.5 617,-1399.5 919,-1399.5 919,-1232.5 617,-1232.5"/>
<image xlink:href="static/img/industries/stockyard.png" width="300px" height="165px" preserveAspectRatio="xMinYMin meet" x="618" y="-1398.5"/>
<polygon fill="none" stroke="#c1cdcd" points="617,-1185.5 617,-1232.5 919,-1232.5 919,-1185.5 617,-1185.5"/>
<polygon fill="ghostwhite" stroke="transparent" points="618,-1186.5 618,-1231.5 918,-1231.5 918,-1186.5 618,-1186.5"/>
<text text-anchor="start" x="697" y="-1200.9" font-family="sans-serif" font-size="32.00">Stockyard</text>
</a>
</g>
</g>
<!-- I_stockyard&#45;&gt;C_food -->
<g id="edge35" class="edge">
<title>I_stockyard&#45;&gt;C_food</title>
<g id="a_edge35"><a xlink:title="Stockyard &#45;&gt; Food">
<path fill="none" stroke="#a84800" stroke-width="5" d="M927.1,-1294.41C1245.03,-1298.26 1947,-1306.75 2129.79,-1308.97"/>
</a>
</g>
</g>
<!-- C_fish -->
<g id="fish" class="node">
<title>C_fish</title>
<g id="a_fish"><a xlink:href="cargos.html#fish" xlink:title="Fish" target="_top">
<polygon fill="#882034" stroke="#882034" points="2213.5,-1915 2136.5,-1915 2136.5,-1872 2213.5,-1872 2213.5,-1915"/>
<text text-anchor="middle" x="2175" y="-1885.4" font-family="sans-serif" font-size="32.00" fill="white">Fish</text>
</a>
</g>
</g>
<!-- I_fishing_harbour -->
<g id="fishing_harbour" class="node">
<title>I_fishing_harbour</title>
<g id="a_fishing_harbour"><a xlink:href="industries.html#fishing_harbour" xlink:title="Fishing Harbour" target="_top">
<polygon fill="white" stroke="transparent" points="2024,-1526.5 2024,-1740.5 2326,-1740.5 2326,-1526.5 2024,-1526.5"/>
<polygon fill="none" stroke="#c1cdcd" points="2024,-1573.5 2024,-1740.5 2326,-1740.5 2326,-1573.5 2024,-1573.5"/>
<image xlink:href="static/img/industries/fishing_harbour.png" width="300px" height="165px" preserveAspectRatio="xMinYMin meet" x="2025" y="-1739.5"/>
<polygon fill="none" stroke="#c1cdcd" points="2024,-1526.5 2024,-1573.5 2326,-1573.5 2326,-1526.5 2024,-1526.5"/>
<polygon fill="ghostwhite" stroke="transparent" points="2025,-1527.5 2025,-1572.5 2325,-1572.5 2325,-1527.5 2025,-1527.5"/>
<text text-anchor="start" x="2060.5" y="-1541.9" font-family="sans-serif" font-size="32.00">Fishing Harbour</text>
</a>
</g>
</g>
<!-- C_fish&#45;&gt;I_fishing_harbour -->
<g id="edge9" class="edge">
<title>C_fish&#45;&gt;I_fishing_harbour</title>
<g id="a_edge9"><a xlink:title="Fish &#45;&gt; Fishing Harbour">
<path fill="none" stroke="#882034" stroke-width="5" d="M2175,-1872C2175,-1836.36 2175,-1800.73 2175,-1765.1"/>
<polygon fill="#882034" stroke="#882034" stroke-width="5" points="2183.75,-1764.71 2175,-1744.71 2166.25,-1764.71 2183.75,-1764.71"/>
</a>
</g>
</g>
<!-- I_port -->
<g id="port" class="node">
<title>I_port</title>
<g id="a_port"><a xlink:href="industries.html#port" xlink:title="Port" target="_top">
<polygon fill="white" stroke="transparent" points="2024,-825.5 2024,-1093.5 2326,-1093.5 2326,-825.5 2024,-825.5"/>
<polygon fill="none" stroke="#c1cdcd" points="2024,-926.5 2024,-1093.5 2326,-1093.5 2326,-926.5 2024,-926.5"/>
<image xlink:href="static/img/industries/port.png" width="300px" height="165px" preserveAspectRatio="xMinYMin meet" x="2025" y="-1092.5"/>
<polygon fill="none" stroke="#c1cdcd" points="2024,-825.5 2024,-926.5 2326,-926.5 2326,-825.5 2024,-825.5"/>
<polygon fill="ghostwhite" stroke="transparent" points="2025,-826.5 2025,-925.5 2325,-925.5 2325,-826.5 2025,-826.5"/>
<text text-anchor="start" x="2145.5" y="-894.9" font-family="sans-serif" font-size="32.00">Port</text>
<text text-anchor="start" x="2034.5" y="-864.5" font-family="sans-serif" font-size="20.00">Produces Engineering Supplies</text>
<text text-anchor="start" x="2065" y="-837.5" font-family="sans-serif" font-size="20.00">Produces Farm Supplies</text>
</a>
</g>
</g>
<!-- C_food&#45;&gt;I_port -->
<g id="edge10" class="edge">
<title>C_food&#45;&gt;I_port</title>
<g id="a_edge10"><a xlink:title="Food &#45;&gt; Port">
<path fill="none" stroke="#a84800" stroke-width="5" d="M2175,-1287.98C2175,-1231.21 2175,-1174.44 2175,-1117.67"/>
<polygon fill="#a84800" stroke="#a84800" stroke-width="5" points="2183.75,-1117.59 2175,-1097.59 2166.25,-1117.59 2183.75,-1117.59"/>
</a>
</g>
</g>
<!-- T_towns_food -->
<g id="node13" class="node">
<title>T_towns_food</title>
<polygon fill="none" stroke="#a84800" stroke-width="5" stroke-dasharray="5,2" points="2799.5,-1380 2660.5,-1380 2660.5,-1297 2799.5,-1297 2799.5,-1380"/>
<text text-anchor="middle" x="2730" y="-1330.4" font-family="sans-serif" font-size="32.00" fill="#a84800">Towns</text>
</g>
<!-- C_food&#45;&gt;T_towns_food -->
<g id="edge11" class="edge">
<title>C_food&#45;&gt;T_towns_food</title>
<path fill="none" stroke="#a84800" stroke-width="5" stroke-dasharray="5,2" d="M2220.32,-1311.82C2311.2,-1316.59 2520.19,-1327.55 2640.1,-1333.84"/>
<polygon fill="#a84800" stroke="#a84800" stroke-width="5" points="2639.9,-1342.59 2660.33,-1334.9 2640.82,-1325.11 2639.9,-1342.59"/>
</g>
<!-- I_fishing_harbour&#45;&gt;C_food -->
<g id="edge27" class="edge">
<title>I_fishing_harbour&#45;&gt;C_food</title>
<g id="a_edge27"><a xlink:title="Fishing Harbour &#45;&gt; Food">
<path fill="none" stroke="#a84800" stroke-width="5" d="M2175,-1522.43C2175,-1458.63 2175,-1394.82 2175,-1331.02"/>
</a>
</g>
</g>
<!-- C_goods -->
<g id="goods" class="node">
<title>C_goods</title>
<g id="a_goods"><a xlink:href="cargos.html#goods" xlink:title="Goods" target="_top">
<polygon fill="#a84b60" stroke="#a84b60" points="2508,-981 2397,-981 2397,-938 2508,-938 2508,-981"/>
<text text-anchor="middle" x="2452.5" y="-951.4" font-family="sans-serif" font-size="32.00" fill="white">Goods</text>
</a>
</g>
</g>
<!-- I_port&#45;&gt;C_goods -->
<g id="edge32" class="edge">
<title>I_port&#45;&gt;C_goods</title>
<g id="a_edge32"><a xlink:title="Port &#45;&gt; Goods">
<path fill="none" stroke="#a84b60" stroke-width="5" d="M2334.26,-959.5C2356.69,-959.5 2378.37,-959.5 2396.86,-959.5"/>
</a>
</g>
</g>
<!-- T_towns_alcohol -->
<g id="node12" class="node">
<title>T_towns_alcohol</title>
<polygon fill="none" stroke="#a80000" stroke-width="5" stroke-dasharray="5,2" points="2799.5,-1234 2660.5,-1234 2660.5,-1151 2799.5,-1151 2799.5,-1234"/>
<text text-anchor="middle" x="2730" y="-1184.4" font-family="sans-serif" font-size="32.00" fill="#a80000">Towns</text>
</g>
<!-- T_towns_goods -->
<g id="node14" class="node">
<title>T_towns_goods</title>
<polygon fill="none" stroke="#a84b60" stroke-width="5" stroke-dasharray="5,2" points="2799.5,-1001 2660.5,-1001 2660.5,-918 2799.5,-918 2799.5,-1001"/>
<text text-anchor="middle" x="2730" y="-951.4" font-family="sans-serif" font-size="32.00" fill="#a84b60">Towns</text>
</g>
<!-- T_town_industries -->
<g id="node15" class="node">
<title>T_town_industries</title>
<text text-anchor="middle" x="2730" y="-2188.4" font-family="sans-serif" font-size="32.00">Town Industries</text>
</g>
<!-- I_general_store -->
<g id="general_store" class="node">
<title>I_general_store</title>
<g id="a_general_store"><a xlink:href="industries.html#general_store" xlink:title="General Store" target="_top">
<polygon fill="white" stroke="transparent" points="2579,-1813 2579,-2108 2881,-2108 2881,-1813 2579,-1813"/>
<polygon fill="none" stroke="#c1cdcd" points="2579,-1940.5 2579,-2107.5 2881,-2107.5 2881,-1940.5 2579,-1940.5"/>
<image xlink:href="static/img/industries/general_store.png" width="300px" height="165px" preserveAspectRatio="xMinYMin meet" x="2580" y="-2106.5"/>
<polygon fill="none" stroke="#c1cdcd" points="2579,-1812.5 2579,-1940.5 2881,-1940.5 2881,-1812.5 2579,-1812.5"/>
<polygon fill="ghostwhite" stroke="transparent" points="2580,-1813.5 2580,-1939.5 2880,-1939.5 2880,-1813.5 2580,-1813.5"/>
<text text-anchor="start" x="2630" y="-1908.9" font-family="sans-serif" font-size="32.00">General Store</text>
<text text-anchor="start" x="2654.5" y="-1878.5" font-family="sans-serif" font-size="20.00">Requires Alcohol</text>
<text text-anchor="start" x="2664" y="-1851.5" font-family="sans-serif" font-size="20.00">Requires Food</text>
<text text-anchor="start" x="2657.5" y="-1824.5" font-family="sans-serif" font-size="20.00">Requires Goods</text>
</a>
</g>
</g>
<!-- I_hotel -->
<g id="hotel" class="node">
<title>I_hotel</title>
<g id="a_hotel"><a xlink:href="industries.html#hotel" xlink:title="Hotel" target="_top">
<polygon fill="white" stroke="transparent" points="2579,-1447 2579,-1742 2881,-1742 2881,-1447 2579,-1447"/>
<polygon fill="none" stroke="#c1cdcd" points="2579,-1574.5 2579,-1741.5 2881,-1741.5 2881,-1574.5 2579,-1574.5"/>
<image xlink:href="static/img/industries/hotel.png" width="300px" height="165px" preserveAspectRatio="xMinYMin meet" x="2580" y="-1740.5"/>
<polygon fill="none" stroke="#c1cdcd" points="2579,-1446.5 2579,-1574.5 2881,-1574.5 2881,-1446.5 2579,-1446.5"/>
<polygon fill="ghostwhite" stroke="transparent" points="2580,-1447.5 2580,-1573.5 2880,-1573.5 2880,-1447.5 2580,-1447.5"/>
<text text-anchor="start" x="2692" y="-1542.9" font-family="sans-serif" font-size="32.00">Hotel</text>
<text text-anchor="start" x="2654.5" y="-1512.5" font-family="sans-serif" font-size="20.00">Requires Alcohol</text>
<text text-anchor="start" x="2664" y="-1485.5" font-family="sans-serif" font-size="20.00">Requires Food</text>
<text text-anchor="start" x="2634" y="-1458.5" font-family="sans-serif" font-size="20.00">Requires Passengers</text>
</a>
</g>
</g>
<!-- C_chemicals -->
<g id="chemicals" class="node">
<title>C_chemicals</title>
<g id="a_chemicals"><a xlink:href="cargos.html#chemicals" xlink:title="Chemicals" target="_top">
<polygon fill="#a86052" stroke="#a86052" points="1181.5,-569 1015.5,-569 1015.5,-526 1181.5,-526 1181.5,-569"/>
<text text-anchor="middle" x="1098.5" y="-539.4" font-family="sans-serif" font-size="32.00" fill="white">Chemicals</text>
</a>
</g>
</g>
<!-- C_chemicals&#45;&gt;I_port -->
<g id="edge5" class="edge">
<title>C_chemicals&#45;&gt;I_port</title>
<g id="a_edge5"><a xlink:title="Chemicals &#45;&gt; Port">
<path fill="none" stroke="#a86052" stroke-width="5" d="M1181.62,-549.87C1277.36,-554.58 1439.42,-568.63 1572,-610.5 1753.97,-667.97 1789.25,-710.49 1953,-808.5 1967.99,-817.47 1983.35,-827.07 1998.64,-836.91"/>
<polygon fill="#a86052" stroke="#a86052" stroke-width="5" points="1994.31,-844.53 2015.85,-848.1 2003.85,-829.86 1994.31,-844.53"/>
</a>
</g>
</g>
<!-- I_copper_refinery -->
<g id="copper_refinery" class="node">
<title>I_copper_refinery</title>
<g id="a_copper_refinery"><a xlink:href="industries.html#copper_refinery" xlink:title="Copper Smelter" target="_top">
<polygon fill="white" stroke="transparent" points="1262,-646.5 1262,-860.5 1564,-860.5 1564,-646.5 1262,-646.5"/>
<polygon fill="none" stroke="#c1cdcd" points="1262,-693.5 1262,-860.5 1564,-860.5 1564,-693.5 1262,-693.5"/>
<image xlink:href="static/img/industries/copper_refinery.png" width="300px" height="165px" preserveAspectRatio="xMinYMin meet" x="1263" y="-859.5"/>
<polygon fill="none" stroke="#c1cdcd" points="1262,-646.5 1262,-693.5 1564,-693.5 1564,-646.5 1262,-646.5"/>
<polygon fill="ghostwhite" stroke="transparent" points="1263,-647.5 1263,-692.5 1563,-692.5 1563,-647.5 1263,-647.5"/>
<text text-anchor="start" x="1300" y="-661.9" font-family="sans-serif" font-size="32.00">Copper Smelter</text>
</a>
</g>
</g>
<!-- C_chemicals&#45;&gt;I_copper_refinery -->
<g id="edge4" class="edge">
<title>C_chemicals&#45;&gt;I_copper_refinery</title>
<g id="a_edge4"><a xlink:title="Chemicals &#45;&gt; Copper Smelter">
<path fill="none" stroke="#a86052" stroke-width="5" d="M1143.31,-569.23C1160.91,-578.37 1181.21,-589.44 1199,-600.5 1214.41,-610.08 1230.17,-620.38 1245.82,-630.95"/>
<polygon fill="#a86052" stroke="#a86052" stroke-width="5" points="1241.28,-638.44 1262.73,-642.5 1251.15,-623.99 1241.28,-638.44"/>
</a>
</g>
</g>
<!-- C_copper_ore -->
<g id="copper_ore" class="node">
<title>C_copper_ore</title>
<g id="a_copper_ore"><a xlink:href="cargos.html#copper_ore" xlink:title="Copper Ore" target="_top">
<polygon fill="#5d45a8" stroke="#5d45a8" points="1191,-675 1006,-675 1006,-632 1191,-632 1191,-675"/>
<text text-anchor="middle" x="1098.5" y="-645.4" font-family="sans-serif" font-size="32.00" fill="white">Copper Ore</text>
</a>
</g>
</g>
<!-- C_copper_ore&#45;&gt;I_copper_refinery -->
<g id="edge8" class="edge">
<title>C_copper_ore&#45;&gt;I_copper_refinery</title>
<g id="a_edge8"><a xlink:title="Copper Ore &#45;&gt; Copper Smelter">
<path fill="none" stroke="#5d45a8" stroke-width="5" d="M1166.92,-675.08C1187.24,-681.58 1210.56,-689.04 1234.55,-696.72"/>
<polygon fill="#5d45a8" stroke="#5d45a8" stroke-width="5" points="1232.18,-705.15 1253.9,-702.91 1237.52,-688.48 1232.18,-705.15"/>
</a>
</g>
</g>
<!-- I_chemical_plant -->
<g id="chemical_plant" class="node">
<title>I_chemical_plant</title>
<g id="a_chemical_plant"><a xlink:href="industries.html#chemical_plant" xlink:title="Chemical Plant" target="_top">
<polygon fill="white" stroke="transparent" points="617,-290.5 617,-504.5 919,-504.5 919,-290.5 617,-290.5"/>
<polygon fill="none" stroke="#c1cdcd" points="617,-337.5 617,-504.5 919,-504.5 919,-337.5 617,-337.5"/>
<image xlink:href="static/img/industries/chemical_plant.png" width="300px" height="165px" preserveAspectRatio="xMinYMin meet" x="618" y="-503.5"/>
<polygon fill="none" stroke="#c1cdcd" points="617,-290.5 617,-337.5 919,-337.5 919,-290.5 617,-290.5"/>
<polygon fill="ghostwhite" stroke="transparent" points="618,-291.5 618,-336.5 918,-336.5 918,-291.5 618,-291.5"/>
<text text-anchor="start" x="660" y="-305.9" font-family="sans-serif" font-size="32.00">Chemical Plant</text>
</a>
</g>
</g>
<!-- C_nitrates&#45;&gt;I_chemical_plant -->
<g id="edge16" class="edge">
<title>C_nitrates&#45;&gt;I_chemical_plant</title>
<g id="a_edge16"><a xlink:title="Nitrates &#45;&gt; Chemical Plant">
<path fill="none" stroke="#a85050" stroke-width="5" d="M519.33,-439.77C539.96,-436.25 564,-432.15 588.85,-427.91"/>
<polygon fill="#a85050" stroke="#a85050" stroke-width="5" points="590.65,-436.48 608.9,-424.49 587.71,-419.23 590.65,-436.48"/>
</a>
</g>
</g>
<!-- C_oil -->
<g id="oil" class="node">
<title>C_oil</title>
<g id="a_oil"><a xlink:href="cargos.html#oil" xlink:title="Oil" target="_top">
<polygon fill="#7d70a8" stroke="#7d70a8" points="483,-366 428,-366 428,-323 483,-323 483,-366"/>
<text text-anchor="middle" x="455.5" y="-336.4" font-family="sans-serif" font-size="32.00" fill="white">Oil</text>
</a>
</g>
</g>
<!-- C_oil&#45;&gt;I_chemical_plant -->
<g id="edge17" class="edge">
<title>C_oil&#45;&gt;I_chemical_plant</title>
<g id="a_edge17"><a xlink:title="Oil &#45;&gt; Chemical Plant">
<path fill="none" stroke="#7d70a8" stroke-width="5" d="M483.24,-349.06C508.07,-353.3 547.36,-360.01 588.88,-367.1"/>
<polygon fill="#7d70a8" stroke="#7d70a8" stroke-width="5" points="587.54,-375.74 608.73,-370.48 590.49,-358.49 587.54,-375.74"/>
</a>
</g>
</g>
<!-- C_beans&#45;&gt;I_food_processor -->
<g id="edge3" class="edge">
<title>C_beans&#45;&gt;I_food_processor</title>
<g id="a_edge3"><a xlink:title="Beans &#45;&gt; Food Processing Plant">
<path fill="none" stroke="#602c03" stroke-width="5" d="M509.17,-1718.62C527.6,-1717.61 549.51,-1716.41 572.67,-1715.14"/>
<polygon fill="#602c03" stroke="#602c03" stroke-width="5" points="573.33,-1723.87 592.82,-1714.04 572.37,-1706.39 573.33,-1723.87"/>
</a>
</g>
</g>
<!-- C_fruits&#45;&gt;I_food_processor -->
<g id="edge12" class="edge">
<title>C_fruits&#45;&gt;I_food_processor</title>
<g id="a_edge12"><a xlink:title="Fruit &#45;&gt; Food Processing Plant">
<path fill="none" stroke="#004ca8" stroke-width="5" d="M495.51,-1626.68C516.42,-1632.68 543.91,-1640.56 573.37,-1649"/>
<polygon fill="#004ca8" stroke="#004ca8" stroke-width="5" points="571.33,-1657.52 592.97,-1654.62 576.15,-1640.69 571.33,-1657.52"/>
</a>
</g>
</g>
<!-- C_alcohol -->
<g id="alcohol" class="node">
<title>C_alcohol</title>
<g id="a_alcohol"><a xlink:href="cargos.html#alcohol" xlink:title="Alcohol" target="_top">
<polygon fill="#a80000" stroke="#a80000" points="1854.5,-1193 1733.5,-1193 1733.5,-1150 1854.5,-1150 1854.5,-1193"/>
<text text-anchor="middle" x="1794" y="-1163.4" font-family="sans-serif" font-size="32.00" fill="white">Alcohol</text>
</a>
</g>
</g>
<!-- C_alcohol&#45;&gt;I_port -->
<g id="edge1" class="edge">
<title>C_alcohol&#45;&gt;I_port</title>
<g id="a_edge1"><a xlink:title="Alcohol &#45;&gt; Port">
<path fill="none" stroke="#a80000" stroke-width="5" d="M1854.86,-1156.04C1885.15,-1147.08 1921.97,-1134.4 1953,-1118.5 1968.28,-1110.67 1983.67,-1101.86 1998.84,-1092.5"/>
<polygon fill="#a80000" stroke="#a80000" stroke-width="5" points="2003.64,-1099.82 2015.85,-1081.73 1994.27,-1085.04 2003.64,-1099.82"/>
</a>
</g>
</g>
<!-- C_alcohol&#45;&gt;T_towns_alcohol -->
<g id="edge2" class="edge">
<title>C_alcohol&#45;&gt;T_towns_alcohol</title>
<path fill="none" stroke="#a80000" stroke-width="5" stroke-dasharray="5,2" d="M1854.85,-1172.85C2014.54,-1176.44 2451.41,-1186.26 2640.18,-1190.5"/>
<polygon fill="#a80000" stroke="#a80000" stroke-width="5" points="2640.14,-1199.25 2660.33,-1190.96 2640.53,-1181.76 2640.14,-1199.25"/>
</g>
<!-- C_coffee&#45;&gt;I_port -->
<g id="edge6" class="edge">
<title>C_coffee&#45;&gt;I_port</title>
<g id="a_edge6"><a xlink:title="Coffee &#45;&gt; Port">
<path fill="none" stroke="#347084" stroke-width="5" d="M1849.3,-1050.31C1888.13,-1039.45 1942.76,-1024.17 1996.15,-1009.24"/>
<polygon fill="#347084" stroke="#347084" stroke-width="5" points="1998.83,-1017.58 2015.74,-1003.76 1994.12,-1000.72 1998.83,-1017.58"/>
</a>
</g>
</g>
<!-- C_copper -->
<g id="copper" class="node">
<title>C_copper</title>
<g id="a_copper"><a xlink:href="cargos.html#copper" xlink:title="Copper" target="_top">
<polygon fill="#a89a28" stroke="#a89a28" points="1855,-875 1733,-875 1733,-832 1855,-832 1855,-875"/>
<text text-anchor="middle" x="1794" y="-845.4" font-family="sans-serif" font-size="32.00" fill="white">Copper</text>
</a>
</g>
</g>
<!-- C_copper&#45;&gt;I_port -->
<g id="edge7" class="edge">
<title>C_copper&#45;&gt;I_port</title>
<g id="a_edge7"><a xlink:title="Copper &#45;&gt; Port">
<path fill="none" stroke="#a89a28" stroke-width="5" d="M1855.05,-870.3C1893.46,-881.04 1945.45,-895.58 1996.3,-909.8"/>
<polygon fill="#a89a28" stroke="#a89a28" stroke-width="5" points="1994.09,-918.27 2015.71,-915.23 1998.8,-901.41 1994.09,-918.27"/>
</a>
</g>
</g>
<!-- C_wool&#45;&gt;I_port -->
<g id="edge18" class="edge">
<title>C_wool&#45;&gt;I_port</title>
<g id="a_edge18"><a xlink:title="Wool &#45;&gt; Port">
<path fill="none" stroke="#a8926d" stroke-width="5" d="M1838.85,-959.5C1877.8,-959.5 1937.43,-959.5 1995.65,-959.5"/>
<polygon fill="#a8926d" stroke="#a8926d" stroke-width="5" points="1995.73,-968.25 2015.73,-959.5 1995.73,-950.75 1995.73,-968.25"/>
</a>
</g>
</g>
<!-- I_copper_refinery&#45;&gt;C_copper -->
<g id="edge25" class="edge">
<title>I_copper_refinery&#45;&gt;C_copper</title>
<g id="a_edge25"><a xlink:title="Copper Smelter &#45;&gt; Copper">
<path fill="none" stroke="#a89a28" stroke-width="5" d="M1572.26,-795.26C1628.89,-810.2 1689.35,-826.15 1732.65,-837.58"/>
</a>
</g>
</g>
<!-- C_goods&#45;&gt;T_towns_goods -->
<g id="edge13" class="edge">
<title>C_goods&#45;&gt;T_towns_goods</title>
<path fill="none" stroke="#a84b60" stroke-width="5" stroke-dasharray="5,2" d="M2508.26,-959.5C2545.9,-959.5 2596.73,-959.5 2640.12,-959.5"/>
<polygon fill="#a84b60" stroke="#a84b60" stroke-width="5" points="2640.41,-968.25 2660.41,-959.5 2640.41,-950.75 2640.41,-968.25"/>
</g>
<!-- C_grain&#45;&gt;I_flour_mill -->
<g id="edge14" class="edge">
<title>C_grain&#45;&gt;I_flour_mill</title>
<g id="a_edge14"><a xlink:title="Grain &#45;&gt; Flour Mill">
<path fill="none" stroke="#505050" stroke-width="5" d="M503.32,-1909.67C527.07,-1916.87 557.59,-1926.1 589.38,-1935.73"/>
<polygon fill="#505050" stroke="#505050" stroke-width="5" points="587.07,-1944.17 608.75,-1941.59 592.14,-1927.42 587.07,-1944.17"/>
</a>
</g>
</g>
<!-- C_livestock&#45;&gt;I_stockyard -->
<g id="edge15" class="edge">
<title>C_livestock&#45;&gt;I_stockyard</title>
<g id="a_edge15"><a xlink:title="Livestock &#45;&gt; Stockyard">
<path fill="none" stroke="#468fa8" stroke-width="5" d="M530.08,-1224.59C548.35,-1229.83 568.71,-1235.66 589.63,-1241.66"/>
<polygon fill="#468fa8" stroke="#468fa8" stroke-width="5" points="587.31,-1250.1 608.95,-1247.2 592.13,-1233.27 587.31,-1250.1"/>
</a>
</g>
</g>
<!-- I_chemical_plant&#45;&gt;C_chemicals -->
<g id="edge21" class="edge">
<title>I_chemical_plant&#45;&gt;C_chemicals</title>
<g id="a_edge21"><a xlink:title="Chemical Plant &#45;&gt; Chemicals">
<path fill="none" stroke="#a86052" stroke-width="5" d="M927.48,-469.86C972.27,-490.32 1017.63,-511.03 1050.22,-525.91"/>
</a>
</g>
</g>
<!-- I_copper_mine -->
<g id="copper_mine" class="node">
<title>I_copper_mine</title>
<g id="a_copper_mine"><a xlink:href="industries.html#copper_mine" xlink:title="Copper Mine" target="_top">
<polygon fill="white" stroke="transparent" points="617,-576 617,-817 919,-817 919,-576 617,-576"/>
<polygon fill="none" stroke="#c1cdcd" points="617,-649.5 617,-816.5 919,-816.5 919,-649.5 617,-649.5"/>
<image xlink:href="static/img/industries/copper_mine.png" width="300px" height="165px" preserveAspectRatio="xMinYMin meet" x="618" y="-815.5"/>
<polygon fill="none" stroke="#c1cdcd" points="617,-575.5 617,-649.5 919,-649.5 919,-575.5 617,-575.5"/>
<polygon fill="ghostwhite" stroke="transparent" points="618,-576.5 618,-648.5 918,-648.5 918,-576.5 618,-576.5"/>
<text text-anchor="start" x="675.5" y="-617.9" font-family="sans-serif" font-size="32.00">Copper Mine</text>
<text text-anchor="start" x="629.5" y="-587.5" font-family="sans-serif" font-size="20.00">Requires Engineering Supplies</text>
</a>
</g>
</g>
<!-- I_copper_mine&#45;&gt;C_copper_ore -->
<g id="edge24" class="edge">
<title>I_copper_mine&#45;&gt;C_copper_ore</title>
<g id="a_edge24"><a xlink:title="Copper Mine &#45;&gt; Copper Ore">
<path fill="none" stroke="#5d45a8" stroke-width="5" d="M927.48,-675.76C954.38,-672.23 981.5,-668.68 1005.93,-665.49"/>
</a>
</g>
</g>
<!-- I_fishing_grounds -->
<g id="fishing_grounds" class="node">
<title>I_fishing_grounds</title>
<g id="a_fishing_grounds"><a xlink:href="industries.html#fishing_grounds" xlink:title="Fishing Grounds" target="_top">
<polygon fill="white" stroke="transparent" points="1643,-1851.5 1643,-2065.5 1945,-2065.5 1945,-1851.5 1643,-1851.5"/>
<polygon fill="none" stroke="#c1cdcd" points="1643,-1898.5 1643,-2065.5 1945,-2065.5 1945,-1898.5 1643,-1898.5"/>
<image xlink:href="static/img/industries/fishing_grounds.png" width="300px" height="165px" preserveAspectRatio="xMinYMin meet" x="1644" y="-2064.5"/>
<polygon fill="none" stroke="#c1cdcd" points="1643,-1851.5 1643,-1898.5 1945,-1898.5 1945,-1851.5 1643,-1851.5"/>
<polygon fill="ghostwhite" stroke="transparent" points="1644,-1852.5 1644,-1897.5 1944,-1897.5 1944,-1852.5 1644,-1852.5"/>
<text text-anchor="start" x="1676.5" y="-1866.9" font-family="sans-serif" font-size="32.00">Fishing Grounds</text>
</a>
</g>
</g>
<!-- I_fishing_grounds&#45;&gt;C_fish -->
<g id="edge26" class="edge">
<title>I_fishing_grounds&#45;&gt;C_fish</title>
<g id="a_edge26"><a xlink:title="Fishing Grounds &#45;&gt; Fish">
<path fill="none" stroke="#882034" stroke-width="5" d="M1953.26,-1931.36C2020.65,-1919.8 2093.46,-1907.31 2136.32,-1899.96"/>
</a>
</g>
</g>
<!-- I_oil_wells -->
<g id="oil_wells" class="node">
<title>I_oil_wells</title>
<g id="a_oil_wells"><a xlink:href="industries.html#oil_wells" xlink:title="Oil Wells" target="_top">
<polygon fill="white" stroke="transparent" points="8,-4 8,-245 310,-245 310,-4 8,-4"/>
<polygon fill="none" stroke="#c1cdcd" points="8,-77.5 8,-244.5 310,-244.5 310,-77.5 8,-77.5"/>
<image xlink:href="static/img/industries/oil_wells.png" width="300px" height="165px" preserveAspectRatio="xMinYMin meet" x="9" y="-243.5"/>
<polygon fill="none" stroke="#c1cdcd" points="8,-3.5 8,-77.5 310,-77.5 310,-3.5 8,-3.5"/>
<polygon fill="ghostwhite" stroke="transparent" points="9,-4.5 9,-76.5 309,-76.5 309,-4.5 9,-4.5"/>
<text text-anchor="start" x="97" y="-45.9" font-family="sans-serif" font-size="32.00">Oil Wells</text>
<text text-anchor="start" x="20.5" y="-15.5" font-family="sans-serif" font-size="20.00">Requires Engineering Supplies</text>
</a>
</g>
</g>
<!-- I_oil_wells&#45;&gt;C_oil -->
<g id="edge31" class="edge">
<title>I_oil_wells&#45;&gt;C_oil</title>
<g id="a_edge31"><a xlink:title="Oil Wells &#45;&gt; Oil">
<path fill="none" stroke="#7d70a8" stroke-width="5" d="M318.03,-242.55C360.6,-274.35 401.96,-305.25 427.78,-324.54"/>
</a>
</g>
</g>
<!-- I_vineyard -->
<g id="vineyard" class="node">
<title>I_vineyard</title>
<g id="a_vineyard"><a xlink:href="industries.html#vineyard" xlink:title="Vineyard" target="_top">
<polygon fill="white" stroke="transparent" points="8,-1463 8,-1704 310,-1704 310,-1463 8,-1463"/>
<polygon fill="none" stroke="#c1cdcd" points="8,-1536.5 8,-1703.5 310,-1703.5 310,-1536.5 8,-1536.5"/>
<image xlink:href="static/img/industries/vineyard.png" width="300px" height="165px" preserveAspectRatio="xMinYMin meet" x="9" y="-1702.5"/>
<polygon fill="none" stroke="#c1cdcd" points="8,-1462.5 8,-1536.5 310,-1536.5 310,-1462.5 8,-1462.5"/>
<polygon fill="ghostwhite" stroke="transparent" points="9,-1463.5 9,-1535.5 309,-1535.5 309,-1463.5 9,-1463.5"/>
<text text-anchor="start" x="95.5" y="-1504.9" font-family="sans-serif" font-size="32.00">Vineyard</text>
<text text-anchor="start" x="51.5" y="-1474.5" font-family="sans-serif" font-size="20.00">Requires Farm Supplies</text>
</a>
</g>
</g>
<!-- I_vineyard&#45;&gt;C_fruits -->
<g id="edge37" class="edge">
<title>I_vineyard&#45;&gt;C_fruits</title>
<g id="a_edge37"><a xlink:title="Vineyard &#45;&gt; Fruit">
<path fill="none" stroke="#004ca8" stroke-width="5" d="M318.03,-1600.67C354.32,-1604.61 389.74,-1608.46 415.4,-1611.25"/>
</a>
</g>
</g>
<!-- I_vineyard&#45;&gt;C_alcohol -->
<g id="edge36" class="edge">
<title>I_vineyard&#45;&gt;C_alcohol</title>
<g id="a_edge36"><a xlink:title="Vineyard &#45;&gt; Alcohol">
<path fill="none" stroke="#a80000" stroke-width="5" d="M318.27,-1549.05C440.26,-1525.49 613.5,-1498.5 767,-1498.5 767,-1498.5 767,-1498.5 1099.5,-1498.5 1386.69,-1498.5 1682.38,-1266.24 1768.26,-1193.21"/>
</a>
</g>
</g>
</g>
</svg>
