<?xml version="1.0" encoding="UTF-8" standalone="no"?>
<?xml-stylesheet href="static/css/cargoflow_styles.css" type="text/css"?>
<!DOCTYPE svg PUBLIC "-//W3C//DTD SVG 1.1//EN"
 "http://www.w3.org/Graphics/SVG/1.1/DTD/svg11.dtd">
<!-- Generated by graphviz version 2.26.3 (20100126.1600)
 -->
<!-- Title: tropic_basic Pages: 1 -->
<svg width="2074pt" height="615pt"
 viewBox="0.00 0.00 2074.00 615.00" xmlns="http://www.w3.org/2000/svg" xmlns:xlink="http://www.w3.org/1999/xlink">
<g id="graph1" class="graph" transform="scale(1 1) rotate(0) translate(4 611)">
<title>tropic_basic</title>
<a xlink:title="Tropic Basic">
<polygon fill="white" stroke="white" points="-4,5 -4,-611 2071,-611 2071,5 -4,5"/>
</a>
<!-- C_alcohol -->
<g id="alcohol" class="node"><title>C_alcohol</title>
<a xlink:href="cargos.html#alcohol" xlink:title="Alcohol" target="_top">
<ellipse fill="none" stroke="black" cx="1356" cy="-368" rx="45.8622" ry="18"/>
<text text-anchor="middle" x="1356" y="-363.9" font-family="sans-serif" font-size="14.00">Alcohol</text>
</a>
</g>
<!-- I_general_store -->
<g id="general_store" class="node"><title>I_general_store</title>
<a xlink:href="industries.html#general_store" xlink:title="General Store" target="_top">
<polygon fill="none" stroke="black" points="1622,-331 1500,-331 1500,-295 1622,-295 1622,-331"/>
<text text-anchor="start" x="1512.5" y="-309.233" font-family="sans-serif" font-size="14.00">General Store</text>
</a>
</g>
<!-- C_alcohol&#45;&gt;I_general_store -->
<g id="edge2" class="edge"><title>C_alcohol&#45;&gt;I_general_store</title>
<a xlink:title="Alcohol &#45;&gt; General Store">
<path fill="none" stroke="black" d="M1394.1,-357.803C1415.77,-352.002 1443.41,-344.6 1468,-338 1475.19,-336.072 1482.68,-334.059 1490.17,-332.048"/>
<polygon fill="black" stroke="black" points="1491.22,-335.389 1499.97,-329.414 1489.41,-328.629 1491.22,-335.389"/>
</a>
</g>
<!-- I_hotel -->
<g id="hotel" class="node"><title>I_hotel</title>
<a xlink:href="industries.html#hotel" xlink:title="Hotel" target="_top">
<polygon fill="none" stroke="black" points="1904,-331 1842,-331 1842,-295 1904,-295 1904,-331"/>
<text text-anchor="start" x="1854.5" y="-309.233" font-family="sans-serif" font-size="14.00">Hotel</text>
</a>
</g>
<!-- C_alcohol&#45;&gt;I_hotel -->
<g id="edge4" class="edge"><title>C_alcohol&#45;&gt;I_hotel</title>
<a xlink:title="Alcohol &#45;&gt; Hotel">
<path fill="none" stroke="black" d="M1401.22,-364.1C1454.17,-359.453 1544.51,-351.27 1622,-343 1695.94,-335.107 1781.97,-324.52 1831.68,-318.262"/>
<polygon fill="black" stroke="black" points="1832.24,-321.72 1841.72,-316.995 1831.36,-314.775 1832.24,-321.72"/>
</a>
</g>
<!-- I_bulk_terminal -->
<g id="bulk_terminal" class="node"><title>I_bulk_terminal</title>
<a xlink:href="industries.html#bulk_terminal" xlink:title="Bulk Terminal" target="_top">
<polygon fill="none" stroke="black" points="1620,-221 1502,-221 1502,-185 1620,-185 1620,-221"/>
<text text-anchor="start" x="1514.5" y="-199.233" font-family="sans-serif" font-size="14.00">Bulk Terminal</text>
</a>
</g>
<!-- C_alcohol&#45;&gt;I_bulk_terminal -->
<g id="edge6" class="edge"><title>C_alcohol&#45;&gt;I_bulk_terminal</title>
<a xlink:title="Alcohol &#45;&gt; Bulk Terminal">
<path fill="none" stroke="black" d="M1401,-364.018C1423,-360.181 1448.81,-352.672 1468,-338 1490.47,-320.822 1484.28,-306.512 1500,-283 1512.37,-264.5 1527.53,-244.599 1539.65,-229.274"/>
<polygon fill="black" stroke="black" points="1542.53,-231.27 1546.03,-221.269 1537.06,-226.907 1542.53,-231.27"/>
</a>
</g>
<!-- CI_hotel_passengers -->
<g id="passengers" class="node"><title>CI_hotel_passengers</title>
<a xlink:href="cargos.html#passengers" xlink:title="Passengers" target="_top">
<ellipse fill="none" stroke="black" cx="2001" cy="-313" rx="64.1231" ry="18"/>
<text text-anchor="middle" x="2001" y="-308.9" font-family="sans-serif" font-size="14.00">Passengers</text>
</a>
</g>
<!-- I_hotel&#45;&gt;CI_hotel_passengers -->
<g id="edge66" class="edge"><title>I_hotel&#45;&gt;CI_hotel_passengers</title>
<a xlink:title="Hotel &#45;&gt; Passengers">
<path fill="none" stroke="black" d="M1904.31,-305.137C1913.57,-304.431 1924.07,-304.054 1934.65,-304.005"/>
<polygon fill="black" stroke="black" points="1934.77,-307.506 1944.79,-304.06 1934.81,-300.506 1934.77,-307.506"/>
</a>
</g>
<!-- C_farm_supplies -->
<g id="farm_supplies" class="node"><title>C_farm_supplies</title>
<a xlink:href="cargos.html#farm_supplies" xlink:title="Farm Supplies" target="_top">
<ellipse fill="none" stroke="black" cx="1732" cy="-18" rx="77.8268" ry="18"/>
<text text-anchor="middle" x="1732" y="-13.9" font-family="sans-serif" font-size="14.00">Farm Supplies</text>
</a>
</g>
<!-- I_bulk_terminal&#45;&gt;C_farm_supplies -->
<g id="edge46" class="edge"><title>I_bulk_terminal&#45;&gt;C_farm_supplies</title>
<a xlink:title="Bulk Terminal &#45;&gt; Farm Supplies">
<path fill="none" stroke="black" d="M1577.71,-184.925C1608.38,-151.736 1673.75,-81.0219 1708.74,-43.1609"/>
<polygon fill="black" stroke="black" points="1711.51,-45.325 1715.73,-35.6057 1706.37,-40.5735 1711.51,-45.325"/>
</a>
</g>
<!-- C_beans -->
<g id="beans" class="node"><title>C_beans</title>
<a xlink:href="cargos.html#beans" xlink:title="Beans" target="_top">
<ellipse fill="none" stroke="black" cx="947" cy="-488" rx="40.9981" ry="18"/>
<text text-anchor="middle" x="947" y="-483.9" font-family="sans-serif" font-size="14.00">Beans</text>
</a>
</g>
<!-- I_food_processor -->
<g id="food_processor" class="node"><title>I_food_processor</title>
<a xlink:href="industries.html#food_processor" xlink:title="Food Processing Plant" target="_top">
<polygon fill="none" stroke="black" points="1212,-506 1036,-506 1036,-470 1212,-470 1212,-506"/>
<text text-anchor="start" x="1048.5" y="-484.233" font-family="sans-serif" font-size="14.00">Food Processing Plant</text>
</a>
</g>
<!-- C_beans&#45;&gt;I_food_processor -->
<g id="edge8" class="edge"><title>C_beans&#45;&gt;I_food_processor</title>
<a xlink:title="Beans &#45;&gt; Food Processing Plant">
<path fill="none" stroke="black" d="M988.052,-488C999.527,-488 1012.51,-488 1025.79,-488"/>
<polygon fill="black" stroke="black" points="1025.99,-491.5 1035.99,-488 1025.99,-484.5 1025.99,-491.5"/>
</a>
</g>
<!-- C_food -->
<g id="food" class="node"><title>C_food</title>
<a xlink:href="cargos.html#food" xlink:title="Food" target="_top">
<ellipse fill="none" stroke="black" cx="1356" cy="-308" rx="34.0492" ry="18"/>
<text text-anchor="middle" x="1356" y="-303.9" font-family="sans-serif" font-size="14.00">Food</text>
</a>
</g>
<!-- I_food_processor&#45;&gt;C_food -->
<g id="edge64" class="edge"><title>I_food_processor&#45;&gt;C_food</title>
<a xlink:title="Food Processing Plant &#45;&gt; Food">
<path fill="none" stroke="black" d="M1197.23,-469.792C1202.67,-466.495 1207.7,-462.6 1212,-458 1249.68,-417.666 1204.99,-377.052 1244,-338 1261.78,-320.197 1288.9,-312.628 1312,-309.542"/>
<polygon fill="black" stroke="black" points="1312.39,-313.02 1321.95,-308.448 1311.63,-306.062 1312.39,-313.02"/>
</a>
</g>
<!-- C_chemicals -->
<g id="chemicals" class="node"><title>C_chemicals</title>
<a xlink:href="cargos.html#chemicals" xlink:title="Chemicals" target="_top">
<ellipse fill="none" stroke="black" cx="622" cy="-73" rx="59.7599" ry="18"/>
<text text-anchor="middle" x="622" y="-68.9" font-family="sans-serif" font-size="14.00">Chemicals</text>
</a>
</g>
<!-- C_chemicals&#45;&gt;I_bulk_terminal -->
<g id="edge12" class="edge"><title>C_chemicals&#45;&gt;I_bulk_terminal</title>
<a xlink:title="Chemicals &#45;&gt; Bulk Terminal">
<path fill="none" stroke="black" d="M682.199,-73C747.438,-73 854.606,-73 947,-73 947,-73 947,-73 1124,-73 1281.49,-73 1319.87,-104.523 1468,-158 1484.91,-164.103 1502.82,-172.323 1518.37,-180.067"/>
<polygon fill="black" stroke="black" points="1517.22,-183.405 1527.72,-184.804 1520.38,-177.161 1517.22,-183.405"/>
</a>
</g>
<!-- I_copper_refinery -->
<g id="copper_refinery" class="node"><title>I_copper_refinery</title>
<a xlink:href="industries.html#copper_refinery" xlink:title="Copper Refinery" target="_top">
<polygon fill="none" stroke="black" points="857,-146 721,-146 721,-110 857,-110 857,-146"/>
<text text-anchor="start" x="733.5" y="-124.233" font-family="sans-serif" font-size="14.00">Copper Refinery</text>
</a>
</g>
<!-- C_chemicals&#45;&gt;I_copper_refinery -->
<g id="edge10" class="edge"><title>C_chemicals&#45;&gt;I_copper_refinery</title>
<a xlink:title="Chemicals &#45;&gt; Copper Refinery">
<path fill="none" stroke="black" d="M662.426,-86.314C681.009,-92.4343 703.513,-99.8455 724.361,-106.712"/>
<polygon fill="black" stroke="black" points="723.526,-110.122 734.119,-109.925 725.716,-103.473 723.526,-110.122"/>
</a>
</g>
<!-- C_copper -->
<g id="copper" class="node"><title>C_copper</title>
<a xlink:href="cargos.html#copper" xlink:title="Copper" target="_top">
<ellipse fill="none" stroke="black" cx="947" cy="-128" rx="45.1673" ry="18"/>
<text text-anchor="middle" x="947" y="-123.9" font-family="sans-serif" font-size="14.00">Copper</text>
</a>
</g>
<!-- I_copper_refinery&#45;&gt;C_copper -->
<g id="edge56" class="edge"><title>I_copper_refinery&#45;&gt;C_copper</title>
<a xlink:title="Copper Refinery &#45;&gt; Copper">
<path fill="none" stroke="black" d="M857.382,-128C868.759,-128 880.434,-128 891.442,-128"/>
<polygon fill="black" stroke="black" points="891.76,-131.5 901.76,-128 891.76,-124.5 891.76,-131.5"/>
</a>
</g>
<!-- C_coffee -->
<g id="coffee" class="node"><title>C_coffee</title>
<a xlink:href="cargos.html#coffee" xlink:title="Coffee" target="_top">
<ellipse fill="none" stroke="black" cx="947" cy="-248" rx="41.8891" ry="18"/>
<text text-anchor="middle" x="947" y="-243.9" font-family="sans-serif" font-size="14.00">Coffee</text>
</a>
</g>
<!-- I_port -->
<g id="port" class="node"><title>I_port</title>
<a xlink:href="industries.html#port" xlink:title="Port" target="_top">
<polygon fill="none" stroke="black" points="1151,-206 1097,-206 1097,-170 1151,-170 1151,-206"/>
<text text-anchor="start" x="1109.5" y="-184.233" font-family="sans-serif" font-size="14.00">Port</text>
</a>
</g>
<!-- C_coffee&#45;&gt;I_port -->
<g id="edge14" class="edge"><title>C_coffee&#45;&gt;I_port</title>
<a xlink:title="Coffee &#45;&gt; Port">
<path fill="none" stroke="black" d="M980.292,-236.714C1010.74,-226.392 1055.72,-211.147 1087.22,-200.468"/>
<polygon fill="black" stroke="black" points="1088.59,-203.699 1096.94,-197.173 1086.34,-197.069 1088.59,-203.699"/>
</a>
</g>
<!-- C_engineering_supplies -->
<g id="engineering_supplies" class="node"><title>C_engineering_supplies</title>
<a xlink:href="cargos.html#engineering_supplies" xlink:title="Engineering Supplies" target="_top">
<ellipse fill="none" stroke="black" cx="1356" cy="-188" rx="111.876" ry="18"/>
<text text-anchor="middle" x="1356" y="-183.9" font-family="sans-serif" font-size="14.00">Engineering Supplies</text>
</a>
</g>
<!-- I_port&#45;&gt;C_engineering_supplies -->
<g id="edge76" class="edge"><title>I_port&#45;&gt;C_engineering_supplies</title>
<a xlink:title="Port &#45;&gt; Engineering Supplies">
<path fill="none" stroke="black" d="M1151.07,-188C1171.99,-188 1202.56,-188 1233.74,-188"/>
<polygon fill="black" stroke="black" points="1233.87,-191.5 1243.87,-188 1233.87,-184.5 1233.87,-191.5"/>
</a>
</g>
<!-- C_goods -->
<g id="goods" class="node"><title>C_goods</title>
<a xlink:href="cargos.html#goods" xlink:title="Goods" target="_top">
<ellipse fill="none" stroke="black" cx="1356" cy="-248" rx="40.9981" ry="18"/>
<text text-anchor="middle" x="1356" y="-243.9" font-family="sans-serif" font-size="14.00">Goods</text>
</a>
</g>
<!-- I_port&#45;&gt;C_goods -->
<g id="edge78" class="edge"><title>I_port&#45;&gt;C_goods</title>
<a xlink:title="Port &#45;&gt; Goods">
<path fill="none" stroke="black" d="M1151.07,-195C1190.24,-205.13 1263.21,-224.003 1310.68,-236.279"/>
<polygon fill="black" stroke="black" points="1309.84,-239.677 1320.4,-238.793 1311.59,-232.9 1309.84,-239.677"/>
</a>
</g>
<!-- C_copper&#45;&gt;I_port -->
<g id="edge16" class="edge"><title>C_copper&#45;&gt;I_port</title>
<a xlink:title="Copper &#45;&gt; Port">
<path fill="none" stroke="black" d="M981.548,-139.711C1011.96,-150.02 1056.12,-164.988 1087.19,-175.521"/>
<polygon fill="black" stroke="black" points="1086.19,-178.877 1096.78,-178.773 1088.43,-172.248 1086.19,-178.877"/>
</a>
</g>
<!-- C_copper_ore -->
<g id="copper_ore" class="node"><title>C_copper_ore</title>
<a xlink:href="cargos.html#copper_ore" xlink:title="Copper Ore" target="_top">
<ellipse fill="none" stroke="black" cx="622" cy="-133" rx="66.0138" ry="18"/>
<text text-anchor="middle" x="622" y="-128.9" font-family="sans-serif" font-size="14.00">Copper Ore</text>
</a>
</g>
<!-- C_copper_ore&#45;&gt;I_copper_refinery -->
<g id="edge18" class="edge"><title>C_copper_ore&#45;&gt;I_copper_refinery</title>
<a xlink:title="Copper Ore &#45;&gt; Copper Refinery">
<path fill="none" stroke="black" d="M688.003,-131.024C695.399,-130.802 702.987,-130.575 710.52,-130.35"/>
<polygon fill="black" stroke="black" points="710.845,-133.842 720.736,-130.044 710.636,-126.845 710.845,-133.842"/>
</a>
</g>
<!-- C_fish -->
<g id="fish" class="node"><title>C_fish</title>
<a xlink:href="cargos.html#fish" xlink:title="Fish" target="_top">
<ellipse fill="none" stroke="black" cx="947" cy="-368" rx="30.0736" ry="18"/>
<text text-anchor="middle" x="947" y="-363.9" font-family="sans-serif" font-size="14.00">Fish</text>
</a>
</g>
<!-- I_fishing_harbour -->
<g id="fishing_harbour" class="node"><title>I_fishing_harbour</title>
<a xlink:href="industries.html#fishing_harbour" xlink:title="Fishing Harbour" target="_top">
<polygon fill="none" stroke="black" points="1191,-386 1057,-386 1057,-350 1191,-350 1191,-386"/>
<text text-anchor="start" x="1069.5" y="-364.233" font-family="sans-serif" font-size="14.00">Fishing Harbour</text>
</a>
</g>
<!-- C_fish&#45;&gt;I_fishing_harbour -->
<g id="edge20" class="edge"><title>C_fish&#45;&gt;I_fishing_harbour</title>
<a xlink:title="Fish &#45;&gt; Fishing Harbour">
<path fill="none" stroke="black" d="M977.831,-368C996.897,-368 1022.29,-368 1046.55,-368"/>
<polygon fill="black" stroke="black" points="1046.86,-371.5 1056.86,-368 1046.86,-364.5 1046.86,-371.5"/>
</a>
</g>
<!-- I_fishing_harbour&#45;&gt;C_food -->
<g id="edge60" class="edge"><title>I_fishing_harbour&#45;&gt;C_food</title>
<a xlink:title="Fishing Harbour &#45;&gt; Food">
<path fill="none" stroke="black" d="M1191.1,-350.646C1231.25,-340.264 1280.95,-327.409 1315.24,-318.542"/>
<polygon fill="black" stroke="black" points="1316.55,-321.818 1325.35,-315.925 1314.8,-315.041 1316.55,-321.818"/>
</a>
</g>
<!-- C_food&#45;&gt;I_general_store -->
<g id="edge22" class="edge"><title>C_food&#45;&gt;I_general_store</title>
<a xlink:title="Food &#45;&gt; General Store">
<path fill="none" stroke="black" d="M1390.31,-308.837C1417.27,-309.494 1455.75,-310.433 1489.35,-311.252"/>
<polygon fill="black" stroke="black" points="1489.52,-314.758 1499.61,-311.503 1489.69,-307.76 1489.52,-314.758"/>
</a>
</g>
<!-- C_food&#45;&gt;I_hotel -->
<g id="edge24" class="edge"><title>C_food&#45;&gt;I_hotel</title>
<a xlink:title="Food &#45;&gt; Hotel">
<path fill="none" stroke="black" d="M1387.54,-300.913C1416.58,-294.774 1460.94,-286.365 1500,-283 1620.36,-272.63 1762.67,-293.154 1831.54,-305.162"/>
<polygon fill="black" stroke="black" points="1831.09,-308.637 1841.55,-306.939 1832.32,-301.745 1831.09,-308.637"/>
</a>
</g>
<!-- C_food&#45;&gt;I_bulk_terminal -->
<g id="edge26" class="edge"><title>C_food&#45;&gt;I_bulk_terminal</title>
<a xlink:title="Food &#45;&gt; Bulk Terminal">
<path fill="none" stroke="black" d="M1389.56,-304.51C1413.04,-300.812 1444.31,-293.272 1468,-278 1486.84,-265.85 1482.97,-253.588 1500,-239 1505.21,-234.538 1511.04,-230.312 1516.98,-226.431"/>
<polygon fill="black" stroke="black" points="1519.06,-229.26 1525.7,-221.003 1515.36,-223.317 1519.06,-229.26"/>
</a>
</g>
<!-- C_fruits -->
<g id="fruits" class="node"><title>C_fruits</title>
<a xlink:href="cargos.html#fruits" xlink:title="Fruit" target="_top">
<ellipse fill="none" stroke="black" cx="947" cy="-548" rx="34.0492" ry="18"/>
<text text-anchor="middle" x="947" y="-543.9" font-family="sans-serif" font-size="14.00">Fruit</text>
</a>
</g>
<!-- C_fruits&#45;&gt;I_food_processor -->
<g id="edge28" class="edge"><title>C_fruits&#45;&gt;I_food_processor</title>
<a xlink:title="Fruit &#45;&gt; Food Processing Plant">
<path fill="none" stroke="black" d="M975.832,-538.226C998.891,-530.41 1032.06,-519.164 1061.18,-509.295"/>
<polygon fill="black" stroke="black" points="1062.53,-512.533 1070.88,-506.008 1060.28,-505.903 1062.53,-512.533"/>
</a>
</g>
<!-- C_goods&#45;&gt;I_general_store -->
<g id="edge30" class="edge"><title>C_goods&#45;&gt;I_general_store</title>
<a xlink:title="Goods &#45;&gt; General Store">
<path fill="none" stroke="black" d="M1392.07,-256.704C1414.15,-262.268 1442.89,-269.935 1468,-278 1480.31,-281.955 1493.39,-286.595 1505.72,-291.179"/>
<polygon fill="black" stroke="black" points="1504.84,-294.586 1515.43,-294.83 1507.3,-288.034 1504.84,-294.586"/>
</a>
</g>
<!-- C_grain -->
<g id="grain" class="node"><title>C_grain</title>
<a xlink:href="cargos.html#grain" xlink:title="Grain" target="_top">
<ellipse fill="none" stroke="black" cx="947" cy="-428" rx="38.2185" ry="18"/>
<text text-anchor="middle" x="947" y="-423.9" font-family="sans-serif" font-size="14.00">Grain</text>
</a>
</g>
<!-- I_flour_mill -->
<g id="flour_mill" class="node"><title>I_flour_mill</title>
<a xlink:href="industries.html#flour_mill" xlink:title="Flour Mill" target="_top">
<polygon fill="none" stroke="black" points="1168,-446 1080,-446 1080,-410 1168,-410 1168,-446"/>
<text text-anchor="start" x="1092.5" y="-424.233" font-family="sans-serif" font-size="14.00">Flour Mill</text>
</a>
</g>
<!-- C_grain&#45;&gt;I_flour_mill -->
<g id="edge32" class="edge"><title>C_grain&#45;&gt;I_flour_mill</title>
<a xlink:title="Grain &#45;&gt; Flour Mill">
<path fill="none" stroke="black" d="M985.406,-428C1009.93,-428 1042.1,-428 1069.28,-428"/>
<polygon fill="black" stroke="black" points="1069.42,-431.5 1079.42,-428 1069.42,-424.5 1069.42,-431.5"/>
</a>
</g>
<!-- I_flour_mill&#45;&gt;C_food -->
<g id="edge62" class="edge"><title>I_flour_mill&#45;&gt;C_food</title>
<a xlink:title="Flour Mill &#45;&gt; Food">
<path fill="none" stroke="black" d="M1168.51,-419.805C1183.59,-415.321 1199.7,-408.456 1212,-398 1235.02,-378.422 1220.34,-356.798 1244,-338 1263.27,-322.691 1289.69,-315.162 1312.02,-311.474"/>
<polygon fill="black" stroke="black" points="1312.56,-314.932 1321.96,-310.035 1311.56,-308.004 1312.56,-314.932"/>
</a>
</g>
<!-- C_livestock -->
<g id="livestock" class="node"><title>C_livestock</title>
<a xlink:href="cargos.html#livestock" xlink:title="Livestock" target="_top">
<ellipse fill="none" stroke="black" cx="947" cy="-308" rx="55.7874" ry="18"/>
<text text-anchor="middle" x="947" y="-303.9" font-family="sans-serif" font-size="14.00">Livestock</text>
</a>
</g>
<!-- I_stockyard -->
<g id="stockyard" class="node"><title>I_stockyard</title>
<a xlink:href="industries.html#stockyard" xlink:title="Stockyard" target="_top">
<polygon fill="none" stroke="black" points="1171,-326 1077,-326 1077,-290 1171,-290 1171,-326"/>
<text text-anchor="start" x="1089.5" y="-304.233" font-family="sans-serif" font-size="14.00">Stockyard</text>
</a>
</g>
<!-- C_livestock&#45;&gt;I_stockyard -->
<g id="edge34" class="edge"><title>C_livestock&#45;&gt;I_stockyard</title>
<a xlink:title="Livestock &#45;&gt; Stockyard">
<path fill="none" stroke="black" d="M1003.98,-308C1024.03,-308 1046.57,-308 1066.65,-308"/>
<polygon fill="black" stroke="black" points="1066.9,-311.5 1076.9,-308 1066.9,-304.5 1066.9,-311.5"/>
</a>
</g>
<!-- I_stockyard&#45;&gt;C_food -->
<g id="edge84" class="edge"><title>I_stockyard&#45;&gt;C_food</title>
<a xlink:title="Stockyard &#45;&gt; Food">
<path fill="none" stroke="black" d="M1171.23,-308C1212.3,-308 1271.38,-308 1311.6,-308"/>
<polygon fill="black" stroke="black" points="1311.65,-311.5 1321.65,-308 1311.65,-304.5 1311.65,-311.5"/>
</a>
</g>
<!-- C_nitrates -->
<g id="nitrates" class="node"><title>C_nitrates</title>
<a xlink:href="cargos.html#nitrates" xlink:title="Nitrates" target="_top">
<ellipse fill="none" stroke="black" cx="262" cy="-73" rx="50.0315" ry="18"/>
<text text-anchor="middle" x="262" y="-68.9" font-family="sans-serif" font-size="14.00">Nitrates</text>
</a>
</g>
<!-- I_chemical_plant -->
<g id="chemical_plant" class="node"><title>I_chemical_plant</title>
<a xlink:href="industries.html#chemical_plant" xlink:title="Chemical Plant" target="_top">
<polygon fill="none" stroke="black" points="498,-91 370,-91 370,-55 498,-55 498,-91"/>
<text text-anchor="start" x="382.5" y="-69.2333" font-family="sans-serif" font-size="14.00">Chemical Plant</text>
</a>
</g>
<!-- C_nitrates&#45;&gt;I_chemical_plant -->
<g id="edge36" class="edge"><title>C_nitrates&#45;&gt;I_chemical_plant</title>
<a xlink:title="Nitrates &#45;&gt; Chemical Plant">
<path fill="none" stroke="black" d="M312.212,-73C327.016,-73 343.541,-73 359.526,-73"/>
<polygon fill="black" stroke="black" points="359.929,-76.5001 369.929,-73 359.929,-69.5001 359.929,-76.5001"/>
</a>
</g>
<!-- I_chemical_plant&#45;&gt;C_chemicals -->
<g id="edge48" class="edge"><title>I_chemical_plant&#45;&gt;C_chemicals</title>
<a xlink:title="Chemical Plant &#45;&gt; Chemicals">
<path fill="none" stroke="black" d="M498.173,-73C515.424,-73 534.169,-73 551.732,-73"/>
<polygon fill="black" stroke="black" points="551.916,-76.5001 561.916,-73 551.916,-69.5001 551.916,-76.5001"/>
</a>
</g>
<!-- C_oil -->
<g id="oil" class="node"><title>C_oil</title>
<a xlink:href="cargos.html#oil" xlink:title="Oil" target="_top">
<ellipse fill="none" stroke="black" cx="262" cy="-133" rx="27" ry="18"/>
<text text-anchor="middle" x="262" y="-128.9" font-family="sans-serif" font-size="14.00">Oil</text>
</a>
</g>
<!-- C_oil&#45;&gt;I_chemical_plant -->
<g id="edge38" class="edge"><title>C_oil&#45;&gt;I_chemical_plant</title>
<a xlink:title="Oil &#45;&gt; Chemical Plant">
<path fill="none" stroke="black" d="M285.618,-124.154C301.967,-118.081 324.252,-109.902 344,-103 352.133,-100.157 360.701,-97.2236 369.186,-94.3549"/>
<polygon fill="black" stroke="black" points="370.341,-97.659 378.702,-91.1519 368.108,-91.0247 370.341,-97.659"/>
</a>
</g>
<!-- C_wool -->
<g id="wool" class="node"><title>C_wool</title>
<a xlink:href="cargos.html#wool" xlink:title="Wool" target="_top">
<ellipse fill="none" stroke="black" cx="947" cy="-188" rx="34.9399" ry="18"/>
<text text-anchor="middle" x="947" y="-183.9" font-family="sans-serif" font-size="14.00">Wool</text>
</a>
</g>
<!-- C_wool&#45;&gt;I_port -->
<g id="edge40" class="edge"><title>C_wool&#45;&gt;I_port</title>
<a xlink:title="Wool &#45;&gt; Port">
<path fill="none" stroke="black" d="M982.819,-188C1013,-188 1056.03,-188 1086.64,-188"/>
<polygon fill="black" stroke="black" points="1086.91,-191.5 1096.91,-188 1086.91,-184.5 1086.91,-191.5"/>
</a>
</g>
<!-- I_arable_farm -->
<g id="arable_farm" class="node"><title>I_arable_farm</title>
<a xlink:href="industries.html#arable_farm" xlink:title="Arable Farm" target="_top">
<polygon fill="none" stroke="black" points="854,-513.5 724,-513.5 724,-462.5 854,-462.5 854,-513.5"/>
<text text-anchor="start" x="748" y="-494.233" font-family="sans-serif" font-size="14.00">Arable Farm</text>
<text text-anchor="start" x="736.5" y="-473.733" font-family="sans-serif" font-size="14.00">[Farm Supplies]</text>
</a>
</g>
<!-- I_arable_farm&#45;&gt;C_beans -->
<g id="edge42" class="edge"><title>I_arable_farm&#45;&gt;C_beans</title>
<a xlink:title="Arable Farm &#45;&gt; Beans">
<path fill="none" stroke="black" d="M854.634,-488C868.281,-488 882.477,-488 895.528,-488"/>
<polygon fill="black" stroke="black" points="895.716,-491.5 905.716,-488 895.716,-484.5 895.716,-491.5"/>
</a>
</g>
<!-- I_arable_farm&#45;&gt;C_grain -->
<g id="edge44" class="edge"><title>I_arable_farm&#45;&gt;C_grain</title>
<a xlink:title="Arable Farm &#45;&gt; Grain">
<path fill="none" stroke="black" d="M854.634,-463.076C872.608,-456.25 891.534,-449.063 907.541,-442.985"/>
<polygon fill="black" stroke="black" points="908.99,-446.178 917.096,-439.356 906.504,-439.634 908.99,-446.178"/>
</a>
</g>
<!-- I_coffee_estate -->
<g id="coffee_estate" class="node"><title>I_coffee_estate</title>
<a xlink:href="industries.html#coffee_estate" xlink:title="Coffee Estate" target="_top">
<polygon fill="none" stroke="black" points="854,-439.5 724,-439.5 724,-388.5 854,-388.5 854,-439.5"/>
<text text-anchor="start" x="742.5" y="-420.233" font-family="sans-serif" font-size="14.00">Coffee Estate</text>
<text text-anchor="start" x="736.5" y="-399.733" font-family="sans-serif" font-size="14.00">[Farm Supplies]</text>
</a>
</g>
<!-- I_coffee_estate&#45;&gt;C_coffee -->
<g id="edge50" class="edge"><title>I_coffee_estate&#45;&gt;C_coffee</title>
<a xlink:title="Coffee Estate &#45;&gt; Coffee">
<path fill="none" stroke="black" d="M845.368,-388.848C850.026,-385.323 854.341,-381.383 858,-377 887.634,-341.502 860.229,-313.383 890,-278 894.354,-272.826 899.831,-268.422 905.658,-264.714"/>
<polygon fill="black" stroke="black" points="907.391,-267.754 914.355,-259.769 903.932,-261.669 907.391,-267.754"/>
</a>
</g>
<!-- I_coffee_estate&#45;&gt;C_fruits -->
<g id="edge52" class="edge"><title>I_coffee_estate&#45;&gt;C_fruits</title>
<a xlink:title="Coffee Estate &#45;&gt; Fruit">
<path fill="none" stroke="black" d="M844.09,-439.195C849.122,-442.741 853.871,-446.673 858,-451 880.784,-474.872 867.124,-494.216 890,-518 895.669,-523.894 902.75,-528.868 909.974,-532.968"/>
<polygon fill="black" stroke="black" points="908.615,-536.206 919.105,-537.696 911.834,-529.99 908.615,-536.206"/>
</a>
</g>
<!-- I_copper_mine -->
<g id="copper_mine" class="node"><title>I_copper_mine</title>
<a xlink:href="industries.html#copper_mine" xlink:title="Copper Mine" target="_top">
<polygon fill="none" stroke="black" points="524,-165.5 344,-165.5 344,-114.5 524,-114.5 524,-165.5"/>
<text text-anchor="start" x="390.5" y="-146.233" font-family="sans-serif" font-size="14.00">Copper Mine</text>
<text text-anchor="start" x="356.5" y="-125.733" font-family="sans-serif" font-size="14.00">[Engineering Supplies]</text>
</a>
</g>
<!-- I_copper_mine&#45;&gt;C_copper_ore -->
<g id="edge54" class="edge"><title>I_copper_mine&#45;&gt;C_copper_ore</title>
<a xlink:title="Copper Mine &#45;&gt; Copper Ore">
<path fill="none" stroke="black" d="M524.145,-136.644C531.575,-136.367 539.038,-136.089 546.346,-135.817"/>
<polygon fill="black" stroke="black" points="546.693,-139.306 556.556,-135.437 546.433,-132.311 546.693,-139.306"/>
</a>
</g>
<!-- I_fishing_grounds -->
<g id="fishing_grounds" class="node"><title>I_fishing_grounds</title>
<a xlink:href="industries.html#fishing_grounds" xlink:title="Fishing Grounds" target="_top">
<polygon fill="none" stroke="black" points="857,-365 721,-365 721,-329 857,-329 857,-365"/>
<text text-anchor="start" x="733.5" y="-343.233" font-family="sans-serif" font-size="14.00">Fishing Grounds</text>
</a>
</g>
<!-- I_fishing_grounds&#45;&gt;C_fish -->
<g id="edge58" class="edge"><title>I_fishing_grounds&#45;&gt;C_fish</title>
<a xlink:title="Fishing Grounds &#45;&gt; Fish">
<path fill="none" stroke="black" d="M857.841,-356.15C874.733,-358.395 892.255,-360.724 907.248,-362.717"/>
<polygon fill="black" stroke="black" points="906.812,-366.189 917.186,-364.037 907.734,-359.25 906.812,-366.189"/>
</a>
</g>
<!-- CI_hotel_passengers&#45;&gt;I_hotel -->
<g id="edge68" class="edge"><title>CI_hotel_passengers&#45;&gt;I_hotel</title>
<a xlink:title="Passengers &#45;&gt; Hotel">
<path fill="none" stroke="black" d="M1944.79,-321.94C1934.6,-322.097 1924.13,-321.945 1914.45,-321.484"/>
<polygon fill="black" stroke="black" points="1914.51,-317.981 1904.31,-320.863 1914.08,-324.968 1914.51,-317.981"/>
</a>
</g>
<!-- I_nitrate_mine -->
<g id="nitrate_mine" class="node"><title>I_nitrate_mine</title>
<a xlink:href="industries.html#nitrate_mine" xlink:title="Nitrate Mine" target="_top">
<polygon fill="none" stroke="black" points="180,-64.5 8.52651e-14,-64.5 0,-13.5 180,-13.5 180,-64.5"/>
<text text-anchor="start" x="46.5" y="-45.2333" font-family="sans-serif" font-size="14.00">Nitrate Mine</text>
<text text-anchor="start" x="12.5" y="-24.7333" font-family="sans-serif" font-size="14.00">[Engineering Supplies]</text>
</a>
</g>
<!-- I_nitrate_mine&#45;&gt;C_farm_supplies -->
<g id="edge70" class="edge"><title>I_nitrate_mine&#45;&gt;C_farm_supplies</title>
<a xlink:title="Nitrate Mine &#45;&gt; Farm Supplies">
<path fill="none" stroke="black" d="M180.082,-30.4888C249.426,-24.6676 347.69,-18 434,-18 434,-18 434,-18 1356,-18 1454.55,-18 1567.63,-18 1643.83,-18"/>
<polygon fill="black" stroke="black" points="1643.87,-21.5001 1653.87,-18 1643.87,-14.5001 1643.87,-21.5001"/>
</a>
</g>
<!-- I_nitrate_mine&#45;&gt;C_nitrates -->
<g id="edge72" class="edge"><title>I_nitrate_mine&#45;&gt;C_nitrates</title>
<a xlink:title="Nitrate Mine &#45;&gt; Nitrates">
<path fill="none" stroke="black" d="M180.03,-56.7966C189.597,-58.6878 199.097,-60.5657 208.056,-62.3366"/>
<polygon fill="black" stroke="black" points="207.426,-65.7798 217.915,-64.2855 208.784,-58.9127 207.426,-65.7798"/>
</a>
</g>
<!-- I_oil_wells -->
<g id="oil_wells" class="node"><title>I_oil_wells</title>
<a xlink:href="industries.html#oil_wells" xlink:title="Oil Wells" target="_top">
<polygon fill="none" stroke="black" points="180,-158.5 8.52651e-14,-158.5 0,-107.5 180,-107.5 180,-158.5"/>
<text text-anchor="start" x="59.5" y="-139.233" font-family="sans-serif" font-size="14.00">Oil Wells</text>
<text text-anchor="start" x="12.5" y="-118.733" font-family="sans-serif" font-size="14.00">[Engineering Supplies]</text>
</a>
</g>
<!-- I_oil_wells&#45;&gt;C_oil -->
<g id="edge74" class="edge"><title>I_oil_wells&#45;&gt;C_oil</title>
<a xlink:title="Oil Wells &#45;&gt; Oil">
<path fill="none" stroke="black" d="M180.03,-133C195.807,-133 211.403,-133 224.688,-133"/>
<polygon fill="black" stroke="black" points="224.805,-136.5 234.805,-133 224.805,-129.5 224.805,-136.5"/>
</a>
</g>
<!-- I_ranch -->
<g id="ranch" class="node"><title>I_ranch</title>
<a xlink:href="industries.html#ranch" xlink:title="Ranch" target="_top">
<polygon fill="none" stroke="black" points="854,-262.5 724,-262.5 724,-211.5 854,-211.5 854,-262.5"/>
<text text-anchor="start" x="768" y="-243.233" font-family="sans-serif" font-size="14.00">Ranch</text>
<text text-anchor="start" x="736.5" y="-222.733" font-family="sans-serif" font-size="14.00">[Farm Supplies]</text>
</a>
</g>
<!-- I_ranch&#45;&gt;C_livestock -->
<g id="edge80" class="edge"><title>I_ranch&#45;&gt;C_livestock</title>
<a xlink:title="Ranch &#45;&gt; Livestock">
<path fill="none" stroke="black" d="M844.705,-262.032C864.527,-270.939 886.499,-280.813 904.982,-289.118"/>
<polygon fill="black" stroke="black" points="903.744,-292.399 914.3,-293.306 906.613,-286.014 903.744,-292.399"/>
</a>
</g>
<!-- I_ranch&#45;&gt;C_wool -->
<g id="edge82" class="edge"><title>I_ranch&#45;&gt;C_wool</title>
<a xlink:title="Ranch &#45;&gt; Wool">
<path fill="none" stroke="black" d="M854.634,-216.645C872.299,-211.167 890.884,-205.403 906.713,-200.494"/>
<polygon fill="black" stroke="black" points="908.166,-203.708 916.681,-197.403 906.093,-197.022 908.166,-203.708"/>
</a>
</g>
<!-- I_vineyard -->
<g id="vineyard" class="node"><title>I_vineyard</title>
<a xlink:href="industries.html#vineyard" xlink:title="Vineyard" target="_top">
<polygon fill="none" stroke="black" points="854,-607.5 724,-607.5 724,-556.5 854,-556.5 854,-607.5"/>
<text text-anchor="start" x="758.5" y="-588.233" font-family="sans-serif" font-size="14.00">Vineyard</text>
<text text-anchor="start" x="736.5" y="-567.733" font-family="sans-serif" font-size="14.00">[Farm Supplies]</text>
</a>
</g>
<!-- I_vineyard&#45;&gt;C_alcohol -->
<g id="edge86" class="edge"><title>I_vineyard&#45;&gt;C_alcohol</title>
<a xlink:title="Vineyard &#45;&gt; Alcohol">
<path fill="none" stroke="black" d="M854.7,-586.97C942.58,-590.474 1100.26,-585.484 1212,-518 1265.9,-485.45 1313.19,-427.626 1337.87,-394.076"/>
<polygon fill="black" stroke="black" points="1340.9,-395.852 1343.93,-385.699 1335.23,-391.749 1340.9,-395.852"/>
</a>
</g>
<!-- I_vineyard&#45;&gt;C_fruits -->
<g id="edge88" class="edge"><title>I_vineyard&#45;&gt;C_fruits</title>
<a xlink:title="Vineyard &#45;&gt; Fruit">
<path fill="none" stroke="black" d="M854.634,-567.876C871.882,-564.165 890.006,-560.264 905.587,-556.912"/>
<polygon fill="black" stroke="black" points="906.384,-560.32 915.424,-554.795 904.911,-553.477 906.384,-560.32"/>
</a>
</g>
</g>
</svg>
