<?xml version="1.0" encoding="UTF-8" standalone="no"?>
<?xml-stylesheet href="static/css/cargoflow_styles.css" type="text/css"?>
<!DOCTYPE svg PUBLIC "-//W3C//DTD SVG 1.1//EN"
 "http://www.w3.org/Graphics/SVG/1.1/DTD/svg11.dtd">
<!-- Generated by graphviz version 6.0.1 (20220911.1526)
 -->
<!-- Title: temperate_basic Pages: 1 -->
<svg width="2313pt" height="2109pt"
 viewBox="0.00 0.00 2313.00 2108.50" xmlns="http://www.w3.org/2000/svg" xmlns:xlink="http://www.w3.org/1999/xlink">
<g id="page0,1_graph0" class="graph" transform="scale(1 1) rotate(0) translate(4 2104.5)">
<title>temperate_basic</title>
<g id="a_page0,1_graph0"><a xlink:title="Temperate Basic">
<polygon fill="white" stroke="none" points="-4,4 -4,-2104.5 2309,-2104.5 2309,4 -4,4"/>
</a>
</g>
<!-- I_port -->
<g id="port" class="node">
<title>I_port</title>
<g id="a_port"><a xlink:href="industries.html#port" xlink:title="Port" target="_top">
<polygon fill="white" stroke="none" points="1995,-1355 1995,-1623 2297,-1623 2297,-1355 1995,-1355"/>
<polygon fill="none" stroke="#c1cdcd" points="1995,-1456 1995,-1623 2297,-1623 2297,-1456 1995,-1456"/>
<image xlink:href="static/img/industries/port.png" width="300px" height="165px" preserveAspectRatio="xMinYMin meet" x="1996" y="-1622"/>
<polygon fill="none" stroke="#c1cdcd" points="1995,-1355 1995,-1456 2297,-1456 2297,-1355 1995,-1355"/>
<polygon fill="ghostwhite" stroke="none" points="1996,-1356 1996,-1455 2296,-1455 2296,-1356 1996,-1356"/>
<text text-anchor="start" x="2116.5" y="-1424.4" font-family="sans-serif" font-size="32.00">Port</text>
<text text-anchor="start" x="2005.5" y="-1394" font-family="sans-serif" font-size="20.00">Produces Engineering Supplies</text>
<text text-anchor="start" x="2036" y="-1367" font-family="sans-serif" font-size="20.00">Produces Farm Supplies</text>
</a>
</g>
</g>
<!-- C_chemicals -->
<g id="chemicals" class="node">
<title>C_chemicals</title>
<g id="a_chemicals"><a xlink:href="cargos.html#chemicals" xlink:title="&lt;TABLE&gt;" target="_top">
<polygon fill="#602c03" stroke="#602c03" points="1209,-1797.5 1031,-1797.5 1031,-1742.5 1209,-1742.5 1209,-1797.5"/>
<polygon fill="none" stroke="#602c03" points="1042,-1749 1042,-1790 1198,-1790 1198,-1749 1042,-1749"/>
<text text-anchor="start" x="1045" y="-1761.4" font-family="sans-serif" font-size="32.00" fill="white">Chemicals</text>
<polygon fill="none" stroke="#602c03" points="1039,-1746.5 1039,-1793.5 1201,-1793.5 1201,-1746.5 1039,-1746.5"/>
</a>
</g>
</g>
<!-- I_port&#45;&gt;C_chemicals -->
<g id="edge29" class="edge">
<title>I_port&#45;&gt;C_chemicals</title>
<g id="a_edge29"><a xlink:title="Port &#45;&gt; Chemicals">
<path fill="none" stroke="#602c03" stroke-width="5" d="M1986.78,-1612.5C1966.39,-1624.82 1945.2,-1636.06 1924,-1645 1679.6,-1748.07 1361.1,-1767.17 1209.14,-1770.04"/>
</a>
</g>
</g>
<!-- C_alcohol -->
<g id="alcohol" class="node">
<title>C_alcohol</title>
<g id="a_alcohol"><a xlink:href="cargos.html#alcohol" xlink:title="&lt;TABLE&gt;" target="_top">
<polygon fill="#a80000" stroke="#a80000" points="1924,-181.5 1653,-181.5 1653,-40.5 1924,-40.5 1924,-181.5"/>
<polygon fill="none" stroke="#a80000" points="1664.5,-133 1664.5,-174 1913.5,-174 1913.5,-133 1664.5,-133"/>
<text text-anchor="start" x="1736.5" y="-145.4" font-family="sans-serif" font-size="32.00" fill="white">Alcohol</text>
<polygon fill="white" stroke="none" points="1664.5,-90 1664.5,-131 1913.5,-131 1913.5,-90 1664.5,-90"/>
<polygon fill="none" stroke="#a80000" points="1664.5,-90 1664.5,-131 1913.5,-131 1913.5,-90 1664.5,-90"/>
<text text-anchor="start" x="1667.5" y="-102.4" font-family="sans-serif" font-size="32.00">To General Store</text>
<polygon fill="white" stroke="none" points="1664.5,-47 1664.5,-88 1913.5,-88 1913.5,-47 1664.5,-47"/>
<polygon fill="none" stroke="#a80000" points="1664.5,-47 1664.5,-88 1913.5,-88 1913.5,-47 1664.5,-47"/>
<text text-anchor="start" x="1730" y="-59.4" font-family="sans-serif" font-size="32.00">To Hotel</text>
<polygon fill="none" stroke="#a80000" points="1661,-44.5 1661,-177.5 1916,-177.5 1916,-44.5 1661,-44.5"/>
</a>
</g>
</g>
<!-- I_glass_works -->
<g id="glass_works" class="node">
<title>I_glass_works</title>
<g id="a_glass_works"><a xlink:href="industries.html#glass_works" xlink:title="Glass Works" target="_top">
<polygon fill="white" stroke="none" points="1280,-1869 1280,-2083 1582,-2083 1582,-1869 1280,-1869"/>
<polygon fill="none" stroke="#c1cdcd" points="1280,-1916 1280,-2083 1582,-2083 1582,-1916 1280,-1916"/>
<image xlink:href="static/img/industries/glass_works.png" width="300px" height="165px" preserveAspectRatio="xMinYMin meet" x="1281" y="-2082"/>
<polygon fill="none" stroke="#c1cdcd" points="1280,-1869 1280,-1916 1582,-1916 1582,-1869 1280,-1869"/>
<polygon fill="ghostwhite" stroke="none" points="1281,-1870 1281,-1915 1581,-1915 1581,-1870 1281,-1870"/>
<text text-anchor="start" x="1341" y="-1884.4" font-family="sans-serif" font-size="32.00">Glass Works</text>
</a>
</g>
</g>
<!-- C_chemicals&#45;&gt;I_glass_works -->
<g id="edge1" class="edge">
<title>C_chemicals&#45;&gt;I_glass_works</title>
<g id="a_edge1"><a xlink:title="Chemicals &#45;&gt; Glass Works">
<path fill="none" stroke="#602c03" stroke-width="5" d="M1162.35,-1797.57C1187.01,-1814.01 1220.19,-1836.13 1254.78,-1859.18"/>
<polygon fill="#602c03" stroke="#602c03" stroke-width="5" points="1250.34,-1866.74 1271.84,-1870.56 1260.05,-1852.18 1250.34,-1866.74"/>
</a>
</g>
</g>
<!-- I_metal_workshop -->
<g id="metal_workshop" class="node">
<title>I_metal_workshop</title>
<g id="a_metal_workshop"><a xlink:href="industries.html#metal_workshop" xlink:title="Metal Workshop" target="_top">
<polygon fill="white" stroke="none" points="1280,-1457 1280,-1671 1582,-1671 1582,-1457 1280,-1457"/>
<polygon fill="none" stroke="#c1cdcd" points="1280,-1504 1280,-1671 1582,-1671 1582,-1504 1280,-1504"/>
<image xlink:href="static/img/industries/metal_workshop.png" width="300px" height="165px" preserveAspectRatio="xMinYMin meet" x="1281" y="-1670"/>
<polygon fill="none" stroke="#c1cdcd" points="1280,-1457 1280,-1504 1582,-1504 1582,-1457 1280,-1457"/>
<polygon fill="ghostwhite" stroke="none" points="1281,-1458 1281,-1503 1581,-1503 1581,-1458 1281,-1458"/>
<text text-anchor="start" x="1315" y="-1472.4" font-family="sans-serif" font-size="32.00">Metal Workshop</text>
</a>
</g>
</g>
<!-- C_chemicals&#45;&gt;I_metal_workshop -->
<g id="edge2" class="edge">
<title>C_chemicals&#45;&gt;I_metal_workshop</title>
<g id="a_edge2"><a xlink:title="Chemicals &#45;&gt; Metal Workshop">
<path fill="none" stroke="#602c03" stroke-width="5" d="M1162.35,-1742.43C1187.01,-1725.99 1220.19,-1703.87 1254.78,-1680.82"/>
<polygon fill="#602c03" stroke="#602c03" stroke-width="5" points="1260.05,-1687.82 1271.84,-1669.44 1250.34,-1673.26 1260.05,-1687.82"/>
</a>
</g>
</g>
<!-- C_goods -->
<g id="goods" class="node">
<title>C_goods</title>
<g id="a_goods"><a xlink:href="cargos.html#goods" xlink:title="&lt;TABLE&gt;" target="_top">
<polygon fill="#a84b60" stroke="#a84b60" points="1924,-1613 1653,-1613 1653,-1515 1924,-1515 1924,-1613"/>
<polygon fill="none" stroke="#a84b60" points="1664.5,-1565 1664.5,-1606 1913.5,-1606 1913.5,-1565 1664.5,-1565"/>
<text text-anchor="start" x="1741.5" y="-1577.4" font-family="sans-serif" font-size="32.00" fill="white">Goods</text>
<polygon fill="white" stroke="none" points="1664.5,-1522 1664.5,-1563 1913.5,-1563 1913.5,-1522 1664.5,-1522"/>
<polygon fill="none" stroke="#a84b60" points="1664.5,-1522 1664.5,-1563 1913.5,-1563 1913.5,-1522 1664.5,-1522"/>
<text text-anchor="start" x="1667.5" y="-1534.4" font-family="sans-serif" font-size="32.00">To General Store</text>
<polygon fill="none" stroke="#a84b60" points="1661,-1519 1661,-1609 1916,-1609 1916,-1519 1661,-1519"/>
</a>
</g>
</g>
<!-- I_glass_works&#45;&gt;C_goods -->
<g id="edge24" class="edge">
<title>I_glass_works&#45;&gt;C_goods</title>
<g id="a_edge24"><a xlink:title="Glass Works &#45;&gt; Goods">
<path fill="none" stroke="#a84b60" stroke-width="5" d="M1527.97,-1864.78C1598.81,-1782.68 1691.82,-1674.89 1745.09,-1613.15"/>
</a>
</g>
</g>
<!-- I_metal_workshop&#45;&gt;C_goods -->
<g id="edge26" class="edge">
<title>I_metal_workshop&#45;&gt;C_goods</title>
<g id="a_edge26"><a xlink:title="Metal Workshop &#45;&gt; Goods">
<path fill="none" stroke="#a84b60" stroke-width="5" d="M1590.26,-1564C1611.2,-1564 1632.5,-1564 1652.99,-1564"/>
</a>
</g>
</g>
<!-- C_kaolin -->
<g id="kaolin" class="node">
<title>C_kaolin</title>
<g id="a_kaolin"><a xlink:href="cargos.html#kaolin" xlink:title="&lt;TABLE&gt;" target="_top">
<polygon fill="#882034" stroke="#882034" points="1881,-1367.5 1696,-1367.5 1696,-1312.5 1881,-1312.5 1881,-1367.5"/>
<polygon fill="none" stroke="#882034" points="1707.5,-1319 1707.5,-1360 1870.5,-1360 1870.5,-1319 1707.5,-1319"/>
<text text-anchor="start" x="1710.5" y="-1331.4" font-family="sans-serif" font-size="32.00" fill="white">China Clay</text>
<polygon fill="none" stroke="#882034" points="1704,-1316.5 1704,-1363.5 1873,-1363.5 1873,-1316.5 1704,-1316.5"/>
</a>
</g>
</g>
<!-- C_kaolin&#45;&gt;I_port -->
<g id="edge3" class="edge">
<title>C_kaolin&#45;&gt;I_port</title>
<g id="a_edge3"><a xlink:title="China Clay &#45;&gt; Port">
<path fill="none" stroke="#882034" stroke-width="5" d="M1855.12,-1367.5C1887.3,-1380.99 1927.78,-1397.96 1968.19,-1414.9"/>
<polygon fill="#882034" stroke="#882034" stroke-width="5" points="1964.9,-1423 1986.73,-1422.66 1971.66,-1406.86 1964.9,-1423"/>
</a>
</g>
</g>
<!-- C_coal -->
<g id="coal" class="node">
<title>C_coal</title>
<g id="a_coal"><a xlink:href="cargos.html#coal" xlink:title="&lt;TABLE&gt;" target="_top">
<polygon fill="#a86052" stroke="#a86052" points="528.5,-1806.5 433.5,-1806.5 433.5,-1751.5 528.5,-1751.5 528.5,-1806.5"/>
<polygon fill="none" stroke="#a86052" points="445,-1758 445,-1799 518,-1799 518,-1758 445,-1758"/>
<text text-anchor="start" x="448" y="-1770.4" font-family="sans-serif" font-size="32.00" fill="white">Coal</text>
<polygon fill="none" stroke="#a86052" points="441.5,-1755.5 441.5,-1802.5 520.5,-1802.5 520.5,-1755.5 441.5,-1755.5"/>
</a>
</g>
</g>
<!-- I_integrated_steel_mill -->
<g id="integrated_steel_mill" class="node">
<title>I_integrated_steel_mill</title>
<g id="a_integrated_steel_mill"><a xlink:href="industries.html#integrated_steel_mill" xlink:title="Steel Mill" target="_top">
<polygon fill="white" stroke="none" points="655,-1457 655,-1671 957,-1671 957,-1457 655,-1457"/>
<polygon fill="none" stroke="#c1cdcd" points="655,-1504 655,-1671 957,-1671 957,-1504 655,-1504"/>
<image xlink:href="static/img/industries/integrated_steel_mill.png" width="300px" height="165px" preserveAspectRatio="xMinYMin meet" x="656" y="-1670"/>
<polygon fill="none" stroke="#c1cdcd" points="655,-1457 655,-1504 957,-1504 957,-1457 655,-1457"/>
<polygon fill="ghostwhite" stroke="none" points="656,-1458 656,-1503 956,-1503 956,-1458 656,-1458"/>
<text text-anchor="start" x="741" y="-1472.4" font-family="sans-serif" font-size="32.00">Steel Mill</text>
</a>
</g>
</g>
<!-- C_coal&#45;&gt;I_integrated_steel_mill -->
<g id="edge4" class="edge">
<title>C_coal&#45;&gt;I_integrated_steel_mill</title>
<g id="a_edge4"><a xlink:title="Coal &#45;&gt; Steel Mill">
<path fill="none" stroke="#a86052" stroke-width="5" d="M523.57,-1751.33C551.43,-1732.78 590.21,-1706.97 630.09,-1680.42"/>
<polygon fill="#a86052" stroke="#a86052" stroke-width="5" points="635.12,-1687.59 646.92,-1669.23 625.42,-1673.02 635.12,-1687.59"/>
</a>
</g>
</g>
<!-- C_steel -->
<g id="steel" class="node">
<title>C_steel</title>
<g id="a_steel"><a xlink:href="cargos.html#steel" xlink:title="&lt;TABLE&gt;" target="_top">
<polygon fill="#7d70a8" stroke="#7d70a8" points="1170.5,-1591.5 1069.5,-1591.5 1069.5,-1536.5 1170.5,-1536.5 1170.5,-1591.5"/>
<polygon fill="none" stroke="#7d70a8" points="1081,-1543 1081,-1584 1160,-1584 1160,-1543 1081,-1543"/>
<text text-anchor="start" x="1084" y="-1555.4" font-family="sans-serif" font-size="32.00" fill="white">Steel</text>
<polygon fill="none" stroke="#7d70a8" points="1077.5,-1540.5 1077.5,-1587.5 1162.5,-1587.5 1162.5,-1540.5 1077.5,-1540.5"/>
</a>
</g>
</g>
<!-- I_integrated_steel_mill&#45;&gt;C_steel -->
<g id="edge31" class="edge">
<title>I_integrated_steel_mill&#45;&gt;C_steel</title>
<g id="a_edge31"><a xlink:title="Steel Mill &#45;&gt; Steel">
<path fill="none" stroke="#7d70a8" stroke-width="5" d="M965.29,-1564C1003.15,-1564 1040.83,-1564 1069.41,-1564"/>
</a>
</g>
</g>
<!-- C_fish -->
<g id="fish" class="node">
<title>C_fish</title>
<g id="a_fish"><a xlink:href="cargos.html#fish" xlink:title="&lt;TABLE&gt;" target="_top">
<polygon fill="#5d45a8" stroke="#5d45a8" points="1164.5,-993.5 1075.5,-993.5 1075.5,-938.5 1164.5,-938.5 1164.5,-993.5"/>
<polygon fill="none" stroke="#5d45a8" points="1087,-945 1087,-986 1154,-986 1154,-945 1087,-945"/>
<text text-anchor="start" x="1090" y="-957.4" font-family="sans-serif" font-size="32.00" fill="white">Fish</text>
<polygon fill="none" stroke="#5d45a8" points="1083.5,-942.5 1083.5,-989.5 1156.5,-989.5 1156.5,-942.5 1083.5,-942.5"/>
</a>
</g>
</g>
<!-- I_fishing_harbour -->
<g id="fishing_harbour" class="node">
<title>I_fishing_harbour</title>
<g id="a_fishing_harbour"><a xlink:href="industries.html#fishing_harbour" xlink:title="Fishing Harbour" target="_top">
<polygon fill="white" stroke="none" points="1280,-859 1280,-1073 1582,-1073 1582,-859 1280,-859"/>
<polygon fill="none" stroke="#c1cdcd" points="1280,-906 1280,-1073 1582,-1073 1582,-906 1280,-906"/>
<image xlink:href="static/img/industries/fishing_harbour.png" width="300px" height="165px" preserveAspectRatio="xMinYMin meet" x="1281" y="-1072"/>
<polygon fill="none" stroke="#c1cdcd" points="1280,-859 1280,-906 1582,-906 1582,-859 1280,-859"/>
<polygon fill="ghostwhite" stroke="none" points="1281,-860 1281,-905 1581,-905 1581,-860 1281,-860"/>
<text text-anchor="start" x="1316.5" y="-874.4" font-family="sans-serif" font-size="32.00">Fishing Harbour</text>
</a>
</g>
</g>
<!-- C_fish&#45;&gt;I_fishing_harbour -->
<g id="edge5" class="edge">
<title>C_fish&#45;&gt;I_fishing_harbour</title>
<g id="a_edge5"><a xlink:title="Fish &#45;&gt; Fishing Harbour">
<path fill="none" stroke="#5d45a8" stroke-width="5" d="M1164.62,-966C1188.24,-966 1219.18,-966 1251.56,-966"/>
<polygon fill="#5d45a8" stroke="#5d45a8" stroke-width="5" points="1251.85,-974.75 1271.85,-966 1251.85,-957.25 1251.85,-974.75"/>
</a>
</g>
</g>
<!-- C_food -->
<g id="food" class="node">
<title>C_food</title>
<g id="a_food"><a xlink:href="cargos.html#food" xlink:title="&lt;TABLE&gt;" target="_top">
<polygon fill="#a84800" stroke="#a84800" points="1924,-894.5 1653,-894.5 1653,-753.5 1924,-753.5 1924,-894.5"/>
<polygon fill="none" stroke="#a84800" points="1664.5,-846 1664.5,-887 1913.5,-887 1913.5,-846 1664.5,-846"/>
<text text-anchor="start" x="1752" y="-858.4" font-family="sans-serif" font-size="32.00" fill="white">Food</text>
<polygon fill="white" stroke="none" points="1664.5,-803 1664.5,-844 1913.5,-844 1913.5,-803 1664.5,-803"/>
<polygon fill="none" stroke="#a84800" points="1664.5,-803 1664.5,-844 1913.5,-844 1913.5,-803 1664.5,-803"/>
<text text-anchor="start" x="1667.5" y="-815.4" font-family="sans-serif" font-size="32.00">To General Store</text>
<polygon fill="white" stroke="none" points="1664.5,-760 1664.5,-801 1913.5,-801 1913.5,-760 1664.5,-760"/>
<polygon fill="none" stroke="#a84800" points="1664.5,-760 1664.5,-801 1913.5,-801 1913.5,-760 1664.5,-760"/>
<text text-anchor="start" x="1730" y="-772.4" font-family="sans-serif" font-size="32.00">To Hotel</text>
<polygon fill="none" stroke="#a84800" points="1661,-757.5 1661,-890.5 1916,-890.5 1916,-757.5 1661,-757.5"/>
</a>
</g>
</g>
<!-- I_fishing_harbour&#45;&gt;C_food -->
<g id="edge23" class="edge">
<title>I_fishing_harbour&#45;&gt;C_food</title>
<g id="a_edge23"><a xlink:title="Fishing Harbour &#45;&gt; Food">
<path fill="none" stroke="#a84800" stroke-width="5" d="M1590.26,-902.79C1611.2,-894.42 1632.5,-885.91 1652.99,-877.73"/>
</a>
</g>
</g>
<!-- C_food&#45;&gt;I_port -->
<g id="edge6" class="edge">
<title>C_food&#45;&gt;I_port</title>
<g id="a_edge6"><a xlink:title="Food &#45;&gt; Port">
<path fill="none" stroke="#a84800" stroke-width="5" d="M1827.21,-894.54C1882.63,-998.21 1987.52,-1194.42 2061.61,-1333.02"/>
<polygon fill="#a84800" stroke="#a84800" stroke-width="5" points="2054.03,-1337.38 2071.17,-1350.9 2069.46,-1329.13 2054.03,-1337.38"/>
</a>
</g>
</g>
<!-- C_fruits -->
<g id="fruits" class="node">
<title>C_fruits</title>
<g id="a_fruits"><a xlink:href="cargos.html#fruits" xlink:title="&lt;TABLE&gt;" target="_top">
<polygon fill="#a88000" stroke="#a88000" points="1166,-222.5 1074,-222.5 1074,-167.5 1166,-167.5 1166,-222.5"/>
<polygon fill="none" stroke="#a88000" points="1085,-174 1085,-215 1155,-215 1155,-174 1085,-174"/>
<text text-anchor="start" x="1088" y="-186.4" font-family="sans-serif" font-size="32.00" fill="white">Fruit</text>
<polygon fill="none" stroke="#a88000" points="1082,-171.5 1082,-218.5 1158,-218.5 1158,-171.5 1082,-171.5"/>
</a>
</g>
</g>
<!-- I_cider_mill -->
<g id="cider_mill" class="node">
<title>I_cider_mill</title>
<g id="a_cider_mill"><a xlink:href="industries.html#cider_mill" xlink:title="Cider Mill" target="_top">
<polygon fill="white" stroke="none" points="1280,-4 1280,-218 1582,-218 1582,-4 1280,-4"/>
<polygon fill="none" stroke="#c1cdcd" points="1280,-51 1280,-218 1582,-218 1582,-51 1280,-51"/>
<image xlink:href="static/img/industries/cider_mill.png" width="300px" height="165px" preserveAspectRatio="xMinYMin meet" x="1281" y="-217"/>
<polygon fill="none" stroke="#c1cdcd" points="1280,-4 1280,-51 1582,-51 1582,-4 1280,-4"/>
<polygon fill="ghostwhite" stroke="none" points="1281,-5 1281,-50 1581,-50 1581,-5 1281,-5"/>
<text text-anchor="start" x="1364.5" y="-19.4" font-family="sans-serif" font-size="32.00">Cider Mill</text>
</a>
</g>
</g>
<!-- C_fruits&#45;&gt;I_cider_mill -->
<g id="edge7" class="edge">
<title>C_fruits&#45;&gt;I_cider_mill</title>
<g id="a_edge7"><a xlink:title="Fruit &#45;&gt; Cider Mill">
<path fill="none" stroke="#a88000" stroke-width="5" d="M1166.26,-182.7C1189.9,-176.27 1220.53,-167.94 1252.5,-159.25"/>
<polygon fill="#a88000" stroke="#a88000" stroke-width="5" points="1254.98,-167.65 1271.98,-153.96 1250.39,-150.76 1254.98,-167.65"/>
</a>
</g>
</g>
<!-- I_cider_mill&#45;&gt;C_alcohol -->
<g id="edge15" class="edge">
<title>I_cider_mill&#45;&gt;C_alcohol</title>
<g id="a_edge15"><a xlink:title="Cider Mill &#45;&gt; Alcohol">
<path fill="none" stroke="#a80000" stroke-width="5" d="M1590.26,-111C1611.2,-111 1632.5,-111 1652.99,-111"/>
</a>
</g>
</g>
<!-- C_goods&#45;&gt;I_port -->
<g id="edge8" class="edge">
<title>C_goods&#45;&gt;I_port</title>
<g id="a_edge8"><a xlink:title="Goods &#45;&gt; Port">
<path fill="none" stroke="#a84b60" stroke-width="5" d="M1924.15,-1535.59C1938.2,-1532.63 1952.64,-1529.58 1967.07,-1526.54"/>
<polygon fill="#a84b60" stroke="#a84b60" stroke-width="5" points="1968.96,-1535.08 1986.72,-1522.39 1965.35,-1517.96 1968.96,-1535.08"/>
</a>
</g>
</g>
<!-- C_iron_ore -->
<g id="iron_ore" class="node">
<title>C_iron_ore</title>
<g id="a_iron_ore"><a xlink:href="cargos.html#iron_ore" xlink:title="&lt;TABLE&gt;" target="_top">
<polygon fill="#74581c" stroke="#74581c" points="554,-1591.5 408,-1591.5 408,-1536.5 554,-1536.5 554,-1591.5"/>
<polygon fill="none" stroke="#74581c" points="419,-1543 419,-1584 543,-1584 543,-1543 419,-1543"/>
<text text-anchor="start" x="422" y="-1555.4" font-family="sans-serif" font-size="32.00" fill="white">Iron Ore</text>
<polygon fill="none" stroke="#74581c" points="416,-1540.5 416,-1587.5 546,-1587.5 546,-1540.5 416,-1540.5"/>
</a>
</g>
</g>
<!-- C_iron_ore&#45;&gt;I_integrated_steel_mill -->
<g id="edge9" class="edge">
<title>C_iron_ore&#45;&gt;I_integrated_steel_mill</title>
<g id="a_edge9"><a xlink:title="Iron Ore &#45;&gt; Steel Mill">
<path fill="none" stroke="#74581c" stroke-width="5" d="M554.09,-1564C575.98,-1564 601.08,-1564 626.74,-1564"/>
<polygon fill="#74581c" stroke="#74581c" stroke-width="5" points="626.91,-1572.75 646.91,-1564 626.91,-1555.25 626.91,-1572.75"/>
</a>
</g>
</g>
<!-- C_livestock -->
<g id="livestock" class="node">
<title>C_livestock</title>
<g id="a_livestock"><a xlink:href="cargos.html#livestock" xlink:title="&lt;TABLE&gt;" target="_top">
<polygon fill="#004ca8" stroke="#004ca8" points="1200.5,-423.5 1039.5,-423.5 1039.5,-368.5 1200.5,-368.5 1200.5,-423.5"/>
<polygon fill="none" stroke="#004ca8" points="1051,-375 1051,-416 1190,-416 1190,-375 1051,-375"/>
<text text-anchor="start" x="1054" y="-387.4" font-family="sans-serif" font-size="32.00" fill="white">Livestock</text>
<polygon fill="none" stroke="#004ca8" points="1047.5,-372.5 1047.5,-419.5 1192.5,-419.5 1192.5,-372.5 1047.5,-372.5"/>
</a>
</g>
</g>
<!-- I_stockyard -->
<g id="stockyard" class="node">
<title>I_stockyard</title>
<g id="a_stockyard"><a xlink:href="industries.html#stockyard" xlink:title="Stockyard" target="_top">
<polygon fill="white" stroke="none" points="1280,-289 1280,-503 1582,-503 1582,-289 1280,-289"/>
<polygon fill="none" stroke="#c1cdcd" points="1280,-336 1280,-503 1582,-503 1582,-336 1280,-336"/>
<image xlink:href="static/img/industries/stockyard.png" width="300px" height="165px" preserveAspectRatio="xMinYMin meet" x="1281" y="-502"/>
<polygon fill="none" stroke="#c1cdcd" points="1280,-289 1280,-336 1582,-336 1582,-289 1280,-289"/>
<polygon fill="ghostwhite" stroke="none" points="1281,-290 1281,-335 1581,-335 1581,-290 1281,-290"/>
<text text-anchor="start" x="1360" y="-304.4" font-family="sans-serif" font-size="32.00">Stockyard</text>
</a>
</g>
</g>
<!-- C_livestock&#45;&gt;I_stockyard -->
<g id="edge10" class="edge">
<title>C_livestock&#45;&gt;I_stockyard</title>
<g id="a_edge10"><a xlink:title="Livestock &#45;&gt; Stockyard">
<path fill="none" stroke="#004ca8" stroke-width="5" d="M1200.58,-396C1216.49,-396 1233.81,-396 1251.55,-396"/>
<polygon fill="#004ca8" stroke="#004ca8" stroke-width="5" points="1251.72,-404.75 1271.72,-396 1251.72,-387.25 1251.72,-404.75"/>
</a>
</g>
</g>
<!-- I_stockyard&#45;&gt;C_food -->
<g id="edge32" class="edge">
<title>I_stockyard&#45;&gt;C_food</title>
<g id="a_edge32"><a xlink:title="Stockyard &#45;&gt; Food">
<path fill="none" stroke="#a84800" stroke-width="5" d="M1560,-507.09C1570.46,-517.58 1580.6,-528.3 1590,-539 1649.78,-607.08 1707.53,-693.61 1744.98,-753.37"/>
</a>
</g>
</g>
<!-- C_milk -->
<g id="milk" class="node">
<title>C_milk</title>
<g id="a_milk"><a xlink:href="cargos.html#milk" xlink:title="&lt;TABLE&gt;" target="_top">
<polygon fill="#505050" stroke="#505050" points="1162.5,-701.5 1077.5,-701.5 1077.5,-646.5 1162.5,-646.5 1162.5,-701.5"/>
<polygon fill="none" stroke="#505050" points="1089,-653 1089,-694 1152,-694 1152,-653 1089,-653"/>
<text text-anchor="start" x="1092" y="-665.4" font-family="sans-serif" font-size="32.00" fill="white">Milk</text>
<polygon fill="none" stroke="#505050" points="1085.5,-650.5 1085.5,-697.5 1154.5,-697.5 1154.5,-650.5 1085.5,-650.5"/>
</a>
</g>
</g>
<!-- I_dairy -->
<g id="dairy" class="node">
<title>I_dairy</title>
<g id="a_dairy"><a xlink:href="industries.html#dairy" xlink:title="Dairy" target="_top">
<polygon fill="white" stroke="none" points="1280,-574 1280,-788 1582,-788 1582,-574 1280,-574"/>
<polygon fill="none" stroke="#c1cdcd" points="1280,-621 1280,-788 1582,-788 1582,-621 1280,-621"/>
<image xlink:href="static/img/industries/dairy.png" width="300px" height="165px" preserveAspectRatio="xMinYMin meet" x="1281" y="-787"/>
<polygon fill="none" stroke="#c1cdcd" points="1280,-574 1280,-621 1582,-621 1582,-574 1280,-574"/>
<polygon fill="ghostwhite" stroke="none" points="1281,-575 1281,-620 1581,-620 1581,-575 1281,-575"/>
<text text-anchor="start" x="1393.5" y="-589.4" font-family="sans-serif" font-size="32.00">Dairy</text>
</a>
</g>
</g>
<!-- C_milk&#45;&gt;I_dairy -->
<g id="edge11" class="edge">
<title>C_milk&#45;&gt;I_dairy</title>
<g id="a_edge11"><a xlink:title="Milk &#45;&gt; Dairy">
<path fill="none" stroke="#505050" stroke-width="5" d="M1162.67,-674.94C1186.52,-675.48 1218.26,-676.2 1251.51,-676.96"/>
<polygon fill="#505050" stroke="#505050" stroke-width="5" points="1251.59,-685.71 1271.79,-677.42 1251.99,-668.22 1251.59,-685.71"/>
</a>
</g>
</g>
<!-- I_dairy&#45;&gt;C_food -->
<g id="edge18" class="edge">
<title>I_dairy&#45;&gt;C_food</title>
<g id="a_edge18"><a xlink:title="Dairy &#45;&gt; Food">
<path fill="none" stroke="#a84800" stroke-width="5" d="M1590.26,-744.66C1611.2,-753.08 1632.5,-761.65 1652.99,-769.89"/>
</a>
</g>
</g>
<!-- C_sand -->
<g id="sand" class="node">
<title>C_sand</title>
<g id="a_sand"><a xlink:href="cargos.html#sand" xlink:title="&lt;TABLE&gt;" target="_top">
<polygon fill="#468fa8" stroke="#468fa8" points="1172,-2003.5 1068,-2003.5 1068,-1948.5 1172,-1948.5 1172,-2003.5"/>
<polygon fill="none" stroke="#468fa8" points="1079,-1955 1079,-1996 1161,-1996 1161,-1955 1079,-1955"/>
<text text-anchor="start" x="1082" y="-1967.4" font-family="sans-serif" font-size="32.00" fill="white">Sand</text>
<polygon fill="none" stroke="#468fa8" points="1076,-1952.5 1076,-1999.5 1164,-1999.5 1164,-1952.5 1076,-1952.5"/>
</a>
</g>
</g>
<!-- C_sand&#45;&gt;I_glass_works -->
<g id="edge12" class="edge">
<title>C_sand&#45;&gt;I_glass_works</title>
<g id="a_edge12"><a xlink:title="Sand &#45;&gt; Glass Works">
<path fill="none" stroke="#468fa8" stroke-width="5" d="M1172.03,-1976C1194.52,-1976 1222.43,-1976 1251.5,-1976"/>
<polygon fill="#468fa8" stroke="#468fa8" stroke-width="5" points="1251.76,-1984.75 1271.76,-1976 1251.76,-1967.25 1251.76,-1984.75"/>
</a>
</g>
</g>
<!-- C_scrap_metal -->
<g id="scrap_metal" class="node">
<title>C_scrap_metal</title>
<g id="a_scrap_metal"><a xlink:href="cargos.html#scrap_metal" xlink:title="&lt;TABLE&gt;" target="_top">
<polygon fill="#a85050" stroke="#a85050" points="581,-1383.5 381,-1383.5 381,-1328.5 581,-1328.5 581,-1383.5"/>
<polygon fill="none" stroke="#a85050" points="392,-1335 392,-1376 570,-1376 570,-1335 392,-1335"/>
<text text-anchor="start" x="395" y="-1347.4" font-family="sans-serif" font-size="32.00" fill="white">Scrap Metal</text>
<polygon fill="none" stroke="#a85050" points="389,-1332.5 389,-1379.5 573,-1379.5 573,-1332.5 389,-1332.5"/>
</a>
</g>
</g>
<!-- C_scrap_metal&#45;&gt;I_integrated_steel_mill -->
<g id="edge13" class="edge">
<title>C_scrap_metal&#45;&gt;I_integrated_steel_mill</title>
<g id="a_edge13"><a xlink:title="Scrap Metal &#45;&gt; Steel Mill">
<path fill="none" stroke="#a85050" stroke-width="5" d="M524.89,-1383.62C552.6,-1401.46 590.68,-1425.98 629.84,-1451.2"/>
<polygon fill="#a85050" stroke="#a85050" stroke-width="5" points="625.11,-1458.56 646.66,-1462.03 634.58,-1443.85 625.11,-1458.56"/>
</a>
</g>
</g>
<!-- C_steel&#45;&gt;I_metal_workshop -->
<g id="edge14" class="edge">
<title>C_steel&#45;&gt;I_metal_workshop</title>
<g id="a_edge14"><a xlink:title="Steel &#45;&gt; Metal Workshop">
<path fill="none" stroke="#7d70a8" stroke-width="5" d="M1170.65,-1564C1193.42,-1564 1221.94,-1564 1251.68,-1564"/>
<polygon fill="#7d70a8" stroke="#7d70a8" stroke-width="5" points="1251.87,-1572.75 1271.87,-1564 1251.87,-1555.25 1251.87,-1572.75"/>
</a>
</g>
</g>
<!-- I_clay_pit -->
<g id="clay_pit" class="node">
<title>I_clay_pit</title>
<g id="a_clay_pit"><a xlink:href="industries.html#clay_pit" xlink:title="Clay Pit" target="_top">
<polygon fill="white" stroke="none" points="1280,-1144.5 1280,-1385.5 1582,-1385.5 1582,-1144.5 1280,-1144.5"/>
<polygon fill="none" stroke="#c1cdcd" points="1280,-1218 1280,-1385 1582,-1385 1582,-1218 1280,-1218"/>
<image xlink:href="static/img/industries/clay_pit.png" width="300px" height="165px" preserveAspectRatio="xMinYMin meet" x="1281" y="-1384"/>
<polygon fill="none" stroke="#c1cdcd" points="1280,-1144 1280,-1218 1582,-1218 1582,-1144 1280,-1144"/>
<polygon fill="ghostwhite" stroke="none" points="1281,-1145 1281,-1217 1581,-1217 1581,-1145 1281,-1145"/>
<text text-anchor="start" x="1376" y="-1186.4" font-family="sans-serif" font-size="32.00">Clay Pit</text>
<text text-anchor="start" x="1292.5" y="-1156" font-family="sans-serif" font-size="20.00">Requires Engineering Supplies</text>
</a>
</g>
</g>
<!-- I_clay_pit&#45;&gt;C_kaolin -->
<g id="edge16" class="edge">
<title>I_clay_pit&#45;&gt;C_kaolin</title>
<g id="a_edge16"><a xlink:title="Clay Pit &#45;&gt; China Clay">
<path fill="none" stroke="#882034" stroke-width="5" d="M1590.26,-1298.39C1626.39,-1306.01 1663.61,-1313.86 1695.85,-1320.66"/>
</a>
</g>
</g>
<!-- I_coal_mine -->
<g id="coal_mine" class="node">
<title>I_coal_mine</title>
<g id="a_coal_mine"><a xlink:href="industries.html#coal_mine" xlink:title="Coal Mine" target="_top">
<polygon fill="white" stroke="none" points="8,-1755.5 8,-1996.5 310,-1996.5 310,-1755.5 8,-1755.5"/>
<polygon fill="none" stroke="#c1cdcd" points="8,-1829 8,-1996 310,-1996 310,-1829 8,-1829"/>
<image xlink:href="static/img/industries/coal_mine.png" width="300px" height="165px" preserveAspectRatio="xMinYMin meet" x="9" y="-1995"/>
<polygon fill="none" stroke="#c1cdcd" points="8,-1755 8,-1829 310,-1829 310,-1755 8,-1755"/>
<polygon fill="ghostwhite" stroke="none" points="9,-1756 9,-1828 309,-1828 309,-1756 9,-1756"/>
<text text-anchor="start" x="86.5" y="-1797.4" font-family="sans-serif" font-size="32.00">Coal Mine</text>
<text text-anchor="start" x="20.5" y="-1767" font-family="sans-serif" font-size="20.00">Requires Engineering Supplies</text>
</a>
</g>
</g>
<!-- I_coal_mine&#45;&gt;C_coal -->
<g id="edge17" class="edge">
<title>I_coal_mine&#45;&gt;C_coal</title>
<g id="a_edge17"><a xlink:title="Coal Mine &#45;&gt; Coal">
<path fill="none" stroke="#a86052" stroke-width="5" d="M318.13,-1828.07C360.17,-1815.32 402.38,-1802.53 433.16,-1793.2"/>
</a>
</g>
</g>
<!-- I_dairy_farm -->
<g id="dairy_farm" class="node">
<title>I_dairy_farm</title>
<g id="a_dairy_farm"><a xlink:href="industries.html#dairy_farm" xlink:title="Dairy Farm" target="_top">
<polygon fill="white" stroke="none" points="655,-527.5 655,-768.5 957,-768.5 957,-527.5 655,-527.5"/>
<polygon fill="none" stroke="#c1cdcd" points="655,-601 655,-768 957,-768 957,-601 655,-601"/>
<image xlink:href="static/img/industries/dairy_farm.png" width="300px" height="165px" preserveAspectRatio="xMinYMin meet" x="656" y="-767"/>
<polygon fill="none" stroke="#c1cdcd" points="655,-527 655,-601 957,-601 957,-527 655,-527"/>
<polygon fill="ghostwhite" stroke="none" points="656,-528 656,-600 956,-600 956,-528 656,-528"/>
<text text-anchor="start" x="726.5" y="-569.4" font-family="sans-serif" font-size="32.00">Dairy Farm</text>
<text text-anchor="start" x="698.5" y="-539" font-family="sans-serif" font-size="20.00">Requires Farm Supplies</text>
</a>
</g>
</g>
<!-- I_dairy_farm&#45;&gt;C_livestock -->
<g id="edge19" class="edge">
<title>I_dairy_farm&#45;&gt;C_livestock</title>
<g id="a_edge19"><a xlink:title="Dairy Farm &#45;&gt; Livestock">
<path fill="none" stroke="#004ca8" stroke-width="5" d="M961.17,-523.48C1007.69,-485.9 1054.42,-448.16 1084.83,-423.6"/>
</a>
</g>
</g>
<!-- I_dairy_farm&#45;&gt;C_milk -->
<g id="edge20" class="edge">
<title>I_dairy_farm&#45;&gt;C_milk</title>
<g id="a_edge20"><a xlink:title="Dairy Farm &#45;&gt; Milk">
<path fill="none" stroke="#505050" stroke-width="5" d="M965.29,-661.19C1006.77,-664.65 1048.03,-668.09 1077.35,-670.53"/>
</a>
</g>
</g>
<!-- I_dredging_site -->
<g id="dredging_site" class="node">
<title>I_dredging_site</title>
<g id="a_dredging_site"><a xlink:href="industries.html#dredging_site" xlink:title="Dredging Site" target="_top">
<polygon fill="white" stroke="none" points="655,-1855.5 655,-2096.5 957,-2096.5 957,-1855.5 655,-1855.5"/>
<polygon fill="none" stroke="#c1cdcd" points="655,-1929 655,-2096 957,-2096 957,-1929 655,-1929"/>
<image xlink:href="static/img/industries/dredging_site.png" width="300px" height="165px" preserveAspectRatio="xMinYMin meet" x="656" y="-2095"/>
<polygon fill="none" stroke="#c1cdcd" points="655,-1855 655,-1929 957,-1929 957,-1855 655,-1855"/>
<polygon fill="ghostwhite" stroke="none" points="656,-1856 656,-1928 956,-1928 956,-1856 656,-1856"/>
<text text-anchor="start" x="708.5" y="-1897.4" font-family="sans-serif" font-size="32.00">Dredging Site</text>
<text text-anchor="start" x="667.5" y="-1867" font-family="sans-serif" font-size="20.00">Requires Engineering Supplies</text>
</a>
</g>
</g>
<!-- I_dredging_site&#45;&gt;C_sand -->
<g id="edge21" class="edge">
<title>I_dredging_site&#45;&gt;C_sand</title>
<g id="a_edge21"><a xlink:title="Dredging Site &#45;&gt; Sand">
<path fill="none" stroke="#468fa8" stroke-width="5" d="M965.29,-1976C1002.39,-1976 1039.33,-1976 1067.69,-1976"/>
</a>
</g>
</g>
<!-- I_fishing_grounds -->
<g id="fishing_grounds" class="node">
<title>I_fishing_grounds</title>
<g id="a_fishing_grounds"><a xlink:href="industries.html#fishing_grounds" xlink:title="Fishing Grounds" target="_top">
<polygon fill="white" stroke="none" points="655,-859 655,-1073 957,-1073 957,-859 655,-859"/>
<polygon fill="none" stroke="#c1cdcd" points="655,-906 655,-1073 957,-1073 957,-906 655,-906"/>
<image xlink:href="static/img/industries/fishing_grounds.png" width="300px" height="165px" preserveAspectRatio="xMinYMin meet" x="656" y="-1072"/>
<polygon fill="none" stroke="#c1cdcd" points="655,-859 655,-906 957,-906 957,-859 655,-859"/>
<polygon fill="ghostwhite" stroke="none" points="656,-860 656,-905 956,-905 956,-860 656,-860"/>
<text text-anchor="start" x="688.5" y="-874.4" font-family="sans-serif" font-size="32.00">Fishing Grounds</text>
</a>
</g>
</g>
<!-- I_fishing_grounds&#45;&gt;C_fish -->
<g id="edge22" class="edge">
<title>I_fishing_grounds&#45;&gt;C_fish</title>
<g id="a_edge22"><a xlink:title="Fishing Grounds &#45;&gt; Fish">
<path fill="none" stroke="#5d45a8" stroke-width="5" d="M965.29,-966C1005.86,-966 1046.23,-966 1075.41,-966"/>
</a>
</g>
</g>
<!-- I_iron_ore_mine -->
<g id="iron_ore_mine" class="node">
<title>I_iron_ore_mine</title>
<g id="a_iron_ore_mine"><a xlink:href="industries.html#iron_ore_mine" xlink:title="Iron Ore Mine" target="_top">
<polygon fill="white" stroke="none" points="8,-1443.5 8,-1684.5 310,-1684.5 310,-1443.5 8,-1443.5"/>
<polygon fill="none" stroke="#c1cdcd" points="8,-1517 8,-1684 310,-1684 310,-1517 8,-1517"/>
<image xlink:href="static/img/industries/iron_ore_mine.png" width="300px" height="165px" preserveAspectRatio="xMinYMin meet" x="9" y="-1683"/>
<polygon fill="none" stroke="#c1cdcd" points="8,-1443 8,-1517 310,-1517 310,-1443 8,-1443"/>
<polygon fill="ghostwhite" stroke="none" points="9,-1444 9,-1516 309,-1516 309,-1444 9,-1444"/>
<text text-anchor="start" x="60.5" y="-1485.4" font-family="sans-serif" font-size="32.00">Iron Ore Mine</text>
<text text-anchor="start" x="20.5" y="-1455" font-family="sans-serif" font-size="20.00">Requires Engineering Supplies</text>
</a>
</g>
</g>
<!-- I_iron_ore_mine&#45;&gt;C_iron_ore -->
<g id="edge25" class="edge">
<title>I_iron_ore_mine&#45;&gt;C_iron_ore</title>
<g id="a_edge25"><a xlink:title="Iron Ore Mine &#45;&gt; Iron Ore">
<path fill="none" stroke="#74581c" stroke-width="5" d="M318.13,-1564C349.46,-1564 380.89,-1564 407.61,-1564"/>
</a>
</g>
</g>
<!-- I_orchard_piggery -->
<g id="orchard_piggery" class="node">
<title>I_orchard_piggery</title>
<g id="a_orchard_piggery"><a xlink:href="industries.html#orchard_piggery" xlink:title="Orchard and Piggery" target="_top">
<polygon fill="white" stroke="none" points="652,-177.5 652,-418.5 960,-418.5 960,-177.5 652,-177.5"/>
<polygon fill="none" stroke="#c1cdcd" points="652,-251 652,-418 960,-418 960,-251 652,-251"/>
<image xlink:href="static/img/industries/orchard_piggery.png" width="306px" height="165px" preserveAspectRatio="xMinYMin meet" x="653" y="-417"/>
<polygon fill="none" stroke="#c1cdcd" points="652,-177 652,-251 960,-251 960,-177 652,-177"/>
<polygon fill="ghostwhite" stroke="none" points="653,-178 653,-250 959,-250 959,-178 653,-178"/>
<text text-anchor="start" x="658" y="-219.4" font-family="sans-serif" font-size="32.00">Orchard and Piggery</text>
<text text-anchor="start" x="698.5" y="-189" font-family="sans-serif" font-size="20.00">Requires Farm Supplies</text>
</a>
</g>
</g>
<!-- I_orchard_piggery&#45;&gt;C_fruits -->
<g id="edge27" class="edge">
<title>I_orchard_piggery&#45;&gt;C_fruits</title>
<g id="a_edge27"><a xlink:title="Orchard and Piggery &#45;&gt; Fruit">
<path fill="none" stroke="#a88000" stroke-width="5" d="M968.03,-244.84C1006.92,-232 1045.39,-219.3 1073.76,-209.93"/>
</a>
</g>
</g>
<!-- I_orchard_piggery&#45;&gt;C_livestock -->
<g id="edge28" class="edge">
<title>I_orchard_piggery&#45;&gt;C_livestock</title>
<g id="a_edge28"><a xlink:title="Orchard and Piggery &#45;&gt; Livestock">
<path fill="none" stroke="#004ca8" stroke-width="5" d="M968.03,-348.58C992.76,-356.35 1017.33,-364.06 1039.23,-370.94"/>
</a>
</g>
</g>
<!-- I_scrap_yard -->
<g id="scrap_yard" class="node">
<title>I_scrap_yard</title>
<g id="a_scrap_yard"><a xlink:href="industries.html#scrap_yard" xlink:title="Scrap Yard" target="_top">
<polygon fill="white" stroke="none" points="8,-1158 8,-1372 310,-1372 310,-1158 8,-1158"/>
<polygon fill="none" stroke="#c1cdcd" points="8,-1205 8,-1372 310,-1372 310,-1205 8,-1205"/>
<image xlink:href="static/img/industries/scrap_yard.png" width="300px" height="165px" preserveAspectRatio="xMinYMin meet" x="9" y="-1371"/>
<polygon fill="none" stroke="#c1cdcd" points="8,-1158 8,-1205 310,-1205 310,-1158 8,-1158"/>
<polygon fill="ghostwhite" stroke="none" points="9,-1159 9,-1204 309,-1204 309,-1159 9,-1159"/>
<text text-anchor="start" x="80.5" y="-1173.4" font-family="sans-serif" font-size="32.00">Scrap Yard</text>
</a>
</g>
</g>
<!-- I_scrap_yard&#45;&gt;C_scrap_metal -->
<g id="edge30" class="edge">
<title>I_scrap_yard&#45;&gt;C_scrap_metal</title>
<g id="a_edge30"><a xlink:title="Scrap Yard &#45;&gt; Scrap Metal">
<path fill="none" stroke="#a85050" stroke-width="5" d="M318.13,-1309.97C340.33,-1316.28 362.58,-1322.61 383.17,-1328.46"/>
</a>
</g>
</g>
</g>
</svg>
