<?xml version="1.0" encoding="UTF-8" standalone="no"?>
<?xml-stylesheet href="cargoflow_styles.css" type="text/css"?>
<!DOCTYPE svg PUBLIC "-//W3C//DTD SVG 1.1//EN"
 "http://www.w3.org/Graphics/SVG/1.1/DTD/svg11.dtd">
<!-- Generated by graphviz version 2.26.3 (20100126.1600)
 -->
<!-- Title: tropic_basic Pages: 1 -->
<svg width="2024pt" height="507pt"
 viewBox="0.00 0.00 2024.00 507.03" xmlns="http://www.w3.org/2000/svg" xmlns:xlink="http://www.w3.org/1999/xlink">
<g id="graph1" class="graph" transform="scale(1 1) rotate(0) translate(4 503.026)">
<title>tropic_basic</title>
<a xlink:title="Tropic Basic">
<polygon fill="white" stroke="white" points="-4,5 -4,-503.026 2021,-503.026 2021,5 -4,5"/>
</a>
<!-- C_alcohol -->
<g id="alcohol" class="node"><title>C_alcohol</title>
<a xlink:href="cargos.html#alcohol" xlink:title="Alcohol" target="_top">
<ellipse fill="none" stroke="black" cx="1023" cy="-450" rx="45.8622" ry="18"/>
<text text-anchor="middle" x="1023" y="-445.9" font-family="sans-serif" font-size="14.00">Alcohol</text>
</a>
</g>
<!-- I_general_store -->
<g id="general_store" class="node"><title>I_general_store</title>
<a xlink:href="industries.html#general_store" xlink:title="General Store" target="_top">
<polygon fill="none" stroke="black" points="1732,-327 1610,-327 1610,-291 1732,-291 1732,-327"/>
<text text-anchor="start" x="1622.5" y="-305.233" font-family="sans-serif" font-size="14.00">General Store</text>
</a>
</g>
<!-- C_alcohol&#45;&gt;I_general_store -->
<g id="edge2" class="edge"><title>C_alcohol&#45;&gt;I_general_store</title>
<a xlink:title="Alcohol &#45;&gt; General Store">
<path fill="none" stroke="black" d="M1058.53,-438.331C1075.76,-432.921 1096.83,-426.671 1116,-422 1317.22,-372.964 1372.27,-382.924 1574,-336 1582.47,-334.029 1591.32,-331.804 1600.07,-329.498"/>
<polygon fill="black" stroke="black" points="1601.13,-332.837 1609.89,-326.869 1599.32,-326.075 1601.13,-332.837"/>
</a>
</g>
<!-- I_hotel -->
<g id="hotel" class="node"><title>I_hotel</title>
<a xlink:href="industries.html#hotel" xlink:title="Hotel" target="_top">
<polygon fill="none" stroke="black" points="1702,-403 1640,-403 1640,-367 1702,-367 1702,-403"/>
<text text-anchor="start" x="1652.5" y="-381.233" font-family="sans-serif" font-size="14.00">Hotel</text>
</a>
</g>
<!-- C_alcohol&#45;&gt;I_hotel -->
<g id="edge4" class="edge"><title>C_alcohol&#45;&gt;I_hotel</title>
<a xlink:title="Alcohol &#45;&gt; Hotel">
<path fill="none" stroke="black" d="M1068.44,-446.584C1162.79,-439.316 1386.77,-421.161 1574,-399 1592.19,-396.847 1612.24,-394.029 1629.36,-391.486"/>
<polygon fill="black" stroke="black" points="1630.23,-394.894 1639.6,-389.946 1629.19,-387.972 1630.23,-394.894"/>
</a>
</g>
<!-- I_bulk_terminal -->
<g id="bulk_terminal" class="node"><title>I_bulk_terminal</title>
<a xlink:href="industries.html#bulk_terminal" xlink:title="Bulk Terminal" target="_top">
<polygon fill="none" stroke="black" points="1730,-479 1612,-479 1612,-443 1730,-443 1730,-479"/>
<text text-anchor="start" x="1624.5" y="-457.233" font-family="sans-serif" font-size="14.00">Bulk Terminal</text>
</a>
</g>
<!-- C_alcohol&#45;&gt;I_bulk_terminal -->
<g id="edge6" class="edge"><title>C_alcohol&#45;&gt;I_bulk_terminal</title>
<a xlink:title="Alcohol &#45;&gt; Bulk Terminal">
<path fill="none" stroke="black" d="M1069.08,-450.782C1181.1,-452.684 1468.21,-457.558 1601.32,-459.817"/>
<polygon fill="black" stroke="black" points="1601.34,-463.318 1611.4,-459.988 1601.46,-456.319 1601.34,-463.318"/>
</a>
</g>
<!-- CI_hotel_passengers -->
<g id="passengers" class="node"><title>CI_hotel_passengers</title>
<a xlink:href="cargos.html#passengers" xlink:title="Passengers" target="_top">
<ellipse fill="none" stroke="black" cx="1892" cy="-385" rx="64.1231" ry="18"/>
<text text-anchor="middle" x="1892" y="-380.9" font-family="sans-serif" font-size="14.00">Passengers</text>
</a>
</g>
<!-- I_hotel&#45;&gt;CI_hotel_passengers -->
<g id="edge66" class="edge"><title>I_hotel&#45;&gt;CI_hotel_passengers</title>
<a xlink:title="Hotel &#45;&gt; Passengers">
<path fill="none" stroke="black" d="M1702.2,-380.127C1732.84,-378.304 1780.69,-377.809 1820.68,-378.642"/>
<polygon fill="black" stroke="black" points="1820.84,-382.147 1830.93,-378.89 1821.01,-375.149 1820.84,-382.147"/>
</a>
</g>
<!-- C_manufacturing_supplies -->
<g id="manufacturing_supplies" class="node"><title>C_manufacturing_supplies</title>
<a xlink:href="cargos.html#manufacturing_supplies" xlink:title="Manufacturing Supplies" target="_top">
<ellipse fill="none" stroke="black" cx="1892" cy="-461" rx="123.188" ry="18"/>
<text text-anchor="middle" x="1892" y="-456.9" font-family="sans-serif" font-size="14.00">Manufacturing Supplies</text>
</a>
</g>
<!-- I_bulk_terminal&#45;&gt;C_manufacturing_supplies -->
<g id="edge46" class="edge"><title>I_bulk_terminal&#45;&gt;C_manufacturing_supplies</title>
<a xlink:title="Bulk Terminal &#45;&gt; Manufacturing Supplies">
<path fill="none" stroke="black" d="M1730.51,-461C1739.34,-461 1748.72,-461 1758.34,-461"/>
<polygon fill="black" stroke="black" points="1758.45,-464.5 1768.45,-461 1758.45,-457.5 1758.45,-464.5"/>
</a>
</g>
<!-- C_beans -->
<g id="beans" class="node"><title>C_beans</title>
<a xlink:href="cargos.html#beans" xlink:title="Beans" target="_top">
<ellipse fill="none" stroke="black" cx="1023" cy="-342" rx="40.9981" ry="18"/>
<text text-anchor="middle" x="1023" y="-337.9" font-family="sans-serif" font-size="14.00">Beans</text>
</a>
</g>
<!-- I_food_processor -->
<g id="food_processor" class="node"><title>I_food_processor</title>
<a xlink:href="industries.html#food_processor" xlink:title="Food Processing Plant" target="_top">
<polygon fill="none" stroke="black" points="1303,-357 1127,-357 1127,-321 1303,-321 1303,-357"/>
<text text-anchor="start" x="1139.5" y="-335.233" font-family="sans-serif" font-size="14.00">Food Processing Plant</text>
</a>
</g>
<!-- C_beans&#45;&gt;I_food_processor -->
<g id="edge8" class="edge"><title>C_beans&#45;&gt;I_food_processor</title>
<a xlink:title="Beans &#45;&gt; Food Processing Plant">
<path fill="none" stroke="black" d="M1064.19,-341.356C1079.79,-341.113 1098.29,-340.824 1116.89,-340.533"/>
<polygon fill="black" stroke="black" points="1116.98,-344.032 1126.92,-340.376 1116.87,-337.033 1116.98,-344.032"/>
</a>
</g>
<!-- C_food -->
<g id="food" class="node"><title>C_food</title>
<a xlink:href="cargos.html#food" xlink:title="Food" target="_top">
<ellipse fill="none" stroke="black" cx="1462" cy="-309" rx="34.0492" ry="18"/>
<text text-anchor="middle" x="1462" y="-304.9" font-family="sans-serif" font-size="14.00">Food</text>
</a>
</g>
<!-- I_food_processor&#45;&gt;C_food -->
<g id="edge64" class="edge"><title>I_food_processor&#45;&gt;C_food</title>
<a xlink:title="Food Processing Plant &#45;&gt; Food">
<path fill="none" stroke="black" d="M1303.13,-328.296C1342.21,-323.549 1386.46,-318.175 1418.31,-314.306"/>
<polygon fill="black" stroke="black" points="1419.11,-317.735 1428.62,-313.055 1418.27,-310.786 1419.11,-317.735"/>
</a>
</g>
<!-- C_chemicals -->
<g id="chemicals" class="node"><title>C_chemicals</title>
<a xlink:href="cargos.html#chemicals" xlink:title="Chemicals" target="_top">
<ellipse fill="none" stroke="black" cx="690" cy="-294" rx="59.7599" ry="18"/>
<text text-anchor="middle" x="690" y="-289.9" font-family="sans-serif" font-size="14.00">Chemicals</text>
</a>
</g>
<!-- C_chemicals&#45;&gt;I_bulk_terminal -->
<g id="edge12" class="edge"><title>C_chemicals&#45;&gt;I_bulk_terminal</title>
<a xlink:title="Chemicals &#45;&gt; Bulk Terminal">
<path fill="none" stroke="black" d="M697.7,-312.281C711.724,-343.293 744.439,-406.045 792,-439 879.189,-499.413 916.927,-499 1023,-499 1023,-499 1023,-499 1215,-499 1352.31,-499 1512.07,-481.678 1601.37,-470.425"/>
<polygon fill="black" stroke="black" points="1601.9,-473.886 1611.38,-469.152 1601.02,-466.942 1601.9,-473.886"/>
</a>
</g>
<!-- I_copper_refinery -->
<g id="copper_refinery" class="node"><title>I_copper_refinery</title>
<a xlink:href="industries.html#copper_refinery" xlink:title="Copper Refinery" target="_top">
<polygon fill="none" stroke="black" points="929,-46 793,-46 793,-10 929,-10 929,-46"/>
<text text-anchor="start" x="805.5" y="-24.2333" font-family="sans-serif" font-size="14.00">Copper Refinery</text>
</a>
</g>
<!-- C_chemicals&#45;&gt;I_copper_refinery -->
<g id="edge10" class="edge"><title>C_chemicals&#45;&gt;I_copper_refinery</title>
<a xlink:title="Chemicals &#45;&gt; Copper Refinery">
<path fill="none" stroke="black" d="M694.794,-276.024C706.138,-236.145 737.817,-138.763 792,-75 799.477,-66.2011 808.982,-58.327 818.529,-51.6543"/>
<polygon fill="black" stroke="black" points="820.487,-54.5554 826.88,-46.1065 816.614,-48.7248 820.487,-54.5554"/>
</a>
</g>
<!-- C_copper -->
<g id="copper" class="node"><title>C_copper</title>
<a xlink:href="cargos.html#copper" xlink:title="Copper" target="_top">
<ellipse fill="none" stroke="black" cx="1023" cy="-18" rx="45.1673" ry="18"/>
<text text-anchor="middle" x="1023" y="-13.9" font-family="sans-serif" font-size="14.00">Copper</text>
</a>
</g>
<!-- I_copper_refinery&#45;&gt;C_copper -->
<g id="edge56" class="edge"><title>I_copper_refinery&#45;&gt;C_copper</title>
<a xlink:title="Copper Refinery &#45;&gt; Copper">
<path fill="none" stroke="black" d="M929.233,-23.7881C942.204,-22.9874 955.623,-22.1591 968.114,-21.3881"/>
<polygon fill="black" stroke="black" points="968.592,-24.8653 978.358,-20.7557 968.161,-17.8786 968.592,-24.8653"/>
</a>
</g>
<!-- C_coffee -->
<g id="coffee" class="node"><title>C_coffee</title>
<a xlink:href="cargos.html#coffee" xlink:title="Coffee" target="_top">
<ellipse fill="none" stroke="black" cx="1023" cy="-234" rx="41.8891" ry="18"/>
<text text-anchor="middle" x="1023" y="-229.9" font-family="sans-serif" font-size="14.00">Coffee</text>
</a>
</g>
<!-- I_port -->
<g id="port" class="node"><title>I_port</title>
<a xlink:href="industries.html#port" xlink:title="Port" target="_top">
<polygon fill="none" stroke="black" points="1242,-91 1188,-91 1188,-55 1242,-55 1242,-91"/>
<text text-anchor="start" x="1200.5" y="-69.2333" font-family="sans-serif" font-size="14.00">Port</text>
</a>
</g>
<!-- C_coffee&#45;&gt;I_port -->
<g id="edge14" class="edge"><title>C_coffee&#45;&gt;I_port</title>
<a xlink:title="Coffee &#45;&gt; Port">
<path fill="none" stroke="black" d="M1057.32,-223.101C1065.63,-219.122 1073.87,-213.858 1080,-207 1112.88,-170.217 1080.33,-136.084 1116,-102 1132.5,-86.2278 1157.12,-78.9723 1177.67,-75.6627"/>
<polygon fill="black" stroke="black" points="1178.25,-79.1168 1187.68,-74.301 1177.3,-72.1806 1178.25,-79.1168"/>
</a>
</g>
<!-- C_engineering_supplies -->
<g id="engineering_supplies" class="node"><title>C_engineering_supplies</title>
<a xlink:href="cargos.html#engineering_supplies" xlink:title="Engineering Supplies" target="_top">
<ellipse fill="none" stroke="black" cx="1462" cy="-73" rx="111.876" ry="18"/>
<text text-anchor="middle" x="1462" y="-68.9" font-family="sans-serif" font-size="14.00">Engineering Supplies</text>
</a>
</g>
<!-- I_port&#45;&gt;C_engineering_supplies -->
<g id="edge76" class="edge"><title>I_port&#45;&gt;C_engineering_supplies</title>
<a xlink:title="Port &#45;&gt; Engineering Supplies">
<path fill="none" stroke="black" d="M1242.38,-73C1266.37,-73 1303.04,-73 1339.58,-73"/>
<polygon fill="black" stroke="black" points="1339.87,-76.5001 1349.87,-73 1339.87,-69.5001 1339.87,-76.5001"/>
</a>
</g>
<!-- C_goods -->
<g id="goods" class="node"><title>C_goods</title>
<a xlink:href="cargos.html#goods" xlink:title="Goods" target="_top">
<ellipse fill="none" stroke="black" cx="1462" cy="-191" rx="40.9981" ry="18"/>
<text text-anchor="middle" x="1462" y="-186.9" font-family="sans-serif" font-size="14.00">Goods</text>
</a>
</g>
<!-- I_port&#45;&gt;C_goods -->
<g id="edge78" class="edge"><title>I_port&#45;&gt;C_goods</title>
<a xlink:title="Port &#45;&gt; Goods">
<path fill="none" stroke="black" d="M1242.13,-78.9519C1262.4,-83.8728 1290.54,-91.7165 1314,-102 1357.05,-120.875 1402.88,-150.012 1431.94,-169.762"/>
<polygon fill="black" stroke="black" points="1430.17,-172.794 1440.4,-175.568 1434.13,-167.023 1430.17,-172.794"/>
</a>
</g>
<!-- C_copper&#45;&gt;I_port -->
<g id="edge16" class="edge"><title>C_copper&#45;&gt;I_port</title>
<a xlink:title="Copper &#45;&gt; Port">
<path fill="none" stroke="black" d="M1060.02,-28.6046C1093.99,-38.336 1144.05,-52.6761 1178.01,-62.4046"/>
<polygon fill="black" stroke="black" points="1177.42,-65.8763 1188,-65.2656 1179.35,-59.147 1177.42,-65.8763"/>
</a>
</g>
<!-- C_copper_ore -->
<g id="copper_ore" class="node"><title>C_copper_ore</title>
<a xlink:href="cargos.html#copper_ore" xlink:title="Copper Ore" target="_top">
<ellipse fill="none" stroke="black" cx="690" cy="-28" rx="66.0138" ry="18"/>
<text text-anchor="middle" x="690" y="-23.9" font-family="sans-serif" font-size="14.00">Copper Ore</text>
</a>
</g>
<!-- C_copper_ore&#45;&gt;I_copper_refinery -->
<g id="edge18" class="edge"><title>C_copper_ore&#45;&gt;I_copper_refinery</title>
<a xlink:title="Copper Ore &#45;&gt; Copper Refinery">
<path fill="none" stroke="black" d="M756.113,-28C764.853,-28 773.879,-28 782.798,-28"/>
<polygon fill="black" stroke="black" points="782.802,-31.5001 792.802,-28 782.802,-24.5001 782.802,-31.5001"/>
</a>
</g>
<!-- C_farm_supplies -->
<g id="farm_supplies" class="node"><title>C_farm_supplies</title>
<a xlink:href="cargos.html#farm_supplies" xlink:title="Farm Supplies" target="_top">
<ellipse fill="none" stroke="black" cx="294" cy="-294" rx="77.8268" ry="18"/>
<text text-anchor="middle" x="294" y="-289.9" font-family="sans-serif" font-size="14.00">Farm Supplies</text>
</a>
</g>
<!-- C_fish -->
<g id="fish" class="node"><title>C_fish</title>
<a xlink:href="cargos.html#fish" xlink:title="Fish" target="_top">
<ellipse fill="none" stroke="black" cx="1023" cy="-180" rx="30.0736" ry="18"/>
<text text-anchor="middle" x="1023" y="-175.9" font-family="sans-serif" font-size="14.00">Fish</text>
</a>
</g>
<!-- I_fishing_harbour -->
<g id="fishing_harbour" class="node"><title>I_fishing_harbour</title>
<a xlink:href="industries.html#fishing_harbour" xlink:title="Fishing Harbour" target="_top">
<polygon fill="none" stroke="black" points="1313,-233.5 1117,-233.5 1117,-182.5 1313,-182.5 1313,-233.5"/>
<text text-anchor="start" x="1161" y="-214.233" font-family="sans-serif" font-size="14.00">Fishing Harbour</text>
<text text-anchor="start" x="1129.5" y="-193.733" font-family="sans-serif" font-size="14.00">[Manufacturing Supplies]</text>
</a>
</g>
<!-- C_fish&#45;&gt;I_fishing_harbour -->
<g id="edge20" class="edge"><title>C_fish&#45;&gt;I_fishing_harbour</title>
<a xlink:title="Fish &#45;&gt; Fishing Harbour">
<path fill="none" stroke="black" d="M1053,-184.375C1067.8,-186.533 1086.65,-189.282 1106.22,-192.136"/>
<polygon fill="black" stroke="black" points="1105.79,-195.61 1116.19,-193.59 1106.8,-188.683 1105.79,-195.61"/>
</a>
</g>
<!-- I_fishing_harbour&#45;&gt;C_food -->
<g id="edge60" class="edge"><title>I_fishing_harbour&#45;&gt;C_food</title>
<a xlink:title="Fishing Harbour &#45;&gt; Food">
<path fill="none" stroke="black" d="M1285.52,-233.006C1295.13,-236.598 1304.83,-240.325 1314,-244 1353.13,-259.69 1397.31,-279.351 1427.13,-292.919"/>
<polygon fill="black" stroke="black" points="1425.73,-296.128 1436.28,-297.097 1428.64,-289.76 1425.73,-296.128"/>
</a>
</g>
<!-- C_food&#45;&gt;I_general_store -->
<g id="edge22" class="edge"><title>C_food&#45;&gt;I_general_store</title>
<a xlink:title="Food &#45;&gt; General Store">
<path fill="none" stroke="black" d="M1496.04,-309C1524.05,-309 1564.69,-309 1599.75,-309"/>
<polygon fill="black" stroke="black" points="1599.95,-312.5 1609.95,-309 1599.95,-305.5 1599.95,-312.5"/>
</a>
</g>
<!-- C_food&#45;&gt;I_hotel -->
<g id="edge24" class="edge"><title>C_food&#45;&gt;I_hotel</title>
<a xlink:title="Food &#45;&gt; Hotel">
<path fill="none" stroke="black" d="M1490.19,-319.25C1526.29,-332.378 1589.11,-355.223 1630.38,-370.229"/>
<polygon fill="black" stroke="black" points="1629.27,-373.549 1639.86,-373.677 1631.66,-366.97 1629.27,-373.549"/>
</a>
</g>
<!-- C_food&#45;&gt;I_bulk_terminal -->
<g id="edge26" class="edge"><title>C_food&#45;&gt;I_bulk_terminal</title>
<a xlink:title="Food &#45;&gt; Bulk Terminal">
<path fill="none" stroke="black" d="M1482.04,-323.574C1518.05,-349.767 1594.05,-405.033 1637.9,-436.925"/>
<polygon fill="black" stroke="black" points="1636.07,-439.925 1646.22,-442.976 1640.19,-434.264 1636.07,-439.925"/>
</a>
</g>
<!-- C_fruits -->
<g id="fruits" class="node"><title>C_fruits</title>
<a xlink:href="cargos.html#fruits" xlink:title="Fruit" target="_top">
<ellipse fill="none" stroke="black" cx="1023" cy="-396" rx="34.0492" ry="18"/>
<text text-anchor="middle" x="1023" y="-391.9" font-family="sans-serif" font-size="14.00">Fruit</text>
</a>
</g>
<!-- C_fruits&#45;&gt;I_food_processor -->
<g id="edge28" class="edge"><title>C_fruits&#45;&gt;I_food_processor</title>
<a xlink:title="Fruit &#45;&gt; Food Processing Plant">
<path fill="none" stroke="black" d="M1053,-387.094C1077.47,-379.83 1113.02,-369.274 1144.6,-359.901"/>
<polygon fill="black" stroke="black" points="1145.66,-363.236 1154.25,-357.035 1143.67,-356.526 1145.66,-363.236"/>
</a>
</g>
<!-- C_goods&#45;&gt;I_general_store -->
<g id="edge30" class="edge"><title>C_goods&#45;&gt;I_general_store</title>
<a xlink:title="Goods &#45;&gt; General Store">
<path fill="none" stroke="black" d="M1487.21,-205.234C1522.61,-225.221 1587.47,-261.837 1629.9,-285.795"/>
<polygon fill="black" stroke="black" points="1628.43,-288.984 1638.86,-290.852 1631.87,-282.888 1628.43,-288.984"/>
</a>
</g>
<!-- C_grain -->
<g id="grain" class="node"><title>C_grain</title>
<a xlink:href="cargos.html#grain" xlink:title="Grain" target="_top">
<ellipse fill="none" stroke="black" cx="1023" cy="-288" rx="38.2185" ry="18"/>
<text text-anchor="middle" x="1023" y="-283.9" font-family="sans-serif" font-size="14.00">Grain</text>
</a>
</g>
<!-- I_flour_mill -->
<g id="flour_mill" class="node"><title>I_flour_mill</title>
<a xlink:href="industries.html#flour_mill" xlink:title="Flour Mill" target="_top">
<polygon fill="none" stroke="black" points="1313,-303.5 1117,-303.5 1117,-252.5 1313,-252.5 1313,-303.5"/>
<text text-anchor="start" x="1183.5" y="-284.233" font-family="sans-serif" font-size="14.00">Flour Mill</text>
<text text-anchor="start" x="1129.5" y="-263.733" font-family="sans-serif" font-size="14.00">[Manufacturing Supplies]</text>
</a>
</g>
<!-- C_grain&#45;&gt;I_flour_mill -->
<g id="edge32" class="edge"><title>C_grain&#45;&gt;I_flour_mill</title>
<a xlink:title="Grain &#45;&gt; Flour Mill">
<path fill="none" stroke="black" d="M1060.93,-286.024C1074.24,-285.331 1089.92,-284.514 1106.11,-283.671"/>
<polygon fill="black" stroke="black" points="1106.43,-287.16 1116.23,-283.144 1106.07,-280.169 1106.43,-287.16"/>
</a>
</g>
<!-- I_flour_mill&#45;&gt;C_food -->
<g id="edge62" class="edge"><title>I_flour_mill&#45;&gt;C_food</title>
<a xlink:title="Flour Mill &#45;&gt; Food">
<path fill="none" stroke="black" d="M1313.69,-290.386C1350.07,-294.952 1389.45,-299.894 1418.48,-303.538"/>
<polygon fill="black" stroke="black" points="1418.32,-307.046 1428.68,-304.818 1419.19,-300.1 1418.32,-307.046"/>
</a>
</g>
<!-- C_livestock -->
<g id="livestock" class="node"><title>C_livestock</title>
<a xlink:href="cargos.html#livestock" xlink:title="Livestock" target="_top">
<ellipse fill="none" stroke="black" cx="1023" cy="-126" rx="55.7874" ry="18"/>
<text text-anchor="middle" x="1023" y="-121.9" font-family="sans-serif" font-size="14.00">Livestock</text>
</a>
</g>
<!-- I_stockyard -->
<g id="stockyard" class="node"><title>I_stockyard</title>
<a xlink:href="industries.html#stockyard" xlink:title="Stockyard" target="_top">
<polygon fill="none" stroke="black" points="1313,-161.5 1117,-161.5 1117,-110.5 1313,-110.5 1313,-161.5"/>
<text text-anchor="start" x="1181" y="-142.233" font-family="sans-serif" font-size="14.00">Stockyard</text>
<text text-anchor="start" x="1129.5" y="-121.733" font-family="sans-serif" font-size="14.00">[Manufacturing Supplies]</text>
</a>
</g>
<!-- C_livestock&#45;&gt;I_stockyard -->
<g id="edge34" class="edge"><title>C_livestock&#45;&gt;I_stockyard</title>
<a xlink:title="Livestock &#45;&gt; Stockyard">
<path fill="none" stroke="black" d="M1078.79,-128.906C1087.49,-129.359 1096.73,-129.84 1106.14,-130.33"/>
<polygon fill="black" stroke="black" points="1106.22,-133.839 1116.39,-130.864 1106.59,-126.849 1106.22,-133.839"/>
</a>
</g>
<!-- I_stockyard&#45;&gt;C_food -->
<g id="edge84" class="edge"><title>I_stockyard&#45;&gt;C_food</title>
<a xlink:title="Stockyard &#45;&gt; Food">
<path fill="none" stroke="black" d="M1292.21,-161.001C1299.87,-164.827 1307.29,-169.147 1314,-174 1334.48,-188.8 1332.1,-200.164 1350,-218 1376.39,-244.304 1409.92,-270.761 1433.39,-288.313"/>
<polygon fill="black" stroke="black" points="1431.43,-291.217 1441.55,-294.36 1435.6,-285.594 1431.43,-291.217"/>
</a>
</g>
<!-- C_nitrates -->
<g id="nitrates" class="node"><title>C_nitrates</title>
<a xlink:href="cargos.html#nitrates" xlink:title="Nitrates" target="_top">
<ellipse fill="none" stroke="black" cx="294" cy="-240" rx="50.0315" ry="18"/>
<text text-anchor="middle" x="294" y="-235.9" font-family="sans-serif" font-size="14.00">Nitrates</text>
</a>
</g>
<!-- I_chemical_plant -->
<g id="chemical_plant" class="node"><title>I_chemical_plant</title>
<a xlink:href="industries.html#chemical_plant" xlink:title="Chemical Plant" target="_top">
<polygon fill="none" stroke="black" points="562,-312 434,-312 434,-276 562,-276 562,-312"/>
<text text-anchor="start" x="446.5" y="-290.233" font-family="sans-serif" font-size="14.00">Chemical Plant</text>
</a>
</g>
<!-- C_nitrates&#45;&gt;I_chemical_plant -->
<g id="edge36" class="edge"><title>C_nitrates&#45;&gt;I_chemical_plant</title>
<a xlink:title="Nitrates &#45;&gt; Chemical Plant">
<path fill="none" stroke="black" d="M334.304,-250.669C359.87,-257.436 393.718,-266.396 423.999,-274.411"/>
<polygon fill="black" stroke="black" points="423.127,-277.801 433.689,-276.977 424.918,-271.034 423.127,-277.801"/>
</a>
</g>
<!-- I_chemical_plant&#45;&gt;C_chemicals -->
<g id="edge48" class="edge"><title>I_chemical_plant&#45;&gt;C_chemicals</title>
<a xlink:title="Chemical Plant &#45;&gt; Chemicals">
<path fill="none" stroke="black" d="M562.2,-294C580.596,-294 600.749,-294 619.502,-294"/>
<polygon fill="black" stroke="black" points="619.756,-297.5 629.756,-294 619.756,-290.5 619.756,-297.5"/>
</a>
</g>
<!-- C_oil -->
<g id="oil" class="node"><title>C_oil</title>
<a xlink:href="cargos.html#oil" xlink:title="Oil" target="_top">
<ellipse fill="none" stroke="black" cx="294" cy="-348" rx="27" ry="18"/>
<text text-anchor="middle" x="294" y="-343.9" font-family="sans-serif" font-size="14.00">Oil</text>
</a>
</g>
<!-- C_oil&#45;&gt;I_chemical_plant -->
<g id="edge38" class="edge"><title>C_oil&#45;&gt;I_chemical_plant</title>
<a xlink:title="Oil &#45;&gt; Chemical Plant">
<path fill="none" stroke="black" d="M319.424,-341.27C345.505,-334.366 387.325,-323.296 423.941,-313.604"/>
<polygon fill="black" stroke="black" points="424.846,-316.985 433.617,-311.042 423.055,-310.218 424.846,-316.985"/>
</a>
</g>
<!-- C_wool -->
<g id="wool" class="node"><title>C_wool</title>
<a xlink:href="cargos.html#wool" xlink:title="Wool" target="_top">
<ellipse fill="none" stroke="black" cx="1023" cy="-72" rx="34.9399" ry="18"/>
<text text-anchor="middle" x="1023" y="-67.9" font-family="sans-serif" font-size="14.00">Wool</text>
</a>
</g>
<!-- C_wool&#45;&gt;I_port -->
<g id="edge40" class="edge"><title>C_wool&#45;&gt;I_port</title>
<a xlink:title="Wool &#45;&gt; Port">
<path fill="none" stroke="black" d="M1058.66,-72.1857C1092.57,-72.3623 1143.36,-72.6269 1177.78,-72.8061"/>
<polygon fill="black" stroke="black" points="1177.88,-76.3066 1187.89,-72.8588 1177.91,-69.3067 1177.88,-76.3066"/>
</a>
</g>
<!-- I_arable_farm -->
<g id="arable_farm" class="node"><title>I_arable_farm</title>
<a xlink:href="industries.html#arable_farm" xlink:title="Arable Farm" target="_top">
<polygon fill="none" stroke="black" points="926,-357.5 796,-357.5 796,-306.5 926,-306.5 926,-357.5"/>
<text text-anchor="start" x="820" y="-338.233" font-family="sans-serif" font-size="14.00">Arable Farm</text>
<text text-anchor="start" x="808.5" y="-317.733" font-family="sans-serif" font-size="14.00">[Farm Supplies]</text>
</a>
</g>
<!-- I_arable_farm&#45;&gt;C_beans -->
<g id="edge42" class="edge"><title>I_arable_farm&#45;&gt;C_beans</title>
<a xlink:title="Arable Farm &#45;&gt; Beans">
<path fill="none" stroke="black" d="M926.892,-336.067C941.976,-336.999 957.786,-337.974 972.126,-338.86"/>
<polygon fill="black" stroke="black" points="972.081,-342.363 982.277,-339.486 972.512,-335.377 972.081,-342.363"/>
</a>
</g>
<!-- I_arable_farm&#45;&gt;C_grain -->
<g id="edge44" class="edge"><title>I_arable_farm&#45;&gt;C_grain</title>
<a xlink:title="Arable Farm &#45;&gt; Grain">
<path fill="none" stroke="black" d="M926.892,-314.104C944.882,-309.217 963.904,-304.051 980.234,-299.615"/>
<polygon fill="black" stroke="black" points="981.289,-302.956 990.022,-296.957 979.454,-296.201 981.289,-302.956"/>
</a>
</g>
<!-- I_coffee_estate -->
<g id="coffee_estate" class="node"><title>I_coffee_estate</title>
<a xlink:href="industries.html#coffee_estate" xlink:title="Coffee Estate" target="_top">
<polygon fill="none" stroke="black" points="926,-280.5 796,-280.5 796,-229.5 926,-229.5 926,-280.5"/>
<text text-anchor="start" x="814.5" y="-261.233" font-family="sans-serif" font-size="14.00">Coffee Estate</text>
<text text-anchor="start" x="808.5" y="-240.733" font-family="sans-serif" font-size="14.00">[Farm Supplies]</text>
</a>
</g>
<!-- I_coffee_estate&#45;&gt;C_coffee -->
<g id="edge50" class="edge"><title>I_coffee_estate&#45;&gt;C_coffee</title>
<a xlink:title="Coffee Estate &#45;&gt; Coffee">
<path fill="none" stroke="black" d="M926.892,-246.458C941.976,-244.503 957.786,-242.454 972.126,-240.595"/>
<polygon fill="black" stroke="black" points="972.81,-244.035 982.277,-239.279 971.91,-237.094 972.81,-244.035"/>
</a>
</g>
<!-- I_coffee_estate&#45;&gt;C_fruits -->
<g id="edge52" class="edge"><title>I_coffee_estate&#45;&gt;C_fruits</title>
<a xlink:title="Coffee Estate &#45;&gt; Fruit">
<path fill="none" stroke="black" d="M908.924,-280.038C916.537,-285.319 923.9,-291.337 930,-298 953.893,-324.094 940.648,-344.321 966,-369 971.34,-374.199 977.87,-378.541 984.579,-382.116"/>
<polygon fill="black" stroke="black" points="983.216,-385.344 993.745,-386.523 986.249,-379.035 983.216,-385.344"/>
</a>
</g>
<!-- I_copper_mine -->
<g id="copper_mine" class="node"><title>I_copper_mine</title>
<a xlink:href="industries.html#copper_mine" xlink:title="Copper Mine" target="_top">
<polygon fill="none" stroke="black" points="588,-53.5 408,-53.5 408,-2.5 588,-2.5 588,-53.5"/>
<text text-anchor="start" x="454.5" y="-34.2333" font-family="sans-serif" font-size="14.00">Copper Mine</text>
<text text-anchor="start" x="420.5" y="-13.7333" font-family="sans-serif" font-size="14.00">[Engineering Supplies]</text>
</a>
</g>
<!-- I_copper_mine&#45;&gt;C_copper_ore -->
<g id="edge54" class="edge"><title>I_copper_mine&#45;&gt;C_copper_ore</title>
<a xlink:title="Copper Mine &#45;&gt; Copper Ore">
<path fill="none" stroke="black" d="M588.097,-28C596.686,-28 605.339,-28 613.778,-28"/>
<polygon fill="black" stroke="black" points="613.948,-31.5001 623.948,-28 613.948,-24.5001 613.948,-31.5001"/>
</a>
</g>
<!-- I_fishing_grounds -->
<g id="fishing_grounds" class="node"><title>I_fishing_grounds</title>
<a xlink:href="industries.html#fishing_grounds" xlink:title="Fishing Grounds" target="_top">
<polygon fill="none" stroke="black" points="929,-198 793,-198 793,-162 929,-162 929,-198"/>
<text text-anchor="start" x="805.5" y="-176.233" font-family="sans-serif" font-size="14.00">Fishing Grounds</text>
</a>
</g>
<!-- I_fishing_grounds&#45;&gt;C_fish -->
<g id="edge58" class="edge"><title>I_fishing_grounds&#45;&gt;C_fish</title>
<a xlink:title="Fishing Grounds &#45;&gt; Fish">
<path fill="none" stroke="black" d="M929.703,-180C947.671,-180 966.466,-180 982.438,-180"/>
<polygon fill="black" stroke="black" points="982.49,-183.5 992.49,-180 982.49,-176.5 982.49,-183.5"/>
</a>
</g>
<!-- CI_hotel_passengers&#45;&gt;I_hotel -->
<g id="edge68" class="edge"><title>CI_hotel_passengers&#45;&gt;I_hotel</title>
<a xlink:title="Passengers &#45;&gt; Hotel">
<path fill="none" stroke="black" d="M1830.93,-391.11C1793.23,-392.154 1745.87,-391.921 1712.51,-390.409"/>
<polygon fill="black" stroke="black" points="1712.36,-386.897 1702.2,-389.873 1712,-393.887 1712.36,-386.897"/>
</a>
</g>
<!-- I_nitrate_mine -->
<g id="nitrate_mine" class="node"><title>I_nitrate_mine</title>
<a xlink:href="industries.html#nitrate_mine" xlink:title="Nitrate Mine" target="_top">
<polygon fill="none" stroke="black" points="180,-285.5 8.52651e-14,-285.5 0,-234.5 180,-234.5 180,-285.5"/>
<text text-anchor="start" x="46.5" y="-266.233" font-family="sans-serif" font-size="14.00">Nitrate Mine</text>
<text text-anchor="start" x="12.5" y="-245.733" font-family="sans-serif" font-size="14.00">[Engineering Supplies]</text>
</a>
</g>
<!-- I_nitrate_mine&#45;&gt;C_farm_supplies -->
<g id="edge70" class="edge"><title>I_nitrate_mine&#45;&gt;C_farm_supplies</title>
<a xlink:title="Nitrate Mine &#45;&gt; Farm Supplies">
<path fill="none" stroke="black" d="M180.071,-275.012C193.68,-277.28 207.576,-279.596 220.772,-281.795"/>
<polygon fill="black" stroke="black" points="220.271,-285.26 230.711,-283.452 221.422,-278.355 220.271,-285.26"/>
</a>
</g>
<!-- I_nitrate_mine&#45;&gt;C_nitrates -->
<g id="edge72" class="edge"><title>I_nitrate_mine&#45;&gt;C_nitrates</title>
<a xlink:title="Nitrate Mine &#45;&gt; Nitrates">
<path fill="none" stroke="black" d="M180.071,-251.169C198.722,-249.341 217.911,-247.46 235.1,-245.774"/>
<polygon fill="black" stroke="black" points="235.911,-249.212 245.521,-244.753 235.228,-242.245 235.911,-249.212"/>
</a>
</g>
<!-- I_oil_wells -->
<g id="oil_wells" class="node"><title>I_oil_wells</title>
<a xlink:href="industries.html#oil_wells" xlink:title="Oil Wells" target="_top">
<polygon fill="none" stroke="black" points="180,-373.5 8.52651e-14,-373.5 0,-322.5 180,-322.5 180,-373.5"/>
<text text-anchor="start" x="59.5" y="-354.233" font-family="sans-serif" font-size="14.00">Oil Wells</text>
<text text-anchor="start" x="12.5" y="-333.733" font-family="sans-serif" font-size="14.00">[Engineering Supplies]</text>
</a>
</g>
<!-- I_oil_wells&#45;&gt;C_oil -->
<g id="edge74" class="edge"><title>I_oil_wells&#45;&gt;C_oil</title>
<a xlink:title="Oil Wells &#45;&gt; Oil">
<path fill="none" stroke="black" d="M180.071,-348C207.039,-348 235.134,-348 256.677,-348"/>
<polygon fill="black" stroke="black" points="256.693,-351.5 266.693,-348 256.693,-344.5 256.693,-351.5"/>
</a>
</g>
<!-- I_ranch -->
<g id="ranch" class="node"><title>I_ranch</title>
<a xlink:href="industries.html#ranch" xlink:title="Ranch" target="_top">
<polygon fill="none" stroke="black" points="926,-134.5 796,-134.5 796,-83.5 926,-83.5 926,-134.5"/>
<text text-anchor="start" x="840" y="-115.233" font-family="sans-serif" font-size="14.00">Ranch</text>
<text text-anchor="start" x="808.5" y="-94.7333" font-family="sans-serif" font-size="14.00">[Farm Supplies]</text>
</a>
</g>
<!-- I_ranch&#45;&gt;C_livestock -->
<g id="edge80" class="edge"><title>I_ranch&#45;&gt;C_livestock</title>
<a xlink:title="Ranch &#45;&gt; Livestock">
<path fill="none" stroke="black" d="M926.892,-115.915C937.579,-117.036 948.631,-118.196 959.266,-119.312"/>
<polygon fill="black" stroke="black" points="958.999,-122.803 969.309,-120.366 959.729,-115.841 958.999,-122.803"/>
</a>
</g>
<!-- I_ranch&#45;&gt;C_wool -->
<g id="edge82" class="edge"><title>I_ranch&#45;&gt;C_wool</title>
<a xlink:title="Ranch &#45;&gt; Wool">
<path fill="none" stroke="black" d="M926.892,-93.9507C945.027,-89.8086 964.211,-85.4272 980.629,-81.6773"/>
<polygon fill="black" stroke="black" points="981.491,-85.0707 990.46,-79.4319 979.932,-78.2464 981.491,-85.0707"/>
</a>
</g>
<!-- I_vineyard -->
<g id="vineyard" class="node"><title>I_vineyard</title>
<a xlink:href="industries.html#vineyard" xlink:title="Vineyard" target="_top">
<polygon fill="none" stroke="black" points="926,-430.5 796,-430.5 796,-379.5 926,-379.5 926,-430.5"/>
<text text-anchor="start" x="830.5" y="-411.233" font-family="sans-serif" font-size="14.00">Vineyard</text>
<text text-anchor="start" x="808.5" y="-390.733" font-family="sans-serif" font-size="14.00">[Farm Supplies]</text>
</a>
</g>
<!-- I_vineyard&#45;&gt;C_alcohol -->
<g id="edge86" class="edge"><title>I_vineyard&#45;&gt;C_alcohol</title>
<a xlink:title="Vineyard &#45;&gt; Alcohol">
<path fill="none" stroke="black" d="M926.892,-423.303C943.132,-427.814 960.212,-432.559 975.394,-436.776"/>
<polygon fill="black" stroke="black" points="974.497,-440.16 985.069,-439.464 976.371,-433.415 974.497,-440.16"/>
</a>
</g>
<!-- I_vineyard&#45;&gt;C_fruits -->
<g id="edge88" class="edge"><title>I_vineyard&#45;&gt;C_fruits</title>
<a xlink:title="Vineyard &#45;&gt; Fruit">
<path fill="none" stroke="black" d="M926.892,-401.339C944.425,-400.365 962.938,-399.337 978.984,-398.445"/>
<polygon fill="black" stroke="black" points="979.348,-401.931 989.138,-397.881 978.959,-394.941 979.348,-401.931"/>
</a>
</g>
</g>
</svg>
