<?xml version="1.0" encoding="UTF-8" standalone="no"?>
<?xml-stylesheet href="static/css/cargoflow_styles.css" type="text/css"?>
<!DOCTYPE svg PUBLIC "-//W3C//DTD SVG 1.1//EN"
 "http://www.w3.org/Graphics/SVG/1.1/DTD/svg11.dtd">
<!-- Generated by graphviz version 2.26.3 (20100126.1600)
 -->
<!-- Title: temperate_basic Pages: 1 -->
<svg width="1806pt" height="556pt"
 viewBox="0.00 0.00 1806.00 556.00" xmlns="http://www.w3.org/2000/svg" xmlns:xlink="http://www.w3.org/1999/xlink">
<g id="graph1" class="graph" transform="scale(1 1) rotate(0) translate(4 552)">
<title>temperate_basic</title>
<a xlink:title="Temperate Basic">
<polygon fill="white" stroke="white" points="-4,5 -4,-552 1803,-552 1803,5 -4,5"/>
</a>
<!-- C_alcohol -->
<g id="alcohol" class="node"><title>C_alcohol</title>
<a xlink:href="cargos.html#alcohol" xlink:title="Alcohol" target="_top">
<ellipse fill="none" stroke="black" cx="1342" cy="-128" rx="45.8622" ry="18"/>
<text text-anchor="middle" x="1342" y="-123.9" font-family="sans-serif" font-size="14.00">Alcohol</text>
</a>
</g>
<!-- I_general_store -->
<g id="general_store" class="node"><title>I_general_store</title>
<a xlink:href="industries.html#general_store" xlink:title="General Store" target="_top">
<polygon fill="none" stroke="black" points="1542,-211 1420,-211 1420,-175 1542,-175 1542,-211"/>
<text text-anchor="start" x="1432.5" y="-189.233" font-family="sans-serif" font-size="14.00">General Store</text>
</a>
</g>
<!-- C_alcohol&#45;&gt;I_general_store -->
<g id="edge2" class="edge"><title>C_alcohol&#45;&gt;I_general_store</title>
<a xlink:title="Alcohol &#45;&gt; General Store">
<path fill="none" stroke="black" d="M1371.82,-141.944C1389.74,-150.322 1412.94,-161.175 1433.35,-170.719"/>
<polygon fill="black" stroke="black" points="1431.96,-173.932 1442.5,-174.998 1434.93,-167.592 1431.96,-173.932"/>
</a>
</g>
<!-- I_hotel -->
<g id="hotel" class="node"><title>I_hotel</title>
<a xlink:href="industries.html#hotel" xlink:title="Hotel" target="_top">
<polygon fill="none" stroke="black" points="1512,-91 1450,-91 1450,-55 1512,-55 1512,-91"/>
<text text-anchor="start" x="1462.5" y="-69.2333" font-family="sans-serif" font-size="14.00">Hotel</text>
</a>
</g>
<!-- C_alcohol&#45;&gt;I_hotel -->
<g id="edge4" class="edge"><title>C_alcohol&#45;&gt;I_hotel</title>
<a xlink:title="Alcohol &#45;&gt; Hotel">
<path fill="none" stroke="black" d="M1374.59,-115.105C1394.12,-107.375 1419.14,-97.4772 1440.01,-89.2202"/>
<polygon fill="black" stroke="black" points="1441.56,-92.3696 1449.57,-85.4358 1438.99,-85.8606 1441.56,-92.3696"/>
</a>
</g>
<!-- I_port -->
<g id="port" class="node"><title>I_port</title>
<a xlink:href="industries.html#port" xlink:title="Port" target="_top">
<polygon fill="none" stroke="black" points="1508,-151 1454,-151 1454,-115 1508,-115 1508,-151"/>
<text text-anchor="start" x="1466.5" y="-129.233" font-family="sans-serif" font-size="14.00">Port</text>
</a>
</g>
<!-- C_alcohol&#45;&gt;I_port -->
<g id="edge6" class="edge"><title>C_alcohol&#45;&gt;I_port</title>
<a xlink:title="Alcohol &#45;&gt; Port">
<path fill="none" stroke="black" d="M1387.9,-129.651C1405.97,-130.301 1426.46,-131.038 1443.61,-131.655"/>
<polygon fill="black" stroke="black" points="1443.69,-135.16 1453.8,-132.022 1443.94,-128.164 1443.69,-135.16"/>
</a>
</g>
<!-- CI_hotel_passengers -->
<g id="passengers" class="node"><title>CI_hotel_passengers</title>
<a xlink:href="cargos.html#passengers" xlink:title="Passengers" target="_top">
<ellipse fill="none" stroke="black" cx="1686" cy="-73" rx="64.1231" ry="18"/>
<text text-anchor="middle" x="1686" y="-68.9" font-family="sans-serif" font-size="14.00">Passengers</text>
</a>
</g>
<!-- I_hotel&#45;&gt;CI_hotel_passengers -->
<g id="edge66" class="edge"><title>I_hotel&#45;&gt;CI_hotel_passengers</title>
<a xlink:title="Hotel &#45;&gt; Passengers">
<path fill="none" stroke="black" d="M1512.14,-66.3209C1540.17,-64.075 1582.34,-63.4591 1618.14,-64.4732"/>
<polygon fill="black" stroke="black" points="1618.42,-67.9844 1628.53,-64.8211 1618.65,-60.9883 1618.42,-67.9844"/>
</a>
</g>
<!-- C_engineering_supplies -->
<g id="engineering_supplies" class="node"><title>C_engineering_supplies</title>
<a xlink:href="cargos.html#engineering_supplies" xlink:title="Engineering Supplies" target="_top">
<ellipse fill="none" stroke="black" cx="1686" cy="-133" rx="111.876" ry="18"/>
<text text-anchor="middle" x="1686" y="-128.9" font-family="sans-serif" font-size="14.00">Engineering Supplies</text>
</a>
</g>
<!-- I_port&#45;&gt;C_engineering_supplies -->
<g id="edge78" class="edge"><title>I_port&#45;&gt;C_engineering_supplies</title>
<a xlink:title="Port &#45;&gt; Engineering Supplies">
<path fill="none" stroke="black" d="M1508.22,-133C1523.1,-133 1542.71,-133 1563.45,-133"/>
<polygon fill="black" stroke="black" points="1563.7,-136.5 1573.7,-133 1563.7,-129.5 1563.7,-136.5"/>
</a>
</g>
<!-- C_chemicals -->
<g id="chemicals" class="node"><title>C_chemicals</title>
<a xlink:href="cargos.html#chemicals" xlink:title="Chemicals" target="_top">
<ellipse fill="none" stroke="black" cx="1016" cy="-302" rx="59.7599" ry="18"/>
<text text-anchor="middle" x="1016" y="-297.9" font-family="sans-serif" font-size="14.00">Chemicals</text>
</a>
</g>
<!-- I_glass_works -->
<g id="glass_works" class="node"><title>I_glass_works</title>
<a xlink:href="industries.html#glass_works" xlink:title="Glass Works" target="_top">
<polygon fill="none" stroke="black" points="1250,-260 1140,-260 1140,-224 1250,-224 1250,-260"/>
<text text-anchor="start" x="1152.5" y="-238.233" font-family="sans-serif" font-size="14.00">Glass Works</text>
</a>
</g>
<!-- C_chemicals&#45;&gt;I_glass_works -->
<g id="edge8" class="edge"><title>C_chemicals&#45;&gt;I_glass_works</title>
<a xlink:title="Chemicals &#45;&gt; Glass Works">
<path fill="none" stroke="black" d="M1056.17,-288.535C1078.28,-281.123 1106.24,-271.753 1131.26,-263.366"/>
<polygon fill="black" stroke="black" points="1132.68,-266.582 1141.04,-260.086 1130.45,-259.945 1132.68,-266.582"/>
</a>
</g>
<!-- I_metal_workshop -->
<g id="metal_workshop" class="node"><title>I_metal_workshop</title>
<a xlink:href="industries.html#metal_workshop" xlink:title="Metal Workshop" target="_top">
<polygon fill="none" stroke="black" points="1263,-320 1127,-320 1127,-284 1263,-284 1263,-320"/>
<text text-anchor="start" x="1139.5" y="-298.233" font-family="sans-serif" font-size="14.00">Metal Workshop</text>
</a>
</g>
<!-- C_chemicals&#45;&gt;I_metal_workshop -->
<g id="edge10" class="edge"><title>C_chemicals&#45;&gt;I_metal_workshop</title>
<a xlink:title="Chemicals &#45;&gt; Metal Workshop">
<path fill="none" stroke="black" d="M1076.1,-302C1088.97,-302 1102.75,-302 1116.21,-302"/>
<polygon fill="black" stroke="black" points="1116.41,-305.5 1126.41,-302 1116.41,-298.5 1116.41,-305.5"/>
</a>
</g>
<!-- C_goods -->
<g id="goods" class="node"><title>C_goods</title>
<a xlink:href="cargos.html#goods" xlink:title="Goods" target="_top">
<ellipse fill="none" stroke="black" cx="1342" cy="-238" rx="40.9981" ry="18"/>
<text text-anchor="middle" x="1342" y="-233.9" font-family="sans-serif" font-size="14.00">Goods</text>
</a>
</g>
<!-- I_glass_works&#45;&gt;C_goods -->
<g id="edge64" class="edge"><title>I_glass_works&#45;&gt;C_goods</title>
<a xlink:title="Glass Works &#45;&gt; Goods">
<path fill="none" stroke="black" d="M1250.16,-240.499C1263.4,-240.139 1277.49,-239.755 1290.56,-239.4"/>
<polygon fill="black" stroke="black" points="1290.88,-242.892 1300.78,-239.122 1290.69,-235.895 1290.88,-242.892"/>
</a>
</g>
<!-- I_metal_workshop&#45;&gt;C_goods -->
<g id="edge72" class="edge"><title>I_metal_workshop&#45;&gt;C_goods</title>
<a xlink:title="Metal Workshop &#45;&gt; Goods">
<path fill="none" stroke="black" d="M1236.6,-283.921C1245.63,-279.993 1255.14,-275.858 1264,-272 1276.84,-266.409 1290.88,-260.294 1303.45,-254.812"/>
<polygon fill="black" stroke="black" points="1304.97,-257.966 1312.74,-250.761 1302.18,-251.55 1304.97,-257.966"/>
</a>
</g>
<!-- C_clay -->
<g id="clay" class="node"><title>C_clay</title>
<a xlink:href="cargos.html#clay" xlink:title="Clay" target="_top">
<ellipse fill="none" stroke="black" cx="626" cy="-312" rx="32.157" ry="18"/>
<text text-anchor="middle" x="626" y="-307.9" font-family="sans-serif" font-size="14.00">Clay</text>
</a>
</g>
<!-- I_bulk_terminal -->
<g id="bulk_terminal" class="node"><title>I_bulk_terminal</title>
<a xlink:href="industries.html#bulk_terminal" xlink:title="Bulk Terminal" target="_top">
<polygon fill="none" stroke="black" points="875,-330 757,-330 757,-294 875,-294 875,-330"/>
<text text-anchor="start" x="769.5" y="-308.233" font-family="sans-serif" font-size="14.00">Bulk Terminal</text>
</a>
</g>
<!-- C_clay&#45;&gt;I_bulk_terminal -->
<g id="edge12" class="edge"><title>C_clay&#45;&gt;I_bulk_terminal</title>
<a xlink:title="Clay &#45;&gt; Bulk Terminal">
<path fill="none" stroke="black" d="M658.662,-312C682.58,-312 715.936,-312 745.782,-312"/>
<polygon fill="black" stroke="black" points="746.172,-315.5 756.172,-312 746.172,-308.5 746.172,-315.5"/>
</a>
</g>
<!-- I_bulk_terminal&#45;&gt;C_chemicals -->
<g id="edge44" class="edge"><title>I_bulk_terminal&#45;&gt;C_chemicals</title>
<a xlink:title="Bulk Terminal &#45;&gt; Chemicals">
<path fill="none" stroke="black" d="M875.736,-309.013C897.995,-307.9 923.449,-306.628 946.51,-305.475"/>
<polygon fill="black" stroke="black" points="946.759,-308.967 956.572,-304.971 946.41,-301.975 946.759,-308.967"/>
</a>
</g>
<!-- C_farm_supplies -->
<g id="farm_supplies" class="node"><title>C_farm_supplies</title>
<a xlink:href="cargos.html#farm_supplies" xlink:title="Farm Supplies" target="_top">
<ellipse fill="none" stroke="black" cx="1016" cy="-362" rx="77.8268" ry="18"/>
<text text-anchor="middle" x="1016" y="-357.9" font-family="sans-serif" font-size="14.00">Farm Supplies</text>
</a>
</g>
<!-- I_bulk_terminal&#45;&gt;C_farm_supplies -->
<g id="edge46" class="edge"><title>I_bulk_terminal&#45;&gt;C_farm_supplies</title>
<a xlink:title="Bulk Terminal &#45;&gt; Farm Supplies">
<path fill="none" stroke="black" d="M875.736,-326.934C900.117,-333.029 928.331,-340.083 953.034,-346.259"/>
<polygon fill="black" stroke="black" points="952.475,-349.726 963.026,-348.756 954.173,-342.935 952.475,-349.726"/>
</a>
</g>
<!-- C_coal -->
<g id="coal" class="node"><title>C_coal</title>
<a xlink:href="cargos.html#coal" xlink:title="Coal" target="_top">
<ellipse fill="none" stroke="black" cx="626" cy="-502" rx="32.157" ry="18"/>
<text text-anchor="middle" x="626" y="-497.9" font-family="sans-serif" font-size="14.00">Coal</text>
</a>
</g>
<!-- I_blast_furnace -->
<g id="blast_furnace" class="node"><title>I_blast_furnace</title>
<a xlink:href="industries.html#blast_furnace" xlink:title="Steel Mill" target="_top">
<polygon fill="none" stroke="black" points="860,-460 772,-460 772,-424 860,-424 860,-460"/>
<text text-anchor="start" x="784.5" y="-438.233" font-family="sans-serif" font-size="14.00">Steel Mill</text>
</a>
</g>
<!-- C_coal&#45;&gt;I_blast_furnace -->
<g id="edge14" class="edge"><title>C_coal&#45;&gt;I_blast_furnace</title>
<a xlink:title="Coal &#45;&gt; Steel Mill">
<path fill="none" stroke="black" d="M654.445,-493.017C682.738,-484.083 726.859,-470.15 761.849,-459.1"/>
<polygon fill="black" stroke="black" points="762.973,-462.416 771.454,-456.067 760.865,-455.741 762.973,-462.416"/>
</a>
</g>
<!-- C_steel -->
<g id="steel" class="node"><title>C_steel</title>
<a xlink:href="cargos.html#steel" xlink:title="Steel" target="_top">
<ellipse fill="none" stroke="black" cx="1016" cy="-422" rx="36.1339" ry="18"/>
<text text-anchor="middle" x="1016" y="-417.9" font-family="sans-serif" font-size="14.00">Steel</text>
</a>
</g>
<!-- I_blast_furnace&#45;&gt;C_steel -->
<g id="edge82" class="edge"><title>I_blast_furnace&#45;&gt;C_steel</title>
<a xlink:title="Steel Mill &#45;&gt; Steel">
<path fill="none" stroke="black" d="M860.884,-437.512C893.515,-434.248 937.534,-429.847 970.343,-426.566"/>
<polygon fill="black" stroke="black" points="970.971,-430.02 980.573,-425.543 970.275,-423.055 970.971,-430.02"/>
</a>
</g>
<!-- C_fish -->
<g id="fish" class="node"><title>C_fish</title>
<a xlink:href="cargos.html#fish" xlink:title="Fish" target="_top">
<ellipse fill="none" stroke="black" cx="257" cy="-100" rx="30.0736" ry="18"/>
<text text-anchor="middle" x="257" y="-95.9" font-family="sans-serif" font-size="14.00">Fish</text>
</a>
</g>
<!-- I_fishing_harbour -->
<g id="fishing_harbour" class="node"><title>I_fishing_harbour</title>
<a xlink:href="industries.html#fishing_harbour" xlink:title="Fishing Harbour" target="_top">
<polygon fill="none" stroke="black" points="503,-118 369,-118 369,-82 503,-82 503,-118"/>
<text text-anchor="start" x="381.5" y="-96.2333" font-family="sans-serif" font-size="14.00">Fishing Harbour</text>
</a>
</g>
<!-- C_fish&#45;&gt;I_fishing_harbour -->
<g id="edge16" class="edge"><title>C_fish&#45;&gt;I_fishing_harbour</title>
<a xlink:title="Fish &#45;&gt; Fishing Harbour">
<path fill="none" stroke="black" d="M287.771,-100C307.363,-100 333.676,-100 358.694,-100"/>
<polygon fill="black" stroke="black" points="358.94,-103.5 368.94,-100 358.94,-96.5001 358.94,-103.5"/>
</a>
</g>
<!-- C_food -->
<g id="food" class="node"><title>C_food</title>
<a xlink:href="cargos.html#food" xlink:title="Food" target="_top">
<ellipse fill="none" stroke="black" cx="626" cy="-183" rx="34.0492" ry="18"/>
<text text-anchor="middle" x="626" y="-178.9" font-family="sans-serif" font-size="14.00">Food</text>
</a>
</g>
<!-- I_fishing_harbour&#45;&gt;C_food -->
<g id="edge62" class="edge"><title>I_fishing_harbour&#45;&gt;C_food</title>
<a xlink:title="Fishing Harbour &#45;&gt; Food">
<path fill="none" stroke="black" d="M495.105,-118.143C505.513,-121.778 516.159,-125.786 526,-130 549.546,-140.082 575.041,-153.638 594.395,-164.517"/>
<polygon fill="black" stroke="black" points="592.673,-167.564 603.097,-169.46 596.13,-161.477 592.673,-167.564"/>
</a>
</g>
<!-- C_food&#45;&gt;I_general_store -->
<g id="edge20" class="edge"><title>C_food&#45;&gt;I_general_store</title>
<a xlink:title="Food &#45;&gt; General Store">
<path fill="none" stroke="black" d="M660.17,-183C728.003,-183 884.477,-183 1016,-183 1016,-183 1016,-183 1195,-183 1268.23,-183 1351.95,-186.315 1409.8,-189.128"/>
<polygon fill="black" stroke="black" points="1409.77,-192.631 1419.93,-189.628 1410.12,-185.639 1409.77,-192.631"/>
</a>
</g>
<!-- C_food&#45;&gt;I_hotel -->
<g id="edge22" class="edge"><title>C_food&#45;&gt;I_hotel</title>
<a xlink:title="Food &#45;&gt; Hotel">
<path fill="none" stroke="black" d="M651.314,-170.595C712.431,-141.828 873.541,-73 1016,-73 1016,-73 1016,-73 1195,-73 1282,-73 1383.88,-73 1439.52,-73"/>
<polygon fill="black" stroke="black" points="1439.68,-76.5001 1449.68,-73 1439.68,-69.5001 1439.68,-76.5001"/>
</a>
</g>
<!-- C_food&#45;&gt;I_bulk_terminal -->
<g id="edge18" class="edge"><title>C_food&#45;&gt;I_bulk_terminal</title>
<a xlink:title="Food &#45;&gt; Bulk Terminal">
<path fill="none" stroke="black" d="M638.759,-199.739C656.221,-221.572 689.576,-259.615 726,-282 732.367,-285.913 739.305,-289.381 746.41,-292.44"/>
<polygon fill="black" stroke="black" points="745.582,-295.879 756.166,-296.359 748.192,-289.384 745.582,-295.879"/>
</a>
</g>
<!-- C_fruits -->
<g id="fruits" class="node"><title>C_fruits</title>
<a xlink:href="cargos.html#fruits" xlink:title="Fruit" target="_top">
<ellipse fill="none" stroke="black" cx="257" cy="-37" rx="34.0492" ry="18"/>
<text text-anchor="middle" x="257" y="-32.9" font-family="sans-serif" font-size="14.00">Fruit</text>
</a>
</g>
<!-- I_brewery -->
<g id="brewery" class="node"><title>I_brewery</title>
<a xlink:href="industries.html#brewery" xlink:title="Cider Mill" target="_top">
<polygon fill="none" stroke="black" points="1239,-36 1151,-36 1151,-1.77636e-14 1239,-3.55271e-15 1239,-36"/>
<text text-anchor="start" x="1163.5" y="-14.2333" font-family="sans-serif" font-size="14.00">Cider Mill</text>
</a>
</g>
<!-- C_fruits&#45;&gt;I_brewery -->
<g id="edge24" class="edge"><title>C_fruits&#45;&gt;I_brewery</title>
<a xlink:title="Fruit &#45;&gt; Cider Mill">
<path fill="none" stroke="black" d="M290.81,-34.5525C355.739,-30.0704 502.404,-21 626,-21 626,-21 626,-21 816,-21 931.241,-21 1066.19,-19.5959 1139.94,-18.7089"/>
<polygon fill="black" stroke="black" points="1140.41,-22.2035 1150.37,-18.582 1140.33,-15.204 1140.41,-22.2035"/>
</a>
</g>
<!-- I_brewery&#45;&gt;C_alcohol -->
<g id="edge42" class="edge"><title>I_brewery&#45;&gt;C_alcohol</title>
<a xlink:title="Cider Mill &#45;&gt; Alcohol">
<path fill="none" stroke="black" d="M1219.27,-36.1643C1244.84,-55.2984 1285.13,-85.4405 1312.51,-105.931"/>
<polygon fill="black" stroke="black" points="1310.46,-108.768 1320.56,-111.957 1314.65,-103.164 1310.46,-108.768"/>
</a>
</g>
<!-- C_goods&#45;&gt;I_general_store -->
<g id="edge26" class="edge"><title>C_goods&#45;&gt;I_general_store</title>
<a xlink:title="Goods &#45;&gt; General Store">
<path fill="none" stroke="black" d="M1375.29,-227.221C1387.43,-223.292 1401.61,-218.701 1415.58,-214.181"/>
<polygon fill="black" stroke="black" points="1416.74,-217.482 1425.18,-211.072 1414.59,-210.822 1416.74,-217.482"/>
</a>
</g>
<!-- C_goods&#45;&gt;I_port -->
<g id="edge28" class="edge"><title>C_goods&#45;&gt;I_port</title>
<a xlink:title="Goods &#45;&gt; Port">
<path fill="none" stroke="black" d="M1356.85,-220.933C1371.68,-204.614 1395.7,-180.039 1420,-163 1427.58,-157.684 1436.25,-152.808 1444.62,-148.602"/>
<polygon fill="black" stroke="black" points="1446.38,-151.64 1453.87,-144.151 1443.35,-145.332 1446.38,-151.64"/>
</a>
</g>
<!-- C_iron_ore -->
<g id="iron_ore" class="node"><title>C_iron_ore</title>
<a xlink:href="cargos.html#iron_ore" xlink:title="Iron Ore" target="_top">
<ellipse fill="none" stroke="black" cx="626" cy="-442" rx="50.9221" ry="18"/>
<text text-anchor="middle" x="626" y="-437.9" font-family="sans-serif" font-size="14.00">Iron Ore</text>
</a>
</g>
<!-- C_iron_ore&#45;&gt;I_blast_furnace -->
<g id="edge30" class="edge"><title>C_iron_ore&#45;&gt;I_blast_furnace</title>
<a xlink:title="Iron Ore &#45;&gt; Steel Mill">
<path fill="none" stroke="black" d="M677.667,-442C703.569,-442 734.941,-442 761.256,-442"/>
<polygon fill="black" stroke="black" points="761.444,-445.5 771.444,-442 761.444,-438.5 761.444,-445.5"/>
</a>
</g>
<!-- C_livestock -->
<g id="livestock" class="node"><title>C_livestock</title>
<a xlink:href="cargos.html#livestock" xlink:title="Livestock" target="_top">
<ellipse fill="none" stroke="black" cx="257" cy="-160" rx="55.7874" ry="18"/>
<text text-anchor="middle" x="257" y="-155.9" font-family="sans-serif" font-size="14.00">Livestock</text>
</a>
</g>
<!-- I_stockyard -->
<g id="stockyard" class="node"><title>I_stockyard</title>
<a xlink:href="industries.html#stockyard" xlink:title="Stockyard" target="_top">
<polygon fill="none" stroke="black" points="483,-178 389,-178 389,-142 483,-142 483,-178"/>
<text text-anchor="start" x="401.5" y="-156.233" font-family="sans-serif" font-size="14.00">Stockyard</text>
</a>
</g>
<!-- C_livestock&#45;&gt;I_stockyard -->
<g id="edge32" class="edge"><title>C_livestock&#45;&gt;I_stockyard</title>
<a xlink:title="Livestock &#45;&gt; Stockyard">
<path fill="none" stroke="black" d="M313.637,-160C334.315,-160 357.712,-160 378.468,-160"/>
<polygon fill="black" stroke="black" points="378.736,-163.5 388.736,-160 378.736,-156.5 378.736,-163.5"/>
</a>
</g>
<!-- I_stockyard&#45;&gt;C_food -->
<g id="edge84" class="edge"><title>I_stockyard&#45;&gt;C_food</title>
<a xlink:title="Stockyard &#45;&gt; Food">
<path fill="none" stroke="black" d="M483.455,-165.745C513.935,-169.434 553.213,-174.189 582.817,-177.773"/>
<polygon fill="black" stroke="black" points="582.507,-181.261 592.855,-178.988 583.348,-174.311 582.507,-181.261"/>
</a>
</g>
<!-- C_milk -->
<g id="milk" class="node"><title>C_milk</title>
<a xlink:href="cargos.html#milk" xlink:title="Milk" target="_top">
<ellipse fill="none" stroke="black" cx="257" cy="-220" rx="30.0736" ry="18"/>
<text text-anchor="middle" x="257" y="-215.9" font-family="sans-serif" font-size="14.00">Milk</text>
</a>
</g>
<!-- I_dairy -->
<g id="dairy" class="node"><title>I_dairy</title>
<a xlink:href="industries.html#dairy" xlink:title="Dairy" target="_top">
<polygon fill="none" stroke="black" points="467,-238 405,-238 405,-202 467,-202 467,-238"/>
<text text-anchor="start" x="417.5" y="-216.233" font-family="sans-serif" font-size="14.00">Dairy</text>
</a>
</g>
<!-- C_milk&#45;&gt;I_dairy -->
<g id="edge34" class="edge"><title>C_milk&#45;&gt;I_dairy</title>
<a xlink:title="Milk &#45;&gt; Dairy">
<path fill="none" stroke="black" d="M287.771,-220C317.175,-220 361.721,-220 394.304,-220"/>
<polygon fill="black" stroke="black" points="394.428,-223.5 404.428,-220 394.428,-216.5 394.428,-223.5"/>
</a>
</g>
<!-- I_dairy&#45;&gt;C_food -->
<g id="edge52" class="edge"><title>I_dairy&#45;&gt;C_food</title>
<a xlink:title="Dairy &#45;&gt; Food">
<path fill="none" stroke="black" d="M467.802,-213.807C499.627,-207.609 548.771,-198.039 583.835,-191.211"/>
<polygon fill="black" stroke="black" points="584.63,-194.622 593.777,-189.275 583.292,-187.751 584.63,-194.622"/>
</a>
</g>
<!-- C_sand -->
<g id="sand" class="node"><title>C_sand</title>
<a xlink:href="cargos.html#sand" xlink:title="Sand" target="_top">
<ellipse fill="none" stroke="black" cx="1016" cy="-242" rx="34.9399" ry="18"/>
<text text-anchor="middle" x="1016" y="-237.9" font-family="sans-serif" font-size="14.00">Sand</text>
</a>
</g>
<!-- C_sand&#45;&gt;I_glass_works -->
<g id="edge36" class="edge"><title>C_sand&#45;&gt;I_glass_works</title>
<a xlink:title="Sand &#45;&gt; Glass Works">
<path fill="none" stroke="black" d="M1051.79,-242C1074.04,-242 1103.31,-242 1129.59,-242"/>
<polygon fill="black" stroke="black" points="1129.87,-245.5 1139.87,-242 1129.87,-238.5 1129.87,-245.5"/>
</a>
</g>
<!-- C_scrap_metal -->
<g id="scrap_metal" class="node"><title>C_scrap_metal</title>
<a xlink:href="cargos.html#scrap_metal" xlink:title="Scrap Metal" target="_top">
<ellipse fill="none" stroke="black" cx="626" cy="-382" rx="68.0985" ry="18"/>
<text text-anchor="middle" x="626" y="-377.9" font-family="sans-serif" font-size="14.00">Scrap Metal</text>
</a>
</g>
<!-- C_scrap_metal&#45;&gt;I_blast_furnace -->
<g id="edge38" class="edge"><title>C_scrap_metal&#45;&gt;I_blast_furnace</title>
<a xlink:title="Scrap Metal &#45;&gt; Steel Mill">
<path fill="none" stroke="black" d="M670.067,-395.916C697.349,-404.531 732.588,-415.659 761.603,-424.822"/>
<polygon fill="black" stroke="black" points="760.593,-428.173 771.183,-427.847 762.701,-421.498 760.593,-428.173"/>
</a>
</g>
<!-- C_steel&#45;&gt;I_metal_workshop -->
<g id="edge40" class="edge"><title>C_steel&#45;&gt;I_metal_workshop</title>
<a xlink:title="Steel &#45;&gt; Metal Workshop">
<path fill="none" stroke="black" d="M1047.2,-412.887C1061.97,-407.863 1079.51,-400.837 1094,-392 1123.39,-374.083 1152.23,-347.186 1171.52,-327.462"/>
<polygon fill="black" stroke="black" points="1174.26,-329.657 1178.67,-320.024 1169.22,-324.804 1174.26,-329.657"/>
</a>
</g>
<!-- I_clay_pit -->
<g id="clay_pit" class="node"><title>I_clay_pit</title>
<a xlink:href="industries.html#clay_pit" xlink:title="Clay Pit" target="_top">
<polygon fill="none" stroke="black" points="526,-326.5 346,-326.5 346,-275.5 526,-275.5 526,-326.5"/>
<text text-anchor="start" x="409" y="-307.233" font-family="sans-serif" font-size="14.00">Clay Pit</text>
<text text-anchor="start" x="358.5" y="-286.733" font-family="sans-serif" font-size="14.00">[Engineering Supplies]</text>
</a>
</g>
<!-- I_clay_pit&#45;&gt;C_clay -->
<g id="edge48" class="edge"><title>I_clay_pit&#45;&gt;C_clay</title>
<a xlink:title="Clay Pit &#45;&gt; Clay">
<path fill="none" stroke="black" d="M526.27,-306.226C546.252,-307.383 566.513,-308.556 583.506,-309.54"/>
<polygon fill="black" stroke="black" points="583.447,-313.042 593.633,-310.126 583.852,-306.054 583.447,-313.042"/>
</a>
</g>
<!-- I_coal_mine -->
<g id="coal_mine" class="node"><title>I_coal_mine</title>
<a xlink:href="industries.html#coal_mine" xlink:title="Coal Mine" target="_top">
<polygon fill="none" stroke="black" points="526,-548.5 346,-548.5 346,-497.5 526,-497.5 526,-548.5"/>
<text text-anchor="start" x="402" y="-529.233" font-family="sans-serif" font-size="14.00">Coal Mine</text>
<text text-anchor="start" x="358.5" y="-508.733" font-family="sans-serif" font-size="14.00">[Engineering Supplies]</text>
</a>
</g>
<!-- I_coal_mine&#45;&gt;C_coal -->
<g id="edge50" class="edge"><title>I_coal_mine&#45;&gt;C_coal</title>
<a xlink:title="Coal Mine &#45;&gt; Coal">
<path fill="none" stroke="black" d="M526.27,-513.023C546.41,-510.797 566.834,-508.539 583.91,-506.652"/>
<polygon fill="black" stroke="black" points="584.522,-510.106 594.077,-505.528 583.753,-503.148 584.522,-510.106"/>
</a>
</g>
<!-- I_dairy_farm -->
<g id="dairy_farm" class="node"><title>I_dairy_farm</title>
<a xlink:href="industries.html#dairy_farm" xlink:title="Dairy Farm" target="_top">
<polygon fill="none" stroke="black" points="149,-220.5 19,-220.5 19,-169.5 149,-169.5 149,-220.5"/>
<text text-anchor="start" x="46.5" y="-201.233" font-family="sans-serif" font-size="14.00">Dairy Farm</text>
<text text-anchor="start" x="31.5" y="-180.733" font-family="sans-serif" font-size="14.00">[Farm Supplies]</text>
</a>
</g>
<!-- I_dairy_farm&#45;&gt;C_livestock -->
<g id="edge54" class="edge"><title>I_dairy_farm&#45;&gt;C_livestock</title>
<a xlink:title="Dairy Farm &#45;&gt; Livestock">
<path fill="none" stroke="black" d="M149.897,-181.668C166.112,-178.388 183.351,-174.9 199.153,-171.703"/>
<polygon fill="black" stroke="black" points="200.197,-175.063 209.304,-169.649 198.808,-168.202 200.197,-175.063"/>
</a>
</g>
<!-- I_dairy_farm&#45;&gt;C_milk -->
<g id="edge56" class="edge"><title>I_dairy_farm&#45;&gt;C_milk</title>
<a xlink:title="Dairy Farm &#45;&gt; Milk">
<path fill="none" stroke="black" d="M149.897,-204.523C172.503,-207.789 197.101,-211.344 217.017,-214.222"/>
<polygon fill="black" stroke="black" points="216.571,-217.694 226.969,-215.66 217.573,-210.766 216.571,-217.694"/>
</a>
</g>
<!-- I_dredging_site -->
<g id="dredging_site" class="node"><title>I_dredging_site</title>
<a xlink:href="industries.html#dredging_site" xlink:title="Dredging Site" target="_top">
<polygon fill="none" stroke="black" points="906,-270.5 726,-270.5 726,-219.5 906,-219.5 906,-270.5"/>
<text text-anchor="start" x="768.5" y="-251.233" font-family="sans-serif" font-size="14.00">Dredging Site</text>
<text text-anchor="start" x="738.5" y="-230.733" font-family="sans-serif" font-size="14.00">[Engineering Supplies]</text>
</a>
</g>
<!-- I_dredging_site&#45;&gt;C_sand -->
<g id="edge58" class="edge"><title>I_dredging_site&#45;&gt;C_sand</title>
<a xlink:title="Dredging Site &#45;&gt; Sand">
<path fill="none" stroke="black" d="M906.054,-243.649C928.274,-243.316 951.156,-242.973 970.252,-242.686"/>
<polygon fill="black" stroke="black" points="970.498,-246.183 980.444,-242.533 970.392,-239.184 970.498,-246.183"/>
</a>
</g>
<!-- I_fishing_grounds -->
<g id="fishing_grounds" class="node"><title>I_fishing_grounds</title>
<a xlink:href="industries.html#fishing_grounds" xlink:title="Fishing Grounds" target="_top">
<polygon fill="none" stroke="black" points="152,-122 16,-122 16,-86 152,-86 152,-122"/>
<text text-anchor="start" x="28.5" y="-100.233" font-family="sans-serif" font-size="14.00">Fishing Grounds</text>
</a>
</g>
<!-- I_fishing_grounds&#45;&gt;C_fish -->
<g id="edge60" class="edge"><title>I_fishing_grounds&#45;&gt;C_fish</title>
<a xlink:title="Fishing Grounds &#45;&gt; Fish">
<path fill="none" stroke="black" d="M152.871,-102.408C174.337,-101.911 197.316,-101.38 216.211,-100.943"/>
<polygon fill="black" stroke="black" points="216.337,-104.441 226.253,-100.711 216.175,-97.4431 216.337,-104.441"/>
</a>
</g>
<!-- CI_hotel_passengers&#45;&gt;I_hotel -->
<g id="edge68" class="edge"><title>CI_hotel_passengers&#45;&gt;I_hotel</title>
<a xlink:title="Passengers &#45;&gt; Hotel">
<path fill="none" stroke="black" d="M1628.53,-81.1789C1594.79,-82.4918 1552.92,-82.2302 1522.42,-80.3942"/>
<polygon fill="black" stroke="black" points="1522.35,-76.8813 1512.14,-79.6791 1521.87,-83.8645 1522.35,-76.8813"/>
</a>
</g>
<!-- I_iron_ore_mine -->
<g id="iron_ore_mine" class="node"><title>I_iron_ore_mine</title>
<a xlink:href="industries.html#iron_ore_mine" xlink:title="Iron Ore Mine" target="_top">
<polygon fill="none" stroke="black" points="526,-474.5 346,-474.5 346,-423.5 526,-423.5 526,-474.5"/>
<text text-anchor="start" x="388" y="-455.233" font-family="sans-serif" font-size="14.00">Iron Ore Mine</text>
<text text-anchor="start" x="358.5" y="-434.733" font-family="sans-serif" font-size="14.00">[Engineering Supplies]</text>
</a>
</g>
<!-- I_iron_ore_mine&#45;&gt;C_iron_ore -->
<g id="edge70" class="edge"><title>I_iron_ore_mine&#45;&gt;C_iron_ore</title>
<a xlink:title="Iron Ore Mine &#45;&gt; Iron Ore">
<path fill="none" stroke="black" d="M526.27,-445.674C539.286,-445.195 552.42,-444.711 564.693,-444.259"/>
<polygon fill="black" stroke="black" points="564.914,-447.753 574.778,-443.887 564.656,-440.758 564.914,-447.753"/>
</a>
</g>
<!-- I_orchard_piggery -->
<g id="orchard_piggery" class="node"><title>I_orchard_piggery</title>
<a xlink:href="industries.html#orchard_piggery" xlink:title="Orchard and Piggery" target="_top">
<polygon fill="none" stroke="black" points="167,-62.5 1,-62.5 1,-11.5 167,-11.5 167,-62.5"/>
<text text-anchor="start" x="13.5" y="-43.2333" font-family="sans-serif" font-size="14.00">Orchard and Piggery</text>
<text text-anchor="start" x="31.5" y="-22.7333" font-family="sans-serif" font-size="14.00">[Farm Supplies]</text>
</a>
</g>
<!-- I_orchard_piggery&#45;&gt;C_fruits -->
<g id="edge74" class="edge"><title>I_orchard_piggery&#45;&gt;C_fruits</title>
<a xlink:title="Orchard and Piggery &#45;&gt; Fruit">
<path fill="none" stroke="black" d="M167.713,-37C183.245,-37 198.898,-37 212.665,-37"/>
<polygon fill="black" stroke="black" points="212.791,-40.5001 222.791,-37 212.791,-33.5001 212.791,-40.5001"/>
</a>
</g>
<!-- I_orchard_piggery&#45;&gt;C_livestock -->
<g id="edge76" class="edge"><title>I_orchard_piggery&#45;&gt;C_livestock</title>
<a xlink:title="Orchard and Piggery &#45;&gt; Livestock">
<path fill="none" stroke="black" d="M151.955,-62.2037C157.692,-65.7058 163.146,-69.6271 168,-74 189.298,-93.1863 179.382,-110.085 200,-130 204.022,-133.885 208.647,-137.396 213.486,-140.532"/>
<polygon fill="black" stroke="black" points="211.955,-143.693 222.344,-145.771 215.519,-137.668 211.955,-143.693"/>
</a>
</g>
<!-- I_junk_yard -->
<g id="junk_yard" class="node"><title>I_junk_yard</title>
<a xlink:href="industries.html#junk_yard" xlink:title="Scrap Yard" target="_top">
<polygon fill="none" stroke="black" points="526,-400.5 346,-400.5 346,-349.5 526,-349.5 526,-400.5"/>
<text text-anchor="start" x="399.5" y="-381.233" font-family="sans-serif" font-size="14.00">Scrap Yard</text>
<text text-anchor="start" x="358.5" y="-360.733" font-family="sans-serif" font-size="14.00">[Engineering Supplies]</text>
</a>
</g>
<!-- I_junk_yard&#45;&gt;C_scrap_metal -->
<g id="edge80" class="edge"><title>I_junk_yard&#45;&gt;C_scrap_metal</title>
<a xlink:title="Scrap Yard &#45;&gt; Scrap Metal">
<path fill="none" stroke="black" d="M526.27,-378.326C533.624,-378.597 541.016,-378.869 548.269,-379.136"/>
<polygon fill="black" stroke="black" points="548.29,-382.639 558.412,-379.51 548.547,-375.644 548.29,-382.639"/>
</a>
</g>
</g>
</svg>
